<?xml version="1.0" standalone="no"?>
<!DOCTYPE svg PUBLIC "-//W3C//DTD SVG 20010904//EN"
 "http://www.w3.org/TR/2001/REC-SVG-20010904/DTD/svg10.dtd">
<svg version="1.0" xmlns="http://www.w3.org/2000/svg"
 width="1024" height="1024" viewBox="0 0 1024 1024"
 preserveAspectRatio="xMidYMid meet">
  <rect width="1024" height="1024" fill="white"/>
<metadata>
Created by potrace 1.16, written by Peter Selinger 2001-2019
</metadata>
<g transform="translate(0.000000,1024.000000) scale(0.100000,-0.100000)"
fill="#000000" stroke="none">
<path d="M0 5120 l0 -5120 5120 0 5120 0 0 5120 0 5120 -5120 0 -5120 0 0
-5120z m5456 3769 c187 -188 367 -361 400 -385 161 -115 1328 -590 2174 -884
146 -51 269 -96 274 -101 23 -21 -89 -1441 -160 -2024 -54 -446 -221 -1361
-259 -1420 -17 -28 -200 -126 -415 -223 -425 -192 -673 -272 -1213 -392 -423
-93 -509 -121 -787 -255 -329 -159 -487 -199 -780 -199 -182 0 -243 8 -388 50
-86 25 -248 100 -317 147 l-37 25 69 7 c99 10 247 41 339 70 402 131 1200 581
1656 933 141 109 363 329 450 445 196 265 305 537 328 826 32 391 -78 729
-412 1271 -419 679 -818 1242 -1163 1639 l-90 104 -58 -64 c-289 -318 -721
-914 -1084 -1499 -300 -483 -401 -679 -471 -915 -70 -234 -84 -505 -38 -725
63 -305 208 -564 456 -810 226 -225 484 -371 793 -449 l112 -28 -87 -57 c-261
-170 -536 -254 -868 -263 -471 -14 -777 93 -1442 503 -75 47 -141 91 -147 98
-20 24 -139 708 -171 986 -11 96 -27 225 -35 285 -45 340 -133 1458 -148 1878
l-2 59 235 84 c906 326 1326 489 1875 729 321 140 343 153 482 288 67 65 226
228 354 363 128 134 233 244 234 244 2 0 155 -153 341 -341z m-69 -1539 c268
-403 296 -445 455 -705 266 -434 330 -563 380 -761 19 -75 22 -115 22 -254 -1
-145 -4 -177 -27 -263 -29 -109 -105 -275 -161 -352 -111 -153 -321 -321 -498
-397 -190 -82 -449 -118 -635 -88 -400 64 -749 360 -878 745 -97 287 -62 612
101 936 66 133 246 435 397 668 225 346 580 862 587 854 4 -4 120 -177 257
-383z m-3042 -3493 c105 -60 307 -172 450 -249 360 -195 391 -215 740 -497
557 -449 913 -742 1445 -1189 74 -62 140 -110 147 -108 7 3 185 146 395 319
479 392 1058 857 1203 965 116 87 190 126 765 402 151 73 360 175 463 227 125
62 185 87 178 75 -27 -50 -289 -341 -481 -533 -238 -239 -385 -371 -755 -683
-137 -115 -380 -321 -540 -456 -830 -703 -1221 -1030 -1234 -1030 -21 0 -1042
862 -1581 1334 -627 549 -964 901 -1364 1420 -138 179 -141 184 -74 144 29
-17 139 -81 243 -141z m3675 -871 c-8 -8 -91 -76 -185 -152 -93 -76 -287 -233
-430 -349 -143 -116 -266 -214 -272 -218 -8 -5 -87 49 -219 150 l-206 158 74
7 c225 23 282 40 581 172 253 112 407 172 557 216 111 33 119 35 100 16z"/>
<path d="M4040 7774 c-226 -89 -1009 -382 -1322 -495 l-258 -93 0 -41 c0 -22
4 -87 10 -145 5 -58 19 -238 30 -400 59 -858 114 -1295 246 -1944 32 -157 49
-223 62 -232 43 -34 257 -135 352 -168 185 -63 419 -104 687 -121 l102 -7
-162 164 c-178 178 -263 279 -367 436 -177 266 -272 550 -287 858 -13 284 51
547 223 904 42 85 103 200 136 255 69 112 597 910 677 1023 28 39 48 72 44 71
-5 0 -82 -30 -173 -65z"/>
<path d="M6052 7795 c147 -196 535 -780 662 -998 121 -205 285 -578 335 -757
39 -144 54 -258 54 -420 0 -131 -5 -174 -28 -280 -68 -314 -180 -549 -387
-814 -157 -202 -496 -537 -746 -739 -45 -37 -77 -67 -70 -67 24 0 203 30 298
51 379 80 785 262 1105 494 55 40 110 84 122 97 32 34 120 420 187 823 74 445
110 784 172 1595 8 118 19 256 23 305 5 50 5 93 2 97 -3 3 -89 36 -191 73
-133 48 -1373 512 -1560 583 -8 3 2 -16 22 -43z"/>
</g>
</svg>
