<?xml version="1.0" standalone="no"?>
<!DOCTYPE svg PUBLIC "-//W3C//DTD SVG 20010904//EN"
 "http://www.w3.org/TR/2001/REC-SVG-20010904/DTD/svg10.dtd">
<svg version="1.0" xmlns="http://www.w3.org/2000/svg"
 width="1024" height="1024" viewBox="0 0 1024 1024"
 preserveAspectRatio="xMidYMid meet">
  <rect width="1024" height="1024" fill="white"/>
<metadata>
Created by potrace 1.16, written by Peter Selinger 2001-2019
</metadata>
<g transform="translate(0.000000,1024.000000) scale(0.100000,-0.100000)"
fill="#000000" stroke="none">
<path d="M0 5120 l0 -5120 5120 0 5120 0 0 5120 0 5120 -5120 0 -5120 0 0
-5120z m2502 3733 c78 -63 270 -242 603 -563 77 -74 194 -184 260 -245 66 -60
183 -171 261 -245 77 -74 219 -209 315 -300 96 -90 270 -260 388 -377 175
-173 217 -210 229 -201 8 7 73 95 145 197 73 102 153 207 178 235 25 28 77 96
116 151 39 55 84 115 100 133 l28 33 45 -57 c25 -31 80 -102 124 -157 43 -56
104 -134 136 -173 32 -39 87 -114 122 -165 35 -52 86 -122 114 -156 l49 -62
140 147 c77 80 176 180 220 221 255 243 356 342 493 482 84 86 171 169 195
185 23 16 143 128 267 249 324 318 388 378 450 418 31 20 121 99 200 176 80
78 148 141 153 141 4 0 7 -10 8 -22 0 -21 1 -21 8 -4 5 14 10 16 15 7 4 -6 5
-456 1 -999 -7 -1056 -7 -1056 -59 -1208 -29 -84 -103 -236 -147 -301 -143
-210 -388 -474 -559 -603 -47 -35 -128 -103 -180 -150 -52 -48 -196 -171 -320
-274 -350 -291 -418 -349 -439 -377 -11 -14 -43 -77 -71 -140 -29 -63 -76
-163 -105 -224 -195 -404 -247 -517 -239 -524 9 -8 86 20 399 146 192 77 324
131 425 171 41 17 110 46 153 66 43 20 80 36 82 36 2 0 1 -16 -2 -37 -4 -26
-3 -34 5 -29 7 4 12 3 12 -2 0 -23 -44 -132 -105 -258 -37 -76 -103 -215 -147
-309 -44 -93 -84 -174 -88 -180 -4 -5 -71 -149 -149 -320 -79 -170 -160 -348
-182 -394 -26 -55 -36 -88 -30 -94 11 -11 174 120 191 153 5 10 40 42 77 71
38 30 129 104 203 164 74 61 182 146 240 189 58 43 129 99 159 125 30 25 69
57 86 71 218 173 392 314 443 362 34 32 70 58 79 58 9 0 24 7 34 16 17 15 15
21 -31 112 -77 154 -290 661 -290 692 0 6 -22 54 -49 108 -69 138 -118 307
-98 339 12 19 138 104 161 109 12 2 34 14 51 26 76 57 129 88 148 88 11 0 28
7 38 16 16 14 20 11 52 -48 32 -57 223 -460 428 -903 43 -93 103 -216 132
-272 30 -57 60 -117 67 -135 7 -18 37 -83 67 -144 68 -136 66 -146 -29 -219
-111 -85 -229 -172 -338 -250 -58 -41 -150 -110 -205 -153 -55 -43 -135 -102
-177 -132 -70 -51 -545 -406 -768 -575 -52 -40 -133 -99 -180 -131 -82 -56
-390 -286 -550 -409 -101 -78 -221 -177 -300 -249 -66 -59 -180 -199 -180
-220 0 -6 -26 -43 -57 -81 -63 -75 -139 -177 -289 -382 -53 -73 -101 -133
-108 -133 -7 0 -28 17 -48 38 -39 40 -198 260 -198 273 0 5 -19 30 -42 57 -63
72 -80 93 -110 137 -63 94 -118 169 -191 264 -66 85 -99 117 -215 205 -75 58
-168 130 -206 161 -38 32 -87 69 -110 84 -23 14 -103 73 -179 131 -136 105
-210 159 -434 319 -180 129 -304 223 -463 351 -80 64 -161 127 -180 140 -19
13 -91 64 -160 115 -159 116 -322 234 -361 260 -16 11 -85 60 -154 109 -141
99 -139 96 -106 201 19 60 102 250 146 335 22 42 58 122 282 625 47 105 100
217 118 250 19 33 54 107 79 165 25 57 53 108 61 113 8 4 27 30 40 58 14 27
29 49 34 49 5 0 22 -11 38 -23 15 -13 40 -27 55 -31 15 -3 49 -28 76 -54 27
-26 86 -78 130 -116 67 -56 82 -73 82 -96 0 -29 -75 -222 -221 -570 -131 -313
-136 -325 -153 -358 -9 -17 -25 -68 -35 -114 -11 -46 -22 -90 -26 -99 -4 -11
21 -37 87 -90 50 -41 127 -104 170 -141 42 -36 105 -88 140 -114 65 -50 127
-99 313 -254 61 -51 151 -123 202 -161 51 -38 121 -95 155 -127 35 -32 101
-88 148 -124 47 -36 110 -91 140 -122 81 -83 90 -73 39 40 -50 114 -54 123
-138 301 -45 95 -81 175 -81 178 0 4 -22 50 -49 103 -71 143 -315 678 -341
747 -18 50 -32 145 -22 145 2 0 49 -23 105 -51 56 -28 154 -71 217 -96 63 -24
125 -51 137 -59 13 -8 87 -41 165 -73 169 -70 286 -120 387 -167 112 -52 114
-43 36 137 -34 80 -74 164 -88 186 -36 57 -89 164 -137 278 -52 123 -156 333
-179 359 -9 10 -62 54 -118 98 -56 43 -129 112 -163 152 -63 76 -136 134 -228
180 -28 14 -100 68 -158 119 -59 50 -138 116 -176 145 -61 47 -461 420 -464
432 -3 12 -44 71 -110 160 -39 52 -83 118 -99 145 -106 188 -121 225 -156 395
-21 104 -21 110 -14 1083 4 537 11 977 16 977 5 0 46 -30 91 -67z"/>
<path d="M6606 7123 c-631 -633 -719 -728 -881 -948 -27 -37 -75 -102 -107
-144 -124 -167 -249 -361 -292 -451 -44 -92 -63 -128 -148 -274 l-41 -69 -18
24 c-10 13 -32 48 -50 79 -17 30 -52 89 -77 130 -26 41 -57 98 -71 125 -25 52
-131 208 -210 310 -26 33 -58 78 -71 100 -13 22 -43 63 -66 92 -23 28 -90 120
-150 205 -96 137 -134 179 -368 413 -486 485 -1056 1040 -1071 1043 -18 4 -18
24 -5 -338 12 -320 23 -396 78 -532 104 -256 279 -463 667 -783 33 -27 112
-95 175 -150 63 -55 162 -140 220 -189 58 -49 165 -148 238 -220 l134 -131
174 -345 c342 -677 433 -853 449 -869 15 -15 17 -14 28 4 55 95 346 650 467
891 l151 302 147 143 c135 132 274 257 409 370 133 111 399 341 551 476 83 74
230 260 274 347 100 197 126 327 133 661 2 132 6 273 8 313 2 51 -1 72 -9 72
-7 0 -307 -296 -668 -657z"/>
<path d="M5105 6948 c-67 -93 -285 -434 -285 -445 0 -3 14 -24 30 -47 17 -23
75 -104 130 -181 102 -144 152 -205 170 -205 5 0 17 14 25 30 30 58 228 347
258 378 18 17 18 16 -142 256 -52 78 -108 162 -125 188 -17 26 -34 47 -38 47
-4 1 -14 -9 -23 -21z"/>
<path d="M5617 3612 c-34 -32 -100 -86 -147 -119 -47 -34 -96 -73 -110 -88
-14 -15 -54 -47 -90 -73 -36 -25 -86 -63 -111 -84 -25 -21 -50 -38 -56 -38 -6
0 -56 34 -110 75 -326 248 -429 325 -436 325 -20 0 -15 -35 19 -121 20 -52 60
-161 90 -244 29 -82 70 -190 92 -240 22 -49 76 -189 121 -310 45 -121 104
-276 130 -345 27 -69 57 -149 67 -179 10 -30 25 -56 31 -59 14 -4 73 116 100
203 16 51 126 341 187 495 19 47 52 130 74 185 22 55 59 147 82 205 47 117
122 325 150 413 18 56 18 57 -2 57 -11 0 -47 -26 -81 -58z"/>
</g>
</svg>
