<?xml version="1.0" standalone="no"?>
<!DOCTYPE svg PUBLIC "-//W3C//DTD SVG 20010904//EN"
 "http://www.w3.org/TR/2001/REC-SVG-20010904/DTD/svg10.dtd">
<svg version="1.0" xmlns="http://www.w3.org/2000/svg"
 width="1024" height="1024" viewBox="0 0 1024 1024"
 preserveAspectRatio="xMidYMid meet">
  <rect width="1024" height="1024" fill="white"/>
<metadata>
Created by potrace 1.16, written by Peter Selinger 2001-2019
</metadata>
<g transform="translate(0.000000,1024.000000) scale(0.100000,-0.100000)"
fill="#000000" stroke="none">
<path d="M0 5120 l0 -5120 5120 0 5120 0 0 5120 0 5120 -5120 0 -5120 0 0
-5120z m3334 4043 c13 -27 61 -106 105 -178 45 -71 108 -183 140 -247 33 -64
80 -148 105 -187 24 -38 74 -122 110 -185 53 -93 66 -124 66 -158 0 -24 7 -83
15 -133 8 -49 15 -100 15 -111 0 -21 -61 -103 -183 -249 -70 -84 -188 -280
-277 -462 -35 -73 -67 -133 -71 -133 -3 0 -48 53 -100 118 -105 132 -274 334
-491 586 -99 114 -148 179 -148 195 0 22 61 132 290 521 54 91 121 208 150
260 93 167 239 410 246 410 2 0 15 -21 28 -47z m2600 -945 c27 -33 101 -130
166 -216 64 -86 152 -196 196 -243 43 -47 151 -173 239 -280 88 -106 194 -234
235 -284 77 -93 100 -120 230 -280 41 -51 99 -120 128 -154 53 -63 65 -88 36
-77 -9 3 -60 17 -114 31 -54 14 -173 57 -264 96 -92 39 -169 69 -172 66 -5 -5
116 -185 285 -425 57 -81 151 -217 209 -302 58 -85 112 -162 121 -170 53 -48
56 -42 -90 -184 -176 -172 -363 -367 -524 -546 -72 -80 -182 -199 -246 -266
-63 -67 -151 -163 -195 -215 -43 -51 -109 -125 -146 -164 -38 -40 -68 -75 -68
-78 0 -23 26 -6 385 247 94 66 276 194 405 285 129 91 276 197 325 236 124 98
141 108 168 101 13 -3 59 -29 103 -57 120 -79 169 -96 439 -149 57 -12 155
-55 155 -68 0 -10 -114 -64 -240 -112 -47 -18 -121 -48 -165 -67 -44 -19 -129
-55 -190 -80 -60 -26 -186 -86 -280 -135 -269 -140 -379 -192 -550 -258 -228
-88 -543 -248 -713 -362 -39 -27 -79 -51 -87 -54 -17 -7 -70 33 -178 133 -43
40 -124 109 -180 153 -56 44 -160 132 -232 196 -71 63 -173 144 -225 179 -229
153 -444 284 -502 308 -35 13 -119 46 -188 72 -69 27 -186 75 -260 108 -74 32
-145 61 -157 64 -13 3 -23 9 -23 14 0 11 -16 10 180 13 91 2 252 9 359 16 267
17 305 9 422 -97 99 -89 217 -185 289 -233 36 -25 91 -68 123 -97 65 -59 94
-70 51 -20 -15 17 -78 136 -140 262 -61 127 -145 285 -187 351 -41 66 -92 152
-113 190 -21 38 -81 134 -134 214 -53 80 -109 168 -125 195 l-28 51 27 51 c26
52 192 431 268 613 54 129 131 333 175 460 45 132 63 160 182 290 53 58 119
132 146 165 93 113 240 270 410 436 193 190 170 184 259 77z m-1563 -375 c-17
-87 -37 -214 -46 -283 -8 -69 -24 -162 -35 -208 -11 -46 -20 -94 -20 -107 0
-13 -3 -31 -6 -40 -11 -28 -484 -255 -484 -231 0 6 45 83 100 171 55 88 143
237 196 330 54 94 129 222 169 285 39 63 84 142 100 175 61 128 65 112 26 -92z
m-2036 -114 c35 -107 82 -246 104 -309 52 -146 172 -388 211 -425 l30 -28 15
36 c8 19 18 61 21 92 4 30 10 58 15 60 22 14 240 -315 333 -502 36 -73 66
-135 66 -137 0 -3 19 -49 41 -101 23 -53 39 -99 36 -102 -9 -8 -52 25 -240
185 -216 182 -277 222 -387 252 -47 12 -105 31 -130 42 -58 26 -166 103 -185
131 -7 12 -21 62 -30 111 -15 77 -15 114 -6 294 6 112 11 259 11 326 0 159 10
290 22 278 5 -5 38 -96 73 -203z m-510 -814 c37 -126 84 -302 106 -390 22 -88
49 -178 60 -200 11 -22 50 -66 87 -97 67 -58 420 -307 435 -308 12 0 -2 93
-40 260 -20 85 -37 164 -37 175 -2 35 33 28 102 -23 37 -27 94 -66 127 -87
116 -73 157 -117 230 -242 208 -362 202 -353 250 -353 28 0 38 10 110 113 44
61 126 175 184 252 125 168 261 371 261 391 0 8 7 14 15 14 13 0 15 -40 17
-290 1 -159 2 -311 3 -337 l0 -47 -85 -63 c-47 -35 -141 -107 -208 -161 -142
-110 -143 -112 -217 -327 -26 -77 -54 -146 -61 -154 -11 -12 -23 -8 -83 29
-39 23 -137 91 -217 151 -99 73 -156 109 -173 109 -72 0 -473 -41 -521 -54
-126 -32 -99 -46 -295 148 -96 95 -175 179 -175 185 0 14 25 14 140 -4 154
-24 500 -18 500 8 0 6 -77 85 -172 176 -239 231 -446 439 -476 481 -14 19 -37
47 -50 62 l-24 26 21 92 c11 50 28 151 36 223 9 73 22 168 30 212 8 44 17 121
21 170 7 95 11 112 25 98 4 -4 38 -111 74 -238z m1830 -1645 c8 -13 -25 -13
-45 0 -12 8 -9 10 12 10 15 0 30 -4 33 -10z m-140 -233 c45 -63 224 -286 340
-422 119 -140 187 -205 214 -205 10 0 82 43 160 95 79 52 148 95 155 95 10 0
107 -116 180 -215 16 -22 -172 -319 -339 -535 -61 -80 -162 -220 -223 -311
-61 -92 -132 -193 -158 -225 -64 -81 -166 -184 -181 -184 -6 0 -57 53 -112
118 -55 64 -159 185 -231 267 -72 83 -189 218 -260 302 l-130 152 0 83 c0 185
-44 488 -122 835 -18 78 -29 145 -25 149 14 14 50 -27 178 -206 116 -163 135
-195 156 -265 53 -177 85 -340 93 -476 5 -80 15 -151 23 -172 29 -68 410 -487
423 -465 4 6 19 52 34 102 16 50 47 152 70 226 73 230 60 352 -62 577 -154
287 -166 317 -183 445 -8 65 -24 150 -35 190 -24 85 -24 88 -7 88 6 0 25 -19
42 -43z m4234 -434 c22 -27 84 -102 137 -168 54 -66 143 -172 198 -235 56 -63
135 -158 176 -210 41 -52 98 -122 127 -156 51 -59 53 -63 53 -120 0 -32 4
-117 10 -189 16 -228 45 -953 37 -945 -3 3 -30 68 -60 145 -30 77 -83 203
-117 280 -34 77 -89 210 -121 295 -33 85 -70 165 -82 177 -28 27 -189 80 -287
94 -54 8 -117 8 -224 -1 -108 -8 -152 -8 -160 0 -7 7 -8 13 0 18 140 96 405
341 423 393 9 25 7 31 -13 44 -12 8 -135 53 -273 99 -137 46 -278 98 -313 116
-74 37 -161 100 -154 111 4 8 132 75 448 238 65 33 127 61 137 61 10 0 36 -21
58 -47z m-1029 -454 c0 -16 -237 -416 -320 -539 -49 -73 -276 -468 -303 -528
-17 -38 -21 -67 -21 -152 l-1 -105 61 -130 c34 -71 69 -157 78 -190 27 -94 93
-207 312 -535 191 -287 268 -388 420 -553 63 -68 213 -186 307 -240 84 -49 58
-47 -123 13 -140 46 -281 112 -460 214 -74 42 -151 81 -170 86 -94 24 -89 25
-105 -11 -8 -19 -38 -74 -65 -124 -28 -49 -60 -109 -72 -132 -12 -24 -25 -43
-28 -43 -3 0 -44 89 -90 198 -46 108 -117 274 -158 367 -41 94 -82 193 -92
220 -23 67 -118 298 -192 470 -34 77 -85 205 -115 285 -57 153 -144 350 -154
350 -4 0 -51 -52 -105 -117 -55 -64 -146 -170 -204 -236 -58 -66 -119 -137
-136 -156 -17 -20 -82 -112 -144 -205 -62 -93 -139 -201 -169 -240 -31 -39
-106 -138 -166 -221 -60 -82 -142 -192 -182 -243 -40 -51 -78 -102 -83 -112
-10 -18 -8 -19 22 -14 99 17 145 38 617 283 172 89 316 160 319 157 3 -4 -28
-41 -69 -84 -89 -93 -182 -198 -308 -347 -51 -60 -101 -117 -111 -126 -12 -10
-48 -18 -104 -22 -93 -8 -123 -14 -426 -88 -113 -28 -302 -70 -420 -94 -118
-25 -244 -54 -280 -65 -62 -19 -140 -27 -140 -14 0 6 65 81 180 208 36 39 137
152 225 250 88 99 201 223 250 276 158 170 278 302 388 427 58 67 159 177 224
245 65 68 181 193 258 278 76 85 185 205 242 266 l103 112 -21 58 c-37 107
-206 869 -197 894 3 11 223 -243 419 -485 140 -173 188 -225 207 -225 24 0
100 46 327 197 116 77 251 166 300 198 50 31 126 88 170 124 107 90 277 210
298 211 4 0 7 -5 7 -11z m1080 -812 c41 -20 47 -29 71 -92 15 -38 54 -133 86
-210 56 -130 97 -234 189 -475 20 -52 51 -134 70 -183 19 -48 46 -136 60 -195
14 -59 34 -133 45 -166 l18 -58 -58 -72 c-33 -39 -84 -100 -115 -136 -30 -36
-89 -105 -129 -155 -41 -49 -84 -98 -96 -109 -18 -17 -21 -17 -27 -3 -3 9 1
47 10 84 35 156 121 758 110 771 -1 2 -33 -27 -71 -65 -63 -62 -142 -158 -296
-362 -105 -138 -80 -125 -222 -117 -130 7 -155 11 -155 29 0 5 27 53 59 106
118 190 211 409 246 576 20 95 32 295 18 295 -17 0 -173 -60 -221 -85 -73 -37
-124 -75 -194 -141 -88 -83 -152 -176 -209 -302 -26 -59 -53 -107 -60 -107
-17 0 -22 21 -69 296 -76 434 -80 468 -62 496 8 13 156 84 432 208 102 46 244
111 315 144 145 69 168 71 255 28z"/>
<path d="M3313 8518 c-22 -35 -51 -90 -65 -123 -40 -93 -138 -343 -138 -353 0
-19 227 -313 239 -311 10 1 241 297 241 308 0 46 -211 541 -231 541 -4 0 -25
-28 -46 -62z"/>
<path d="M5825 7730 c-27 -22 -104 -98 -170 -169 -66 -72 -213 -229 -326 -348
-113 -120 -218 -240 -233 -268 -36 -65 -140 -297 -181 -405 -18 -47 -59 -143
-90 -215 -31 -71 -61 -140 -66 -152 -7 -18 3 -44 45 -125 30 -57 64 -128 77
-158 13 -30 57 -113 98 -185 138 -241 268 -484 337 -633 94 -203 221 -422 245
-422 14 0 189 158 365 329 94 91 260 251 370 355 109 105 232 226 272 270 108
120 232 325 232 387 0 32 -30 89 -173 327 -102 169 -203 333 -527 852 -94 150
-105 174 -130 270 -30 115 -78 286 -89 311 -5 14 -14 11 -56 -21z m187 -1097
c26 -23 22 -53 -13 -107 -62 -93 -153 -147 -246 -147 -121 0 -150 24 -104 87
24 33 51 97 68 163 2 9 10 11 26 6 49 -16 142 -16 182 -1 52 19 65 19 87 -1z
m-728 -69 c26 -26 19 -170 -8 -161 -31 10 -80 150 -59 170 12 13 51 7 67 -9z
m63 -288 c44 -57 311 -329 345 -351 l28 -17 72 64 c93 82 159 130 278 202 52
31 108 69 124 84 l28 27 -7 -25 c-10 -34 -66 -136 -135 -245 -31 -49 -85 -135
-120 -190 -121 -192 -261 -360 -302 -360 -22 0 -138 219 -204 383 -69 174
-146 394 -158 449 -10 44 8 36 51 -21z"/>
</g>
</svg>
