<?xml version="1.0" standalone="no"?>
<!DOCTYPE svg PUBLIC "-//W3C//DTD SVG 20010904//EN"
 "http://www.w3.org/TR/2001/REC-SVG-20010904/DTD/svg10.dtd">
<svg version="1.0" xmlns="http://www.w3.org/2000/svg"
 width="1024" height="1024" viewBox="0 0 1024 1024"
 preserveAspectRatio="xMidYMid meet">
  <rect width="1024" height="1024" fill="white"/>
<metadata>
Created by potrace 1.16, written by Peter Selinger 2001-2019
</metadata>
<g transform="translate(0.000000,1024.000000) scale(0.100000,-0.100000)"
fill="#000000" stroke="none">
<path d="M0 5120 l0 -5120 5120 0 5120 0 0 5120 0 5120 -5120 0 -5120 0 0
-5120z m7206 2432 c64 -114 130 -232 147 -262 16 -30 52 -91 79 -135 l50 -80
270 -130 c205 -98 276 -138 294 -161 22 -28 85 -143 95 -171 2 -7 144 -69 314
-138 171 -69 318 -129 328 -133 17 -7 10 -19 -52 -100 -84 -109 -141 -165
-236 -236 -102 -77 -101 -77 -170 -60 -75 18 -794 138 -930 155 -112 15 -500
18 -512 5 -4 -5 -2 -11 5 -13 39 -14 288 -191 351 -249 l73 -69 -54 -75 c-29
-41 -106 -143 -170 -227 l-116 -152 -93 76 c-52 41 -143 120 -202 174 -218
198 -320 272 -575 419 -100 57 -159 84 -194 89 l-50 8 7 -66 7 -66 317 -324
c174 -178 367 -376 429 -441 l112 -118 -14 -69 c-8 -38 -48 -176 -90 -308 -41
-132 -83 -274 -94 -315 l-19 -74 343 -351 c189 -192 503 -512 698 -710 194
-198 351 -361 347 -362 -3 -1 -102 -7 -219 -13 l-213 -11 -222 188 c-501 426
-1230 1023 -1352 1109 -19 13 -18 19 34 292 38 198 51 289 46 317 -15 95 -50
225 -60 225 -5 0 -48 -22 -95 -50 -47 -27 -92 -50 -100 -50 -8 0 -69 21 -135
45 -144 55 -523 171 -845 259 -129 35 -267 73 -307 84 l-72 21 -304 -407
c-167 -224 -341 -460 -388 -524 l-84 -116 -130 -60 c-71 -33 -195 -90 -275
-127 -80 -37 -280 -136 -445 -221 l-300 -154 -86 -138 c-47 -75 -155 -261
-239 -412 -84 -151 -157 -281 -162 -287 -8 -10 -67 -13 -234 -13 l-225 0 17
33 c27 52 193 335 254 432 32 50 90 151 130 225 111 204 321 583 332 597 5 7
47 32 92 57 46 24 120 68 165 97 91 57 100 68 547 639 356 454 426 543 537
680 60 74 111 139 114 146 2 6 32 14 66 18 94 9 493 91 664 136 643 169 1036
325 1843 731 195 98 416 212 490 253 l135 75 83 333 c46 183 90 366 98 405 9
40 20 71 25 68 4 -3 61 -99 125 -213z m-5557 -1024 c188 -116 479 -291 733
-439 l237 -140 213 -53 c117 -30 295 -73 396 -97 100 -23 182 -45 182 -48 0
-13 -293 -363 -308 -368 -17 -7 -98 10 -487 103 -395 94 -339 63 -502 282 -77
103 -224 309 -328 457 -103 149 -206 294 -227 323 -21 28 -36 52 -32 52 4 0
59 -32 123 -72z m6036 -2041 l269 -144 108 -214 c98 -196 304 -657 296 -664
-5 -4 -419 253 -445 277 -13 12 -81 91 -151 175 l-127 153 -155 51 c-272 89
-642 244 -648 271 -1 7 24 82 57 165 33 84 70 184 82 223 l21 71 212 -110
c116 -60 332 -174 481 -254z m-3045 199 c107 -42 230 -93 273 -113 l77 -36 0
-62 c0 -72 -24 -320 -45 -480 -14 -98 -18 -112 -43 -133 -35 -29 -168 -118
-404 -268 -103 -65 -188 -122 -188 -125 0 -9 250 -251 365 -353 55 -49 155
-133 223 -187 l122 -99 -249 0 c-136 0 -262 -3 -278 -6 -26 -5 -68 22 -383
248 -195 140 -386 276 -423 303 l-69 50 49 43 c26 24 134 112 238 196 105 85
206 174 226 198 l36 43 -49 65 c-28 36 -77 104 -109 153 l-60 87 227 284 c202
254 229 284 248 277 11 -5 109 -43 216 -85z"/>
<path d="M7520 6772 c0 -5 11 -19 25 -32 21 -20 25 -33 25 -82 0 -79 26 -108
99 -108 43 0 52 4 80 35 27 31 33 34 56 25 40 -15 62 -12 68 9 4 16 -3 21 -40
31 -25 6 -79 33 -121 60 -58 39 -84 50 -114 50 -22 0 -48 5 -59 10 -10 6 -19
7 -19 2z"/>
</g>
</svg>
