<?xml version="1.0" standalone="no"?>
<!DOCTYPE svg PUBLIC "-//W3C//DTD SVG 20010904//EN"
 "http://www.w3.org/TR/2001/REC-SVG-20010904/DTD/svg10.dtd">
<svg version="1.0" xmlns="http://www.w3.org/2000/svg"
 width="1024" height="1024" viewBox="0 0 1024 1024"
 preserveAspectRatio="xMidYMid meet">
  <rect width="1024" height="1024" fill="white"/>
<metadata>
Created by potrace 1.16, written by Peter Selinger 2001-2019
</metadata>
<g transform="translate(0.000000,1024.000000) scale(0.100000,-0.100000)"
fill="#000000" stroke="none">
<path d="M0 5120 l0 -5120 5120 0 5120 0 0 5120 0 5120 -5120 0 -5120 0 0
-5120z m5220 4105 c24 -44 57 -98 75 -120 17 -22 72 -102 122 -177 50 -76 107
-157 126 -180 43 -55 147 -213 147 -226 0 -5 -24 -25 -52 -45 -61 -40 -189
-158 -299 -273 -77 -81 -130 -156 -150 -211 -11 -32 -29 -46 -45 -35 -6 4 -30
37 -54 73 -56 82 -158 214 -197 254 -66 68 -191 174 -235 199 -27 16 -48 31
-48 36 0 4 30 52 66 106 36 55 77 121 91 148 26 50 182 295 254 396 21 30 57
86 80 123 l42 68 16 -28 c10 -15 37 -64 61 -108z m-2209 -950 c81 -123 239
-255 324 -270 l40 -7 -30 -15 c-69 -36 -292 -213 -323 -257 -18 -25 -52 -86
-76 -136 l-43 -91 -18 48 c-26 71 -92 181 -138 230 -59 64 -156 139 -231 178
-60 31 -62 34 -38 40 45 11 164 96 235 167 56 57 77 88 129 196 l63 128 30
-71 c17 -38 51 -101 76 -140z m4497 109 c449 -124 606 -188 836 -338 212 -138
378 -285 489 -430 241 -316 340 -600 354 -1011 9 -266 -24 -449 -126 -697 -65
-156 -138 -264 -273 -403 -293 -303 -732 -481 -1231 -500 -152 -6 -153 -5 -27
39 153 53 511 294 636 429 235 251 380 514 404 729 5 51 17 148 26 215 11 88
15 174 12 305 -6 259 -31 370 -131 567 -69 139 -92 176 -206 342 -88 130 -308
332 -517 475 -38 27 -143 103 -232 169 -90 66 -186 132 -214 148 -28 15 -48
27 -44 27 4 0 114 -30 244 -66z m-5643 -521 c26 -43 57 -88 67 -99 11 -12 21
-28 22 -35 12 -67 195 -321 424 -587 l73 -84 -38 -33 c-46 -40 -170 -197 -257
-325 -35 -52 -95 -139 -132 -193 l-68 -99 13 -226 c7 -125 15 -267 17 -317 2
-49 6 -153 9 -230 l6 -140 51 -90 c29 -49 75 -127 104 -171 29 -45 61 -103 73
-129 12 -26 37 -70 56 -97 l35 -49 -101 -111 c-55 -61 -112 -129 -126 -152
-14 -22 -37 -53 -51 -68 l-26 -28 0 -627 c-1 -624 18 -1793 30 -1866 5 -32 1
-46 -29 -90 -19 -29 -53 -83 -76 -122 -44 -73 -76 -122 -158 -239 l-48 -69 -5
1389 -5 1389 -24 45 c-13 25 -38 68 -56 95 -74 114 -105 166 -133 223 l-30 60
27 49 c15 27 39 65 53 84 15 19 37 54 51 79 13 25 42 74 64 110 l40 65 11 225
c51 1002 53 917 -22 1034 -22 36 -59 95 -81 131 -22 36 -62 98 -90 136 -27 39
-70 99 -95 133 -25 35 -73 105 -108 155 l-63 91 36 53 c74 111 121 176 158
216 20 22 37 45 37 49 0 5 17 32 39 60 21 29 86 149 146 267 59 118 113 215
119 215 7 0 34 -35 61 -77z m3589 -6 c30 -68 112 -143 276 -251 69 -46 161
-112 206 -147 44 -36 115 -86 157 -113 42 -26 77 -49 77 -50 0 -8 -96 -231
-125 -291 -22 -46 -45 -120 -66 -215 -17 -80 -42 -187 -56 -238 -13 -51 -23
-103 -21 -115 3 -22 -12 -37 -120 -119 -61 -46 -262 -220 -348 -300 -80 -74
-111 -87 -100 -40 9 39 26 433 20 459 -6 22 45 79 207 230 l66 62 6 185 c3
102 4 186 2 186 -13 0 -135 -79 -183 -118 -63 -51 -300 -212 -313 -212 -5 0
-43 26 -86 58 -43 32 -132 98 -198 147 -66 49 -135 101 -153 117 -18 15 -36
28 -40 28 -4 0 -7 -19 -7 -42 -1 -24 -4 -106 -9 -183 l-8 -140 44 -42 c44 -43
145 -127 209 -176 l37 -27 1 -175 c2 -153 -12 -335 -26 -335 -2 0 -31 20 -63
45 -32 25 -62 45 -66 45 -4 0 -22 13 -38 30 -17 16 -74 65 -126 108 -52 43
-132 116 -177 161 l-83 83 10 97 c6 53 10 161 9 241 l-2 145 -34 53 c-19 30
-59 102 -89 160 -31 59 -60 111 -65 116 -23 24 -14 32 161 153 41 29 100 73
130 98 30 25 79 62 108 81 65 43 238 182 271 217 l23 25 77 -88 c42 -48 102
-120 134 -159 33 -39 62 -71 66 -71 4 0 45 43 91 95 86 97 166 212 176 252 4
13 8 23 10 23 2 0 15 -24 28 -53z m1757 -435 c57 -98 178 -213 247 -231 27 -8
26 -8 -18 -31 -67 -34 -199 -173 -241 -255 -20 -39 -42 -88 -49 -110 -6 -22
-14 -47 -16 -55 -3 -8 -15 15 -28 51 -13 36 -36 90 -52 120 -36 67 -184 217
-241 244 -24 11 -43 22 -43 25 0 3 17 13 38 22 104 49 252 228 293 358 l23 70
27 -75 c15 -41 42 -101 60 -133z m796 -379 c69 -107 138 -245 153 -308 7 -27
20 -102 29 -165 14 -99 15 -128 4 -215 -21 -163 -95 -347 -195 -480 -42 -56
-70 -81 -138 -122 -108 -66 -215 -108 -338 -134 -85 -17 -143 -26 -374 -56
-40 -5 -48 -3 -48 10 0 11 12 18 38 22 176 28 272 87 474 292 134 136 219 254
242 339 16 59 46 149 92 279 36 102 47 200 40 355 -6 141 -21 217 -52 266 -18
28 -18 29 0 14 11 -8 43 -52 73 -97z m-1619 -833 c29 -11 66 -20 82 -20 16 0
71 -15 122 -34 114 -41 354 -116 374 -116 8 0 14 -3 14 -6 0 -3 -28 -38 -63
-78 -35 -39 -109 -127 -164 -196 -55 -69 -153 -175 -219 -237 -137 -129 -340
-348 -413 -444 -27 -37 -116 -131 -196 -210 -81 -79 -182 -187 -226 -240 -87
-107 -114 -136 -382 -397 l-187 -184 -30 19 c-17 11 -92 80 -168 154 -75 74
-205 198 -289 277 -83 78 -189 185 -234 238 -45 52 -154 160 -243 239 -89 79
-344 327 -568 553 l-407 409 112 43 c61 24 146 60 187 80 41 20 93 43 115 50
22 7 80 30 128 51 48 22 99 39 112 39 23 0 108 -50 120 -71 10 -16 315 -279
409 -354 49 -38 110 -88 135 -111 25 -22 82 -68 126 -101 44 -34 172 -151 284
-262 l204 -201 41 37 c23 20 196 188 386 373 365 356 483 467 540 509 66 49
218 182 224 197 7 18 11 18 74 -6z m-2732 -941 c5 -8 -4 -10 -30 -7 -20 2 -36
3 -36 1 0 -6 77 -103 150 -188 102 -121 193 -235 240 -302 43 -63 45 -54 -25
-137 -97 -115 -145 -167 -234 -251 -53 -50 -140 -135 -194 -188 -55 -54 -133
-123 -175 -154 -43 -31 -94 -72 -114 -91 -37 -35 -37 -35 -90 -24 -269 55
-365 79 -461 113 -62 22 -143 51 -182 63 -91 31 -298 106 -302 110 -5 5 53
160 78 208 12 24 39 85 60 137 l37 94 88 23 c49 13 102 24 117 24 16 0 65 7
110 14 45 8 138 23 206 32 197 28 231 52 536 380 128 138 143 151 176 153 21
1 41 -4 45 -10z m3266 -332 l218 -214 72 -17 c40 -9 129 -30 198 -46 69 -17
154 -35 190 -41 36 -6 103 -19 150 -29 91 -20 167 -32 324 -51 104 -13 478 -6
626 11 71 8 89 4 90 -21 0 -3 -53 -38 -117 -79 -124 -76 -320 -207 -438 -291
-38 -27 -97 -65 -130 -84 -33 -19 -82 -52 -110 -74 -27 -22 -87 -69 -133 -103
-71 -55 -81 -66 -77 -88 2 -14 14 -135 25 -270 11 -135 24 -288 29 -340 4 -52
6 -97 5 -99 -2 -2 -39 32 -81 75 -43 44 -121 114 -173 156 -116 92 -743 714
-825 818 -60 76 -122 143 -362 393 -83 85 -133 145 -133 158 0 39 30 77 229
294 40 44 91 104 113 133 38 51 39 52 66 38 15 -8 125 -111 244 -229z m-1022
-1087 c51 -107 118 -238 149 -290 30 -52 63 -113 74 -135 34 -74 161 -304 263
-477 118 -200 149 -257 239 -438 48 -96 118 -229 155 -295 145 -260 228 -413
234 -432 4 -13 0 -25 -9 -33 -20 -17 16 -46 -415 335 -52 46 -124 106 -160
133 -36 27 -103 85 -150 128 -47 44 -103 93 -125 109 -22 17 -80 64 -130 105
-49 42 -109 91 -132 109 l-43 33 -10 -27 c-5 -14 -10 -28 -10 -30 0 -3 -18
-42 -40 -88 -22 -46 -58 -135 -81 -198 -23 -63 -55 -150 -71 -194 -17 -44 -45
-123 -63 -175 -55 -156 -83 -226 -129 -318 -24 -48 -51 -112 -61 -142 -10 -30
-33 -86 -52 -123 -42 -84 -114 -254 -137 -322 -9 -27 -27 -69 -39 -93 l-23
-42 -28 62 c-16 35 -46 101 -68 148 -22 47 -68 160 -103 251 -35 91 -75 190
-90 220 -15 29 -36 76 -46 104 -9 27 -45 118 -79 200 -106 258 -230 653 -230
737 0 50 -15 53 -61 10 -24 -22 -61 -51 -81 -65 -43 -29 -96 -74 -282 -242
-346 -314 -361 -326 -436 -384 -154 -118 -190 -145 -242 -187 -91 -72 -127
-47 -61 42 37 51 57 82 176 268 32 50 78 133 103 185 25 51 65 126 89 165 23
39 94 175 157 302 63 128 128 249 145 271 17 21 87 148 155 280 68 133 146
286 174 340 28 54 69 134 92 178 23 44 48 91 56 105 9 14 22 43 31 64 l15 39
38 -39 c21 -21 57 -52 79 -69 107 -80 324 -278 401 -366 47 -55 87 -99 89 -99
20 0 266 206 304 254 11 14 84 80 162 147 78 67 155 137 171 156 16 19 32 31
36 26 4 -4 49 -96 100 -203z"/>
</g>
</svg>
