<?xml version="1.0" standalone="no"?>
<!DOCTYPE svg PUBLIC "-//W3C//DTD SVG 20010904//EN"
 "http://www.w3.org/TR/2001/REC-SVG-20010904/DTD/svg10.dtd">
<svg version="1.0" xmlns="http://www.w3.org/2000/svg"
 width="1024" height="1024" viewBox="0 0 1024 1024"
 preserveAspectRatio="xMidYMid meet">
  <rect width="1024" height="1024" fill="white"/>
<metadata>
Created by potrace 1.16, written by Peter Selinger 2001-2019
</metadata>
<g transform="translate(0.000000,1024.000000) scale(0.100000,-0.100000)"
fill="#000000" stroke="none">
<path d="M0 5120 l0 -5120 5120 0 5120 0 0 5120 0 5120 -5120 0 -5120 0 0
-5120z m5148 4298 c119 -141 1095 -1363 1100 -1377 2 -5 -25 -24 -60 -44 -35
-19 -138 -76 -230 -126 -92 -51 -174 -91 -182 -89 -8 2 -45 42 -83 90 -196
251 -569 717 -573 717 -3 0 -149 -180 -325 -401 -175 -220 -325 -403 -333
-405 -7 -3 -61 24 -120 59 -59 36 -162 96 -230 133 l-122 68 18 28 c33 52
1096 1379 1105 1379 4 0 20 -14 35 -32z m2061 -1170 c-15 -68 -110 -458 -212
-868 -102 -410 -195 -788 -208 -841 l-24 -97 -425 -314 c-234 -172 -483 -356
-555 -408 -71 -51 -183 -134 -248 -183 -65 -49 -120 -87 -122 -85 -6 7 187
853 197 863 2 2 164 83 361 181 215 106 364 185 372 198 7 12 18 46 25 76 7
30 42 163 76 295 35 132 64 243 64 246 0 4 -71 -32 -157 -80 -351 -194 -674
-371 -768 -421 -128 -68 -154 -87 -166 -117 -5 -14 -52 -186 -104 -382 -122
-457 -176 -641 -187 -641 -5 0 -13 10 -18 23 -11 23 -157 548 -231 826 -29
111 -51 173 -66 192 -13 15 -63 49 -111 74 -146 79 -813 445 -886 486 -37 22
-66 34 -63 27 2 -7 37 -147 77 -311 l72 -297 87 -49 c48 -27 213 -112 368
-189 l281 -141 31 -128 c16 -70 51 -220 77 -333 25 -113 56 -249 69 -302 12
-54 20 -98 18 -98 -2 0 -97 68 -211 152 -237 174 -819 599 -998 729 -67 49
-126 94 -132 102 -12 14 -485 1903 -480 1917 2 4 104 -50 228 -122 124 -72
356 -206 515 -298 370 -213 634 -374 1222 -742 l143 -89 152 94 c84 51 214
131 288 177 125 78 496 301 1020 615 171 103 651 384 656 385 1 0 -11 -55 -27
-122z m-4075 -1990 c91 -198 188 -448 179 -461 -6 -6 -70 -86 -144 -177 -148
-182 -160 -197 -576 -720 -160 -202 -296 -375 -303 -387 -12 -19 -8 -27 40
-89 30 -38 115 -141 190 -229 132 -155 917 -1094 974 -1165 l28 -35 -6 190
c-3 105 -8 388 -11 630 l-6 440 212 220 c116 121 297 312 402 425 151 163 196
206 219 208 15 2 139 -6 274 -17 l246 -21 235 -218 c130 -119 288 -265 352
-323 64 -58 122 -113 130 -122 12 -15 -18 -54 -260 -343 -151 -180 -285 -340
-299 -357 l-26 -30 -152 172 c-92 103 -150 177 -146 184 4 7 43 67 86 134 44
67 78 129 76 137 -3 14 -299 319 -304 313 -4 -4 -230 -490 -243 -525 -11 -27
-11 -35 0 -49 8 -10 92 -108 188 -218 96 -110 186 -214 201 -230 l25 -31 -11
-214 c-6 -118 -15 -268 -19 -332 l-7 -117 -61 -72 c-72 -85 -39 -86 -362 6
-126 36 -234 63 -240 61 -5 -2 118 -130 274 -284 156 -154 289 -278 295 -276
6 2 42 56 79 120 79 134 165 254 181 254 6 0 23 -21 37 -48 14 -26 79 -142
143 -259 l117 -212 52 -11 c29 -6 141 -26 250 -45 109 -18 201 -35 203 -38 6
-6 -69 -37 -385 -162 l-237 -94 -208 -25 c-114 -13 -210 -26 -212 -28 -3 -3
395 -489 486 -595 l28 -31 178 206 c98 114 312 360 475 547 164 187 307 352
318 367 l21 26 -72 6 c-40 3 -217 15 -393 27 -176 11 -320 22 -321 22 -11 17
-184 382 -184 388 0 10 734 12 923 2 l127 -6 0 -176 1 -176 27 31 c15 17 110
127 212 245 102 118 291 336 420 484 250 287 694 802 899 1044 68 80 151 178
186 216 l63 71 -42 49 c-68 79 -765 933 -826 1010 -30 39 -91 113 -137 166
l-82 96 98 219 c129 288 144 320 156 315 6 -2 123 -148 260 -325 138 -176 331
-422 430 -545 99 -123 207 -258 240 -300 32 -42 150 -191 260 -331 266 -338
275 -349 275 -374 0 -13 -155 -199 -412 -496 -226 -261 -476 -551 -557 -645
-80 -93 -236 -274 -346 -401 -110 -127 -297 -343 -415 -480 -118 -137 -487
-564 -820 -949 -333 -385 -686 -794 -784 -908 -147 -172 -181 -206 -192 -195
-7 7 -66 76 -131 154 -65 78 -229 269 -364 425 -135 156 -432 500 -660 764
-227 264 -468 543 -534 620 -67 77 -258 300 -424 495 -167 195 -383 447 -480
560 -284 329 -882 1040 -888 1056 -3 9 8 30 29 52 20 20 136 170 259 332 122
162 308 403 413 535 105 132 288 368 406 525 329 433 334 440 348 440 7 0 32
-42 56 -92z m2632 -1208 c170 -6 323 -12 340 -15 26 -5 44 -25 129 -152 55
-81 118 -171 142 -200 l43 -53 -15 -61 c-7 -34 -18 -65 -22 -69 -8 -8 -454
-40 -552 -40 -54 0 -55 1 -130 72 -170 160 -491 483 -484 485 33 11 184 41
209 42 17 1 170 -4 340 -9z m740 -867 c48 -54 101 -112 117 -129 l28 -31 -67
-151 -67 -150 -131 -7 c-233 -12 -1066 -21 -1063 -11 2 5 102 134 223 287
l219 278 315 3 c173 2 320 4 327 6 6 1 51 -42 99 -95z m-79 -686 c7 -8 42
-249 43 -297 0 -27 -14 -55 -66 -127 l-66 -93 -51 0 c-110 0 -1182 21 -1184
23 -1 2 4 104 12 227 l15 225 32 29 33 28 613 -5 c337 -2 615 -7 619 -10z"/>
</g>
</svg>
