<?xml version="1.0" standalone="no"?>
<!DOCTYPE svg PUBLIC "-//W3C//DTD SVG 20010904//EN"
 "http://www.w3.org/TR/2001/REC-SVG-20010904/DTD/svg10.dtd">
<svg version="1.0" xmlns="http://www.w3.org/2000/svg"
 width="1024" height="1024" viewBox="0 0 1024 1024"
 preserveAspectRatio="xMidYMid meet">
  <rect width="1024" height="1024" fill="white"/>
<metadata>
Created by potrace 1.16, written by Peter Selinger 2001-2019
</metadata>
<g transform="translate(0.000000,1024.000000) scale(0.100000,-0.100000)"
fill="#000000" stroke="none">
<path d="M0 5120 l0 -5120 5120 0 5120 0 0 5120 0 5120 -5120 0 -5120 0 0
-5120z m5226 3898 c112 -101 239 -201 384 -299 69 -47 208 -150 309 -230 100
-79 229 -178 286 -219 120 -88 142 -106 377 -306 183 -156 386 -304 417 -304
18 0 230 -144 411 -279 113 -85 178 -120 365 -199 66 -27 194 -91 285 -142
216 -121 325 -175 435 -217 49 -19 93 -38 97 -42 4 -4 8 -139 8 -301 1 -281
-1 -309 -35 -585 -45 -368 -61 -435 -111 -474 -33 -26 -95 -28 -144 -3 l-35
17 5 80 c7 115 3 688 -7 904 l-8 183 -35 3 c-59 3 -238 82 -385 169 -77 46
-188 108 -246 139 -106 55 -406 239 -569 347 -47 32 -101 65 -120 75 -30 16
-145 99 -415 301 -38 29 -122 96 -185 149 -63 52 -149 117 -190 142 -76 47
-217 156 -416 323 -145 123 -178 145 -319 215 -85 43 -120 65 -119 77 1 9 -25
46 -57 83 -33 36 -59 75 -59 85 0 11 -4 20 -10 20 -5 0 -9 -10 -7 -22 2 -17
-29 -43 -160 -137 -89 -64 -250 -186 -358 -271 -397 -313 -464 -365 -680 -528
-121 -91 -269 -204 -330 -252 -112 -89 -348 -254 -535 -375 -58 -37 -146 -104
-196 -149 -49 -45 -99 -89 -110 -97 -11 -7 -23 -21 -26 -30 -4 -9 -46 -40 -95
-68 -48 -28 -98 -58 -109 -67 -20 -14 -23 -13 -48 17 -19 22 -26 39 -22 54 14
54 81 198 114 246 77 110 541 522 782 694 583 416 783 562 960 705 52 42 163
129 245 195 83 66 204 162 270 215 158 125 182 143 234 169 24 13 46 31 48 42
3 10 11 19 18 19 7 0 48 -32 91 -72z m-3054 -605 c8 -10 19 -25 23 -33 8 -13
7 -13 -10 0 -17 14 -18 13 -11 -25 4 -22 13 -47 20 -55 7 -8 31 -47 54 -86 22
-39 72 -111 110 -161 72 -93 270 -299 332 -346 34 -26 34 -26 6 -17 -38 14
-47 3 -17 -21 13 -11 21 -22 18 -26 -4 -3 -13 0 -22 7 -20 17 -32 5 -15 -15 8
-10 9 -15 2 -15 -12 0 -261 -306 -321 -394 -44 -63 -93 -186 -130 -327 -38
-143 -111 -502 -111 -549 0 -19 -5 -42 -10 -50 -7 -11 -10 -2 -10 33 0 43 -81
413 -143 653 -37 142 -152 322 -294 459 -84 81 -94 95 -70 95 8 0 22 9 31 19
10 11 24 17 32 14 8 -3 14 1 14 9 0 7 18 35 40 62 22 26 40 50 40 52 0 1 -14
-2 -31 -8 -16 -6 -33 -8 -36 -5 -3 3 28 46 70 96 201 239 284 369 341 534 18
51 36 99 40 105 11 18 41 15 58 -5z m3282 -517 c122 -104 296 -278 317 -318
10 -18 9 -20 -6 -15 -9 4 -15 4 -13 0 17 -36 32 -79 73 -218 26 -88 60 -205
75 -261 77 -281 288 -686 454 -870 51 -57 56 -69 26 -61 -11 3 -20 2 -20 -2 0
-4 -13 -21 -30 -37 -16 -16 -30 -34 -30 -41 0 -7 -9 -17 -20 -23 -39 -21 -127
-105 -482 -456 -196 -195 -358 -354 -360 -354 -2 0 -4 21 -5 47 -2 55 -1 57
134 282 58 95 124 214 148 265 65 140 167 399 167 422 1 29 -59 218 -87 279
-123 267 -112 250 -256 390 -74 72 -205 195 -291 273 -136 123 -158 140 -158
118 0 -27 -61 -85 -310 -293 -221 -185 -239 -206 -329 -384 -76 -152 -212
-391 -237 -418 -11 -12 -3 -25 45 -80 32 -36 87 -105 124 -152 36 -47 100
-123 142 -170 105 -115 193 -234 242 -326 42 -78 109 -261 99 -270 -3 -3 -60
46 -128 109 -68 62 -220 201 -338 308 -332 300 -414 376 -482 453 -35 39 -57
68 -50 63 7 -4 12 -2 12 4 0 6 11 27 23 48 13 20 41 71 62 112 22 41 53 98 71
125 70 111 261 518 303 645 25 75 78 293 112 459 l24 113 120 93 c66 51 171
137 233 191 213 186 247 214 263 214 9 0 24 9 34 20 17 19 19 17 113 -81 52
-55 149 -146 216 -203z m-15 -1265 c0 -91 7 -147 26 -233 28 -119 28 -135 -1
-278 -29 -141 -25 -137 -208 -231 l-163 -83 -111 114 -111 115 -1 50 c0 34
-18 105 -54 212 -65 194 -64 210 11 301 28 33 53 66 55 73 9 26 38 -3 117
-120 85 -126 152 -190 160 -154 2 10 17 33 33 52 16 18 27 39 24 46 -4 11 206
255 219 255 1 0 3 -54 4 -119z m-3649 -1 c11 -7 2 -10 -32 -10 -27 0 -48 5
-48 10 0 13 60 13 80 0z m-37 -30 c23 0 47 -4 54 -8 6 -4 35 -143 63 -312 41
-239 52 -327 51 -407 0 -56 4 -125 11 -155 14 -65 19 -280 8 -345 -7 -46 -8
-47 -9 -10 -1 51 -21 47 -21 -5 0 -24 -4 -50 -10 -58 -7 -11 -11 -8 -21 15
l-13 30 -4 -33 c-3 -28 -6 -31 -18 -21 -8 6 -14 18 -14 25 0 8 -9 14 -20 14
-13 0 -25 11 -33 28 -6 15 -17 30 -23 34 -18 11 -41 133 -60 308 -25 223 -27
291 -19 618 6 252 9 292 22 288 8 -3 33 -6 56 -6z m5296 -99 c17 -21 45 -71
61 -110 17 -39 44 -93 60 -121 29 -50 213 -319 341 -500 36 -52 76 -114 88
-137 12 -24 24 -43 27 -43 3 0 71 60 151 133 175 159 223 201 227 196 2 -2 -5
-44 -15 -94 -10 -49 -43 -223 -74 -385 -55 -295 -73 -381 -80 -388 -7 -7 -168
123 -215 174 -91 98 -369 497 -459 658 -33 60 -64 113 -69 118 -17 17 -143
-150 -360 -474 -71 -106 -112 -176 -112 -193 0 -32 -31 -93 -59 -119 -24 -22
-28 -9 -6 20 27 36 15 38 -20 4 -38 -36 -57 -36 -31 2 26 36 19 44 -13 14 -31
-29 -50 -22 -26 10 27 36 16 41 -37 19 -30 -12 -21 14 32 103 28 46 50 85 50
88 0 2 40 75 89 162 48 86 159 296 245 465 154 303 156 309 156 372 0 36 4 65
9 65 5 0 23 -18 40 -39z m-4521 -472 c13 -46 46 -155 74 -242 28 -87 51 -175
50 -195 0 -27 -14 -58 -54 -119 -29 -45 -75 -123 -101 -173 -48 -91 -74 -109
-64 -44 6 34 -9 57 -19 31 -4 -10 -14 -12 -37 -8 -30 6 -32 9 -35 56 -1 28 -6
104 -12 170 -14 175 1 296 50 400 21 44 52 111 70 148 17 37 37 66 43 64 7 -2
22 -41 35 -88z m1056 -249 c25 -12 46 -27 46 -33 0 -17 319 -233 485 -330 250
-145 536 -323 637 -397 108 -79 257 -219 325 -306 l39 -51 110 130 c195 232
304 322 611 511 148 90 421 231 430 222 7 -7 -72 -166 -114 -229 -25 -37 -53
-83 -62 -102 -10 -22 -52 -60 -119 -109 -56 -42 -107 -86 -113 -98 -6 -13 -47
-48 -92 -77 -104 -70 -365 -329 -428 -426 -25 -38 -88 -139 -140 -222 -51 -84
-96 -153 -99 -153 -3 0 -34 51 -70 113 -156 268 -458 553 -766 722 -70 39
-229 136 -353 217 -124 81 -227 145 -230 143 -2 -3 2 -12 10 -21 11 -13 11
-18 2 -21 -7 -3 -13 -16 -13 -29 0 -14 -6 -24 -14 -24 -37 0 -20 -23 51 -71
105 -71 352 -250 359 -260 3 -5 -3 -9 -13 -9 -34 0 -357 30 -438 40 -180 23
-492 71 -515 80 l-25 8 29 1 c28 1 113 48 136 76 9 10 1 16 -39 30 -52 17 -71
32 -54 44 5 3 18 28 28 54 17 45 20 47 46 42 25 -6 31 -1 59 42 16 26 55 100
85 163 31 63 78 158 105 211 28 53 50 106 50 118 0 26 -3 26 54 1z m-1595
-689 c38 -28 73 -44 122 -55 37 -9 73 -16 78 -16 30 0 124 -45 137 -65 14 -21
14 -26 0 -48 -9 -13 -27 -29 -39 -34 -47 -22 -180 -45 -225 -40 -46 5 -46 4
-17 -8 30 -13 244 -55 277 -55 11 0 21 -13 27 -37 14 -49 14 -58 -3 -72 -14
-12 -176 -59 -278 -82 -32 -7 -58 -16 -58 -21 0 -4 30 -8 68 -8 99 0 236 -18
283 -36 31 -13 39 -21 37 -38 -5 -34 -52 -48 -220 -64 -122 -12 -155 -18 -147
-28 7 -8 6 -14 -2 -19 -24 -16 25 -27 149 -35 176 -12 218 -23 181 -46 -6 -3
-9 -19 -5 -34 7 -38 -4 -44 -105 -64 -154 -30 -152 -31 -256 57 -76 64 -95 86
-114 132 -15 37 -26 52 -33 45 -18 -18 -26 -11 -19 20 6 32 -4 38 -26 18 -11
-11 -11 -9 -1 10 6 13 16 67 21 120 4 54 14 125 20 159 12 59 15 63 51 78 21
8 52 15 68 15 l29 0 -24 36 c-53 79 -81 254 -41 254 7 0 36 -18 65 -39z m6705
21 c-4 -10 -9 -30 -11 -43 -4 -23 -3 -23 21 6 l26 30 0 -30 c0 -50 -20 -104
-42 -116 -16 -9 -18 -13 -7 -20 10 -6 7 -10 -12 -18 -18 -6 -39 -34 -69 -93
-65 -125 -273 -474 -276 -463 -34 110 -75 250 -84 285 -15 59 -36 90 -60 90
-30 0 -32 15 -6 60 25 45 29 47 226 127 117 47 150 65 166 88 11 16 16 17 23
7 6 -10 12 -7 25 13 9 14 21 23 26 20 6 -4 15 6 21 22 10 27 28 53 36 53 2 0
1 -8 -3 -18z m-1626 -164 c5 -7 19 -51 31 -98 14 -57 47 -139 102 -249 80
-160 82 -165 81 -233 l-2 -70 44 40 c23 21 55 48 70 57 25 17 27 23 22 59 -8
51 10 71 109 123 208 108 294 162 316 199 l17 28 -2 -30 c-2 -16 -8 -39 -15
-52 -14 -26 -5 -29 21 -5 23 20 23 5 1 -27 -10 -14 -16 -33 -15 -42 2 -9 -20
-56 -48 -105 -27 -49 -50 -96 -50 -104 0 -43 -178 -251 -293 -343 -91 -73
-386 -266 -454 -298 l-62 -29 -53 33 c-29 19 -98 58 -153 87 -55 28 -127 72
-159 95 -98 74 -247 212 -326 302 -41 48 -90 93 -107 100 -53 23 -91 114 -102
245 -7 78 -6 79 16 79 13 0 75 -25 139 -56 107 -53 117 -60 139 -103 12 -25
73 -101 134 -167 90 -98 129 -132 199 -175 48 -29 136 -85 195 -126 l109 -73
63 53 c35 28 64 54 64 57 1 3 -54 34 -120 70 -127 68 -151 88 -291 241 -67 74
-87 103 -90 130 l-3 34 90 15 c89 15 91 16 136 65 36 40 121 153 204 271 12
17 29 18 43 2z m-4125 -405 c15 -17 137 -297 179 -412 25 -67 38 -85 38 -50 0
14 7 47 16 73 15 42 17 45 29 29 13 -17 14 -16 24 10 6 16 11 31 11 35 0 20
54 182 62 182 4 0 8 -4 8 -10 0 -15 79 -56 155 -80 39 -13 71 -24 73 -25 5 -4
-67 -211 -101 -290 -16 -38 -47 -128 -68 -200 -49 -162 -78 -241 -93 -254 -9
-8 -23 2 -50 35 -46 55 -165 240 -248 384 -58 103 -123 197 -200 291 -21 26
-38 49 -38 52 0 6 103 156 148 215 28 37 33 38 55 15z m1187 -68 c58 -15 139
-65 208 -128 85 -79 614 -670 720 -805 38 -47 52 -53 52 -19 1 50 76 133 340
377 113 103 235 220 272 260 66 70 115 100 187 115 30 6 33 5 27 -10 -5 -14
-2 -16 14 -12 25 6 25 2 1 -31 -10 -15 -38 -65 -61 -112 -54 -108 -70 -131
-260 -380 -86 -113 -212 -283 -280 -378 -114 -159 -260 -332 -280 -332 -5 0
-62 66 -128 148 -66 81 -153 185 -192 232 -128 152 -214 272 -317 445 -114
191 -138 226 -274 392 -117 145 -129 162 -129 189 0 12 -7 27 -15 34 -8 7 -15
16 -15 20 0 13 74 10 130 -5z m-1753 -257 c-3 -8 -6 -5 -6 6 -1 11 2 17 5 13
3 -3 4 -12 1 -19z m5672 -240 c122 -74 332 -220 338 -237 2 -3 -116 -8 -262
-10 -192 -3 -269 0 -279 8 -11 10 -43 -21 -170 -163 -201 -225 -309 -325 -410
-378 -42 -22 -279 -57 -389 -58 -56 0 -61 2 -140 62 -125 94 -232 210 -315
340 -40 64 -78 131 -84 149 -6 19 -14 42 -19 51 -16 32 10 29 56 -7 75 -57
184 -116 275 -151 47 -18 121 -49 164 -69 47 -22 112 -43 160 -51 45 -8 91
-19 102 -25 16 -8 31 -8 55 0 37 12 150 85 244 157 33 25 98 68 145 96 186
111 266 182 345 305 22 35 42 63 44 63 1 0 64 -37 140 -82z m-5727 -215 c14
-306 4 -1194 -15 -1393 -27 -271 -29 -290 -37 -295 -10 -6 -9 -10 -54 175 -94
384 -104 477 -117 1109 -9 381 -9 519 0 533 6 10 11 29 11 42 0 14 5 28 10 31
6 4 10 -7 10 -27 0 -18 3 -44 7 -56 9 -35 22 -7 24 48 l1 45 11 -35 10 -35 6
30 c8 41 25 38 31 -5 7 -47 24 -44 31 5 4 28 7 32 8 13 2 -37 21 -47 21 -10 0
16 3 32 7 36 19 19 27 -31 35 -211z m1991 -457 c59 -57 107 -108 105 -114 -2
-5 18 -30 43 -55 31 -29 54 -64 67 -100 12 -30 50 -116 86 -191 159 -330 205
-482 251 -836 5 -45 5 -45 -31 -56 l-36 -12 -29 65 c-16 36 -29 67 -29 69 0 3
-53 116 -119 252 -99 208 -167 362 -220 504 l-10 27 -78 -81 c-127 -130 -402
-348 -440 -348 -19 0 -5 55 28 115 15 28 47 97 70 155 66 167 229 652 229 683
0 15 1 27 3 27 1 0 51 -47 110 -104z m1672 -23 c17 -19 24 -40 25 -66 0 -33
-7 -45 -45 -83 -25 -24 -45 -46 -45 -49 0 -20 -46 -261 -70 -370 -45 -198 -85
-305 -179 -472 -27 -49 -73 -136 -103 -196 l-55 -107 -7 46 c-28 210 45 590
164 849 38 82 140 363 140 385 0 13 119 87 143 89 4 1 19 -11 32 -26z m-3014
-205 c17 -18 42 -58 55 -88 19 -42 49 -77 126 -150 56 -52 196 -187 312 -300
202 -197 293 -274 436 -370 36 -24 112 -80 170 -124 176 -134 405 -283 523
-340 62 -29 126 -67 142 -83 47 -46 259 -200 314 -228 36 -17 49 -29 45 -40
-4 -8 -1 -15 7 -15 20 0 100 50 149 92 24 22 74 56 110 76 286 159 715 454
870 598 83 77 279 240 323 268 16 9 76 63 135 120 59 56 149 137 200 179 67
55 88 77 73 77 -12 0 -21 5 -21 10 0 6 9 10 21 10 11 0 41 9 67 19 32 13 80
21 147 24 59 3 118 11 145 21 63 24 110 28 103 10 -3 -8 -9 -14 -13 -14 -4 0
-24 -27 -44 -59 -45 -74 -299 -356 -397 -442 -40 -35 -134 -122 -209 -194 -75
-71 -181 -164 -236 -205 -54 -41 -137 -108 -184 -149 -103 -89 -403 -291 -640
-431 -96 -56 -197 -116 -225 -133 -27 -17 -111 -64 -185 -105 -74 -41 -137
-78 -140 -82 -11 -15 -56 -33 -83 -32 -36 1 -58 19 -38 31 9 6 -1 14 -35 27
-27 10 -62 28 -79 40 -16 12 -55 33 -86 48 -30 14 -98 61 -150 104 -113 94
-160 126 -259 178 -41 21 -109 63 -150 93 -41 30 -131 95 -200 144 -125 90
-307 231 -451 350 -41 34 -170 137 -287 230 -116 92 -217 177 -223 190 -11 20
-11 21 5 8 36 -30 21 -2 -46 87 -45 59 -77 92 -89 92 -22 0 -24 -11 -7 -28 7
-7 8 -12 3 -12 -17 0 -115 104 -115 122 0 10 -4 18 -8 18 -5 0 -36 27 -70 59
-67 64 -105 132 -95 172 15 62 99 133 174 148 71 14 79 13 110 -21z m872 -655
c-7 -2 -19 -2 -25 0 -7 3 -2 5 12 5 14 0 19 -2 13 -5z"/>
<path d="M2130 7873 c0 -5 -32 -63 -71 -129 -39 -65 -79 -135 -88 -154 l-18
-35 62 -129 62 -128 86 133 c48 73 87 140 87 148 0 18 -103 288 -114 298 -3 3
-6 2 -6 -4z"/>
</g>
</svg>
