<?xml version="1.0" standalone="no"?>
<!DOCTYPE svg PUBLIC "-//W3C//DTD SVG 20010904//EN"
 "http://www.w3.org/TR/2001/REC-SVG-20010904/DTD/svg10.dtd">
<svg version="1.0" xmlns="http://www.w3.org/2000/svg"
 width="1024" height="1024" viewBox="0 0 1024 1024"
 preserveAspectRatio="xMidYMid meet">
  <rect width="1024" height="1024" fill="white"/>
<metadata>
Created by potrace 1.16, written by Peter Selinger 2001-2019
</metadata>
<g transform="translate(0.000000,1024.000000) scale(0.100000,-0.100000)"
fill="#000000" stroke="none">
<path d="M0 5120 l0 -5120 5120 0 5120 0 0 5120 0 5120 -5120 0 -5120 0 0
-5120z m5338 3809 c114 -56 342 -166 507 -244 432 -205 1689 -817 2008 -977
l179 -89 -6 -127 c-4 -70 -12 -206 -18 -303 l-11 -175 -169 -125 c-93 -68
-174 -126 -180 -128 -8 -3 -10 82 -6 317 6 316 5 321 -15 328 -23 7 -659 308
-1067 504 -151 73 -394 190 -540 260 -146 69 -407 195 -581 279 l-316 152
-149 -69 c-82 -38 -320 -152 -529 -252 -209 -100 -441 -211 -515 -245 -402
-186 -997 -469 -1152 -546 l-178 -89 0 -48 c0 -26 5 -170 12 -319 6 -150 9
-275 6 -278 -6 -6 -186 116 -298 203 l-75 58 -7 114 c-3 63 -8 200 -10 304
l-3 189 595 293 c327 162 917 448 1310 636 393 188 774 373 845 410 72 37 136
67 143 67 7 1 106 -45 220 -100z m-13 -1049 c94 -78 173 -150 177 -159 4 -9 7
-104 7 -212 l1 -197 -71 -148 c-60 -125 -217 -467 -236 -513 -3 -7 41 22 98
64 134 100 136 101 195 82 27 -9 166 -53 309 -98 254 -80 262 -83 370 -154 61
-40 148 -94 195 -120 156 -88 524 -270 597 -295 l71 -24 43 30 c24 16 170 124
324 240 324 243 402 297 542 373 55 31 165 105 242 165 144 111 311 229 311
220 0 -7 -76 -96 -191 -224 -41 -47 -141 -164 -222 -260 -80 -96 -198 -233
-261 -305 -118 -135 -500 -517 -618 -619 l-67 -58 -353 117 c-194 65 -466 162
-605 216 -138 55 -258 99 -266 99 -10 0 -29 -36 -57 -107 -62 -162 -237 -689
-251 -758 -14 -70 -28 -27 183 -550 69 -170 149 -375 178 -455 60 -167 308
-891 383 -1118 l50 -154 115 114 c488 483 715 826 858 1298 64 210 130 589
174 995 11 105 28 242 37 305 l17 115 180 188 c132 137 182 184 185 171 2 -10
-2 -113 -8 -228 -40 -742 -109 -1223 -236 -1641 -112 -370 -305 -741 -527
-1013 -281 -344 -592 -629 -1573 -1442 -198 -164 -391 -325 -429 -358 l-69
-59 -112 91 c-61 50 -253 207 -426 348 -802 655 -1273 1085 -1512 1383 -173
215 -334 478 -426 695 -178 423 -253 744 -325 1390 -24 223 -61 774 -54 818 3
20 28 -1 182 -150 l178 -173 14 -88 c8 -48 30 -210 49 -360 106 -820 169
-1053 401 -1482 87 -160 128 -218 340 -475 134 -163 221 -255 370 -394 l42
-38 45 134 c72 213 430 1241 482 1383 56 155 113 294 207 509 l70 159 -22 86
c-25 94 -194 593 -258 761 -27 70 -44 104 -53 102 -8 -2 -84 -31 -169 -64
-177 -69 -379 -140 -769 -273 -221 -75 -278 -92 -294 -83 -36 19 -535 508
-650 636 -278 310 -387 437 -458 534 -42 56 -111 145 -154 197 -96 115 -84
110 168 -82 187 -141 221 -165 399 -277 101 -63 608 -431 741 -537 l68 -54 72
27 c238 89 647 309 822 442 62 47 165 85 553 203 l134 41 56 -38 c32 -20 90
-61 129 -91 40 -29 75 -53 77 -53 2 0 -9 28 -26 63 -17 34 -57 123 -90 197
-33 74 -89 190 -124 258 -58 111 -66 132 -75 210 -11 90 -6 220 13 330 l10 63
142 108 c77 60 161 125 185 144 32 25 49 33 60 27 9 -5 93 -72 186 -150z
m1548 -762 c-101 -104 -281 -297 -344 -371 l-26 -31 -136 45 c-75 24 -137 46
-137 49 0 3 150 87 333 188 182 100 350 193 372 207 22 13 42 25 45 25 2 0
-46 -51 -107 -112z m-3346 -39 c98 -56 243 -140 323 -187 l145 -85 -135 -43
c-74 -24 -136 -44 -137 -44 0 0 -89 98 -196 218 -107 119 -204 226 -216 236
-11 11 -21 23 -21 28 0 11 17 2 237 -123z m551 -1646 c-39 -43 -269 -313 -306
-360 l-33 -42 63 -40 c35 -22 107 -59 160 -82 l97 -42 -114 -126 c-118 -131
-261 -268 -475 -458 -69 -61 -138 -125 -154 -142 -64 -67 -55 -35 47 184 94
203 140 294 188 372 l38 63 -46 27 c-68 39 -163 71 -266 89 -109 18 -127 23
-127 33 0 24 630 408 815 498 126 60 151 66 113 26z m2318 -88 c168 -87 343
-190 469 -275 41 -27 119 -74 175 -104 l101 -53 -58 -17 c-32 -9 -122 -34
-200 -56 -162 -45 -223 -68 -223 -82 0 -6 22 -47 49 -92 115 -192 263 -507
247 -523 -8 -8 -199 153 -350 293 -78 72 -203 197 -278 279 l-138 148 78 31
c42 17 114 53 159 80 l83 48 -19 37 c-20 38 -185 236 -277 331 -30 31 -54 59
-54 63 0 11 60 -16 236 -108z"/>
<path d="M5050 4348 c-41 -68 -152 -251 -248 -408 -96 -157 -279 -458 -407
-670 -128 -212 -248 -412 -268 -445 -21 -33 -37 -63 -37 -66 0 -4 48 -47 108
-96 59 -50 206 -173 327 -274 246 -206 449 -371 543 -443 l63 -48 147 118
c325 260 892 738 892 752 0 4 -4 12 -9 18 -5 5 -166 270 -358 589 -518 860
-663 1095 -674 1095 -4 0 -39 -55 -79 -122z"/>
</g>
</svg>
