<?xml version="1.0" standalone="no"?>
<!DOCTYPE svg PUBLIC "-//W3C//DTD SVG 20010904//EN"
 "http://www.w3.org/TR/2001/REC-SVG-20010904/DTD/svg10.dtd">
<svg version="1.0" xmlns="http://www.w3.org/2000/svg"
 width="1024" height="1024" viewBox="0 0 1024 1024"
 preserveAspectRatio="xMidYMid meet">
  <rect width="1024" height="1024" fill="white"/>
<metadata>
Created by potrace 1.16, written by Peter Selinger 2001-2019
</metadata>
<g transform="translate(0.000000,1024.000000) scale(0.100000,-0.100000)"
fill="#000000" stroke="none">
<path d="M0 5120 l0 -5120 5120 0 5120 0 0 5120 0 5120 -5120 0 -5120 0 0
-5120z m3877 2886 c186 -101 410 -223 498 -271 88 -48 187 -102 220 -120 435
-236 791 -430 970 -530 121 -67 407 -224 635 -350 228 -125 462 -253 520 -285
58 -32 202 -111 320 -175 118 -65 289 -158 380 -208 91 -49 230 -127 310 -172
80 -45 231 -128 335 -185 326 -177 549 -302 582 -326 17 -13 44 -49 59 -79 22
-47 26 -64 21 -106 -12 -99 -14 -101 -367 -314 -74 -45 -286 -173 -470 -285
-184 -112 -508 -307 -720 -435 -212 -128 -468 -283 -570 -345 -193 -118 -723
-438 -1185 -715 -148 -90 -301 -182 -340 -205 -38 -24 -250 -152 -470 -285
-220 -133 -483 -293 -585 -355 -279 -172 -297 -180 -389 -180 -86 1 -174 26
-179 51 -3 18 86 185 503 939 59 107 161 292 225 410 65 118 165 301 223 405
58 105 104 190 103 190 -3 2 -1534 -14 -2015 -20 l-545 -7 34 39 c18 21 184
193 369 383 447 458 652 673 649 681 -2 3 -171 170 -377 370 -206 200 -458
446 -560 546 l-186 182 785 1 c432 0 1022 0 1313 0 290 0 527 2 527 5 0 3 -38
78 -84 168 -166 322 -845 1673 -865 1720 -11 26 -18 47 -16 47 2 0 156 -83
342 -184z"/>
<path d="M5100 6545 c0 -3 22 -44 48 -92 83 -150 442 -840 442 -849 0 -5 -46
-9 -102 -9 -57 0 -541 -4 -1076 -9 l-974 -9 224 -224 223 -223 -190 -190 -189
-189 175 4 c285 8 1929 15 1929 9 0 -4 -48 -97 -107 -208 -121 -228 -472 -916
-467 -916 2 0 41 24 87 54 87 56 944 589 1697 1056 588 364 696 432 709 445
12 11 6 17 -35 38 -143 73 -2102 1150 -2351 1293 -24 14 -43 22 -43 19z"/>
</g>
</svg>
