<?xml version="1.0" standalone="no"?>
<!DOCTYPE svg PUBLIC "-//W3C//DTD SVG 20010904//EN"
 "http://www.w3.org/TR/2001/REC-SVG-20010904/DTD/svg10.dtd">
<svg version="1.0" xmlns="http://www.w3.org/2000/svg"
 width="1024" height="1024" viewBox="0 0 1024 1024"
 preserveAspectRatio="xMidYMid meet">
  <rect width="1024" height="1024" fill="white"/>
<metadata>
Created by potrace 1.16, written by Peter Selinger 2001-2019
</metadata>
<g transform="translate(0.000000,1024.000000) scale(0.100000,-0.100000)"
fill="#000000" stroke="none">
<path d="M0 5120 l0 -5120 5120 0 5120 0 0 5120 0 5120 -5120 0 -5120 0 0
-5120z m5263 3793 c74 -98 243 -338 377 -533 600 -874 837 -1214 850 -1222 11
-7 57 14 160 72 377 213 938 494 1245 625 99 42 208 92 243 111 34 19 64 34
67 34 2 0 -7 -26 -21 -57 -13 -32 -64 -164 -113 -293 -108 -282 -331 -833
-586 -1445 -103 -247 -239 -578 -302 -735 -64 -157 -120 -291 -126 -299 -7 -7
-158 -131 -337 -274 -353 -283 -652 -530 -688 -569 -25 -27 -51 -97 -241 -648
-157 -455 -351 -1006 -461 -1310 -45 -124 -106 -292 -135 -375 -56 -159 -84
-225 -96 -225 -4 0 -15 24 -24 52 -10 29 -77 224 -150 433 -230 656 -474 1368
-675 1963 -21 62 -44 120 -51 128 -15 18 -559 455 -779 625 -243 188 -217 151
-384 554 -548 1328 -997 2458 -982 2473 2 1 32 -13 67 -32 35 -19 147 -69 249
-112 211 -88 911 -437 1196 -597 106 -59 196 -107 200 -107 18 1 140 178 566
820 526 792 758 1120 791 1120 4 0 67 -80 140 -177z m-2979 -3105 c2 -220 5
-267 25 -363 52 -251 147 -478 296 -700 79 -119 125 -174 276 -334 55 -57 99
-104 99 -105 0 0 -101 -1 -224 -1 -123 0 -227 -3 -231 -7 -10 -10 105 -183
203 -304 333 -418 741 -710 1399 -1004 l142 -63 90 -166 c212 -392 248 -466
234 -469 -22 -5 -277 46 -397 79 -290 82 -505 166 -761 298 -269 138 -443 252
-650 426 -136 114 -383 366 -490 500 -80 100 -227 312 -300 434 l-38 64 -18
-34 c-10 -19 -41 -91 -69 -161 -28 -69 -60 -134 -70 -143 -18 -16 -19 -15 -29
22 -18 70 -61 296 -82 433 -30 192 -37 577 -15 750 9 69 26 159 36 201 53 208
173 448 319 636 77 99 241 277 249 269 3 -3 6 -119 6 -258z m5796 150 c195
-225 337 -460 419 -691 87 -247 109 -650 56 -1007 -32 -215 -95 -492 -114
-504 -13 -8 -36 24 -56 79 -27 74 -97 225 -104 225 -3 -1 -41 -59 -84 -130
-335 -557 -810 -986 -1422 -1285 -349 -170 -650 -273 -950 -325 -66 -11 -130
-23 -143 -26 -21 -4 -23 -2 -17 18 11 36 315 611 334 630 9 9 86 44 171 78
329 132 613 287 855 467 153 114 401 356 525 513 88 111 200 277 200 296 0 9
-60 11 -230 9 -126 -1 -230 0 -230 4 0 3 55 67 121 141 153 171 195 225 271
352 138 232 220 444 259 666 25 143 36 413 20 496 -12 66 -9 76 24 76 18 0 43
-22 95 -82z"/>
<path d="M4762 7453 c-197 -296 -382 -575 -411 -621 l-53 -82 35 -43 c296
-354 487 -590 617 -762 87 -115 167 -218 178 -228 19 -18 21 -17 54 25 19 24
55 72 78 108 127 189 466 620 657 834 29 33 53 65 53 71 0 7 -23 42 -50 78
-57 76 -368 526 -605 877 -87 129 -167 245 -176 258 l-18 23 -359 -538z"/>
<path d="M3210 6686 c63 -148 320 -805 360 -921 66 -188 48 -165 324 -398 279
-235 630 -542 662 -578 11 -13 29 -55 39 -94 50 -191 188 -567 351 -950 53
-126 107 -256 119 -288 l22 -59 25 30 c82 98 288 576 453 1052 31 91 68 185
80 210 29 57 179 203 578 562 432 389 413 368 474 518 28 69 94 242 147 385
52 143 129 343 170 445 41 102 71 186 66 188 -14 5 -209 -97 -321 -168 -201
-127 -423 -310 -582 -479 -224 -238 -535 -641 -881 -1143 -98 -142 -179 -258
-181 -258 -2 0 -33 55 -70 123 -235 425 -437 712 -743 1055 -294 330 -550 553
-827 719 -87 52 -297 163 -309 163 -2 0 17 -51 44 -114z"/>
</g>
</svg>
