<?xml version="1.0" standalone="no"?>
<!DOCTYPE svg PUBLIC "-//W3C//DTD SVG 20010904//EN"
 "http://www.w3.org/TR/2001/REC-SVG-20010904/DTD/svg10.dtd">
<svg version="1.0" xmlns="http://www.w3.org/2000/svg"
 width="1024" height="1024" viewBox="0 0 1024 1024"
 preserveAspectRatio="xMidYMid meet">
  <rect width="1024" height="1024" fill="white"/>
<metadata>
Created by potrace 1.16, written by Peter Selinger 2001-2019
</metadata>
<g transform="translate(0.000000,1024.000000) scale(0.100000,-0.100000)"
fill="#000000" stroke="none">
<path d="M0 5120 l0 -5120 5120 0 5120 0 0 5120 0 5120 -5120 0 -5120 0 0
-5120z m5442 3973 c451 -399 597 -532 614 -559 18 -27 223 -613 355 -1014 144
-437 293 -820 419 -1070 l51 -101 -32 -37 c-153 -175 -702 -763 -966 -1034
-73 -75 -133 -140 -133 -144 0 -3 6 -2 13 4 6 5 84 49 172 97 281 154 370 209
843 523 l263 174 212 -117 c261 -145 409 -229 552 -314 61 -35 163 -95 228
-132 l118 -66 -133 -88 c-73 -49 -234 -151 -358 -228 -236 -147 -416 -261
-652 -414 -78 -51 -142 -92 -143 -90 -53 75 -163 212 -253 314 -96 108 -119
128 -126 115 -5 -9 -41 -46 -80 -81 -39 -36 -210 -198 -381 -361 -170 -163
-329 -313 -351 -333 l-41 -37 -56 133 c-31 72 -107 260 -170 417 -63 157 -129
316 -146 353 -27 59 -29 72 -18 92 13 24 434 470 747 790 102 105 259 266 348
358 l163 168 -47 117 c-88 221 -349 756 -442 906 -146 237 -417 616 -750 1050
-116 151 -147 186 -156 175 -465 -609 -712 -956 -873 -1224 -99 -165 -381
-741 -454 -928 l-38 -100 217 -223 c772 -792 1029 -1059 1045 -1084 18 -28 18
-29 -28 -131 -39 -87 -180 -415 -331 -774 -21 -49 -39 -92 -41 -94 -1 -2 -112
102 -245 231 -134 129 -323 310 -420 403 -97 92 -179 174 -182 181 -8 20 -214
-204 -331 -359 -32 -43 -61 -74 -64 -69 -6 9 -143 99 -296 195 -335 210 -739
465 -823 521 -57 37 -115 72 -128 78 -13 6 -24 14 -24 17 0 3 24 19 53 35 28
16 140 78 247 139 588 331 809 450 828 445 9 -3 112 -67 227 -143 291 -191
496 -324 585 -377 97 -59 470 -267 470 -263 0 2 -67 73 -148 157 -133 138
-429 449 -601 633 -137 146 -337 369 -359 400 l-23 33 45 91 c55 108 178 394
231 536 21 55 97 276 170 490 168 494 340 990 359 1035 16 39 69 90 501 477
427 382 428 383 442 383 7 0 153 -125 325 -277z m-59 -1522 c144 -136 286
-269 314 -294 l53 -46 -188 -127 c-103 -70 -245 -162 -316 -206 l-130 -79 -85
52 c-117 70 -540 352 -541 360 0 4 53 54 118 112 64 57 205 188 312 290 107
103 196 186 198 187 2 0 121 -112 265 -249z m-668 -904 l161 -86 118 -181 c65
-99 121 -180 125 -180 3 0 61 82 127 181 l121 182 224 122 c123 67 225 121
227 120 6 -5 -94 -362 -138 -495 -23 -69 -60 -172 -82 -230 l-41 -105 -181
-180 c-100 -100 -198 -194 -218 -209 l-38 -28 -37 28 c-21 15 -120 109 -219
208 l-181 181 -51 130 c-27 72 -70 198 -95 280 -43 140 -117 406 -117 418 0 3
30 -11 68 -32 37 -21 139 -77 227 -124z m-2045 -2162 c373 -260 420 -296 420
-321 0 -14 -20 -68 -44 -122 -24 -53 -82 -189 -129 -302 -171 -409 -154 -379
-233 -424 -273 -156 -1313 -784 -1461 -883 -18 -12 -33 -20 -33 -18 0 16 532
1056 749 1465 260 489 381 719 401 767 l22 53 77 -54 c42 -29 146 -102 231
-161z m5249 133 c19 -45 214 -419 587 -1128 219 -418 554 -1080 545 -1080 -2
0 -12 6 -20 14 -47 41 -1036 641 -1403 852 l-137 79 -65 145 c-66 149 -166
386 -166 395 0 3 -25 59 -56 125 -35 75 -54 130 -52 147 2 22 41 53 243 195
132 93 294 207 359 253 134 95 125 95 165 3z m-3774 -643 c143 -131 423 -402
623 -600 l363 -361 24 30 c93 118 1279 1276 1307 1276 5 0 -451 -2046 -503
-2257 -18 -73 -37 -133 -42 -133 -9 0 -5 157 8 280 3 30 1 62 -4 70 -8 12 -14
11 -36 -10 -59 -55 -333 -445 -485 -690 -181 -293 -275 -439 -280 -439 -5 0
-75 109 -326 507 -99 157 -325 477 -404 571 -31 36 -62 66 -70 66 -17 0 -18
-35 -5 -245 4 -74 5 -132 1 -129 -11 10 -46 158 -216 929 -226 1025 -319 1441
-327 1465 -4 12 16 0 53 -35 33 -30 177 -163 319 -295z m-735 -1020 c28 -286
69 -700 91 -920 22 -220 39 -408 37 -418 -2 -13 -57 26 -234 170 -128 103
-286 231 -353 283 -113 88 -121 97 -117 125 2 17 91 273 198 570 107 297 214
596 238 665 24 69 50 133 59 144 20 23 15 58 81 -619z m3621 315 c55 -157 118
-334 139 -395 21 -60 84 -235 139 -389 56 -153 101 -288 101 -300 -1 -21 -19
-37 -459 -390 -102 -81 -201 -162 -219 -180 l-33 -31 6 50 c3 28 19 190 35
360 32 344 110 1142 137 1417 17 169 19 177 35 160 10 -9 63 -146 119 -302z"/>
</g>
</svg>
