<?xml version="1.0" standalone="no"?>
<!DOCTYPE svg PUBLIC "-//W3C//DTD SVG 20010904//EN"
 "http://www.w3.org/TR/2001/REC-SVG-20010904/DTD/svg10.dtd">
<svg version="1.0" xmlns="http://www.w3.org/2000/svg"
 width="1024" height="1024" viewBox="0 0 1024 1024"
 preserveAspectRatio="xMidYMid meet">
  <rect width="1024" height="1024" fill="white"/>
<metadata>
Created by potrace 1.16, written by Peter Selinger 2001-2019
</metadata>
<g transform="translate(0.000000,1024.000000) scale(0.100000,-0.100000)"
fill="#000000" stroke="none">
<path d="M0 5120 l0 -5120 5120 0 5120 0 0 5120 0 5120 -5120 0 -5120 0 0
-5120z m5983 3693 c168 -119 577 -464 780 -657 148 -141 168 -163 164 -185
-15 -72 -100 -333 -151 -461 -32 -80 -117 -260 -189 -400 -72 -140 -145 -283
-161 -317 -17 -35 -34 -62 -37 -60 -4 1 -37 40 -74 87 -36 47 -153 180 -259
295 -106 116 -235 258 -287 316 l-94 106 -38 139 c-21 77 -38 146 -37 155 0 8
31 141 69 295 55 222 144 603 176 752 3 12 8 22 11 22 3 0 60 -39 127 -87z
m-1628 -1137 c461 -33 616 -47 763 -68 l153 -22 52 -56 c105 -114 271 -380
494 -795 155 -287 283 -537 283 -551 0 -5 -20 -22 -45 -37 -154 -98 -609 -453
-834 -651 -63 -56 -130 -115 -150 -132 l-36 -31 -105 51 -104 51 -28 78 c-94
262 -227 878 -228 1053 l0 51 38 6 c64 10 334 36 404 39 38 2 67 5 65 8 -1 3
-22 38 -47 77 l-44 71 -239 62 c-130 33 -351 88 -490 121 -373 89 -606 147
-618 155 -6 3 -20 -3 -32 -14 -26 -23 -203 -128 -632 -372 -176 -100 -325
-187 -332 -192 -9 -7 -8 -20 2 -56 13 -47 26 -122 45 -263 5 -42 20 -111 33
-152 l24 -75 -45 -54 c-25 -29 -65 -73 -88 -98 -31 -33 -49 -64 -66 -116 -13
-40 -27 -72 -33 -71 -26 1 -204 358 -303 607 -103 259 -108 281 -78 339 28 53
168 192 341 339 145 123 647 527 803 645 110 85 72 79 492 73 206 -3 470 -12
585 -20z m3710 -928 c47 -72 173 -236 314 -412 40 -49 70 -95 69 -102 -5 -22
-359 -401 -545 -584 -233 -229 -421 -394 -711 -619 l-43 -34 -52 50 c-29 27
-115 101 -192 164 -376 305 -610 506 -681 584 -44 47 -80 90 -82 94 -3 10 48
85 245 358 72 100 128 185 125 189 -4 4 0 3 9 -2 8 -5 114 -115 235 -244 120
-129 267 -284 325 -345 58 -60 112 -120 118 -132 11 -22 12 -22 34 -4 12 10
72 59 133 107 61 49 223 188 359 309 136 121 254 224 261 228 10 6 14 30 14
86 0 83 12 381 15 381 1 0 24 -33 50 -72z m-3736 -928 c16 -96 49 -292 72
-435 23 -143 46 -264 50 -270 5 -5 9 -1 9 12 0 22 -47 35 470 -125 91 -28 345
-98 565 -156 341 -89 716 -191 1419 -387 77 -22 141 -40 143 -42 3 -4 -362
-333 -547 -493 -320 -277 -1012 -842 -1425 -1164 -138 -106 -342 -269 -455
-360 -226 -183 -370 -294 -374 -288 -4 3 246 409 475 773 69 110 177 286 240
390 108 180 121 197 244 321 72 71 222 210 335 308 113 98 213 186 222 195 16
15 3 16 -170 17 -103 1 -259 9 -347 18 -147 15 -871 106 -1130 141 -60 8 -126
15 -145 15 -31 0 -44 10 -107 76 -81 86 -156 185 -244 321 l-59 93 41 77 c22
43 97 174 166 292 69 118 166 292 215 385 49 94 135 254 191 355 l102 184 7
-39 c4 -22 21 -118 37 -214z m-714 -1572 c44 -22 133 -72 197 -110 100 -59
282 -150 355 -179 20 -7 0 -30 -205 -232 -125 -124 -265 -260 -311 -303 -46
-44 -251 -252 -455 -464 -591 -613 -677 -702 -1100 -1132 -220 -224 -402 -406
-404 -404 -7 7 394 795 511 1006 209 376 762 1246 1042 1640 64 91 133 191
152 222 l35 57 52 -30 c28 -16 87 -48 131 -71z"/>
<path d="M6088 7984 c24 -61 41 -81 227 -264 162 -161 335 -320 348 -320 1 0
2 47 1 104 l-1 104 -97 105 c-94 102 -101 107 -249 187 -83 45 -170 94 -192
109 -22 15 -45 30 -52 34 -6 4 1 -23 15 -59z"/>
</g>
</svg>
