<?xml version="1.0" standalone="no"?>
<!DOCTYPE svg PUBLIC "-//W3C//DTD SVG 20010904//EN"
 "http://www.w3.org/TR/2001/REC-SVG-20010904/DTD/svg10.dtd">
<svg version="1.0" xmlns="http://www.w3.org/2000/svg"
 width="1024" height="1024" viewBox="0 0 1024 1024"
 preserveAspectRatio="xMidYMid meet">
  <rect width="1024" height="1024" fill="white"/>
<metadata>
Created by potrace 1.16, written by Peter Selinger 2001-2019
</metadata>
<g transform="translate(0.000000,1024.000000) scale(0.100000,-0.100000)"
fill="#000000" stroke="none">
<path d="M0 5120 l0 -5120 5120 0 5120 0 0 5120 0 5120 -5120 0 -5120 0 0
-5120z m8883 3853 c-108 -231 -186 -442 -288 -783 -37 -124 -78 -248 -91 -276
-13 -28 -24 -58 -24 -67 0 -28 -934 -678 -1330 -924 -107 -67 -204 -129 -215
-138 -46 -37 20 -18 745 220 574 189 1000 333 1103 373 42 17 77 27 77 24 0
-11 -267 -381 -334 -462 -33 -41 -114 -138 -179 -215 -66 -77 -149 -179 -185
-228 l-65 -87 -96 -31 c-53 -17 -292 -87 -531 -155 -239 -69 -471 -137 -515
-152 l-80 -27 95 -6 c52 -4 273 -10 490 -13 452 -7 782 -16 792 -22 12 -8 -99
-111 -231 -217 -136 -108 -430 -308 -498 -339 -38 -17 -87 -20 -455 -30 l-413
-11 -195 -171 c-262 -230 -283 -247 -450 -373 -172 -129 -442 -309 -630 -420
-74 -44 -191 -113 -260 -153 -152 -90 -447 -230 -572 -271 -204 -66 -557 -107
-703 -81 -61 12 -253 101 -352 165 -115 74 -308 260 -372 357 -20 30 -38 57
-41 60 -25 24 -68 104 -87 159 -21 65 -22 66 -3 73 11 4 53 30 94 57 97 66
191 113 228 115 27 1 31 -3 49 -54 24 -67 75 -122 194 -205 111 -77 190 -117
305 -155 277 -90 565 -90 860 0 74 23 148 50 164 60 l30 18 -45 21 c-24 11
-109 48 -189 81 -175 73 -489 240 -620 328 -100 68 -228 166 -395 304 l-100
82 -305 7 c-518 12 -520 12 -678 105 -124 74 -632 463 -632 484 0 10 237 18
745 25 231 3 471 8 533 12 109 6 112 7 76 19 -21 7 -42 11 -46 8 -5 -3 -31 6
-57 20 -27 14 -91 36 -142 50 -52 13 -139 40 -194 60 -55 19 -176 55 -270 80
-93 25 -231 65 -305 89 l-135 43 -105 136 c-58 75 -123 156 -145 179 -78 84
-234 285 -355 459 -68 96 -131 186 -142 199 -10 13 -16 26 -14 29 3 2 36 -8
73 -23 214 -86 1643 -572 1762 -599 58 -13 107 -23 108 -22 1 0 -38 25 -85 55
-147 92 -715 472 -942 631 -118 82 -288 200 -377 262 -103 72 -166 122 -172
138 -6 14 -60 183 -121 376 -110 351 -169 514 -236 645 -19 38 -37 91 -41 117
-3 26 -11 53 -17 61 -6 8 59 -33 144 -92 85 -58 283 -190 440 -293 457 -300
821 -557 1198 -848 101 -77 209 -160 240 -184 84 -64 125 -105 145 -143 10
-20 33 -145 57 -304 23 -148 72 -454 110 -680 38 -225 72 -437 75 -471 6 -46
12 -64 28 -74 50 -31 449 -373 988 -846 219 -193 339 -294 348 -294 11 0 122
98 306 269 99 92 254 233 344 312 90 79 232 204 315 278 83 73 198 174 256
224 58 49 110 100 116 111 15 28 69 308 104 541 50 330 140 878 151 923 11 38
25 53 143 146 360 283 949 715 1141 836 67 43 257 170 485 325 128 87 348 225
358 225 4 0 23 13 42 30 19 16 38 29 42 30 4 0 -13 -44 -39 -97z m-3373 -918
c129 -94 345 -249 480 -345 135 -95 253 -181 263 -190 18 -16 17 -19 -13 -63
-17 -26 -95 -118 -173 -205 -78 -87 -196 -221 -262 -297 -66 -77 -178 -205
-250 -285 -218 -244 -206 -222 -295 -545 -24 -87 -135 -418 -146 -436 -3 -6
-14 6 -24 28 -25 57 -133 387 -180 553 -50 172 -49 171 -110 235 -27 28 -113
125 -192 216 -78 92 -183 213 -233 270 -49 57 -166 191 -258 297 -92 107 -167
197 -165 202 6 16 154 127 443 331 160 113 386 276 504 362 l213 156 82 -57
c44 -31 187 -133 316 -227z m737 -1477 l-7 -232 -57 -59 c-120 -122 -238 -189
-463 -261 -80 -26 -160 -56 -177 -66 l-33 -19 0 23 c0 39 -30 126 -51 147 -25
25 -22 43 26 143 42 89 129 185 227 253 92 64 155 95 293 148 71 27 122 53
144 74 19 18 47 39 63 47 15 8 28 19 28 24 0 6 3 10 7 10 3 0 3 -104 0 -232z
m-2021 72 c183 -64 300 -135 397 -240 72 -77 118 -158 140 -242 14 -54 14 -59
-4 -79 -19 -23 -49 -108 -49 -141 0 -23 -3 -23 -55 7 -24 14 -101 46 -172 71
-232 82 -370 166 -457 280 l-36 47 0 219 0 219 74 -55 c50 -37 103 -65 162
-86z m-571 -1380 c3 -5 -1 -10 -9 -10 -9 0 -16 5 -16 10 0 6 4 10 9 10 6 0 13
-4 16 -10z m3253 -321 c197 -114 242 -142 242 -154 0 -14 -65 -109 -185 -270
-108 -146 -346 -390 -475 -489 -241 -185 -731 -478 -1046 -627 -380 -179 -908
-358 -1074 -362 -70 -2 -51 -10 -315 135 -117 64 -218 136 -336 240 -138 122
-254 236 -247 243 2 3 24 -2 47 -10 122 -43 430 -65 631 -46 221 22 513 92
730 175 193 75 670 306 885 429 386 220 649 418 885 665 69 72 131 131 138
131 8 1 62 -27 120 -60z m-275 -1171 c-9 -74 -104 -269 -260 -533 -72 -121
-150 -254 -173 -295 -53 -91 -350 -534 -486 -725 -300 -419 -412 -566 -591
-775 -229 -267 -263 -304 -294 -317 -26 -11 -30 -11 -26 1 60 155 180 564 217
736 27 123 137 561 150 595 8 22 5 21 -63 -15 -99 -54 -193 -87 -263 -95 -57
-6 -61 -5 -124 35 -92 60 -330 255 -320 262 17 13 79 32 200 63 610 154 1185
437 1719 849 142 109 294 236 306 256 12 20 14 9 8 -42z"/>
</g>
</svg>
