<?xml version="1.0" standalone="no"?>
<!DOCTYPE svg PUBLIC "-//W3C//DTD SVG 20010904//EN"
 "http://www.w3.org/TR/2001/REC-SVG-20010904/DTD/svg10.dtd">
<svg version="1.0" xmlns="http://www.w3.org/2000/svg"
 width="1024" height="1024" viewBox="0 0 1024 1024"
 preserveAspectRatio="xMidYMid meet">
  <rect width="1024" height="1024" fill="white"/>
<metadata>
Created by potrace 1.16, written by Peter Selinger 2001-2019
</metadata>
<g transform="translate(0.000000,1024.000000) scale(0.100000,-0.100000)"
fill="#000000" stroke="none">
<path d="M0 5120 l0 -5120 5120 0 5120 0 0 5120 0 5120 -5120 0 -5120 0 0
-5120z m5339 3698 c121 -79 253 -164 294 -189 l74 -47 7 -303 c3 -167 9 -356
12 -419 l5 -115 -301 -320 c-165 -176 -304 -320 -309 -320 -4 0 -142 143 -306
319 l-298 318 12 417 c10 349 15 418 27 426 9 6 138 92 287 192 150 100 273
182 274 182 1 1 101 -63 222 -141z m-3744 -671 c483 -262 1267 -676 1385 -731
70 -33 112 -41 655 -130 319 -52 619 -101 667 -108 l87 -13 360 -272 c198
-150 365 -273 371 -273 6 0 173 122 371 272 l360 272 677 113 677 113 200 99
c234 117 913 474 1299 684 148 81 271 147 273 147 12 0 -303 -442 -403 -566
-79 -98 -73 -93 -639 -514 -143 -107 -557 -415 -920 -685 -820 -610 -816 -607
-820 -603 -1 2 99 183 224 403 303 535 307 542 290 529 -16 -13 -1266 -948
-1467 -1098 l-132 -98 -43 34 c-23 19 -289 221 -592 448 -302 228 -633 477
-735 555 -102 78 -191 145 -198 149 -20 12 -26 22 399 -729 59 -104 106 -192
104 -194 -5 -4 -66 42 -1335 988 -503 376 -935 702 -959 725 -23 22 -94 109
-156 191 -109 145 -325 457 -325 469 0 3 21 -7 48 -23 26 -16 151 -85 277
-154z m3155 -3115 l282 -303 -31 -427 c-17 -235 -45 -614 -62 -842 -17 -228
-50 -678 -73 -1000 -24 -322 -45 -578 -49 -570 -3 8 -46 173 -96 365 -49 193
-135 523 -191 735 -56 212 -141 538 -189 725 l-88 340 63 675 c35 371 63 679
64 685 0 12 24 -12 370 -383z m1175 -298 l64 -678 -64 -241 c-116 -437 -452
-1728 -481 -1850 -16 -66 -30 -113 -31 -105 -2 11 -130 1783 -199 2767 l-6 91
180 195 c100 107 245 264 324 350 78 85 144 154 146 152 2 -2 32 -308 67 -681z"/>
<path d="M4753 8339 c3 -8 80 -176 172 -374 92 -198 173 -375 181 -394 8 -19
17 -31 20 -28 12 12 375 800 370 804 -2 2 -87 -19 -189 -47 l-186 -50 -153 44
c-200 57 -223 62 -215 45z"/>
</g>
</svg>
