<?xml version="1.0" standalone="no"?>
<!DOCTYPE svg PUBLIC "-//W3C//DTD SVG 20010904//EN"
 "http://www.w3.org/TR/2001/REC-SVG-20010904/DTD/svg10.dtd">
<svg version="1.0" xmlns="http://www.w3.org/2000/svg"
 width="1024" height="1024" viewBox="0 0 1024 1024"
 preserveAspectRatio="xMidYMid meet">
  <rect width="1024" height="1024" fill="white"/>
<metadata>
Created by potrace 1.16, written by Peter Selinger 2001-2019
</metadata>
<g transform="translate(0.000000,1024.000000) scale(0.100000,-0.100000)"
fill="#000000" stroke="none">
<path d="M0 5120 l0 -5120 5120 0 5120 0 0 5120 0 5120 -5120 0 -5120 0 0
-5120z m7315 3534 c182 -140 335 -260 342 -267 11 -11 1 -155 -85 -1275 -5
-62 -13 -116 -18 -121 -5 -4 -305 -97 -667 -206 l-657 -199 -229 -256 c-392
-439 -768 -873 -996 -1152 l-78 -96 -105 191 c-255 469 -608 1106 -637 1152
-18 28 -55 76 -84 108 l-51 58 0 -181 0 -182 -27 6 c-16 3 -217 35 -448 71
-735 113 -928 144 -933 150 -6 5 -168 1279 -173 1355 -2 32 22 70 227 360 126
178 232 328 235 332 7 10 345 -148 342 -159 -1 -5 -31 -84 -66 -177 l-64 -168
-156 -100 c-87 -55 -157 -103 -157 -108 0 -11 360 -874 368 -882 4 -3 302 29
662 73 360 43 662 79 670 79 8 0 150 -115 315 -254 l299 -254 106 92 c192 168
495 431 512 444 10 8 301 71 648 142 347 70 632 129 634 131 6 7 257 851 254
854 -2 1 -59 40 -128 85 -69 45 -126 85 -127 88 -1 4 -16 117 -33 252 -17 135
-32 251 -35 258 -2 6 -1 12 3 12 4 0 156 -115 337 -256z m-1880 -434 c127
-101 236 -189 244 -196 11 -10 0 -69 -70 -369 l-84 -356 -149 -126 c-83 -69
-160 -130 -172 -135 -31 -14 -55 -1 -241 136 l-159 115 -72 318 c-40 175 -72
338 -72 364 0 56 -4 52 289 283 197 155 226 175 240 163 9 -8 120 -96 246
-197z m670 -2127 c-18 -47 -297 -1033 -301 -1068 -5 -37 0 -48 72 -150 255
-362 620 -968 797 -1321 l44 -89 7 -765 c7 -726 8 -766 26 -780 10 -8 116 -96
235 -195 120 -99 247 -204 283 -232 l65 -53 -379 0 c-209 0 -384 4 -390 8 -7
4 -64 133 -127 287 -210 511 -416 989 -506 1177 l-46 98 138 138 138 138 -527
523 c-289 287 -530 521 -534 519 -12 -5 -1273 -1245 -1299 -1278 l-24 -30 199
68 c109 38 207 73 218 77 10 4 -96 -129 -235 -297 -140 -167 -463 -557 -719
-866 l-464 -562 -114 0 c-88 0 -113 3 -109 13 3 6 96 206 207 442 207 442 484
1038 667 1435 57 124 126 263 155 310 87 143 459 709 669 1017 l199 293 -40
207 c-22 115 -51 264 -65 332 -14 68 -25 126 -25 128 0 3 41 -46 92 -109 175
-217 342 -399 476 -521 97 -89 172 -147 190 -147 31 0 605 705 943 1158 46 61
85 112 87 112 2 0 1 -8 -3 -17z"/>
<path d="M4961 7793 c51 -65 223 -268 228 -271 4 -1 60 61 124 138 64 77 114
140 111 140 -4 0 -62 -9 -131 -21 l-124 -21 -104 26 c-124 31 -121 31 -104 9z"/>
</g>
</svg>
