<?xml version="1.0" standalone="no"?>
<!DOCTYPE svg PUBLIC "-//W3C//DTD SVG 20010904//EN"
 "http://www.w3.org/TR/2001/REC-SVG-20010904/DTD/svg10.dtd">
<svg version="1.0" xmlns="http://www.w3.org/2000/svg"
 width="1024" height="1024" viewBox="0 0 1024 1024"
 preserveAspectRatio="xMidYMid meet">
  <rect width="1024" height="1024" fill="white"/>
<metadata>
Created by potrace 1.16, written by Peter Selinger 2001-2019
</metadata>
<g transform="translate(0.000000,1024.000000) scale(0.100000,-0.100000)"
fill="#000000" stroke="none">
<path d="M0 5120 l0 -5120 5120 0 5120 0 0 5120 0 5120 -5120 0 -5120 0 0
-5120z m5252 4192 c62 -75 212 -256 333 -402 122 -146 315 -382 430 -525 115
-143 258 -320 319 -393 61 -73 111 -137 111 -142 0 -5 -57 -73 -126 -152 -70
-79 -176 -202 -235 -274 -100 -120 -310 -367 -513 -603 l-81 -94 0 -204 c0
-111 2 -203 4 -203 3 0 101 65 218 144 117 79 330 217 473 306 489 307 720
453 778 493 31 22 59 38 61 36 6 -6 -20 -56 -111 -214 -137 -240 -316 -562
-425 -765 l-104 -195 -306 -205 c-168 -113 -367 -248 -442 -300 l-137 -95 7
-530 7 -530 131 -165 c71 -91 226 -288 344 -438 l214 -273 111 107 c189 182
1111 1080 1124 1096 13 15 -2 337 -41 898 -8 113 -18 256 -22 319 l-6 114 508
-514 c280 -283 552 -559 604 -614 52 -55 156 -162 230 -238 74 -76 136 -141
137 -145 2 -4 -141 -42 -317 -86 l-320 -78 -273 -342 c-151 -187 -328 -411
-394 -496 -66 -85 -222 -281 -347 -435 -125 -154 -444 -550 -710 -880 -480
-595 -616 -763 -1105 -1364 -250 -308 -253 -312 -273 -294 -12 10 -147 176
-302 368 -155 193 -353 438 -441 545 -270 328 -908 1124 -1957 2436 l-366 460
-74 17 c-40 10 -187 47 -326 84 l-253 66 133 136 c590 602 1342 1361 1345
1358 4 -5 -28 -587 -52 -947 -8 -124 -15 -253 -15 -286 l0 -62 123 -131 c67
-72 347 -349 622 -617 l500 -486 22 29 c13 15 132 170 265 343 133 173 277
361 321 418 l78 102 8 263 c5 144 7 381 6 527 l-2 265 -99 69 c-54 38 -139 99
-189 136 -49 37 -197 137 -327 223 -179 118 -242 164 -261 194 -49 76 -349
610 -502 893 -43 80 -94 168 -112 197 -18 29 -33 54 -33 57 0 3 64 -37 143
-88 78 -51 315 -203 527 -336 329 -208 761 -489 838 -546 l22 -16 0 208 -1
209 -152 181 c-386 460 -613 728 -705 834 -84 97 -98 117 -87 130 217 257 439
525 591 715 231 288 642 785 692 837 19 20 39 35 43 32 5 -3 59 -67 121 -142z"/>
<path d="M4969 8483 c-79 -98 -219 -269 -311 -379 -93 -111 -168 -206 -168
-211 0 -9 83 -105 346 -404 93 -107 195 -224 226 -260 l56 -67 150 172 c82 94
227 259 321 366 94 107 171 197 171 200 0 3 -80 101 -177 216 -98 116 -241
286 -318 378 -77 91 -142 166 -146 166 -3 0 -71 -80 -150 -177z"/>
<path d="M4843 3576 l-282 -355 87 -84 c48 -46 173 -165 278 -265 l191 -181
282 270 c193 185 279 274 273 282 -15 20 -535 671 -542 680 -3 4 -133 -152
-287 -347z"/>
<path d="M3230 3672 c0 -6 4 -13 9 -16 9 -6 304 -377 502 -632 52 -67 337
-418 635 -780 297 -362 585 -714 639 -781 55 -68 102 -123 106 -123 4 0 229
273 500 608 272 334 682 839 913 1122 230 283 434 534 453 558 19 23 30 42 25
42 -6 0 -12 -4 -14 -8 -4 -9 -246 -223 -623 -551 -154 -134 -365 -321 -470
-416 -104 -95 -325 -294 -489 -443 l-300 -269 -150 136 c-83 75 -272 244 -421
376 -325 288 -443 394 -555 500 -47 44 -211 193 -365 331 -154 138 -306 274
-337 303 -32 29 -58 48 -58 43z"/>
</g>
</svg>
