<?xml version="1.0" standalone="no"?>
<!DOCTYPE svg PUBLIC "-//W3C//DTD SVG 20010904//EN"
 "http://www.w3.org/TR/2001/REC-SVG-20010904/DTD/svg10.dtd">
<svg version="1.0" xmlns="http://www.w3.org/2000/svg"
 width="1024" height="1024" viewBox="0 0 1024 1024"
 preserveAspectRatio="xMidYMid meet">
  <rect width="1024" height="1024" fill="white"/>
<metadata>
Created by potrace 1.16, written by Peter Selinger 2001-2019
</metadata>
<g transform="translate(0.000000,1024.000000) scale(0.100000,-0.100000)"
fill="#000000" stroke="none">
<path d="M0 5120 l0 -5120 5120 0 5120 0 0 5120 0 5120 -5120 0 -5120 0 0
-5120z m5153 3838 c18 -12 91 -65 162 -118 72 -53 182 -134 245 -180 63 -46
173 -126 243 -178 l128 -95 -1 -346 c-1 -191 -4 -352 -8 -358 -4 -6 -79 -60
-167 -119 -88 -60 -206 -142 -262 -183 l-101 -74 -7 -86 c-3 -47 -9 -98 -11
-113 -7 -33 1 -35 41 -8 57 38 310 188 560 330 138 78 284 163 325 189 111 69
425 249 428 246 1 -1 -26 -78 -61 -171 -35 -93 -104 -285 -153 -426 l-89 -257
-190 -107 c-104 -59 -247 -138 -316 -175 -142 -75 -153 -82 -366 -222 l-153
-101 0 -45 c0 -25 4 -104 10 -176 5 -71 16 -249 25 -395 8 -146 22 -357 30
-470 8 -113 19 -297 25 -410 6 -113 17 -297 26 -410 l15 -205 57 -83 c31 -45
129 -189 217 -319 89 -130 167 -241 175 -246 11 -6 63 18 185 86 235 131 441
248 506 289 30 19 101 61 159 92 l105 58 125 160 c173 222 243 322 231 326 -6
2 -87 -33 -180 -77 -93 -45 -171 -81 -174 -81 -2 0 25 92 59 204 80 258 308
1012 342 1129 13 48 28 87 33 87 9 0 77 -103 164 -250 60 -101 142 -253 363
-675 57 -110 149 -282 203 -381 131 -243 181 -344 170 -344 -4 0 -126 56 -270
125 -144 69 -264 125 -267 125 -2 0 -4 -6 -4 -12 0 -7 -71 -190 -157 -406
l-157 -393 -146 -102 c-80 -55 -199 -140 -265 -187 -66 -48 -223 -160 -350
-250 -584 -415 -753 -543 -1210 -925 l-101 -83 -16 -103 c-9 -57 -15 -105 -13
-107 5 -5 135 38 314 105 80 29 155 53 169 53 24 0 24 0 6 -28 -10 -15 -84
-107 -166 -205 -81 -97 -199 -241 -262 -320 -149 -186 -245 -301 -256 -305
-10 -4 -13 0 -306 368 -125 157 -265 330 -311 385 -77 91 -82 100 -61 103 13
2 120 -31 238 -71 118 -41 224 -78 235 -81 l21 -6 -21 105 c-16 78 -27 111
-46 131 -31 34 -398 334 -543 444 -127 97 -324 240 -646 472 -124 89 -274 198
-335 243 -60 44 -199 143 -308 219 -108 76 -204 148 -212 159 -9 12 -56 126
-106 252 -187 475 -212 535 -220 535 -7 0 -101 -43 -446 -205 -51 -24 -93 -42
-93 -39 0 8 128 260 201 396 39 73 124 232 189 353 200 376 270 504 337 619
92 158 174 286 182 286 7 0 87 -261 271 -895 60 -203 120 -405 133 -448 14
-43 22 -76 19 -75 -55 30 -324 158 -332 158 -15 0 -13 -7 24 -64 36 -56 270
-361 315 -409 14 -16 87 -63 161 -105 74 -42 221 -126 325 -187 286 -167 475
-269 485 -259 4 5 92 137 195 294 103 157 201 302 217 322 34 44 39 83 58 453
6 121 29 486 51 810 21 325 42 656 46 736 l6 147 -44 32 c-99 72 -309 207
-389 248 -138 73 -558 312 -578 330 -11 10 -50 109 -92 232 -40 118 -106 304
-147 414 -40 109 -72 200 -70 203 5 4 340 -185 402 -227 49 -33 449 -267 565
-330 47 -26 150 -86 229 -134 79 -48 144 -86 146 -84 3 4 -11 136 -20 190 -6
34 -19 46 -133 131 -70 52 -186 134 -259 183 l-132 88 -3 356 -3 355 35 33
c19 18 97 78 173 135 77 56 236 175 355 264 120 89 223 162 230 162 8 1 28 -9
45 -21z m1547 -2464 c-11 -198 -23 -373 -26 -391 -4 -26 -17 -39 -82 -81 -105
-67 -369 -225 -467 -279 l-80 -44 -227 233 c-125 128 -227 235 -228 238 0 3
96 4 213 2 l212 -3 230 233 c223 225 467 459 473 453 2 -1 -6 -164 -18 -361z
m-3093 284 c43 -40 197 -194 343 -342 l265 -269 223 7 c122 3 222 5 222 4 0
-2 -105 -111 -234 -242 l-234 -240 -119 71 c-297 176 -476 289 -488 308 -13
22 -69 775 -57 775 1 0 37 -33 79 -72z"/>
<path d="M4937 8272 l-177 -115 0 -129 0 -128 68 -43 c37 -24 118 -74 180
-111 l112 -68 173 109 172 109 3 130 2 129 -67 44 c-38 25 -118 77 -178 116
l-111 72 -177 -115z"/>
<path d="M5117 4134 c-4 -4 -7 -18 -7 -31 0 -27 -159 -900 -195 -1076 l-25
-119 117 -112 116 -112 114 112 c62 61 113 119 113 128 0 9 -24 144 -54 299
-58 300 -137 724 -159 845 -7 40 -16 70 -20 66z"/>
</g>
</svg>
