<?xml version="1.0" standalone="no"?>
<!DOCTYPE svg PUBLIC "-//W3C//DTD SVG 20010904//EN"
 "http://www.w3.org/TR/2001/REC-SVG-20010904/DTD/svg10.dtd">
<svg version="1.0" xmlns="http://www.w3.org/2000/svg"
 width="1024" height="1024" viewBox="0 0 1024 1024"
 preserveAspectRatio="xMidYMid meet">
  <rect width="1024" height="1024" fill="white"/>
<metadata>
Created by potrace 1.16, written by Peter Selinger 2001-2019
</metadata>
<g transform="translate(0.000000,1024.000000) scale(0.100000,-0.100000)"
fill="#000000" stroke="none">
<path d="M0 5120 l0 -5120 5120 0 5120 0 0 5120 0 5120 -5120 0 -5120 0 0
-5120z m5231 3883 c129 -133 274 -291 405 -444 92 -107 141 -171 299 -384 l59
-80 73 -350 c40 -192 98 -454 129 -581 l57 -231 -44 -40 c-156 -142 -280 -243
-283 -231 -2 7 -7 85 -10 173 -4 88 -8 180 -11 205 -6 62 -44 571 -53 705 l-7
110 -58 30 c-33 17 -197 102 -365 191 l-307 160 -60 -34 c-33 -19 -198 -106
-367 -194 l-308 -160 0 -73 c0 -40 -7 -158 -15 -261 -38 -495 -46 -628 -48
-741 -1 -68 -4 -123 -5 -123 -2 0 -41 33 -86 73 -45 39 -117 101 -159 137 -41
36 -76 73 -76 83 -1 10 12 71 28 135 50 198 100 425 160 722 l57 285 91 125
c116 161 211 276 387 475 154 173 394 425 405 425 3 0 54 -48 112 -107z m372
-1389 c3 -4 -19 -36 -50 -73 -71 -83 -133 -178 -133 -204 0 -10 6 -42 14 -70
7 -29 19 -81 26 -117 16 -87 49 -185 104 -312 25 -58 46 -110 46 -116 0 -11
-479 -477 -490 -477 -4 0 -86 75 -181 166 -96 91 -207 197 -247 235 l-74 69
56 130 c67 159 119 344 133 473 4 37 0 51 -32 100 -21 31 -59 82 -85 112 -76
90 -84 84 96 76 87 -4 174 -10 192 -13 l32 -5 0 -139 c0 -99 -7 -182 -24 -291
-14 -84 -26 -166 -28 -183 l-3 -30 164 -3 164 -3 -7 63 c-4 35 -16 115 -26
178 -20 117 -31 393 -17 407 5 4 83 12 175 19 92 6 172 12 178 13 6 0 13 -2
17 -5z m-2386 -274 c150 -85 273 -158 273 -162 0 -12 -378 -268 -677 -458 -65
-41 -179 -120 -254 -176 l-136 -102 -73 -223 c-40 -123 -74 -226 -77 -228 -2
-3 -10 5 -19 17 -9 13 -117 142 -241 288 -124 146 -223 266 -222 268 2 1 27
15 54 31 98 56 241 219 349 397 44 72 52 80 149 139 56 34 165 103 242 153
278 178 340 216 350 214 6 -2 133 -73 282 -158z m-150 -861 c65 -75 213 -243
328 -375 251 -286 284 -326 268 -331 -6 -2 -72 -40 -148 -84 -75 -44 -140 -77
-145 -74 -6 3 -135 146 -287 318 -152 172 -279 314 -282 317 -4 3 -32 35 -64
72 l-57 67 126 116 c70 63 131 114 136 113 4 -2 61 -64 125 -139z m1464 -468
c456 -451 572 -561 592 -561 4 0 244 235 532 521 410 407 529 520 542 514 96
-36 300 -107 438 -152 159 -52 927 -320 930 -326 1 -1 42 -87 90 -192 48 -104
129 -280 180 -390 51 -110 129 -281 173 -380 44 -99 99 -220 121 -269 23 -49
40 -91 37 -93 -2 -2 -58 21 -123 52 -118 54 -263 109 -263 99 0 -3 26 -38 58
-77 32 -40 170 -218 307 -397 137 -179 266 -347 287 -374 21 -27 37 -53 36
-57 -2 -4 -86 -99 -188 -211 -102 -111 -210 -230 -240 -264 -30 -34 -66 -67
-80 -74 -14 -7 -124 -46 -245 -87 -284 -96 -536 -185 -755 -266 -96 -35 -300
-108 -453 -161 -334 -116 -371 -132 -769 -333 -172 -87 -315 -159 -318 -161
-3 -1 -30 29 -58 67 l-53 69 47 94 c49 98 84 189 84 220 0 18 -1 18 -32 2 -60
-31 -137 -94 -170 -139 -18 -24 -35 -44 -38 -44 -3 0 -20 20 -38 44 l-32 44
26 113 c15 62 35 132 45 156 11 24 19 54 19 67 l0 24 -66 -29 c-36 -17 -79
-39 -94 -50 -15 -11 -31 -20 -34 -20 -3 0 -26 32 -51 72 l-47 71 25 21 c13 12
70 78 125 147 56 69 136 165 177 213 l76 87 29 -24 c15 -13 106 -55 202 -92
95 -37 282 -112 416 -166 134 -55 248 -99 253 -99 5 0 96 75 202 167 106 91
219 189 252 218 33 28 149 129 259 225 l198 173 167 -1 c91 -1 285 -5 431 -8
l265 -6 -50 28 c-142 78 -563 338 -580 359 -11 13 -58 86 -104 162 -46 76
-147 233 -223 350 l-140 212 15 48 c9 26 55 174 103 328 48 154 89 287 92 295
10 25 -206 -167 -494 -440 -107 -102 -191 -165 -246 -186 -16 -5 -18 1 -18 47
0 104 -50 564 -69 636 -8 30 -10 26 -227 -372 -53 -99 -116 -211 -139 -250
l-41 -70 -558 1 -557 2 -103 108 c-57 60 -181 201 -276 314 -279 331 -288 339
-415 340 l-70 0 -65 77 c-36 42 -86 99 -111 127 -110 121 -168 191 -161 197 4
4 32 16 62 27 30 12 136 53 235 91 99 39 180 71 181 71 0 0 219 -216 485 -479z
m-1648 -303 c52 -62 122 -144 154 -181 l60 -69 -14 -41 c-8 -23 -26 -91 -40
-152 -16 -74 -31 -118 -46 -133 -36 -39 -947 -715 -954 -709 -4 4 90 184 237
452 48 88 118 219 155 290 38 72 95 180 128 240 32 61 92 179 133 263 41 83
79 152 83 152 5 0 52 -51 104 -112z m1178 -156 l122 -118 -78 -30 -78 -31 129
-68 c71 -37 163 -86 204 -108 l74 -41 -54 -16 c-78 -22 -180 -62 -180 -69 0
-6 32 -24 172 -98 l87 -46 -98 -96 c-105 -103 -327 -342 -352 -378 -12 -18
-26 -22 -81 -24 -89 -3 -220 -26 -234 -42 -6 -6 -47 -52 -89 -102 -107 -124
-297 -327 -494 -530 -91 -93 -222 -232 -290 -307 -98 -108 -129 -137 -145
-133 -12 2 -95 20 -186 39 -91 19 -194 40 -230 47 -36 7 -87 17 -113 23 l-49
11 1 325 0 325 178 110 c269 166 528 344 838 576 192 143 208 158 225 214 14
47 147 393 158 414 5 8 91 64 193 125 101 61 195 119 209 129 13 9 28 17 31
17 4 0 62 -53 130 -118z m2219 -1282 l0 -670 -166 0 c-157 0 -172 2 -258 29
-156 50 -168 58 -238 148 -35 45 -110 139 -167 208 l-104 128 54 46 c29 25
150 136 269 246 118 110 269 244 335 297 66 53 154 128 195 167 41 38 76 70
78 71 1 0 2 -301 2 -670z m-1638 230 c41 -52 163 -209 272 -349 l198 -253 -78
-80 c-44 -44 -100 -97 -125 -119 l-47 -39 -254 313 c-139 171 -267 330 -284
351 l-31 39 126 126 c88 89 129 123 137 116 6 -5 45 -53 86 -105z m-497 -1152
c154 -77 391 -203 404 -214 2 -2 -54 -62 -125 -134 -71 -72 -129 -135 -129
-141 0 -5 129 -139 286 -297 157 -158 391 -396 521 -530 l236 -243 89 68 c90
69 169 121 348 233 55 34 143 92 195 129 52 38 142 96 201 129 118 69 389 187
398 174 3 -4 46 -63 95 -131 48 -67 84 -126 80 -131 -14 -12 -388 -254 -604
-389 -190 -120 -528 -348 -857 -578 -88 -62 -164 -113 -167 -113 -3 0 -66 42
-138 93 -241 170 -757 510 -1121 738 -196 123 -367 231 -379 241 l-22 16 89
194 c78 169 167 349 259 525 l28 52 -21 203 c-12 112 -23 224 -26 251 l-4 47
92 -50 c51 -28 173 -92 272 -142z"/>
</g>
</svg>
