<?xml version="1.0" standalone="no"?>
<!DOCTYPE svg PUBLIC "-//W3C//DTD SVG 20010904//EN"
 "http://www.w3.org/TR/2001/REC-SVG-20010904/DTD/svg10.dtd">
<svg version="1.0" xmlns="http://www.w3.org/2000/svg"
 width="1024" height="1024" viewBox="0 0 1024 1024"
 preserveAspectRatio="xMidYMid meet">
  <rect width="1024" height="1024" fill="white"/>
<metadata>
Created by potrace 1.16, written by Peter Selinger 2001-2019
</metadata>
<g transform="translate(0.000000,1024.000000) scale(0.100000,-0.100000)"
fill="#000000" stroke="none">
<path d="M0 5120 l0 -5120 5120 0 5120 0 0 5120 0 5120 -5120 0 -5120 0 0
-5120z m5204 3899 c38 -72 176 -318 306 -548 130 -229 274 -483 320 -566 46
-82 130 -230 187 -327 56 -98 100 -183 97 -190 -3 -7 -59 -60 -123 -118 -157
-140 -619 -560 -750 -682 -58 -54 -111 -98 -119 -98 -8 0 -69 51 -136 113 -66
63 -184 172 -261 242 -77 71 -214 196 -303 279 -90 83 -193 178 -230 211 l-65
61 110 184 c264 442 818 1418 867 1528 10 23 22 42 25 42 3 0 37 -59 75 -131z
m2751 -655 c-119 -328 -564 -1414 -593 -1448 -36 -41 -338 -282 -602 -481 -58
-43 -159 -122 -225 -175 -66 -53 -246 -195 -400 -315 -547 -427 -755 -596
-760 -618 -3 -12 -39 -221 -80 -465 -40 -243 -77 -448 -81 -455 -3 -6 13 10
37 38 24 27 135 152 245 276 111 125 223 254 250 287 l49 61 343 138 342 138
15 50 c8 28 35 138 61 245 25 107 48 198 50 202 16 26 631 504 639 497 10 -11
-73 -448 -130 -684 -43 -178 -209 -733 -223 -747 -15 -15 -601 -140 -843 -179
l-76 -12 -76 -117 c-165 -252 -317 -527 -484 -875 -50 -104 -139 -288 -197
-408 l-105 -219 -27 54 c-15 29 -96 202 -181 383 -168 361 -314 643 -446 862
-133 220 -204 322 -230 328 -12 2 -80 16 -152 29 -273 52 -674 144 -693 158
-6 6 -24 49 -38 97 -14 47 -53 172 -85 276 -33 105 -80 271 -104 370 -47 192
-141 692 -132 702 7 6 12 3 370 -286 154 -123 281 -231 285 -239 3 -9 31 -122
61 -251 l56 -236 35 -16 c19 -9 165 -68 323 -130 l289 -114 101 -120 c55 -66
160 -187 232 -270 151 -174 202 -234 240 -290 23 -33 27 -36 21 -14 -8 35 -59
354 -106 669 l-39 255 -33 28 c-100 87 -366 301 -523 422 -99 77 -293 230
-431 340 -138 110 -422 334 -631 498 -210 163 -386 303 -392 311 -21 25 -358
865 -478 1191 -51 137 -133 374 -133 382 0 11 53 -31 181 -143 302 -266 849
-734 1264 -1083 160 -134 373 -314 475 -400 267 -227 811 -670 885 -721 l43
-29 88 66 c49 36 125 96 169 132 44 37 130 107 190 156 185 149 385 315 490
405 55 48 213 180 350 295 275 229 485 407 698 590 77 66 172 146 211 179 39
32 148 125 241 206 94 81 231 201 305 265 89 77 136 112 138 102 2 -8 -18 -72
-43 -143z m-5495 -3194 c72 -290 176 -513 324 -697 150 -185 345 -317 605
-407 l102 -36 37 19 c20 10 138 79 262 152 279 164 297 175 304 169 2 -3 -6
-77 -20 -165 -39 -261 -67 -525 -56 -538 5 -7 54 -68 108 -137 173 -217 405
-517 571 -740 153 -205 377 -535 404 -593 7 -15 15 -27 19 -27 3 0 17 18 29
41 110 196 544 796 901 1247 80 101 151 192 159 203 17 24 9 117 -39 483 -16
121 -27 222 -24 225 7 7 63 -22 349 -183 143 -80 267 -146 276 -146 35 0 205
62 296 107 181 91 364 255 481 432 100 153 209 409 262 620 7 26 15 40 21 34
5 -5 52 -101 104 -213 53 -113 112 -234 132 -270 65 -117 292 -489 500 -816
111 -177 203 -325 203 -329 0 -4 -75 -4 -167 -1 -93 3 -365 13 -605 22 l-436
16 -184 -90 c-299 -147 -463 -252 -734 -469 -173 -139 -515 -471 -657 -639
-343 -405 -603 -808 -798 -1237 -36 -81 -69 -150 -71 -153 -3 -2 -31 53 -63
123 -204 451 -482 883 -819 1273 -216 250 -553 568 -801 754 -194 146 -458
305 -651 391 l-108 48 -415 -12 c-229 -6 -494 -16 -589 -22 -96 -6 -176 -8
-179 -5 -7 7 74 142 267 446 183 288 421 682 469 778 21 42 71 149 111 237 81
179 90 198 95 193 2 -1 13 -41 25 -88z"/>
<path d="M5082 7958 c-16 -51 -53 -173 -83 -272 -78 -264 -91 -278 -264 -286
-62 -3 -117 -9 -121 -13 -4 -4 40 -7 99 -7 143 0 185 -19 227 -100 15 -30 131
-418 170 -570 l12 -44 49 159 c26 88 67 225 91 304 65 222 93 251 244 251 56
0 94 4 94 10 0 6 -38 10 -93 10 -170 0 -188 24 -302 394 -43 141 -82 256 -86
256 -4 0 -21 -42 -37 -92z"/>
</g>
</svg>
