<?xml version="1.0" standalone="no"?>
<!DOCTYPE svg PUBLIC "-//W3C//DTD SVG 20010904//EN"
 "http://www.w3.org/TR/2001/REC-SVG-20010904/DTD/svg10.dtd">
<svg version="1.0" xmlns="http://www.w3.org/2000/svg"
 width="1024" height="1024" viewBox="0 0 1024 1024"
 preserveAspectRatio="xMidYMid meet">
  <rect width="1024" height="1024" fill="white"/>
<metadata>
Created by potrace 1.16, written by Peter Selinger 2001-2019
</metadata>
<g transform="translate(0.000000,1024.000000) scale(0.100000,-0.100000)"
fill="#000000" stroke="none">
<path d="M0 5120 l0 -5120 5120 0 5120 0 0 5120 0 5120 -5120 0 -5120 0 0
-5120z m5685 3910 c44 -6 173 -32 287 -56 114 -24 216 -44 228 -44 24 0 21 10
53 -160 14 -74 42 -195 62 -268 20 -73 33 -138 29 -145 -4 -7 -102 -155 -217
-330 -210 -318 -211 -319 -241 -313 -17 4 -48 18 -69 33 -58 41 -236 231 -356
381 -124 156 -291 398 -291 423 0 21 113 169 239 314 53 61 109 127 125 148
22 28 35 37 50 33 12 -2 57 -10 101 -16z m2580 -837 c-4 -10 -42 -117 -85
-238 -43 -121 -101 -283 -130 -360 -65 -174 -113 -310 -246 -688 -57 -163
-126 -352 -154 -420 -95 -237 -159 -389 -163 -394 -3 -2 -216 55 -474 127
-690 192 -664 185 -684 208 -60 75 -181 516 -230 842 -16 107 -32 203 -35 212
-21 66 111 -16 528 -329 145 -108 319 -237 387 -286 122 -86 125 -88 140 -68
9 11 266 333 571 715 490 613 603 746 575 679z m-4315 -293 c219 -14 809 -30
1105 -30 l251 0 145 -167 c255 -295 652 -763 678 -800 20 -27 26 -47 26 -92 0
-72 -14 -95 -191 -326 -75 -99 -286 -377 -467 -618 l-330 -438 -39 153 c-21
84 -72 279 -113 433 -41 154 -117 447 -169 651 -53 205 -101 385 -108 400 -7
16 -12 30 -13 31 0 1 -138 34 -305 73 -168 39 -420 99 -560 134 -140 36 -256
63 -257 62 -2 -1 37 -31 87 -67 49 -35 88 -70 87 -78 -1 -7 -37 -26 -81 -42
-88 -32 -227 -128 -681 -469 -143 -108 -354 -261 -470 -342 -115 -80 -244
-171 -285 -202 -40 -30 -76 -53 -78 -51 -4 4 71 114 334 485 153 217 523 736
627 881 34 48 118 166 186 264 l124 178 171 -7 c94 -4 241 -11 326 -16z m695
-1737 c61 -92 190 -280 288 -417 99 -138 188 -267 200 -287 19 -33 27 -38 72
-43 116 -15 373 -88 715 -203 201 -68 667 -225 1035 -348 369 -124 674 -226
678 -228 8 -2 -22 -37 -418 -477 -326 -361 -1242 -1401 -1614 -1831 -381 -440
-355 -412 -348 -379 3 14 69 162 147 330 149 319 761 1662 825 1811 l37 86 57
13 c82 18 278 87 270 94 -2 2 -49 -5 -104 -15 -55 -10 -152 -22 -215 -25 -104
-6 -130 -3 -270 25 -159 33 -265 67 -1035 334 -848 294 -945 336 -945 404 0
13 41 129 91 256 123 314 259 679 298 807 55 176 90 260 109 260 11 0 58 -63
127 -167z m-444 -1727 c101 -30 317 -91 479 -136 162 -44 299 -82 304 -83 5
-2 -123 -138 -285 -303 -381 -387 -548 -560 -689 -713 -74 -80 -219 -212 -409
-375 -732 -625 -1650 -1414 -1831 -1574 -69 -61 -126 -109 -128 -108 -1 2 58
104 131 227 74 123 203 341 287 484 408 693 564 951 604 1004 91 118 161 171
483 365 169 102 320 195 335 208 19 15 62 98 131 248 287 622 382 820 393 816
6 -2 94 -29 195 -60z"/>
</g>
</svg>
