<?xml version="1.0" standalone="no"?>
<!DOCTYPE svg PUBLIC "-//W3C//DTD SVG 20010904//EN"
 "http://www.w3.org/TR/2001/REC-SVG-20010904/DTD/svg10.dtd">
<svg version="1.0" xmlns="http://www.w3.org/2000/svg"
 width="1024" height="1024" viewBox="0 0 1024 1024"
 preserveAspectRatio="xMidYMid meet">
  <rect width="1024" height="1024" fill="white"/>
<metadata>
Created by potrace 1.16, written by Peter Selinger 2001-2019
</metadata>
<g transform="translate(0.000000,1024.000000) scale(0.100000,-0.100000)"
fill="#000000" stroke="none">
<path d="M0 5120 l0 -5120 5120 0 5120 0 0 5120 0 5120 -5120 0 -5120 0 0
-5120z m5234 3443 c29 -60 92 -171 138 -248 120 -198 318 -548 318 -560 0 -5
-20 -15 -44 -21 -60 -15 -60 -16 -108 -97 -23 -40 -58 -92 -78 -117 -49 -60
-56 -90 -31 -138 27 -51 99 -136 155 -182 54 -45 210 -123 279 -141 108 -27
346 10 470 72 126 64 341 246 474 400 51 60 88 289 100 624 3 99 9 189 13 199
6 17 9 15 30 -15 13 -19 54 -70 90 -114 216 -260 314 -425 420 -705 159 -420
221 -716 236 -1125 10 -264 -12 -441 -92 -745 -95 -360 -183 -568 -357 -846
-117 -189 -197 -294 -309 -409 l-87 -90 -1 44 c0 25 5 84 11 132 19 144 -9
337 -93 644 -36 133 -111 293 -168 358 -88 100 -299 245 -426 293 -134 50
-220 40 -384 -47 -99 -53 -275 -174 -375 -259 -32 -27 -62 -47 -66 -44 -4 2
-10 0 -13 -5 -4 -5 -2 -12 4 -16 5 -3 10 -14 10 -23 0 -9 41 -55 91 -102 l91
-85 -20 -130 c-61 -381 -73 -528 -72 -940 0 -283 4 -383 20 -516 40 -336 110
-601 219 -824 66 -136 156 -275 176 -275 33 0 20 -25 -63 -117 -78 -87 -165
-192 -355 -426 -32 -40 -106 -141 -164 -225 -92 -134 -107 -152 -126 -146 -27
8 -12 -10 -98 114 -145 209 -560 750 -593 774 -9 6 -1 20 30 52 131 130 267
581 339 1117 22 164 25 224 25 480 0 191 -5 339 -15 427 -17 156 -85 641 -91
651 -2 3 15 15 39 25 23 10 64 36 92 57 27 20 58 37 68 37 15 0 17 3 8 13 -6
8 -9 16 -6 19 8 8 -99 131 -161 184 -151 128 -277 208 -388 244 -75 25 -136
23 -250 -6 -165 -42 -370 -194 -489 -360 -100 -140 -192 -418 -228 -690 -10
-80 -7 -295 6 -364 l6 -35 -18 28 c-10 15 -23 25 -30 23 -14 -6 -110 95 -206
214 -75 94 -229 344 -302 489 -83 167 -144 339 -234 666 -96 346 -107 507 -65
885 26 233 59 376 156 670 97 298 185 469 356 696 70 93 154 206 186 252 33
45 60 81 62 80 1 -2 5 -61 8 -133 12 -247 18 -311 42 -454 13 -80 24 -154 24
-167 0 -14 8 -24 22 -27 12 -4 19 -9 15 -13 -11 -11 166 -196 253 -265 122
-96 187 -132 327 -180 124 -42 132 -43 253 -44 122 0 127 1 208 37 156 68 247
128 336 218 59 60 85 94 90 118 4 22 2 32 -7 32 -6 0 -34 37 -62 82 -79 129
-125 181 -173 198 -23 8 -42 20 -42 27 0 7 94 173 209 370 114 197 227 395
249 440 37 73 51 90 74 92 4 1 32 -47 62 -106z"/>
<path d="M7077 7083 c-5 -13 -5 -27 -2 -33 3 -6 -4 -10 -19 -10 -13 0 -26 -4
-28 -8 -1 -5 -23 -22 -48 -39 -40 -27 -166 -133 -425 -353 -44 -38 -117 -107
-163 -154 -75 -78 -91 -106 -61 -106 20 0 237 -201 346 -322 130 -142 176
-203 241 -311 32 -54 61 -88 90 -108 47 -31 78 -38 69 -15 -3 8 -2 16 3 18 10
4 35 171 56 388 25 243 21 443 -11 705 -15 121 -31 254 -34 295 -5 55 -9 69
-14 53z"/>
<path d="M3170 6967 c-57 -391 -74 -750 -46 -977 29 -233 46 -321 69 -352 11
-15 24 -28 28 -28 22 0 83 67 113 123 19 37 62 101 97 144 76 94 325 345 429
433 41 35 78 73 81 84 11 39 -33 96 -156 199 -66 55 -158 135 -205 177 -119
107 -337 267 -370 272 -28 4 -28 4 -40 -75z"/>
<path d="M5138 7011 c-35 -72 -126 -179 -297 -350 -152 -153 -175 -180 -182
-215 -8 -45 -1 -126 11 -126 16 0 325 -356 461 -531 l26 -33 28 49 c92 159
276 406 364 488 58 54 71 90 50 139 -7 18 -64 89 -126 157 -107 117 -117 132
-194 285 -91 182 -110 201 -141 137z"/>
<path d="M5061 2942 c-173 -316 -216 -412 -191 -420 8 -3 93 -108 257 -319 10
-13 16 -11 41 18 89 102 213 269 226 304 6 16 9 17 16 5 8 -13 10 -13 10 2 0
9 -3 18 -7 20 -5 2 -19 30 -32 63 -14 33 -58 119 -98 190 -40 72 -88 158 -106
192 -17 35 -36 63 -42 63 -5 0 -39 -53 -74 -118z"/>
</g>
</svg>
