<?xml version="1.0" standalone="no"?>
<!DOCTYPE svg PUBLIC "-//W3C//DTD SVG 20010904//EN"
 "http://www.w3.org/TR/2001/REC-SVG-20010904/DTD/svg10.dtd">
<svg version="1.0" xmlns="http://www.w3.org/2000/svg"
 width="1024" height="1024" viewBox="0 0 1024 1024"
 preserveAspectRatio="xMidYMid meet">
  <rect width="1024" height="1024" fill="white"/>
<metadata>
Created by potrace 1.16, written by Peter Selinger 2001-2019
</metadata>
<g transform="translate(0.000000,1024.000000) scale(0.100000,-0.100000)"
fill="#000000" stroke="none">
<path d="M0 5120 l0 -5120 5120 0 5120 0 0 5120 0 5120 -5120 0 -5120 0 0
-5120z m5183 3900 c167 -378 249 -554 267 -579 10 -16 36 -63 55 -106 104
-226 170 -363 193 -404 83 -151 147 -273 168 -320 13 -29 56 -107 95 -174 40
-66 99 -184 133 -261 34 -78 106 -219 159 -313 54 -95 129 -237 166 -315 38
-79 134 -263 214 -409 129 -237 337 -649 337 -670 0 -7 -556 -884 -627 -989
-34 -51 -403 -697 -403 -706 0 -22 886 802 1261 1173 l256 254 -39 142 c-55
197 -132 448 -253 817 -56 173 -105 327 -109 342 -5 23 1 33 36 66 57 52 326
277 623 520 132 108 295 243 363 300 68 57 125 102 127 100 3 -2 -45 -106
-105 -231 -119 -248 -435 -923 -442 -947 -5 -16 124 -409 187 -570 20 -52 57
-150 81 -217 24 -68 53 -142 65 -165 22 -43 80 -191 145 -368 19 -52 52 -133
74 -180 68 -150 75 -131 -102 -247 -84 -55 -191 -124 -238 -153 -120 -75 -349
-228 -525 -351 -82 -58 -260 -180 -395 -271 -135 -91 -283 -192 -330 -225 -47
-33 -163 -114 -257 -181 -95 -66 -182 -126 -194 -132 -11 -7 -85 -60 -163
-118 -78 -59 -184 -136 -234 -172 l-93 -65 -86 -150 c-48 -82 -115 -197 -150
-254 -35 -57 -63 -107 -63 -112 0 -8 64 24 285 146 72 39 182 98 245 129 63
32 149 78 192 102 43 23 78 40 78 36 0 -4 -45 -72 -100 -152 -55 -80 -120
-179 -145 -220 -26 -41 -102 -156 -171 -255 -69 -99 -157 -229 -195 -290 -39
-60 -126 -195 -195 -300 -69 -104 -150 -232 -181 -282 -30 -51 -59 -93 -62
-93 -4 0 -41 53 -81 117 -74 117 -444 683 -522 798 -227 333 -449 668 -446
671 2 2 78 -35 169 -82 90 -48 250 -129 354 -182 105 -52 207 -106 228 -119
20 -13 37 -19 37 -13 0 6 -37 70 -83 143 -46 72 -116 184 -155 248 l-72 117
-173 122 c-94 67 -230 164 -302 216 -369 270 -1017 713 -1670 1143 -230 151
-419 280 -421 286 -3 6 25 83 62 171 36 87 82 202 101 254 19 52 47 124 63
160 16 36 67 162 113 280 47 118 98 247 114 285 16 39 60 161 98 273 l67 203
-147 307 c-81 169 -176 372 -211 451 -35 79 -98 209 -139 288 -42 80 -75 147
-73 149 4 4 226 -172 463 -367 77 -63 178 -145 225 -181 233 -183 454 -368
458 -382 4 -15 -63 -241 -158 -536 -43 -135 -101 -321 -130 -415 -28 -93 -67
-221 -86 -283 l-35 -113 244 -249 c135 -137 305 -304 378 -371 74 -68 197
-182 274 -254 358 -332 538 -490 543 -476 3 8 -84 171 -246 466 -34 61 -114
194 -179 298 -65 103 -147 234 -182 290 -35 56 -117 183 -181 282 -64 99 -129
201 -144 227 l-27 46 94 189 c106 212 263 511 299 569 14 22 100 185 193 364
92 179 187 359 210 400 23 41 98 185 165 320 67 135 138 267 157 293 31 44
177 333 385 763 65 133 282 624 335 757 9 21 19 35 23 30 4 -4 32 -64 63 -133z"/>
<path d="M5050 7753 c-275 -629 -404 -906 -632 -1358 -110 -220 -218 -431
-238 -470 -20 -38 -85 -165 -144 -280 l-107 -211 149 -249 c82 -138 274 -470
427 -740 153 -269 319 -557 370 -640 51 -82 122 -205 160 -272 37 -68 70 -123
74 -123 4 0 15 15 25 33 10 17 116 196 236 397 119 201 306 523 415 715 284
502 308 544 406 704 49 79 89 149 89 156 0 7 -189 390 -419 851 -231 462 -465
940 -519 1064 -110 246 -239 520 -246 520 -2 0 -23 -44 -46 -97z m215 -1595
c84 -146 182 -314 219 -372 36 -58 95 -153 131 -210 l65 -104 -275 -453 c-151
-249 -279 -457 -284 -462 -5 -5 -37 38 -72 95 -35 57 -101 162 -148 233 -176
271 -345 541 -354 566 -9 23 -4 37 38 105 96 157 339 572 422 722 47 84 90
151 95 150 5 -2 79 -123 163 -270z"/>
</g>
</svg>
