<?xml version="1.0" standalone="no"?>
<!DOCTYPE svg PUBLIC "-//W3C//DTD SVG 20010904//EN"
 "http://www.w3.org/TR/2001/REC-SVG-20010904/DTD/svg10.dtd">
<svg version="1.0" xmlns="http://www.w3.org/2000/svg"
 width="1024" height="1024" viewBox="0 0 1024 1024"
 preserveAspectRatio="xMidYMid meet">
  <rect width="1024" height="1024" fill="white"/>
<metadata>
Created by potrace 1.16, written by Peter Selinger 2001-2019
</metadata>
<g transform="translate(0.000000,1024.000000) scale(0.100000,-0.100000)"
fill="#000000" stroke="none">
<path d="M0 5120 l0 -5120 5120 0 5120 0 0 5120 0 5120 -5120 0 -5120 0 0
-5120z m1977 3360 c182 -112 539 -339 988 -626 50 -32 151 -96 225 -142 74
-47 209 -133 300 -192 91 -59 191 -122 222 -141 32 -18 60 -39 62 -45 5 -13
242 -376 381 -585 l91 -136 -314 -149 c-173 -81 -325 -156 -338 -166 -16 -14
-27 -40 -39 -96 -9 -42 -37 -161 -63 -263 l-46 -186 -80 -44 c-45 -23 -128
-74 -186 -111 -94 -62 -146 -87 -154 -77 -16 24 -386 449 -485 559 l-130 145
27 11 c15 7 146 37 292 67 325 68 551 119 547 124 -4 3 -722 167 -959 219
l-128 28 -16 50 c-9 28 -41 119 -71 201 -141 387 -193 547 -176 540 10 -4 266
-91 568 -195 303 -103 595 -204 650 -224 55 -20 95 -32 90 -27 -12 12 -1069
665 -1302 805 -138 83 -153 95 -167 131 -9 22 -57 180 -107 350 -49 171 -101
343 -115 383 -13 40 -24 74 -24 77 0 2 54 -30 120 -73 65 -42 217 -138 337
-212z m6722 198 c-33 -105 -193 -651 -209 -715 -7 -29 -19 -46 -38 -56 -15 -8
-223 -135 -462 -282 -239 -147 -558 -342 -707 -432 -150 -91 -273 -166 -273
-168 0 -2 1274 424 1314 441 14 5 17 4 13 -7 -3 -8 -47 -138 -96 -289 -106
-322 -160 -471 -175 -486 -6 -7 -99 -31 -206 -54 -172 -37 -871 -196 -894
-203 -9 -3 154 -40 574 -128 157 -34 288 -64 293 -68 4 -4 -59 -79 -139 -167
-81 -87 -218 -242 -306 -344 -88 -102 -165 -189 -172 -194 -17 -12 -72 16
-272 137 l-152 91 -41 165 c-22 91 -48 204 -58 250 -27 134 -18 127 -353 282
-162 75 -307 144 -323 153 l-27 15 241 363 241 363 131 84 c214 136 584 369
696 438 57 36 143 90 190 121 76 49 306 195 834 528 86 54 210 133 275 176 64
42 120 77 123 77 4 1 -6 -41 -22 -91z m-3403 -421 c94 -67 225 -160 291 -206
l120 -85 7 -104 c3 -58 6 -221 6 -363 l0 -259 -48 -53 c-27 -30 -102 -125
-168 -211 l-119 -158 -130 -86 c-71 -48 -133 -88 -136 -90 -3 -1 -33 20 -67
47 -33 27 -91 69 -127 92 -51 34 -84 68 -149 154 -47 60 -120 149 -164 198
l-79 87 -7 215 c-4 118 -4 287 0 375 l7 160 246 172 c135 94 266 186 291 204
25 18 47 33 50 33 3 0 82 -55 176 -122z m-491 -1776 c55 -41 149 -115 208
-164 76 -63 111 -86 120 -79 7 5 114 89 240 186 l228 176 117 -59 c120 -60
488 -251 667 -347 l101 -53 17 -73 c9 -40 74 -284 143 -543 l127 -470 185
-445 c101 -245 217 -523 257 -619 l72 -174 -52 -131 c-28 -72 -65 -168 -81
-214 -16 -45 -32 -81 -37 -79 -4 1 -23 36 -41 77 -18 41 -59 131 -90 198 l-57
124 20 61 c11 34 25 81 31 105 l11 43 -183 247 c-100 136 -204 276 -231 312
-27 36 -60 84 -74 108 -24 40 -276 648 -386 930 -29 72 -54 132 -57 132 -3 -1
-22 -22 -42 -48 -21 -26 -65 -81 -98 -122 -34 -41 -99 -131 -146 -200 -80
-120 -87 -135 -167 -359 -46 -129 -88 -236 -93 -237 -5 -2 -94 105 -199 236
-104 132 -192 239 -196 240 -3 0 -50 -57 -104 -127 -54 -71 -142 -182 -194
-247 l-95 -119 -16 39 c-10 21 -45 120 -80 219 -34 99 -69 194 -78 210 -33 66
-322 476 -355 503 -10 9 -53 -92 -212 -491 -226 -571 -174 -477 -524 -947
l-204 -275 27 -107 28 -108 -88 -200 c-49 -110 -92 -196 -96 -192 -4 4 -45
100 -91 214 -77 191 -82 208 -70 234 42 93 413 990 454 1097 27 70 68 196 93
280 58 198 197 694 231 823 l27 100 152 77 c83 43 279 144 436 225 l285 148
30 -20 c17 -11 75 -54 130 -95z m597 -2005 c-6 -19 -277 -426 -284 -426 -9 0
-200 268 -251 353 -21 34 -36 69 -34 77 2 8 68 97 147 197 l143 182 141 -187
c78 -103 140 -191 138 -196z m-1086 154 c79 -144 190 -313 296 -449 48 -62 88
-120 88 -130 -1 -9 -7 -43 -15 -76 -8 -33 -47 -231 -85 -440 -68 -365 -137
-726 -161 -847 -6 -32 -15 -58 -18 -58 -3 0 -40 53 -81 118 -41 64 -128 198
-192 297 -89 135 -118 188 -118 212 0 34 61 467 110 774 16 103 43 292 60 420
37 281 40 303 50 292 5 -4 34 -55 66 -113z m1709 -65 c10 -82 37 -278 62 -435
67 -436 123 -829 123 -869 0 -28 -20 -67 -88 -176 -48 -77 -130 -207 -181
-290 -52 -82 -99 -156 -106 -163 -12 -13 -35 92 -160 753 -52 276 -125 644
-131 659 -3 7 37 67 87 132 103 133 216 305 305 466 42 76 61 101 65 90 4 -10
15 -84 24 -167z m-899 -943 c45 -75 134 -234 199 -352 65 -118 133 -239 152
-269 43 -67 46 -41 -51 -431 -41 -162 -106 -430 -146 -595 -82 -343 -147 -586
-159 -598 -11 -11 -51 138 -150 549 -44 182 -101 413 -126 513 -25 101 -61
250 -80 332 l-34 149 20 45 c16 37 212 584 267 748 9 26 18 47 21 47 3 0 43
-62 87 -138z"/>
<path d="M4690 7706 c0 -45 23 -72 128 -146 l89 -63 7 -84 c10 -121 146 -526
189 -562 35 -28 59 17 149 274 46 131 62 192 69 265 6 54 16 101 24 110 8 9
55 45 104 80 80 58 91 69 96 103 4 21 4 41 1 44 -11 11 -130 -43 -214 -96 -77
-50 -83 -56 -97 -104 -13 -47 -34 -206 -35 -264 0 -22 -4 -23 -77 -23 l-78 0
-18 123 c-31 217 -25 204 -125 268 -104 68 -95 63 -160 88 l-52 21 0 -34z"/>
</g>
</svg>
