<?xml version="1.0" standalone="no"?>
<!DOCTYPE svg PUBLIC "-//W3C//DTD SVG 20010904//EN"
 "http://www.w3.org/TR/2001/REC-SVG-20010904/DTD/svg10.dtd">
<svg version="1.0" xmlns="http://www.w3.org/2000/svg"
 width="1024" height="1024" viewBox="0 0 1024 1024"
 preserveAspectRatio="xMidYMid meet">
  <rect width="1024" height="1024" fill="white"/>
<metadata>
Created by potrace 1.16, written by Peter Selinger 2001-2019
</metadata>
<g transform="translate(0.000000,1024.000000) scale(0.100000,-0.100000)"
fill="#000000" stroke="none">
<path d="M0 5120 l0 -5120 5120 0 5120 0 0 5120 0 5120 -5120 0 -5120 0 0
-5120z m8075 4374 c154 -14 282 -28 285 -31 7 -7 -400 -400 -433 -419 -16 -8
-207 -89 -425 -179 -218 -90 -444 -185 -502 -210 -58 -26 -170 -73 -250 -105
-80 -32 -199 -82 -265 -110 -66 -29 -248 -103 -405 -165 -157 -63 -379 -153
-495 -200 -115 -48 -405 -165 -644 -262 -534 -215 -894 -364 -958 -396 -63
-31 -62 -40 16 -237 72 -182 124 -328 119 -339 -2 -5 -81 31 -177 78 l-174 86
-143 285 c-154 306 -168 342 -245 632 -57 216 -57 208 -2 383 l35 110 42 -46
c41 -46 177 -280 218 -377 19 -44 25 -51 43 -46 11 4 115 44 230 91 819 331
1420 572 1925 773 322 128 833 332 1135 452 672 268 675 269 740 263 28 -3
176 -17 330 -31z m-4999 -1712 c51 -38 124 -117 159 -173 16 -24 54 -81 86
-127 l59 -82 2 -133 c3 -128 2 -133 -25 -183 -16 -28 -91 -121 -167 -206
l-139 -156 -31 -103 c-16 -57 -59 -252 -95 -433 -51 -255 -72 -341 -93 -379
-20 -38 -68 -85 -206 -201 -269 -226 -264 -217 -66 -125 497 231 644 290 734
292 l49 2 76 -86 c42 -47 193 -240 336 -429 143 -189 266 -349 273 -357 11
-11 7 -13 -25 -13 -57 0 -333 34 -773 96 -217 30 -543 75 -725 99 -325 44
-454 65 -527 85 l-37 11 30 87 c64 181 172 438 323 769 178 391 185 405 207
393 12 -7 75 61 296 323 l281 332 -25 27 -26 27 -70 -36 c-71 -35 -348 -133
-379 -133 -13 0 -26 28 -53 118 -20 64 -52 164 -71 222 l-34 105 89 86 c104
101 188 163 289 215 77 38 209 93 228 94 6 0 29 -13 50 -28z m3311 -622 c106
-231 189 -433 243 -595 l38 -110 -20 -49 c-35 -91 -125 -204 -385 -486 l-50
-54 -104 51 c-111 54 -512 217 -619 252 -84 27 -201 53 -207 47 -3 -3 24 -42
59 -88 36 -46 97 -128 137 -182 l72 -100 142 -51 c174 -64 315 -124 324 -138
12 -20 23 -691 11 -702 -14 -14 -309 166 -463 283 -363 275 -435 336 -445 371
-76 291 -217 813 -275 1021 -106 381 -137 501 -132 506 8 8 198 -140 292 -228
181 -170 308 -262 643 -472 68 -43 126 -76 128 -74 2 2 -27 44 -64 93 -81 108
-250 285 -350 368 l-73 59 28 30 c51 54 121 98 195 124 115 40 155 37 373 -29
105 -32 191 -59 191 -60 1 -1 44 -146 97 -322 l95 -320 7 90 c9 99 0 450 -16
621 -5 60 -12 186 -15 279 l-5 170 27 -50 c15 -27 69 -142 121 -255z m-4147 7
c0 -1 23 -65 50 -142 28 -77 50 -140 50 -142 0 -1 -51 -30 -113 -66 -145 -84
-280 -151 -360 -182 l-64 -24 -27 77 c-26 78 -96 316 -93 317 1 1 42 7 91 14
100 13 227 52 361 110 87 37 105 44 105 38z m4274 -1351 l-63 -285 -105 -208
c-58 -114 -109 -214 -114 -221 -6 -9 -7 87 -5 245 5 255 5 258 30 298 28 44
315 455 318 455 1 0 -27 -128 -61 -284z m-1921 207 c3 -10 28 -83 56 -163 l51
-144 109 -131 c61 -71 196 -231 302 -355 105 -124 254 -304 329 -400 76 -96
151 -189 167 -207 l28 -32 96 28 c53 16 183 61 290 101 l194 72 310 365 c171
200 319 375 330 389 l20 25 130 -49 c385 -147 694 -276 861 -360 l96 -48 -238
-88 c-955 -353 -1869 -775 -2503 -1157 l-166 -100 -29 33 c-54 63 -164 215
-238 329 -105 160 -514 823 -748 1209 -108 179 -227 374 -264 433 -36 60 -64
113 -61 118 11 16 79 47 141 62 32 9 136 23 229 32 94 9 231 24 305 34 180 25
196 25 203 4z m3660 -1831 l478 -478 -98 -96 c-166 -162 -359 -331 -1048 -922
-159 -137 -300 -258 -312 -269 -16 -14 -81 -31 -245 -63 -123 -24 -230 -45
-238 -47 -9 -2 -59 35 -115 85 -55 49 -161 130 -235 180 -74 50 -139 94 -144
99 -5 4 8 27 28 52 20 24 79 118 131 208 53 90 108 174 123 187 15 12 59 35
98 52 l71 29 119 -20 c65 -10 187 -33 269 -50 83 -17 155 -32 161 -33 6 0 71
82 144 184 73 102 182 250 242 328 101 133 108 145 91 157 -22 16 -690 365
-903 471 l-155 77 80 24 c187 55 641 208 780 262 83 32 161 59 175 60 20 1
115 -89 503 -477z m-3805 53 c218 -257 533 -615 542 -615 4 0 39 12 76 26 38
14 251 89 474 166 223 77 490 171 594 209 104 38 190 68 192 66 2 -1 -140
-207 -316 -457 -175 -250 -408 -587 -517 -747 -109 -161 -201 -293 -205 -293
-3 0 -82 80 -175 177 -92 98 -263 275 -379 393 -116 118 -219 231 -229 250
-10 19 -42 137 -71 262 -29 125 -85 350 -125 500 -39 150 -74 282 -76 293 -6
25 38 -21 215 -230z m-128 -1143 c58 -44 157 -124 220 -178 63 -55 220 -187
348 -293 127 -106 232 -196 232 -200 0 -5 -19 -13 -42 -20 -95 -28 -450 -160
-718 -266 -494 -196 -794 -328 -1555 -685 -225 -106 -556 -261 -735 -345 -179
-83 -379 -179 -445 -213 -66 -33 -120 -60 -122 -59 -1 1 62 76 139 167 77 91
186 219 241 285 361 425 578 654 762 804 331 269 922 687 1325 938 142 88 230
140 240 142 3 1 52 -34 110 -77z m1760 -659 c63 -49 173 -131 244 -183 409
-296 725 -570 1181 -1025 304 -303 575 -580 575 -589 0 -3 -55 -6 -123 -6
-119 0 -125 1 -192 34 -67 32 -194 99 -955 509 -184 99 -638 333 -1008 519
l-674 338 209 137 c114 75 296 192 403 260 166 105 196 120 210 109 8 -7 67
-53 130 -103z"/>
</g>
</svg>
