<?xml version="1.0" standalone="no"?>
<!DOCTYPE svg PUBLIC "-//W3C//DTD SVG 20010904//EN"
 "http://www.w3.org/TR/2001/REC-SVG-20010904/DTD/svg10.dtd">
<svg version="1.0" xmlns="http://www.w3.org/2000/svg"
 width="1024" height="1024" viewBox="0 0 1024 1024"
 preserveAspectRatio="xMidYMid meet">
  <rect width="1024" height="1024" fill="white"/>
<metadata>
Created by potrace 1.16, written by Peter Selinger 2001-2019
</metadata>
<g transform="translate(0.000000,1024.000000) scale(0.100000,-0.100000)"
fill="#000000" stroke="none">
<path d="M0 5120 l0 -5120 5120 0 5120 0 0 5120 0 5120 -5120 0 -5120 0 0
-5120z m6860 4037 c41 -24 228 -134 415 -244 187 -110 440 -257 561 -327 179
-102 225 -133 238 -159 22 -44 196 -708 196 -749 0 -41 -120 127 -225 317
-107 192 -122 214 -148 219 -46 10 -120 16 -406 36 l-294 21 -41 -33 c-23 -18
-131 -107 -241 -198 -201 -167 -373 -303 -498 -394 -37 -28 -67 -55 -67 -62 0
-22 40 -216 75 -364 56 -237 79 -447 49 -457 -20 -7 -384 591 -594 977 -73
135 -153 275 -176 312 l-43 68 32 16 c87 45 207 154 312 284 51 63 123 148
160 188 37 40 66 74 64 75 -2 2 -111 55 -241 118 -130 62 -237 116 -237 119
-1 9 182 69 369 121 102 28 237 66 300 84 63 19 151 41 195 49 44 8 89 17 100
19 49 11 75 4 145 -36z m-2094 -715 c107 -64 219 -124 592 -315 16 -8 34 -37
53 -87 77 -193 523 -1064 702 -1369 31 -52 54 -98 52 -102 -8 -12 -261 -152
-555 -307 -349 -183 -477 -248 -691 -346 l-166 -77 -126 50 c-258 103 -428
183 -423 198 3 8 40 127 82 266 57 188 188 587 198 603 1 1 26 -2 56 -7 225
-37 654 -99 662 -97 5 2 -14 35 -43 73 -82 109 -475 599 -491 613 -14 11 -358
60 -678 96 -249 28 -945 75 -956 63 -3 -3 43 -65 102 -137 60 -72 110 -134
112 -138 1 -4 -147 -140 -330 -302 -183 -162 -366 -326 -408 -364 -128 -116
-124 -115 -205 -106 -38 5 -148 11 -243 15 -95 4 -175 11 -178 16 -3 5 26 62
64 126 124 211 258 445 332 578 88 157 262 459 376 650 l84 141 83 17 c553
119 870 181 1157 226 140 23 334 54 430 70 96 16 187 29 201 30 15 1 75 -29
155 -77z m2611 -541 c56 -34 118 -80 137 -102 l36 -39 -33 -29 c-18 -16 -53
-34 -77 -41 l-45 -12 70 -64 c39 -35 72 -64 75 -64 9 0 125 142 190 233 71
100 90 118 90 91 1 -11 11 -140 24 -289 13 -148 23 -272 21 -273 -2 -2 -61 3
-132 12 -70 9 -141 18 -156 20 -35 3 -36 3 -121 -229 -116 -313 -127 -337
-151 -331 -11 2 -49 10 -85 16 -69 12 -342 78 -348 85 -5 4 200 266 286 364
l64 74 -34 26 c-39 30 -248 224 -296 273 l-33 35 88 79 c290 263 282 257 306
241 12 -7 68 -42 124 -76z m-3308 -885 c-16 -60 -47 -164 -69 -230 -21 -67
-69 -219 -105 -340 -174 -582 -336 -884 -762 -1419 -88 -110 -95 -117 -114
-104 -11 8 -73 62 -138 121 l-119 106 80 152 c95 182 158 285 433 723 241 384
552 854 622 940 41 50 189 172 199 163 1 -2 -11 -52 -27 -112z m3149 -554 c48
-70 81 -127 76 -132 -18 -18 -483 -212 -873 -365 -379 -148 -419 -166 -634
-287 -127 -70 -235 -128 -240 -128 -17 0 -421 112 -429 119 -4 3 41 28 100 56
59 27 258 122 442 213 184 90 396 191 470 225 278 126 976 425 989 423 8 0 52
-56 99 -124z m-5133 -2 c99 -16 203 -34 231 -40 l50 -11 111 -241 112 -241
-92 -145 c-51 -80 -97 -147 -103 -149 -5 -2 -43 33 -83 77 l-73 81 15 122 c8
67 15 123 14 123 -1 1 -39 -51 -84 -116 l-83 -118 36 -79 c20 -43 46 -104 59
-135 l24 -58 -27 -6 c-15 -3 -49 -11 -77 -18 l-50 -13 -115 108 c-63 59 -162
147 -220 195 -124 103 -190 165 -190 178 0 5 35 64 79 130 43 67 114 181 157
254 68 113 82 132 104 132 14 0 106 -13 205 -30z m5125 -685 c27 -39 70 -109
95 -157 26 -48 62 -108 81 -132 l34 -45 -53 -108 c-30 -59 -67 -142 -82 -183
-27 -76 -107 -381 -101 -387 2 -2 50 61 107 139 57 79 140 188 184 243 44 55
94 119 110 142 17 24 37 43 45 43 8 0 83 -15 166 -34 82 -19 276 -53 430 -76
l279 -43 43 -46 c86 -92 182 -230 287 -413 103 -180 107 -190 101 -230 -8 -50
-52 -181 -108 -323 -91 -231 -100 -241 -150 -187 -58 62 -60 84 -17 292 l30
151 -36 45 c-20 24 -70 84 -112 132 -56 64 -197 260 -208 289 -1 3 -231 -28
-425 -56 -147 -22 -385 -46 -550 -57 -58 -4 -125 -13 -150 -20 -24 -7 -45 -12
-46 -11 0 1 -51 67 -111 147 -61 80 -168 225 -238 324 l-127 179 228 228 c126
126 233 228 237 226 4 -1 30 -34 57 -72z m-2984 -225 c271 -85 659 -217 691
-234 l28 -14 -40 -7 c-48 -8 -123 -27 -365 -93 -102 -28 -277 -75 -390 -106
-263 -70 -455 -128 -515 -155 -27 -12 -49 -20 -51 -18 -6 5 64 155 104 223 63
107 159 243 252 358 47 58 88 105 91 105 3 1 91 -26 195 -59z m-1901 -212 c4
-40 13 -116 20 -168 8 -52 23 -188 35 -302 11 -114 24 -234 28 -267 l9 -60
-243 -242 c-184 -183 -246 -241 -261 -237 -94 28 -508 150 -510 152 0 0 -31
129 -68 286 l-67 285 148 146 c82 81 186 178 231 218 45 39 110 102 144 141
35 38 65 67 68 65 4 -4 37 -82 98 -227 9 -21 19 -38 23 -38 4 0 79 74 166 164
88 89 162 161 165 160 4 -2 10 -37 14 -76z m3584 -412 c157 -84 354 -190 436
-233 83 -44 236 -127 340 -185 105 -58 290 -157 413 -222 123 -64 234 -124
248 -132 38 -26 37 -72 -30 -924 -14 -173 -30 -389 -36 -480 -10 -143 -54
-612 -64 -678 -4 -28 10 -37 359 -240 258 -149 557 -327 680 -403 l71 -44
-756 2 c-415 2 -796 5 -847 9 l-91 6 19 66 c11 37 35 132 54 212 43 180 50
204 82 311 l25 86 -60 229 c-60 224 -140 519 -240 877 l-50 179 62 72 c33 40
98 117 144 170 45 54 82 101 82 106 0 4 -16 11 -35 14 -117 22 -1365 393
-1365 406 1 3 22 18 48 34 87 55 497 328 507 338 14 14 -55 6 -360 -42 -336
-53 -687 -100 -751 -100 l-53 0 123 183 c68 100 149 227 180 283 l56 101 83
22 c45 12 156 46 247 75 91 30 171 54 179 55 8 1 143 -68 300 -153z m-1209 10
c0 -10 -292 -490 -358 -588 -61 -91 -319 -503 -635 -1013 -44 -71 -81 -131
-82 -133 -1 -1 -74 17 -161 42 -388 108 -459 128 -461 130 -1 1 36 80 83 175
47 96 145 316 219 490 74 174 166 388 204 476 l69 160 148 37 c82 21 298 72
479 113 182 42 362 84 400 94 74 20 95 24 95 17z m3652 -441 c-3 -82 -19 -189
-37 -252 -11 -38 -31 -69 -71 -113 -59 -64 -132 -125 -139 -118 -3 2 4 65 15
138 l20 135 -61 61 -61 61 46 71 46 71 78 4 c42 2 97 3 122 3 l45 -1 -3 -60z
m-3756 -836 c-13 -30 -49 -112 -79 -184 -52 -123 -149 -330 -339 -725 l-85
-176 -94 -28 c-52 -16 -159 -46 -239 -66 -213 -55 -690 -193 -880 -255 -91
-29 -252 -76 -358 -104 -178 -47 -255 -73 -355 -115 l-38 -17 46 -86 c73 -135
149 -253 207 -320 53 -63 168 -144 389 -275 l90 -53 -178 -6 c-98 -4 -300 -7
-450 -8 l-271 -1 -164 177 c-89 98 -214 231 -276 297 -108 115 -112 121 -94
136 227 183 720 576 927 738 149 116 346 272 438 347 l168 137 117 -31 c64
-17 207 -56 317 -86 110 -31 251 -69 314 -85 l115 -29 35 42 c20 23 74 83 121
132 121 129 375 407 515 567 66 75 121 135 123 134 1 -2 -9 -27 -22 -57z"/>
</g>
</svg>
