<?xml version="1.0" standalone="no"?>
<!DOCTYPE svg PUBLIC "-//W3C//DTD SVG 20010904//EN"
 "http://www.w3.org/TR/2001/REC-SVG-20010904/DTD/svg10.dtd">
<svg version="1.0" xmlns="http://www.w3.org/2000/svg"
 width="1024" height="1024" viewBox="0 0 1024 1024"
 preserveAspectRatio="xMidYMid meet">
  <rect width="1024" height="1024" fill="white"/>
<metadata>
Created by potrace 1.16, written by Peter Selinger 2001-2019
</metadata>
<g transform="translate(0.000000,1024.000000) scale(0.100000,-0.100000)"
fill="#000000" stroke="none">
<path d="M0 5120 l0 -5120 5120 0 5120 0 0 5120 0 5120 -5120 0 -5120 0 0
-5120z m5323 4032 c98 -192 177 -358 177 -369 0 -19 -366 -638 -377 -638 -7 0
-371 594 -379 619 -4 12 51 131 166 360 207 411 209 414 225 393 6 -9 91 -173
188 -365z m-2723 -479 c63 -44 239 -169 390 -278 151 -109 374 -268 495 -353
121 -85 248 -177 283 -204 69 -55 71 -62 48 -161 l-13 -57 28 -24 c15 -13 97
-63 181 -111 84 -48 206 -119 270 -156 l117 -69 11 -57 c7 -32 24 -93 38 -136
l26 -78 86 -48 c47 -27 121 -70 165 -96 44 -26 123 -72 175 -103 52 -30 121
-72 152 -93 l57 -39 108 69 c59 37 203 121 318 185 116 65 216 125 223 134 7
9 29 69 49 132 20 63 42 123 50 132 34 39 170 121 358 217 110 56 204 107 210
112 6 6 3 37 -7 86 -9 42 -14 82 -11 89 12 32 475 379 1035 775 81 57 192 137
248 178 55 40 103 71 106 68 6 -6 -90 -163 -197 -322 -222 -330 -409 -631
-743 -1192 -21 -35 -64 -68 -243 -186 -418 -275 -590 -374 -980 -567 l-312
-155 -30 -125 c-17 -69 -60 -255 -97 -415 -36 -159 -67 -291 -69 -293 -6 -6
-37 120 -157 642 l-43 189 -325 162 c-404 201 -540 279 -906 521 l-290 192
-84 138 c-153 253 -557 900 -634 1014 -61 91 -246 390 -246 398 0 3 10 -4 23
-15 12 -12 74 -57 137 -100z m2010 -778 c173 -108 360 -227 415 -264 l99 -68
141 90 c129 83 441 287 679 446 55 36 104 68 109 70 4 2 -5 -23 -22 -56 -46
-91 -146 -354 -220 -577 l-67 -201 -95 -53 c-52 -29 -177 -95 -279 -146 -102
-51 -200 -102 -219 -114 l-34 -21 -227 114 c-125 62 -265 136 -311 163 l-85
50 -89 249 c-90 254 -151 410 -205 526 -16 36 -30 68 -30 71 0 3 28 -14 63
-38 34 -24 204 -132 377 -241z m-761 -1244 l335 -116 60 -138 61 -139 175 -89
c96 -49 180 -95 187 -102 13 -13 52 -162 137 -527 30 -129 70 -292 89 -362 19
-71 31 -128 28 -128 -4 0 -43 30 -86 66 -44 37 -141 116 -215 177 -74 60 -157
131 -185 158 l-50 48 3 -127 c4 -144 8 -143 -70 -22 -19 30 -111 170 -203 310
-93 140 -229 356 -303 480 -74 124 -171 281 -216 350 -83 130 -166 281 -166
305 0 10 10 8 43 -8 23 -11 192 -73 376 -136z m2956 127 c-11 -35 -61 -122
-135 -233 -79 -119 -226 -356 -295 -475 -27 -47 -137 -220 -245 -385 -108
-165 -215 -329 -238 -365 l-42 -65 0 124 0 124 -34 -35 c-19 -20 -70 -64 -113
-99 -43 -35 -145 -122 -228 -193 -82 -71 -151 -124 -153 -118 -2 6 54 235 123
508 88 346 131 501 143 510 9 7 92 52 184 99 122 63 169 92 174 108 14 48 96
233 108 245 12 12 262 104 511 187 55 18 127 45 160 58 78 32 88 33 80 5z
m1516 -244 c-26 -49 -89 -163 -139 -254 -102 -187 -280 -510 -308 -556 l-18
-31 63 -209 c34 -115 98 -317 141 -449 43 -132 104 -322 134 -423 31 -101 103
-328 160 -505 221 -678 263 -812 258 -817 -3 -3 -6 0 -9 5 -2 6 -66 101 -143
210 -194 279 -240 348 -311 472 -34 59 -110 187 -169 283 -112 184 -194 323
-370 630 -94 164 -205 348 -216 359 -6 7 -313 -172 -352 -205 l-36 -31 51 -69
c28 -38 89 -130 136 -204 247 -396 357 -560 455 -682 170 -213 222 -279 222
-283 0 -17 -743 -560 -937 -684 l-82 -52 -105 86 c-58 48 -106 90 -106 94 0
12 116 140 279 306 198 202 409 422 440 457 l24 27 -44 58 c-101 135 -410 528
-621 792 -125 156 -241 305 -258 332 l-30 49 77 52 c42 29 112 79 157 111 45
32 171 123 281 202 110 79 263 191 340 249 135 102 437 320 661 476 279 194
390 273 403 286 28 26 21 7 -28 -82z m-6266 -39 c61 -43 234 -162 385 -265
296 -201 321 -219 576 -416 93 -71 221 -165 284 -209 152 -104 499 -354 506
-366 7 -13 -91 -147 -276 -379 -141 -176 -351 -447 -577 -743 -80 -106 -82
-110 -69 -136 8 -15 112 -121 232 -237 230 -221 496 -503 487 -516 -2 -5 -54
-49 -114 -98 l-109 -89 -58 44 c-31 25 -131 96 -222 158 -446 305 -688 473
-716 496 l-30 26 57 67 c32 37 79 98 105 135 26 38 102 142 169 233 149 202
187 258 361 530 183 287 187 297 131 342 -36 28 -317 178 -334 178 -14 0 -169
-263 -289 -490 -97 -184 -154 -282 -316 -540 -46 -74 -119 -191 -161 -260 -41
-69 -125 -197 -186 -285 -60 -88 -142 -208 -182 -267 -41 -59 -75 -105 -76
-104 -4 3 153 514 231 756 276 849 305 941 465 1459 l60 195 -34 45 c-18 26
-73 120 -123 211 -49 91 -104 189 -121 219 -18 30 -51 95 -75 145 -23 50 -68
132 -99 183 -31 50 -57 94 -57 98 0 4 15 -4 33 -17 17 -14 82 -60 142 -103z
m2061 -1846 c22 -15 123 -78 225 -139 235 -143 541 -335 679 -426 l107 -71 54
34 c240 153 464 291 629 390 107 64 247 149 310 188 63 40 116 69 118 65 2 -5
-8 -34 -21 -67 -13 -32 -50 -137 -82 -233 -58 -176 -183 -522 -270 -744 -25
-66 -44 -125 -41 -132 3 -7 65 -53 138 -103 73 -49 183 -129 245 -178 137
-108 353 -269 408 -304 45 -29 148 -108 247 -189 l67 -55 -422 -7 c-232 -3
-542 -4 -689 -1 -211 4 -268 3 -268 -7 0 -7 -32 -96 -71 -199 -56 -145 -279
-758 -341 -936 -13 -36 -28 -55 -28 -35 0 8 -11 44 -25 80 -14 36 -54 150 -91
254 -36 104 -103 291 -149 415 -46 124 -98 271 -117 326 l-34 100 -279 6
c-154 4 -466 7 -694 8 l-414 1 85 64 c47 36 111 81 141 100 31 20 83 58 116
86 75 62 490 368 626 461 55 38 111 77 124 87 l23 19 -65 169 c-101 260 -131
344 -247 694 -59 179 -111 333 -116 344 -7 19 21 4 122 -65z m446 -2561 c75
-145 175 -346 223 -448 103 -216 300 -613 322 -647 l16 -24 40 68 c23 37 180
347 351 688 l311 620 163 3 c157 2 163 2 153 -17 -6 -10 -67 -101 -137 -202
-70 -101 -186 -269 -257 -374 -72 -104 -169 -244 -217 -310 -48 -66 -145 -208
-216 -315 -158 -237 -188 -279 -194 -279 -3 0 -121 174 -263 387 -141 213
-370 546 -507 741 -138 194 -250 357 -250 362 0 5 73 9 163 9 l163 0 136 -262z"/>
<path d="M4490 3988 c27 -79 66 -188 87 -244 l38 -100 140 98 c77 54 144 100
150 102 5 2 8 6 5 8 -14 14 -456 278 -466 278 -2 0 19 -64 46 -142z"/>
<path d="M5705 4092 c-76 -42 -365 -218 -379 -232 -4 -4 2 -14 15 -21 22 -11
180 -122 241 -169 l26 -20 62 147 c58 136 120 305 120 325 0 14 -12 9 -85 -30z"/>
<path d="M4990 3619 c-105 -71 -292 -202 -308 -214 -1 -1 34 -108 79 -237 l81
-235 111 -6 c141 -9 375 -9 415 -1 28 6 33 14 87 163 32 86 70 191 86 233 l28
77 -37 23 c-35 21 -312 215 -378 265 l-31 23 -133 -91z"/>
<path d="M4282 3121 c-99 -70 -198 -139 -219 -152 l-38 -24 280 -5 c154 -3
281 -4 283 -3 2 0 -3 14 -11 30 -8 15 -32 85 -52 156 -23 76 -43 127 -50 127
-7 0 -94 -58 -193 -129z"/>
<path d="M5740 3235 c0 -8 -23 -76 -51 -151 -28 -75 -47 -139 -44 -142 4 -4
127 -8 273 -10 l267 -2 -45 41 c-77 71 -367 279 -389 279 -6 0 -11 -7 -11 -15z"/>
<path d="M4920 2671 c0 -6 28 -72 61 -148 60 -134 129 -328 129 -360 0 -30 9
-8 44 108 19 63 62 180 95 259 34 78 61 144 61 146 0 2 -88 4 -195 4 -115 0
-195 -4 -195 -9z"/>
</g>
</svg>
