<?xml version="1.0" standalone="no"?>
<!DOCTYPE svg PUBLIC "-//W3C//DTD SVG 20010904//EN"
 "http://www.w3.org/TR/2001/REC-SVG-20010904/DTD/svg10.dtd">
<svg version="1.0" xmlns="http://www.w3.org/2000/svg"
 width="1024" height="1024" viewBox="0 0 1024 1024"
 preserveAspectRatio="xMidYMid meet">
  <rect width="1024" height="1024" fill="white"/>
<metadata>
Created by potrace 1.16, written by Peter Selinger 2001-2019
</metadata>
<g transform="translate(0.000000,1024.000000) scale(0.100000,-0.100000)"
fill="#000000" stroke="none">
<path d="M0 5120 l0 -5120 5120 0 5120 0 0 5120 0 5120 -5120 0 -5120 0 0
-5120z m3893 3903 c145 -82 278 -164 408 -249 142 -93 281 -170 382 -209 l67
-27 3 -172 c1 -94 0 -252 -1 -351 l-4 -180 39 -17 c21 -10 61 -30 88 -45 381
-207 515 -288 515 -306 0 -7 -29 -32 -64 -55 -87 -57 -372 -363 -442 -474 -14
-21 -28 -36 -33 -34 -4 3 -11 31 -14 63 -3 32 -26 118 -51 192 -25 74 -46 140
-46 146 0 7 -18 44 -39 83 -21 39 -47 92 -57 118 l-18 47 -20 -25 c-12 -14
-77 -91 -146 -172 l-125 -148 -5 -298 c-5 -271 -7 -300 -23 -318 -28 -31 -375
-221 -403 -222 -6 0 -38 24 -71 53 -153 135 -343 297 -441 377 l-108 88 -13
69 c-6 37 -16 116 -20 174 -5 61 -18 136 -32 179 l-24 73 -160 -6 c-88 -4
-179 -10 -202 -13 l-42 -6 -9 38 c-15 60 -98 524 -138 767 -28 167 -33 221
-24 231 6 8 43 33 83 57 40 23 124 72 187 109 110 64 907 507 918 509 2 1 40
-20 85 -46z m1362 -625 c124 -29 883 -179 950 -187 33 -5 74 -13 90 -20 17 -7
134 -39 260 -72 521 -134 582 -150 629 -168 48 -18 51 -21 109 -132 32 -63
101 -188 151 -279 51 -91 118 -212 148 -270 119 -224 668 -1249 806 -1504
l145 -270 -23 -65 c-32 -91 -93 -245 -268 -676 -213 -525 -233 -570 -502
-1140 -51 -107 -51 -110 -36 -141 14 -31 279 -478 370 -627 l42 -68 -82 -302
c-45 -166 -116 -427 -158 -580 -42 -153 -74 -282 -72 -286 3 -4 54 -2 113 5
203 23 327 28 339 13 6 -8 35 -72 63 -142 29 -70 67 -163 86 -207 19 -43 35
-85 35 -94 0 -15 -91 -16 -976 -16 -914 0 -975 1 -972 17 2 10 20 22 43 29 22
6 150 58 285 114 135 57 337 140 450 186 113 46 208 89 212 96 4 7 23 105 43
218 20 113 52 292 72 398 l36 193 -42 49 c-22 27 -41 53 -41 58 0 6 -7 12 -15
16 -8 3 -15 13 -15 23 0 10 -15 34 -33 53 -17 20 -40 49 -49 65 -22 39 -44 53
-59 38 -13 -13 -31 -78 -148 -528 -45 -171 -84 -316 -86 -324 -13 -34 -25 17
-55 224 -17 121 -51 346 -76 500 -25 154 -45 291 -46 305 0 14 24 79 54 145
30 66 66 147 79 180 13 33 34 76 46 95 28 45 61 140 119 350 45 159 181 622
305 1035 61 200 195 604 261 786 l35 97 -509 593 c-281 327 -594 692 -696 812
-102 119 -189 217 -192 217 -4 0 -110 -109 -236 -242 -126 -133 -274 -290
-330 -348 -275 -288 -424 -446 -426 -452 -3 -8 246 -17 585 -22 120 -2 221 -6
224 -10 3 -3 -32 -45 -78 -93 -47 -49 -127 -135 -179 -193 -52 -58 -151 -166
-220 -240 -69 -75 -176 -193 -239 -263 -81 -91 -119 -126 -130 -122 -9 3 -149
80 -311 169 -162 90 -338 187 -391 215 -92 49 -109 64 -345 302 -137 137 -251
257 -252 265 -7 31 14 34 74 10 96 -38 415 -176 466 -202 26 -13 51 -24 56
-24 4 0 34 42 67 93 32 50 133 207 225 347 92 140 217 334 277 430 173 275
479 754 561 878 41 62 73 115 71 117 -2 2 -24 0 -49 -5 -25 -4 -94 -14 -155
-20 l-110 -12 -106 49 c-100 47 -110 55 -181 137 -65 76 -82 104 -123 204 -26
64 -62 140 -81 170 -28 43 -33 57 -23 68 7 9 20 12 33 8 12 -4 57 -16 101 -26z
m-2339 -1560 c4 -13 70 -87 148 -166 163 -166 155 -158 136 -147 -8 5 8 -16
35 -46 28 -30 96 -103 152 -164 127 -138 203 -233 203 -254 0 -9 -7 -34 -15
-56 -8 -22 -14 -65 -15 -96 0 -31 -9 -85 -19 -120 -29 -93 -67 -265 -115 -513
-28 -144 -47 -222 -57 -228 -8 -4 -59 -25 -114 -47 -59 -22 -134 -62 -182 -95
-86 -59 -104 -83 -55 -73 15 4 61 13 102 22 87 19 194 16 198 -6 1 -8 -16 -36
-39 -64 -23 -27 -51 -73 -64 -100 -12 -28 -61 -120 -110 -205 -48 -85 -101
-180 -118 -210 -16 -30 -85 -149 -152 -265 -68 -115 -148 -253 -178 -305 -30
-52 -96 -151 -146 -219 -50 -69 -91 -132 -91 -140 1 -9 46 -47 102 -86 72 -50
116 -90 156 -140 30 -38 80 -96 111 -128 l56 -58 -27 -22 -27 -22 46 -75 c53
-87 210 -366 295 -524 55 -104 69 -146 49 -146 -19 0 -262 175 -573 412 -43
33 -78 57 -78 55 0 -2 -20 -94 -46 -203 l-45 -199 222 -216 c129 -127 220
-223 217 -230 -8 -25 -49 -21 -112 9 -33 16 -113 54 -176 83 -63 30 -185 92
-270 138 -85 46 -165 87 -178 92 -12 5 -26 19 -32 31 -5 13 -29 147 -54 298
-25 151 -64 389 -87 529 -32 198 -39 258 -30 270 47 64 218 487 413 1021 145
397 191 511 315 772 77 164 70 115 118 758 19 261 42 565 51 675 8 110 18 245
21 300 3 55 10 106 16 113 15 19 35 14 43 -10z m4120 -894 c-4 -14 -9 -24 -12
-21 -3 2 -2 17 2 31 3 15 9 25 11 22 3 -3 2 -17 -1 -32z m53 -501 c6 -269 16
-629 22 -802 l9 -313 -124 -232 c-68 -127 -257 -478 -419 -781 -433 -809 -433
-808 -492 -891 -53 -73 -63 -94 -47 -94 20 0 236 45 391 81 134 32 181 39 205
32 24 -7 46 -31 99 -108 136 -199 396 -599 392 -603 -2 -3 -42 7 -87 21 -46
15 -186 54 -313 87 -126 34 -437 117 -690 184 -253 68 -472 126 -487 130 -17
4 -28 13 -28 23 0 17 123 399 370 1148 244 740 253 769 241 773 -6 2 -36 40
-68 85 -31 45 -111 159 -178 252 -181 253 -225 320 -225 338 0 20 6 20 119 7
47 -5 174 -19 281 -30 229 -25 257 -29 240 -40 -9 -6 -7 -10 8 -14 20 -7 92
-96 92 -115 0 -19 50 -121 60 -121 5 0 10 -8 10 -19 0 -25 28 -49 34 -30 23
76 86 255 136 389 104 277 140 378 199 565 32 99 64 194 73 210 21 40 88 249
88 274 0 23 46 81 64 81 9 0 15 -117 25 -487z m-2276 -420 c3 -10 8 -40 12
-68 3 -27 28 -164 56 -303 53 -273 55 -294 37 -310 -7 -5 -211 -89 -453 -186
-242 -98 -450 -181 -462 -186 l-23 -9 19 -45 c11 -24 67 -147 126 -274 l106
-230 -6 -74 c-9 -115 -43 -657 -60 -943 -8 -143 -18 -277 -21 -297 -5 -34 -3
-39 20 -48 15 -5 29 -18 33 -27 4 -10 33 -47 64 -83 64 -72 185 -297 304 -565
37 -82 71 -155 77 -162 5 -7 8 -20 6 -29 -3 -17 -74 -18 -1261 -18 -728 -1
-1257 3 -1257 8 0 14 33 35 56 36 12 0 36 11 55 25 88 64 594 304 1341 636 97
44 182 79 188 79 5 0 10 2 10 5 0 10 -138 410 -240 695 -56 157 -144 404 -195
550 -51 146 -109 300 -129 342 -37 79 -96 248 -96 274 0 17 148 247 287 447
50 73 134 199 185 280 103 166 156 222 215 232 48 8 403 104 718 194 132 38
250 69 262 70 13 1 24 -6 26 -16z"/>
<path d="M4316 8418 c-2 -7 -11 -46 -20 -86 -9 -40 -32 -107 -51 -150 l-36
-78 36 -134 c20 -74 50 -187 67 -250 35 -134 35 -135 54 -119 26 21 156 210
164 238 8 27 -14 173 -40 274 -11 39 -156 317 -166 317 -3 0 -6 -6 -8 -12z"/>
<path d="M3890 7897 c-25 -23 -108 -96 -185 -162 -169 -146 -332 -292 -340
-305 -4 -6 2 -13 12 -17 10 -3 43 -25 73 -48 30 -23 87 -57 125 -75 178 -83
273 -132 304 -159 19 -17 39 -27 43 -25 5 3 8 108 8 232 -1 125 3 261 9 302
12 87 15 300 4 300 -5 0 -28 -19 -53 -43z m-71 -344 c7 -43 21 -115 31 -161
10 -45 14 -85 9 -88 -8 -5 -186 62 -202 76 -16 14 20 92 77 171 31 44 61 79
65 79 5 0 14 -35 20 -77z"/>
<path d="M3825 6870 c-33 -10 -81 -19 -107 -19 -27 -1 -68 -11 -100 -26 -29
-14 -61 -25 -70 -25 -25 0 -22 -20 8 -54 21 -24 30 -27 58 -22 18 4 44 18 57
32 31 34 77 57 164 83 39 11 79 27 90 35 19 15 19 15 -10 14 -16 0 -57 -8 -90
-18z"/>
<path d="M3861 6735 c-66 -32 -78 -34 -107 -25 -34 12 -107 -1 -119 -20 -8
-13 48 -40 82 -40 29 -1 243 99 243 112 0 15 -26 8 -99 -27z"/>
<path d="M6654 2411 c21 -23 26 -26 26 -11 0 5 -10 15 -22 21 -23 12 -23 12
-4 -10z"/>
</g>
</svg>
