<?xml version="1.0" standalone="no"?>
<!DOCTYPE svg PUBLIC "-//W3C//DTD SVG 20010904//EN"
 "http://www.w3.org/TR/2001/REC-SVG-20010904/DTD/svg10.dtd">
<svg version="1.0" xmlns="http://www.w3.org/2000/svg"
 width="1024" height="1024" viewBox="0 0 1024 1024"
 preserveAspectRatio="xMidYMid meet">
  <rect width="1024" height="1024" fill="white"/>
<metadata>
Created by potrace 1.16, written by Peter Selinger 2001-2019
</metadata>
<g transform="translate(0.000000,1024.000000) scale(0.100000,-0.100000)"
fill="#000000" stroke="none">
<path d="M0 5120 l0 -5120 5120 0 5120 0 0 5120 0 5120 -5120 0 -5120 0 0
-5120z m3310 3930 c-21 -102 -57 -261 -79 -355 -22 -93 -56 -237 -75 -319 -48
-204 -97 -378 -110 -395 -8 -10 -3 -20 20 -40 17 -14 96 -85 175 -157 241
-219 527 -463 715 -609 210 -163 421 -339 553 -459 51 -48 96 -85 98 -82 2 2
-14 28 -36 57 -23 30 -62 95 -87 144 -26 50 -87 159 -137 244 -50 85 -86 156
-81 158 5 2 201 106 436 233 l427 230 368 -199 c203 -109 397 -213 431 -230
34 -17 62 -37 62 -43 0 -7 -33 -71 -74 -143 -40 -71 -97 -174 -125 -228 -29
-53 -72 -123 -96 -155 -24 -31 -42 -59 -40 -61 3 -2 73 57 157 130 243 214
333 288 493 409 179 136 383 308 560 475 72 67 176 164 233 215 56 51 102 96
102 100 0 5 -13 48 -30 97 -74 223 -279 1100 -268 1148 4 16 119 -116 196
-224 31 -42 116 -157 189 -255 144 -191 333 -463 433 -622 34 -54 86 -130 116
-170 l55 -73 -99 -133 c-54 -73 -132 -179 -173 -236 -66 -93 -150 -209 -367
-511 -37 -51 -104 -141 -150 -200 -108 -137 -263 -344 -336 -448 l-57 -82 34
-118 c163 -562 200 -694 225 -799 16 -65 32 -141 36 -169 l6 -50 -108 -72
c-316 -213 -580 -389 -682 -455 l-115 -75 -33 -174 c-19 -96 -36 -182 -38
-191 -5 -17 -68 -61 -213 -150 -35 -22 -159 -89 -275 -150 -116 -60 -215 -114
-220 -119 -35 -34 -12 21 105 249 72 141 156 303 186 360 l55 102 0 133 c1 82
-7 190 -20 287 -12 85 -19 156 -17 158 2 2 59 23 127 46 68 23 204 76 304 116
l181 74 81 171 c44 93 122 258 173 365 51 107 103 212 116 233 13 20 21 37 18
37 -3 0 -70 -38 -148 -84 -78 -47 -212 -123 -297 -171 -189 -105 -864 -445
-884 -445 -8 0 -49 69 -99 167 l-85 167 -60 -127 c-33 -69 -74 -146 -92 -170
l-31 -44 -287 145 c-411 207 -629 323 -854 455 -109 64 -198 113 -198 110 0
-3 29 -60 64 -127 35 -66 121 -245 191 -397 l127 -277 146 -61 c81 -33 226
-88 322 -121 156 -53 175 -62 178 -83 2 -13 -10 -116 -27 -228 -40 -271 -38
-287 47 -449 127 -243 309 -600 305 -600 -2 0 -21 11 -42 24 -21 13 -94 52
-162 86 -194 98 -357 187 -440 242 -67 45 -78 56 -83 87 -3 20 -22 108 -42
197 l-36 160 -147 95 c-262 169 -453 299 -602 411 l-147 109 10 42 c69 313
187 791 233 949 l35 117 -102 148 c-56 81 -170 243 -253 358 -83 116 -216 301
-294 412 -79 111 -228 316 -332 455 -186 249 -188 253 -170 273 11 11 94 133
186 270 157 234 293 425 577 810 169 228 199 267 203 263 2 -2 -14 -87 -35
-188z m-883 -2422 c106 -71 519 -376 618 -456 44 -35 85 -67 92 -69 7 -3 17
-21 24 -41 20 -61 -3 -839 -29 -999 -7 -41 -8 -39 -194 340 -103 210 -241 497
-306 637 -66 140 -143 302 -172 360 -98 195 -141 292 -125 286 8 -3 50 -29 92
-58z m5459 -25 c-19 -43 -63 -136 -99 -208 -35 -71 -105 -220 -155 -330 -49
-110 -185 -390 -300 -623 -200 -402 -210 -421 -216 -385 -13 86 -45 873 -38
968 5 81 28 112 137 184 55 37 190 130 300 207 279 196 378 263 392 263 8 1 0
-28 -21 -76z m-2717 -1215 c24 -51 113 -246 198 -433 85 -187 168 -369 184
-403 16 -35 27 -68 24 -73 -3 -5 -54 -42 -113 -82 -59 -40 -157 -110 -218
-155 -61 -45 -116 -82 -123 -82 -15 0 -451 319 -451 329 0 16 110 261 222 496
63 132 139 297 169 367 30 71 57 128 60 128 3 0 25 -42 48 -92z m-1310 -1346
c74 -114 196 -304 271 -422 134 -211 298 -453 353 -521 l28 -34 -6 55 c-4 30
-17 132 -30 225 -13 94 -27 199 -30 235 l-7 65 23 -21 c13 -12 107 -99 209
-194 l185 -172 119 6 c66 3 190 6 276 6 l157 0 164 150 c90 83 179 166 197
185 29 32 50 46 39 28 -3 -5 -10 -73 -16 -153 -10 -126 -21 -208 -47 -375 l-6
-40 52 70 c69 92 269 394 522 790 113 176 247 383 297 460 l93 140 -6 -100
c-3 -55 -13 -239 -21 -410 -9 -170 -20 -359 -25 -420 l-8 -110 -124 -115 c-67
-63 -271 -261 -453 -440 -291 -286 -339 -338 -404 -435 -154 -230 -534 -755
-541 -748 -4 4 -85 121 -181 258 -398 574 -409 588 -611 780 -101 95 -219 212
-262 260 -43 48 -166 166 -273 262 -156 143 -193 181 -193 202 0 14 -4 76 -10
136 -8 95 -16 231 -45 785 l-6 105 93 -143 c51 -78 153 -235 227 -350z m-667
-158 c-33 -93 -78 -213 -100 -267 l-41 -97 50 -53 c28 -28 85 -92 127 -142 42
-49 142 -164 222 -254 80 -90 186 -212 235 -271 50 -59 140 -164 200 -232 505
-568 984 -1132 1168 -1372 38 -50 72 -92 77 -94 4 -2 18 11 30 27 26 38 391
481 634 772 194 231 292 345 511 594 77 88 183 210 235 271 52 61 223 256 378
434 l284 322 -46 107 c-25 59 -63 159 -85 222 -22 63 -49 135 -60 162 -14 32
-16 47 -8 47 7 0 116 -50 242 -111 127 -61 327 -157 445 -214 257 -122 401
-194 417 -207 12 -10 -3 -23 -542 -462 -88 -72 -252 -207 -365 -301 -430 -357
-849 -700 -1515 -1239 -115 -93 -275 -224 -355 -291 -80 -66 -160 -131 -178
-144 l-34 -23 -36 34 c-20 19 -118 100 -217 180 -224 180 -1030 840 -1225
1003 -170 142 -614 507 -920 756 -469 382 -575 470 -578 480 -4 10 134 78 888
439 107 51 199 97 205 102 22 19 13 -16 -43 -178z"/>
</g>
</svg>
