<?xml version="1.0" standalone="no"?>
<!DOCTYPE svg PUBLIC "-//W3C//DTD SVG 20010904//EN"
 "http://www.w3.org/TR/2001/REC-SVG-20010904/DTD/svg10.dtd">
<svg version="1.0" xmlns="http://www.w3.org/2000/svg"
 width="1024" height="1024" viewBox="0 0 1024 1024"
 preserveAspectRatio="xMidYMid meet">
  <rect width="1024" height="1024" fill="white"/>
<metadata>
Created by potrace 1.16, written by Peter Selinger 2001-2019
</metadata>
<g transform="translate(0.000000,1024.000000) scale(0.100000,-0.100000)"
fill="#000000" stroke="none">
<path d="M0 5120 l0 -5120 5120 0 5120 0 0 5120 0 5120 -5120 0 -5120 0 0
-5120z m4329 3541 c-51 -238 -48 -221 -55 -332 -10 -136 8 -246 54 -334 41
-80 153 -199 271 -287 l74 -56 81 35 c45 19 143 60 219 91 164 67 140 70 408
-44 97 -41 181 -74 187 -74 19 0 188 138 254 208 161 172 190 348 111 700 -49
222 -60 282 -54 281 12 0 185 -209 239 -286 73 -106 145 -254 184 -376 30 -93
33 -113 32 -222 0 -103 -4 -131 -26 -193 -45 -125 -157 -294 -291 -438 -37
-40 -67 -80 -67 -89 0 -27 52 -299 59 -307 3 -4 53 29 111 73 145 111 220 162
220 149 0 -6 -11 -46 -25 -87 -24 -71 -69 -159 -198 -383 l-54 -95 -150 -110
-149 -109 -50 -199 -49 -199 -145 -131 c-80 -72 -186 -171 -237 -218 -50 -48
-108 -99 -127 -114 l-36 -27 -37 32 c-21 18 -142 129 -269 246 l-232 213 -48
197 -49 196 -144 105 c-80 57 -150 112 -157 121 -6 9 -55 95 -108 190 -95 170
-150 289 -163 353 l-6 32 79 -58 c164 -122 259 -186 261 -178 2 5 16 79 32
163 l29 155 -76 80 c-154 160 -259 322 -303 465 -69 223 16 524 231 810 45 60
202 241 206 237 2 -1 -15 -85 -37 -186z m-2997 -304 c480 -278 1473 -864 2060
-1216 70 -42 89 -60 101 -89 14 -35 185 -408 393 -862 l94 -205 85 -60 c46
-33 84 -62 84 -65 1 -6 -215 -104 -479 -218 -125 -54 -207 -95 -229 -116 -18
-17 -123 -143 -233 -279 l-200 -248 -236 230 c-131 126 -307 300 -392 385
-131 132 -151 156 -130 156 83 0 485 79 710 140 161 43 530 162 530 171 0 4
-73 9 -162 13 -90 3 -293 10 -453 16 -159 6 -399 15 -533 19 -134 5 -247 12
-252 17 -4 5 -83 171 -175 369 -92 198 -178 382 -191 409 -13 27 -23 51 -21
52 2 2 68 -17 149 -41 258 -78 545 -148 1018 -249 256 -55 340 -70 347 -63 3
4 4 9 2 10 -21 18 -223 123 -444 231 -278 137 -359 175 -895 419 l-314 143
-74 170 c-40 93 -141 324 -224 514 -173 396 -162 370 -155 370 3 0 101 -55
219 -123z m7799 101 c-11 -29 -97 -225 -294 -677 l-155 -353 -278 -125 c-570
-254 -952 -435 -1217 -574 -156 -83 -175 -94 -165 -105 17 -16 1143 242 1461
335 37 11 67 18 67 16 0 -3 -330 -704 -370 -787 l-23 -46 -81 -6 c-76 -5 -394
-17 -871 -32 -115 -4 -219 -8 -230 -9 -11 -1 -63 -3 -114 -4 -53 0 -91 -5 -85
-10 5 -4 81 -31 169 -59 367 -116 710 -200 1024 -249 l54 -8 -269 -265 c-148
-146 -323 -318 -390 -383 l-120 -117 -153 192 c-84 106 -166 211 -184 233 -82
105 -114 127 -297 205 -96 40 -252 108 -346 150 l-172 76 90 70 90 69 72 155
c40 85 155 333 255 551 l183 396 232 140 c127 77 355 213 506 302 151 90 295
176 320 191 25 15 101 60 170 100 69 40 184 108 255 150 120 71 258 151 695
403 91 52 168 96 172 96 4 1 4 -9 -1 -21z m-4006 -3358 c8 0 159 146 336 325
177 179 328 325 334 325 16 0 621 -258 716 -305 116 -57 183 -110 232 -183 25
-37 87 -128 139 -203 51 -74 189 -274 306 -445 117 -170 278 -402 357 -516 80
-114 145 -212 145 -217 0 -11 -119 -64 -660 -289 -250 -105 -497 -209 -549
-231 -52 -23 -96 -41 -98 -41 -2 0 13 19 35 43 51 55 262 295 333 377 30 36
116 134 189 219 l133 154 -164 161 c-90 89 -208 199 -261 245 -54 45 -131 119
-172 163 -71 76 -75 83 -81 137 -3 31 -9 71 -13 90 l-7 34 -87 -94 c-48 -52
-127 -143 -177 -202 -89 -108 -134 -170 -591 -817 -134 -190 -277 -389 -317
-442 -41 -54 -71 -98 -69 -98 3 0 62 39 131 88 68 48 175 122 237 164 62 42
173 127 246 187 159 132 154 129 148 99 -48 -229 -116 -517 -158 -668 -96
-346 -121 -427 -177 -562 -33 -79 -96 -233 -141 -343 -164 -403 -263 -641
-281 -675 l-17 -35 -15 35 c-34 80 -389 945 -435 1060 -62 151 -193 621 -271
970 -32 140 -56 257 -54 259 2 3 25 -16 51 -41 111 -107 256 -226 377 -308 72
-49 177 -121 233 -160 57 -39 100 -65 96 -58 -5 7 -40 56 -79 108 -87 116
-477 661 -640 895 -148 212 -288 388 -468 590 l-44 50 -13 -102 c-13 -99 -14
-103 -58 -153 -24 -28 -79 -77 -121 -109 -119 -91 -323 -274 -397 -356 -106
-118 -102 -107 -52 -168 23 -28 45 -54 49 -57 6 -5 117 -134 189 -220 114
-137 375 -435 382 -438 4 -2 8 -7 8 -12 0 -4 -69 21 -152 57 -84 36 -189 80
-233 98 -44 18 -235 99 -425 179 -518 220 -497 210 -466 245 7 9 74 104 148
211 313 453 430 624 533 775 181 265 316 459 333 477 10 9 161 78 337 154 504
216 515 221 523 228 4 4 152 -141 330 -323 178 -182 330 -331 337 -331z"/>
<path d="M4514 6984 c-7 -3 11 -58 47 -146 l57 -142 134 -79 c73 -43 138 -84
145 -90 7 -7 15 -54 19 -104 4 -51 10 -93 14 -93 4 0 15 30 24 68 10 37 33
123 52 191 28 99 32 126 22 133 -23 15 -496 268 -499 267 -2 0 -9 -3 -15 -5z"/>
<path d="M5462 6852 c-187 -102 -251 -141 -246 -152 7 -21 42 -146 73 -270 15
-57 30 -100 33 -95 3 6 9 37 12 70 15 132 3 116 161 207 l143 83 56 137 c31
76 56 142 56 148 0 23 -46 2 -288 -128z"/>
</g>
</svg>
