<?xml version="1.0" standalone="no"?>
<!DOCTYPE svg PUBLIC "-//W3C//DTD SVG 20010904//EN"
 "http://www.w3.org/TR/2001/REC-SVG-20010904/DTD/svg10.dtd">
<svg version="1.0" xmlns="http://www.w3.org/2000/svg"
 width="1024" height="1024" viewBox="0 0 1024 1024"
 preserveAspectRatio="xMidYMid meet">
  <rect width="1024" height="1024" fill="white"/>
<metadata>
Created by potrace 1.16, written by Peter Selinger 2001-2019
</metadata>
<g transform="translate(0.000000,1024.000000) scale(0.100000,-0.100000)"
fill="#000000" stroke="none">
<path d="M0 5120 l0 -5120 5120 0 5120 0 0 5120 0 5120 -5120 0 -5120 0 0
-5120z m5192 3787 c20 -12 99 -69 175 -127 76 -57 190 -140 254 -185 324 -225
510 -373 479 -383 -19 -7 -22 -75 -6 -180 16 -105 52 -379 121 -930 50 -389
51 -368 -41 -532 -42 -74 -125 -223 -184 -330 -122 -219 -240 -414 -284 -467
-23 -27 -27 -39 -19 -51 5 -10 8 -33 5 -53 -2 -20 1 -46 8 -58 9 -18 5 -33
-30 -99 -22 -42 -61 -119 -87 -169 -49 -96 -69 -116 -61 -63 5 36 -4 46 -22
25 -16 -19 -40 -20 -40 -1 0 7 9 33 20 58 17 40 90 328 90 358 0 10 -30 12
-135 8 -124 -5 -135 -4 -135 12 0 28 37 67 95 100 31 17 53 36 50 41 -4 5 -25
9 -49 9 -23 0 -67 8 -97 17 -75 23 -259 23 -359 -1 -41 -9 -86 -20 -100 -23
l-25 -5 28 -23 c15 -14 50 -32 78 -42 27 -10 62 -31 77 -47 26 -28 26 -29 2
-13 -33 23 -42 21 -38 -5 l3 -23 -138 4 -138 3 7 -38 c12 -73 63 -279 79 -324
13 -38 14 -46 2 -55 -8 -5 -19 -20 -26 -32 -6 -13 -15 -23 -19 -23 -4 0 -24
33 -44 73 -21 39 -61 107 -89 151 -46 70 -52 86 -56 142 -3 46 0 70 11 85 13
19 13 24 -4 48 -51 73 -202 315 -235 376 -38 69 -125 222 -257 447 l-68 117 0
80 c0 74 41 430 91 781 11 80 35 267 54 415 18 149 38 281 45 295 12 27 23 35
225 173 72 49 162 112 200 141 439 329 465 346 508 346 26 0 56 -9 79 -23z
m-1773 -465 c26 -37 108 -157 181 -267 155 -232 168 -249 186 -234 20 17 52 1
79 -39 31 -45 31 -67 5 -382 -11 -129 -20 -241 -20 -247 0 -33 -19 -7 -40 55
-12 37 -42 113 -66 169 -24 56 -44 106 -44 110 0 5 -13 27 -29 49 -15 21 -37
62 -47 89 -16 42 -19 46 -22 25 -2 -14 4 -75 12 -136 13 -106 19 -121 98 -290
139 -295 148 -325 148 -458 l-1 -61 -30 35 c-16 19 -60 76 -98 125 -38 50 -96
122 -130 160 -35 39 -67 79 -71 90 -5 11 -21 97 -35 190 -13 94 -36 242 -50
330 -14 88 -35 223 -46 300 -17 119 -67 441 -84 540 -4 23 2 16 25 -28 17 -32
53 -89 79 -125z m3472 -43 c-44 -266 -106 -669 -144 -935 l-34 -232 -93 -112
c-98 -117 -168 -212 -197 -267 -18 -35 -28 -41 -36 -20 -9 23 14 241 27 262 8
11 53 104 101 205 84 177 88 190 106 307 10 66 21 138 25 160 8 48 -7 35 -30
-27 -10 -25 -28 -56 -41 -70 -12 -14 -34 -52 -48 -85 -14 -33 -37 -87 -51
-120 -14 -33 -26 -71 -26 -85 0 -34 -17 -59 -28 -43 -5 8 -8 -1 -9 -23 -1 -20
-6 -41 -11 -46 -7 -7 -12 23 -17 89 -3 54 -10 150 -15 213 -6 63 -10 150 -10
193 0 76 1 79 35 115 29 30 37 34 45 22 5 -8 11 -12 13 -10 23 26 457 682 457
691 0 7 3 10 6 7 3 -3 -8 -88 -25 -189z m-4171 -1294 c253 -85 461 -160 489
-174 22 -12 193 -324 444 -811 44 -85 133 -254 197 -375 193 -361 404 -763
460 -875 29 -58 70 -131 92 -163 l40 -58 -39 6 c-29 5 -47 18 -78 53 -56 66
-199 210 -190 192 5 -8 -9 1 -29 20 -40 37 -150 182 -281 369 -44 62 -181 252
-305 420 -124 169 -244 334 -268 367 -24 32 -101 140 -171 239 -70 99 -163
230 -207 290 -78 107 -352 500 -390 560 -19 29 -19 29 1 21 11 -5 117 -41 235
-81z m4979 -2 c-28 -43 -92 -134 -140 -203 -49 -69 -180 -258 -293 -420 -112
-162 -250 -357 -307 -434 -239 -320 -455 -616 -652 -896 -129 -183 -220 -294
-254 -309 -14 -6 -60 -49 -104 -96 -68 -71 -85 -84 -110 -82 -16 1 -29 3 -29
5 0 2 17 34 39 70 21 37 159 301 306 587 360 698 523 1013 610 1175 39 74 102
192 138 261 37 70 75 136 84 148 12 14 94 47 253 102 129 44 296 102 370 128
74 26 137 46 138 45 2 -1 -20 -38 -49 -81z m-2279 -1548 c0 -3 -21 -51 -46
-107 -26 -57 -66 -152 -89 -213 -68 -174 -62 -165 -110 -165 -23 0 -57 -5 -75
-11 -40 -14 -38 -17 -85 119 -20 57 -58 147 -84 200 -27 54 -56 114 -64 134
l-15 36 269 0 c149 0 273 3 276 6 8 7 23 8 23 1z m-2449 -64 c41 -32 113 -87
160 -122 176 -130 318 -239 367 -281 27 -24 105 -87 173 -140 125 -99 243
-207 312 -288 20 -24 37 -45 37 -46 0 -4 -217 -14 -495 -23 -154 -5 -396 -15
-538 -21 -142 -6 -265 -9 -273 -6 -30 12 -31 14 204 -424 99 -184 248 -450
850 -1525 52 -93 111 -194 130 -223 19 -29 33 -55 30 -57 -10 -10 -95 64 -143
126 -27 35 -115 131 -194 214 -79 82 -180 192 -223 242 -44 51 -105 116 -137
145 -32 29 -98 103 -146 163 -49 61 -127 153 -174 205 -102 112 -268 302 -332
380 -145 176 -485 586 -614 739 -58 69 -112 118 -196 180 -234 174 -271 203
-262 211 4 5 53 26 108 48 55 22 228 97 385 166 157 70 359 159 449 199 90 40
223 100 295 134 72 33 136 61 142 62 6 1 45 -26 85 -58z m4560 -32 c484 -213
603 -265 852 -378 148 -67 289 -130 315 -140 l46 -18 -54 -28 c-30 -15 -65
-36 -77 -48 -23 -20 -116 -90 -224 -166 -70 -50 -133 -118 -287 -311 -392
-492 -572 -707 -749 -892 -56 -59 -121 -131 -145 -161 -125 -156 -223 -265
-442 -492 -133 -137 -265 -279 -293 -315 -57 -73 -99 -114 -125 -123 -25 -9
-23 2 10 54 15 24 43 73 61 109 19 36 70 128 114 205 311 547 754 1336 847
1510 29 55 78 144 108 198 30 54 53 99 51 101 -2 2 -229 8 -504 14 -570 14
-696 23 -739 53 -20 15 -37 19 -60 15 l-31 -5 45 37 c24 20 92 78 150 127 103
89 483 394 610 489 100 76 189 145 255 198 33 26 65 48 71 48 6 0 94 -36 195
-81z m-3111 -1099 c12 -7 12 -10 1 -10 -23 0 -3 -52 31 -82 18 -15 62 -39 99
-53 37 -14 74 -34 84 -45 16 -18 16 -20 -5 -47 -44 -57 -228 -261 -337 -374
-62 -64 -113 -122 -113 -128 0 -7 56 -123 124 -259 163 -326 238 -490 231
-503 -4 -5 1 -21 9 -34 15 -23 15 -25 -1 -25 -30 0 -186 170 -607 660 -83 96
-187 216 -232 265 -126 140 -292 342 -347 425 -27 41 -74 100 -104 131 l-55
56 289 8 c158 4 419 10 578 14 160 4 301 8 315 9 14 1 32 -3 40 -8z m2408 -26
l194 -6 -35 -37 c-18 -20 -57 -70 -86 -113 -29 -42 -82 -109 -119 -150 -37
-41 -132 -148 -212 -238 -80 -90 -187 -211 -239 -269 -52 -58 -151 -167 -222
-241 -70 -74 -163 -180 -207 -235 -115 -144 -222 -270 -231 -273 -20 -7 90
275 154 393 23 44 84 163 135 264 78 154 91 187 82 205 -14 31 -102 138 -183
221 -72 75 -259 295 -259 304 1 3 14 15 30 26 151 105 142 96 135 133 l-6 34
438 -6 c241 -3 525 -9 631 -12z m-1617 -139 c41 -49 110 -130 155 -180 70 -78
129 -146 315 -367 l40 -48 -105 -207 c-57 -115 -123 -242 -146 -283 -49 -91
-270 -536 -316 -639 l-33 -75 -12 30 c-23 54 -301 629 -325 669 -12 22 -59
120 -103 217 -43 98 -95 208 -115 245 -35 65 -35 68 -18 87 93 106 286 322
367 411 55 60 124 141 154 178 30 38 57 65 61 60 4 -4 40 -48 81 -98z m-402
-2091 c193 -144 277 -202 284 -195 15 15 44 14 49 -1 6 -17 13 -12 312 214
138 104 271 211 295 236 24 26 41 43 39 37 -3 -5 -133 -224 -288 -485 -156
-261 -306 -514 -334 -562 -28 -48 -54 -87 -58 -85 -4 1 -54 81 -111 177 -213
359 -535 906 -551 938 -16 31 -14 30 36 -17 29 -28 176 -144 327 -257z"/>
<path d="M5786 7690 c-141 -101 -200 -150 -191 -158 3 -3 -29 -28 -70 -56
-117 -80 -224 -158 -294 -214 -84 -68 -116 -69 -192 -11 -196 150 -374 278
-591 426 l-138 94 0 -184 0 -184 58 -38 c31 -22 69 -47 85 -58 27 -18 27 -18
25 4 -6 54 32 27 198 -134 93 -90 192 -183 219 -207 28 -24 52 -47 54 -52 6
-18 -102 -118 -139 -128 -75 -21 -106 -14 -219 53 -174 104 -320 187 -327 187
-2 0 -4 -46 -4 -103 l0 -103 96 -129 95 -130 203 -70 c111 -38 209 -69 218
-67 13 2 238 242 260 275 4 7 14 2 27 -15 45 -57 96 -116 162 -186 l69 -74
203 66 202 66 93 127 92 126 0 103 0 104 -27 -12 c-16 -7 -107 -58 -203 -113
-170 -97 -177 -100 -245 -103 l-71 -4 -58 66 -58 66 104 98 c56 53 149 143
205 199 102 102 143 134 143 113 0 -19 26 -10 93 35 l67 45 0 190 c0 105 -1
190 -2 190 -2 0 -66 -45 -142 -100z"/>
</g>
</svg>
