<?xml version="1.0" standalone="no"?>
<!DOCTYPE svg PUBLIC "-//W3C//DTD SVG 20010904//EN"
 "http://www.w3.org/TR/2001/REC-SVG-20010904/DTD/svg10.dtd">
<svg version="1.0" xmlns="http://www.w3.org/2000/svg"
 width="1024" height="1024" viewBox="0 0 1024 1024"
 preserveAspectRatio="xMidYMid meet">
  <rect width="1024" height="1024" fill="white"/>
<metadata>
Created by potrace 1.16, written by Peter Selinger 2001-2019
</metadata>
<g transform="translate(0.000000,1024.000000) scale(0.100000,-0.100000)"
fill="#000000" stroke="none">
<path d="M0 5120 l0 -5120 5120 0 5120 0 0 5120 0 5120 -5120 0 -5120 0 0
-5120z m1727 4121 c33 -46 110 -179 158 -272 5 -10 13 -19 17 -19 5 0 8 -5 8
-10 0 -6 15 -32 33 -58 18 -26 55 -85 81 -132 81 -143 330 -528 355 -550 15
-12 78 -118 91 -150 7 -19 17 -39 22 -44 15 -18 9 -35 -22 -62 -16 -15 -27
-31 -24 -35 3 -5 -2 -9 -10 -9 -9 0 -16 -3 -16 -7 0 -5 -14 -22 -30 -40 -17
-18 -30 -34 -30 -37 0 -9 -61 -97 -146 -211 -44 -60 -89 -123 -98 -140 -18
-33 -37 -63 -49 -79 -27 -36 -83 -129 -106 -176 -15 -30 -39 -77 -53 -105 -14
-27 -31 -65 -38 -83 -14 -37 -19 -103 -7 -95 12 7 8 -12 -5 -26 -11 -10 -10
-12 2 -9 9 2 14 -4 14 -14 -1 -10 2 -18 8 -18 5 0 7 -4 4 -9 -5 -8 21 -64 55
-118 16 -26 10 -44 -54 -188 l-40 -90 6 -585 7 -585 -168 2 -167 1 -6 204 c-3
111 -9 345 -13 518 -9 416 -11 427 -86 573 -33 64 -60 122 -60 129 0 6 13 32
28 57 16 25 46 85 66 134 l38 87 -27 46 c-15 25 -61 99 -103 163 -43 65 -106
168 -142 230 -36 61 -103 174 -150 250 -47 75 -102 174 -124 218 l-39 80 92
184 c50 101 116 229 146 284 30 55 82 156 116 225 34 69 67 128 72 131 5 4 6
12 3 18 -4 6 -3 11 2 11 6 0 39 57 73 128 35 70 67 129 72 130 4 2 7 8 7 13 0
11 37 70 103 161 48 67 49 68 71 51 12 -9 40 -42 63 -72z m3413 -105 c0 -7 7
-20 17 -27 9 -8 51 -57 93 -109 106 -129 168 -194 214 -225 49 -33 165 -136
316 -281 63 -61 149 -142 190 -180 167 -153 322 -321 414 -447 28 -37 55 -67
61 -67 7 0 12 -6 12 -12 0 -7 16 -48 36 -90 19 -42 38 -92 42 -110 3 -18 29
-105 56 -193 27 -88 61 -198 75 -245 14 -47 36 -119 49 -160 12 -41 37 -124
55 -185 55 -191 161 -517 193 -593 17 -40 30 -81 30 -90 0 -9 3 -19 7 -22 8
-6 50 -135 50 -154 0 -8 6 -26 14 -41 17 -32 5 -86 -25 -118 -10 -12 -19 -25
-19 -30 0 -4 -20 -29 -44 -55 -25 -26 -68 -78 -97 -117 -28 -38 -90 -114 -138
-168 -47 -55 -110 -127 -139 -160 -54 -63 -67 -76 -223 -248 -48 -51 -109
-121 -136 -154 -196 -238 -244 -298 -285 -355 -25 -36 -89 -119 -142 -184 -52
-66 -94 -122 -92 -124 3 -2 37 19 78 47 40 28 129 89 198 135 69 46 136 96
149 110 14 14 32 26 42 26 9 0 22 7 29 15 7 8 19 15 26 15 8 0 14 4 14 9 0 5
13 16 29 24 44 22 207 148 279 215 34 32 64 56 67 54 3 -3 5 1 5 9 0 8 12 22
28 32 27 17 64 49 180 159 48 45 69 59 85 55 12 -3 96 -30 187 -60 91 -31 221
-74 290 -96 69 -23 130 -43 135 -44 38 -13 91 -26 96 -24 3 1 12 -3 20 -9 15
-12 129 -49 142 -46 4 1 7 -3 7 -9 0 -5 4 -8 9 -4 6 3 50 -10 98 -29 48 -19
102 -36 118 -38 29 -3 29 -4 -20 -26 -27 -13 -81 -45 -120 -71 -38 -27 -94
-61 -124 -76 -30 -15 -120 -77 -199 -139 -79 -61 -181 -136 -226 -166 -45 -30
-108 -77 -141 -103 -32 -27 -70 -54 -84 -62 -14 -7 -48 -34 -76 -60 -27 -26
-77 -67 -110 -92 -33 -25 -91 -78 -130 -117 -69 -71 -130 -128 -294 -276 -102
-93 -227 -220 -275 -280 -48 -61 -71 -87 -213 -236 -223 -235 -261 -274 -270
-274 -11 0 -53 -55 -53 -69 0 -5 -8 -12 -17 -16 -10 -3 -31 -23 -48 -45 -16
-21 -34 -39 -38 -40 -4 0 -29 -22 -55 -49 -26 -26 -69 -68 -96 -92 -49 -44
-49 -44 -42 -15 4 16 22 61 40 100 75 159 120 266 152 361 18 55 38 108 44
117 5 10 7 24 4 33 -3 8 -1 15 4 15 6 0 14 10 17 23 4 12 13 36 20 52 31 70
79 185 107 260 17 44 44 109 60 145 17 36 39 92 50 125 11 33 29 77 39 97 10
20 19 40 19 43 0 3 -30 -27 -67 -67 -38 -39 -86 -87 -107 -107 -94 -87 -141
-135 -139 -143 2 -4 -6 -8 -17 -8 -11 0 -20 -6 -20 -14 0 -8 -9 -18 -21 -21
-13 -4 -18 -12 -15 -21 3 -8 2 -12 -4 -9 -15 9 -80 -54 -74 -73 4 -11 3 -13
-3 -5 -6 8 -13 9 -23 2 -13 -8 -13 -10 0 -19 12 -8 11 -10 -7 -10 -23 0 -43
-20 -21 -20 7 -1 -1 -7 -17 -14 -17 -7 -39 -26 -50 -42 -10 -16 -46 -58 -81
-94 -90 -95 -154 -172 -154 -187 0 -7 -44 33 -97 89 -54 57 -126 131 -160 166
-35 35 -63 65 -63 68 0 2 -21 26 -47 54 -27 27 -79 84 -118 126 -68 75 -120
131 -215 228 -51 53 -143 119 -148 106 -5 -15 65 -209 139 -386 39 -93 82
-200 94 -239 55 -168 150 -404 312 -775 13 -29 13 -32 1 -22 -8 6 -18 9 -21 5
-4 -3 -7 -1 -7 6 0 12 -38 55 -165 187 -33 34 -100 106 -150 160 -49 53 -130
136 -179 183 -81 78 -167 176 -223 253 -26 36 -217 241 -291 312 -132 127
-328 323 -442 442 -122 127 -194 194 -282 262 -24 19 -68 57 -98 86 -30 28
-90 78 -134 111 -113 86 -299 267 -363 353 -75 102 -76 106 -22 115 13 3 53
15 89 27 36 13 74 24 85 26 11 2 99 23 195 48 96 24 212 51 256 59 79 15 190
60 247 99 15 11 31 18 37 16 5 -2 37 -30 72 -63 35 -33 86 -80 113 -104 28
-24 73 -65 100 -90 106 -97 194 -170 294 -241 124 -90 156 -113 197 -143 17
-12 76 -53 130 -90 54 -37 134 -92 177 -122 42 -30 77 -53 77 -50 0 2 -13 19
-29 37 -30 34 -80 98 -179 228 -103 135 -304 385 -322 400 -9 8 -41 42 -70 75
-30 33 -108 117 -174 188 -66 70 -125 135 -130 145 -5 9 -35 49 -66 87 -162
200 -346 445 -371 495 l-28 56 21 65 c11 35 33 98 48 139 16 41 53 147 84 235
30 88 75 219 100 290 51 144 58 165 146 445 141 444 170 530 193 576 13 27 28
64 32 82 10 49 73 118 289 322 109 102 236 230 283 285 47 55 98 107 112 116
33 20 186 163 313 294 54 55 138 141 187 190 48 50 103 111 121 138 34 47 50
58 50 33z m-3278 -4256 c61 -23 168 -103 175 -131 3 -10 8 -19 12 -19 4 0 7
-10 8 -22 1 -11 7 -24 14 -28 6 -4 8 -13 5 -19 -4 -6 -4 -11 1 -11 4 0 8 -15
7 -32 -1 -22 -6 -34 -17 -36 -22 -4 -22 -22 -1 -22 13 0 14 -3 5 -14 -10 -11
-8 -17 6 -25 14 -8 15 -11 3 -11 -10 -1 -9 -4 5 -10 11 -5 14 -9 7 -9 -7 -1
-10 -5 -7 -11 3 -5 1 -19 -6 -31 -6 -12 -7 -19 -1 -15 5 3 10 -6 10 -19 0 -14
-5 -25 -10 -25 -6 0 -5 -7 2 -15 10 -12 10 -15 -1 -15 -10 0 -11 -3 -3 -8 16
-10 35 -80 23 -84 -6 -2 -11 -13 -12 -25 -1 -15 -5 -19 -13 -13 -6 6 -14 8
-17 5 -4 -3 -5 -2 -2 2 8 10 -44 33 -62 26 -10 -4 -14 -2 -10 4 4 6 -10 10
-34 11 -23 1 -45 4 -49 7 -5 3 -11 1 -14 -3 -3 -5 -38 -10 -78 -12 -40 -2 -87
-4 -104 -5 -25 -1 -45 -16 -96 -71 -35 -38 -87 -99 -115 -136 -62 -79 -171
-188 -187 -185 -18 3 -62 68 -84 122 -29 71 -90 279 -103 348 -12 67 -71 237
-99 284 l-19 32 72 21 c137 40 382 118 470 149 92 34 220 70 249 70 10 1 41
-8 70 -19z m658 -850 c18 -18 18 -20 3 -21 -14 0 -12 -3 5 -10 21 -8 50 -35
122 -115 10 -11 46 -35 81 -53 34 -18 74 -44 89 -59 46 -45 130 -123 240 -222
115 -103 141 -137 105 -137 -8 0 -15 7 -16 16 0 9 -3 11 -5 4 -3 -6 -16 -9
-30 -7 -18 3 -23 1 -18 -7 5 -9 2 -10 -9 -6 -10 3 -17 2 -17 -3 0 -17 -40 -51
-52 -44 -7 5 -9 0 -6 -14 4 -12 2 -20 -3 -16 -5 3 -14 2 -20 -2 -8 -4 -7 -9 2
-15 10 -6 10 -9 2 -9 -7 0 -10 -7 -7 -15 4 -10 0 -15 -12 -15 -9 0 -15 -3 -11
-6 3 -4 0 -21 -8 -39 -7 -19 -11 -35 -9 -38 3 -3 -7 -18 -21 -33 -17 -19 -25
-36 -22 -51 2 -12 1 -20 -3 -18 -5 3 -11 -2 -14 -11 -3 -8 -2 -13 3 -10 5 4 7
-3 4 -14 -3 -11 -9 -18 -13 -15 -12 8 -19 -49 -8 -63 8 -9 7 -11 -7 -6 -13 5
-16 4 -11 -5 4 -6 3 -17 -2 -24 -5 -7 -18 -39 -27 -72 -10 -33 -24 -75 -32
-93 -8 -17 -16 -45 -18 -62 -2 -16 -6 -38 -10 -49 -8 -26 -36 -181 -36 -203 0
-10 -5 -18 -10 -18 -6 0 -10 -10 -9 -22 4 -46 0 -78 -10 -78 -17 0 -99 113
-140 194 -22 42 -46 86 -55 99 -8 12 -15 28 -15 37 0 8 -10 33 -21 55 -88 162
-334 652 -334 665 0 3 -3 10 -7 16 -4 6 -9 22 -12 37 -4 22 -1 27 15 27 13 0
27 17 47 60 16 33 33 56 37 52 5 -4 5 1 2 11 -4 9 -3 17 1 17 8 0 42 69 42 85
0 4 8 15 19 24 10 9 21 26 25 39 4 12 11 20 16 17 5 -3 11 8 15 25 4 16 10 30
14 30 3 0 15 16 26 36 11 20 35 58 55 84 19 26 42 57 50 69 18 26 16 25 40 1z
m-716 -49 c42 -35 46 -68 46 -355 0 -152 3 -276 8 -276 9 0 7 -82 -3 -170 -9
-72 -9 -2242 -1 -2268 5 -15 -11 -17 -167 -17 l-172 0 3 609 c2 354 7 617 13
627 5 11 9 358 9 871 l0 853 22 30 c48 67 124 112 184 110 24 -1 50 -7 58 -14z
m6123 -4 c12 -7 40 -41 64 -77 142 -218 578 -866 712 -1060 44 -63 104 -153
133 -200 29 -47 66 -106 83 -132 16 -27 28 -48 25 -48 -2 0 -22 11 -43 25 -22
13 -51 27 -65 31 -14 3 -30 12 -37 20 -6 8 -16 14 -22 14 -5 0 -33 11 -61 24
-61 28 -109 48 -116 48 -3 0 -7 3 -10 7 -7 10 -187 96 -390 188 -30 14 -83 38
-116 54 -34 16 -67 29 -72 29 -6 0 -18 7 -27 17 -14 14 -18 14 -26 2 -5 -8 -7
-29 -5 -48 2 -20 -8 -62 -25 -108 -16 -41 -26 -79 -23 -85 4 -6 3 -8 -3 -5 -6
4 -10 -7 -11 -25 0 -17 -5 -34 -9 -37 -5 -3 -10 -22 -11 -41 -2 -19 -10 -60
-18 -92 -8 -31 -15 -68 -16 -82 -1 -14 -6 -26 -10 -26 -4 0 -7 -3 -6 -7 1 -5
-1 -21 -5 -38 -11 -44 -16 -75 -23 -125 -3 -25 -9 -49 -12 -55 -4 -5 -9 -28
-12 -50 l-5 -39 -35 69 c-19 39 -38 72 -41 75 -4 3 -8 10 -8 15 -3 20 -43 120
-54 133 -6 8 -12 19 -14 26 -1 6 -6 25 -9 41 -4 17 -16 45 -26 64 -10 18 -17
36 -13 39 3 3 5 -1 5 -8 0 -7 2 -11 5 -8 7 7 -5 39 -14 34 -3 -2 -7 10 -8 27
-2 18 -7 33 -12 35 -6 2 -8 9 -5 16 3 7 -9 46 -26 87 -17 41 -44 115 -61 164
-17 50 -35 101 -41 115 -6 14 -15 34 -19 45 -5 11 -23 60 -40 109 -56 161
-141 371 -157 389 -15 17 -15 20 8 38 14 10 28 19 32 19 9 0 56 32 129 88 31
23 61 42 67 42 7 0 12 6 12 14 0 8 6 16 14 19 8 3 68 47 134 97 112 84 190
129 236 137 11 2 22 6 25 8 9 9 56 4 78 -8z m-1547 -1348 c-6 -24 -21 -71 -34
-104 -66 -167 -92 -238 -161 -440 -42 -121 -86 -254 -99 -295 -32 -102 -93
-270 -100 -278 -3 -3 -6 -18 -6 -33 0 -15 -5 -31 -11 -34 -6 -4 -8 -13 -5 -20
2 -7 -1 -18 -7 -24 -6 -6 -8 -11 -5 -11 4 0 0 -16 -8 -36 -24 -57 -84 -297
-91 -364 l-6 -60 -691 0 c-380 0 -697 4 -705 9 -7 5 -11 14 -7 20 4 6 2 20 -4
31 -6 11 -13 36 -16 56 -2 19 -8 43 -13 52 -5 9 -9 19 -9 22 -1 6 3 -7 -70
225 -33 105 -68 217 -77 250 -9 33 -32 105 -51 160 -18 55 -42 137 -53 181
-17 67 -54 174 -96 279 -11 26 -10 22 -19 78 -4 26 -12 47 -18 47 -6 0 -9 3
-6 6 3 3 -4 38 -16 77 -13 40 -26 83 -30 97 -7 22 -4 21 32 -14 23 -21 46 -52
53 -67 6 -16 15 -29 19 -29 4 0 60 -53 126 -118 65 -65 148 -142 183 -172 35
-30 73 -64 85 -75 12 -11 41 -36 66 -55 25 -19 59 -49 75 -66 17 -17 38 -33
48 -37 9 -3 17 -13 17 -22 0 -8 9 -15 19 -15 11 0 22 -9 26 -19 3 -11 14 -23
24 -26 10 -3 23 -17 30 -31 6 -14 15 -23 20 -19 10 6 51 -46 51 -64 0 -6 3
-10 8 -10 18 3 32 -2 32 -12 0 -14 57 -68 65 -61 5 5 9 -23 6 -41 -1 -5 3 -6
8 -3 5 4 12 -2 16 -13 3 -10 17 -22 31 -25 14 -4 22 -11 19 -16 -3 -5 -13 -6
-22 -3 -15 6 -16 5 -3 -9 8 -8 22 -13 32 -10 10 2 18 -1 18 -7 0 -7 -5 -9 -11
-5 -7 4 -10 1 -7 -7 3 -8 15 -14 28 -14 31 -1 39 -25 8 -26 l-23 -2 23 -4 c14
-3 22 -12 22 -24 0 -11 5 -17 10 -14 6 3 10 -4 11 -17 0 -13 3 -17 6 -10 7 18
23 4 17 -16 -5 -14 -4 -15 5 -2 6 8 14 15 18 15 4 0 7 6 5 13 -2 6 2 12 8 12
6 0 8 5 4 11 -4 8 1 9 16 4 21 -7 22 -5 18 20 -4 21 -1 29 13 32 11 3 19 10
19 15 0 6 18 28 40 50 23 21 38 43 35 48 -3 6 3 10 13 10 15 0 19 5 15 21 -4
14 -1 20 8 19 25 -4 39 0 39 10 0 5 16 38 36 72 20 35 33 52 30 39 l-5 -23 20
21 c11 12 17 26 14 31 -3 6 -1 10 5 10 7 0 9 7 6 16 -3 8 -2 13 2 11 4 -3 18
0 32 5 20 7 22 11 10 18 -8 5 -12 10 -7 11 4 1 11 2 15 3 9 1 46 36 39 36 -9
0 267 274 324 321 30 26 90 80 132 120 41 41 84 81 94 90 10 9 33 33 52 53 19
20 38 36 42 36 5 0 6 7 3 15 -4 8 -2 15 3 15 10 0 93 78 93 87 0 7 54 70 58
67 2 -1 -2 -22 -8 -45z m2000 -333 c36 -15 88 -38 115 -50 56 -25 101 -44 190
-77 94 -34 99 -36 126 -47 14 -5 51 -15 82 -22 32 -6 100 -31 151 -55 l94 -44
32 -83 c28 -75 153 -341 200 -428 34 -63 122 -245 125 -260 2 -8 22 -54 44
-101 23 -48 41 -90 41 -95 0 -4 -28 19 -63 52 -134 126 -344 302 -445 371 -39
27 -186 120 -250 158 -236 140 -306 136 -356 -23 -13 -42 -40 -153 -61 -247
-20 -93 -43 -195 -52 -225 l-17 -55 -7 35 c-14 72 -136 372 -191 468 -35 62
-36 44 11 316 34 192 49 258 81 348 11 32 20 71 20 88 l0 30 33 -13 c17 -8 61
-26 97 -41z m-3007 -671 c-3 -9 -8 -14 -10 -11 -3 3 -2 9 2 15 9 16 15 13 8
-4z"/>
<path d="M1663 8448 c1 -7 -4 -12 -12 -10 -8 2 -11 -3 -8 -12 4 -9 -4 -27 -18
-42 -14 -15 -25 -32 -25 -38 0 -6 -16 -26 -35 -43 -19 -18 -35 -40 -35 -49 0
-10 -5 -14 -16 -10 -9 4 -13 2 -8 -5 4 -6 0 -15 -7 -20 -8 -4 -15 -12 -15 -16
-6 -35 -19 -53 -38 -53 -21 -1 -21 -1 -2 -15 18 -14 18 -15 2 -15 -9 0 -14 -4
-11 -10 3 -5 1 -10 -4 -10 -6 0 -11 -7 -11 -15 0 -8 -5 -15 -10 -15 -6 0 -10
-3 -9 -7 3 -18 -14 -52 -23 -47 -12 7 -3 -71 12 -111 18 -47 81 -147 119 -188
20 -21 42 -49 51 -61 38 -57 96 -116 113 -116 10 0 16 3 14 8 -5 9 29 42 36
35 8 -8 27 34 19 42 -4 5 -2 5 4 2 7 -4 19 7 28 28 10 19 28 46 41 60 14 13
25 29 25 35 0 6 5 8 10 5 6 -3 10 1 10 9 0 9 7 16 16 16 9 0 14 5 12 12 -2 6
3 20 11 29 33 37 41 49 41 62 0 7 11 19 24 27 32 16 51 88 34 124 -6 15 -15
26 -21 26 -5 0 -6 7 -3 16 3 8 2 13 -3 9 -13 -8 -43 24 -34 38 4 6 0 8 -10 4
-11 -4 -17 -1 -17 8 0 8 -6 15 -13 15 -7 0 -23 18 -37 40 -14 22 -29 40 -35
40 -6 0 -42 52 -80 115 -63 104 -89 137 -82 103z"/>
<path d="M5085 8410 c-19 -36 -37 -56 -182 -205 -62 -63 -117 -124 -123 -135
-6 -11 -15 -18 -19 -15 -5 3 -11 -2 -15 -10 -3 -8 -13 -15 -22 -15 -10 0 -14
-5 -10 -16 3 -8 2 -12 -4 -9 -11 7 -37 -5 -42 -20 -2 -5 -6 -9 -10 -7 -5 1 -8
-4 -8 -12 0 -8 -9 -18 -20 -21 -11 -3 -20 -13 -20 -20 0 -8 -6 -12 -14 -9 -9
3 -13 -1 -13 -13 1 -10 -4 -17 -10 -15 -7 1 -13 -2 -13 -8 0 -5 -7 -10 -15
-10 -8 0 -15 -4 -15 -9 0 -5 -20 -31 -44 -58 -84 -92 -123 -138 -181 -218 -32
-44 -77 -102 -101 -130 -35 -42 -143 -212 -167 -265 -4 -8 -16 -28 -26 -45
-11 -16 -20 -38 -20 -47 -1 -10 -5 -18 -10 -18 -5 0 -13 -17 -19 -37 -18 -70
-132 -370 -176 -468 -8 -16 -17 -39 -21 -50 -4 -11 -22 -60 -40 -110 -18 -49
-41 -112 -51 -140 -9 -27 -23 -63 -31 -80 -7 -16 -31 -77 -53 -134 -31 -80
-38 -107 -29 -117 6 -8 17 -14 25 -14 7 0 17 -6 21 -13 4 -7 28 -28 53 -47 44
-34 203 -191 309 -306 30 -33 84 -90 120 -129 37 -38 77 -83 89 -100 13 -16
49 -57 80 -90 32 -33 93 -105 136 -160 44 -55 105 -129 136 -165 31 -36 101
-128 156 -205 54 -77 144 -197 199 -267 207 -263 250 -319 253 -328 5 -13 22
-13 22 0 0 5 21 46 48 92 26 46 57 104 69 129 12 25 50 82 85 125 145 182 223
283 269 350 32 46 93 121 258 317 24 29 68 78 97 111 30 32 54 63 54 68 0 5 4
7 9 4 5 -3 12 4 15 17 3 12 21 33 40 47 19 14 33 28 33 32 -2 8 64 68 76 68 4
0 7 6 8 13 0 6 24 32 54 57 29 25 58 55 65 67 7 12 16 21 19 20 4 -1 27 18 53
43 25 25 61 59 79 75 19 17 40 41 48 52 8 12 18 20 23 17 4 -3 11 2 14 10 3 8
14 18 25 21 10 4 19 13 19 21 0 8 7 14 15 14 8 0 15 6 15 14 0 8 8 17 19 21
18 5 18 7 0 68 -10 34 -24 70 -29 80 -6 10 -19 44 -30 75 -25 79 -74 209 -95
257 -10 22 -19 42 -19 45 -1 3 -6 19 -13 35 -6 17 -21 57 -33 90 -12 33 -43
104 -68 159 -45 98 -93 225 -114 301 -6 22 -20 56 -31 75 -11 19 -37 68 -59
109 -21 40 -50 91 -64 112 -13 21 -24 41 -24 44 0 7 -31 44 -52 64 -10 8 -18
24 -18 34 0 10 -4 16 -8 13 -5 -3 -16 8 -26 25 -9 16 -21 29 -26 29 -5 0 -16
13 -25 29 -8 16 -22 36 -31 45 -9 9 -35 42 -58 74 -67 90 -352 388 -456 476
-113 95 -210 191 -235 230 -16 25 -35 46 -42 46 -7 0 -20 -14 -28 -30z m239
-796 c111 -128 325 -344 341 -344 8 0 15 -6 15 -14 0 -8 5 -18 12 -22 7 -5 9
-2 4 7 -4 8 -1 6 7 -3 8 -10 19 -18 24 -18 6 0 16 -7 24 -16 15 -19 4 -28 -53
-44 -21 -6 -38 -15 -38 -21 0 -6 -4 -8 -9 -5 -10 7 -61 -16 -61 -27 0 -5 -4
-6 -9 -2 -5 3 -12 -3 -16 -14 -3 -12 -19 -21 -40 -25 -19 -4 -35 -10 -35 -14
0 -4 -13 -22 -30 -40 -16 -18 -30 -31 -30 -28 0 2 -13 -9 -30 -26 -16 -16 -30
-34 -30 -39 0 -5 -6 -9 -13 -9 -7 0 -23 -13 -35 -30 -19 -25 -21 -35 -13 -69
5 -22 6 -43 3 -46 -4 -3 0 -10 8 -15 13 -9 13 -10 0 -10 -13 0 -13 -1 0 -10 8
-5 10 -10 3 -10 -6 0 -10 -8 -8 -17 2 -10 4 -24 4 -31 1 -7 6 -10 11 -7 6 3
10 -1 10 -9 0 -9 -4 -16 -8 -16 -4 0 -8 -9 -8 -20 0 -11 3 -20 6 -20 3 0 5
-20 5 -44 0 -25 3 -48 7 -51 9 -9 53 16 133 76 125 93 187 122 288 132 16 2
33 10 39 18 8 12 10 12 15 0 4 -10 7 -11 13 -1 7 12 130 43 138 36 9 -10 -25
-153 -58 -241 -61 -163 -107 -246 -264 -470 -27 -38 -52 -72 -56 -75 -3 -3
-28 -33 -54 -68 -73 -96 -118 -147 -232 -263 -57 -58 -101 -109 -97 -112 3 -4
0 -7 -8 -7 -11 0 -11 -2 1 -10 8 -5 10 -10 4 -10 -6 0 -16 -12 -23 -27 -8 -17
-15 -23 -19 -15 -5 7 -12 0 -21 -19 -7 -16 -16 -29 -19 -29 -13 0 -72 58 -72
69 0 7 -11 23 -25 36 -13 14 -22 25 -20 25 3 0 -35 40 -83 88 -48 48 -121 130
-162 181 -41 52 -88 110 -105 130 -43 52 -75 99 -75 110 0 6 -6 14 -12 18 -50
32 -219 334 -256 458 -27 88 -62 216 -62 226 0 2 12 5 27 6 19 1 22 -1 12 -8
-10 -6 -8 -9 11 -10 44 -3 75 -6 83 -9 4 -1 12 -4 17 -5 6 -1 11 -3 13 -5 3
-2 37 -10 70 -15 16 -2 25 0 22 5 -4 6 -1 10 4 10 6 0 11 -7 11 -15 0 -13 4
-14 20 -5 14 8 19 8 18 0 -2 -6 22 -21 53 -33 30 -13 101 -58 156 -99 56 -42
104 -74 107 -71 3 4 6 0 6 -8 0 -12 2 -12 10 1 6 9 5 17 -3 22 -9 6 -8 8 2 8
11 0 11 3 1 15 -7 9 -8 15 -2 15 6 0 8 12 6 28 -6 40 -6 102 1 146 9 67 16 99
20 107 3 4 1 9 -4 11 -5 1 -11 18 -13 36 -2 18 -9 36 -14 40 -6 4 -13 15 -17
25 -3 9 -14 17 -22 17 -9 0 -14 4 -11 9 8 12 -21 34 -33 27 -6 -4 -8 2 -6 14
5 24 -12 27 -18 3 -3 -13 -6 -11 -12 10 -5 18 -12 26 -21 23 -8 -3 -14 1 -14
10 0 11 -6 14 -16 10 -8 -3 -13 -2 -10 2 8 13 -49 42 -72 37 -11 -2 -23 3 -26
11 -3 7 -12 11 -21 8 -8 -3 -15 -1 -15 5 0 6 -7 8 -17 4 -11 -4 -14 -3 -9 5 4
7 1 12 -6 12 -19 0 -68 23 -68 32 0 4 8 9 18 12 9 3 40 26 67 52 28 25 62 53
76 62 14 9 50 44 80 78 30 33 84 86 121 117 36 31 68 60 70 64 1 5 49 48 105
97 57 49 110 100 119 114 l17 25 56 -59 c31 -33 87 -96 125 -140z m461 -884
c-3 -5 -11 -10 -16 -10 -6 0 -7 5 -4 10 3 6 11 10 16 10 6 0 7 -4 4 -10z"/>
</g>
</svg>
