<?xml version="1.0" standalone="no"?>
<!DOCTYPE svg PUBLIC "-//W3C//DTD SVG 20010904//EN"
 "http://www.w3.org/TR/2001/REC-SVG-20010904/DTD/svg10.dtd">
<svg version="1.0" xmlns="http://www.w3.org/2000/svg"
 width="1024" height="1024" viewBox="0 0 1024 1024"
 preserveAspectRatio="xMidYMid meet">
  <rect width="1024" height="1024" fill="white"/>
<metadata>
Created by potrace 1.16, written by Peter Selinger 2001-2019
</metadata>
<g transform="translate(0.000000,1024.000000) scale(0.100000,-0.100000)"
fill="#000000" stroke="none">
<path d="M0 5120 l0 -5120 5120 0 5120 0 0 5120 0 5120 -5120 0 -5120 0 0
-5120z m6405 3510 c342 -184 568 -310 605 -340 40 -32 71 -105 170 -394 88
-261 123 -392 117 -432 -6 -36 -17 -56 -236 -434 -244 -420 -275 -462 -548
-746 -132 -137 -255 -266 -272 -286 -39 -44 -57 -46 -126 -14 -60 27 -335 186
-530 304 -77 47 -237 143 -355 215 l-215 129 -170 -21 c-93 -11 -222 -26 -286
-32 l-115 -12 -95 73 c-145 113 -224 176 -348 279 l-113 93 39 22 c21 13 125
67 231 121 l192 99 198 -97 c175 -86 210 -100 316 -122 66 -14 122 -24 127
-23 6 3 -308 287 -356 322 -11 8 -18 16 -15 18 3 3 110 14 238 26 289 26 286
27 366 -87 109 -153 425 -511 602 -681 117 -112 203 -184 211 -177 3 3 -12 28
-34 54 -46 55 -195 262 -270 373 -169 254 -323 546 -323 615 0 50 56 167 267
563 98 183 132 256 123 262 -6 4 -76 24 -155 45 -78 20 -148 40 -154 45 -13 7
4 18 397 261 l223 137 42 -23 c23 -12 137 -73 252 -135z m-4630 -490 c77 -5
196 -12 265 -16 l125 -7 165 -126 c168 -128 369 -285 540 -421 52 -42 174
-137 270 -210 243 -186 830 -653 1370 -1091 210 -170 364 -286 525 -399 66
-46 150 -105 187 -132 l67 -49 34 38 c19 21 69 80 112 131 83 100 116 128 137
116 27 -15 188 -138 188 -144 0 -7 -343 -437 -533 -667 -129 -156 -152 -180
-166 -170 -87 64 -211 160 -211 163 0 2 51 64 113 137 118 139 139 165 118
153 -6 -4 -28 5 -49 22 -20 16 -104 75 -187 132 -155 108 -282 198 -715 510
-140 101 -318 229 -395 283 -77 55 -171 124 -210 152 -154 113 -665 474 -1276
900 l-397 277 -98 116 c-55 64 -136 160 -181 214 -46 54 -83 100 -83 103 0 3
33 3 73 0 39 -3 135 -9 212 -15z m5325 -1550 c43 -31 108 -104 119 -132 6 -15
13 -105 17 -199 7 -162 6 -172 -10 -166 -10 4 -120 -5 -244 -19 -258 -29 -424
-45 -429 -41 -1 2 50 66 114 143 64 76 161 195 216 264 158 198 153 195 217
150z m-3791 -172 c162 -117 376 -279 379 -287 1 -4 -102 -37 -230 -72 l-233
-64 -145 -104 c-146 -105 -607 -446 -625 -462 -12 -12 48 -135 132 -267 l66
-104 -23 -142 -22 -143 -63 -31 -63 -31 -32 128 c-29 118 -35 133 -80 187 -27
33 -52 59 -57 59 -4 0 -43 -13 -86 -29 l-77 -29 -49 -91 c-27 -50 -68 -127
-92 -171 l-42 -80 63 -138 c34 -76 61 -139 59 -142 -2 -2 -36 -6 -74 -10 -67
-7 -73 -6 -103 20 -36 31 -252 337 -252 358 0 22 110 418 122 441 9 17 339
414 869 1047 l147 175 169 18 c92 10 170 20 172 22 2 2 22 4 44 4 33 0 55 -11
126 -62z m4818 -810 c63 -69 67 -129 18 -287 -20 -63 -34 -118 -33 -122 2 -4
30 13 63 37 33 25 92 62 130 81 39 20 104 55 146 79 99 57 155 77 180 64 10
-6 38 -36 61 -68 24 -31 47 -60 53 -64 9 -7 -35 -28 -58 -28 -7 0 -86 -38
-177 -84 -151 -79 -223 -127 -208 -141 4 -5 462 -55 501 -55 4 0 7 -45 7 -100
0 -112 3 -108 -77 -90 -23 6 -113 17 -200 25 -87 8 -174 18 -193 21 -32 5 -27
1 42 -46 106 -71 207 -158 242 -207 29 -42 29 -42 12 -80 -9 -21 -25 -49 -36
-63 l-19 -25 -78 54 c-43 30 -110 78 -149 107 l-71 53 -119 -20 c-65 -12 -153
-22 -194 -23 -71 -1 -86 3 -305 86 -189 71 -309 119 -442 175 -22 9 -98 133
-167 270 l-66 133 41 29 c74 54 125 65 283 58 84 -4 188 -16 256 -30 l115 -23
-97 -24 c-54 -13 -98 -27 -98 -32 0 -4 24 -14 53 -23 48 -14 323 -75 338 -75
3 0 21 46 39 103 18 56 50 148 72 204 58 150 89 181 135 131z m-3772 -140
c105 -120 222 -248 438 -477 59 -63 106 -115 105 -116 -2 -2 -30 1 -63 6 -33
5 -150 18 -260 29 -205 21 -445 57 -457 69 -4 3 22 141 58 305 35 165 64 301
64 303 0 10 17 -8 115 -119z m1586 -133 c188 -87 258 -125 259 -137 0 -9 -5
-40 -11 -68 -10 -45 -18 -57 -82 -111 -81 -68 -256 -189 -273 -189 -7 0 -45
31 -85 68 -67 61 -205 178 -287 242 l-32 25 118 147 c64 80 121 146 126 144 4
-1 125 -56 267 -121z m-1467 -630 c231 -35 464 -69 516 -76 52 -6 99 -14 103
-18 15 -15 -117 -110 -297 -215 -197 -116 -961 -507 -1197 -615 -309 -140
-302 -138 -620 -150 -535 -20 -664 -23 -654 -13 6 5 165 78 355 161 190 84
433 195 540 248 187 92 197 98 255 163 33 38 164 183 290 323 196 218 234 256
259 256 15 1 218 -28 450 -64z m1206 -195 c318 -45 606 -122 905 -241 255
-101 687 -342 668 -372 -4 -7 -89 -136 -188 -287 l-181 -276 -100 -36 c-54
-20 -182 -67 -284 -103 -426 -153 -650 -253 -815 -363 -139 -92 -156 -110
-166 -167 -4 -28 -8 -153 -8 -280 -1 -126 -4 -328 -8 -447 l-6 -217 -83 117
c-105 149 -301 463 -443 709 l-110 193 47 27 c156 90 384 256 557 406 112 96
321 305 411 410 57 66 54 65 433 203 l245 89 -965 5 c-530 3 -966 7 -967 8 -2
1 11 20 28 43 52 65 197 185 480 399 l265 199 75 1 c41 0 136 -9 210 -20z
m-1685 -1142 c-8 -36 -17 -61 -159 -412 -53 -132 -106 -252 -119 -268 -14 -18
-101 -68 -247 -141 -359 -181 -1203 -651 -1535 -855 -49 -30 -144 -92 -210
-136 -66 -45 -124 -83 -129 -85 -8 -3 95 134 168 224 43 52 654 750 845 965
61 69 137 162 169 206 54 78 59 82 103 88 25 3 99 21 165 39 l119 33 45 86 45
86 190 47 c104 25 267 70 360 100 94 29 176 54 183 54 10 1 12 -8 7 -31z"/>
<path d="M5932 7695 l-134 -265 43 -83 c142 -277 262 -472 510 -830 3 -5 30 7
60 26 30 18 62 37 73 40 10 4 61 32 112 62 75 45 103 68 147 124 85 108 217
312 315 483 89 156 90 158 78 195 -60 190 -140 429 -145 434 -3 4 -107 14
-231 23 -124 10 -321 26 -439 36 -118 11 -224 20 -235 20 -17 0 -44 -46 -154
-265z m240 -60 c34 -14 78 -25 98 -25 20 0 66 -15 105 -33 39 -19 88 -40 110
-47 54 -17 59 -23 38 -47 -23 -25 -188 -102 -235 -109 -34 -6 -36 -5 -68 52
-19 33 -58 87 -88 122 -50 57 -54 65 -44 87 7 14 14 25 17 25 3 0 33 -11 67
-25z m822 -47 c16 -38 13 -49 -51 -164 -26 -46 -53 -84 -60 -84 -40 0 -226
130 -210 146 9 10 284 134 295 134 7 0 19 -14 26 -32z"/>
</g>
</svg>
