<?xml version="1.0" standalone="no"?>
<!DOCTYPE svg PUBLIC "-//W3C//DTD SVG 20010904//EN"
 "http://www.w3.org/TR/2001/REC-SVG-20010904/DTD/svg10.dtd">
<svg version="1.0" xmlns="http://www.w3.org/2000/svg"
 width="1024" height="1024" viewBox="0 0 1024 1024"
 preserveAspectRatio="xMidYMid meet">
  <rect width="1024" height="1024" fill="white"/>
<metadata>
Created by potrace 1.16, written by Peter Selinger 2001-2019
</metadata>
<g transform="translate(0.000000,1024.000000) scale(0.100000,-0.100000)"
fill="#000000" stroke="none">
<path d="M0 5120 l0 -5120 5120 0 5120 0 0 5120 0 5120 -5120 0 -5120 0 0
-5120z m7410 2796 l265 -304 308 -151 308 -152 96 -145 c80 -120 104 -148 142
-170 25 -14 163 -87 306 -162 143 -74 262 -137 264 -139 3 -2 -9 -18 -26 -36
-17 -17 -79 -90 -138 -162 -184 -221 -288 -335 -306 -335 -23 0 -795 196 -850
216 -24 8 -156 54 -294 101 -137 47 -254 89 -259 93 -9 9 -13 44 -40 400 -17
217 -76 1186 -76 1247 0 34 1 35 18 20 9 -9 136 -153 282 -321z m-410 -403
c-1 -21 -5 -99 -9 -174 -9 -136 -9 -136 -69 -280 -78 -187 -230 -528 -248
-556 -7 -12 -28 -26 -46 -31 -50 -13 -280 15 -722 89 -131 22 -240 39 -241 37
-4 -4 294 -227 671 -503 231 -169 231 -170 267 -240 82 -157 332 -606 390
-699 52 -82 68 -102 102 -116 22 -9 256 -92 520 -184 264 -92 525 -183 580
-202 l100 -35 210 -416 209 -416 -54 -159 c-30 -87 -58 -158 -61 -158 -3 0
-134 166 -290 369 l-283 368 -100 18 c-55 9 -444 86 -865 170 -698 140 -766
155 -783 176 -50 66 -797 1159 -817 1197 -7 13 -14 22 -17 20 -4 -5 18 -186
36 -293 6 -33 38 -201 72 -372 34 -172 59 -315 56 -319 -4 -3 -136 37 -295 90
-158 52 -423 138 -588 191 -165 53 -358 116 -428 141 -71 25 -130 44 -131 42
-1 -2 -17 -39 -36 -83 -75 -178 -225 -475 -372 -735 -85 -151 -195 -347 -243
-435 -48 -88 -97 -172 -107 -188 -12 -17 -55 -44 -111 -71 -89 -42 -754 -322
-907 -382 -73 -29 -75 -30 -113 -99 -51 -91 -397 -669 -457 -762 -32 -51 -66
-88 -115 -126 -125 -95 -368 -267 -372 -263 -2 2 18 59 45 127 27 68 102 261
165 429 64 168 168 438 230 600 l114 295 49 38 c27 21 141 97 253 170 112 72
216 144 230 158 18 18 80 163 200 463 201 507 314 748 428 909 19 27 32 51 30
53 -2 2 -112 -44 -243 -104 -131 -60 -367 -166 -524 -236 l-285 -127 -125 70
c-69 38 -258 141 -420 230 -162 88 -308 168 -325 178 -29 17 -21 18 335 25
201 4 482 14 625 22 l260 14 105 40 c58 22 526 208 1041 415 l936 376 499 250
c850 427 1633 826 1933 986 47 25 91 45 98 45 8 0 13 -13 13 -37z m696 -1379
c-7 -22 -32 -75 -54 -119 -74 -147 -413 -770 -426 -783 -10 -11 -25 14 -80
133 -47 103 -65 153 -61 168 6 20 625 650 632 643 2 -2 -3 -21 -11 -42z
m-3196 -1500 c0 -8 -47 -135 -104 -282 -57 -147 -141 -361 -186 -477 -55 -142
-89 -217 -106 -230 -13 -11 -150 -90 -304 -175 l-281 -155 -347 -369 c-191
-203 -371 -395 -399 -428 -31 -34 -53 -52 -53 -43 0 9 45 118 101 243 55 125
146 339 201 476 119 297 129 319 162 334 15 6 77 45 140 86 119 78 166 120
591 531 325 313 399 382 489 450 74 57 96 66 96 39z m3133 -666 c97 -39 176
-75 175 -80 -2 -4 -97 -119 -212 -256 l-208 -249 -192 -22 c-105 -12 -199 -24
-208 -26 -10 -2 -18 -1 -18 1 0 3 149 248 368 607 38 62 74 97 101 97 9 0 96
-32 194 -72z"/>
<path d="M7939 7124 c102 -143 126 -168 214 -221 47 -29 89 -53 92 -53 7 0 0
127 -11 201 l-5 35 -152 44 c-84 24 -158 45 -166 48 -8 3 4 -21 28 -54z"/>
</g>
</svg>
