<?xml version="1.0" standalone="no"?>
<!DOCTYPE svg PUBLIC "-//W3C//DTD SVG 20010904//EN"
 "http://www.w3.org/TR/2001/REC-SVG-20010904/DTD/svg10.dtd">
<svg version="1.0" xmlns="http://www.w3.org/2000/svg"
 width="1024" height="1024" viewBox="0 0 1024 1024"
 preserveAspectRatio="xMidYMid meet">
  <rect width="1024" height="1024" fill="white"/>
<metadata>
Created by potrace 1.16, written by Peter Selinger 2001-2019
</metadata>
<g transform="translate(0.000000,1024.000000) scale(0.100000,-0.100000)"
fill="#000000" stroke="none">
<path d="M0 5120 l0 -5120 5120 0 5120 0 0 5120 0 5120 -5120 0 -5120 0 0
-5120z m3202 3541 c145 -81 394 -221 553 -311 160 -90 405 -232 545 -315 256
-153 864 -511 909 -534 30 -17 39 -30 -156 237 -90 122 -167 230 -170 238 -5
14 -3 15 18 4 13 -7 175 -108 359 -225 184 -117 463 -292 620 -390 157 -97
291 -184 298 -193 8 -11 12 -60 12 -161 l0 -146 188 -82 c103 -45 253 -111
333 -146 l146 -65 113 74 c62 41 117 74 124 74 6 -1 53 -72 104 -158 51 -86
111 -186 132 -221 22 -36 40 -72 40 -81 0 -10 -61 -113 -136 -231 -75 -118
-142 -224 -150 -237 l-15 -23 -40 23 c-37 21 -112 94 -205 201 -27 31 -48 47
-64 47 -13 0 -159 45 -324 99 -424 140 -569 168 -971 191 -254 15 -605 26
-604 20 0 -3 28 -25 62 -50 55 -40 240 -180 1187 -903 151 -115 277 -212 280
-214 10 -9 -105 -215 -125 -223 -11 -5 -119 -39 -240 -76 -121 -37 -224 -68
-230 -70 -6 -3 -9 38 -7 113 2 64 1 141 -3 170 l-6 53 -92 54 c-343 201 -1151
655 -1159 650 -8 -5 -131 -189 -294 -440 l-53 -82 131 -153 c340 -399 565
-666 583 -691 23 -31 35 -36 29 -10 -7 28 -104 741 -104 763 0 11 4 18 9 14 5
-3 58 -78 118 -168 159 -239 213 -307 362 -461 243 -247 552 -509 1044 -880
l247 -187 0 -367 c0 -202 -3 -418 -7 -480 l-6 -114 -141 -106 c-78 -58 -238
-180 -356 -271 -331 -254 -342 -262 -347 -257 -6 5 27 55 152 226 50 69 99
144 108 167 43 109 74 389 79 712 l3 184 -435 314 c-239 172 -443 318 -453
324 -11 6 -4 -9 17 -38 36 -51 245 -374 382 -590 46 -73 84 -139 84 -147 0
-21 -701 -1427 -709 -1422 -79 49 -1496 1025 -1587 1093 l-31 23 -129 -108
c-105 -88 -181 -139 -404 -272 -151 -89 -329 -196 -396 -236 -66 -41 -124 -74
-129 -74 -13 0 2 25 86 141 46 63 245 344 442 624 197 281 364 516 371 523 9
10 111 -36 495 -223 265 -129 485 -235 489 -235 4 0 78 -71 164 -157 87 -86
159 -155 161 -153 2 3 72 107 156 233 l151 227 -40 80 c-73 145 -302 538 -523
897 -200 324 -595 951 -673 1068 -19 27 -34 55 -34 62 0 8 65 203 145 435 102
298 153 433 173 456 31 39 54 53 211 125 l114 52 -267 115 c-146 63 -265 119
-263 125 2 5 143 105 314 220 239 161 309 213 300 222 -7 6 -145 102 -307 213
-162 111 -304 211 -315 221 -19 19 -19 19 0 19 11 0 58 -9 105 -21 129 -31
462 -100 466 -96 2 2 -112 136 -254 298 -708 812 -1017 1171 -1033 1202 -6 11
-6 17 0 17 6 0 129 -67 273 -149z m-1273 -982 c609 -156 1106 -287 1216 -321
118 -36 299 -108 364 -145 56 -32 266 -175 300 -204 l25 -20 -49 -42 c-87 -75
-517 -426 -612 -500 -108 -84 -119 -74 112 -107 83 -12 151 -23 152 -24 2 -1
-18 -49 -44 -107 -25 -57 -83 -219 -129 -359 -45 -140 -127 -383 -180 -541
l-98 -285 168 -300 c146 -259 462 -780 648 -1069 54 -85 56 -90 35 -93 -12 -2
-76 23 -142 54 -243 115 -600 277 -610 277 -9 -1 -492 -253 -1078 -565 -104
-55 -190 -98 -192 -96 -2 1 41 118 94 258 499 1302 890 2334 887 2338 -2 1
-32 -17 -67 -41 -147 -102 -472 -266 -780 -392 -167 -69 -308 -124 -313 -122
-5 2 40 55 100 117 250 262 696 723 953 988 233 241 272 285 260 296 -15 15
-366 285 -999 770 -446 342 -438 336 -425 336 4 0 186 -46 404 -101z m6681
-1744 c-13 -16 -418 -326 -613 -470 -85 -63 -104 -81 -90 -87 10 -4 128 -30
263 -58 l245 -51 330 -216 c182 -119 339 -225 350 -235 19 -18 19 -18 -16 -18
-56 0 -777 39 -846 46 -35 3 -63 3 -63 0 0 -3 29 -41 64 -83 218 -264 315
-388 307 -391 -5 -2 -77 16 -159 38 l-149 42 -359 203 c-198 111 -360 201
-362 200 -1 -1 63 -140 144 -309 96 -201 143 -311 137 -317 -6 -6 -114 50
-311 163 -250 144 -304 178 -314 203 -7 17 -60 152 -118 300 l-106 270 -125
92 c-68 51 -229 171 -358 265 -129 95 -236 179 -239 186 -2 7 5 12 16 12 11 0
223 -51 471 -114 l451 -114 81 19 c123 29 203 65 452 202 125 69 242 131 260
137 38 14 574 98 631 99 33 1 37 -1 26 -14z"/>
<path d="M5322 6940 c185 -192 216 -220 238 -216 14 3 105 13 203 22 97 10
177 20 177 24 0 3 -44 49 -98 103 l-98 98 -199 58 c-110 33 -250 75 -311 95
-61 20 -114 36 -118 36 -4 0 88 -99 206 -220z"/>
<path d="M6978 6338 c-60 -11 -64 -14 -49 -37 7 -11 20 -11 80 -1 58 11 71 17
71 32 0 20 -12 21 -102 6z"/>
</g>
</svg>
