<?xml version="1.0" standalone="no"?>
<!DOCTYPE svg PUBLIC "-//W3C//DTD SVG 20010904//EN"
 "http://www.w3.org/TR/2001/REC-SVG-20010904/DTD/svg10.dtd">
<svg version="1.0" xmlns="http://www.w3.org/2000/svg"
 width="1024" height="1024" viewBox="0 0 1024 1024"
 preserveAspectRatio="xMidYMid meet">
  <rect width="1024" height="1024" fill="white"/>
<metadata>
Created by potrace 1.16, written by Peter Selinger 2001-2019
</metadata>
<g transform="translate(0.000000,1024.000000) scale(0.100000,-0.100000)"
fill="#000000" stroke="none">
<path d="M0 5120 l0 -5120 5120 0 5120 0 0 5120 0 5120 -5120 0 -5120 0 0
-5120z m5746 3476 l51 -51 2 -109 c2 -98 1 -108 -13 -97 -22 18 -70 5 -231
-63 -72 -30 -195 -82 -275 -115 -80 -34 -154 -61 -166 -61 -29 0 -176 61 -313
129 -129 65 -245 107 -323 117 l-51 7 6 85 c4 47 13 94 21 107 8 12 148 152
312 311 164 159 309 300 323 314 l26 25 290 -274 c160 -150 313 -296 341 -325z
m622 -162 c-17 -64 -73 -204 -151 -379 -42 -93 -79 -182 -82 -197 -4 -16 -11
-28 -15 -28 -23 0 -100 245 -102 326 -2 62 -9 53 102 137 51 39 251 177 256
177 1 0 -2 -16 -8 -36z m-2410 -38 c108 -68 218 -152 245 -188 19 -25 19 -32
8 -100 -12 -72 -65 -245 -81 -262 -13 -13 -74 117 -208 439 -55 133 -66 165
-58 165 4 0 46 -25 94 -54z m605 -332 c231 -75 429 -160 506 -218 19 -14 40
-26 46 -26 7 0 32 14 56 32 110 80 549 247 622 236 20 -3 24 -15 45 -118 13
-63 29 -133 37 -155 22 -65 180 -448 249 -605 72 -163 149 -360 143 -367 -7
-6 -49 31 -312 271 -246 225 -418 387 -413 391 2 1 17 10 35 19 44 22 68 50
110 126 20 36 49 86 64 111 57 91 32 111 -103 84 -136 -28 -369 -82 -374 -88
-3 -2 2 -45 10 -93 8 -49 18 -125 22 -170 6 -76 5 -82 -17 -106 -76 -82 -107
-113 -136 -135 l-33 -26 -43 28 c-23 16 -67 55 -98 87 l-56 59 2 62 c2 34 12
114 23 177 12 63 20 115 19 116 -3 3 -309 70 -405 89 -45 10 -89 15 -96 12
-25 -10 -25 -46 1 -94 38 -73 161 -231 193 -250 17 -9 30 -20 30 -24 0 -3 -84
-83 -187 -176 -104 -93 -257 -232 -341 -309 -155 -140 -196 -173 -206 -163 -3
3 40 111 95 240 261 607 321 760 336 854 19 124 31 165 49 165 8 0 65 -16 127
-36z m-713 -817 c0 -13 -167 -479 -263 -732 -25 -66 -62 -168 -83 -227 -50
-146 -53 -150 -89 -101 -37 49 -341 398 -457 525 -49 53 -95 113 -103 132 -14
34 -14 37 2 43 10 4 23 12 28 19 11 14 249 103 580 219 116 41 246 87 290 104
93 35 95 35 95 18z m2725 -51 c508 -175 797 -283 833 -312 12 -9 -64 -110
-177 -234 -42 -47 -157 -176 -255 -288 -196 -224 -192 -221 -222 -129 -26 79
-140 388 -189 512 -55 139 -185 497 -185 508 0 11 -6 13 195 -57z m-1059 -14
c27 -26 87 -79 134 -118 47 -39 137 -120 201 -180 64 -60 134 -121 155 -135
22 -15 91 -71 154 -126 63 -54 136 -115 162 -134 26 -20 64 -51 84 -68 l37
-33 -109 -221 c-99 -203 -163 -319 -184 -332 -5 -3 -55 88 -113 202 -148 296
-215 415 -245 441 -80 67 -524 410 -564 435 -27 17 -48 33 -48 37 0 18 69 93
168 182 59 53 110 97 113 97 3 1 27 -20 55 -47z m-653 -29 c62 -51 217 -200
217 -209 0 -1 -12 -5 -26 -8 -15 -4 -92 -57 -172 -119 -80 -62 -215 -166 -301
-232 l-156 -121 -158 -314 c-87 -173 -161 -316 -165 -317 -12 -5 -76 105 -191
330 l-111 218 42 44 c24 25 86 80 140 122 174 140 763 634 778 654 8 10 16 18
18 19 1 0 40 -30 85 -67z m582 -714 c155 -109 184 -135 212 -181 18 -29 36
-64 42 -78 5 -14 37 -83 71 -155 160 -333 220 -468 220 -489 0 -44 -214 -337
-244 -336 -6 1 -62 104 -125 230 -63 127 -115 230 -115 230 -1 0 0 -159 1
-354 l3 -354 -66 -73 c-36 -41 -110 -130 -164 -199 -54 -69 -111 -137 -127
-153 l-30 -27 -54 57 c-31 32 -119 139 -198 237 l-142 179 3 354 c2 194 1 353
-2 353 -3 0 -57 -105 -120 -233 -64 -127 -120 -232 -126 -232 -15 0 -186 218
-237 302 -4 6 25 78 64 160 39 81 95 202 124 268 29 66 80 177 113 247 l60
127 164 109 c210 140 326 220 333 232 7 11 76 -34 340 -221z m-2617 39 c135
-158 351 -440 378 -496 15 -29 30 -55 35 -58 17 -10 9 -19 -68 -79 -42 -33
-115 -95 -162 -139 -47 -43 -96 -85 -108 -93 -29 -19 -336 -64 -425 -63 -40 0
-68 -3 -68 -9 0 -17 68 -57 170 -101 102 -44 248 -116 318 -157 l42 -25 -56
-64 c-31 -35 -67 -72 -79 -82 -39 -30 -306 -275 -343 -314 -19 -21 -39 -38
-43 -38 -4 0 -25 28 -45 63 -21 34 -72 109 -113 167 -162 228 -351 523 -351
548 0 17 20 48 58 91 32 36 109 129 172 206 63 77 205 248 315 380 110 132
220 266 245 298 25 31 46 57 47 57 0 0 37 -42 81 -92z m4717 39 c23 -24 77
-88 120 -143 44 -54 110 -135 148 -179 39 -44 131 -156 206 -250 75 -93 176
-217 225 -275 49 -58 93 -115 98 -127 14 -29 -12 -72 -203 -348 -84 -121 -186
-269 -227 -330 -40 -60 -75 -112 -77 -114 -2 -2 -59 48 -127 111 -68 63 -186
171 -263 239 -77 69 -140 131 -140 139 0 30 387 222 493 245 38 8 44 38 11 56
-12 6 -78 15 -148 19 -193 13 -305 29 -317 45 -6 8 -39 35 -75 61 -35 26 -105
82 -156 125 -50 43 -103 85 -118 95 -26 17 -26 17 -7 38 11 12 23 31 27 44 10
32 289 390 402 515 29 32 53 62 53 68 0 22 37 6 75 -34z m-4125 -1388 c16
-129 34 -283 41 -344 16 -142 19 -151 64 -159 21 -4 47 -11 60 -16 l23 -9 -33
-128 c-18 -70 -36 -154 -39 -185 -8 -66 24 -43 -281 -197 l-200 -101 -20 27
c-11 16 -54 66 -95 112 -117 132 -350 424 -350 439 0 13 790 805 797 798 2 -2
17 -108 33 -237z m3834 -155 c218 -216 396 -397 396 -403 0 -14 -215 -284
-315 -396 -76 -84 -140 -166 -147 -186 -4 -12 -466 221 -479 242 -3 6 -9 52
-13 102 -8 117 -29 204 -51 221 -29 21 -11 42 55 60 33 10 63 23 65 29 5 14
61 527 71 645 4 45 10 81 14 80 5 -2 186 -179 404 -394z m-3229 -344 c99 -21
272 -55 385 -75 113 -20 229 -43 257 -52 56 -15 129 -72 308 -241 50 -47 107
-98 129 -113 l38 -28 117 104 c64 57 152 140 196 184 44 45 93 85 110 91 16 5
192 39 390 75 198 36 376 70 395 75 79 22 74 31 87 -172 8 -114 8 -186 3 -193
-11 -14 -89 -31 -175 -40 -86 -10 -238 -34 -309 -50 -34 -7 -127 -23 -208 -36
l-148 -22 -178 -166 c-236 -221 -304 -281 -314 -281 -4 0 -8 9 -8 19 0 19 -89
101 -341 313 -122 102 -129 107 -200 122 -289 63 -711 145 -746 146 -12 0 -24
3 -26 8 -2 4 2 79 9 167 7 88 13 173 13 189 1 23 4 27 19 21 9 -4 98 -24 197
-45z m-130 -646 c64 -26 199 -68 325 -99 231 -59 416 -119 440 -143 13 -13 12
-14 -8 -9 -14 3 -25 0 -28 -7 -8 -20 29 -108 73 -178 59 -94 61 -102 20 -151
-50 -60 -403 -445 -510 -555 l-90 -93 -51 17 c-28 9 -76 28 -106 41 -30 13
-102 37 -160 52 -58 16 -193 55 -300 86 -107 32 -210 61 -227 67 -18 5 -33 11
-33 13 0 3 97 202 215 442 213 432 286 562 315 563 8 0 65 -21 125 -46z m2638
-9 c48 -72 481 -944 473 -952 -3 -4 -354 -110 -488 -148 -68 -19 -179 -53
-247 -75 l-125 -41 -74 73 c-164 162 -558 581 -566 602 -7 19 0 40 41 112 28
49 61 112 74 139 26 54 36 63 89 83 56 21 460 139 531 156 46 10 231 87 255
105 1 1 17 -24 37 -54z m-3048 -1281 c44 -15 152 -48 240 -74 88 -27 201 -63
250 -80 50 -18 166 -54 259 -80 92 -27 170 -51 173 -53 4 -5 -35 -322 -43
-347 -5 -15 -67 -58 -116 -80 -33 -16 -33 -14 39 -310 66 -272 94 -402 89
-407 -4 -5 -371 -17 -941 -33 -209 -5 -426 -13 -482 -16 -163 -11 -159 1 93
225 123 109 374 320 416 349 16 12 30 11 91 -2 103 -22 489 -87 494 -82 2 2
-27 32 -65 67 -74 68 -197 143 -452 274 l-155 80 -3 225 c-3 251 3 370 21 370
7 0 48 -12 92 -26z m3385 -288 c-1 -160 -4 -297 -8 -303 -4 -6 -45 -26 -92
-44 -47 -19 -116 -50 -155 -70 -319 -164 -313 -160 -341 -203 -15 -22 -39 -52
-53 -65 l-26 -23 45 6 c422 55 527 66 545 58 66 -30 316 -233 498 -404 137
-129 157 -162 90 -153 -33 4 -416 17 -1260 41 -128 3 -233 8 -233 9 0 2 20
115 46 251 25 137 52 290 60 339 l15 90 -61 55 -61 55 -23 174 -22 173 20 7
c274 98 725 237 863 266 40 8 87 21 105 28 18 8 36 12 41 10 4 -3 7 -136 7
-297z"/>
</g>
</svg>
