<?xml version="1.0" standalone="no"?>
<!DOCTYPE svg PUBLIC "-//W3C//DTD SVG 20010904//EN"
 "http://www.w3.org/TR/2001/REC-SVG-20010904/DTD/svg10.dtd">
<svg version="1.0" xmlns="http://www.w3.org/2000/svg"
 width="1024" height="1024" viewBox="0 0 1024 1024"
 preserveAspectRatio="xMidYMid meet">
  <rect width="1024" height="1024" fill="white"/>
<metadata>
Created by potrace 1.16, written by Peter Selinger 2001-2019
</metadata>
<g transform="translate(0.000000,1024.000000) scale(0.100000,-0.100000)"
fill="#000000" stroke="none">
<path d="M0 5120 l0 -5120 5120 0 5120 0 0 5120 0 5120 -5120 0 -5120 0 0
-5120z m8350 3435 c-347 -974 -660 -1852 -690 -1935 -21 -58 -138 -384 -259
-724 -122 -340 -222 -621 -224 -622 -2 -2 -52 96 -111 219 -60 122 -122 247
-138 277 -16 30 -67 133 -113 228 -46 94 -86 172 -89 172 -4 0 -269 -262 -590
-582 l-584 -583 -16 -315 c-9 -173 -23 -434 -31 -580 -8 -146 -19 -377 -23
-514 l-9 -249 -714 -707 c-393 -389 -715 -706 -717 -705 -7 6 62 777 89 994
13 110 69 661 69 684 0 17 -218 -184 -476 -438 l-71 -70 -17 -125 c-9 -69 -25
-204 -37 -300 -11 -96 -36 -272 -54 -390 -31 -197 -42 -272 -66 -445 -4 -33
-11 -75 -15 -93 l-6 -33 -25 53 c-67 143 -481 1066 -487 1086 -7 21 91 122
885 917 491 492 893 894 894 892 1 -1 -4 -60 -11 -132 -58 -546 -124 -1293
-124 -1393 l0 -44 173 170 c94 93 189 184 210 202 28 24 37 39 33 54 -3 11 -1
25 5 32 5 7 16 131 24 276 8 144 19 326 25 403 5 77 19 290 30 473 l20 334 45
53 c25 29 431 436 901 904 l855 850 20 -47 c55 -128 119 -290 119 -302 0 -20
14 -1 33 45 9 22 85 229 168 460 84 231 181 490 215 575 35 85 62 155 60 157
-3 3 -184 -66 -321 -124 -60 -25 -146 -59 -190 -75 -44 -16 -147 -58 -230 -93
-82 -35 -215 -89 -295 -120 -80 -32 -148 -61 -153 -64 -6 -6 295 -143 397
-181 l30 -11 -940 -939 -939 -938 -395 -17 c-217 -9 -523 -20 -680 -25 -157
-5 -303 -12 -325 -16 -32 -5 -55 -22 -123 -88 -99 -96 -322 -333 -304 -322 6
4 90 14 185 21 94 8 280 23 412 35 132 11 373 29 535 40 162 11 301 23 308 25
8 3 -188 -196 -435 -442 -246 -247 -647 -647 -890 -889 l-441 -442 -494 240
c-271 132 -532 258 -580 281 -48 23 -87 44 -88 47 0 3 96 13 213 23 116 10
316 31 442 47 252 31 496 57 647 68 l97 7 279 278 c182 181 273 277 260 277
-10 0 -60 -4 -111 -10 -51 -5 -339 -26 -642 -45 -302 -19 -602 -40 -665 -45
-63 -5 -126 -10 -138 -10 -26 0 258 296 953 997 l350 352 255 6 c380 9 1141
34 1252 41 60 4 98 10 100 18 2 6 281 288 621 626 341 338 617 617 615 620 -3
5 -514 235 -805 362 -90 39 -163 73 -163 77 0 3 60 30 133 60 72 30 179 75
237 99 58 25 155 64 215 87 61 23 493 199 960 390 468 191 1021 417 1230 501
209 85 403 165 430 178 28 13 51 23 52 22 1 -1 -15 -51 -37 -111z"/>
</g>
</svg>
