<?xml version="1.0" standalone="no"?>
<!DOCTYPE svg PUBLIC "-//W3C//DTD SVG 20010904//EN"
 "http://www.w3.org/TR/2001/REC-SVG-20010904/DTD/svg10.dtd">
<svg version="1.0" xmlns="http://www.w3.org/2000/svg"
 width="1024" height="1024" viewBox="0 0 1024 1024"
 preserveAspectRatio="xMidYMid meet">
  <rect width="1024" height="1024" fill="white"/>
<metadata>
Created by potrace 1.16, written by Peter Selinger 2001-2019
</metadata>
<g transform="translate(0.000000,1024.000000) scale(0.100000,-0.100000)"
fill="#000000" stroke="none">
<path d="M0 5120 l0 -5120 5120 0 5120 0 0 5120 0 5120 -5120 0 -5120 0 0
-5120z m5269 3875 c192 -299 393 -610 516 -800 127 -196 237 -368 471 -740 80
-126 154 -242 164 -257 26 -36 25 -48 -4 -48 -43 0 -319 59 -371 79 -47 18
-52 24 -130 152 -44 74 -130 211 -191 304 -61 94 -128 199 -149 235 -21 36
-107 169 -190 295 -83 127 -175 267 -205 313 -43 69 -55 81 -66 70 -7 -7 -48
-69 -92 -138 -104 -164 -284 -442 -502 -775 -97 -148 -191 -297 -210 -330 -62
-111 -70 -119 -157 -143 -95 -26 -331 -67 -339 -59 -9 8 22 62 150 259 65 101
243 379 395 618 152 240 332 522 401 628 69 106 178 274 243 374 l119 182 19
-24 c11 -14 68 -101 128 -195z m-2930 -1207 c421 -270 1128 -790 1303 -956
l46 -44 77 26 c43 15 107 33 144 40 112 23 323 48 361 43 20 -2 95 -32 167
-66 72 -33 142 -62 154 -63 19 -3 40 19 119 123 52 70 122 161 155 202 33 41
102 130 154 196 51 67 97 121 101 121 11 0 60 -58 116 -136 26 -38 87 -116
134 -174 48 -58 125 -158 173 -222 48 -65 89 -118 92 -118 13 0 138 51 200 82
116 58 135 62 239 49 196 -26 334 -53 394 -76 34 -14 66 -25 72 -25 5 0 40 27
77 61 75 66 100 86 444 342 340 252 562 409 744 527 88 56 201 129 251 161 87
57 114 68 114 51 0 -28 -281 -768 -392 -1032 -33 -80 -100 -244 -149 -365
-155 -384 -381 -812 -513 -974 -92 -112 -218 -225 -344 -308 -65 -42 -148 -96
-185 -121 -37 -24 -71 -42 -74 -39 -3 4 2 77 10 164 9 87 26 275 38 418 20
250 22 261 47 296 46 63 345 410 349 405 5 -4 -33 -131 -148 -491 -43 -137
-82 -266 -85 -285 l-6 -35 69 70 c140 145 238 300 428 680 145 289 195 402
290 650 63 164 115 305 115 312 0 19 -196 -138 -359 -286 -75 -68 -224 -197
-331 -287 -107 -89 -246 -217 -309 -284 -62 -66 -118 -119 -124 -117 -6 2 -22
46 -37 98 -14 52 -29 100 -34 107 -4 6 -23 12 -43 12 -19 0 -103 12 -187 26
-83 14 -164 23 -181 20 -16 -2 -95 -39 -175 -81 -80 -43 -255 -136 -390 -207
-135 -72 -262 -143 -282 -159 -20 -16 -40 -29 -44 -29 -4 0 -21 10 -38 23 -62
46 -816 445 -858 454 -35 7 -389 -46 -405 -61 -6 -6 -25 -54 -41 -106 -17 -52
-34 -96 -40 -98 -5 -1 -48 41 -95 95 -111 128 -176 189 -392 368 -99 82 -236
199 -305 260 -69 61 -163 140 -209 175 -125 97 -121 95 -121 79 0 -7 54 -150
121 -317 170 -429 426 -942 576 -1154 102 -144 194 -250 200 -231 2 5 -32 129
-76 274 -43 145 -91 309 -106 364 -15 55 -33 115 -41 134 -19 45 -8 54 19 16
31 -41 167 -205 252 -300 39 -44 76 -87 83 -96 8 -10 18 -94 27 -215 9 -110
22 -279 30 -377 8 -98 15 -205 15 -237 l0 -59 -195 130 c-162 109 -210 147
-290 231 -53 55 -117 128 -142 162 -129 174 -344 596 -473 926 -29 74 -78 194
-110 265 -32 72 -85 204 -120 295 -34 91 -93 248 -132 350 -38 102 -88 237
-110 300 -22 63 -49 132 -59 152 -11 21 -19 42 -19 49 0 14 74 -28 269 -153z
m1957 -1633 c194 -80 450 -208 582 -292 78 -50 234 -123 264 -123 13 0 82 33
153 73 72 41 221 122 332 181 175 93 263 132 500 224 l42 17 65 -70 c36 -39
65 -77 66 -85 0 -8 -17 -44 -37 -79 l-38 -64 -270 -92 c-289 -99 -462 -163
-513 -189 -17 -9 -38 -29 -46 -44 -19 -37 -77 -303 -116 -527 -17 -99 -35
-197 -41 -217 -11 -41 -80 -108 -111 -108 -27 0 -69 24 -101 57 -25 27 -30 46
-53 194 -32 203 -100 540 -118 584 -8 18 -25 40 -38 48 -28 18 -378 147 -603
222 -239 80 -218 68 -244 145 l-23 67 58 81 c33 44 64 81 70 81 6 1 105 -37
220 -84z m-259 -469 c38 -29 141 -112 231 -183 l163 -130 102 -7 c56 -4 114
-9 130 -12 31 -6 38 -19 99 -196 l40 -117 -35 -126 c-24 -86 -33 -134 -28
-153 4 -16 33 -48 72 -79 111 -92 281 -205 305 -205 34 0 338 211 384 267 12
14 9 36 -25 166 l-38 149 52 132 c29 73 56 140 60 148 6 12 38 17 140 22 81 4
138 12 149 20 18 13 207 167 356 290 97 80 96 81 68 -95 -11 -67 -23 -162 -27
-212 -9 -139 -14 -152 -119 -293 -53 -71 -105 -150 -115 -174 -21 -47 -121
-384 -176 -591 -22 -83 -44 -143 -61 -166 -14 -20 -110 -137 -213 -261 -122
-147 -199 -231 -221 -242 -30 -15 -64 -18 -222 -18 -114 0 -196 4 -210 11 -13
6 -50 45 -83 87 -33 42 -126 156 -207 253 l-146 177 -102 353 c-56 195 -110
373 -120 397 -11 23 -59 100 -108 170 -115 163 -122 178 -122 254 -1 35 -11
143 -23 241 -13 97 -22 177 -20 177 1 0 33 -24 70 -54z m-15 -1088 c30 -40 60
-84 67 -97 10 -17 14 -92 15 -271 l1 -247 79 -119 c43 -65 127 -186 186 -269
59 -82 156 -224 215 -315 59 -91 128 -191 152 -224 l45 -59 -88 -88 c-49 -49
-94 -89 -101 -89 -12 0 -316 373 -443 544 -86 117 -295 417 -311 449 -7 12
-13 23 -14 25 -3 4 -663 -312 -855 -410 -102 -52 -227 -113 -279 -137 l-94
-42 104 -65 c175 -109 614 -370 809 -482 102 -57 203 -117 225 -132 22 -15
128 -80 235 -145 107 -65 238 -147 290 -182 62 -43 96 -60 99 -52 2 7 31 43
65 79 34 36 111 121 171 190 316 359 421 480 467 542 28 37 54 68 59 68 4 0
24 -24 45 -52 47 -65 170 -210 329 -387 187 -208 359 -405 375 -429 l15 -23
55 41 c85 64 514 327 790 485 85 48 209 122 275 163 66 41 199 120 296 177
180 104 327 196 328 205 1 3 -20 14 -47 24 -26 11 -171 79 -322 151 -151 73
-313 149 -360 170 -133 59 -458 223 -465 235 -9 15 -22 12 -28 -7 -6 -25 -273
-407 -375 -538 -177 -227 -377 -466 -388 -463 -6 2 -50 40 -97 85 l-87 81 88
134 c105 160 184 275 376 553 80 116 161 237 181 270 l37 60 -5 232 -6 231 31
49 c41 65 118 154 127 148 5 -2 11 -23 14 -46 12 -91 91 -445 101 -456 11 -12
175 -89 576 -273 904 -413 1348 -622 1352 -635 2 -5 -67 -52 -152 -103 -85
-52 -209 -128 -275 -169 -126 -79 -471 -288 -810 -489 -110 -65 -330 -200
-490 -299 -159 -100 -369 -229 -465 -288 -96 -58 -203 -128 -236 -154 -217
-169 -535 -443 -687 -592 l-97 -96 -55 62 c-61 68 -207 200 -489 441 -174 150
-212 177 -543 384 -196 123 -395 246 -442 275 -154 92 -702 417 -859 508 -84
50 -221 132 -305 184 -84 51 -233 142 -333 202 -99 59 -186 114 -192 122 -9
11 41 38 276 147 366 170 736 339 972 445 228 102 671 312 683 324 10 10 32
101 76 316 41 198 40 195 50 195 5 0 33 -33 63 -72z"/>
<path d="M4793 4362 c-40 -4 -76 -11 -82 -17 -10 -10 163 -164 217 -193 27
-15 311 -30 355 -18 24 6 248 187 255 206 2 4 -7 10 -20 14 -32 10 -637 16
-725 8z"/>
<path d="M5034 2493 c-48 -59 -147 -178 -219 -263 -72 -85 -141 -170 -154
-188 -27 -39 -34 -28 79 -118 41 -32 147 -132 235 -221 l160 -163 23 34 c43
63 277 292 369 361 l91 69 -21 27 c-12 14 -62 75 -112 135 -49 59 -148 178
-219 264 -71 85 -132 159 -136 163 -4 5 -47 -40 -96 -100z"/>
</g>
</svg>
