<?xml version="1.0" standalone="no"?>
<!DOCTYPE svg PUBLIC "-//W3C//DTD SVG 20010904//EN"
 "http://www.w3.org/TR/2001/REC-SVG-20010904/DTD/svg10.dtd">
<svg version="1.0" xmlns="http://www.w3.org/2000/svg"
 width="1024" height="1024" viewBox="0 0 1024 1024"
 preserveAspectRatio="xMidYMid meet">
  <rect width="1024" height="1024" fill="white"/>
<metadata>
Created by potrace 1.16, written by Peter Selinger 2001-2019
</metadata>
<g transform="translate(0.000000,1024.000000) scale(0.100000,-0.100000)"
fill="#000000" stroke="none">
<path d="M0 5120 l0 -5120 5120 0 5120 0 0 5120 0 5120 -5120 0 -5120 0 0
-5120z m4700 3995 c129 -87 297 -201 373 -252 l137 -94 -127 -137 c-201 -216
-353 -366 -413 -405 l-54 -37 -16 28 c-9 15 -47 81 -85 147 -72 127 -286 458
-303 468 -5 4 -103 -35 -217 -87 -199 -89 -213 -97 -325 -190 -166 -137 -158
-124 -124 -186 15 -28 56 -85 91 -127 35 -42 63 -80 63 -85 0 -5 -65 -74 -144
-152 l-144 -143 -31 54 c-16 30 -48 92 -70 138 -22 47 -49 98 -60 114 l-21 29
23 24 c12 13 77 65 143 116 l122 93 32 137 c17 75 41 166 53 202 33 100 82
141 363 304 131 77 281 166 333 197 l94 58 36 -28 c20 -15 142 -99 271 -186z
m1568 163 c141 -96 445 -338 564 -449 l47 -44 26 -190 c14 -104 27 -204 30
-221 3 -17 44 -84 92 -150 47 -65 94 -132 104 -148 l18 -29 -80 -90 c-43 -49
-92 -115 -107 -147 -35 -74 -41 -71 -133 68 -40 59 -87 123 -105 142 l-34 36
57 84 c32 46 85 112 118 146 59 61 60 62 39 78 -12 8 -55 66 -95 128 l-73 113
-145 65 c-202 89 -289 122 -315 118 -13 -2 -83 -69 -176 -168 -147 -157 -226
-259 -266 -343 -10 -20 -24 -37 -31 -37 -27 0 -166 140 -313 315 -51 61 -113
131 -138 157 l-45 47 49 30 c123 76 859 521 862 521 2 0 24 -14 50 -32z m-819
-950 c105 -113 201 -218 212 -232 23 -30 18 -46 -16 -46 -13 0 -43 -8 -67 -18
-24 -11 -87 -34 -140 -52 -115 -38 -99 0 -128 -315 -11 -121 -23 -231 -26
-245 -6 -20 6 -12 64 40 65 59 73 71 96 142 14 42 26 85 26 95 0 11 42 49 107
98 59 44 128 99 154 123 56 51 56 52 70 -100 8 -97 7 -112 -11 -159 -46 -117
-274 -615 -289 -633 -9 -10 -69 -63 -134 -117 -94 -80 -124 -99 -149 -99 -28
0 -51 20 -183 153 l-151 152 -113 230 c-62 127 -122 255 -133 285 -34 100 -35
326 -1 337 6 2 46 -27 90 -65 67 -60 312 -230 316 -220 1 1 8 14 16 27 10 19
35 213 27 217 -49 27 -279 120 -319 128 -28 7 -26 9 75 104 56 53 170 161 252
240 82 78 153 141 157 140 4 -2 93 -96 198 -210z m-3985 -787 c114 -50 216
-91 226 -91 11 0 61 -61 140 -170 68 -94 126 -167 130 -163 4 5 78 124 164
266 87 141 161 257 164 257 3 0 2 -82 -2 -182 -3 -101 -7 -252 -7 -335 0 -84
-5 -155 -9 -158 -5 -3 -52 -59 -105 -125 -53 -66 -97 -120 -99 -120 -1 0 -133
78 -292 173 l-289 173 -142 235 c-174 287 -205 343 -191 357 12 12 18 10 312
-117z m7179 -358 c-33 -288 -42 -393 -37 -407 4 -10 10 -13 13 -8 3 5 62 21
131 35 69 14 235 49 369 77 134 28 246 49 248 47 3 -4 -116 -143 -250 -290
-44 -49 -92 -94 -106 -101 -14 -8 -78 -28 -141 -46 -63 -17 -202 -56 -309 -87
-154 -43 -196 -52 -202 -41 -5 7 -36 82 -69 166 -57 145 -70 196 -52 204 4 2
19 21 33 43 15 22 100 123 189 225 89 102 164 191 167 198 9 22 20 13 16 -15z
m-3918 -224 c129 -153 290 -312 395 -390 l74 -56 151 100 c170 114 292 228
393 369 35 47 69 88 75 91 7 3 223 -12 480 -31 359 -28 464 -39 455 -48 -15
-13 -218 -106 -483 -219 -99 -42 -183 -80 -187 -84 -5 -4 10 -83 31 -176 61
-262 105 -484 98 -491 -3 -3 -130 60 -282 142 -271 144 -277 147 -295 128 -22
-22 -259 -359 -371 -525 -43 -64 -85 -119 -94 -123 -15 -5 -126 156 -418 607
-32 49 -61 87 -65 85 -25 -11 -439 -225 -491 -253 -35 -20 -66 -34 -68 -32 -2
3 17 105 42 228 75 368 96 472 93 474 -2 1 -128 60 -280 130 -153 70 -278 130
-278 134 0 5 775 66 885 69 27 1 43 -14 140 -129z m-2073 -375 c155 -113 291
-213 300 -222 16 -16 15 -29 -16 -212 -19 -107 -32 -198 -29 -202 11 -19 43
16 122 136 48 72 109 152 136 177 28 25 113 85 190 134 77 49 220 140 318 202
99 62 183 113 189 113 13 0 94 -48 108 -64 8 -11 0 -89 -31 -314 l-42 -300
-36 -10 c-118 -32 -970 -336 -1027 -366 -38 -20 -71 -36 -75 -36 -4 0 -35 44
-70 98 -34 53 -115 171 -179 262 -138 196 -353 538 -354 562 -1 9 37 69 84
133 63 85 91 115 106 115 13 0 145 -89 306 -206z m3989 -111 c426 -322 480
-362 495 -371 9 -5 34 -75 64 -179 48 -167 84 -252 94 -222 3 8 20 101 38 208
l33 194 140 79 c351 200 550 308 565 308 17 -1 101 -245 101 -294 -1 -21 -20
-47 -78 -108 -130 -134 -760 -708 -777 -708 -8 0 -767 439 -803 464 -1 1 -9
44 -17 96 -9 52 -39 213 -68 358 l-51 263 28 29 c16 17 32 30 35 30 4 0 94
-66 201 -147z m-1938 -543 c33 -58 129 -225 214 -372 95 -165 152 -272 147
-280 -14 -24 -227 -313 -267 -361 -32 -38 -44 -46 -61 -41 -11 4 -83 49 -159
102 -99 67 -143 103 -153 126 -7 17 -61 171 -119 341 -99 293 -103 311 -87
327 25 25 405 267 416 264 5 -1 36 -49 69 -106z m1210 -36 c111 -63 205 -118
209 -122 4 -4 -62 -142 -146 -307 l-153 -300 -164 -133 c-194 -158 -203 -163
-229 -136 -32 33 -240 398 -235 413 13 33 491 700 503 701 7 0 104 -52 215
-116z m-740 -1036 c30 -46 74 -105 98 -131 l42 -49 -99 -99 c-54 -54 -102 -99
-106 -99 -3 0 -47 46 -97 102 l-90 101 33 38 c19 20 62 78 95 128 34 50 63 91
65 91 2 0 29 -37 59 -82z m723 -15 c55 -65 218 -243 434 -473 80 -85 204 -217
275 -294 l129 -139 -44 8 c-63 10 -742 131 -870 155 -58 11 -127 21 -155 24
-45 4 -52 2 -71 -22 -24 -31 -264 -402 -437 -677 -66 -104 -151 -237 -189
-293 -81 -120 -75 -121 -126 18 -78 218 -298 808 -343 923 l-51 127 -46 -5
c-314 -36 -673 -80 -817 -100 -99 -13 -181 -23 -182 -21 -2 2 52 52 119 112
68 60 186 168 263 240 271 253 507 456 524 449 41 -16 321 -205 362 -245 32
-32 97 -133 218 -343 l173 -297 41 57 c22 32 111 164 198 294 122 184 172 249
221 292 113 100 313 267 319 267 4 0 28 -26 55 -57z m-1580 -1038 c72 -175 72
-176 -41 -244 -165 -99 -940 -584 -953 -596 -3 -3 138 -242 169 -286 l18 -26
-178 -414 c-98 -228 -206 -475 -239 -550 l-60 -136 18 -94 c22 -110 41 -174
82 -282 16 -43 28 -80 26 -82 -1 -2 -154 -15 -338 -29 -404 -32 -950 -57
-1005 -48 l-39 7 134 74 c193 106 458 266 656 396 l170 112 19 349 c10 192 20
521 22 732 l2 383 172 202 c95 110 247 288 337 395 91 107 170 195 176 197 21
7 731 73 765 72 34 -2 34 -3 87 -132z m1630 30 c93 -13 240 -36 325 -49 85
-13 178 -27 207 -31 59 -8 74 -23 172 -170 71 -106 181 -258 357 -492 96 -127
142 -196 137 -205 -5 -7 -179 -245 -388 -528 -387 -525 -574 -784 -583 -806
-5 -13 49 -59 142 -121 109 -72 478 -285 599 -344 65 -33 113 -59 107 -59 -7
0 -9 -4 -6 -10 3 -5 -2 -10 -12 -10 -18 0 -1010 70 -1268 90 -71 6 -144 10
-162 10 l-32 0 91 143 c49 78 139 216 198 307 l108 165 16 245 c9 135 21 278
27 319 l9 75 220 293 c121 161 220 296 220 300 -1 11 -36 35 -250 176 -539
354 -619 408 -625 417 -6 10 11 43 113 212 55 92 68 107 86 103 11 -3 98 -16
192 -30z"/>
<path d="M4947 7369 c-4 -15 15 -45 75 -117 136 -163 135 -162 189 -162 26 0
51 -5 54 -11 4 -6 17 11 30 38 13 28 50 75 89 111 39 38 66 72 66 84 0 15 -5
18 -16 14 -9 -4 -57 -18 -106 -32 l-90 -26 -137 61 c-76 34 -140 61 -143 61
-3 0 -8 -9 -11 -21z"/>
</g>
</svg>
