<?xml version="1.0" standalone="no"?>
<!DOCTYPE svg PUBLIC "-//W3C//DTD SVG 20010904//EN"
 "http://www.w3.org/TR/2001/REC-SVG-20010904/DTD/svg10.dtd">
<svg version="1.0" xmlns="http://www.w3.org/2000/svg"
 width="1024" height="1024" viewBox="0 0 1024 1024"
 preserveAspectRatio="xMidYMid meet">
  <rect width="1024" height="1024" fill="white"/>
<metadata>
Created by potrace 1.16, written by Peter Selinger 2001-2019
</metadata>
<g transform="translate(0.000000,1024.000000) scale(0.100000,-0.100000)"
fill="#000000" stroke="none">
<path d="M0 5120 l0 -5120 5120 0 5120 0 0 5120 0 5120 -5120 0 -5120 0 0
-5120z m3994 3963 c30 -39 288 -345 359 -426 32 -37 84 -113 114 -170 31 -56
70 -120 88 -142 74 -91 221 -306 271 -395 30 -52 54 -92 54 -89 0 4 -29 94
-65 200 -44 129 -92 247 -146 354 -43 88 -79 165 -79 170 0 16 520 505 537
505 3 0 66 -57 141 -127 74 -71 191 -179 261 -241 88 -79 125 -119 124 -133
-2 -10 -43 -101 -92 -201 -60 -121 -109 -240 -146 -352 -31 -93 -54 -170 -52
-173 2 -2 10 11 17 29 22 54 130 229 185 298 89 112 158 212 211 307 38 70
104 154 270 347 120 140 220 248 222 242 2 -7 -22 -233 -52 -502 -31 -269 -72
-640 -92 -824 -24 -217 -42 -339 -50 -345 -35 -28 -207 -275 -251 -361 -31
-59 -96 -229 -162 -418 -61 -176 -112 -320 -114 -322 -19 -16 -425 -257 -434
-257 -6 0 -104 59 -216 132 l-206 132 -40 122 c-22 67 -65 201 -96 298 -80
255 -123 340 -270 536 -69 91 -125 174 -125 183 0 10 -20 191 -45 402 -96 828
-145 1230 -150 1239 -13 21 9 7 29 -18z m269 -2448 c37 -132 87 -319 112 -415
42 -162 91 -315 116 -361 5 -10 7 -19 5 -19 -7 0 -382 226 -709 427 l-268 165
193 131 c106 71 256 174 333 227 77 53 143 94 146 91 3 -3 35 -114 72 -246z
m1830 222 c23 -19 128 -92 232 -163 105 -70 234 -158 288 -195 l98 -68 -58
-37 c-66 -43 -623 -387 -787 -487 -60 -37 -112 -65 -114 -62 -2 2 10 46 26 97
17 51 49 165 72 253 44 174 193 695 198 695 2 0 22 -15 45 -33z m-2633 -610
c135 -94 443 -308 685 -475 558 -387 735 -512 735 -519 0 -3 -40 -60 -88 -127
-113 -155 -442 -632 -442 -640 0 -10 181 -249 380 -502 169 -215 260 -336 260
-347 0 -3 -98 -93 -217 -201 -120 -107 -258 -233 -308 -279 l-89 -84 143 -449
c79 -247 193 -601 252 -786 60 -185 109 -340 109 -343 0 -3 -53 59 -117 137
-65 79 -191 228 -280 333 -190 221 -148 120 -337 796 -69 244 -129 455 -134
469 -5 14 -49 81 -99 150 -281 392 -619 903 -658 997 l-14 33 59 -30 c33 -16
128 -71 212 -122 181 -108 243 -138 663 -315 176 -74 354 -150 395 -169 l75
-34 -45 37 c-79 66 -251 223 -370 337 -150 145 -353 327 -461 412 -47 38 -219
179 -383 314 -164 135 -339 278 -390 319 -50 41 -91 77 -91 80 0 3 44 92 98
198 53 106 97 195 97 198 0 4 -28 -9 -62 -28 -206 -115 -1351 -658 -1363 -646
-1 2 19 60 46 129 27 69 95 244 151 390 56 146 138 355 183 464 l82 199 114
32 c63 18 281 83 484 145 204 62 384 116 400 120 37 9 18 20 325 -193z m3926
113 c353 -102 704 -207 709 -212 9 -9 211 -500 326 -793 71 -181 134 -341 140
-354 5 -13 8 -25 6 -28 -4 -4 -188 78 -577 257 -463 214 -597 277 -717 342
-68 37 -123 64 -123 61 0 -2 44 -93 99 -201 l98 -197 -359 -295 c-198 -162
-437 -357 -531 -434 -95 -76 -248 -211 -342 -300 -93 -89 -228 -213 -299 -276
-72 -63 -148 -132 -170 -152 l-41 -38 90 39 c50 22 235 100 413 175 383 161
480 209 712 349 96 58 176 104 178 102 18 -18 -507 -817 -714 -1085 -38 -50
-47 -75 -103 -275 -34 -121 -105 -371 -159 -557 l-97 -336 -265 -313 c-272
-321 -315 -372 -307 -354 3 6 44 132 92 280 73 229 320 989 401 1234 13 40 24
74 24 76 0 3 -298 276 -473 433 -75 68 -137 128 -137 134 0 14 69 107 245 333
78 99 198 255 268 347 l127 166 -182 264 c-100 144 -219 319 -265 387 l-83
124 77 57 c43 31 231 162 418 290 415 285 849 587 1050 731 83 59 153 108 156
108 3 1 145 -39 315 -89z m-2175 -1450 c105 -147 289 -419 289 -428 0 -4 -85
-92 -189 -196 l-189 -188 -183 187 c-101 103 -185 190 -187 195 -5 14 364 558
373 548 2 -1 40 -55 86 -118z m-2575 -6 c7 -27 28 -128 48 -224 20 -96 39
-182 41 -190 5 -15 -53 -97 -408 -577 l-209 -282 -42 32 c-23 18 -146 97 -274
177 -128 80 -245 155 -260 166 l-26 21 52 119 c29 66 107 223 173 349 l120
230 57 18 c31 9 201 62 377 116 176 55 324 98 330 97 5 -1 14 -25 21 -52z
m5310 -38 c153 -47 317 -98 364 -114 l85 -28 142 -280 c78 -153 155 -309 171
-345 l30 -66 -222 -150 c-121 -83 -258 -173 -303 -201 l-82 -52 -44 58 c-224
293 -537 716 -570 769 -3 4 1 35 8 68 7 33 29 137 50 230 47 220 42 208 69
201 12 -3 148 -44 302 -90z m-6707 -781 c29 -229 27 -221 69 -247 36 -21 664
-437 670 -443 2 -2 -17 -104 -42 -227 -43 -212 -119 -678 -112 -685 3 -4 494
605 542 670 15 22 33 31 70 38 95 18 360 49 414 48 l55 0 92 -190 c85 -174 90
-189 70 -189 -54 0 -310 44 -388 67 l-86 26 -118 -87 c-101 -74 -113 -86 -89
-86 16 0 97 -7 179 -15 83 -8 179 -15 216 -15 36 0 69 -4 75 -9 5 -5 51 -23
102 -41 52 -17 122 -45 157 -61 l64 -29 -13 -43 c-7 -24 -24 -71 -37 -105
l-24 -61 -50 -5 c-27 -3 -162 -17 -299 -31 -137 -14 -252 -27 -254 -30 -3 -3
3 -5 12 -5 10 0 80 -16 155 -35 76 -18 199 -44 273 -56 l135 -21 -29 -111
c-15 -61 -29 -111 -31 -112 -23 -12 -369 -54 -453 -55 -28 0 -54 -3 -58 -7 -8
-8 85 -23 299 -48 77 -9 141 -18 143 -20 2 -1 -2 -30 -9 -63 -16 -74 -5 -69
-314 -173 l-230 -77 -170 68 c-93 38 -190 78 -215 89 -39 17 -73 54 -226 243
-218 270 -506 645 -636 828 -155 219 -310 445 -367 535 l-53 84 123 208 c194
331 240 411 304 535 33 64 61 116 62 115 1 -1 11 -79 22 -172z m7900 -29 c44
-82 113 -199 152 -260 201 -317 239 -378 239 -387 0 -18 -331 -499 -482 -701
-274 -367 -659 -858 -742 -946 -33 -36 -39 -39 -284 -144 l-163 -69 -227 76
c-125 42 -247 86 -272 98 -41 21 -45 26 -57 81 -7 33 -12 60 -11 61 2 1 102
15 223 30 214 26 291 45 190 45 -78 0 -356 28 -395 40 -19 5 -46 10 -60 10
-24 0 -26 6 -49 103 -13 56 -25 107 -28 113 -2 7 46 19 134 33 76 12 179 33
228 46 50 13 118 29 153 36 34 6 61 14 58 16 -3 4 -194 24 -542 58 l-62 6 -30
82 c-45 120 -46 126 -25 134 10 4 34 16 53 29 20 12 81 39 135 59 104 39 185
51 502 71 l102 7 -97 70 c-53 38 -106 78 -118 88 -20 19 -22 19 -93 -6 -65
-22 -349 -75 -401 -75 -17 0 -6 28 77 195 l97 194 61 -5 c175 -16 441 -58 458
-72 10 -9 72 -84 138 -167 65 -82 145 -181 176 -220 31 -38 100 -123 151 -188
52 -65 96 -116 98 -114 8 7 -76 485 -120 691 -25 115 -43 213 -41 217 7 10
567 380 678 448 20 12 37 26 37 29 0 21 41 351 46 372 l6 25 13 -30 c7 -16 49
-97 94 -179z"/>
<path d="M4322 7898 c3 -7 22 -79 43 -161 37 -143 40 -149 91 -208 29 -34 97
-96 151 -138 55 -42 113 -87 131 -101 30 -23 44 -61 191 -500 88 -261 164
-488 171 -505 l11 -29 20 44 c23 51 121 349 234 710 42 135 84 253 93 262 9
10 68 52 131 95 78 53 137 103 184 155 l70 78 43 152 c24 84 42 154 40 155 -1
2 -50 -25 -109 -60 -58 -34 -166 -97 -239 -140 -73 -42 -176 -108 -228 -146
l-95 -68 -12 -69 c-6 -38 -31 -132 -54 -209 -23 -77 -46 -159 -52 -182 -6 -24
-13 -43 -17 -43 -8 0 -77 229 -110 365 l-26 110 -129 97 c-70 53 -178 127
-239 164 -61 37 -150 94 -198 126 -92 61 -103 66 -96 46z"/>
</g>
</svg>
