<?xml version="1.0" standalone="no"?>
<!DOCTYPE svg PUBLIC "-//W3C//DTD SVG 20010904//EN"
 "http://www.w3.org/TR/2001/REC-SVG-20010904/DTD/svg10.dtd">
<svg version="1.0" xmlns="http://www.w3.org/2000/svg"
 width="1024" height="1024" viewBox="0 0 1024 1024"
 preserveAspectRatio="xMidYMid meet">
  <rect width="1024" height="1024" fill="white"/>
<metadata>
Created by potrace 1.16, written by Peter Selinger 2001-2019
</metadata>
<g transform="translate(0.000000,1024.000000) scale(0.100000,-0.100000)"
fill="#000000" stroke="none">
<path d="M0 5120 l0 -5120 5120 0 5120 0 0 5120 0 5120 -5120 0 -5120 0 0
-5120z m6177 3494 c65 -19 210 -62 323 -95 113 -33 306 -89 430 -126 124 -36
317 -91 430 -123 173 -50 208 -63 226 -86 26 -31 68 -152 128 -369 25 -88 57
-198 71 -244 14 -47 25 -95 25 -107 0 -12 -22 -55 -49 -96 -27 -40 -110 -170
-185 -288 -137 -215 -184 -274 -209 -264 -8 3 -56 62 -108 132 -52 70 -190
255 -307 411 -118 156 -298 408 -402 562 -196 287 -222 325 -381 544 -116 159
-132 185 -120 185 5 0 63 -16 128 -36z m-1155 -353 c40 -21 91 -48 113 -61 22
-12 186 -101 365 -198 179 -96 406 -218 505 -272 99 -53 243 -130 320 -170 77
-40 147 -80 156 -89 19 -19 384 -580 458 -704 39 -65 51 -94 47 -112 -12 -48
-106 -130 -324 -283 -122 -86 -412 -297 -645 -468 -232 -171 -457 -336 -500
-367 l-77 -56 172 -97 c95 -53 358 -205 583 -337 226 -132 534 -310 685 -397
420 -239 593 -340 615 -357 19 -14 19 -15 2 -26 -10 -7 -113 -75 -230 -152
-117 -77 -372 -244 -567 -371 -195 -127 -427 -278 -515 -336 -435 -284 -588
-383 -1025 -660 -296 -188 -1127 -730 -1490 -971 l-135 -89 55 58 c30 33 221
228 425 434 204 206 654 665 1000 1020 346 355 685 702 754 772 l124 127 -84
42 c-111 55 -1020 544 -1144 614 -22 13 -125 71 -230 130 -381 216 -571 334
-582 361 -3 8 3 23 13 33 11 10 93 98 184 196 91 99 270 292 399 429 129 138
259 278 290 311 30 33 89 96 130 140 99 105 287 307 439 470 l121 130 -111
105 c-61 58 -164 148 -228 200 -65 52 -153 127 -196 165 -44 39 -108 89 -144
112 l-65 42 -130 -20 c-71 -10 -350 -51 -620 -89 -269 -38 -501 -72 -515 -75
-14 -3 -77 -12 -142 -20 -141 -19 -431 -60 -513 -74 -33 -6 -86 -13 -118 -16
-32 -4 -68 -8 -80 -11 -12 -2 -98 -16 -192 -29 -93 -14 -183 -28 -200 -31 -79
-16 41 38 470 211 99 40 261 108 360 150 395 169 957 392 1215 480 195 68 496
173 595 210 50 18 100 33 112 34 12 0 55 -16 95 -38z m3933 -1784 c-83 -62
-628 -476 -945 -718 -352 -270 -749 -568 -770 -579 -13 -7 -20 -7 -20 -1 0 6
-169 177 -375 382 -206 205 -375 375 -375 378 1 3 56 47 123 97 67 51 207 156
311 235 164 124 190 141 200 126 6 -9 71 -110 144 -226 l134 -209 71 32 c40
18 169 64 287 102 118 38 440 144 715 236 275 92 507 168 515 167 9 0 3 -9
-15 -22z m-5072 -1661 c121 -71 619 -356 729 -419 l88 -49 -28 -22 c-37 -30
-252 -189 -507 -376 -115 -84 -241 -177 -280 -205 -38 -29 -180 -132 -315
-230 -135 -98 -276 -201 -315 -230 -38 -28 -212 -155 -385 -280 -173 -126
-382 -278 -465 -340 -82 -61 -215 -158 -293 -215 -79 -58 -184 -134 -232 -170
-450 -331 -602 -441 -605 -438 -3 3 104 141 229 293 45 55 183 224 306 375
213 261 734 887 919 1106 48 55 99 116 114 135 31 38 330 393 597 709 96 114
213 253 260 309 47 55 87 101 88 101 2 0 45 -24 95 -54z"/>
</g>
</svg>
