<?xml version="1.0" standalone="no"?>
<!DOCTYPE svg PUBLIC "-//W3C//DTD SVG 20010904//EN"
 "http://www.w3.org/TR/2001/REC-SVG-20010904/DTD/svg10.dtd">
<svg version="1.0" xmlns="http://www.w3.org/2000/svg"
 width="1024" height="1024" viewBox="0 0 1024 1024"
 preserveAspectRatio="xMidYMid meet">
  <rect width="1024" height="1024" fill="white"/>
<metadata>
Created by potrace 1.16, written by Peter Selinger 2001-2019
</metadata>
<g transform="translate(0.000000,1024.000000) scale(0.100000,-0.100000)"
fill="#000000" stroke="none">
<path d="M0 5120 l0 -5120 5120 0 5120 0 0 5120 0 5120 -5120 0 -5120 0 0
-5120z m5259 3634 c59 -93 201 -324 315 -514 115 -190 212 -349 216 -353 9
-10 56 19 450 273 309 199 326 209 317 189 -66 -165 -290 -722 -388 -969 -72
-179 -164 -409 -206 -512 l-76 -188 -71 -68 c-39 -38 -136 -129 -216 -203 -80
-74 -221 -207 -314 -296 -94 -90 -174 -163 -178 -163 -4 0 -162 152 -350 339
-189 186 -353 343 -366 350 -31 16 -51 59 -212 461 -78 195 -188 465 -245 600
-118 278 -265 650 -258 650 2 0 24 -13 47 -29 65 -45 605 -391 652 -418 l42
-24 30 38 c16 21 165 256 332 523 166 267 306 490 312 497 21 26 61 -18 167
-183z m-3019 171 c0 -2 -33 -96 -74 -207 -84 -231 -166 -479 -166 -502 0 -21
66 -69 162 -117 l77 -39 180 43 c99 24 178 40 175 36 -3 -5 -89 -77 -192 -161
-103 -84 -261 -218 -352 -297 -91 -80 -166 -145 -168 -146 -1 -1 16 -51 39
-111 37 -99 136 -379 315 -893 35 -101 66 -187 69 -191 3 -4 -74 -116 -170
-249 -96 -133 -173 -241 -171 -241 2 0 61 25 132 56 71 30 179 76 239 101 61
25 182 81 271 125 l161 79 189 -99 c104 -55 220 -117 258 -137 l68 -37 225
-455 c123 -251 223 -457 221 -458 -3 -3 -395 113 -798 238 -435 134 -910 274
-1125 332 -211 56 -342 97 -356 112 -4 4 -13 143 -18 308 -23 615 -52 1402
-66 1770 -8 209 -16 423 -17 475 l-3 95 155 107 c256 177 711 468 733 468 4 0
7 -2 7 -5z m6076 -612 c120 -72 296 -172 389 -221 l170 -90 3 -45 c2 -24 -8
-154 -22 -288 -24 -231 -87 -881 -121 -1254 -9 -93 -22 -226 -30 -295 -8 -69
-24 -217 -35 -330 -11 -112 -26 -235 -32 -272 -10 -61 -13 -68 -37 -72 -198
-39 -1427 -281 -1486 -292 -44 -9 -198 -40 -342 -70 -145 -30 -266 -54 -271
-54 -4 0 94 206 219 458 l226 457 174 67 c96 36 204 76 240 89 l67 23 133 -81
c400 -242 507 -308 539 -329 43 -30 53 -30 45 -1 -10 32 -151 313 -191 378
-19 31 -34 64 -34 72 0 9 52 120 116 249 64 128 146 298 181 378 36 80 88 190
115 244 l50 99 -29 27 c-33 31 -333 304 -481 438 -60 54 -95 92 -85 92 10 0
88 -7 173 -14 171 -16 185 -13 258 49 31 26 31 27 17 62 -8 20 -40 122 -71
227 -30 105 -73 245 -93 311 -21 66 -42 131 -46 144 l-7 24 39 -24 c22 -13
138 -83 259 -156z m-4623 -1797 l347 -23 48 -44 c27 -24 268 -263 537 -531
l489 -487 41 32 c48 39 1022 994 1034 1015 7 13 77 19 402 38 217 13 401 23
409 23 9 1 4 -6 -11 -17 -15 -9 -68 -71 -119 -137 -260 -335 -760 -947 -1109
-1355 -162 -190 -626 -747 -644 -774 -5 -7 -15 -3 -30 15 -103 120 -299 357
-427 514 -85 105 -222 271 -305 370 -83 99 -207 250 -276 335 -70 85 -150 185
-180 221 -30 37 -110 136 -179 220 -68 85 -206 252 -307 371 -101 119 -183
223 -183 230 0 15 -31 16 463 -16z m827 -2186 c91 -69 262 -201 381 -292 l216
-165 294 230 c355 277 686 527 699 527 12 0 14 6 -124 -310 -64 -146 -135
-296 -158 -335 -141 -239 -353 -561 -630 -957 l-82 -117 -54 77 c-52 75 -125
185 -317 477 -50 77 -162 246 -247 375 -141 213 -162 251 -226 405 -39 94 -91
216 -116 273 -25 56 -46 107 -46 113 0 10 101 -65 410 -301z m1994 -727 c192
-154 564 -458 930 -758 l109 -90 219 -375 c121 -206 289 -498 374 -648 84
-150 190 -330 233 -400 68 -108 78 -129 66 -141 -16 -16 38 -37 -1095 424
-382 156 -738 300 -790 321 l-95 38 40 9 c95 22 540 139 551 145 23 13 -664
406 -1146 657 -157 82 -287 150 -289 151 -2 2 17 29 41 61 25 32 82 112 128
178 156 227 464 605 492 605 6 0 110 -80 232 -177z m-2429 95 c22 -34 158
-220 302 -412 l261 -350 -286 -151 c-532 -281 -1140 -634 -1127 -655 5 -8 150
-51 385 -114 128 -34 159 -45 140 -51 -14 -4 -340 -132 -725 -285 -729 -290
-1165 -460 -1165 -453 0 9 35 71 136 240 125 209 555 961 639 1115 54 100 66
115 174 212 166 148 297 258 626 522 160 128 337 271 395 318 58 47 112 86
120 86 8 0 26 9 40 20 14 11 30 20 35 20 6 0 28 -28 50 -62z"/>
<path d="M4266 7608 c8 -24 29 -90 45 -148 46 -156 96 -244 168 -294 22 -15
98 -52 170 -81 246 -100 270 -113 280 -154 5 -20 39 -155 76 -301 75 -302 105
-410 114 -410 7 0 120 433 170 648 16 68 30 124 32 126 2 2 51 20 109 41 150
53 217 88 308 161 100 79 142 145 183 279 17 55 35 113 41 128 6 15 9 29 7 32
-3 2 -25 -9 -49 -24 -25 -15 -139 -79 -255 -141 -115 -62 -283 -152 -372 -201
-89 -49 -168 -89 -176 -89 -7 0 -123 61 -258 136 -455 254 -599 334 -604 334
-2 0 3 -19 11 -42z"/>
</g>
</svg>
