<?xml version="1.0" standalone="no"?>
<!DOCTYPE svg PUBLIC "-//W3C//DTD SVG 20010904//EN"
 "http://www.w3.org/TR/2001/REC-SVG-20010904/DTD/svg10.dtd">
<svg version="1.0" xmlns="http://www.w3.org/2000/svg"
 width="1024" height="1024" viewBox="0 0 1024 1024"
 preserveAspectRatio="xMidYMid meet">
  <rect width="1024" height="1024" fill="white"/>
<metadata>
Created by potrace 1.16, written by Peter Selinger 2001-2019
</metadata>
<g transform="translate(0.000000,1536.000000) scale(0.100000,-0.100000)"
fill="#000000" stroke="none">
<path d="M0 7680 l0 -7680 5120 0 5120 0 0 7680 0 7680 -5120 0 -5120 0 0
-7680z m5139 4890 c303 -374 448 -593 601 -905 125 -254 191 -442 254 -725 84
-380 101 -727 64 -1330 -5 -96 -13 -359 -17 -583 l-6 -408 -112 135 c-440 527
-633 890 -736 1386 l-34 165 -13 -40 c-21 -67 -136 -286 -218 -417 -103 -164
-207 -308 -461 -637 -350 -453 -479 -639 -609 -878 -158 -290 -273 -637 -337
-1019 -14 -81 -26 -149 -28 -150 -1 -1 -54 65 -117 148 -382 498 -520 746
-596 1074 -25 107 -28 138 -28 304 -1 145 3 203 18 270 42 195 121 381 254
608 378 639 522 984 581 1396 l17 119 41 -79 c127 -243 183 -493 183 -807 0
-138 -4 -197 -26 -382 l-7 -60 50 65 c227 299 574 883 733 1230 154 336 251
652 302 975 19 119 22 182 23 420 0 154 -3 307 -7 340 l-8 60 61 -65 c33 -36
113 -130 178 -210z m1777 -2090 c51 -257 170 -557 434 -1100 87 -179 170 -358
184 -398 121 -341 129 -730 21 -1041 -84 -242 -211 -440 -532 -830 l-118 -145
-8 60 c-42 330 -107 597 -286 1165 -58 185 -92 331 -122 529 -19 121 -23 187
-23 400 0 272 11 384 60 630 60 300 183 659 307 894 l42 79 8 -59 c5 -33 19
-115 33 -184z m-1375 -2220 c544 -752 948 -1321 949 -1335 0 -5 -48 -73 -107
-150 -351 -460 -1097 -1462 -1227 -1647 l-39 -58 -17 28 c-9 15 -64 91 -121
168 -57 78 -268 365 -469 639 -201 274 -454 617 -562 763 l-198 266 23 30 c46
61 1218 1713 1296 1826 l45 66 31 -46 c17 -25 195 -272 396 -550z m-3388 126
c81 -100 243 -302 360 -450 207 -263 325 -411 855 -1071 789 -984 1103 -1407
1322 -1785 201 -347 368 -746 429 -1025 10 -46 7 -51 56 115 122 418 336 862
590 1225 168 240 307 405 889 1056 465 520 699 792 1067 1240 346 421 612 738
620 738 18 2 -98 -735 -166 -1054 -85 -393 -266 -934 -377 -1123 -63 -108
-273 -299 -563 -512 -155 -114 -887 -682 -883 -686 2 -1 156 24 343 57 342 60
509 96 664 143 46 14 86 24 88 23 4 -5 -391 -393 -587 -577 -410 -383 -784
-748 -1002 -977 -342 -358 -458 -498 -626 -751 -52 -79 -98 -140 -102 -135 -4
4 -39 57 -79 117 -262 394 -593 750 -1351 1454 -379 352 -910 873 -910 893 0
4 21 2 48 -6 26 -8 101 -26 167 -40 132 -29 928 -175 932 -171 2 2 -341 252
-807 588 -322 232 -510 386 -593 485 -27 32 -73 108 -102 168 -61 125 -216
579 -270 790 -85 334 -175 844 -220 1255 -13 124 -27 243 -29 264 l-4 39 46
-53 c26 -29 114 -135 195 -234z"/>
<path d="M4848 7198 c-299 -446 -291 -434 -281 -451 4 -6 104 -145 223 -307
119 -162 241 -330 270 -372 30 -43 57 -78 60 -78 3 1 39 49 79 108 41 59 167
232 279 385 l203 277 -76 113 c-42 61 -168 248 -278 414 -111 166 -205 303
-209 303 -4 0 -126 -177 -270 -392z"/>
</g>
</svg>
