<?xml version="1.0" standalone="no"?>
<!DOCTYPE svg PUBLIC "-//W3C//DTD SVG 20010904//EN"
 "http://www.w3.org/TR/2001/REC-SVG-20010904/DTD/svg10.dtd">
<svg version="1.0" xmlns="http://www.w3.org/2000/svg"
 width="1024" height="1024" viewBox="0 0 1024 1024"
 preserveAspectRatio="xMidYMid meet">
  <rect width="1024" height="1024" fill="white"/>
<metadata>
Created by potrace 1.16, written by Peter Selinger 2001-2019
</metadata>
<g transform="translate(0.000000,1024.000000) scale(0.100000,-0.100000)"
fill="#000000" stroke="none">
<path d="M0 5120 l0 -5120 5120 0 5120 0 0 5120 0 5120 -5120 0 -5120 0 0
-5120z m5301 4097 c151 -207 409 -596 528 -794 l103 -173 -122 -342 c-67 -189
-142 -401 -168 -473 -59 -165 -200 -618 -195 -625 3 -3 8 2 13 10 5 8 70 94
146 190 590 751 822 1032 1027 1245 74 77 137 138 140 135 2 -3 69 -202 147
-443 114 -353 139 -441 130 -452 -24 -29 -520 -395 -753 -556 -329 -228 -709
-484 -987 -665 l-235 -154 -34 67 c-117 231 -651 1361 -651 1379 0 8 16 56 36
107 276 710 485 1260 634 1671 l44 120 46 -52 c26 -29 94 -117 151 -195z
m-1501 -674 c70 -84 172 -211 228 -282 l102 -131 -55 -241 c-30 -132 -55 -246
-55 -253 0 -8 140 -298 310 -646 171 -348 309 -634 308 -636 -7 -6 -429 328
-604 479 -239 206 -368 341 -537 562 -191 249 -227 305 -227 355 0 62 40 198
105 360 81 200 208 497 241 561 22 44 27 49 41 37 9 -7 74 -81 143 -165z
m-1262 -929 c308 -160 288 -144 599 -456 l282 -283 -166 -121 c-92 -66 -170
-127 -174 -135 -4 -8 -12 -117 -18 -244 -12 -257 -32 -557 -38 -552 -6 7 -345
962 -463 1307 -65 190 -136 396 -158 458 -23 61 -38 112 -35 112 4 0 80 -39
171 -86z m5098 -650 c-251 -750 -321 -951 -374 -1074 l-37 -85 -6 100 c-3 55
-12 228 -20 385 -13 284 -13 285 -39 308 -14 13 -92 78 -173 145 -117 95 -145
123 -135 132 7 7 141 109 298 227 157 118 380 287 495 375 116 89 211 160 213
158 1 -1 -98 -303 -222 -671z m-969 -529 c51 -183 183 -701 183 -722 0 -15
-31 -28 -167 -71 -93 -29 -388 -124 -656 -210 l-488 -156 -74 -230 c-73 -224
-75 -232 -75 -330 0 -93 31 -687 46 -887 l6 -85 -161 -113 -161 -112 -158 109
-157 109 0 54 c1 30 15 205 33 389 17 184 36 397 43 472 l11 137 -65 158 c-36
87 -80 199 -98 248 -18 50 -34 91 -35 93 -2 4 -177 60 -745 237 -218 69 -435
138 -482 155 -84 31 -85 32 -77 58 5 15 36 117 69 227 33 110 81 265 106 345
26 80 51 160 56 178 12 38 5 39 154 -20 210 -83 485 -210 908 -420 l438 -218
527 264 c634 317 954 469 976 463 5 -2 24 -57 43 -122z m-4062 -794 c175 -129
278 -210 334 -259 l54 -48 -12 -105 c-7 -57 -28 -237 -47 -399 l-36 -295 17
-95 c10 -52 22 -106 27 -120 9 -25 9 -25 -10 -5 -10 11 -67 75 -126 143 l-108
122 -33 143 c-19 78 -56 246 -84 372 -28 127 -73 329 -101 449 -27 121 -50
222 -50 224 0 2 17 -9 38 -25 20 -15 82 -61 137 -102z m5186 37 c-27 -98 -85
-362 -167 -764 l-67 -332 -116 -150 c-64 -83 -117 -149 -118 -148 -2 2 7 50
18 107 25 118 28 72 -47 652 l-35 268 58 65 c36 40 138 124 273 223 118 87
216 157 218 156 2 -2 -6 -36 -17 -77z m-1210 -505 c-14 -26 -173 -203 -303
-338 l-113 -117 -173 86 c-94 47 -172 88 -172 90 0 12 133 106 176 124 28 12
120 37 205 56 192 44 281 69 339 95 25 11 46 20 48 20 1 1 -2 -7 -7 -16z
m-2746 -43 c339 -87 447 -122 521 -172 39 -26 76 -53 82 -61 8 -10 -29 -30
-172 -95 -101 -45 -186 -82 -189 -82 -3 0 -83 89 -178 198 -95 108 -184 210
-198 226 -23 25 -24 28 -6 22 11 -3 74 -19 140 -36z m3140 -407 c-6 -226 -7
-229 -36 -290 -21 -44 -108 -154 -312 -392 l-282 -330 -29 -188 c-15 -103 -64
-394 -107 -646 -43 -252 -79 -463 -79 -470 0 -6 63 110 139 258 244 477 596
1123 607 1113 3 -3 -47 -635 -65 -821 l-10 -97 -178 -193 c-201 -217 -493
-535 -824 -897 l-225 -245 -254 -7 c-140 -3 -340 -4 -443 -1 l-188 6 -162 171
c-203 215 -966 1039 -1029 1113 -27 30 -48 62 -48 71 0 9 -11 121 -25 247 -22
203 -55 594 -55 650 0 23 -10 39 167 -254 79 -131 209 -376 359 -675 130 -259
241 -475 246 -481 11 -11 12 -19 -37 250 -113 628 -156 873 -171 979 l-17 119
-286 326 c-310 355 -339 391 -351 447 -7 31 -2 454 5 454 10 0 552 -299 788
-435 l117 -67 172 76 c94 42 172 75 174 73 2 -1 -4 -209 -12 -461 -8 -253 -14
-487 -12 -520 l3 -61 300 -211 300 -211 155 105 c85 57 227 156 315 218 l160
113 -7 193 c-3 106 -12 339 -18 517 -6 178 -10 324 -8 326 2 1 79 -33 172 -77
l169 -79 121 69 c105 60 408 229 701 390 50 28 94 50 99 51 4 1 5 -101 1 -226z"/>
<path d="M4270 3056 c0 -9 228 -176 342 -250 l117 -76 399 0 398 0 85 58 c185
127 306 213 339 241 l35 30 -857 1 c-472 0 -858 -2 -858 -4z"/>
<path d="M4903 2210 c121 -124 222 -226 226 -228 6 -2 441 442 441 450 0 2
-200 3 -444 3 l-443 0 220 -225z"/>
</g>
</svg>
