<?xml version="1.0" standalone="no"?>
<!DOCTYPE svg PUBLIC "-//W3C//DTD SVG 20010904//EN"
 "http://www.w3.org/TR/2001/REC-SVG-20010904/DTD/svg10.dtd">
<svg version="1.0" xmlns="http://www.w3.org/2000/svg"
 width="1024" height="1024" viewBox="0 0 1024 1024"
 preserveAspectRatio="xMidYMid meet">
  <rect width="1024" height="1024" fill="white"/>
<metadata>
Created by potrace 1.16, written by Peter Selinger 2001-2019
</metadata>
<g transform="translate(0.000000,1024.000000) scale(0.100000,-0.100000)"
fill="#000000" stroke="none">
<path d="M0 5120 l0 -5120 5120 0 5120 0 0 5120 0 5120 -5120 0 -5120 0 0
-5120z m2819 4048 c73 -219 84 -278 84 -448 0 -172 -11 -222 -84 -381 -71
-156 -93 -250 -86 -361 7 -105 29 -185 112 -413 136 -372 130 -439 -65 -715
-116 -162 -138 -211 -207 -440 -4 -12 -8 -10 -21 8 -8 13 -55 72 -103 132
-178 221 -205 275 -196 399 6 95 40 174 123 286 185 248 206 301 167 422 -16
46 -33 70 -33 44 0 -14 -81 -131 -91 -131 -5 0 -9 17 -9 38 0 20 -16 96 -35
167 -46 171 -59 282 -45 402 13 119 37 178 150 369 50 84 110 195 135 246 78
165 135 367 135 478 0 27 4 50 9 50 4 0 31 -69 60 -152z m2706 -644 c382 -508
470 -629 499 -689 13 -27 48 -149 76 -270 68 -285 137 -537 206 -754 l56 -174
-24 -22 c-13 -13 -138 -103 -278 -201 -140 -97 -329 -229 -418 -291 -147 -103
-195 -129 -165 -91 6 7 70 90 144 183 73 94 187 237 253 320 67 82 126 157
133 166 17 22 -14 153 -117 494 l-81 270 -47 42 c-26 24 -156 129 -289 234
-133 105 -248 198 -254 205 -10 12 -36 -9 -143 -113 -72 -71 -192 -180 -266
-244 -74 -64 -140 -122 -146 -130 -19 -23 -265 -711 -260 -725 16 -43 329
-456 552 -730 73 -90 129 -164 124 -164 -5 0 -11 4 -15 10 -3 5 -117 98 -253
207 -219 176 -442 365 -615 525 l-58 53 81 355 c154 680 193 845 205 870 7 14
144 196 305 405 161 209 337 440 393 513 55 72 103 132 106 132 3 -1 137 -174
296 -386z m-2336 -497 c17 -74 60 -160 177 -359 140 -236 148 -258 141 -373
-7 -111 -38 -236 -83 -334 -61 -133 -233 -280 -463 -395 -51 -26 -96 -44 -99
-41 -12 12 41 94 129 201 181 219 231 386 180 599 -11 44 -40 143 -65 220 -53
166 -76 256 -76 308 0 94 62 295 117 376 18 26 18 26 25 -64 3 -49 11 -112 17
-138z m-1166 6 c3 -10 22 -63 42 -117 51 -142 66 -221 69 -386 l3 -145 -39
-78 c-21 -43 -53 -119 -69 -170 -29 -84 -31 -100 -27 -199 l3 -108 68 -131
c38 -72 67 -132 65 -134 -2 -2 -46 22 -98 52 -164 97 -281 237 -309 371 -14
69 -14 230 0 290 11 43 32 94 171 408 48 111 98 280 98 335 0 32 15 39 23 12z
m2825 -745 c26 -18 97 -58 157 -88 110 -55 110 -56 108 -90 -1 -19 -4 -80 -7
-135 -5 -111 -3 -109 -75 -68 -54 31 -232 205 -254 248 -27 54 -30 97 -7 133
11 17 22 32 26 32 3 0 26 -15 52 -32z m846 10 c21 -29 20 -54 -4 -107 -43 -94
-166 -217 -291 -292 -36 -21 -68 -39 -72 -39 -4 0 -6 59 -5 132 l3 132 105 64
c144 88 223 132 237 132 6 0 19 -10 27 -22z m941 -908 c35 -9 167 -21 788 -72
81 -6 147 -14 147 -17 -1 -3 -36 -24 -78 -45 -169 -86 -1989 -1187 -2262
-1369 -157 -104 -293 -197 -303 -206 -21 -18 0 -38 -327 313 -102 109 -393
404 -647 655 -255 252 -463 462 -463 467 0 6 26 18 57 28 31 10 155 56 277
101 182 69 223 82 240 73 87 -46 342 -285 502 -472 70 -81 174 -197 232 -257
57 -60 98 -109 90 -109 -21 0 -117 34 -166 59 -23 12 -42 19 -42 17 0 -9 192
-332 205 -345 11 -11 35 6 157 110 160 139 253 215 378 310 145 110 1134 768
1155 768 11 0 38 -4 60 -9z m-4615 -273 l125 -73 17 -129 c10 -82 21 -131 30
-136 7 -4 73 -51 146 -104 l133 -98 79 34 c128 55 124 48 105 159 -16 100 -20
240 -7 240 4 0 53 -38 110 -85 l102 -85 0 -180 0 -179 -52 -39 c-107 -78 -295
-201 -358 -232 l-64 -32 -15 23 c-18 29 -152 162 -285 283 -53 49 -105 100
-113 113 -9 14 -22 64 -30 111 -12 84 -63 464 -63 476 0 13 19 3 140 -67z
m5212 -497 c82 -122 196 -325 298 -530 34 -69 77 -150 96 -181 36 -60 43 -89
21 -89 -15 0 -258 -143 -356 -209 l-63 -43 -62 59 c-70 69 -369 331 -436 383
-25 19 -86 69 -135 110 -50 41 -101 83 -115 93 l-25 17 29 23 c17 12 77 58
135 101 58 44 198 149 310 233 112 85 208 152 215 151 6 -2 46 -55 88 -118z
m-3487 -105 c49 -60 118 -143 154 -184 36 -41 83 -93 104 -117 l38 -43 -37
-123 c-29 -101 -89 -265 -204 -563 l-12 -30 -22 65 c-52 151 -137 292 -243
401 l-64 66 30 94 c43 135 151 518 151 536 0 25 14 12 105 -102z m-936 -372
c25 -14 134 -84 241 -153 107 -70 236 -152 285 -183 50 -30 115 -78 145 -105
l54 -49 -48 -184 c-104 -396 -191 -696 -206 -713 -4 -4 -32 27 -61 70 -29 44
-110 160 -180 260 -278 397 -600 895 -581 902 16 5 244 143 271 164 30 23 26
23 80 -9z m1442 -173 c120 -136 451 -489 563 -599 l95 -95 58 42 c66 49 215
147 574 382 139 91 318 211 398 268 79 56 150 102 156 102 6 0 42 -48 79 -107
l68 -107 -20 -41 c-11 -22 -57 -92 -103 -155 -132 -183 -183 -259 -237 -354
-30 -52 -63 -96 -80 -106 -15 -10 -87 -43 -158 -74 -171 -76 -333 -161 -531
-279 -89 -54 -169 -100 -177 -103 -16 -6 -141 83 -326 232 -159 127 -166 136
-194 235 -45 161 -247 802 -261 830 -8 15 -15 34 -15 41 0 14 -4 19 111 -112z
m3719 -386 c0 -18 -280 -1487 -284 -1491 -1 -2 -87 81 -189 183 -116 116 -187
194 -187 206 0 11 -15 86 -34 166 -59 249 -126 566 -126 593 0 22 7 28 43 38
23 7 100 40 170 73 124 58 569 236 595 237 6 1 12 -2 12 -5z m-2071 -696 c52
-188 53 -170 -16 -241 -33 -34 -149 -163 -259 -287 -182 -205 -458 -500 -476
-508 -5 -2 -8 1 -8 8 0 6 -22 137 -50 291 -27 154 -50 283 -50 287 0 11 153
119 435 305 138 91 277 185 310 210 33 25 65 46 71 46 7 1 26 -50 43 -111z
m-1296 -418 c80 -206 170 -445 202 -530 31 -85 126 -328 210 -540 84 -212 206
-529 270 -705 95 -258 197 -520 242 -625 4 -8 -22 10 -58 41 -35 30 -125 107
-199 169 -165 140 -422 365 -470 412 -33 33 -38 46 -97 289 -35 140 -74 306
-89 369 -14 63 -60 243 -101 400 -41 157 -79 303 -85 324 l-10 39 -48 -74
c-225 -347 -325 -492 -515 -744 -343 -456 -430 -560 -689 -823 -132 -133 -241
-240 -244 -237 -12 11 361 663 558 975 64 102 134 214 155 250 39 66 247 404
360 585 34 55 86 143 115 195 30 52 86 147 126 211 78 126 163 290 184 354 16
52 21 58 31 48 5 -5 73 -177 152 -383z m1497 -66 c0 -27 716 -1446 845 -1674
192 -339 294 -525 290 -528 -2 -2 -113 80 -247 182 -508 386 -880 761 -1333
1344 l-48 62 20 23 c11 12 59 76 105 142 46 66 123 173 170 237 48 65 106 147
129 183 33 52 45 63 55 54 8 -6 14 -18 14 -25z m1201 -201 c42 -43 113 -123
159 -178 46 -55 100 -118 121 -140 l37 -40 -14 -110 c-17 -136 -60 -282 -88
-300 -12 -8 -97 -46 -191 -86 -260 -110 -265 -111 -281 -98 -22 18 -18 29 37
104 28 39 69 101 91 138 22 37 53 83 70 102 l30 35 -11 67 c-14 78 -50 195
-59 191 -4 -2 -45 -28 -92 -59 -154 -101 -159 -103 -166 -82 -3 10 -17 44 -30
75 -14 32 -30 83 -37 114 -10 48 -9 57 4 64 32 18 227 181 274 229 27 28 54
51 60 51 6 0 44 -35 86 -77z"/>
</g>
</svg>
