<?xml version="1.0" standalone="no"?>
<!DOCTYPE svg PUBLIC "-//W3C//DTD SVG 20010904//EN"
 "http://www.w3.org/TR/2001/REC-SVG-20010904/DTD/svg10.dtd">
<svg version="1.0" xmlns="http://www.w3.org/2000/svg"
 width="1024" height="1024" viewBox="0 0 1024 1024"
 preserveAspectRatio="xMidYMid meet">
  <rect width="1024" height="1024" fill="white"/>
<metadata>
Created by potrace 1.16, written by Peter Selinger 2001-2019
</metadata>
<g transform="translate(0.000000,1024.000000) scale(0.100000,-0.100000)"
fill="#000000" stroke="none">
<path d="M0 5120 l0 -5120 5120 0 5120 0 0 5120 0 5120 -5120 0 -5120 0 0
-5120z m4943 4506 c295 -222 479 -466 548 -726 19 -70 23 -112 23 -240 1 -231
-28 -345 -190 -738 -167 -406 -212 -629 -169 -837 16 -77 109 -274 195 -413
l52 -83 62 79 c77 97 204 285 281 414 l57 98 -36 127 c-53 184 -69 295 -63
433 8 185 65 342 186 517 107 154 99 151 93 35 -12 -257 55 -448 274 -777 164
-246 217 -365 250 -564 19 -110 15 -280 -9 -348 -27 -79 -375 -530 -591 -765
-64 -70 -116 -129 -116 -132 0 -5 65 20 255 101 157 66 512 240 576 281 45 29
46 30 59 108 32 202 99 421 166 543 33 61 165 253 170 248 1 -1 -5 -36 -13
-77 -23 -119 -12 -282 32 -470 65 -282 68 -299 68 -440 0 -162 -19 -244 -88
-384 -83 -166 -194 -301 -650 -791 -297 -320 -415 -449 -665 -730 -149 -168
-534 -606 -556 -634 -2 -2 -14 9 -26 25 -13 16 -82 94 -153 174 -510 567 -710
788 -1000 1105 -409 446 -452 495 -552 621 -132 167 -201 293 -255 464 -20 67
-23 94 -23 250 1 170 2 180 44 365 38 168 44 208 49 348 7 225 -22 376 -105
541 -19 37 -33 70 -31 71 8 8 229 -158 300 -224 198 -185 277 -362 308 -686 5
-60 10 -133 10 -160 l0 -51 133 -71 c261 -141 1201 -598 1191 -580 -27 47
-135 194 -229 312 -124 155 -297 354 -659 759 -317 353 -377 429 -436 551 -59
122 -74 194 -67 323 10 194 114 397 331 649 96 111 296 314 296 300 0 -4 -7
-22 -16 -39 -26 -49 -83 -213 -114 -327 -77 -281 -80 -420 -12 -626 l26 -80 9
35 c68 253 192 524 335 732 48 70 133 195 189 277 99 146 185 305 218 405 72
220 69 479 -8 672 -19 46 -32 84 -30 84 3 0 37 -24 76 -54z m-1453 -4835 c290
-256 663 -658 1090 -1175 336 -406 508 -612 539 -640 30 -29 31 -29 52 -10 12
10 148 177 303 369 531 662 716 876 1016 1175 166 167 454 429 479 438 5 1
-93 -194 -216 -435 -245 -478 -347 -683 -341 -687 1 -2 109 84 238 190 129
107 240 194 246 194 6 0 130 -43 275 -96 283 -103 760 -263 847 -285 28 -7 52
-16 52 -21 0 -15 -135 -120 -670 -522 -516 -388 -750 -560 -750 -551 0 2 81
174 180 381 99 207 178 379 176 381 -11 11 -419 -205 -671 -355 -265 -158
-785 -508 -785 -528 0 -7 241 -334 251 -340 9 -5 388 219 522 307 31 21 57 36
57 34 0 -31 -1208 -1876 -1228 -1875 -8 1 -23 22 -377 550 -149 223 -340 513
-425 645 -157 245 -420 671 -420 680 0 3 120 -75 268 -173 147 -98 272 -181
279 -185 7 -5 58 56 140 170 70 97 132 182 136 190 13 21 -491 347 -873 565
-164 94 -589 312 -596 306 -3 -4 345 -703 373 -746 l14 -23 -33 17 c-58 29
-1294 932 -1421 1037 l-48 40 208 63 c220 66 426 136 765 261 l208 76 37 -29
c104 -77 424 -323 466 -357 26 -21 47 -36 47 -33 0 4 -105 203 -233 444 -287
536 -377 708 -377 717 0 8 71 -50 200 -164z m-666 -1802 c160 -117 293 -213
294 -215 2 -1 -22 -33 -53 -71 -32 -37 -101 -120 -154 -183 -53 -63 -120 -140
-148 -171 -29 -31 -53 -61 -53 -67 0 -7 69 -99 153 -204 280 -351 793 -1025
786 -1032 -14 -14 -1332 872 -1483 997 l-30 24 48 159 c82 270 330 974 344
974 2 0 135 -95 296 -211z m4916 190 c0 -6 40 -119 89 -252 69 -188 211 -607
285 -844 6 -19 -7 -32 -91 -96 -285 -215 -1383 -951 -1397 -936 -7 7 582 782
842 1109 l100 125 -28 35 c-15 19 -71 85 -124 145 -52 61 -131 153 -175 206
l-79 95 270 200 c148 109 274 204 280 211 13 16 28 17 28 2z"/>
<path d="M3840 5780 c0 -57 94 -390 152 -538 48 -124 34 -113 332 -261 l202
-102 122 43 c67 23 123 40 125 37 2 -2 92 -224 200 -494 170 -427 197 -487
205 -465 5 14 27 66 47 115 21 50 102 250 182 445 79 195 147 358 151 362 5 5
45 -5 90 -22 46 -16 92 -30 104 -30 12 0 121 57 244 126 l222 127 41 86 c46
99 70 162 106 281 29 95 65 250 59 250 -3 0 -39 -20 -82 -44 -42 -24 -207
-112 -367 -196 -378 -198 -574 -310 -590 -335 -17 -25 -178 -482 -196 -552 -7
-29 -15 -53 -18 -53 -6 0 -18 34 -143 403 l-81 237 -111 64 c-162 94 -403 223
-631 338 -110 55 -237 120 -282 145 -46 25 -83 39 -83 33z"/>
<path d="M5117 2708 c-14 -18 -83 -127 -154 -243 -71 -115 -143 -232 -160
-258 l-30 -49 184 -291 c101 -161 186 -292 188 -292 7 0 368 569 368 580 0 9
-253 411 -338 538 l-33 49 -25 -34z"/>
</g>
</svg>
