<?xml version="1.0" standalone="no"?>
<!DOCTYPE svg PUBLIC "-//W3C//DTD SVG 20010904//EN"
 "http://www.w3.org/TR/2001/REC-SVG-20010904/DTD/svg10.dtd">
<svg version="1.0" xmlns="http://www.w3.org/2000/svg"
 width="1024" height="1024" viewBox="0 0 1024 1024"
 preserveAspectRatio="xMidYMid meet">
  <rect width="1024" height="1024" fill="white"/>
<metadata>
Created by potrace 1.16, written by Peter Selinger 2001-2019
</metadata>
<g transform="translate(0.000000,1536.000000) scale(0.100000,-0.100000)"
fill="#000000" stroke="none">
<path d="M0 7680 l0 -7680 5120 0 5120 0 0 7680 0 7680 -5120 0 -5120 0 0
-7680z m4937 4929 c48 -34 111 -76 140 -95 29 -19 78 -65 110 -102 32 -38 105
-122 163 -188 58 -66 123 -143 145 -170 22 -27 89 -107 148 -178 80 -95 107
-135 104 -150 -2 -12 -21 -95 -41 -186 -56 -250 -93 -429 -100 -485 -4 -27 -9
-57 -11 -65 -2 -8 -9 -59 -15 -113 -11 -109 -4 -201 17 -223 11 -11 12 -14 1
-14 -10 -1 -9 -4 2 -13 26 -21 143 -150 185 -202 22 -27 61 -72 86 -100 26
-27 57 -70 69 -95 12 -25 24 -47 26 -49 5 -5 58 54 93 104 130 185 201 424
242 810 l12 120 25 -55 c70 -158 120 -301 131 -375 53 -379 60 -483 36 -540
-9 -22 -43 -110 -75 -195 -32 -85 -79 -204 -104 -265 -25 -60 -46 -121 -46
-135 0 -14 9 -63 19 -110 10 -47 24 -122 32 -168 l13 -82 39 62 c118 185 155
233 270 345 67 66 187 186 266 267 79 81 145 146 147 144 2 -2 -30 -112 -71
-244 -41 -131 -93 -304 -115 -384 -23 -80 -82 -271 -132 -425 -95 -294 -117
-370 -197 -680 -27 -104 -61 -233 -75 -285 -14 -52 -26 -106 -26 -119 0 -33
-58 -100 -320 -366 -218 -221 -336 -345 -376 -392 -10 -13 -25 -23 -33 -23 -8
0 -11 -3 -7 -7 3 -4 -2 -12 -13 -17 -38 -21 -143 -120 -174 -165 -60 -88 -164
-195 -260 -267 -34 -25 -66 -52 -70 -60 -4 -8 -15 -14 -23 -14 -9 0 -14 -7
-12 -17 5 -30 -24 -19 -102 38 -103 76 -258 222 -346 326 -41 48 -130 142
-197 208 -67 66 -225 228 -352 360 -126 132 -256 266 -287 299 -41 41 -58 66
-58 85 0 80 -137 555 -252 876 -96 266 -197 581 -238 740 -37 142 -125 432
-151 493 -5 13 -9 27 -9 31 0 5 131 -123 291 -285 258 -259 300 -306 367 -409
57 -87 78 -111 82 -98 4 10 14 65 24 123 10 58 24 133 32 168 l15 63 -32 62
c-45 90 -141 270 -149 282 -4 6 -26 46 -50 90 -24 44 -54 100 -67 124 -29 52
-28 59 16 226 35 130 74 210 233 485 174 299 211 361 213 358 1 -2 -2 -73 -6
-158 -8 -165 -6 -625 4 -675 32 -171 91 -313 146 -351 19 -14 22 -13 31 8 5
13 34 127 65 253 30 127 65 259 76 295 11 36 21 75 24 87 2 12 8 31 14 42 6
11 11 29 11 40 0 12 5 21 11 21 5 0 7 5 4 10 -4 6 8 26 27 44 52 52 180 194
239 266 30 36 57 67 60 70 4 3 31 40 62 82 111 155 136 321 102 668 -17 182
-40 318 -65 383 -11 27 -22 71 -26 96 -4 25 -24 76 -45 113 -36 61 -46 88 -34
88 2 0 44 -27 92 -61z m-1135 -5324 c3 -3 -19 -74 -49 -158 -30 -83 -60 -168
-66 -187 -6 -19 -17 -43 -26 -53 -13 -16 -11 -21 21 -55 19 -20 56 -71 83
-112 26 -41 52 -82 59 -92 36 -53 497 -538 506 -533 4 3 16 -5 26 -18 l19 -22
-22 19 c-13 11 -23 15 -23 10 0 -12 80 -91 85 -84 2 3 7 1 12 -4 5 -5 3 -6 -4
-2 -24 13 -13 -3 30 -46 23 -23 47 -43 52 -43 6 0 10 -5 10 -11 0 -11 26 -41
185 -208 253 -268 359 -354 418 -342 15 4 36 8 47 10 68 14 141 74 305 256 52
58 156 168 231 245 116 118 211 224 338 372 13 15 17 19 10 8 -28 -42 45 33
219 223 98 106 198 225 224 265 25 40 58 85 72 100 30 33 32 43 10 87 -24 48
-133 368 -127 373 8 8 53 -9 168 -63 207 -98 250 -118 460 -210 448 -197 773
-353 781 -375 7 -16 -6 -40 -66 -120 -20 -27 -70 -97 -111 -155 -243 -344
-819 -1123 -861 -1165 -30 -29 -48 -42 -44 -30 14 37 47 198 78 370 24 137 31
206 34 358 2 103 1 187 -3 187 -5 0 -42 -39 -83 -87 -41 -47 -123 -141 -181
-207 -114 -130 -376 -439 -609 -717 -80 -95 -217 -259 -305 -363 -88 -105
-194 -234 -235 -286 -41 -52 -91 -115 -112 -139 -21 -24 -38 -48 -38 -52 0
-13 33 -11 55 4 11 8 38 21 60 29 22 9 147 68 278 132 225 109 328 165 459
249 31 21 59 37 62 37 10 0 -14 -52 -66 -138 -28 -48 -79 -134 -113 -192 -34
-58 -120 -199 -190 -315 -70 -115 -143 -237 -162 -270 -20 -33 -52 -85 -71
-115 -52 -80 -65 -101 -222 -360 -79 -129 -175 -288 -214 -352 -39 -65 -74
-118 -77 -118 -3 0 -22 26 -41 58 -97 161 -340 561 -450 742 -263 434 -583
967 -605 1010 -30 59 -11 65 55 18 178 -129 872 -464 872 -422 0 19 -204 268
-421 514 -32 36 -124 142 -206 235 -81 94 -152 175 -158 181 -5 6 -80 91 -165
189 -85 98 -193 222 -240 275 -47 52 -154 175 -239 273 -84 97 -158 177 -164
177 -6 0 -8 -68 -4 -192 4 -146 12 -228 31 -338 15 -80 31 -170 36 -200 6 -30
19 -88 29 -128 l19 -73 -41 38 c-23 20 -86 103 -141 183 -97 143 -164 236
-473 662 -87 119 -207 287 -268 373 -60 87 -120 170 -132 185 -45 55 -39 61
151 154 95 47 176 86 179 86 3 0 58 25 123 56 66 31 124 57 129 58 6 1 25 10
44 20 18 10 115 53 215 96 99 43 253 111 341 152 200 94 197 92 207 83z m423
-255 c3 -5 1 -10 -4 -10 -6 0 -11 5 -11 10 0 6 2 10 4 10 3 0 8 -4 11 -10z
m104 -77 c73 -66 209 -202 396 -392 164 -167 261 -218 416 -220 77 -1 92 2
145 29 89 45 181 119 296 237 158 163 201 205 241 238 20 17 59 50 87 73 31
28 48 37 44 25 -12 -33 -87 -158 -103 -171 -10 -9 -11 -11 -2 -6 11 6 13 3 7
-12 -4 -10 -9 -27 -11 -37 -2 -9 -7 -22 -11 -28 -4 -8 1 -9 17 -4 13 4 26 12
27 16 2 5 7 7 12 4 8 -5 59 47 93 95 12 18 11 12 -4 -20 -29 -61 -129 -205
-230 -333 -46 -57 -140 -185 -209 -283 -133 -189 -334 -446 -394 -503 -34 -33
-36 -34 -36 -12 0 12 -4 20 -9 17 -11 -7 -73 54 -118 115 -93 126 -163 224
-303 419 -85 118 -156 217 -160 220 -22 20 -184 248 -185 261 -1 9 -11 29 -23
44 -43 55 -9 39 47 -22 45 -50 58 -59 68 -48 10 10 9 16 -2 25 -8 7 -15 18
-14 24 0 7 2 6 6 -1 2 -7 9 -13 14 -13 18 0 9 27 -17 51 -14 13 -38 44 -52 69
-14 25 -45 72 -68 105 -43 63 -62 105 -46 105 5 0 42 -30 81 -67z m-47 -228
c5 -11 -2 -6 -16 10 -14 17 -25 35 -25 40 0 11 25 -20 41 -50z m1646 41 c-2 0
-14 -10 -27 -21 l-24 -20 18 27 c9 15 21 25 27 22 5 -3 8 -7 6 -8z m-1608 -91
c0 -8 -2 -15 -4 -15 -2 0 -6 7 -10 15 -3 8 -1 15 4 15 6 0 10 -7 10 -15z
m-106 -444 c-4 -4 -11 4 -98 104 l-68 80 85 -90 c47 -49 83 -92 81 -94z m1976
166 c0 -2 -12 -14 -27 -28 l-28 -24 24 28 c23 25 31 32 31 24z m-82 -97 c-12
-16 -26 -30 -32 -30 -5 0 3 14 19 30 16 17 30 30 32 30 2 0 -6 -13 -19 -30z
m-1853 -110 c10 -11 16 -20 13 -20 -3 0 -13 9 -23 20 -10 11 -16 20 -13 20 3
0 13 -9 23 -20z m46 -47 c13 -16 12 -17 -3 -4 -10 7 -18 15 -18 17 0 8 8 3 21
-13z m-1835 -565 c74 -95 323 -400 350 -429 13 -14 24 -30 24 -36 0 -11 -111
-110 -350 -312 -74 -63 -137 -117 -140 -120 -26 -31 -362 -310 -357 -298 3 8
9 33 13 54 3 21 29 103 56 183 95 277 285 860 319 978 7 23 18 42 24 42 7 0
34 -28 61 -62z m5407 -50 c117 -368 272 -850 307 -958 59 -181 59 -180 51
-180 -15 0 -167 123 -356 289 -17 14 -55 46 -84 71 -153 126 -396 343 -399
356 -2 7 15 35 37 61 89 105 306 371 344 421 22 28 45 52 52 52 6 0 28 -50 48
-112z"/>
<path d="M5111 10608 c-13 -29 -38 -96 -56 -148 -18 -52 -89 -237 -158 -410
-69 -173 -131 -334 -138 -358 -7 -23 -23 -54 -36 -68 -30 -33 -29 -37 11 -67
23 -18 40 -45 57 -89 12 -35 29 -74 36 -88 7 -14 13 -28 13 -32 0 -4 11 -32
25 -62 14 -30 25 -58 25 -61 0 -4 15 -39 34 -78 36 -76 102 -252 132 -349 15
-49 21 -58 41 -58 19 0 23 -5 23 -32 1 -31 1 -32 15 -14 8 11 15 26 15 34 0 7
11 37 24 65 52 110 84 183 91 207 4 14 25 56 46 93 22 38 39 73 39 78 0 5 5 9
11 9 5 0 8 4 4 9 -3 5 -1 12 5 16 6 4 8 10 5 15 -3 5 -1 11 5 15 5 3 10 17 10
31 0 13 4 24 8 24 6 0 28 42 36 70 14 47 87 172 114 197 l36 33 -20 27 c-11
16 -28 51 -38 78 -11 28 -22 55 -26 60 -4 6 -10 23 -14 38 -4 15 -20 57 -36
93 -17 35 -30 69 -30 74 0 6 -9 29 -19 53 -11 23 -41 96 -66 162 -49 125 -62
155 -89 217 -9 20 -16 40 -16 45 0 5 -8 27 -19 49 -10 21 -29 69 -42 107 -12
37 -26 67 -29 67 -3 0 -17 -24 -29 -52z"/>
<path d="M4489 9048 c37 -112 72 -218 77 -237 9 -33 78 -101 90 -89 3 4 -2 30
-10 60 -9 29 -28 94 -41 143 -37 133 -141 325 -176 325 -4 0 23 -91 60 -202z"/>
<path d="M5798 9179 c-22 -12 -69 -80 -132 -189 -27 -47 -51 -87 -55 -90 -11
-9 -48 -85 -55 -112 -5 -22 -3 -25 12 -21 10 2 27 18 36 34 10 17 30 38 46 47
54 33 117 137 135 223 4 19 10 39 14 44 12 19 29 75 22 75 -3 0 -14 -5 -23
-11z"/>
<path d="M6259 8688 c-26 -24 -63 -64 -83 -90 -24 -31 -61 -61 -104 -84 -243
-134 -374 -218 -452 -291 -25 -23 -48 -41 -51 -40 -4 1 -16 -9 -28 -23 -24
-30 -28 -15 -4 20 16 25 16 25 -3 8 -12 -10 -24 -18 -29 -18 -45 0 -154 -310
-190 -540 -20 -133 -37 -222 -43 -234 -8 -14 -8 -78 -1 -106 6 -24 7 -24 23
12 8 20 22 42 30 50 20 20 46 75 106 218 55 132 69 150 155 201 27 16 77 49
110 73 33 25 96 71 140 102 99 71 329 299 378 376 80 123 116 217 126 331 6
73 6 77 -14 77 -11 0 -41 -19 -66 -42z"/>
<path d="M3917 8713 c-8 -8 3 -93 19 -152 49 -174 171 -343 389 -541 88 -80
393 -293 448 -313 9 -4 17 -15 17 -25 0 -23 79 -185 126 -260 19 -29 34 -57
34 -62 0 -10 14 -14 38 -11 6 1 12 -4 12 -11 0 -18 37 -41 45 -28 6 10 -4 55
-40 170 -13 41 -45 156 -70 255 -58 226 -78 284 -124 362 -35 61 -67 86 -80
64 -4 -7 -19 2 -38 22 -74 78 -267 205 -468 307 -64 32 -96 57 -160 125 -51
55 -91 88 -112 94 -17 5 -34 7 -36 4z"/>
</g>
</svg>
