<?xml version="1.0" standalone="no"?>
<!DOCTYPE svg PUBLIC "-//W3C//DTD SVG 20010904//EN"
 "http://www.w3.org/TR/2001/REC-SVG-20010904/DTD/svg10.dtd">
<svg version="1.0" xmlns="http://www.w3.org/2000/svg"
 width="1024" height="1024" viewBox="0 0 1024 1024"
 preserveAspectRatio="xMidYMid meet">
  <rect width="1024" height="1024" fill="white"/>
<metadata>
Created by potrace 1.16, written by Peter Selinger 2001-2019
</metadata>
<g transform="translate(0.000000,1024.000000) scale(0.100000,-0.100000)"
fill="#000000" stroke="none">
<path d="M0 5120 l0 -5120 5120 0 5120 0 0 5120 0 5120 -5120 0 -5120 0 0
-5120z m4889 4287 c474 -261 792 -669 876 -1122 26 -134 16 -385 -18 -517 -31
-116 -86 -238 -160 -350 -64 -99 -90 -130 -261 -316 -279 -305 -404 -513 -479
-792 -28 -104 -31 -129 -31 -265 0 -216 34 -360 135 -575 47 -98 145 -265 189
-320 l20 -25 -10 35 c-44 156 -58 546 -27 732 46 269 153 479 364 713 55 61
195 202 312 315 224 215 288 288 345 388 76 135 106 260 106 450 l1 127 30
-35 c53 -62 167 -238 203 -312 76 -159 110 -309 109 -483 -1 -126 -17 -215
-63 -334 -60 -154 -126 -237 -460 -576 -313 -318 -370 -387 -430 -519 -47
-102 -60 -176 -67 -356 l-5 -165 43 41 c56 53 767 707 1007 928 101 93 214
204 250 247 37 43 67 77 67 76 1 -1 -2 -54 -6 -119 -29 -461 -229 -779 -719
-1143 -134 -100 -433 -298 -624 -414 l-149 -90 64 -29 c35 -15 252 -106 481
-202 230 -96 418 -177 418 -180 0 -3 -126 -100 -280 -215 l-279 -210 -1 -694
0 -694 -81 -156 c-256 -490 -568 -920 -921 -1267 -128 -127 -297 -278 -329
-295 -19 -9 -19 28 -17 1472 l3 1481 290 179 c160 98 293 179 298 179 4 0 7
-465 8 -1032 l0 -1033 175 354 174 354 0 596 1 596 121 89 121 88 -29 18 c-16
10 -142 88 -281 174 -138 86 -254 156 -258 156 -5 0 -683 -392 -779 -450 l-28
-17 -234 151 c-129 83 -229 153 -222 155 49 14 591 292 668 342 109 70 237
196 290 285 34 57 35 60 35 169 0 109 0 111 -40 185 -51 96 -200 249 -341 348
-56 40 -104 72 -107 72 -4 0 -2 -12 4 -27 5 -15 26 -86 44 -157 30 -112 35
-147 35 -243 0 -136 -19 -313 -33 -313 -22 0 -322 188 -439 275 -481 360 -708
771 -685 1245 16 341 161 681 427 1000 76 91 360 393 365 388 2 -2 -12 -35
-31 -73 -38 -78 -97 -251 -114 -335 -57 -277 11 -604 177 -852 48 -72 158
-198 173 -198 4 0 0 26 -10 58 -50 160 -80 380 -80 584 0 317 65 503 257 746
293 370 366 488 420 687 25 90 27 116 28 270 0 106 -5 192 -14 230 -42 192
-131 396 -246 570 -33 50 -61 93 -63 97 -6 12 216 -89 317 -145z"/>
</g>
</svg>
