<?xml version="1.0" standalone="no"?>
<!DOCTYPE svg PUBLIC "-//W3C//DTD SVG 20010904//EN"
 "http://www.w3.org/TR/2001/REC-SVG-20010904/DTD/svg10.dtd">
<svg version="1.0" xmlns="http://www.w3.org/2000/svg"
 width="1024" height="1024" viewBox="0 0 1024 1024"
 preserveAspectRatio="xMidYMid meet">
  <rect width="1024" height="1024" fill="white"/>
<metadata>
Created by potrace 1.16, written by Peter Selinger 2001-2019
</metadata>
<g transform="translate(0.000000,1024.000000) scale(0.100000,-0.100000)"
fill="#000000" stroke="none">
<path d="M0 5120 l0 -5120 5120 0 5120 0 0 5120 0 5120 -5120 0 -5120 0 0
-5120z m5753 4239 c-167 -223 -263 -445 -309 -709 -29 -166 -9 -420 47 -615
63 -216 140 -375 285 -589 199 -293 284 -448 346 -629 18 -53 36 -97 39 -97 8
0 84 157 104 214 81 242 67 610 -34 903 l-30 86 41 -39 c86 -83 243 -274 320
-389 138 -207 223 -410 264 -630 25 -131 25 -399 1 -531 -48 -264 -162 -494
-366 -737 -47 -56 -133 -159 -192 -230 -124 -148 -213 -275 -264 -375 -19 -39
-35 -72 -35 -75 0 -7 240 117 360 186 342 196 519 348 671 575 102 152 186
342 205 463 4 22 10 39 13 39 9 0 48 -237 61 -369 5 -57 10 -175 10 -262 0
-563 -215 -1004 -665 -1365 -131 -105 -189 -143 -375 -249 -216 -122 -313
-184 -437 -276 l-108 -80 -5 1513 -5 1513 -141 275 c-77 151 -178 361 -224
465 -123 283 -222 495 -230 495 -4 0 -11 -12 -15 -27 -15 -61 -162 -418 -238
-578 -45 -93 -133 -269 -197 -390 l-115 -220 -3 -815 c-1 -448 -3 -864 -5
-925 l-2 -110 -104 100 c-116 112 -231 244 -314 362 -65 92 -202 336 -213 377
-19 76 -47 -104 -47 -299 1 -165 14 -242 73 -410 97 -276 254 -521 510 -795
l99 -107 3 -222 c2 -121 1 -221 -2 -221 -3 0 -59 32 -125 71 -66 38 -257 138
-425 221 -168 83 -346 174 -395 203 -331 194 -583 499 -699 845 -49 146 -67
258 -72 455 l-5 170 25 -58 c44 -105 90 -170 191 -272 148 -150 340 -271 534
-336 47 -16 87 -29 90 -29 3 0 -11 17 -31 37 -46 49 -243 319 -299 409 -129
211 -189 415 -189 649 0 191 35 337 120 506 52 104 86 156 230 359 182 255
298 470 374 694 35 99 66 238 66 294 0 23 3 42 6 42 22 0 93 -121 128 -217 46
-131 59 -230 53 -413 -6 -185 -26 -295 -101 -565 -24 -88 -43 -161 -42 -163 2
-1 65 62 142 140 221 227 314 367 371 563 25 88 26 100 33 475 8 426 16 497
75 677 82 246 235 476 457 688 166 157 336 277 507 358 77 36 272 108 279 102
1 -1 -32 -49 -75 -106z m-560 -2537 c42 -75 104 -200 139 -277 l63 -140 0
-1482 c0 -816 -2 -1483 -5 -1483 -3 0 -67 50 -143 111 l-138 111 -97 -84 c-94
-82 -165 -138 -173 -138 -2 0 -2 669 1 1487 l5 1488 38 80 c42 89 231 465 234
465 0 0 35 -62 76 -138z m-1163 -3372 l87 0 112 -103 112 -104 207 -8 c355
-15 343 -16 452 34 52 24 104 44 115 44 11 0 70 -22 130 -48 l110 -47 160 11
c88 6 210 11 271 11 l111 0 112 104 111 103 266 7 c146 4 268 6 270 4 3 -4
-694 -721 -705 -725 -3 -2 -19 17 -36 41 -27 42 -33 45 -85 51 -94 10 -332 25
-399 25 -63 0 -66 -1 -120 -48 -31 -27 -87 -72 -124 -100 l-69 -51 -56 41
c-32 23 -87 68 -123 100 -66 58 -67 58 -130 58 -69 0 -309 -16 -399 -26 -51
-5 -58 -9 -89 -51 l-33 -45 -287 293 c-157 162 -318 327 -356 368 l-70 74 184
-7 c101 -3 223 -6 271 -6z m970 -991 l120 -79 128 84 129 83 6 -246 c4 -135 7
-302 7 -370 l0 -124 121 -154 c66 -85 118 -160 116 -166 -5 -11 -153 -181
-416 -479 -47 -54 -89 -98 -93 -98 -3 0 -122 131 -262 291 -167 190 -253 296
-248 303 5 6 57 73 116 148 59 75 111 152 117 170 5 18 9 91 9 163 0 231 13
564 22 559 4 -3 62 -41 128 -85z"/>
</g>
</svg>
