<?xml version="1.0" standalone="no"?>
<!DOCTYPE svg PUBLIC "-//W3C//DTD SVG 20010904//EN"
 "http://www.w3.org/TR/2001/REC-SVG-20010904/DTD/svg10.dtd">
<svg version="1.0" xmlns="http://www.w3.org/2000/svg"
 width="1024" height="1024" viewBox="0 0 1024 1024"
 preserveAspectRatio="xMidYMid meet">
  <rect width="1024" height="1024" fill="white"/>
<metadata>
Created by potrace 1.16, written by Peter Selinger 2001-2019
</metadata>
<g transform="translate(0.000000,1024.000000) scale(0.100000,-0.100000)"
fill="#000000" stroke="none">
<path d="M0 5120 l0 -5120 5120 0 5120 0 0 5120 0 5120 -5120 0 -5120 0 0
-5120z m5205 3945 c341 -1063 400 -1217 700 -1835 100 -206 211 -441 246 -522
35 -81 67 -147 70 -148 25 -1 86 515 107 900 l7 125 86 -165 c48 -91 162 -322
254 -515 335 -702 369 -806 369 -1110 0 -249 -40 -474 -134 -754 -78 -233
-154 -387 -317 -635 l-92 -141 -61 130 c-34 72 -146 300 -250 507 -201 400
-284 574 -385 808 -34 80 -106 240 -160 355 -188 405 -467 1040 -515 1173 -26
72 -35 82 -44 47 -7 -29 -67 -169 -304 -715 -232 -536 -396 -896 -594 -1305
-87 -181 -227 -473 -311 -647 -84 -174 -154 -317 -157 -317 -8 -1 -164 218
-235 329 -132 209 -269 507 -314 685 -67 268 -51 578 44 831 34 91 138 295
210 414 70 116 243 370 370 545 52 72 113 159 135 195 44 71 48 70 24 -5 -48
-159 -74 -447 -55 -615 27 -231 90 -407 210 -585 107 -160 96 -186 96 223 0
389 7 464 65 753 76 371 178 673 405 1199 114 263 275 663 365 907 36 95 68
169 71 165 4 -4 46 -128 94 -277z m58 -3392 c84 -170 194 -398 246 -508 166
-357 403 -806 667 -1269 63 -109 114 -200 114 -203 0 -2 -49 -57 -109 -121
-204 -217 -424 -497 -670 -852 -169 -244 -405 -569 -413 -569 -11 -1 -98 115
-215 284 -60 88 -160 234 -223 325 -228 332 -430 588 -673 853 l-78 86 72 118
c149 244 205 351 654 1246 253 504 463 917 468 917 4 0 76 -138 160 -307z
m2320 35 c98 -561 111 -681 112 -1013 0 -292 -11 -398 -62 -604 -69 -285 -168
-502 -319 -704 -93 -123 -347 -365 -648 -617 -498 -415 -697 -615 -1031 -1035
-203 -256 -439 -593 -491 -704 -16 -33 -32 -60 -35 -60 -3 -1 -15 16 -27 37
-37 67 -311 463 -420 607 -247 328 -463 577 -715 822 -151 147 -254 234 -643
540 -344 271 -520 516 -642 894 -85 261 -116 481 -116 819 1 243 12 385 52
672 l17 118 154 -248 c239 -382 276 -432 685 -918 87 -104 161 -194 163 -201
3 -7 -44 -108 -105 -226 l-109 -214 156 -159 c263 -268 481 -527 769 -918 81
-109 226 -305 322 -435 97 -130 231 -313 299 -408 68 -95 131 -179 141 -188
17 -15 27 -3 176 207 720 1017 901 1247 1352 1717 152 159 184 196 175 210
-17 27 -158 282 -192 348 l-33 62 188 246 c104 135 215 281 247 323 147 193
308 487 473 859 49 111 92 203 95 203 4 0 9 -15 12 -32z"/>
<path d="M4992 4164 c-66 -121 -163 -299 -216 -398 l-95 -179 73 -96 c40 -53
133 -179 206 -280 l134 -184 21 28 c11 16 107 145 213 287 l193 259 -100 202
c-55 111 -147 287 -204 391 l-105 188 -120 -218z"/>
</g>
</svg>
