<?xml version="1.0" standalone="no"?>
<!DOCTYPE svg PUBLIC "-//W3C//DTD SVG 20010904//EN"
 "http://www.w3.org/TR/2001/REC-SVG-20010904/DTD/svg10.dtd">
<svg version="1.0" xmlns="http://www.w3.org/2000/svg"
 width="1024" height="1024" viewBox="0 0 1024 1024"
 preserveAspectRatio="xMidYMid meet">
  <rect width="1024" height="1024" fill="white"/>
<metadata>
Created by potrace 1.16, written by Peter Selinger 2001-2019
</metadata>
<g transform="translate(0.000000,1536.000000) scale(0.100000,-0.100000)"
fill="#000000" stroke="none">
<path d="M0 7680 l0 -7680 5120 0 5120 0 0 7680 0 7680 -5120 0 -5120 0 0
-7680z m5109 2955 c-4 -984 -8 -2415 -8 -3178 l-1 -1388 73 7 72 6 172 -86
c94 -47 189 -96 210 -109 21 -13 70 -41 110 -61 l72 -38 73 64 c40 35 141 117
223 183 209 165 218 173 325 249 137 99 210 173 210 214 0 5 -25 51 -57 102
-56 93 -99 203 -87 222 4 6 28 38 53 72 55 73 75 117 67 148 -13 49 -17 49
-116 12 -151 -57 -230 -83 -231 -76 -6 76 -14 254 -14 307 1 108 25 144 275
400 229 234 353 385 574 700 144 206 256 415 310 583 43 133 93 363 109 502
l13 105 26 -80 c186 -557 248 -1039 178 -1381 -39 -190 -124 -431 -216 -617
-102 -203 -311 -517 -462 -692 -33 -38 -59 -71 -57 -73 2 -2 14 3 27 11 12 8
88 38 168 67 318 115 463 216 676 472 41 49 74 81 74 72 0 -22 -45 -224 -77
-343 -33 -127 -59 -194 -131 -337 -68 -135 -145 -238 -255 -340 -101 -93 -155
-130 -462 -314 -306 -184 -473 -296 -625 -418 -116 -95 -241 -202 -252 -216
-7 -10 -69 38 -151 116 -73 71 -248 210 -255 204 -3 -3 -3 -7 -1 -9 78 -60
217 -175 268 -221 37 -34 80 -70 96 -82 18 -13 25 -23 18 -27 -6 -4 -52 30
-105 79 -118 110 -238 213 -262 226 -36 19 -5 -11 107 -108 156 -134 238 -214
231 -225 -7 -12 -34 -12 -34 1 0 13 -189 182 -289 258 l-83 63 -191 -197
c-160 -164 -192 -202 -191 -226 0 -15 2 -58 4 -95 l4 -68 6 70 6 70 3 -70 c5
-132 18 -121 18 16 0 115 2 140 16 154 16 15 17 -22 17 -577 l1 -593 159 -193
c146 -176 159 -195 149 -215 -12 -22 -11 -22 9 -4 11 10 22 14 25 10 3 -5 -71
-90 -164 -189 -94 -98 -237 -254 -317 -347 -81 -92 -149 -166 -152 -165 -3 2
-118 124 -256 273 -137 148 -277 300 -311 336 -35 37 -63 70 -63 73 0 11 73
103 222 283 l135 161 6 329 c4 180 8 437 8 571 1 241 1 243 -22 271 -13 16
-87 99 -164 184 l-139 156 -174 -176 c-174 -176 -174 -176 -194 -156 -20 20
-20 20 20 54 22 19 52 50 67 69 16 19 -1 7 -36 -27 -36 -35 -70 -63 -77 -63
-7 0 -67 46 -135 103 -166 140 -676 553 -812 657 -60 47 -145 116 -188 153
-185 163 -386 423 -457 593 -63 149 -131 384 -174 599 -26 126 -61 393 -53
401 2 2 31 -31 65 -74 113 -146 335 -341 498 -438 158 -94 397 -204 411 -190
2 2 -10 27 -27 57 -147 249 -290 637 -340 922 -20 113 -22 151 -17 310 10 324
64 495 289 911 130 241 309 534 283 464 -29 -79 -46 -622 -25 -757 26 -157
132 -412 227 -546 28 -39 109 -142 181 -229 72 -87 129 -163 125 -169 -3 -6
-2 -7 4 -4 5 3 36 -29 68 -71 33 -42 52 -71 42 -63 -22 18 -22 7 2 -27 16 -22
20 -52 25 -167 3 -77 10 -189 16 -250 14 -155 28 -389 24 -394 -3 -3 -21 11
-42 31 -20 20 -86 72 -147 116 -60 45 -128 95 -150 111 -22 17 -44 26 -48 22
-5 -5 -13 -38 -20 -75 -24 -142 25 -294 133 -409 l59 -63 -47 -76 c-26 -42
-76 -111 -111 -154 -94 -116 -114 -149 -106 -174 22 -68 215 -264 360 -363 44
-31 127 -88 184 -127 57 -39 138 -97 180 -129 42 -32 82 -56 89 -53 10 3 10 7
0 20 -11 13 -11 14 7 3 17 -11 40 -3 174 63 84 41 200 92 256 112 l103 38
-143 150 c-228 241 -386 429 -427 510 -21 40 -21 46 -14 461 4 231 11 857 16
1390 5 534 14 1074 19 1200 6 127 13 340 16 474 l7 243 -85 -163 c-71 -138
-216 -416 -402 -771 -22 -43 -44 -78 -48 -78 -9 0 -7 32 14 308 32 412 87 566
494 1377 219 438 647 1266 651 1261 1 0 -2 -806 -7 -1791z m539 1288 c439
-616 594 -954 608 -1328 5 -125 3 -152 -20 -256 -14 -64 -42 -168 -62 -230
-47 -146 -188 -532 -204 -556 -11 -17 -11 -17 -5 2 124 354 167 486 161 492
-3 4 -106 -256 -147 -371 -17 -49 -42 -115 -56 -145 -24 -55 -25 -59 -22 -286
2 -126 0 -707 -5 -1290 l-9 -1060 -168 -260 c-283 -439 -293 -455 -300 -455
-12 0 1 3457 12 3530 12 76 54 180 148 368 175 350 254 671 237 962 -16 269
-102 624 -225 928 -11 28 -19 52 -17 52 2 0 35 -44 74 -97z m1021 -2293 c139
-630 150 -692 162 -848 5 -81 7 -164 4 -185 -6 -35 -127 -259 -143 -265 -4 -1
-40 70 -80 157 -41 87 -105 215 -143 284 l-69 125 -10 237 c-6 131 -8 240 -5
243 3 3 6 -19 7 -49 1 -30 4 5 8 76 7 117 12 147 59 298 71 234 112 337 122
312 5 -11 44 -184 88 -385z m-720 -139 c-6 -18 -13 -30 -15 -28 -2 2 1 18 7
36 6 18 13 30 15 28 2 -2 -1 -18 -7 -36z m-2088 -2488 c13 -16 12 -17 -3 -4
-10 7 -18 15 -18 17 0 8 8 3 21 -13z m410 -1010 c47 -29 97 -62 110 -73 13
-12 -3 -4 -36 18 -33 21 -99 62 -147 91 -49 29 -88 55 -88 57 0 6 12 -1 161
-93z"/>
<path d="M4029 8053 c12 -18 24 -33 27 -33 9 0 -15 37 -33 51 -12 10 -11 5 6
-18z"/>
<path d="M6261 7294 c0 -11 3 -14 6 -6 3 7 2 16 -1 19 -3 4 -6 -2 -5 -13z"/>
<path d="M4451 5670 c-13 -16 -28 -28 -33 -27 -5 1 -52 -44 -105 -100 -53 -57
-91 -103 -85 -103 6 0 43 36 82 79 40 43 96 96 126 117 29 22 54 45 54 52 0
19 -13 13 -39 -18z"/>
<path d="M5277 5253 c-11 -10 -8 -73 3 -73 6 0 10 18 10 40 0 41 -2 45 -13 33z"/>
</g>
</svg>
