<?xml version="1.0" standalone="no"?>
<!DOCTYPE svg PUBLIC "-//W3C//DTD SVG 20010904//EN"
 "http://www.w3.org/TR/2001/REC-SVG-20010904/DTD/svg10.dtd">
<svg version="1.0" xmlns="http://www.w3.org/2000/svg"
 width="1024" height="1024" viewBox="0 0 1024 1024"
 preserveAspectRatio="xMidYMid meet">
  <rect width="1024" height="1024" fill="white"/>
<metadata>
Created by potrace 1.16, written by Peter Selinger 2001-2019
</metadata>
<g transform="translate(0.000000,1024.000000) scale(0.100000,-0.100000)"
fill="#000000" stroke="none">
<path d="M0 5120 l0 -5120 5120 0 5120 0 0 5120 0 5120 -5120 0 -5120 0 0
-5120z m8954 3218 c-159 -155 -453 -444 -654 -643 -201 -198 -737 -726 -1192
-1174 -456 -447 -828 -816 -828 -820 0 -3 93 -16 208 -28 114 -12 378 -40 587
-62 209 -22 662 -72 1007 -111 344 -38 634 -70 643 -70 50 0 -14 -37 -940
-543 -297 -162 -632 -345 -744 -407 -113 -61 -327 -177 -475 -257 -149 -80
-401 -216 -561 -303 -159 -87 -519 -281 -800 -433 -280 -151 -796 -429 -1145
-617 -675 -365 -1213 -653 -1870 -1002 -223 -119 -427 -229 -455 -244 l-49
-28 21 30 c11 16 77 92 145 169 134 152 672 779 943 1100 93 110 246 290 340
400 555 650 1198 1427 1187 1436 -9 7 -494 137 -817 218 -272 68 -785 189
-1360 321 -214 49 -473 109 -575 134 -102 25 -196 46 -209 46 -14 0 -21 4 -15
8 20 19 549 233 1149 467 165 64 800 316 1410 560 611 244 1484 592 1940 774
457 181 1008 401 1225 489 217 87 757 303 1200 480 443 177 841 337 885 356
44 20 82 36 84 36 2 0 -126 -127 -285 -282z"/>
<path d="M6860 7000 c-19 -10 -413 -169 -875 -353 -462 -185 -950 -381 -1085
-436 -135 -54 -441 -178 -680 -274 -439 -177 -783 -317 -788 -322 -4 -3 328
-130 868 -330 256 -95 569 -212 695 -260 127 -48 287 -109 358 -135 70 -26
130 -50 134 -53 4 -4 0 -13 -9 -20 -8 -6 -121 -100 -249 -207 -129 -108 -439
-365 -689 -571 -786 -649 -1412 -1190 -1396 -1206 3 -3 29 10 58 29 68 45 307
191 618 378 244 146 572 349 1020 630 129 81 399 250 600 374 447 278 1060
669 1060 676 -1 3 -85 50 -187 105 -399 214 -1016 555 -1011 560 5 4 501 450
963 866 237 213 464 415 505 449 41 35 88 74 104 87 37 30 31 36 -14 13z"/>
</g>
</svg>
