<?xml version="1.0" standalone="no"?>
<!DOCTYPE svg PUBLIC "-//W3C//DTD SVG 20010904//EN"
 "http://www.w3.org/TR/2001/REC-SVG-20010904/DTD/svg10.dtd">
<svg version="1.0" xmlns="http://www.w3.org/2000/svg"
 width="1024" height="1024" viewBox="0 0 1024 1024"
 preserveAspectRatio="xMidYMid meet">
  <rect width="1024" height="1024" fill="white"/>
<metadata>
Created by potrace 1.16, written by Peter Selinger 2001-2019
</metadata>
<g transform="translate(0.000000,1024.000000) scale(0.100000,-0.100000)"
fill="#000000" stroke="none">
<path d="M0 5120 l0 -5120 5120 0 5120 0 0 5120 0 5120 -5120 0 -5120 0 0
-5120z m3952 3573 c183 -233 209 -267 300 -394 69 -97 147 -179 475 -503 l392
-388 412 403 c387 381 416 412 509 544 103 148 370 489 376 482 3 -2 -3 -51
-11 -108 -9 -57 -38 -271 -65 -476 l-48 -371 -53 -79 c-29 -43 -71 -103 -95
-133 l-42 -56 -48 -293 -49 -293 -108 -91 c-60 -50 -115 -104 -123 -119 -8
-15 -18 -59 -24 -98 -10 -68 -52 -249 -87 -370 -15 -51 -30 -69 -207 -248
-172 -174 -306 -292 -333 -292 -6 0 -28 14 -49 31 -72 56 -492 450 -499 467
-4 9 -28 126 -55 258 -26 133 -55 253 -64 266 -9 14 -61 64 -115 111 -68 60
-101 96 -105 114 -3 16 -19 114 -36 218 -55 351 -50 331 -112 415 -125 170
-127 175 -149 342 -29 226 -109 780 -115 801 -3 9 -3 17 -1 17 3 0 61 -71 129
-157z m1312 -1 c166 -110 466 -331 466 -341 0 -14 -597 -696 -609 -696 -13 0
-612 679 -610 693 1 21 583 432 611 432 6 0 70 -39 142 -88z m-1519 -793 c168
-126 150 -98 201 -314 48 -200 123 -549 120 -552 -1 -1 -70 66 -153 150 l-151
152 -113 345 c-61 190 -114 351 -117 359 -6 16 82 -42 213 -140z m2843 -220
l-121 -364 -144 -145 c-134 -135 -144 -143 -138 -110 13 69 146 656 156 686 7
22 41 58 112 116 103 86 248 191 253 185 2 -2 -51 -167 -118 -368z m-3843
-200 c-22 -61 -85 -329 -100 -426 l-7 -42 154 -183 c152 -182 323 -371 392
-438 21 -19 119 -100 219 -180 100 -80 180 -149 179 -155 -2 -5 -64 -33 -138
-61 -73 -29 -218 -95 -321 -147 l-188 -94 -40 -62 c-22 -34 -103 -161 -180
-282 -77 -121 -189 -296 -250 -387 l-110 -167 -3 135 c-2 74 4 477 13 895 10
418 16 772 14 786 -3 21 -37 -27 -183 -260 -256 -408 -825 -1332 -1134 -1841
-179 -296 -262 -424 -258 -400 4 19 15 96 26 170 124 830 379 1610 704 2158
160 269 258 373 576 609 159 118 648 445 657 439 1 -1 -9 -31 -22 -67z m4969
-77 c370 -242 646 -450 763 -575 271 -291 545 -874 768 -1637 72 -247 98 -353
135 -550 35 -190 81 -482 76 -488 -2 -1 -21 28 -42 65 -36 65 -300 503 -435
723 -306 497 -649 1045 -975 1559 l-129 203 -3 -68 c-2 -38 2 -269 8 -514 6
-245 13 -629 17 -855 l5 -410 -87 125 c-137 195 -213 310 -337 510 -63 102
-125 202 -139 222 -39 61 -323 210 -607 319 -34 13 -61 27 -60 31 2 3 71 59
153 124 260 203 299 242 609 614 195 233 176 195 154 325 -20 120 -59 285 -87
370 l-18 54 21 -11 c12 -6 106 -67 210 -136z m-3449 -884 l57 -293 90 -209
c49 -115 107 -247 129 -294 21 -47 38 -86 36 -88 -1 -1 -86 67 -187 152 -161
136 -493 406 -867 709 l-112 90 57 17 c144 41 728 206 733 207 4 1 32 -131 64
-291z m2169 178 c208 -58 380 -107 382 -109 3 -2 -76 -71 -173 -153 -269 -224
-879 -743 -948 -805 -29 -26 109 383 174 516 47 94 52 115 101 370 60 314 56
296 72 290 7 -3 183 -52 392 -109z m-2179 -1104 c171 -136 429 -344 575 -461
146 -118 267 -216 269 -218 5 -3 -279 -302 -504 -530 l-170 -172 -150 177
c-82 97 -238 278 -345 402 -183 211 -411 475 -578 669 -59 69 -70 87 -60 97
15 14 91 48 385 169 111 46 214 91 230 99 15 8 30 15 33 16 3 0 145 -112 315
-248z m2650 0 c43 -19 70 -36 70 -46 0 -8 -77 -102 -172 -208 -94 -106 -249
-283 -345 -394 -212 -247 -592 -680 -625 -714 l-25 -25 -71 77 c-328 350 -550
589 -567 611 l-21 27 32 28 c43 35 479 382 789 627 135 106 265 208 289 228
l44 35 266 -108 c146 -60 298 -122 336 -138z m-3590 -602 c113 -140 205 -257
205 -261 0 -3 -20 -22 -45 -42 -25 -19 -119 -104 -208 -189 -90 -84 -249 -233
-354 -331 -105 -97 -205 -193 -222 -213 l-32 -36 37 -51 c20 -29 77 -102 126
-163 l88 -112 -172 -268 -173 -269 -8 230 c-5 127 -13 246 -18 265 -7 27 -29
50 -91 100 -45 36 -85 66 -89 68 -4 2 -49 -17 -100 -41 -52 -24 -127 -57 -168
-72 -62 -25 -75 -34 -84 -60 -6 -16 -46 -102 -90 -190 l-80 -160 11 -60 c6
-33 33 -157 60 -275 27 -118 53 -228 57 -245 l6 -30 -25 30 c-48 55 -416 573
-416 585 0 7 50 164 110 350 l111 339 177 99 c185 105 286 157 413 215 42 19
84 45 93 58 9 13 131 195 270 404 354 533 390 585 399 582 4 -1 99 -117 212
-257z m3918 133 c46 -65 197 -288 335 -496 l250 -379 239 -118 c131 -66 287
-147 348 -182 l109 -63 26 -90 c15 -50 62 -206 105 -347 l77 -257 -217 -305
c-120 -168 -219 -305 -221 -303 -1 1 26 133 62 292 35 160 64 301 63 315 0 14
-41 108 -92 209 l-92 185 -55 17 c-30 9 -103 40 -162 68 l-106 51 -95 -71 -95
-70 -7 -82 c-4 -45 -10 -163 -13 -262 l-7 -180 -173 268 -172 268 103 132 c56
73 113 147 126 165 l24 34 -74 75 c-41 41 -132 127 -204 191 -71 65 -191 176
-265 247 -74 72 -177 169 -229 216 l-95 87 85 105 c190 238 322 397 329 397 4
0 46 -53 93 -117z m-2966 -1185 c71 -56 175 -140 233 -186 80 -65 523 -418
607 -484 12 -10 97 54 493 372 507 407 502 403 511 389 6 -8 30 -54 55 -103
25 -49 68 -129 95 -179 28 -49 112 -206 188 -350 77 -144 184 -347 240 -451
l100 -188 -131 -152 c-175 -201 -361 -408 -382 -425 -21 -18 -16 -24 105 -122
53 -42 179 -153 281 -246 101 -92 245 -222 319 -288 l134 -120 -345 -3 -345
-2 -17 22 c-10 13 -114 165 -232 338 -119 173 -240 349 -270 390 l-54 75 21
30 c12 16 55 73 97 125 42 52 118 149 169 214 l94 120 -40 35 c-22 20 -86 79
-144 132 -57 52 -197 179 -310 281 l-206 186 -109 -101 c-60 -56 -153 -142
-206 -190 l-97 -88 -109 98 c-61 54 -152 137 -205 186 -52 48 -98 87 -103 87
-5 0 -57 -44 -116 -98 -58 -53 -171 -156 -250 -228 -78 -72 -183 -169 -233
-216 l-89 -85 40 -49 c122 -148 335 -437 331 -449 -3 -7 -43 -66 -89 -131 -47
-66 -142 -204 -213 -309 -70 -104 -158 -232 -194 -282 l-65 -93 -343 0 c-189
0 -343 2 -343 4 0 8 379 354 613 559 125 109 227 202 227 207 0 4 -10 15 -22
26 -67 60 -498 551 -498 568 0 3 66 129 146 279 380 708 465 867 495 930 18
37 35 67 36 67 1 0 60 -46 130 -102z"/>
<path d="M4287 7722 c13 -95 48 -224 79 -290 61 -133 206 -250 366 -297 32 -9
72 -15 90 -13 l33 3 43 -110 c24 -60 45 -111 46 -113 2 -1 11 40 20 92 17 92
17 95 -3 162 -41 135 -31 124 -294 309 -133 94 -274 198 -314 232 l-72 63 6
-38z"/>
<path d="M5929 7734 c-39 -43 -170 -141 -393 -294 -229 -158 -224 -153 -261
-287 -17 -59 -16 -64 6 -160 l22 -98 13 45 c8 25 28 75 46 113 31 65 33 67 69
67 100 0 244 72 346 173 76 74 123 162 152 277 21 88 37 190 29 190 -2 0 -15
-12 -29 -26z"/>
<path d="M4776 6602 c-3 -5 -8 -31 -12 -59 -5 -44 0 -70 42 -199 l48 -149 9
89 10 88 51 -7 c28 -3 75 -15 106 -26 89 -33 101 -33 197 0 122 42 139 41 147
-6 3 -21 6 -60 6 -88 1 -43 2 -47 12 -30 18 31 97 285 93 298 -2 7 -9 31 -15
55 -10 39 -13 42 -45 42 -19 0 -44 -4 -57 -10 -162 -67 -234 -91 -257 -85 -14
4 -77 26 -139 51 -106 41 -184 55 -196 36z"/>
</g>
</svg>
