<?xml version="1.0" standalone="no"?>
<!DOCTYPE svg PUBLIC "-//W3C//DTD SVG 20010904//EN"
 "http://www.w3.org/TR/2001/REC-SVG-20010904/DTD/svg10.dtd">
<svg version="1.0" xmlns="http://www.w3.org/2000/svg"
 width="1024" height="1024" viewBox="0 0 1024 1024"
 preserveAspectRatio="xMidYMid meet">
  <rect width="1024" height="1024" fill="white"/>
<metadata>
Created by potrace 1.16, written by Peter Selinger 2001-2019
</metadata>
<g transform="translate(0.000000,1024.000000) scale(0.100000,-0.100000)"
fill="#000000" stroke="none">
<path d="M0 5120 l0 -5120 5120 0 5120 0 0 5120 0 5120 -5120 0 -5120 0 0
-5120z m5632 3239 c118 -74 422 -246 533 -301 55 -28 138 -74 185 -103 47 -29
162 -95 256 -146 132 -72 177 -102 195 -129 122 -182 133 -193 210 -225 41
-16 125 -43 188 -60 65 -17 117 -36 122 -45 4 -8 24 -75 43 -148 l36 -133 -24
-38 c-13 -20 -41 -70 -61 -111 -31 -61 -39 -71 -49 -59 -85 114 -109 137 -144
144 -20 4 -137 31 -259 61 -199 49 -232 54 -330 54 -59 0 -114 -4 -121 -9 -21
-13 92 -95 162 -117 l59 -19 -7 -144 c-3 -80 -8 -146 -10 -148 -2 -2 -48 21
-103 51 -88 48 -292 138 -468 206 l-61 23 -37 116 c-20 64 -46 131 -57 149
l-20 33 -27 -31 c-28 -34 -253 -475 -253 -497 0 -8 87 -132 193 -276 106 -144
233 -317 281 -385 49 -67 90 -121 92 -119 2 1 -30 88 -70 192 -41 105 -72 192
-70 194 3 4 71 -54 244 -209 53 -47 164 -146 248 -220 122 -107 154 -141 162
-170 66 -257 126 -482 146 -555 l25 -91 -92 -249 c-50 -138 -96 -256 -101
-262 -28 -35 -603 -431 -612 -422 -3 2 36 87 85 188 49 101 89 193 89 203 0
61 -165 634 -221 767 -24 56 -57 118 -73 137 -16 20 -134 123 -262 231 -129
107 -239 203 -245 215 -16 31 -173 458 -240 658 -33 96 -62 201 -66 232 l-6
57 83 143 c46 79 106 183 133 231 52 94 96 134 252 232 64 40 155 122 155 140
0 5 -114 73 -252 149 -139 77 -293 162 -343 190 l-90 51 77 3 c48 2 153 -9
285 -28 330 -49 553 -77 553 -70 0 4 -7 14 -16 21 -9 7 -96 106 -195 220 -156
183 -229 276 -229 294 0 8 30 -9 122 -66z m-4112 -405 c300 -53 660 -115 800
-139 140 -24 316 -55 390 -69 74 -14 239 -43 365 -65 473 -79 1060 -184 1067
-190 4 -3 99 -278 211 -611 112 -333 211 -619 218 -636 16 -36 87 -91 573
-438 175 -126 420 -302 544 -392 l226 -164 -3 -157 c-2 -142 1 -173 28 -310
17 -84 31 -164 31 -178 0 -29 -42 -131 -172 -419 -70 -155 -88 -203 -80 -216
5 -9 108 -145 229 -301 120 -156 232 -307 249 -334 30 -47 32 -61 54 -260 12
-115 20 -221 18 -235 -2 -17 -48 -69 -135 -154 -73 -71 -133 -125 -133 -120 0
5 9 59 20 119 15 78 19 128 14 173 -3 34 -8 62 -11 62 -3 0 -39 -31 -81 -69
l-77 -68 -100 -10 c-55 -6 -102 -9 -104 -7 -3 2 10 21 27 42 35 41 129 187
176 273 l30 56 -69 79 c-38 43 -195 203 -348 355 -239 237 -277 280 -273 300
8 37 26 190 36 303 8 89 -3 260 -17 276 -2 2 -68 -60 -147 -139 l-143 -143
-133 67 c-72 36 -134 64 -137 61 -3 -2 64 -125 148 -273 l152 -268 -12 -155
c-22 -275 -36 -405 -44 -418 -5 -7 -39 -39 -77 -70 -160 -135 -325 -285 -325
-295 0 -7 15 -40 34 -75 27 -49 69 -96 190 -211 86 -81 169 -156 184 -165 15
-10 27 -21 27 -25 0 -4 -15 -15 -32 -26 -18 -10 -63 -40 -99 -67 -37 -26 -72
-48 -78 -48 -13 0 -120 84 -230 180 -47 42 -188 165 -313 274 -126 108 -228
199 -228 201 0 2 33 29 73 59 39 30 135 116 212 190 l140 135 -140 280 -140
281 -156 -207 c-86 -115 -183 -248 -216 -298 -33 -49 -90 -130 -127 -180 -36
-49 -66 -96 -66 -104 0 -7 27 -73 59 -145 33 -72 83 -184 113 -249 l53 -119
240 -140 c132 -77 348 -202 480 -278 l240 -138 69 35 c39 19 88 47 110 61 80
50 417 242 426 242 5 0 132 -54 282 -119 150 -65 321 -138 381 -161 59 -23
107 -46 107 -51 0 -5 -35 -9 -77 -9 -43 0 -211 -7 -373 -16 l-295 -15 -115
-51 c-63 -28 -202 -93 -309 -146 -172 -85 -196 -94 -220 -85 -14 6 -152 71
-306 145 -300 144 -630 299 -840 395 l-130 59 -192 385 c-105 211 -192 390
-192 398 -1 19 90 172 209 351 53 80 136 210 185 290 49 80 153 247 232 372
78 124 154 251 169 283 24 50 40 66 158 154 72 54 226 161 341 238 182 121
365 255 365 267 0 2 -42 9 -92 15 -51 6 -277 33 -503 61 -225 27 -432 53 -460
56 -92 10 -93 12 -8 61 43 25 141 85 218 133 77 47 183 112 236 143 l95 57
375 -171 c323 -148 392 -176 504 -204 150 -38 270 -54 244 -33 -8 7 -107 83
-218 168 -907 694 -876 669 -883 703 -36 163 -107 499 -139 661 -22 110 -47
227 -57 260 l-18 59 -31 -79 c-17 -43 -126 -320 -243 -614 -301 -761 -377
-960 -385 -1005 -4 -22 -9 -43 -12 -48 -2 -4 -48 32 -101 80 -206 187 -361
331 -467 434 l-110 107 -125 17 c-96 13 -527 87 -573 98 -4 1 68 54 160 116
92 63 330 232 528 376 198 144 492 358 654 475 295 214 443 331 425 337 -5 2
-203 -62 -439 -143 -923 -313 -1206 -406 -1212 -401 -3 4 -18 58 -34 122 -35
145 -143 417 -182 462 -17 19 -104 94 -196 167 -150 121 -634 523 -721 599
l-34 30 34 -6 c19 -4 280 -50 580 -103z m6122 -1614 c62 -21 349 -120 638
-218 479 -164 920 -319 928 -327 9 -8 -34 -27 -708 -300 -207 -84 -217 -89
-270 -144 -85 -87 -208 -229 -277 -318 -107 -136 -88 -146 -183 94 -46 114
-121 297 -167 405 -45 109 -83 200 -83 203 0 17 -63 155 -71 155 -11 0 -220
-238 -318 -362 -42 -53 -79 -97 -83 -97 -9 -1 -43 106 -68 213 -11 50 -30 104
-41 122 l-20 33 293 290 c161 160 298 290 305 291 6 0 63 -18 125 -40z m-486
-1960 c115 -44 246 -94 291 -112 l82 -32 35 -101 c35 -99 106 -345 106 -366 0
-6 -33 -52 -73 -103 -40 -50 -100 -127 -134 -171 -33 -44 -69 -88 -80 -97 -18
-17 -18 -16 -11 45 4 34 10 118 14 187 l7 125 -64 -55 c-35 -30 -95 -86 -132
-125 -38 -38 -66 -61 -62 -50 16 48 105 443 105 467 0 23 -9 31 -67 58 l-67
32 -250 -10 c-138 -6 -253 -9 -255 -7 -2 2 25 37 61 77 35 40 111 128 167 196
57 67 106 122 111 122 4 0 101 -36 216 -80z"/>
<path d="M6428 7568 c22 -40 50 -81 63 -90 27 -20 141 -40 175 -32 l23 6 -24
47 c-17 35 -34 52 -62 64 -71 31 -193 77 -204 77 -6 0 7 -33 29 -72z"/>
</g>
</svg>
