<?xml version="1.0" standalone="no"?>
<!DOCTYPE svg PUBLIC "-//W3C//DTD SVG 20010904//EN"
 "http://www.w3.org/TR/2001/REC-SVG-20010904/DTD/svg10.dtd">
<svg version="1.0" xmlns="http://www.w3.org/2000/svg"
 width="1024" height="1024" viewBox="0 0 1024 1024"
 preserveAspectRatio="xMidYMid meet">
  <rect width="1024" height="1024" fill="white"/>
<metadata>
Created by potrace 1.16, written by Peter Selinger 2001-2019
</metadata>
<g transform="translate(0.000000,1024.000000) scale(0.100000,-0.100000)"
fill="#000000" stroke="none">
<path d="M0 5120 l0 -5120 5120 0 5120 0 0 5120 0 5120 -5120 0 -5120 0 0
-5120z m5162 4248 c53 -80 184 -231 297 -343 56 -55 101 -105 101 -111 0 -6
-31 -47 -69 -91 -38 -44 -74 -91 -81 -104 -13 -23 -14 -23 -99 69 -48 51 -109
121 -136 156 -28 36 -53 65 -56 65 -3 1 -20 -20 -37 -46 -18 -27 -48 -67 -68
-90 l-35 -41 169 -174 c157 -161 170 -178 175 -219 9 -60 12 -317 5 -325 -4
-3 -12 5 -19 18 -32 61 -165 224 -283 347 -140 145 -288 307 -348 381 l-37 46
162 164 c90 91 194 207 231 258 38 50 75 92 81 92 7 0 28 -24 47 -52z m-182
-1162 c124 -93 277 -255 321 -341 39 -73 56 -130 42 -138 -4 -2 -24 -7 -43
-10 -34 -6 -37 -4 -100 73 -35 44 -67 80 -71 80 -3 0 -27 -27 -52 -59 -39 -50
-186 -191 -198 -191 -2 0 -4 146 -4 325 0 210 4 325 10 325 6 0 48 -29 95 -64z
m214 -703 c28 -32 80 -88 115 -125 l64 -68 -32 -59 c-17 -32 -31 -62 -31 -67
0 -4 17 8 38 28 l37 36 296 5 295 6 86 50 c47 28 90 51 95 51 5 0 104 -103
222 -230 117 -126 217 -230 222 -230 26 0 2 -22 -58 -52 -38 -19 -77 -41 -89
-48 -19 -12 -35 -4 -185 98 l-164 111 -432 -6 -432 -6 -23 -45 c-16 -32 -19
-46 -11 -49 7 -3 -2 -17 -23 -35 -19 -17 -42 -44 -50 -60 l-15 -30 -29 45
c-16 25 -37 50 -47 57 -12 7 -14 13 -6 16 8 4 3 20 -16 52 l-27 47 -441 8
-440 8 -166 -110 -166 -110 -88 46 -88 45 91 92 c49 50 153 158 231 240 l140
148 104 -53 104 -54 266 -5 266 -5 39 -27 c21 -15 51 -37 67 -48 37 -29 34
-13 -14 86 -23 47 -40 86 -38 88 2 2 49 39 104 84 55 44 111 92 124 106 14 14
31 26 39 26 8 0 37 -26 66 -57z m283 -821 c23 -37 67 -95 97 -129 l56 -61 -9
-339 c-6 -186 -13 -468 -17 -628 l-7 -290 -89 -195 c-705 -1537 -802 -1745
-818 -1745 -13 0 -16 45 -22 315 -3 173 -11 495 -17 715 -6 220 -18 666 -26
990 -8 325 -20 725 -26 890 l-11 300 34 25 c18 13 74 64 125 113 l91 89 90
-71 89 -70 7 -258 c19 -721 73 -2007 85 -2031 12 -22 41 238 56 503 14 254 35
726 59 1338 7 186 16 340 19 343 3 3 37 -6 77 -20 39 -14 75 -26 81 -26 5 0
-13 30 -39 68 -27 37 -52 73 -56 80 -4 7 17 40 56 86 35 41 65 75 68 75 3 0
24 -30 47 -67z m-1424 -837 c0 -5 -25 -46 -55 -90 -30 -44 -78 -138 -108 -208
-29 -70 -55 -126 -57 -124 -1 2 -21 45 -43 96 -41 95 -117 215 -176 281 l-35
38 72 129 c40 70 92 170 117 221 l44 93 120 -213 c67 -117 121 -217 121 -223z
m2437 -120 c48 -104 91 -205 95 -223 6 -28 -4 -55 -63 -180 -38 -81 -87 -193
-108 -249 -34 -92 -54 -125 -54 -92 0 34 -117 314 -165 394 l-56 94 72 183
c39 101 89 221 111 268 l40 85 21 -45 c11 -25 59 -130 107 -235z m-3725 -84
c36 -35 620 -533 910 -777 106 -89 203 -192 302 -319 25 -33 313 -605 313
-623 0 -3 -26 19 -57 49 -32 30 -197 178 -368 330 -170 152 -334 297 -362 323
-29 27 -53 45 -53 42 0 -4 15 -30 34 -59 18 -28 100 -164 181 -301 189 -318
293 -473 596 -886 135 -184 322 -443 415 -575 290 -409 584 -816 653 -904 36
-47 69 -89 73 -95 7 -10 77 45 470 368 l206 170 17 60 c68 245 308 938 439
1268 36 92 66 170 66 174 0 4 -28 -33 -62 -84 -73 -105 -236 -315 -458 -587
-86 -104 -175 -216 -199 -247 -39 -52 -61 -70 -61 -51 0 41 228 679 371 1040
l81 201 436 374 c240 205 476 408 524 451 85 76 118 95 102 60 -12 -28 -87
-260 -152 -473 -33 -107 -115 -370 -182 -585 -149 -478 -423 -1388 -476 -1583
l-39 -144 -90 -53 c-139 -83 -633 -418 -605 -410 198 53 730 178 736 172 3 -3
-52 -44 -123 -93 -278 -191 -801 -557 -1046 -731 l-257 -184 -92 98 c-51 54
-124 130 -164 170 -140 141 -634 437 -1074 645 -131 61 -173 88 -140 88 8 0
237 84 341 125 11 4 44 -15 100 -57 134 -102 1017 -698 1034 -698 3 0 -147
162 -332 359 -309 329 -353 372 -513 499 -96 76 -343 272 -548 435 -205 163
-374 297 -375 297 -2 0 7 -53 20 -117 26 -134 82 -448 90 -508 4 -27 2 -37 -5
-30 -5 6 -115 188 -242 405 -128 217 -313 530 -410 695 -98 165 -176 302 -174
304 2 2 12 -3 21 -11 10 -8 74 -48 143 -88 69 -40 224 -135 345 -210 285 -176
295 -182 295 -177 0 3 -33 121 -74 263 -41 143 -109 385 -151 539 -90 333
-134 483 -225 786 -38 125 -100 341 -139 480 -39 140 -82 287 -96 328 -39 114
-34 124 30 62z m1519 -811 c55 -166 99 -321 92 -327 -3 -3 -56 43 -118 102
-62 60 -116 111 -120 114 -6 6 64 240 79 265 9 14 21 -13 67 -154z m1536 134
c0 -3 50 -184 110 -402 l111 -397 -72 -163 c-40 -89 -73 -161 -75 -160 -2 3
-124 567 -136 633 -3 13 -71 -112 -186 -341 l-181 -362 120 -588 c103 -508
164 -817 186 -941 18 -106 -66 43 -257 452 -69 148 -150 325 -180 392 -30 68
-55 121 -56 120 -2 -2 3 -86 11 -187 7 -102 17 -248 20 -325 l7 -140 -20 20
c-11 11 -110 136 -221 278 l-200 259 25 39 c24 38 379 699 721 1344 236 443
254 475 264 475 5 0 9 -3 9 -6z m1562 -1815 c-105 -151 -224 -319 -266 -373
-77 -101 -354 -401 -363 -392 -4 4 167 656 185 707 6 16 90 63 318 178 170 86
310 155 312 155 2 -1 -82 -125 -186 -275z"/>
<path d="M3674 3823 c4 -21 15 -171 26 -333 11 -162 25 -348 31 -413 l12 -117
156 -127 c86 -71 237 -196 336 -278 276 -231 339 -281 333 -263 -10 26 -293
525 -558 983 -133 231 -263 457 -287 503 -25 45 -47 82 -50 82 -3 0 -2 -17 1
-37z"/>
</g>
</svg>
