<?xml version="1.0" standalone="no"?>
<!DOCTYPE svg PUBLIC "-//W3C//DTD SVG 20010904//EN"
 "http://www.w3.org/TR/2001/REC-SVG-20010904/DTD/svg10.dtd">
<svg version="1.0" xmlns="http://www.w3.org/2000/svg"
 width="1024" height="1024" viewBox="0 0 1024 1024"
 preserveAspectRatio="xMidYMid meet">
  <rect width="1024" height="1024" fill="white"/>
<metadata>
Created by potrace 1.16, written by Peter Selinger 2001-2019
</metadata>
<g transform="translate(0.000000,1024.000000) scale(0.100000,-0.100000)"
fill="#000000" stroke="none">
<path d="M0 5120 l0 -5120 5120 0 5120 0 0 5120 0 5120 -5120 0 -5120 0 0
-5120z m5370 4068 c375 -227 363 -217 374 -288 28 -172 68 -455 76 -540 5 -58
19 -178 31 -266 l22 -162 -44 -38 c-24 -22 -142 -133 -262 -248 -120 -114
-219 -207 -221 -205 -2 2 2 167 7 366 l10 361 29 9 c25 7 45 35 122 165 89
150 93 160 109 254 9 54 14 100 12 103 -3 2 -104 -62 -225 -143 l-220 -146 0
-172 0 -172 -27 -28 c-15 -15 -32 -28 -39 -28 -6 0 -26 16 -43 35 l-31 36 0
159 0 159 -38 30 c-51 42 -395 262 -400 256 -2 -2 3 -41 13 -87 12 -60 36
-123 88 -230 69 -140 74 -148 123 -177 l51 -30 7 -318 c4 -175 9 -335 13 -357
3 -25 2 -37 -5 -35 -6 2 -94 83 -197 179 -102 96 -220 207 -262 245 l-76 71
32 234 c18 129 48 332 67 450 18 118 37 242 40 274 5 44 13 66 30 80 12 12
125 81 251 153 125 73 248 146 273 163 25 16 52 30 60 30 8 0 120 -64 250
-142z m1093 -1463 c92 -43 167 -81 167 -84 0 -10 -311 -71 -362 -71 l-48 0
-29 58 c-23 46 -111 266 -111 279 0 2 48 -21 108 -50 59 -30 182 -89 275 -132z
m-2313 168 c0 -16 -92 -248 -113 -286 l-22 -39 -75 6 c-75 7 -308 61 -322 75
-5 4 47 31 115 61 67 30 185 84 262 121 144 70 155 74 155 62z m-616 -447
c140 -48 253 -70 582 -111 109 -14 249 -34 309 -45 61 -10 149 -26 196 -34 83
-15 90 -18 223 -110 76 -52 158 -114 183 -137 l46 -42 -12 -196 c-7 -108 -15
-212 -18 -231 -5 -38 -6 -38 -222 -220 l-133 -113 -396 17 -396 17 -45 37
c-25 20 -107 93 -181 162 -75 69 -168 154 -209 190 l-73 65 6 48 c4 26 27 127
51 224 25 97 43 178 41 180 -5 5 -297 -301 -355 -374 -27 -34 -91 -76 -295
-194 -144 -83 -290 -169 -325 -191 -35 -21 -65 -37 -67 -36 -2 2 1 33 6 68 5
36 16 139 25 230 9 91 23 219 31 285 19 153 14 145 272 422 l114 122 71 4 c40
1 155 4 256 5 l185 2 130 -44z m3904 -62 c168 -179 277 -305 284 -329 3 -14
18 -122 32 -242 15 -120 33 -274 41 -342 9 -68 13 -126 11 -129 -5 -4 -144 75
-456 261 -192 114 -189 112 -296 233 -139 155 -294 317 -294 306 0 -5 23 -103
50 -217 l51 -208 -93 -91 c-51 -50 -163 -157 -248 -238 l-156 -146 -269 -11
c-149 -6 -329 -14 -400 -17 l-131 -6 -64 53 c-36 30 -108 89 -160 131 -160
128 -146 98 -159 351 -9 164 -9 222 -1 232 22 27 146 123 252 195 78 52 123
76 165 86 172 41 274 57 618 99 281 34 311 40 450 85 66 21 129 41 140 44 11
3 137 4 280 2 l260 -4 93 -98z m-4338 -956 c0 -2 -7 -41 -15 -88 -9 -47 -29
-170 -45 -273 -16 -103 -33 -194 -37 -202 -23 -41 -319 -385 -331 -385 -19 0
-164 58 -286 115 -52 24 -98 40 -101 35 -6 -9 114 -247 242 -483 35 -64 68
-128 73 -142 8 -20 -2 -59 -50 -197 -32 -95 -91 -272 -130 -393 -39 -121 -74
-225 -76 -232 -5 -12 28 -40 308 -256 97 -75 183 -143 191 -151 21 -21 73
-411 58 -430 -19 -23 -99 -46 -159 -46 -53 0 -54 0 -47 28 12 57 -43 165 -113
221 l-40 31 -26 -56 c-14 -31 -42 -83 -62 -115 -27 -45 -33 -63 -25 -73 6 -7
64 -51 128 -96 65 -46 120 -86 123 -88 24 -18 -254 -168 -293 -158 -12 3 -69
44 -127 92 -58 48 -155 120 -217 160 -61 41 -115 79 -118 84 -7 11 -8 19 -55
555 -39 442 -57 669 -65 780 -3 50 -10 133 -16 185 -10 98 -39 515 -39 560 0
16 28 64 72 125 72 100 168 251 348 548 52 86 101 157 109 157 11 0 12 -17 6
-91 l-7 -90 31 16 c17 8 176 80 354 159 177 79 345 155 372 169 46 24 65 31
65 25z m4166 -49 c60 -28 188 -87 284 -132 96 -45 231 -110 299 -144 l123 -61
-6 36 c-4 21 -9 66 -12 102 -6 58 -5 63 9 50 8 -8 133 -193 278 -410 l264
-395 -3 -50 c-5 -104 -43 -596 -57 -740 -8 -82 -22 -242 -30 -355 -18 -231
-82 -901 -91 -942 -4 -21 -27 -39 -112 -89 -59 -34 -163 -107 -231 -162 -69
-56 -133 -100 -142 -100 -35 3 -205 92 -248 130 l-44 39 65 41 c76 47 198 141
198 152 0 4 -25 52 -55 107 -30 54 -55 105 -55 112 0 43 -87 -40 -126 -122
-35 -72 -42 -110 -24 -121 53 -33 -109 -33 -175 0 -53 26 -54 44 -16 270 29
168 33 181 58 200 15 11 47 37 71 58 24 21 129 101 233 179 142 107 188 146
183 158 -25 55 -70 197 -216 671 l-39 126 71 152 c38 83 106 224 151 312 44
89 78 163 75 166 -3 3 -20 -1 -39 -10 -18 -9 -69 -29 -112 -46 -44 -16 -114
-44 -155 -61 l-74 -32 -29 33 c-48 57 -274 354 -285 375 -5 10 -24 107 -41
214 -36 226 -50 306 -58 326 -3 8 -3 14 0 14 2 0 53 -23 113 -51z m-2028 -172
c595 -474 827 -657 836 -657 3 0 129 125 280 278 151 152 277 274 281 271 6
-7 -16 -64 -127 -329 -34 -81 -265 -491 -364 -648 l-15 -23 -39 33 c-21 18
-186 157 -366 308 -351 294 -384 322 -518 444 l-86 79 -108 -104 c-108 -104
-206 -186 -745 -623 -149 -120 -159 -127 -172 -110 -8 11 -52 84 -97 164 -45
80 -123 217 -173 305 -70 121 -107 201 -154 329 -33 93 -60 171 -58 172 2 2
128 -120 280 -271 l277 -276 63 42 c75 51 396 306 597 474 165 138 283 234
288 235 2 0 56 -42 120 -93z m-105 -650 c3 -7 28 -43 55 -79 28 -36 88 -117
133 -179 45 -63 93 -128 106 -145 l23 -32 -165 -211 c-92 -116 -168 -211 -169
-211 -8 0 -331 423 -329 430 4 14 327 440 334 440 4 0 9 -6 12 -13z m-905
-802 c46 -99 155 -337 242 -530 86 -192 174 -385 194 -429 20 -43 36 -84 36
-90 0 -6 -28 -50 -62 -97 -35 -48 -94 -130 -132 -182 -38 -53 -73 -94 -76 -92
-4 3 -13 26 -20 52 -7 27 -45 163 -86 303 -40 140 -76 273 -80 295 -3 22 -9
44 -12 49 -5 10 -46 -178 -97 -454 -14 -74 -46 -234 -70 -355 -24 -121 -46
-233 -47 -250 -3 -25 -16 -39 -81 -82 -43 -29 -84 -53 -90 -53 -13 0 -66 217
-74 299 -7 76 -8 76 -73 22 -33 -27 -105 -82 -160 -121 -55 -40 -102 -75 -104
-78 -3 -7 3 -63 40 -389 l17 -151 -46 -114 c-25 -62 -68 -171 -95 -243 -28
-71 -90 -237 -140 -367 l-90 -236 38 -99 c48 -123 116 -285 164 -387 20 -43
36 -81 36 -84 0 -2 -193 -3 -430 -1 -236 2 -430 7 -430 12 0 4 19 24 43 44 88
78 320 310 352 353 l33 45 11 325 c6 179 11 424 11 545 l0 220 45 60 c25 33
80 101 123 150 160 184 161 186 213 470 60 335 120 642 143 743 24 101 29 111
204 400 171 285 366 603 420 687 l25 39 10 -24 c6 -14 49 -106 95 -205z m2013
27 c52 -87 134 -220 181 -297 94 -154 243 -407 294 -500 18 -33 40 -91 49
-130 28 -128 83 -419 95 -500 6 -44 30 -174 52 -290 47 -237 37 -216 188 -390
140 -161 190 -224 194 -248 3 -12 7 -257 10 -545 4 -443 8 -527 21 -555 14
-30 279 -301 368 -378 35 -29 37 -33 20 -43 -16 -9 -820 -27 -832 -19 -2 2 10
33 26 70 86 190 202 461 208 483 4 18 -14 77 -61 200 -36 96 -86 229 -110 295
-25 66 -79 203 -121 304 l-76 183 17 162 c10 88 21 194 27 234 19 153 28 135
-134 255 -79 58 -149 113 -157 121 -17 21 -30 20 -30 -1 1 -39 -65 -363 -74
-363 -17 0 -166 104 -170 119 -6 18 -166 834 -194 986 -11 55 -21 93 -24 85
-3 -8 -20 -73 -37 -145 -17 -71 -59 -226 -94 -343 l-62 -213 -20 24 c-11 13
-49 66 -85 118 -36 51 -89 126 -117 167 -29 40 -53 77 -53 82 0 18 275 632
475 1060 42 91 82 176 87 190 l10 25 16 -23 c10 -13 60 -94 113 -180z m-2276
-2404 c-3 -29 -12 -136 -20 -237 l-14 -185 -153 -153 c-84 -84 -156 -153 -160
-153 -4 0 -5 102 -2 228 l5 227 167 162 c92 90 170 163 175 163 4 0 5 -24 2
-52z m2550 -167 l110 -106 3 -227 c2 -126 0 -228 -5 -228 -4 0 -77 69 -161
153 l-152 152 -10 155 c-5 85 -13 193 -16 240 l-7 85 64 -60 c35 -32 114 -107
174 -164z"/>
</g>
</svg>
