<?xml version="1.0" standalone="no"?>
<!DOCTYPE svg PUBLIC "-//W3C//DTD SVG 20010904//EN"
 "http://www.w3.org/TR/2001/REC-SVG-20010904/DTD/svg10.dtd">
<svg version="1.0" xmlns="http://www.w3.org/2000/svg"
 width="1024" height="1024" viewBox="0 0 1024 1024"
 preserveAspectRatio="xMidYMid meet">
  <rect width="1024" height="1024" fill="white"/>
<metadata>
Created by potrace 1.16, written by Peter Selinger 2001-2019
</metadata>
<g transform="translate(0.000000,1024.000000) scale(0.100000,-0.100000)"
fill="#000000" stroke="none">
<path d="M0 5120 l0 -5120 5120 0 5120 0 0 5120 0 5120 -5120 0 -5120 0 0
-5120z m3330 3620 c91 -109 206 -244 255 -301 50 -58 200 -235 335 -393 134
-159 307 -356 385 -439 77 -82 175 -187 218 -233 42 -47 77 -82 77 -80 0 3
-43 86 -95 185 -100 190 -205 398 -205 405 0 2 71 45 158 96 86 51 268 160
404 241 136 82 252 149 257 149 15 0 386 -217 673 -394 l147 -91 -45 -83 c-81
-150 -266 -512 -262 -512 6 0 333 350 454 485 50 55 148 170 219 255 71 85
233 277 360 425 232 272 253 296 471 569 l119 149 7 -39 c5 -21 26 -172 48
-334 23 -162 63 -450 91 -640 27 -190 49 -362 49 -383 0 -25 -27 -98 -86 -230
-48 -105 -106 -239 -130 -297 -23 -58 -58 -139 -76 -181 l-33 -75 -140 119
-139 119 72 -7 c40 -4 72 -5 72 -3 0 2 15 73 34 158 37 170 51 264 66 445 11
132 12 442 2 575 l-7 85 -154 -265 c-217 -373 -215 -369 -356 -630 -70 -129
-136 -249 -146 -266 l-19 -32 242 -189 c134 -104 268 -206 298 -228 59 -42
289 -212 595 -440 105 -78 223 -166 264 -195 l75 -55 -177 -21 c-207 -26 -476
-66 -635 -96 l-114 -20 39 -23 c22 -12 66 -40 99 -62 32 -22 117 -77 188 -122
159 -101 536 -361 536 -370 0 -3 -51 -23 -113 -45 -393 -135 -840 -319 -1017
-419 -95 -54 -273 -172 -330 -220 -30 -25 -56 -44 -57 -43 -2 2 6 25 17 52 23
55 241 777 236 781 -4 5 -134 -74 -264 -160 l-112 -74 -16 26 c-16 24 -168
233 -292 399 -30 40 -53 74 -51 76 4 4 168 53 359 108 l115 33 24 45 c109 206
203 353 331 516 28 35 48 64 44 64 -15 0 -351 -138 -500 -206 -273 -123 -319
-149 -467 -260 -31 -24 -59 -44 -62 -44 -2 0 -11 12 -18 26 -13 25 -9 34 113
228 69 110 135 214 146 231 25 38 14 32 -111 -69 -204 -164 -391 -327 -408
-356 -21 -35 -20 -38 69 -182 30 -48 54 -97 54 -107 0 -11 -36 -101 -79 -200
-43 -100 -77 -181 -74 -181 3 0 70 61 149 136 80 75 146 135 147 133 54 -70
271 -332 316 -382 33 -37 61 -72 61 -77 0 -18 -168 -512 -177 -520 -4 -5 -89
-41 -188 -80 -99 -40 -210 -88 -248 -107 l-67 -34 -65 38 c-46 27 -65 44 -65
58 0 21 189 215 309 317 l54 46 -31 64 c-52 107 -51 106 -182 118 -147 13
-409 13 -525 0 -100 -11 -108 -17 -150 -100 -44 -89 -55 -71 150 -261 102 -94
185 -179 185 -188 0 -15 -114 -91 -137 -91 -5 0 -55 21 -109 47 -54 25 -166
74 -248 107 l-148 61 -89 253 c-49 139 -89 259 -89 265 0 7 43 59 96 117 53
58 139 160 191 227 53 68 98 123 102 123 3 -1 69 -61 146 -135 77 -73 141
-132 143 -130 2 2 -13 41 -34 87 -67 152 -114 271 -114 291 0 11 17 47 39 81
21 34 53 90 70 124 l32 63 -20 28 c-11 16 -58 60 -103 98 -129 109 -429 345
-433 341 -2 -2 63 -103 146 -225 82 -122 149 -227 149 -235 -1 -7 -12 -26 -25
-43 l-24 -30 -38 37 c-106 102 -432 292 -652 380 -92 37 -321 116 -321 111 0
-2 71 -115 158 -251 88 -136 173 -274 191 -307 l31 -60 241 -69 c132 -38 241
-72 243 -75 2 -3 -61 -89 -141 -191 -79 -102 -160 -211 -181 -242 -20 -32 -41
-58 -45 -58 -5 0 -23 11 -40 24 -52 40 -320 206 -324 202 -3 -2 5 -39 17 -83
36 -130 212 -707 222 -725 14 -28 1 -22 -61 30 -143 120 -413 268 -739 406
-139 60 -487 189 -619 231 -46 14 -83 28 -83 30 0 16 524 372 740 505 117 71
121 75 94 82 -63 17 -393 68 -641 100 -145 18 -263 35 -262 38 0 3 35 30 77
60 42 30 158 114 257 187 99 73 283 207 409 299 248 179 648 488 719 554 12
10 -2 36 -276 515 -132 231 -275 480 -316 553 l-76 132 -8 -77 c-12 -117 0
-610 18 -738 20 -143 41 -259 67 -367 23 -98 19 -94 111 -79 26 4 47 5 47 2
-1 -3 -35 -33 -76 -66 -42 -33 -103 -86 -137 -117 -34 -32 -62 -56 -62 -55 -1
1 -63 148 -139 327 -77 179 -150 347 -163 374 -22 43 -24 57 -18 115 8 83 68
515 100 726 26 173 85 606 85 626 0 7 42 -41 93 -106 50 -65 166 -207 257
-315z m-270 -3943 c58 -61 151 -161 205 -222 128 -141 396 -434 589 -643 82
-90 156 -171 163 -181 12 -17 66 -271 59 -278 -4 -4 -718 473 -813 543 -40 30
-73 52 -73 48 0 -36 158 -280 712 -1099 82 -121 195 -290 251 -375 56 -85 173
-258 258 -385 86 -126 159 -237 164 -245 4 -8 -442 433 -991 980 -550 548
-1056 1047 -1126 1109 l-126 114 106 131 c330 406 504 615 512 616 3 0 52 -51
110 -113z m4347 -15 c56 -70 184 -226 283 -347 100 -121 190 -232 201 -246
l19 -27 -458 -439 c-251 -242 -757 -740 -1124 -1107 -368 -366 -668 -664 -668
-660 0 3 73 113 163 243 405 585 1237 1841 1237 1866 0 2 -83 -53 -185 -123
-485 -333 -719 -491 -722 -488 -2 2 1 16 7 32 6 16 23 81 36 144 20 92 31 121
53 145 15 17 137 152 271 300 452 502 760 835 773 834 6 0 58 -57 114 -127z
m-1597 -220 c0 -4 -17 -59 -38 -122 -21 -63 -60 -193 -87 -288 -26 -95 -50
-171 -52 -169 -2 3 -26 85 -53 183 -27 99 -56 199 -64 223 -9 24 -15 45 -14
46 2 1 53 23 113 49 61 26 126 56 145 66 39 21 50 24 50 12z m-1255 -50 c97
-43 174 -80 183 -87 1 -1 -11 -42 -27 -91 -16 -49 -45 -150 -64 -224 -19 -74
-38 -128 -41 -120 -3 8 -39 132 -80 275 -41 143 -78 268 -81 278 -4 9 -5 17
-3 17 2 0 53 -22 113 -48z m327 -893 l50 -107 45 -6 c57 -8 281 -8 309 0 16 4
38 40 82 132 33 70 63 138 67 151 12 39 22 12 46 -120 20 -112 21 -131 9 -173
-10 -37 -21 -53 -49 -70 -89 -56 -114 -64 -241 -74 -109 -8 -137 -7 -222 10
-57 11 -119 31 -151 49 -47 25 -58 36 -71 75 -14 43 -14 53 12 186 l27 140 18
-43 c11 -24 41 -92 69 -150z m-388 -25 c4 -9 50 -78 103 -153 75 -107 114
-151 180 -206 46 -38 97 -73 113 -76 16 -3 134 -4 264 -1 l234 5 84 72 c65 57
106 105 188 224 l105 152 3 -43 c5 -59 -28 -378 -42 -404 -6 -12 -145 -158
-310 -325 l-298 -304 -259 265 c-143 146 -281 290 -308 321 l-48 56 -13 154
c-20 225 -19 322 4 263z"/>
</g>
</svg>
