<?xml version="1.0" standalone="no"?>
<!DOCTYPE svg PUBLIC "-//W3C//DTD SVG 20010904//EN"
 "http://www.w3.org/TR/2001/REC-SVG-20010904/DTD/svg10.dtd">
<svg version="1.0" xmlns="http://www.w3.org/2000/svg"
 width="1024" height="1024" viewBox="0 0 1024 1024"
 preserveAspectRatio="xMidYMid meet">
  <rect width="1024" height="1024" fill="white"/>
<metadata>
Created by potrace 1.16, written by Peter Selinger 2001-2019
</metadata>
<g transform="translate(0.000000,1024.000000) scale(0.100000,-0.100000)"
fill="#000000" stroke="none">
<path d="M0 5120 l0 -5120 5120 0 5120 0 0 5120 0 5120 -5120 0 -5120 0 0
-5120z m5179 4384 c14 -10 89 -67 166 -129 165 -131 568 -442 744 -574 107
-81 121 -95 109 -107 -15 -15 -227 -112 -735 -335 -185 -81 -283 -119 -308
-119 -25 0 -133 41 -333 126 -164 70 -403 171 -532 224 -129 54 -235 103 -235
108 0 6 34 37 75 69 167 128 634 493 765 598 221 176 224 177 284 139z m-3229
-600 c771 -170 1350 -311 1432 -347 55 -24 73 -43 301 -300 38 -42 71 -77 75
-77 4 0 22 27 41 59 25 45 105 158 147 210 5 5 12 2 544 -224 261 -111 493
-209 515 -217 22 -9 40 -20 39 -24 0 -5 -21 -53 -47 -106 -26 -54 -47 -104
-47 -112 0 -8 -4 -17 -8 -20 -16 -10 -163 51 -552 228 -80 36 -152 66 -160 66
-8 -1 -82 -36 -164 -79 l-148 -79 168 -135 c93 -74 198 -165 234 -201 74 -76
67 -74 253 -55 59 6 110 9 114 6 10 -10 -89 -168 -111 -178 -12 -5 -127 -56
-256 -114 -193 -87 -227 -105 -191 -103 l43 4 79 -166 c43 -91 103 -212 132
-269 l53 -104 230 -78 c126 -43 290 -100 365 -126 l136 -47 299 113 c165 63
314 121 333 130 30 14 55 51 183 276 82 143 147 266 146 274 -2 7 -102 63
-223 125 l-219 111 -38 63 c-21 35 -35 68 -32 74 4 6 59 7 153 3 l146 -7 135
109 c164 132 311 256 329 276 11 14 4 20 -49 47 -33 17 -89 48 -123 68 -112
69 -111 69 -213 24 -49 -22 -186 -85 -304 -142 -145 -68 -226 -102 -250 -102
-19 0 -40 -4 -46 -9 -8 -7 -30 24 -73 106 -34 63 -61 118 -61 122 0 5 28 20
63 35 34 15 107 47 162 72 55 24 190 83 300 129 110 47 274 117 364 156 90 39
169 71 175 71 7 0 52 -61 100 -135 49 -74 94 -135 100 -135 6 1 43 42 81 92
92 121 240 279 281 300 39 21 805 194 1229 278 278 55 390 79 449 97 12 3 -4
-22 -45 -69 -125 -145 -275 -314 -374 -423 -126 -137 -522 -590 -820 -935
l-99 -115 -130 -53 c-102 -41 -371 -148 -453 -179 -16 -6 -16 93 1 257 l11
114 100 28 c55 15 157 46 226 68 123 40 126 42 138 78 27 76 148 318 175 350
16 18 126 121 245 229 214 193 281 259 281 274 0 4 -26 -4 -57 -18 -32 -14
-174 -70 -317 -124 -142 -54 -316 -129 -386 -165 l-127 -67 -98 -131 c-138
-186 -358 -520 -407 -618 -76 -154 -94 -234 -123 -523 l-15 -159 -194 -196
c-107 -107 -261 -265 -342 -350 -82 -85 -185 -192 -229 -237 l-80 -82 -147
-20 -148 -21 -136 20 c-75 12 -148 26 -163 31 -24 9 -730 713 -806 804 l-34
40 -15 196 c-18 215 -38 315 -86 409 -67 133 -470 749 -537 821 -34 37 -290
157 -478 224 -88 32 -222 84 -298 116 -75 33 -140 59 -144 59 -16 0 151 -159
318 -306 98 -84 192 -171 210 -193 19 -21 76 -120 127 -220 l93 -181 218 -70
218 -70 7 -77 c7 -90 8 -273 1 -273 -3 0 -49 20 -104 45 -55 24 -161 70 -238
101 -161 66 -206 88 -252 123 -29 22 -269 292 -500 561 -31 36 -126 143 -211
239 -85 96 -202 229 -259 295 -58 67 -160 186 -229 265 -118 136 -123 143 -91
136 19 -3 104 -22 189 -41z m3456 -1504 c74 -109 119 -191 107 -198 -5 -4 -65
-48 -134 -98 -199 -145 -227 -163 -248 -157 -24 6 -188 142 -255 211 l-49 51
23 53 c12 29 65 141 117 248 88 181 139 291 164 358 10 25 17 14 117 -183 59
-115 130 -244 158 -285z m371 -352 l53 -38 -18 -47 c-16 -45 -24 -51 -147
-125 -72 -43 -212 -121 -312 -174 -101 -53 -186 -100 -189 -105 -3 -6 -17 -3
-32 8 -15 9 -173 92 -352 184 l-325 167 -17 46 -17 45 37 10 c170 44 165 43
188 24 118 -97 277 -222 355 -280 52 -40 101 -79 109 -87 7 -9 19 -16 27 -16
14 0 470 352 528 408 35 34 42 32 112 -20z m-1795 -650 c134 -138 369 -382
523 -540 154 -159 305 -316 335 -350 l54 -61 -29 -24 c-61 -49 -491 -371 -510
-381 -16 -8 -25 -7 -42 6 -21 17 -546 806 -599 901 -16 28 -32 51 -36 51 -3 0
-161 -70 -350 -156 -433 -196 -477 -214 -536 -214 -99 0 -182 12 -182 27 0 8
53 96 117 196 64 100 169 265 234 367 64 102 130 199 145 216 23 24 53 38 134
63 58 18 186 59 285 91 99 32 188 59 197 59 9 1 123 -109 260 -251z m2903 156
c116 -35 227 -69 247 -75 21 -7 51 -24 67 -38 17 -14 124 -179 239 -366 115
-187 223 -362 240 -389 18 -28 32 -54 32 -59 0 -13 -265 2 -309 18 -34 12
-268 115 -631 277 -190 85 -188 85 -192 61 -4 -24 -560 -854 -605 -904 -20
-21 -43 -39 -53 -39 -18 0 -530 376 -530 389 0 6 552 573 1072 1101 l113 115
50 -13 c28 -8 145 -42 260 -78z m170 -1068 c116 -36 244 -77 285 -92 61 -21
102 -28 222 -34 117 -6 153 -12 177 -26 17 -11 124 -82 238 -158 114 -77 233
-156 263 -175 44 -29 56 -42 58 -66 2 -17 59 -208 127 -425 68 -217 146 -474
174 -570 27 -96 82 -268 121 -382 l71 -207 -108 -324 -108 -324 -272 -90 -272
-91 -71 22 c-38 12 -72 24 -74 27 -2 2 80 64 182 136 271 192 242 160 252 283
5 58 12 152 16 210 l7 105 -74 44 c-41 24 -114 73 -163 107 -49 35 -93 64 -97
64 -5 0 -32 -21 -61 -47 -29 -27 -67 -59 -84 -73 l-32 -25 -17 -185 c-25 -274
-8 -260 -153 -123 -67 63 -129 128 -137 144 -13 25 -13 55 0 256 l14 228 33
28 c67 57 430 257 468 257 17 0 13 12 -64 171 -73 153 -151 330 -241 549 -26
63 -56 132 -66 153 l-20 37 -94 -64 c-98 -67 -132 -84 -144 -69 -77 90 -146
178 -337 433 -279 371 -283 377 -246 366 9 -3 112 -34 227 -70z m-3841 -258
c-134 -178 -269 -356 -299 -395 -31 -40 -59 -73 -63 -73 -8 0 -63 32 -170 100
-29 18 -54 31 -55 29 -2 -2 -38 -85 -82 -184 -43 -99 -129 -291 -191 -428 -62
-136 -116 -256 -119 -267 -5 -17 15 -30 153 -99 142 -70 306 -165 339 -195 13
-13 29 -148 38 -328 l6 -127 -138 -146 -138 -146 -12 83 c-6 46 -14 121 -18
168 -12 162 -7 152 -98 223 -45 35 -88 67 -95 71 -8 5 -42 -11 -90 -42 -42
-27 -115 -74 -162 -104 l-85 -54 12 -180 c6 -98 12 -188 12 -200 1 -15 29 -41
94 -87 280 -202 342 -248 345 -256 4 -12 -74 -48 -118 -55 -27 -4 -94 15 -299
87 l-263 92 -78 225 c-43 124 -94 267 -114 318 l-36 94 71 196 c39 108 86 251
105 317 19 66 50 172 69 235 59 198 162 540 199 663 20 65 36 133 36 151 0 33
8 39 208 177 114 79 247 172 297 207 l90 65 140 4 c151 5 182 12 590 138 77
24 145 44 152 44 7 1 -98 -144 -233 -321z m2100 -183 c61 -61 144 -142 185
-179 l74 -69 -135 -128 c-74 -70 -172 -173 -218 -229 l-84 -101 -204 203
c-112 112 -208 211 -213 221 -9 15 10 39 112 145 67 70 163 173 212 229 l90
103 35 -43 c20 -23 85 -92 146 -152z m-1214 -85 c47 -41 123 -111 170 -155 47
-44 235 -217 418 -384 183 -167 357 -331 387 -364 49 -54 56 -58 72 -46 65 51
266 226 493 428 236 210 326 294 597 555 40 39 75 67 79 63 8 -7 -31 -115 -96
-272 -23 -55 -58 -149 -78 -209 -20 -60 -45 -120 -56 -132 -12 -13 -158 -100
-326 -195 -290 -163 -390 -225 -542 -333 -37 -26 -76 -48 -86 -49 -10 0 -63
31 -117 70 -103 73 -323 211 -618 386 -155 92 -170 103 -191 146 -24 47 -236
584 -236 597 0 8 12 -2 130 -106z m99 -887 c64 -49 195 -152 293 -230 98 -78
193 -153 211 -165 l34 -22 -36 -26 c-20 -15 -162 -111 -316 -215 -548 -368
-607 -412 -795 -589 -96 -91 -178 -166 -182 -166 -4 0 -44 75 -89 167 -57 115
-84 182 -86 213 -4 45 -3 46 142 230 80 102 200 257 267 345 215 283 423 544
432 545 6 0 62 -39 125 -87z m2078 5 c141 -167 623 -793 735 -953 l49 -71 -87
-174 c-47 -96 -90 -185 -95 -198 -8 -21 -11 -22 -29 -9 -12 8 -98 87 -193 175
-190 176 -220 203 -257 222 -13 7 -132 88 -265 180 -132 91 -316 217 -410 280
-93 62 -174 117 -178 120 -5 4 45 50 110 101 157 124 535 409 544 409 4 0 38
-37 76 -82z m-1233 -908 l105 -81 96 81 c53 44 98 80 101 80 13 0 247 -142
273 -166 2 -2 -16 -25 -39 -51 -102 -115 -252 -288 -344 -396 -66 -78 -102
-114 -111 -109 -13 8 -475 554 -475 562 0 4 280 160 287 160 1 0 49 -36 107
-80z m-999 -604 l15 -199 -89 -171 c-48 -94 -103 -205 -120 -247 l-33 -75 82
-155 c46 -85 102 -188 125 -229 75 -134 175 -330 175 -344 0 -7 -17 -18 -37
-24 -21 -5 -195 -54 -388 -108 l-350 -99 -620 -3 c-395 -1 -616 1 -610 7 25
25 951 591 1223 748 8 5 20 25 27 46 13 37 10 47 -65 270 -98 288 -220 674
-219 690 0 9 2 9 6 -1 2 -6 61 -59 129 -117 l125 -106 57 44 c31 24 129 92
217 152 88 60 196 136 240 168 l80 59 7 -53 c4 -30 14 -143 23 -253z m2289
250 c33 -23 159 -113 279 -199 120 -86 226 -159 237 -162 13 -4 57 21 152 88
73 52 135 93 137 91 1 -1 -15 -49 -37 -106 -22 -57 -63 -173 -90 -258 -28 -85
-82 -247 -121 -360 -39 -112 -71 -212 -71 -222 0 -11 19 -27 52 -44 59 -30
134 -75 678 -404 212 -128 421 -254 464 -279 76 -43 79 -46 50 -51 -16 -3
-297 -3 -624 0 l-595 5 -370 104 c-203 57 -374 107 -380 112 -10 10 56 147
256 533 l120 229 -61 108 c-33 59 -90 165 -126 236 -66 127 -66 128 -60 193 3
36 10 142 17 235 11 175 14 195 25 195 3 0 34 -20 68 -44z"/>
</g>
</svg>
