<?xml version="1.0" standalone="no"?>
<!DOCTYPE svg PUBLIC "-//W3C//DTD SVG 20010904//EN"
 "http://www.w3.org/TR/2001/REC-SVG-20010904/DTD/svg10.dtd">
<svg version="1.0" xmlns="http://www.w3.org/2000/svg"
 width="1024" height="1024" viewBox="0 0 1024 1024"
 preserveAspectRatio="xMidYMid meet">
  <rect width="1024" height="1024" fill="white"/>
<metadata>
Created by potrace 1.16, written by Peter Selinger 2001-2019
</metadata>
<g transform="translate(0.000000,1024.000000) scale(0.100000,-0.100000)"
fill="#000000" stroke="none">
<path d="M0 5120 l0 -5120 5120 0 5120 0 0 5120 0 5120 -5120 0 -5120 0 0
-5120z m5299 4253 c165 -116 905 -650 1034 -747 l67 -51 -2 -509 -3 -509 -261
-161 c-144 -89 -323 -196 -397 -239 l-136 -78 -66 36 c-48 27 -75 51 -100 88
-19 28 -32 54 -29 59 7 10 245 168 414 273 69 42 185 116 258 163 126 81 132
86 119 106 -8 12 -42 69 -77 127 -34 59 -72 119 -84 134 l-22 27 -209 -143
c-116 -78 -298 -204 -405 -279 -263 -185 -277 -193 -292 -184 -7 4 -159 109
-338 234 -179 125 -375 261 -436 303 l-111 77 -92 -153 c-50 -85 -91 -158 -91
-164 0 -5 83 -61 185 -124 177 -109 545 -345 594 -381 l24 -17 -26 -43 c-31
-53 -46 -66 -122 -107 l-60 -33 -185 109 c-102 60 -281 167 -397 238 l-213
130 3 515 2 515 245 178 c561 408 1013 727 1033 727 5 0 85 -53 176 -117z
m-2087 -1244 c62 -50 184 -151 271 -225 l157 -135 2 -357 c0 -196 2 -394 2
-439 1 -46 0 -83 -2 -83 -1 0 -29 26 -61 58 l-58 57 -78 220 c-96 275 -318
887 -339 937 -16 38 -20 58 -11 58 2 0 55 -41 117 -91z m3942 82 c3 -5 -7 -37
-23 -72 -26 -58 -195 -518 -352 -962 -60 -169 -66 -180 -120 -237 -31 -33 -58
-60 -60 -60 -2 0 -3 200 -1 443 l2 444 148 125 c81 69 192 161 247 205 55 44
109 90 119 102 21 23 32 26 40 12z m-1964 -1070 c16 -4 33 -22 47 -51 20 -40
189 -688 181 -695 -22 -19 -207 -137 -248 -159 l-55 -29 -110 70 c-173 109
-185 117 -185 131 0 7 18 84 40 170 121 476 146 557 178 565 26 7 124 6 152
-2z m-763 -367 c76 21 175 49 221 61 l83 23 -7 -21 c-27 -88 -119 -237 -328
-534 -40 -57 -45 -70 -50 -135 -7 -102 -16 -372 -12 -367 2 2 50 94 106 204
57 112 116 215 135 234 l33 34 44 -35 c23 -19 99 -73 168 -118 69 -46 164
-112 212 -147 l86 -63 169 118 c242 171 342 234 361 227 10 -3 29 -22 43 -43
39 -56 174 -310 195 -367 l19 -50 3 50 c1 28 -1 130 -6 227 l-8 176 -37 54
c-21 29 -88 123 -148 208 -97 138 -157 239 -188 321 l-10 27 112 -34 c62 -19
161 -46 220 -61 l109 -26 203 203 c113 112 206 202 208 200 3 -3 1 -118 -4
-256 l-8 -250 -45 -80 c-93 -166 -155 -347 -296 -875 -48 -175 -89 -291 -109
-304 -5 -2 -35 37 -67 88 -32 50 -104 162 -160 248 l-102 156 -103 7 c-57 4
-261 5 -453 3 l-349 -4 -18 -24 c-10 -13 -35 -55 -55 -94 -21 -38 -56 -95 -79
-125 -24 -30 -73 -102 -110 -159 l-67 -104 -28 64 c-14 35 -32 85 -38 110 -25
102 -205 705 -228 767 -13 36 -53 120 -89 186 l-63 121 -7 265 -7 265 206
-205 205 -204 138 38z m-914 -195 c-1 -8 -16 -68 -32 -134 -16 -66 -55 -250
-86 -409 l-57 -289 211 -206 c116 -113 252 -251 303 -306 89 -96 279 -321 319
-377 l20 -27 -208 -104 c-330 -166 -731 -357 -747 -357 -15 0 -418 362 -706
634 -85 80 -158 146 -162 146 -5 0 -8 -21 -8 -47 0 -92 -58 -495 -152 -1054
l-41 -245 -579 -384 c-319 -212 -582 -389 -585 -394 -4 -5 4 -6 18 -3 33 9
1404 205 1490 213 47 5 69 3 69 -4 0 -6 -4 -14 -10 -17 -16 -10 -220 -344
-220 -361 0 -9 31 -186 70 -393 38 -207 85 -457 103 -556 l33 -180 74 -8 c41
-4 158 -15 260 -25 l185 -17 -299 -160 c-165 -88 -305 -161 -311 -163 -7 -2
-194 129 -416 289 -681 493 -1323 955 -1336 963 -1 1 27 91 63 201 134 413
788 2481 887 2808 11 37 24 67 28 67 24 0 1680 837 1753 886 51 34 73 38 69
13z m3306 -22 c36 -23 444 -231 907 -462 l840 -419 104 -336 c57 -184 149
-483 206 -665 56 -181 153 -492 214 -690 62 -198 168 -538 237 -755 69 -217
141 -446 161 -508 l36 -114 -25 -19 c-13 -10 -312 -227 -664 -481 -352 -254
-731 -529 -843 -610 -111 -81 -206 -148 -211 -148 -4 0 -72 35 -152 78 -79 43
-215 116 -301 162 -86 46 -156 85 -155 86 1 1 115 12 252 25 138 12 251 23
252 23 0 1 49 255 108 566 105 555 107 565 89 595 -56 98 -191 314 -208 334
l-21 24 70 -6 c71 -7 1446 -202 1498 -213 15 -3 27 -3 27 0 0 2 -260 178 -579
389 -318 212 -581 389 -584 394 -4 5 -26 140 -51 299 -25 159 -61 388 -80 509
-42 264 -66 441 -66 496 0 23 -4 39 -9 37 -6 -1 -124 -109 -263 -239 -139
-129 -330 -306 -425 -392 l-172 -157 -253 121 c-202 98 -691 343 -707 355 -6
5 245 296 391 453 78 85 211 218 294 295 84 78 155 149 158 158 7 17 -92 545
-140 746 -13 57 -24 106 -24 108 0 12 30 -1 89 -39z m-1511 -1187 c67 -5 189
-23 270 -39 81 -17 177 -33 215 -37 37 -4 67 -11 67 -15 0 -5 -62 -73 -139
-151 -76 -79 -155 -162 -176 -185 l-37 -43 -387 0 -386 0 -155 166 c-85 91
-168 175 -184 187 l-30 21 30 8 c16 4 70 13 119 19 50 6 122 19 161 30 166 45
381 58 632 39z m-643 -866 c154 -25 290 -48 303 -50 12 -3 22 -12 22 -21 0 -9
-32 -58 -71 -110 -61 -79 -77 -94 -107 -99 -20 -4 -121 -4 -226 -1 l-190 6
-401 -239 -401 -240 -79 -130 c-43 -72 -76 -133 -73 -135 15 -15 508 211 728
333 58 32 148 81 201 109 l95 50 152 7 c83 3 165 9 182 12 28 6 31 3 50 -41
11 -25 20 -50 20 -55 0 -21 -400 -319 -674 -503 -212 -141 -386 -277 -550
-430 l-41 -38 35 7 c19 5 123 8 231 8 l195 1 85 79 c46 43 183 158 304 254
121 97 266 218 323 270 113 103 108 102 157 32 34 -49 30 -80 -24 -183 -78
-152 -319 -459 -562 -716 l-98 -103 -213 -25 c-117 -13 -214 -25 -215 -27 -1
-1 2 -18 7 -37 6 -18 10 -60 10 -91 l0 -57 78 5 c42 4 174 14 292 23 l215 16
105 126 c58 70 155 182 217 250 61 68 137 156 168 194 32 39 61 71 66 73 4 2
19 -19 33 -46 l25 -50 -120 -258 c-66 -143 -132 -275 -146 -294 -15 -19 -76
-98 -136 -176 l-110 -141 -166 -37 c-91 -21 -269 -62 -396 -91 -266 -61 -236
-62 -560 5 -110 23 -294 61 -410 85 l-210 43 -12 48 c-7 27 -42 177 -78 334
-36 157 -68 294 -70 305 -4 13 35 96 111 240 162 307 213 393 415 697 97 146
191 293 209 326 l33 59 126 56 c69 32 207 100 306 153 254 136 512 260 550
263 6 1 136 -19 290 -45z m1680 -188 c248 -124 459 -227 470 -230 11 -4 38
-34 59 -69 22 -34 117 -179 211 -322 94 -143 209 -323 255 -400 109 -183 270
-496 270 -524 0 -20 -109 -514 -143 -645 -6 -27 -19 -52 -27 -57 -8 -4 -96
-23 -195 -44 -99 -20 -293 -61 -431 -91 l-250 -56 -415 61 c-228 34 -429 64
-446 67 -26 5 -82 58 -295 281 -145 151 -264 283 -266 293 -3 16 52 211 65
233 2 4 35 -19 71 -51 37 -32 125 -105 197 -163 71 -57 175 -148 231 -201
l101 -98 294 0 294 0 0 93 1 93 -231 28 c-126 15 -240 29 -251 31 -65 10 -823
722 -811 762 34 111 86 213 108 213 4 0 43 -30 86 -66 43 -36 128 -98 188
-137 130 -84 480 -319 547 -367 l47 -33 114 11 c62 7 187 12 278 12 l164 1
-40 35 c-22 20 -87 70 -145 112 -58 42 -140 105 -182 140 -43 35 -207 140
-365 234 -158 94 -304 181 -324 194 -38 24 -197 54 -287 54 -48 0 -50 1 -65
38 -15 38 -37 140 -37 173 0 14 19 17 168 23 92 3 217 8 277 12 l110 6 215
-110 c119 -60 258 -128 310 -150 53 -22 165 -74 250 -115 154 -74 269 -121
277 -114 2 2 -39 67 -91 143 -93 137 -96 140 -173 183 -43 24 -213 123 -378
220 l-300 176 -249 3 -248 4 -44 94 c-40 85 -63 153 -53 154 2 1 130 23 284
50 154 27 296 47 315 45 19 -3 238 -106 485 -229z"/>
</g>
</svg>
