<?xml version="1.0" standalone="no"?>
<!DOCTYPE svg PUBLIC "-//W3C//DTD SVG 20010904//EN"
 "http://www.w3.org/TR/2001/REC-SVG-20010904/DTD/svg10.dtd">
<svg version="1.0" xmlns="http://www.w3.org/2000/svg"
 width="1024" height="1024" viewBox="0 0 1024 1024"
 preserveAspectRatio="xMidYMid meet">
  <rect width="1024" height="1024" fill="white"/>
<metadata>
Created by potrace 1.16, written by Peter Selinger 2001-2019
</metadata>
<g transform="translate(0.000000,1024.000000) scale(0.100000,-0.100000)"
fill="#000000" stroke="none">
<path d="M0 5120 l0 -5120 5120 0 5120 0 0 5120 0 5120 -5120 0 -5120 0 0
-5120z m6654 4284 c3 -9 6 -80 6 -159 0 -261 43 -435 185 -750 123 -274 194
-379 345 -510 36 -31 77 -70 91 -87 l27 -30 -45 -81 c-75 -136 -113 -177 -350
-380 -126 -107 -286 -245 -358 -306 -71 -62 -195 -167 -275 -234 -80 -67 -219
-185 -310 -262 -91 -77 -201 -170 -245 -205 -88 -72 -100 -83 -366 -319 -101
-91 -192 -171 -201 -179 -16 -13 -32 -7 -160 58 -79 40 -146 76 -150 79 -4 4
78 74 183 156 106 83 316 249 469 370 152 121 351 277 441 347 90 70 214 168
274 218 61 49 164 134 230 187 66 53 211 173 323 266 219 183 208 168 177 243
-7 17 -50 71 -95 120 -45 49 -105 121 -132 159 -113 158 -234 449 -258 620 -6
44 -13 86 -15 93 -3 9 -29 0 -86 -29 -199 -99 -437 -270 -608 -434 -99 -95
-322 -341 -342 -377 -7 -13 2 -22 49 -49 191 -107 366 -243 578 -446 143 -137
167 -165 158 -180 -27 -44 -38 -41 -171 49 -129 87 -380 218 -579 303 -133 57
-466 169 -552 186 -34 6 -64 15 -67 18 -5 10 104 169 193 281 292 367 652 691
1088 980 114 76 203 129 459 272 57 32 80 35 89 12z m1053 -1977 c6 -26 -571
-436 -829 -590 -107 -64 -224 -120 -240 -115 -5 2 41 51 104 110 125 116 623
634 712 740 l56 67 98 -100 c53 -56 98 -106 99 -112z m-3598 26 c-61 -100
-312 -475 -353 -527 -51 -65 -55 -76 -28 -76 45 0 594 -184 617 -206 7 -7 15
-41 19 -76 15 -136 40 -259 82 -398 58 -192 93 -287 107 -293 7 -3 93 -38 192
-77 163 -65 442 -198 488 -232 18 -13 15 -17 -35 -56 -29 -22 -78 -66 -108
-96 -30 -31 -59 -56 -65 -56 -5 0 -41 16 -80 35 -75 36 -382 156 -605 235
l-135 48 -17 168 c-17 174 -40 294 -85 446 l-26 87 -86 42 c-89 43 -376 122
-489 134 l-57 7 -90 -92 c-49 -51 -133 -130 -185 -175 -52 -45 -126 -115 -164
-154 l-69 -72 59 -53 58 -53 126 60 c69 33 162 84 207 114 80 54 83 55 107 40
13 -9 49 -52 80 -97 l55 -80 -32 -24 c-18 -13 -68 -43 -112 -67 -44 -23 -94
-52 -112 -64 l-32 -21 82 -71 c213 -183 304 -251 405 -302 35 -17 65 -38 68
-46 8 -21 -422 -734 -475 -788 -17 -18 -23 -13 -165 125 -146 142 -146 143
-146 188 1 100 21 285 33 297 9 9 23 5 64 -21 47 -30 91 -46 249 -93 l62 -19
16 46 c9 25 16 49 16 54 0 23 -181 192 -422 394 -16 13 -22 11 -59 -28 -47
-48 -163 -107 -230 -116 l-46 -6 -6 33 c-4 19 -11 120 -17 224 -6 105 -18 251
-27 325 -8 74 -18 179 -20 232 -5 96 -5 97 30 160 121 215 374 475 654 670
181 125 269 177 498 295 121 62 221 113 223 113 2 0 -7 -17 -19 -37z m2532
-1546 c138 -83 472 -316 590 -412 312 -254 707 -632 888 -849 156 -186 380
-478 450 -586 85 -131 227 -335 344 -493 l79 -107 -120 -128 c-260 -276 -646
-642 -867 -822 -178 -144 -408 -320 -413 -315 -3 3 44 57 104 120 456 486 718
820 861 1101 l46 90 -43 65 c-112 165 -241 319 -463 553 -464 488 -1365 1268
-1617 1400 l-66 35 -95 -34 c-200 -69 -490 -236 -627 -360 -79 -72 -234 -278
-342 -454 -70 -114 -310 -538 -310 -547 0 -1 30 6 68 17 142 41 402 107 402
102 0 -13 -848 -1063 -858 -1063 -9 1 -266 311 -362 436 -38 51 -163 222 -276
380 -178 249 -205 291 -198 311 13 32 417 652 427 653 4 0 7 -6 7 -14 0 -7 59
-192 131 -411 l131 -398 20 34 c12 19 109 192 216 384 340 612 362 645 511
787 163 154 458 343 676 433 216 90 442 153 551 154 46 1 62 -6 155 -62z
m-4270 -1026 c30 -10 85 -33 122 -50 38 -17 101 -41 139 -52 81 -25 82 -25
167 -148 36 -51 115 -151 177 -224 l112 -131 -65 -72 c-35 -39 -79 -79 -97
-89 l-32 -18 -100 80 c-141 113 -379 283 -396 283 -10 0 130 -234 211 -351 39
-56 71 -106 71 -110 0 -4 -25 -25 -56 -47 l-56 -40 -106 86 c-59 47 -136 104
-172 127 -76 49 -154 90 -149 78 2 -4 40 -71 83 -148 44 -77 98 -174 122 -215
23 -41 40 -79 37 -83 -5 -9 -140 -97 -148 -97 -2 0 -40 32 -82 71 -43 39 -94
84 -114 100 l-37 29 24 -58 c13 -31 28 -79 34 -107 19 -94 36 -245 28 -245
-16 0 -241 173 -295 226 -28 28 -79 93 -113 144 l-61 93 39 41 c21 23 60 67
87 99 l48 57 -27 40 -27 41 45 57 c24 31 81 102 126 157 108 132 260 320 338
417 34 43 64 78 66 78 1 0 27 -9 57 -19z m4154 -421 c451 -62 779 -162 1156
-351 351 -175 584 -311 575 -335 -8 -20 -212 -266 -379 -458 -345 -393 -681
-758 -953 -1036 l-152 -155 6 -196 c2 -108 2 -212 -2 -232 -7 -37 -132 -204
-230 -306 -43 -45 -207 -183 -242 -204 -7 -4 -20 15 -33 53 -12 33 -28 60 -34
60 -16 0 -83 -70 -131 -138 -26 -35 -44 -51 -55 -48 -9 2 -37 9 -63 16 -27 7
-48 14 -48 17 0 2 7 14 15 26 30 46 55 141 66 249 6 60 8 112 6 115 -6 5 -141
-156 -204 -244 -25 -35 -49 -63 -54 -63 -14 0 -65 27 -120 63 l-46 30 28 51
c35 66 97 248 106 312 l6 49 -112 -104 c-61 -57 -121 -117 -132 -132 -11 -16
-26 -29 -32 -29 -7 0 -46 33 -86 74 l-74 74 94 129 c51 70 116 157 145 193 28
36 77 104 108 152 77 121 102 136 247 149 63 6 179 9 259 8 80 -2 183 -2 230
-1 l85 2 81 128 c92 145 396 656 535 902 l94 165 70 28 c39 16 124 46 190 68
66 22 127 42 135 45 20 7 13 11 -127 68 -167 68 -356 166 -474 244 -209 140
-554 436 -615 526 -40 60 -42 68 -11 62 12 -3 90 -15 172 -26z m-3322 -577
c20 -32 37 -63 37 -69 0 -31 -109 -107 -310 -216 -259 -140 -288 -154 -297
-144 -9 9 94 109 255 248 59 51 143 125 186 165 44 40 82 73 86 73 3 0 22 -26
43 -57z m2752 -380 c-240 -324 -429 -563 -442 -558 -17 6 -342 235 -348 245
-3 5 36 28 87 53 81 38 325 172 728 400 63 35 116 63 118 62 2 -2 -63 -92
-143 -202z m-1994 -148 c38 -113 69 -215 69 -227 0 -29 -145 -206 -467 -572
-279 -316 -333 -379 -333 -390 0 -4 30 -45 66 -92 63 -81 181 -196 310 -303
l61 -51 99 76 c55 42 223 167 374 278 151 111 343 255 425 319 83 64 152 117
155 116 3 0 32 -25 65 -55 l60 -55 -39 -32 c-22 -18 -107 -88 -190 -157 -83
-69 -232 -190 -331 -270 -99 -79 -259 -210 -355 -290 -96 -80 -203 -167 -237
-193 l-63 -48 -117 109 c-256 238 -425 423 -669 733 -205 260 -337 453 -437
637 l-40 74 39 40 c22 22 83 80 136 130 82 75 102 89 122 84 14 -3 65 -54 124
-123 156 -184 540 -551 562 -538 13 8 144 252 205 380 50 104 102 218 272 588
34 74 37 76 51 56 8 -11 45 -112 83 -224z m-2219 56 l108 -134 -199 -196
c-109 -108 -236 -236 -281 -286 l-83 -89 -71 75 c-73 76 -246 294 -246 309 0
5 39 35 88 66 48 32 164 114 257 182 94 69 197 145 230 169 33 24 66 42 74 41
9 -2 64 -63 123 -137z"/>
</g>
</svg>
