<?xml version="1.0" standalone="no"?>
<!DOCTYPE svg PUBLIC "-//W3C//DTD SVG 20010904//EN"
 "http://www.w3.org/TR/2001/REC-SVG-20010904/DTD/svg10.dtd">
<svg version="1.0" xmlns="http://www.w3.org/2000/svg"
 width="1024" height="1024" viewBox="0 0 1024 1024"
 preserveAspectRatio="xMidYMid meet">
  <rect width="1024" height="1024" fill="white"/>
<metadata>
Created by potrace 1.16, written by Peter Selinger 2001-2019
</metadata>
<g transform="translate(0.000000,1024.000000) scale(0.100000,-0.100000)"
fill="#000000" stroke="none">
<path d="M0 5120 l0 -5120 5120 0 5120 0 0 5120 0 5120 -5120 0 -5120 0 0
-5120z m2133 3967 c110 -110 1293 -1313 1442 -1467 93 -96 179 -182 191 -190
11 -8 59 -55 105 -105 46 -49 140 -148 210 -220 70 -71 148 -155 174 -186 l47
-57 33 37 c37 41 52 70 100 182 84 199 335 631 577 991 111 165 109 163 165
91 52 -67 665 -1104 714 -1208 23 -48 57 -79 82 -73 8 2 90 82 183 178 92 96
413 427 713 735 299 308 608 625 685 705 77 80 224 231 326 335 103 105 205
218 228 252 51 75 67 87 60 47 -28 -155 -110 -664 -123 -754 -9 -63 -36 -221
-60 -350 -24 -129 -46 -269 -50 -310 -4 -41 -18 -140 -31 -220 -14 -80 -33
-253 -45 -385 -11 -132 -31 -310 -45 -395 -54 -335 -65 -433 -74 -635 -6 -115
-15 -236 -21 -268 -9 -50 -8 -62 5 -75 13 -14 19 -13 53 10 21 14 117 90 213
169 233 192 260 212 260 202 0 -6 -53 -102 -118 -214 -65 -112 -149 -258 -186
-324 -90 -158 -257 -415 -745 -1145 -585 -875 -675 -1011 -986 -1484 -841
-1281 -1060 -1606 -1081 -1606 -17 0 -33 24 -669 975 -291 435 -620 925 -730
1090 -111 165 -331 494 -490 730 -158 237 -356 531 -440 655 -285 422 -409
622 -668 1080 -60 107 -121 212 -135 233 -14 20 -23 39 -21 42 5 4 86 -58 363
-278 140 -111 221 -164 229 -150 3 5 1 28 -3 53 -5 25 -9 95 -10 155 0 208
-25 392 -91 677 -18 78 -42 246 -64 440 -19 172 -48 392 -65 488 -16 96 -54
337 -85 535 -31 198 -71 446 -90 550 -38 210 -64 367 -72 433 -3 23 -10 42
-14 42 -11 0 -12 32 -2 57 7 16 8 15 11 -5 2 -13 22 -43 45 -65z"/>
<path d="M3009 6584 c127 -137 199 -245 369 -554 136 -248 277 -478 329 -539
92 -106 178 -156 558 -323 88 -39 208 -95 267 -124 l107 -54 -24 -62 c-115
-304 -188 -500 -219 -594 l-37 -111 150 -290 c82 -160 226 -434 319 -609 93
-176 195 -368 225 -429 31 -60 60 -116 65 -124 7 -10 44 56 135 240 101 204
511 966 629 1169 l27 45 -93 275 c-52 151 -110 315 -130 364 -20 50 -36 96
-36 103 0 7 19 25 43 40 55 35 298 156 455 227 214 97 338 180 374 250 11 23
37 66 58 96 20 30 72 114 115 185 192 321 435 667 571 814 l69 74 -83 -5 c-96
-7 -121 -18 -437 -185 -257 -136 -463 -252 -700 -393 -104 -62 -316 -180 -470
-261 -154 -81 -340 -179 -413 -218 l-133 -71 -42 29 c-24 16 -104 63 -178 104
-75 41 -227 130 -340 197 -280 168 -576 337 -809 460 -107 57 -274 146 -370
199 -191 105 -242 125 -345 136 l-69 8 63 -69z"/>
</g>
</svg>
