<?xml version="1.0" standalone="no"?>
<!DOCTYPE svg PUBLIC "-//W3C//DTD SVG 20010904//EN"
 "http://www.w3.org/TR/2001/REC-SVG-20010904/DTD/svg10.dtd">
<svg version="1.0" xmlns="http://www.w3.org/2000/svg"
 width="1024" height="1024" viewBox="0 0 1024 1024"
 preserveAspectRatio="xMidYMid meet">
  <rect width="1024" height="1024" fill="white"/>
<metadata>
Created by potrace 1.16, written by Peter Selinger 2001-2019
</metadata>
<g transform="translate(0.000000,1024.000000) scale(0.100000,-0.100000)"
fill="#000000" stroke="none">
<path d="M0 5120 l0 -5120 5120 0 5120 0 0 5120 0 5120 -5120 0 -5120 0 0
-5120z m5157 3857 c34 -19 415 -372 556 -514 l127 -130 0 -100 c0 -108 19
-219 96 -567 24 -110 44 -212 44 -228 0 -22 -21 -51 -88 -126 -48 -53 -124
-140 -169 -192 -44 -52 -93 -106 -108 -120 -15 -14 -80 -83 -144 -155 -116
-131 -150 -164 -163 -165 -13 0 -17 37 -28 240 -8 166 -21 303 -56 630 -4 38
-2 60 8 71 7 9 70 64 140 123 118 97 250 191 330 232 l32 17 -46 23 c-25 13
-97 37 -159 54 -174 47 -163 40 -188 128 -27 94 -92 274 -97 269 -2 -2 -8 -80
-14 -173 -19 -330 -31 -479 -38 -486 -11 -11 -214 80 -335 150 -181 105 -368
204 -374 198 -3 -3 37 -58 89 -123 53 -65 105 -137 117 -161 24 -47 43 -61
216 -164 66 -39 125 -76 132 -82 11 -11 6 -63 -84 -854 -7 -62 -17 -72 -43
-40 -46 56 -446 453 -548 543 -62 55 -115 111 -119 124 -10 40 27 391 47 436
12 28 19 84 24 177 12 218 16 239 64 300 89 112 284 299 670 641 44 38 72 45
109 24z m-2814 -367 c44 -130 152 -421 197 -530 51 -122 50 -101 25 -605 -8
-165 -19 -446 -25 -625 -6 -179 -15 -419 -20 -535 -6 -115 -12 -264 -15 -330
-22 -538 -26 -677 -21 -690 4 -12 26 -15 108 -15 202 0 482 -20 497 -35 26
-25 -5 -42 -107 -60 -53 -10 -112 -23 -129 -31 -37 -14 -87 -86 -133 -190
l-29 -64 -168 5 c-382 12 -719 28 -734 36 -10 5 -23 32 -29 61 -7 29 -28 100
-46 157 -19 56 -31 107 -28 112 3 5 106 9 229 9 169 0 224 3 227 13 2 6 1 59
-3 117 -4 58 -13 213 -19 345 -6 132 -15 303 -20 380 -5 77 -16 331 -25 565
-16 448 -27 693 -46 1080 l-12 235 57 150 c111 288 198 500 214 518 20 23 24
17 55 -73z m1812 -1572 c201 -226 826 -864 948 -969 31 -26 42 -30 55 -22 10
5 78 79 153 164 75 85 216 231 315 324 98 94 279 268 401 389 202 200 223 218
248 212 28 -7 840 -337 874 -356 33 -17 25 -33 -41 -77 -96 -64 -195 -156
-308 -288 -136 -159 -170 -194 -335 -348 -227 -211 -413 -358 -606 -477 -74
-45 -168 -104 -210 -131 -41 -27 -79 -49 -83 -49 -5 0 -6 10 -4 23 4 21 204
358 494 832 154 252 184 309 184 346 0 53 -28 38 -169 -95 -41 -38 -107 -107
-148 -154 -40 -46 -79 -90 -86 -96 -81 -83 -301 -332 -358 -406 -39 -52 -97
-124 -128 -160 -85 -98 -126 -151 -151 -197 -13 -24 -29 -43 -35 -43 -5 0 -31
17 -56 38 -73 60 -394 388 -492 502 -256 298 -377 421 -552 556 -107 83 -145
108 -145 95 0 -12 79 -143 185 -306 120 -184 397 -566 509 -700 266 -320 617
-682 734 -758 39 -26 72 -51 72 -55 0 -4 -88 -135 -195 -292 -106 -157 -231
-339 -276 -405 -45 -66 -85 -121 -90 -123 -5 -2 -57 34 -116 79 -92 71 -160
129 -410 350 -17 15 -36 43 -41 61 -6 18 -54 166 -106 328 -126 390 -158 503
-154 537 3 27 5 25 34 -27 35 -61 134 -171 383 -423 131 -132 174 -170 204
-178 39 -10 77 -5 77 12 0 22 -62 169 -94 221 -53 89 -349 487 -496 669 -341
419 -495 605 -767 928 -84 99 -153 188 -153 196 0 10 22 26 57 41 31 14 69 34
84 45 38 27 178 85 241 99 29 7 70 24 91 38 47 31 324 150 352 150 13 0 52
-35 110 -100z m3269 -1099 c61 -29 323 -154 581 -279 259 -125 480 -230 492
-234 30 -10 33 -24 22 -128 -5 -51 -18 -190 -30 -308 -11 -118 -29 -282 -39
-365 -10 -82 -21 -181 -25 -220 -8 -87 -30 -213 -51 -283 -33 -115 -179 -463
-261 -621 -104 -201 -165 -296 -268 -421 -91 -111 -500 -520 -519 -520 -8 0
-35 26 -62 58 -27 31 -116 127 -199 212 -251 260 -340 371 -465 580 -108 181
-218 407 -275 565 -95 263 -165 698 -182 1135 l-6 165 79 57 c119 85 382 251
539 340 77 44 180 103 229 130 49 28 139 82 199 120 61 37 115 68 120 68 6 0
60 -23 121 -51z m-3931 -56 c41 -49 108 -129 149 -179 40 -50 115 -139 166
-198 50 -58 92 -113 92 -121 0 -22 -356 -367 -595 -576 -115 -101 -267 -239
-336 -306 -69 -68 -130 -123 -134 -123 -16 0 5 70 48 161 40 83 232 369 362
539 65 86 65 84 65 259 l0 160 -37 10 c-21 5 -81 15 -133 21 -52 6 -96 13 -99
15 -12 13 224 316 297 382 26 23 55 42 64 43 9 0 50 -39 91 -87z m-858 -1273
c3 -5 -3 -58 -15 -117 -11 -59 -29 -171 -40 -248 -11 -77 -26 -145 -33 -152
-11 -11 -296 -34 -457 -37 l-55 -1 -12 40 c-35 120 -122 424 -127 445 -12 55
-15 54 349 62 185 3 339 9 342 12 10 9 41 7 48 -4z m1677 -629 c98 -71 217
-153 265 -182 48 -29 206 -133 351 -231 145 -99 266 -178 270 -176 4 2 131 95
282 208 343 256 379 282 392 278 19 -7 281 -571 438 -943 178 -423 168 -401
243 -535 103 -183 207 -382 207 -395 0 -19 -180 -92 -349 -141 -85 -24 -111
-22 -111 11 0 8 -32 82 -71 166 -39 84 -93 209 -120 278 -56 139 -240 513
-326 660 -91 155 -145 241 -152 241 -4 0 -22 -35 -41 -77 -44 -103 -92 -199
-242 -493 -187 -365 -251 -470 -284 -470 -19 0 -20 3 -48 168 -34 199 -47 253
-106 452 -27 91 -57 195 -66 233 -9 37 -20 67 -24 67 -4 0 -16 -33 -25 -72
-10 -40 -42 -149 -71 -243 -82 -263 -119 -400 -190 -707 -66 -286 -119 -483
-136 -505 -6 -8 -71 19 -230 95 -121 59 -223 113 -225 119 -3 7 26 90 65 185
38 95 119 322 180 503 106 318 147 462 227 812 49 214 42 236 -45 132 -122
-147 -284 -419 -467 -784 -126 -251 -180 -350 -308 -563 -21 -34 -42 -65 -47
-68 -4 -3 -36 15 -71 39 -34 24 -104 72 -154 106 -55 36 -93 68 -93 78 0 9 22
60 49 112 27 53 61 125 76 161 15 36 52 117 82 180 56 117 141 317 183 425 12
33 121 263 242 510 121 248 224 460 230 473 6 12 19 22 27 22 9 0 96 -58 193
-129z m-1832 -218 c0 -53 -24 -96 -83 -151 -33 -31 -72 -69 -86 -84 -14 -16
-32 -28 -41 -28 -8 0 -49 36 -90 81 -54 57 -78 92 -86 122 -6 23 -9 47 -7 54
5 12 61 16 291 21 91 2 102 0 102 -15z"/>
<path d="M7230 5573 c-30 -20 -137 -87 -237 -148 -219 -132 -339 -216 -422
-293 l-61 -57 0 -65 c1 -269 49 -470 215 -911 76 -200 117 -284 242 -487 113
-186 158 -251 250 -359 37 -44 88 -104 112 -133 39 -46 47 -51 73 -46 38 8 51
24 144 186 43 74 101 171 130 215 114 178 175 311 288 628 79 222 117 353 175
598 48 205 79 427 66 469 -10 31 -352 206 -713 364 -95 42 -181 76 -190 76
-10 0 -42 -17 -72 -37z m206 -495 c-9 -137 -25 -767 -32 -1233 -3 -187 -9
-344 -14 -349 -5 -5 -38 51 -78 130 -141 283 -256 554 -312 734 -22 74 -50
159 -61 189 -31 85 -70 243 -64 262 3 9 36 35 74 58 173 103 399 254 425 286
16 19 38 35 49 35 19 0 20 -5 13 -112z"/>
</g>
</svg>
