<?xml version="1.0" standalone="no"?>
<!DOCTYPE svg PUBLIC "-//W3C//DTD SVG 20010904//EN"
 "http://www.w3.org/TR/2001/REC-SVG-20010904/DTD/svg10.dtd">
<svg version="1.0" xmlns="http://www.w3.org/2000/svg"
 width="1024" height="1024" viewBox="0 0 1024 1024"
 preserveAspectRatio="xMidYMid meet">
  <rect width="1024" height="1024" fill="white"/>
<metadata>
Created by potrace 1.16, written by Peter Selinger 2001-2019
</metadata>
<g transform="translate(0.000000,1536.000000) scale(0.100000,-0.100000)"
fill="#000000" stroke="none">
<path d="M0 7680 l0 -7680 5120 0 5120 0 0 7680 0 7680 -5120 0 -5120 0 0
-7680z m4977 5628 c289 -202 317 -218 370 -218 65 0 76 23 -143 -290 -217
-309 -257 -362 -305 -407 -26 -24 -54 -62 -64 -83 -16 -36 -22 -40 -55 -40
-26 0 -43 7 -60 25 -26 28 -139 96 -350 213 -200 110 -226 122 -254 122 -15 0
-30 8 -36 20 -9 16 -6 27 15 54 14 18 25 38 25 44 0 6 23 30 51 54 27 24 83
84 123 133 183 224 443 522 458 524 4 1 105 -67 225 -151z m689 -414 c44 -36
109 -85 147 -110 108 -72 407 -296 407 -305 0 -5 -4 -9 -10 -9 -11 0 -89 -104
-188 -252 -40 -59 -107 -153 -149 -210 -91 -121 -204 -296 -253 -391 -60 -115
-70 -89 -46 113 10 77 10 108 2 117 -15 16 -404 213 -499 253 -44 18 -77 38
-77 46 0 14 80 122 179 241 29 36 77 102 106 146 29 45 66 98 83 117 16 19 48
68 72 108 23 40 51 77 61 82 9 6 30 35 44 65 15 30 31 55 35 55 4 0 43 -29 86
-66z m-1673 -455 c306 -152 462 -232 527 -269 36 -20 187 -98 335 -172 228
-114 515 -265 515 -271 0 -1 -13 -97 -30 -212 -16 -116 -30 -213 -30 -217 0
-9 -91 -56 -135 -71 -16 -5 -167 -15 -335 -22 l-305 -12 -242 124 c-133 67
-244 123 -246 123 -2 0 -21 -26 -42 -57 -51 -77 -263 -372 -288 -400 -11 -13
-19 -25 -16 -27 32 -28 436 -190 634 -253 148 -47 161 -55 191 -116 15 -28 41
-72 59 -97 18 -25 42 -66 53 -92 11 -26 60 -109 109 -185 49 -76 111 -174 138
-218 26 -44 78 -125 115 -180 73 -108 228 -361 267 -435 25 -49 31 -126 23
-345 l-4 -110 28 -3 c31 -4 60 18 83 61 12 23 12 47 4 140 -6 62 -11 198 -11
303 l0 190 -71 119 c-39 66 -135 216 -213 335 -79 118 -168 258 -199 311 -31
53 -77 118 -102 145 -25 27 -45 52 -45 56 0 16 50 7 153 -27 64 -21 125 -35
156 -35 27 0 87 -9 133 -20 46 -10 183 -38 305 -60 l221 -41 337 -332 c185
-183 342 -333 349 -335 11 -2 85 58 280 231 38 34 109 109 157 167 48 58 108
122 133 144 25 21 56 55 68 77 23 41 48 52 48 21 0 -47 -30 -219 -116 -667
-14 -71 -27 -161 -30 -200 -9 -123 -24 -181 -55 -211 -16 -15 -29 -35 -29 -44
0 -19 -128 -151 -285 -295 -61 -55 -172 -160 -247 -234 -108 -105 -139 -141
-144 -167 -7 -40 16 -145 59 -259 47 -128 58 -111 -149 -239 -231 -142 -407
-251 -645 -400 -105 -65 -193 -116 -195 -113 -8 8 18 651 27 669 5 9 69 48
142 87 74 38 144 79 158 89 l23 20 -79 115 c-145 209 -248 347 -261 347 -17 0
-99 -92 -186 -208 -40 -53 -94 -120 -120 -149 -53 -59 -82 -108 -74 -128 2 -7
48 -48 101 -91 86 -69 96 -80 91 -103 -11 -49 -28 -496 -22 -583 3 -48 2 -89
-3 -92 -5 -3 -118 64 -252 150 -261 167 -257 164 -561 354 -111 69 -206 133
-212 142 -8 13 0 52 31 160 23 79 54 203 68 277 15 74 34 148 42 166 19 39 33
18 -212 331 -93 120 -281 365 -418 544 -601 790 -869 1138 -892 1160 -36 34
-35 99 3 149 16 20 104 142 197 271 92 129 245 341 340 470 94 129 250 343
345 475 172 238 265 355 282 355 4 0 81 -36 171 -81z m2550 -286 c100 -91 228
-211 284 -266 l101 -100 -51 -51 c-29 -28 -102 -112 -162 -186 -117 -144 -489
-565 -725 -820 -78 -85 -145 -158 -149 -162 -3 -4 -51 6 -106 23 -55 16 -188
50 -295 75 -107 25 -205 49 -217 54 -28 12 -30 36 -4 50 11 5 55 61 97 123 43
61 99 140 125 173 26 34 57 80 69 103 11 23 58 93 104 154 45 62 123 173 174
247 50 74 153 217 229 316 76 100 181 238 233 307 52 69 99 126 103 126 5 1
90 -74 190 -166z m594 -699 c54 -64 136 -164 183 -223 47 -59 106 -132 133
-163 46 -54 57 -78 37 -78 -5 0 -119 -106 -252 -236 -134 -130 -308 -295 -388
-367 -80 -72 -199 -184 -266 -249 -66 -65 -129 -118 -138 -118 -10 0 -107 87
-217 193 -131 125 -208 193 -224 195 -16 2 -25 10 -25 22 0 10 65 83 148 167
298 300 660 692 795 861 49 61 96 112 103 112 7 0 57 -52 111 -116z m-1976
-441 c-5 -10 -32 -45 -61 -77 -28 -33 -63 -77 -76 -98 -14 -21 -32 -42 -40
-45 -21 -8 -298 61 -330 82 -20 13 -24 22 -19 38 3 12 10 37 15 55 4 19 11 37
15 40 6 7 204 16 413 20 85 2 92 1 83 -15z m3509 -1683 c0 -11 -9 -44 -19 -73
-110 -299 -203 -563 -316 -896 -75 -218 -149 -433 -165 -479 -16 -45 -53 -162
-81 -260 -28 -97 -74 -249 -104 -337 -53 -162 -128 -396 -184 -581 l-31 -101
-177 -164 c-97 -90 -220 -202 -272 -248 -53 -47 -170 -150 -261 -230 -242
-214 -359 -313 -513 -436 -113 -90 -137 -113 -132 -130 3 -11 10 -43 14 -70
11 -63 71 -283 116 -430 18 -60 56 -189 84 -286 28 -97 64 -215 81 -263 l31
-87 -41 -47 c-22 -26 -107 -137 -189 -247 -82 -110 -243 -313 -357 -451 -115
-137 -263 -317 -329 -399 -162 -201 -569 -691 -610 -735 -18 -19 -35 -44 -37
-55 -2 -11 -10 -20 -19 -20 -15 0 -166 162 -275 295 -166 205 -512 621 -619
745 -66 77 -187 223 -270 325 -167 208 -400 476 -459 532 l-40 36 33 114 c18
62 46 163 61 223 30 116 47 172 85 270 13 33 35 107 50 165 14 58 43 155 64
215 48 138 56 192 31 205 -20 11 -312 261 -555 475 -679 599 -727 641 -754
650 -21 6 -49 85 -136 385 -20 69 -56 186 -80 260 -24 74 -51 169 -61 210 -19
81 -51 178 -169 510 -42 118 -144 415 -227 660 -82 245 -172 504 -199 577 -44
117 -59 183 -44 183 18 0 126 -65 261 -156 86 -59 194 -128 240 -155 92 -53
209 -126 282 -176 26 -18 73 -49 105 -70 80 -52 276 -183 487 -326 292 -198
549 -366 670 -440 115 -69 182 -113 770 -502 173 -115 382 -251 465 -303 82
-52 174 -112 204 -133 30 -21 59 -39 66 -39 6 0 51 27 101 61 119 81 305 204
493 325 85 54 249 163 365 241 896 602 1588 1063 1736 1156 292 183 315 197
524 336 110 74 217 147 236 162 42 34 70 37 70 9z m-770 -3038 c0 -12 211
-248 262 -294 l41 -36 -26 -24 c-14 -12 -43 -44 -64 -70 -54 -66 -413 -447
-638 -678 -228 -233 -442 -468 -472 -518 -46 -76 -72 -65 -93 41 -6 34 -32
152 -57 262 -25 110 -46 214 -47 230 -1 27 40 70 394 413 217 210 458 450 534
532 124 133 166 169 166 142z m-5443 -50 c18 -26 101 -114 185 -196 350 -341
828 -820 828 -829 0 -6 -25 -112 -55 -236 -90 -365 -97 -382 -134 -301 -16 35
-48 73 -107 127 -46 42 -94 82 -108 87 -25 12 -166 161 -166 177 0 17 -231
261 -562 594 -175 177 -318 325 -318 331 0 6 18 18 39 27 22 10 51 33 66 52
14 19 32 35 39 35 8 0 19 7 26 15 7 8 45 31 86 50 41 20 79 45 85 58 16 31 40
57 53 57 6 0 25 -22 43 -48z"/>
<path d="M7439 7827 c-167 -121 -461 -329 -569 -402 -103 -71 -359 -247 -907
-625 -309 -213 -447 -309 -472 -329 l-24 -18 2 -569 c1 -313 5 -630 10 -704 4
-84 4 -143 -2 -155 -11 -22 -14 -25 -186 -226 -69 -79 -132 -156 -140 -171 -9
-16 -23 -28 -31 -27 -8 0 -43 35 -77 77 -34 42 -119 145 -188 227 l-126 150 5
90 c3 50 13 218 21 375 8 157 17 299 20 315 11 68 17 383 10 507 l-8 133 -146
98 c-80 54 -216 147 -301 208 -317 225 -798 559 -1049 729 -142 96 -287 198
-322 226 -86 69 -177 126 -189 119 -39 -24 42 -348 183 -730 106 -287 85 -258
318 -457 75 -64 194 -170 264 -235 200 -185 486 -433 534 -464 25 -16 57 -29
71 -29 14 0 74 27 133 60 60 33 113 60 119 60 7 0 9 -18 4 -52 -17 -142 -56
-615 -66 -786 l-10 -194 94 -141 c51 -78 136 -212 188 -297 52 -85 148 -236
214 -335 65 -99 159 -244 209 -323 49 -78 94 -142 100 -142 17 0 139 191 240
375 49 88 116 201 149 250 33 50 138 227 234 395 l173 305 -6 95 c-3 52 -8
169 -10 260 -3 91 -10 257 -16 368 -15 268 -20 261 133 163 130 -84 103 -87
253 30 107 84 181 149 635 558 326 295 299 260 391 496 54 136 172 517 198
639 12 54 26 107 31 117 30 56 -1 51 -91 -14z"/>
</g>
</svg>
