<?xml version="1.0" standalone="no"?>
<!DOCTYPE svg PUBLIC "-//W3C//DTD SVG 20010904//EN"
 "http://www.w3.org/TR/2001/REC-SVG-20010904/DTD/svg10.dtd">
<svg version="1.0" xmlns="http://www.w3.org/2000/svg"
 width="1024" height="1024" viewBox="0 0 1024 1024"
 preserveAspectRatio="xMidYMid meet">
  <rect width="1024" height="1024" fill="white"/>
<metadata>
Created by potrace 1.16, written by Peter Selinger 2001-2019
</metadata>
<g transform="translate(0.000000,1536.000000) scale(0.100000,-0.100000)"
fill="#000000" stroke="none">
<path d="M0 7680 l0 -7680 5120 0 5120 0 0 7680 0 7680 -5120 0 -5120 0 0
-7680z m5223 4787 c184 -258 359 -529 495 -767 109 -190 568 -1087 560 -1095
-3 -3 -61 17 -129 44 -68 27 -236 85 -374 131 -137 45 -333 111 -434 146 -102
36 -196 66 -210 67 -33 2 -1010 -323 -1110 -369 -41 -19 -75 -33 -77 -32 -1 2
107 217 240 478 265 519 384 726 636 1105 266 401 290 436 300 430 5 -3 51
-65 103 -138z m45 -1826 c70 -22 242 -72 382 -111 517 -145 810 -231 896 -263
49 -19 116 -42 149 -51 92 -27 450 -162 540 -204 l80 -38 -50 -50 c-56 -56
-152 -129 -423 -320 -100 -71 -204 -144 -230 -162 l-47 -34 -16 39 c-9 21 -22
61 -29 89 -12 48 -11 54 13 106 21 46 35 63 84 93 109 69 130 107 77 142 -61
39 -545 170 -864 232 -422 83 -680 106 -902 81 -300 -34 -892 -159 -1228 -260
-187 -56 -219 -83 -163 -136 15 -15 52 -42 81 -61 87 -56 117 -141 91 -251 -7
-26 -18 -55 -26 -64 -14 -15 -19 -13 -67 26 -29 24 -98 74 -152 111 -369 255
-534 382 -534 412 0 11 176 88 268 118 30 9 106 38 170 64 65 26 173 64 242
85 69 21 204 62 300 91 96 30 265 79 375 110 198 55 433 126 695 210 74 23
141 41 148 39 7 -2 70 -21 140 -43z m-100 -816 c22 -55 67 -159 101 -232 89
-193 183 -426 174 -433 -5 -4 -69 -56 -143 -115 -74 -60 -145 -119 -158 -132
l-23 -23 -127 103 c-70 57 -146 117 -169 134 l-41 29 77 190 c116 284 256 592
266 583 2 -2 21 -49 43 -104z m-468 -9 c0 -8 16 -35 35 -61 37 -48 38 -62 7
-103 l-17 -22 -92 62 c-50 35 -106 71 -124 81 -17 10 -29 20 -27 23 8 7 146
32 186 33 21 1 32 -4 32 -13z m946 -6 c32 -11 62 -24 67 -29 11 -11 -81 -81
-147 -112 -39 -19 -47 -21 -61 -9 -37 31 -36 56 3 114 41 64 50 66 138 36z
m-1326 -194 c74 -41 184 -101 244 -133 60 -32 115 -67 122 -78 12 -18 1 -35
-119 -180 -203 -246 -492 -589 -509 -603 -17 -14 -18 -11 -107 328 l-52 195
41 105 c23 58 71 186 107 285 36 99 67 184 70 188 3 4 19 -1 36 -13 18 -11 93
-53 167 -94z m1844 2 c22 -62 70 -198 108 -302 l69 -190 -60 -195 c-33 -108
-69 -225 -79 -260 l-18 -65 -100 115 c-209 237 -544 648 -544 667 0 16 98 80
220 144 69 36 177 96 240 132 63 36 117 65 120 66 3 0 23 -51 44 -112z m-2660
-664 c23 -9 21 -30 -35 -286 -75 -347 -119 -564 -119 -588 0 -12 17 -43 38
-69 21 -25 90 -113 152 -196 264 -348 638 -800 1005 -1210 314 -352 552 -605
569 -605 12 0 278 279 538 565 492 541 1238 1460 1238 1526 0 25 -13 88 -109
514 -77 339 -74 319 -51 340 18 16 23 15 117 -31 54 -26 183 -86 286 -135 210
-98 329 -168 462 -272 109 -86 1204 -1173 1211 -1204 4 -15 -35 -101 -132
-290 -135 -264 -162 -314 -292 -543 -56 -100 -250 -411 -255 -410 -1 1 -168
165 -372 366 l-370 365 80 75 c186 174 273 252 327 293 l57 43 -87 63 c-187
137 -682 479 -685 473 -1 -1 -19 -34 -39 -73 -21 -38 -128 -245 -239 -458
l-202 -389 2 -66 c1 -36 15 -122 31 -191 65 -278 121 -534 118 -537 -2 -2
-242 -146 -533 -322 -526 -316 -673 -406 -875 -537 -149 -97 -220 -136 -233
-128 -7 3 -100 63 -207 132 -204 130 -309 194 -705 431 -336 200 -558 331
-637 374 -38 21 -68 41 -68 44 0 4 15 79 34 167 87 404 117 553 118 591 1 34
-22 84 -144 320 -80 153 -187 361 -238 461 l-93 181 -41 -26 c-60 -40 -430
-293 -594 -407 l-144 -100 48 -40 c26 -22 93 -82 148 -132 56 -51 138 -126
183 -165 45 -40 80 -77 79 -82 -1 -4 -164 -170 -361 -367 -339 -338 -361 -357
-377 -341 -27 27 -187 283 -280 447 -47 83 -156 286 -242 452 -117 226 -155
309 -151 326 9 32 1099 1118 1205 1199 147 113 255 177 443 263 100 46 230
108 289 139 60 31 110 56 112 56 2 0 11 -3 20 -6z m1137 -60 c7 -8 69 -61 138
-116 174 -140 320 -262 320 -269 1 -3 -32 -22 -71 -42 -145 -72 -316 -201
-357 -269 -60 -102 -202 -450 -189 -463 4 -4 142 98 345 253 81 62 179 128
216 147 l69 34 51 -25 c147 -75 480 -300 580 -392 15 -14 27 -24 27 -21 0 26
-64 187 -128 319 -63 132 -88 173 -123 205 -56 51 -224 163 -309 206 -36 18
-68 37 -72 43 -9 14 15 39 145 152 156 136 303 245 321 238 8 -3 104 -95 213
-205 195 -196 201 -200 403 -333 113 -74 206 -141 208 -149 2 -11 -12 -18 -55
-27 -75 -15 -173 -46 -245 -77 l-56 -25 -18 -71 c-62 -260 -222 -578 -387
-772 -83 -97 -305 -341 -433 -474 l-119 -124 -185 199 c-298 320 -451 512
-578 729 -58 100 -79 148 -122 285 -28 91 -57 181 -64 200 l-12 35 -177 40
c-97 21 -177 44 -177 50 0 12 163 141 305 242 73 52 155 127 305 281 113 116
208 211 211 211 4 1 12 -6 20 -15z m-1560 -2494 c41 -28 98 -74 126 -103 l51
-52 -34 -135 c-87 -339 -92 -354 -137 -397 -40 -39 -268 -187 -354 -231 l-41
-21 -63 72 c-35 40 -108 118 -164 175 -55 56 -102 112 -103 124 -6 32 582 618
619 618 14 0 58 -22 100 -50z m4511 -247 c164 -164 298 -305 298 -313 0 -9
-43 -58 -96 -110 -53 -52 -127 -132 -165 -177 -39 -46 -78 -83 -87 -83 -33 0
-385 222 -411 258 -23 34 -48 112 -106 330 -52 199 -56 177 47 271 69 63 163
121 197 121 20 0 89 -63 323 -297z m-3904 -622 c311 -184 604 -351 861 -490
46 -25 85 -50 87 -56 3 -6 -33 -73 -79 -150 -45 -77 -154 -266 -241 -420 -88
-154 -170 -297 -183 -318 l-24 -38 -42 24 c-23 14 -121 68 -217 122 -164 92
-264 150 -605 350 -265 157 -329 195 -338 204 -13 13 39 111 216 406 82 138
181 306 219 375 78 140 93 157 115 134 8 -8 112 -72 231 -143z m3173 71 c25
-42 97 -162 161 -267 160 -265 307 -521 313 -548 6 -21 -9 -32 -152 -116 -87
-52 -207 -123 -268 -159 -186 -109 -626 -363 -707 -408 -92 -50 -78 -58 -170
106 -168 297 -365 641 -400 699 -21 36 -38 70 -38 76 0 5 60 41 133 77 179 92
680 380 977 564 47 28 90 52 95 53 6 0 31 -35 56 -77z m-3811 -1334 c19 -12
244 -138 500 -280 256 -142 466 -262 467 -266 2 -4 -40 -126 -93 -272 -53
-146 -119 -333 -147 -417 l-52 -152 -907 -1 c-883 0 -907 0 -900 19 8 20 303
299 459 433 117 101 270 218 370 282 l72 47 256 -136 c141 -75 261 -135 266
-133 6 2 -32 48 -83 103 -52 55 -142 155 -200 222 -97 111 -106 126 -102 155
32 238 44 335 44 373 0 25 3 45 8 45 4 0 23 -10 42 -22z m4193 -50 c4 -61 21
-198 41 -347 5 -31 -2 -41 -77 -120 -77 -82 -223 -243 -294 -324 -17 -21 -26
-37 -19 -37 7 0 127 61 266 135 139 74 255 135 257 135 8 0 188 -125 278 -193
97 -73 253 -210 440 -387 77 -73 150 -139 163 -147 12 -9 22 -24 22 -34 0 -19
-23 -19 -907 -17 l-906 3 -15 45 c-25 77 -222 632 -246 695 -13 33 -27 69 -30
81 -6 19 20 36 251 162 142 77 371 203 508 281 138 77 253 141 256 141 4 0 9
-33 12 -72z"/>
</g>
</svg>
