<?xml version="1.0" standalone="no"?>
<!DOCTYPE svg PUBLIC "-//W3C//DTD SVG 20010904//EN"
 "http://www.w3.org/TR/2001/REC-SVG-20010904/DTD/svg10.dtd">
<svg version="1.0" xmlns="http://www.w3.org/2000/svg"
 width="1024" height="1024" viewBox="0 0 1024 1024"
 preserveAspectRatio="xMidYMid meet">
  <rect width="1024" height="1024" fill="white"/>
<metadata>
Created by potrace 1.16, written by Peter Selinger 2001-2019
</metadata>
<g transform="translate(0.000000,1024.000000) scale(0.100000,-0.100000)"
fill="#000000" stroke="none">
<path d="M0 5120 l0 -5120 5120 0 5120 0 0 5120 0 5120 -5120 0 -5120 0 0
-5120z m4603 4249 c50 -11 142 -29 202 -40 129 -23 363 -68 386 -75 9 -2 31
-26 49 -52 54 -75 56 -75 113 -24 40 37 52 41 227 81 102 23 202 44 222 48 34
5 50 -3 226 -120 104 -69 225 -153 269 -185 44 -33 127 -90 186 -127 127 -82
127 -82 -41 -170 -49 -26 -64 -46 -42 -60 9 -5 51 -57 213 -258 l79 -98 -22
-72 c-12 -40 -57 -177 -101 -305 -74 -218 -88 -272 -73 -272 13 0 219 188 420
382 55 54 103 98 107 98 4 0 5 -21 2 -47 -12 -106 -46 -663 -44 -731 l2 -73
-119 -91 c-65 -50 -166 -121 -224 -159 -58 -37 -117 -77 -131 -88 -38 -30 -64
-38 -57 -20 3 8 34 97 67 198 34 100 80 228 102 284 62 155 91 238 85 244 -3
3 -59 -45 -125 -106 -66 -61 -124 -111 -130 -111 -5 0 -11 6 -14 13 -3 6 -35
86 -71 175 -37 90 -91 212 -120 270 -29 59 -66 140 -82 179 -18 46 -35 73 -44
73 -20 0 -115 -15 -225 -35 -146 -27 -129 -34 -215 87 -42 59 -95 129 -117
155 l-41 48 -33 -31 c-19 -18 -99 -81 -178 -140 -80 -60 -165 -124 -189 -142
l-44 -34 -212 4 c-116 1 -216 7 -223 11 -9 6 -3 25 22 71 26 47 37 82 45 142
15 127 18 184 8 184 -4 0 -76 -44 -158 -97 -82 -54 -173 -113 -202 -131 -29
-17 -120 -74 -202 -125 l-149 -93 -69 -169 c-137 -336 -148 -365 -148 -380 0
-22 -12 -19 -61 18 -92 69 -267 185 -272 180 -3 -3 1 -19 8 -37 8 -17 32 -76
54 -131 22 -55 65 -155 95 -222 30 -67 70 -166 89 -220 19 -54 38 -106 42
-115 9 -23 -3 -23 -36 0 -100 66 -154 103 -314 216 l-180 127 -7 47 c-16 104
-67 514 -78 626 -6 65 -15 140 -19 167 -5 27 -5 49 -1 49 4 0 30 -19 56 -43
27 -24 135 -115 239 -201 105 -87 216 -184 247 -214 32 -31 61 -53 65 -49 6 7
-45 162 -179 544 l-53 153 95 86 c52 48 161 155 243 238 169 173 171 154 -18
181 -66 9 -129 20 -140 25 -18 6 -16 9 15 25 19 10 60 37 90 59 66 51 126 88
245 154 50 28 176 100 280 160 105 61 196 111 203 111 7 1 54 -8 105 -20z
m1407 -1610 c32 -101 82 -212 155 -339 30 -53 57 -109 61 -125 6 -31 -14 -97
-167 -555 -44 -129 -87 -246 -97 -259 -10 -13 -56 -47 -103 -75 -47 -28 -150
-97 -229 -152 -189 -133 -234 -161 -360 -225 -96 -49 -109 -53 -175 -54 -80 0
-91 5 -405 200 -91 56 -208 127 -261 158 -164 94 -165 95 -203 177 -20 41 -55
131 -80 200 -24 69 -74 202 -112 295 -37 94 -69 188 -71 210 -4 36 6 58 88
205 93 167 170 330 190 402 8 31 14 39 27 34 9 -3 100 -32 202 -65 217 -70
332 -110 338 -116 5 -5 -48 -145 -60 -160 -5 -5 -29 -5 -66 3 -31 6 -102 16
-157 22 -55 5 -117 12 -137 16 -33 5 -38 3 -38 -13 0 -16 130 -191 270 -365
36 -44 37 -61 15 -338 -8 -102 -15 -188 -15 -192 0 -3 22 -14 49 -23 27 -9
134 -54 237 -102 104 -47 199 -88 211 -90 14 -3 75 20 170 64 81 38 190 87
242 109 l94 39 -6 121 c-3 66 -13 182 -23 257 l-17 137 30 33 c139 149 287
326 280 334 -6 5 -265 -14 -361 -28 -38 -5 -70 -8 -71 -7 -29 39 -86 151 -79
158 5 4 54 27 109 50 195 80 266 113 315 144 l51 32 66 -17 67 -16 26 -84z
m-842 -276 c83 -124 219 -341 292 -467 50 -88 59 -110 49 -122 -21 -25 -342
-177 -374 -177 -28 0 -384 168 -409 193 -8 8 -7 13 0 18 7 4 23 30 36 57 53
112 331 581 345 584 1 1 29 -38 61 -86z m-1737 -761 c24 -21 71 -59 104 -85
33 -27 121 -97 195 -158 476 -387 957 -764 1063 -834 31 -21 57 -42 57 -47 0
-5 -4 -7 -9 -3 -6 3 -47 10 -93 16 -76 9 -262 54 -653 159 -82 22 -287 76
-455 119 -168 44 -317 84 -331 89 -36 14 -568 138 -674 157 -127 24 -125 21
-64 61 30 20 63 44 74 54 51 46 710 510 725 510 10 0 37 -17 61 -38z m3451
-39 c105 -65 314 -188 451 -263 l38 -21 -203 -101 c-299 -148 -459 -221 -853
-385 -454 -190 -709 -273 -833 -273 -35 0 -33 2 60 59 171 104 285 201 783
671 314 296 416 390 426 390 4 0 63 -35 131 -77z m808 -690 c131 -134 399
-416 577 -608 66 -71 135 -143 152 -159 22 -21 38 -52 55 -110 42 -140 97
-348 111 -426 17 -86 66 -301 125 -540 48 -197 48 -197 18 -178 -13 8 -84 36
-158 63 -153 54 -261 95 -402 154 l-97 40 -178 -46 c-98 -25 -187 -47 -198
-50 -18 -4 -26 13 -73 149 -56 164 -61 201 -36 251 23 45 126 184 286 385 130
162 150 192 130 192 -5 0 -83 -26 -173 -59 -226 -81 -487 -166 -492 -161 -12
15 -237 381 -252 410 -10 19 -45 75 -77 123 -110 163 -125 167 -157 35 -12
-51 -33 -133 -46 -183 -14 -49 -45 -178 -70 -285 -94 -399 -135 -567 -161
-656 l-27 -92 -156 -40 c-86 -23 -210 -53 -276 -67 -291 -62 -605 -125 -628
-125 -21 0 -41 30 -156 227 -106 181 -131 231 -122 243 30 41 100 155 292 480
115 195 216 364 223 375 7 11 35 26 62 33 27 7 123 48 214 92 435 208 852 391
1260 552 140 55 262 104 270 108 22 12 35 2 160 -127z m-4739 -212 c101 -44
215 -93 252 -110 38 -17 75 -31 82 -31 29 0 25 -23 -15 -88 -153 -248 -207
-334 -258 -406 -32 -44 -85 -119 -118 -165 -93 -132 -113 -151 -165 -151 -24
0 -136 20 -248 45 -112 25 -206 43 -209 40 -9 -9 210 -262 391 -452 65 -67
117 -126 117 -130 0 -4 -105 -37 -233 -73 -378 -105 -416 -118 -449 -153 -16
-18 -74 -88 -128 -157 -55 -69 -111 -138 -125 -155 l-26 -30 4 26 c2 15 0 139
-4 275 -4 137 -10 382 -14 544 -3 162 -8 302 -11 312 -7 24 85 122 366 390
391 372 582 548 595 548 7 0 95 -36 196 -79z m1124 -345 c72 -14 195 -43 274
-63 116 -31 147 -43 163 -63 11 -14 65 -104 121 -200 55 -96 143 -247 195
-335 120 -200 192 -334 192 -355 -1 -24 -276 -425 -291 -423 -26 2 -163 32
-314 66 -148 34 -493 102 -650 129 l-80 13 -11 110 c-7 61 -24 227 -38 370
-15 143 -31 299 -36 346 -6 47 -10 106 -10 131 0 44 2 48 68 101 37 31 103 90
147 132 91 86 66 82 270 41z m1157 -243 l70 -92 -33 -58 c-74 -131 -144 -233
-162 -233 -20 0 -37 26 -108 164 l-51 98 17 47 c10 25 41 90 69 143 l51 97 38
-37 c21 -20 70 -78 109 -129z m-2358 -1220 c164 -111 159 -105 151 -182 -3
-36 -12 -106 -20 -156 -8 -49 -19 -126 -25 -170 -13 -93 -30 -155 -41 -155 -9
0 -92 117 -121 169 -9 17 -21 31 -25 31 -12 0 -153 -130 -153 -140 0 -26 81
-138 133 -184 l59 -53 -93 -97 c-51 -53 -95 -96 -99 -96 -3 0 -27 21 -53 46
-45 43 -140 95 -199 108 -49 11 -32 -32 45 -111 28 -29 48 -55 45 -58 -8 -8
-301 25 -308 34 -82 114 -182 295 -245 443 l-38 86 77 91 c105 124 262 247
401 316 98 49 357 144 394 145 8 0 60 -30 115 -67z m2341 -134 c58 -77 108
-146 111 -152 4 -12 -189 -299 -206 -305 -12 -4 -42 30 -137 157 -40 53 -73
102 -73 109 0 7 13 32 29 55 15 23 47 78 71 122 71 135 83 155 91 155 4 0 55
-63 114 -141z m1715 -321 c123 -249 226 -456 228 -460 2 -3 -7 -9 -20 -13 -13
-4 -282 -92 -599 -196 -317 -104 -583 -189 -592 -189 -8 0 -22 12 -29 28 -8
15 -57 101 -110 192 -105 181 -261 472 -272 508 -6 18 6 43 53 117 34 52 76
122 94 156 22 42 42 65 58 70 13 4 211 55 439 113 228 58 426 109 440 115 14
5 39 10 56 10 30 1 31 -1 254 -451z m-3317 417 c27 -18 299 -85 647 -160 146
-32 271 -62 278 -68 37 -29 121 -183 122 -220 0 -28 -318 -627 -408 -769 -29
-45 -42 -58 -62 -58 -14 0 -122 23 -240 50 -118 28 -264 62 -325 75 -167 37
-486 115 -497 121 -5 3 -3 13 6 23 16 17 32 51 146 306 35 77 104 230 155 340
107 232 145 325 145 354 0 25 4 26 33 6z m4577 -54 c171 -58 215 -77 323 -139
l99 -57 -6 -120 c-3 -66 -14 -211 -23 -322 l-17 -202 -73 -35 c-40 -20 -78
-36 -84 -36 -19 0 -206 -88 -312 -146 -53 -30 -105 -54 -115 -54 -19 0 -199
80 -239 105 l-25 17 35 32 c20 18 47 57 62 87 19 41 44 70 96 113 38 32 77 68
85 81 15 23 14 26 -18 65 -31 39 -117 110 -133 110 -4 0 -65 -58 -136 -129
-71 -70 -132 -125 -134 -120 -3 4 -30 76 -59 160 l-55 153 59 85 c32 47 88
129 124 182 64 93 69 97 138 129 83 38 219 78 263 79 17 1 82 -16 145 -38z
m-6482 -885 c93 -127 152 -226 152 -256 0 -25 -31 -146 -69 -275 -29 -97 -58
-254 -66 -355 l-7 -85 46 50 c40 44 253 348 345 493 19 30 40 52 50 52 34 0
42 -45 41 -227 l-2 -175 -26 -24 c-15 -13 -81 -66 -146 -117 -66 -50 -171
-132 -233 -180 -63 -49 -116 -87 -118 -85 -7 7 -104 269 -140 376 l-37 113 11
102 c16 138 92 688 98 707 5 17 5 18 101 -114z m3633 -1 c64 -97 148 -261 149
-291 0 -10 -333 -134 -362 -134 -8 0 -47 11 -87 25 -39 13 -122 38 -184 56
-62 17 -116 35 -121 40 -6 5 2 36 19 76 45 109 164 343 174 343 5 0 30 -35 57
-77 44 -71 116 -153 134 -153 11 0 44 58 81 142 35 82 49 103 59 91 4 -4 40
-57 81 -118z m1704 -472 c3 -60 18 -204 31 -322 14 -117 23 -219 20 -226 -2
-7 -17 -16 -32 -19 -15 -4 -59 -22 -98 -41 -174 -83 -744 -311 -753 -301 -2 2
-11 45 -19 95 -8 50 -37 182 -64 293 -27 112 -48 203 -47 203 1 0 135 66 297
147 162 81 329 161 370 179 105 45 274 106 282 102 3 -1 9 -51 13 -110z
m-3613 -9 c73 -36 178 -86 233 -111 255 -116 324 -146 371 -164 28 -11 61 -30
74 -44 20 -21 21 -27 11 -57 -9 -25 -81 -482 -81 -513 0 -3 -4 -5 -9 -5 -10 0
-205 81 -396 165 -66 29 -187 78 -270 109 -82 31 -160 61 -171 66 l-22 9 29
163 c28 160 89 448 95 448 2 0 63 -30 136 -66z m-256 -843 c77 -33 218 -91
314 -129 269 -108 444 -182 451 -190 4 -4 14 -52 22 -107 17 -108 13 -125 -30
-125 -33 0 -401 -74 -527 -107 l-101 -26 -538 6 c-297 3 -541 7 -542 9 -5 5
93 280 103 289 21 19 263 175 372 239 69 40 139 84 155 96 35 26 167 104 176
104 3 0 69 -27 145 -59z m4082 15 c70 -41 136 -79 412 -236 118 -67 220 -126
226 -131 6 -5 35 -64 64 -131 29 -68 59 -136 66 -152 8 -16 12 -32 9 -34 -3
-3 -256 -6 -563 -6 l-557 -1 -256 48 c-140 26 -270 47 -287 47 -18 0 -32 2
-32 5 0 30 53 242 62 251 22 20 345 186 483 247 72 32 162 73 200 92 39 18 81
34 93 34 13 1 49 -14 80 -33z"/>
<path d="M6881 5574 c0 -11 3 -14 6 -6 3 7 2 16 -1 19 -3 4 -6 -2 -5 -13z"/>
</g>
</svg>
