<?xml version="1.0" standalone="no"?>
<!DOCTYPE svg PUBLIC "-//W3C//DTD SVG 20010904//EN"
 "http://www.w3.org/TR/2001/REC-SVG-20010904/DTD/svg10.dtd">
<svg version="1.0" xmlns="http://www.w3.org/2000/svg"
 width="1024" height="1024" viewBox="0 0 1024 1024"
 preserveAspectRatio="xMidYMid meet">
  <rect width="1024" height="1024" fill="white"/>
<metadata>
Created by potrace 1.16, written by Peter Selinger 2001-2019
</metadata>
<g transform="translate(0.000000,1024.000000) scale(0.100000,-0.100000)"
fill="#000000" stroke="none">
<path d="M0 5120 l0 -5120 5120 0 5120 0 0 5120 0 5120 -5120 0 -5120 0 0
-5120z m7235 4120 c223 -185 410 -443 534 -733 84 -197 109 -338 91 -523 -13
-146 -32 -211 -100 -350 -139 -286 -332 -521 -919 -1116 -107 -109 -193 -199
-190 -201 2 -2 51 -21 109 -42 152 -55 141 -42 119 -122 -10 -37 -23 -86 -28
-109 -10 -36 -15 -42 -53 -53 -208 -59 -619 -206 -868 -309 -155 -64 -518
-229 -535 -243 -8 -6 -4 -81 11 -246 12 -131 31 -366 43 -523 11 -157 23 -301
25 -321 4 -40 8 -38 -241 -182 l-111 -65 -139 80 c-76 44 -157 92 -180 105
-36 21 -42 28 -38 51 3 15 12 126 20 247 18 246 51 636 65 764 5 47 9 86 7 86
-13 10 -489 225 -574 259 -240 98 -518 196 -778 275 l-100 30 -23 112 c-19 92
-21 113 -10 120 7 5 59 25 115 46 l102 37 -182 189 c-481 500 -670 713 -789
891 -192 288 -247 461 -235 741 7 151 20 204 88 364 108 251 227 429 414 616
112 113 351 312 361 302 2 -2 -14 -55 -36 -118 -96 -280 -164 -613 -163 -804
0 -135 16 -213 62 -302 43 -84 128 -204 191 -269 60 -62 435 -373 700 -579
225 -176 329 -265 390 -333 54 -61 213 -280 326 -451 l69 -104 3 64 c3 72 -19
233 -44 305 -27 83 -110 250 -170 342 -81 126 -151 211 -288 349 -66 68 -118
125 -115 127 2 3 215 111 472 242 l468 236 42 -16 c39 -15 859 -427 902 -453
18 -10 8 -23 -121 -155 -168 -172 -290 -340 -387 -534 -58 -114 -97 -294 -97
-442 l0 -85 84 131 c191 296 308 447 434 555 53 46 210 173 347 282 317 252
577 469 637 531 51 54 145 189 182 262 64 126 78 277 46 487 -38 254 -114 552
-186 729 -8 21 102 -59 241 -174z m-5079 -2490 c352 -183 784 -473 907 -609
20 -22 38 -55 41 -73 10 -58 37 -510 31 -516 -3 -3 -97 87 -208 200 -111 113
-248 241 -304 286 -102 81 -187 142 -197 142 -9 0 22 -92 83 -246 125 -317
312 -647 466 -822 62 -71 60 -62 48 -255 -5 -84 -9 -107 -21 -107 -24 0 -171
94 -261 167 -108 86 -173 173 -260 343 -126 246 -339 781 -412 1034 -33 118
-119 506 -119 541 0 18 32 5 206 -85z m6104 -92 c-74 -344 -159 -612 -311
-980 -194 -473 -295 -641 -463 -772 -87 -69 -228 -156 -250 -156 -14 0 -26
116 -26 245 0 53 3 65 26 86 42 39 169 211 225 306 73 124 181 333 223 432 35
81 136 346 136 356 0 8 -44 -21 -150 -99 -57 -42 -187 -161 -327 -299 -128
-127 -235 -229 -237 -226 -4 4 21 432 30 509 5 39 13 53 67 104 118 111 303
241 596 419 148 90 491 271 498 263 2 -1 -15 -86 -37 -188z m-4474 -1290 l258
-208 263 0 c202 0 265 -3 268 -12 11 -34 38 -471 44 -700 l6 -256 203 -227
c112 -125 202 -228 200 -230 -1 -2 -77 -15 -168 -29 l-165 -27 -115 -65 c-123
-71 -351 -217 -413 -267 -21 -16 -40 -28 -42 -26 -2 2 -8 130 -14 284 -7 154
-20 377 -31 495 -11 118 -20 225 -20 237 0 16 -33 48 -122 119 -148 117 -298
245 -434 370 l-100 93 8 83 c4 46 22 201 39 345 l32 262 22 -17 c13 -9 139
-110 281 -224z m3003 -28 c16 -140 33 -284 36 -320 l7 -65 -104 -100 c-56 -55
-203 -192 -325 -303 l-221 -203 -6 -72 c-3 -40 -12 -162 -21 -272 -8 -110 -19
-305 -25 -433 -5 -129 -11 -236 -13 -239 -3 -2 -57 30 -121 71 -64 42 -192
120 -284 175 l-167 99 -160 27 c-88 15 -162 29 -164 31 -1 1 87 104 198 228
l201 226 0 151 c0 162 15 462 33 679 l12 135 256 -4 257 -4 288 232 c159 127
290 228 291 224 1 -5 16 -123 32 -263z m114 -1402 c48 -244 90 -466 93 -494
l6 -51 -205 -286 c-145 -203 -207 -282 -211 -269 -10 32 -55 287 -75 427 -48
334 -72 515 -78 585 l-6 76 171 201 c94 111 179 213 189 227 10 14 20 26 23
26 3 0 45 -199 93 -442z m-3115 5 l25 -34 -16 -127 c-9 -70 -28 -212 -41 -317
-14 -104 -39 -271 -56 -370 -18 -99 -35 -200 -39 -225 l-6 -45 -42 55 c-23 30
-114 156 -203 280 l-161 225 6 68 c3 37 44 257 91 489 46 232 84 423 84 425 0
5 320 -375 358 -424z m1944 -648 c90 -68 207 -160 261 -205 l97 -81 0 -72 c0
-40 12 -192 26 -338 l27 -266 -130 -179 c-71 -98 -190 -264 -263 -369 -74
-104 -246 -344 -383 -533 l-249 -344 -72 99 c-40 54 -152 213 -248 353 -96
140 -292 418 -436 617 l-261 361 25 222 c13 122 28 274 32 338 l7 117 100 83
c55 46 169 137 254 202 l153 118 449 1 449 0 162 -124z"/>
<path d="M4808 3053 c-16 -2 -28 -5 -28 -6 0 -1 -25 -99 -55 -218 -30 -119
-64 -271 -75 -338 -21 -120 -40 -341 -30 -341 9 1 197 352 279 523 l81 167
137 0 138 0 109 -217 c112 -227 212 -410 247 -453 l20 -25 -6 90 c-4 50 -15
144 -26 210 -23 140 -133 583 -149 599 -11 11 -582 19 -642 9z"/>
</g>
</svg>
