<?xml version="1.0" standalone="no"?>
<!DOCTYPE svg PUBLIC "-//W3C//DTD SVG 20010904//EN"
 "http://www.w3.org/TR/2001/REC-SVG-20010904/DTD/svg10.dtd">
<svg version="1.0" xmlns="http://www.w3.org/2000/svg"
 width="1024" height="1024" viewBox="0 0 1024 1024"
 preserveAspectRatio="xMidYMid meet">
  <rect width="1024" height="1024" fill="white"/>
<metadata>
Created by potrace 1.16, written by Peter Selinger 2001-2019
</metadata>
<g transform="translate(0.000000,1024.000000) scale(0.100000,-0.100000)"
fill="#000000" stroke="none">
<path d="M0 5120 l0 -5120 5120 0 5120 0 0 5120 0 5120 -5120 0 -5120 0 0
-5120z m5099 3805 c4 -29 4 -30 10 -5 11 39 33 35 107 -23 38 -29 170 -131
294 -227 636 -491 710 -549 920 -723 271 -225 430 -372 430 -396 0 -24 -209
-194 -725 -591 -181 -140 -482 -373 -668 -518 -299 -233 -341 -263 -365 -257
-14 3 -76 46 -136 94 -111 88 -461 358 -741 571 -291 222 -541 415 -659 510
-65 52 -130 103 -143 114 -31 24 -56 72 -48 95 12 38 395 367 770 661 136 107
399 316 583 463 185 147 343 266 352 265 8 -2 17 -16 19 -33z m2184 -3297
c138 78 416 221 440 227 25 7 27 5 27 -23 0 -16 -9 -83 -20 -149 -12 -65 -32
-197 -45 -293 -14 -96 -32 -213 -40 -260 -8 -47 -30 -195 -50 -330 -52 -367
-52 -363 -95 -418 -21 -26 -114 -120 -207 -209 l-169 -161 -33 -114 c-49 -173
-62 -271 -68 -525 l-6 -231 -100 -109 c-88 -95 -223 -237 -592 -623 -55 -58
-195 -206 -310 -329 -115 -123 -243 -252 -284 -287 l-74 -64 -545 0 -545 0
-36 27 c-61 46 -193 177 -454 453 -138 146 -304 319 -368 385 -135 140 -270
284 -398 424 l-91 101 0 169 c0 256 -26 473 -76 635 l-26 81 -208 210 -207
210 -37 230 c-20 127 -54 352 -76 500 -22 149 -51 344 -65 435 -39 250 -41
270 -23 270 14 0 170 -80 412 -210 l91 -49 -3 824 c-1 454 1 825 5 825 19 -1
87 -51 778 -565 368 -274 473 -356 688 -538 329 -279 640 -528 652 -523 7 2
176 141 375 308 199 167 403 337 454 379 50 41 357 275 681 519 l590 443 3
-837 2 -838 53 30z m-3826 -3363 c42 -49 173 -193 292 -319 119 -126 243 -259
276 -296 33 -36 117 -128 188 -204 159 -171 170 -218 33 -142 -34 18 -95 52
-136 73 -41 22 -210 112 -375 200 -165 88 -335 180 -377 203 l-78 44 0 275 c0
152 3 294 7 316 l6 39 45 -49 c24 -28 78 -90 119 -140z m3493 -137 l0 -296
-152 -85 c-84 -46 -225 -123 -313 -169 -88 -47 -249 -133 -358 -192 -110 -58
-210 -109 -223 -112 -68 -17 5 82 255 346 224 237 530 565 590 634 135 154
183 200 192 185 5 -8 9 -147 9 -311z"/>
<path d="M5085 8411 c-3 -6 -41 -35 -83 -63 -142 -95 -406 -281 -502 -354 -92
-69 -384 -315 -394 -333 -3 -4 25 -42 62 -83 37 -41 131 -147 209 -235 258
-290 474 -487 643 -588 36 -22 70 -45 75 -53 8 -10 32 1 115 56 213 141 437
359 842 824 l56 65 -167 147 c-214 188 -293 247 -584 435 -131 84 -244 162
-251 173 -9 13 -16 16 -21 9z"/>
<path d="M3384 5956 c-48 -94 -151 -296 -230 -448 l-144 -276 11 -59 c40 -234
91 -354 225 -533 178 -239 191 -261 213 -345 39 -155 91 -415 135 -671 24
-142 49 -270 54 -284 5 -14 56 -102 111 -195 56 -94 119 -205 139 -247 20 -42
41 -77 46 -77 13 -1 2 190 -49 879 -17 225 -40 513 -54 658 -9 104 -3 91 -168
319 -89 124 -207 322 -238 400 -22 56 -16 77 45 145 69 77 93 84 246 69 206
-21 590 -84 823 -137 27 -6 27 -3 -7 -204 -35 -202 -120 -809 -125 -887 l-5
-72 92 -79 c50 -43 188 -157 306 -252 118 -95 232 -189 252 -208 l38 -36 25
20 c13 10 169 136 345 279 l322 260 -6 85 c-3 47 -28 245 -55 440 -72 512 -84
621 -69 636 24 22 617 130 848 155 161 17 175 13 249 -72 33 -39 61 -75 61
-81 0 -33 -181 -330 -315 -517 -62 -86 -115 -165 -118 -176 -3 -11 -15 -159
-27 -330 -11 -170 -32 -436 -45 -590 -30 -340 -48 -618 -43 -665 3 -33 6 -30
68 80 35 63 93 162 129 220 112 182 107 168 146 395 20 116 54 293 76 395 22
102 49 232 60 290 12 57 28 118 36 135 20 38 113 168 188 260 112 139 159 242
221 483 l29 113 -25 47 c-36 68 -118 222 -268 502 -72 135 -141 266 -153 293
-13 26 -28 47 -35 47 -6 0 -259 -107 -560 -238 -302 -131 -639 -275 -749 -321
-110 -45 -206 -86 -214 -90 -13 -8 -12 -27 2 -138 123 -953 147 -1171 137
-1199 -5 -11 -59 -81 -120 -155 -151 -180 -137 -167 -154 -144 -8 11 -66 83
-130 160 -93 113 -116 146 -116 172 0 29 67 576 123 1003 14 102 28 210 31
241 l6 56 -58 26 c-31 14 -138 58 -237 97 -171 68 -284 117 -948 410 l-287
128 -86 -172z"/>
<path d="M4890 3299 c-107 -10 -240 -21 -295 -25 l-99 -7 -91 -59 c-49 -33
-93 -67 -97 -76 -4 -10 -7 -48 -7 -86 -1 -58 1 -67 15 -62 9 3 375 6 815 6
l799 0 0 49 c0 78 -11 94 -113 164 l-95 64 -104 7 c-56 4 -182 13 -278 21 -96
9 -193 16 -215 18 -22 2 -128 -5 -235 -14z"/>
<path d="M5025 2642 c-11 -2 -116 -21 -233 -41 -118 -20 -214 -40 -214 -46 -1
-5 80 -67 178 -137 l179 -128 183 0 183 0 87 63 c48 35 131 94 184 132 54 38
96 70 94 72 -2 2 -126 24 -275 48 -260 43 -321 49 -366 37z"/>
</g>
</svg>
