<?xml version="1.0" standalone="no"?>
<!DOCTYPE svg PUBLIC "-//W3C//DTD SVG 20010904//EN"
 "http://www.w3.org/TR/2001/REC-SVG-20010904/DTD/svg10.dtd">
<svg version="1.0" xmlns="http://www.w3.org/2000/svg"
 width="1024" height="1024" viewBox="0 0 1024 1024"
 preserveAspectRatio="xMidYMid meet">
  <rect width="1024" height="1024" fill="white"/>
<metadata>
Created by potrace 1.16, written by Peter Selinger 2001-2019
</metadata>
<g transform="translate(0.000000,1024.000000) scale(0.100000,-0.100000)"
fill="#000000" stroke="none">
<path d="M0 5120 l0 -5120 5120 0 5120 0 0 5120 0 5120 -5120 0 -5120 0 0
-5120z m5262 4130 c74 -107 222 -323 330 -480 107 -157 304 -449 438 -650 133
-201 246 -368 249 -373 4 -4 75 36 157 89 82 54 187 121 234 149 90 55 536
333 807 503 89 56 164 102 166 102 3 0 -3 -28 -14 -62 -11 -35 -28 -108 -39
-163 -11 -55 -54 -239 -95 -410 -41 -170 -131 -544 -200 -830 -69 -286 -135
-560 -146 -610 -12 -49 -25 -94 -29 -98 -10 -11 -400 330 -400 350 0 3 28 80
61 171 61 166 209 600 209 613 0 13 -314 -159 -650 -356 -200 -117 -282 -170
-334 -215 -40 -36 -38 -38 -121 105 -32 55 -140 237 -240 405 -100 168 -257
434 -349 593 -92 158 -171 287 -174 287 -6 -1 -158 -254 -530 -885 -71 -121
-159 -265 -194 -320 -36 -55 -77 -124 -92 -152 -14 -29 -29 -53 -31 -53 -3 0
-47 29 -98 64 -196 135 -927 544 -927 518 0 -28 162 -498 250 -724 12 -31 20
-63 17 -71 -5 -14 -393 -332 -404 -332 -3 0 -36 131 -74 290 -37 160 -96 409
-132 555 -36 146 -68 281 -72 300 -3 19 -26 118 -50 220 -24 102 -59 264 -80
360 -20 96 -53 236 -74 310 -21 74 -37 137 -35 139 3 3 31 -14 274 -169 58
-37 211 -133 340 -215 429 -270 614 -388 674 -428 49 -33 60 -37 71 -26 7 8
98 140 200 293 103 153 280 414 393 580 113 166 286 419 385 564 99 145 183
262 188 260 4 -2 68 -91 141 -198z m1123 -2741 c41 -38 427 -359 527 -439 32
-25 57 -50 58 -56 0 -13 -133 -261 -148 -276 -6 -6 -73 34 -178 107 -93 65
-175 119 -182 122 -17 7 -179 -48 -627 -214 -82 -30 -214 -77 -293 -104 -78
-27 -156 -56 -172 -64 l-29 -15 -3 -493 c-2 -270 0 -504 4 -519 3 -15 29 -55
57 -89 27 -35 48 -67 44 -71 -3 -5 -55 -42 -117 -82 -61 -40 -131 -89 -155
-110 -24 -20 -49 -35 -56 -32 -7 2 -48 31 -92 64 -44 33 -112 81 -151 107 -40
25 -72 51 -72 57 0 6 23 46 50 89 l50 78 0 489 c0 452 -1 491 -17 509 -11 12
-133 62 -298 121 -154 56 -392 142 -528 192 -137 49 -255 90 -263 90 -9 0 -91
-54 -183 -120 -93 -66 -172 -120 -177 -120 -10 0 -159 257 -159 275 0 6 61 63
136 126 75 63 219 185 322 272 102 86 193 157 202 157 18 0 390 -150 515 -208
79 -36 428 -186 592 -254 l96 -40 139 60 c76 33 226 98 333 145 711 310 703
307 719 295 9 -7 34 -29 56 -49z m-3407 -671 c111 -173 232 -401 220 -414 -4
-3 -57 13 -119 35 -62 22 -114 39 -115 38 -2 -2 3 -24 11 -50 8 -26 39 -156
70 -289 30 -134 84 -344 119 -468 111 -390 108 -376 99 -432 l-8 -50 -127 105
c-257 213 -308 260 -308 283 0 12 -18 98 -40 191 -32 136 -96 475 -161 863
-18 109 -16 113 52 146 34 16 98 52 143 81 44 29 86 53 92 53 7 0 39 -42 72
-92z m4396 68 c17 -13 76 -47 131 -76 136 -72 131 -64 112 -147 -9 -37 -25
-124 -38 -193 -12 -69 -41 -213 -66 -320 -54 -239 -99 -457 -108 -528 -7 -51
-10 -55 -113 -151 -59 -54 -154 -140 -212 -190 l-105 -90 -3 47 c-5 74 16 194
64 362 25 85 83 306 129 490 46 184 87 345 91 358 3 12 2 22 -3 22 -5 0 -55
-15 -111 -34 -82 -28 -102 -32 -102 -20 0 41 177 350 275 481 14 18 24 17 59
-11z m-3773 -551 c235 -43 749 -150 749 -156 0 -3 -33 -10 -72 -16 -145 -20
-398 -68 -398 -74 0 -3 62 -16 138 -28 183 -30 672 -150 679 -167 3 -8 -18
-125 -47 -261 -28 -137 -54 -261 -57 -278 -3 -16 -11 -40 -19 -52 -27 -43 -18
-65 44 -108 147 -103 263 -167 380 -209 40 -14 86 -33 103 -41 29 -16 33 -15
172 45 237 102 385 199 401 263 7 28 6 41 -6 54 -8 10 -22 54 -32 98 -9 44
-37 172 -61 284 -25 113 -45 206 -45 207 0 16 484 134 677 165 79 13 140 26
135 30 -4 4 -68 17 -142 29 -74 12 -160 28 -191 36 -31 8 -69 14 -83 14 -47 0
-27 18 32 30 31 6 138 29 237 51 182 40 503 95 584 101 44 3 45 2 52 -33 5
-20 12 -101 18 -180 8 -127 7 -148 -7 -176 -9 -17 -93 -145 -186 -285 -322
-481 -382 -586 -437 -753 -28 -88 -72 -304 -64 -313 5 -5 335 289 453 402 51
49 94 87 97 84 3 -3 -10 -72 -29 -154 -40 -176 -116 -519 -122 -551 -2 -13
-120 -143 -262 -291 -141 -147 -285 -301 -319 -342 -93 -113 -168 -207 -230
-288 -64 -84 -78 -92 -188 -118 -71 -17 -121 -19 -465 -18 l-385 1 -75 35
c-82 40 -87 44 -420 418 -91 101 -237 261 -326 355 -89 94 -168 182 -177 196
-8 13 -25 74 -37 134 -12 61 -31 148 -42 195 -57 238 -97 415 -94 417 3 3 183
-155 338 -297 139 -128 218 -194 223 -189 2 3 -7 61 -21 131 -29 148 -86 307
-146 407 -137 226 -217 355 -267 426 -31 44 -81 118 -110 165 -30 47 -80 121
-111 165 -32 44 -60 95 -64 113 -3 19 5 101 19 188 14 85 25 157 25 159 0 10
52 4 181 -20z m-43 -2425 c47 -63 139 -178 203 -255 64 -78 130 -161 148 -185
55 -76 297 -344 505 -559 109 -113 257 -273 328 -356 72 -82 187 -208 256
-278 117 -120 126 -127 146 -114 12 8 149 153 305 323 156 170 380 413 497
540 118 128 234 256 258 285 56 68 338 415 499 616 67 84 127 152 132 152 17
0 560 -444 563 -461 2 -9 -57 -62 -154 -139 -138 -109 -668 -531 -1179 -939
-436 -348 -651 -522 -781 -631 -81 -68 -150 -119 -162 -119 -11 0 -66 39 -124
88 -176 151 -991 810 -1432 1160 -434 344 -709 568 -714 580 -3 9 5 23 22 35
15 10 142 113 284 228 l257 210 28 -33 c16 -18 67 -85 115 -148z"/>
<path d="M4950 3754 c-30 -7 -106 -40 -169 -71 -89 -45 -132 -74 -193 -132
-112 -105 -111 -108 70 -114 81 -3 183 -10 227 -16 110 -16 396 -17 475 -2 36
6 138 14 228 18 89 3 165 10 169 16 3 5 -25 40 -63 79 -61 61 -85 78 -210 138
-77 37 -166 76 -196 85 -53 17 -56 17 -102 -4 -57 -25 -74 -26 -101 -8 -32 22
-76 26 -135 11z"/>
<path d="M4940 3134 c-19 -2 -64 -8 -100 -13 -36 -6 -86 -13 -112 -16 -27 -3
-48 -10 -48 -15 0 -5 26 -39 57 -76 32 -37 64 -81 73 -98 l15 -31 145 -6 c200
-9 400 -10 428 -3 12 4 29 19 37 34 8 15 41 60 74 101 34 41 61 77 61 80 0 8
-94 25 -210 39 -77 9 -336 11 -420 4z"/>
</g>
</svg>
