<?xml version="1.0" standalone="no"?>
<!DOCTYPE svg PUBLIC "-//W3C//DTD SVG 20010904//EN"
 "http://www.w3.org/TR/2001/REC-SVG-20010904/DTD/svg10.dtd">
<svg version="1.0" xmlns="http://www.w3.org/2000/svg"
 width="1024" height="1024" viewBox="0 0 1024 1024"
 preserveAspectRatio="xMidYMid meet">
  <rect width="1024" height="1024" fill="white"/>
<metadata>
Created by potrace 1.16, written by Peter Selinger 2001-2019
</metadata>
<g transform="translate(0.000000,1024.000000) scale(0.100000,-0.100000)"
fill="#000000" stroke="none">
<path d="M0 5120 l0 -5120 5120 0 5120 0 0 5120 0 5120 -5120 0 -5120 0 0
-5120z m5150 4218 c0 -10 5 -18 11 -18 7 0 9 -10 5 -25 -4 -14 -2 -25 4 -25 5
0 10 -9 10 -20 0 -11 4 -28 9 -38 11 -19 25 -73 23 -84 -1 -4 10 -32 24 -64
33 -74 101 -274 128 -377 17 -64 25 -81 41 -83 18 -2 18 -1 4 9 -20 15 -38 84
-18 72 9 -6 10 -3 4 11 -5 10 -8 31 -8 46 0 15 -5 26 -11 25 -6 -1 -12 15 -14
36 -2 20 1 37 7 37 10 0 6 87 -5 122 -3 10 -2 18 3 18 5 0 67 -47 139 -104
151 -120 328 -294 382 -375 36 -55 38 -62 50 -186 18 -182 52 -671 60 -849 l7
-149 -39 -66 c-85 -143 -287 -383 -441 -523 -85 -77 -246 -198 -264 -198 -14
0 -16 -55 23 560 3 47 8 103 11 125 3 22 7 77 9 122 2 45 9 91 16 102 6 12 8
26 5 31 -3 5 0 12 7 16 8 5 6 10 -8 15 -18 7 -18 8 3 14 12 4 29 18 38 32 10
14 22 22 31 19 7 -3 13 0 11 6 -1 7 13 17 32 24 19 6 40 18 46 28 7 9 15 16
19 16 13 0 100 70 196 159 52 48 113 103 135 123 l39 36 -3 133 c-1 74 -5 138
-8 142 -3 5 -24 -9 -47 -31 -73 -70 -360 -256 -518 -336 -103 -52 -150 -56
-264 -21 -148 45 -374 164 -374 198 0 5 -3 7 -6 4 -6 -6 -50 25 -99 70 -11 10
-46 35 -78 57 -31 21 -71 52 -87 69 l-30 31 2 -184 3 -185 107 -85 c59 -47
176 -128 259 -180 84 -52 165 -106 181 -118 28 -24 37 -52 17 -52 -7 0 -8 -11
-4 -31 20 -90 25 -169 29 -444 1 -132 4 -244 5 -250 2 -5 2 -29 1 -52 -1 -25
3 -43 9 -43 6 0 11 -20 11 -46 0 -25 -3 -44 -7 -42 -5 2 -25 12 -45 21 -21 10
-38 22 -38 27 0 6 -7 10 -15 10 -8 0 -15 4 -15 8 0 4 -15 16 -32 27 -262 154
-592 561 -606 745 -4 61 35 923 44 983 5 30 9 35 20 26 11 -9 14 -7 14 10 0
70 166 256 407 457 61 52 118 92 125 91 7 -2 9 -2 5 1 -10 5 42 62 56 62 5 0
6 -11 3 -24 -3 -13 -13 -75 -21 -137 -17 -121 -48 -298 -65 -364 -12 -49 -12
-55 -2 -55 10 0 32 65 42 127 10 61 83 299 174 568 77 227 76 225 86 225 5 0
11 -8 13 -17 3 -12 5 -10 6 7 1 20 3 22 11 10 5 -8 10 -23 10 -32z m-1010
-2138 c0 -14 12 -56 26 -95 14 -38 31 -88 38 -110 8 -22 30 -75 50 -118 20
-43 36 -81 36 -83 0 -3 5 -10 11 -17 5 -7 35 -46 65 -87 65 -88 105 -131 240
-260 179 -171 404 -360 428 -360 3 0 24 -11 46 -25 24 -15 46 -22 57 -18 24 9
101 60 141 95 18 16 38 26 43 22 10 -6 317 300 442 440 34 38 76 83 94 101 18
18 30 35 26 38 -5 6 29 59 55 86 7 7 16 26 19 42 3 16 9 26 14 24 13 -9 21 14
25 67 1 27 12 65 23 84 12 19 21 41 21 48 0 6 12 35 26 64 l26 52 33 -28 c18
-15 72 -75 120 -135 47 -59 90 -105 95 -102 18 11 -14 -61 -67 -154 -168 -291
-388 -544 -722 -831 -61 -52 -118 -109 -126 -127 -8 -17 -34 -46 -56 -64 -40
-32 -41 -32 -70 -15 -23 13 -28 14 -23 3 4 -10 -12 -23 -50 -42 -44 -21 -64
-26 -103 -21 -53 5 -83 14 -83 25 0 4 -14 15 -30 24 -28 17 -31 17 -36 2 -11
-28 -89 1 -79 28 4 11 -21 33 -118 99 -22 16 -62 48 -90 73 -28 25 -54 45 -58
45 -11 0 -77 61 -208 194 -146 148 -244 264 -235 278 4 6 2 8 -4 4 -21 -13
-163 196 -239 354 -51 106 -57 148 -24 189 44 54 127 167 145 196 10 17 28 40
40 53 19 21 21 22 27 5 4 -10 8 -29 9 -43z m2817 -196 c245 -175 630 -433 841
-564 83 -52 152 -98 152 -101 0 -4 -123 -75 -272 -158 -150 -84 -277 -158
-283 -165 -10 -13 -17 -16 -34 -16 -4 0 -21 -12 -37 -27 -16 -15 -33 -28 -39
-28 -29 -4 -95 -40 -95 -53 0 -8 -6 -12 -15 -8 -8 3 -15 1 -15 -4 0 -5 -7 -7
-15 -4 -8 4 -15 1 -15 -5 0 -6 -9 -11 -19 -11 -11 0 -23 -5 -27 -12 -5 -8 -2
-9 10 -5 10 4 15 3 11 -4 -4 -5 -14 -7 -24 -4 -10 3 -65 -22 -140 -65 -100
-58 -198 -111 -232 -128 -11 -5 -112 158 -111 180 1 26 22 134 87 433 24 116
45 221 45 234 0 19 -19 4 -106 -85 -58 -60 -140 -146 -181 -191 -42 -46 -87
-90 -101 -99 -25 -16 -25 -16 -20 15 4 29 4 30 -14 14 -29 -26 -21 -2 37 116
30 60 56 120 59 133 5 25 42 111 169 388 136 297 170 370 174 370 3 0 97 -66
210 -146z m-3431 39 c25 -54 62 -134 81 -178 34 -79 137 -306 152 -335 4 -8
25 -55 46 -105 21 -49 43 -97 49 -105 18 -23 56 -109 58 -130 0 -3 7 -14 14
-25 19 -26 18 -36 -3 -28 -12 5 -15 2 -10 -10 8 -22 -8 -30 -23 -12 -7 8 -16
15 -20 15 -5 0 -59 53 -122 117 -118 122 -221 225 -244 244 -14 11 -14 13 1
-66 4 -16 15 -68 25 -115 10 -47 23 -110 30 -140 6 -30 20 -95 31 -145 12 -49
22 -97 23 -105 1 -8 8 -40 15 -70 11 -48 11 -61 -2 -93 -9 -20 -21 -37 -26
-37 -6 0 -11 -7 -11 -15 0 -9 -12 -33 -26 -55 -18 -27 -31 -37 -42 -32 -20 7
-95 47 -250 131 -62 33 -120 61 -128 61 -8 0 -13 4 -10 9 3 5 -1 12 -10 15 -8
3 -12 2 -9 -4 4 -6 -5 -5 -19 1 -14 7 -23 16 -20 20 2 4 -4 13 -15 18 -25 14
-34 14 -26 1 3 -6 -1 -7 -10 -4 -9 4 -14 9 -11 12 3 3 -17 16 -45 29 -28 13
-72 37 -97 54 -25 17 -55 35 -66 40 -12 5 -41 22 -66 38 -25 16 -66 41 -92 54
-105 55 -378 211 -378 216 1 9 73 57 200 134 250 151 529 343 855 590 77 58
143 106 147 106 5 1 29 -43 54 -96z m4395 -1155 c40 -72 108 -184 151 -249 42
-64 88 -138 103 -163 25 -43 26 -46 8 -46 -11 0 -23 3 -26 6 -11 11 -87 15
-87 4 0 -5 -28 -9 -62 -8 -35 1 -295 -2 -578 -6 -283 -5 -512 -5 -508 -1 4 5
3 14 -3 21 -9 11 -7 15 7 21 11 3 21 10 24 14 5 7 179 112 272 164 29 16 83
47 120 67 37 21 74 38 82 38 8 0 16 6 19 13 3 7 47 39 98 70 52 30 139 85 194
121 55 36 102 66 106 66 3 0 39 -59 80 -132z m-5346 -8 c94 -60 217 -137 275
-171 58 -34 115 -73 127 -86 12 -12 29 -23 37 -23 23 0 98 -41 122 -67 12 -13
38 -30 58 -38 20 -9 34 -20 31 -25 -3 -4 8 -18 25 -30 16 -12 30 -25 30 -30 0
-8 -417 -5 -680 5 -52 2 -195 4 -317 4 -146 1 -223 5 -223 11 0 6 27 54 61
107 65 103 202 340 238 411 12 23 27 42 34 42 6 0 89 -50 182 -110z m1715 -42
c47 -30 96 -60 110 -67 l25 -12 -25 20 c-54 45 3 17 96 -46 258 -174 369 -248
493 -326 l133 -85 58 44 c32 24 65 44 74 44 9 0 16 4 16 8 0 5 35 30 78 56 42
27 97 62 122 79 25 17 101 69 170 115 69 47 148 101 175 121 28 19 73 50 100
68 28 17 55 36 60 41 28 23 46 20 95 -19 51 -40 65 -58 31 -40 -14 8 -22 7
-30 -3 -8 -10 -4 -19 17 -37 15 -13 21 -17 15 -9 -15 16 -17 33 -4 28 16 -6
170 -191 221 -264 64 -92 170 -291 170 -318 0 -18 2 -19 11 -6 8 12 9 9 5 -12
-5 -22 -1 -31 19 -44 14 -9 22 -20 19 -26 -3 -5 2 -15 11 -22 16 -12 16 -13 2
-19 -11 -4 -15 -13 -11 -24 5 -14 4 -15 -4 -4 -8 11 -19 4 -55 -30 -25 -24
-69 -65 -99 -90 -29 -26 -109 -95 -178 -155 -69 -60 -126 -112 -128 -116 -2
-4 -10 -8 -18 -8 -8 0 -14 -4 -14 -9 0 -5 -8 -12 -17 -15 -16 -6 -68 -47 -114
-91 -19 -18 -35 -19 -43 -2 -3 6 -4 4 -3 -6 1 -10 -9 -25 -25 -34 -25 -16 -28
-16 -65 10 -21 15 -84 68 -140 119 -55 51 -166 152 -245 224 -78 72 -171 159
-206 194 l-63 63 -137 -134 c-159 -156 -383 -359 -485 -442 -72 -58 -114 -71
-125 -38 -3 10 2 11 19 6 21 -6 20 -4 -6 14 -16 12 -36 19 -44 16 -16 -6 -43
13 -36 25 3 5 0 12 -6 16 -8 4 -9 3 -5 -4 4 -7 2 -12 -3 -12 -6 0 -11 7 -11
15 0 8 -4 14 -8 12 -9 -2 -188 135 -248 190 -17 15 -61 54 -97 86 -36 32 -79
71 -95 85 -16 15 -48 42 -71 61 -22 19 -41 40 -41 47 0 8 -6 11 -15 8 -21 -9
-41 44 -22 60 8 6 25 27 38 46 15 23 17 30 6 21 -23 -18 -21 -2 3 29 11 14 20
33 20 42 0 9 15 47 34 85 18 37 45 91 58 119 37 77 47 90 230 303 16 19 25 37
20 40 -16 11 22 64 48 66 13 1 26 8 28 15 4 11 7 10 16 -2 6 -9 50 -40 96 -70z
m2750 -38 c-8 -5 -19 -10 -25 -10 -5 0 -3 5 5 10 8 5 20 10 25 10 6 0 3 -5 -5
-10z m864 -707 c16 -32 117 -287 139 -353 45 -131 94 -259 146 -375 82 -183
88 -220 26 -155 -16 17 -35 30 -42 30 -8 0 -12 4 -8 9 6 10 -65 71 -105 90
-24 11 -24 11 -5 -4 11 -9 39 -29 63 -46 23 -16 40 -34 37 -38 -4 -7 55 -57
114 -98 2 -2 2 -5 0 -8 -7 -7 -134 95 -132 106 2 5 -8 9 -22 9 -14 0 -28 7
-31 15 -4 8 -12 15 -20 15 -7 0 -28 15 -47 33 -18 17 -56 44 -83 60 -27 15
-83 49 -124 75 -172 110 -265 129 -499 100 -23 -3 -32 13 -140 255 -63 141
-112 259 -109 262 5 5 448 17 582 16 37 0 74 -5 81 -11 9 -8 15 -8 20 0 3 6
10 8 15 5 4 -3 13 2 20 10 7 8 15 13 19 11 4 -3 13 -1 21 5 31 19 69 10 84
-18z m-5602 8 c-7 -4 -17 -23 -22 -42 -4 -19 -11 -42 -15 -51 -5 -14 -2 -18
12 -18 30 0 54 22 43 40 -8 13 -10 12 -10 -2 0 -10 -4 -18 -8 -18 -10 0 -13
25 -6 56 5 27 27 36 59 24 16 -6 25 -6 25 0 0 21 32 -5 46 -39 9 -20 18 -30
21 -23 3 7 -1 19 -7 28 -16 19 -13 22 30 24 49 3 87 -1 73 -7 -13 -5 -18 -33
-6 -33 3 0 15 8 25 17 18 16 46 19 113 14 17 -1 129 -2 250 -2 120 0 221 -2
223 -4 3 -2 -7 -28 -20 -57 -82 -175 -166 -386 -157 -395 4 -4 4 -14 0 -22 -7
-11 -21 -6 -67 22 -88 54 -158 67 -264 49 -93 -15 -204 -57 -273 -103 -51 -34
-150 -129 -222 -213 -81 -95 -92 -106 -102 -106 -6 0 -17 -8 -24 -17 -13 -17
-12 -17 6 -3 17 12 18 12 7 0 -7 -8 -20 -15 -29 -15 -9 0 -21 -8 -27 -19 -6
-10 -20 -28 -31 -40 -11 -11 -32 -37 -47 -56 -23 -30 -26 -31 -21 -11 5 19 3
22 -8 15 -21 -13 47 71 89 110 20 18 64 57 97 86 66 59 105 98 105 106 0 7
-73 -51 -90 -71 -7 -8 -17 -15 -23 -15 -6 0 0 11 13 25 13 14 19 25 13 25 -14
0 -44 -35 -41 -48 2 -6 -27 -39 -63 -74 l-66 -63 18 65 c23 89 42 139 93 245
23 49 59 135 80 190 83 219 185 435 205 435 13 0 13 -2 3 -9z m1416 -363 c199
-204 299 -329 421 -523 65 -104 154 -280 166 -328 10 -37 -6 -35 -80 9 -157
95 -300 240 -412 419 -66 104 -233 488 -233 535 0 23 24 4 138 -112z m1433 80
c12 -29 114 -217 218 -399 l31 -56 -32 -25 c-18 -14 -43 -30 -55 -36 -49 -26
-51 -33 -37 -134 19 -134 34 -288 40 -403 4 -90 13 -195 30 -368 l6 -57 -51
26 c-28 15 -51 30 -51 33 0 4 -24 7 -53 8 -30 0 -64 6 -76 13 -13 6 -35 13
-51 15 -54 7 -180 48 -180 59 0 28 32 271 59 456 30 201 38 309 24 311 -27 2
-45 10 -81 33 -23 14 -42 28 -42 31 0 13 45 95 52 95 4 0 8 4 8 10 0 21 157
323 171 328 5 2 9 10 9 18 0 8 5 14 11 14 6 0 9 6 6 13 -5 14 10 47 22 47 5 0
15 -15 22 -32z m1474 0 c-25 -85 -126 -331 -171 -419 -102 -195 -249 -363
-410 -468 -44 -28 -84 -55 -91 -61 -7 -5 -17 -10 -23 -10 -13 0 -13 27 0 35 6
3 10 12 10 20 0 8 5 26 12 42 6 15 12 30 12 33 4 19 118 219 167 293 107 159
171 241 291 371 35 37 50 48 56 38 7 -10 12 -9 23 4 12 16 12 17 -3 11 -10 -3
-18 -2 -18 3 0 9 15 14 33 11 5 -1 6 2 3 7 -3 5 10 24 29 42 19 19 35 29 35
23 0 -6 -11 -22 -25 -36 -14 -14 -22 -28 -18 -30 14 -9 28 5 59 60 32 58 39
65 29 31z m-3870 -348 c3 -5 28 -21 55 -36 53 -29 63 -49 30 -59 -20 -6 -20
-8 6 -38 15 -18 58 -56 95 -85 38 -29 69 -59 69 -67 0 -8 7 -11 18 -9 9 3 29
-6 44 -21 15 -14 32 -25 38 -25 6 0 13 -7 16 -15 4 -8 12 -15 18 -15 7 0 28
-11 47 -26 19 -14 63 -39 99 -56 36 -18 85 -46 110 -62 25 -17 78 -48 118 -69
114 -60 144 -84 159 -125 13 -39 11 -53 -18 -117 -10 -22 -36 -88 -58 -148
-22 -59 -52 -130 -66 -158 -14 -28 -25 -62 -25 -75 0 -29 2 -29 -96 -3 -43 11
-88 22 -100 25 -11 2 -56 13 -100 24 -43 11 -94 20 -111 20 -18 0 -33 5 -33
10 0 6 -6 10 -12 9 -14 -3 -87 16 -129 32 -14 6 -40 11 -58 11 -17 1 -31 6
-31 11 0 6 -2 8 -5 5 -7 -6 -80 8 -110 21 -11 5 -42 16 -70 26 -59 20 -72 25
-236 105 -131 62 -301 169 -378 237 l-44 39 17 32 c9 18 20 31 24 28 4 -2 8 6
8 18 3 43 97 170 212 287 65 66 122 117 129 114 7 -2 48 15 91 39 43 24 99 53
125 65 43 20 68 41 31 27 -10 -4 -14 -1 -12 6 8 23 120 39 133 18z m-145 -25
c0 -2 -9 -9 -20 -15 -16 -9 -20 -8 -20 5 0 8 9 15 20 15 11 0 20 -2 20 -5z
m-63 -28 c-117 -77 -150 -97 -154 -94 -8 9 141 107 162 106 6 0 2 -6 -8 -12z
m5092 -10 c19 -7 36 -18 39 -25 3 -9 -2 -10 -22 -2 -29 11 -32 -5 -6 -28 13
-11 10 -13 -19 -8 -19 3 -40 14 -47 24 -12 16 -13 16 -19 -1 -6 -13 -10 -15
-21 -6 -19 16 -84 23 -84 10 0 -6 19 -12 43 -12 32 -2 35 -3 12 -6 -65 -8 -73
-12 -71 -37 1 -22 6 -24 76 -29 41 -4 102 -15 135 -27 108 -37 541 -275 634
-349 l24 -19 -22 -28 c-35 -45 -246 -276 -372 -409 -92 -97 -247 -245 -256
-245 -4 0 -26 -17 -49 -38 -22 -20 -76 -66 -120 -102 -43 -35 -81 -67 -84 -71
-3 -4 -70 -57 -149 -118 -102 -78 -148 -108 -156 -101 -7 6 -17 35 -23 65 -16
79 -52 142 -120 212 -44 44 -76 67 -117 82 -30 12 -62 21 -70 21 -9 0 -12 6
-9 18 5 15 4 15 -5 1 -12 -19 -62 -20 -69 -1 -2 6 3 12 11 12 15 0 90 92 107
132 5 13 17 34 26 48 l16 25 -21 -25 c-45 -52 -117 -134 -143 -164 -15 -17
-28 -26 -28 -21 0 6 10 21 23 35 85 94 191 236 337 454 41 61 92 134 113 161
21 28 63 88 93 135 30 47 66 100 80 117 33 42 64 102 64 125 0 10 9 27 19 37
15 15 18 26 12 48 -4 15 -11 26 -16 23 -4 -3 -12 5 -16 18 -7 18 -5 24 9 28 9
3 26 10 37 14 91 40 163 48 224 27z m-3525 -787 c71 -11 140 -27 155 -34 67
-37 146 -66 149 -56 2 5 7 8 12 5 5 -3 23 -7 41 -9 33 -4 45 -14 114 -100 40
-51 45 -58 45 -79 0 -22 -39 -77 -55 -77 -6 0 -17 -16 -24 -36 -7 -20 -26 -50
-42 -67 -16 -16 -29 -34 -29 -38 0 -12 -167 -179 -179 -179 -5 0 -16 -7 -25
-15 -8 -9 -47 -31 -86 -51 -38 -19 -70 -36 -70 -39 0 -2 7 -1 17 2 11 4 14 3
9 -5 -4 -7 -17 -10 -30 -6 -18 4 -25 1 -29 -15 -3 -14 -13 -21 -30 -21 -14 0
-29 -4 -32 -10 -3 -5 -18 -10 -33 -10 -22 0 -24 2 -12 11 12 8 9 9 -12 5 -24
-5 -28 -3 -28 15 0 12 -3 19 -6 16 -4 -3 -15 -2 -26 4 -11 6 -22 8 -25 5 -3
-3 6 -10 21 -15 23 -10 37 -31 19 -31 -13 1 -53 37 -53 48 0 5 -11 13 -25 16
-14 4 -24 12 -22 18 1 6 -10 18 -25 25 -16 8 -28 20 -28 27 0 8 -7 19 -16 27
-28 23 -45 68 -59 157 -23 139 -20 167 26 263 22 46 56 107 74 134 55 83 135
149 170 141 11 -3 78 -14 149 -26z m881 -327 c43 -8 133 -32 200 -54 66 -21
179 -52 250 -69 316 -75 380 -99 368 -140 -4 -12 -1 -11 10 2 26 32 26 6 1
-45 -46 -90 -96 -158 -113 -153 -9 2 -38 7 -66 11 -27 4 -102 19 -165 35 -63
16 -144 34 -180 40 -36 6 -101 20 -145 31 -44 12 -141 32 -215 44 -121 21
-138 22 -163 8 -34 -17 -42 -13 -24 12 11 14 27 17 88 17 58 0 68 1 45 8 -17
5 -49 10 -73 12 -51 2 -52 5 -23 115 45 172 36 155 83 148 23 -3 78 -13 122
-22z m1707 -319 c32 -16 48 -37 21 -27 -22 7 -12 -3 41 -42 22 -16 36 -22 31
-14 -5 8 2 5 14 -6 28 -24 53 -70 43 -79 -3 -4 -1 -11 6 -15 16 -10 49 -126
58 -202 10 -90 0 -119 -75 -217 -77 -99 -156 -171 -279 -255 -84 -57 -125 -69
-146 -44 -6 8 -31 21 -56 31 -66 25 -92 49 -84 80 3 14 10 26 14 26 4 0 20 19
35 43 16 23 36 54 46 68 27 40 44 202 29 275 -7 32 -14 70 -15 84 -2 28 -27
80 -59 125 -68 94 39 182 222 183 40 0 76 3 79 6 8 7 37 -1 75 -20z m-3100
-211 c14 -16 29 -38 33 -50 7 -25 24 -31 26 -10 0 10 2 10 6 0 2 -7 13 -13 24
-13 10 0 19 -7 19 -15 0 -8 7 -15 15 -15 9 0 27 -11 41 -25 14 -14 31 -25 39
-25 8 0 39 -16 70 -35 50 -33 57 -34 77 -21 21 13 111 39 382 111 54 14 105
24 114 20 8 -3 37 2 63 10 27 9 53 14 58 11 5 -4 11 -2 13 3 1 5 64 24 138 41
148 35 146 35 375 1 77 -11 232 -34 345 -51 243 -35 371 -59 384 -71 6 -5 20
-9 33 -9 13 0 23 -6 23 -12 0 -9 3 -8 10 2 7 12 12 12 22 2 6 -6 29 -12 50
-12 26 0 38 -4 38 -14 0 -21 13 -26 83 -34 l62 -7 -3 -94 c-4 -126 -7 -131
-87 -131 -51 0 -65 3 -65 15 0 8 -5 15 -11 15 -5 0 -7 -4 -4 -10 9 -15 -71
-12 -156 5 -169 35 -220 47 -215 52 4 4 59 -5 144 -23 12 -2 22 -1 22 4 0 9
-123 32 -225 42 -38 4 -61 8 -50 9 l20 2 -20 9 c-11 5 -29 8 -40 8 -17 0 -17
-1 -2 -5 9 -2 17 -8 17 -12 0 -10 -71 -4 -123 10 -20 5 -54 7 -74 3 -20 -4
-34 -3 -31 2 3 5 -18 10 -48 11 -35 1 -66 9 -88 22 -37 23 -46 25 -46 12 0 -5
8 -12 18 -14 9 -2 4 -3 -13 0 -16 2 -31 8 -33 13 -2 5 -10 6 -18 3 -7 -3 -27
0 -43 5 -17 6 -32 7 -38 1 -11 -11 -73 0 -73 13 0 5 10 7 23 3 17 -5 18 -4 6
4 -9 6 -35 7 -70 1 -353 -56 -527 -88 -625 -116 -28 -8 -60 -14 -71 -14 -11 0
-23 -3 -27 -7 -7 -8 -54 -20 -190 -48 -49 -11 -73 -12 -82 -5 -18 15 -84 129
-84 144 0 8 -7 19 -15 26 -9 7 -14 19 -11 27 3 7 1 13 -3 13 -13 0 -56 73 -53
89 2 7 -1 10 -7 6 -6 -3 -11 0 -11 8 0 7 -17 30 -37 51 -24 23 -38 47 -39 66
-3 37 5 38 38 3z m1326 -538 c13 -55 56 -266 73 -360 6 -33 19 -103 30 -155
10 -52 20 -108 23 -125 2 -16 11 -66 19 -110 8 -44 21 -114 27 -155 7 -41 16
-84 20 -95 7 -18 9 -18 19 8 6 16 11 37 11 48 0 12 4 17 11 13 8 -4 9 1 4 16
-4 13 -3 20 2 17 5 -3 9 11 10 31 1 45 21 139 36 167 12 24 20 90 19 163 -1
28 2 52 7 52 4 0 6 20 5 44 -1 25 2 60 6 78 5 18 19 87 30 153 12 66 28 151
37 189 l15 69 58 -6 c96 -10 107 -19 119 -96 14 -83 26 -190 47 -401 8 -90 18
-168 20 -172 4 -7 34 -231 34 -259 0 -16 -57 -86 -130 -159 -25 -25 -61 -65
-80 -90 -19 -25 -41 -49 -50 -54 -37 -23 -118 -117 -148 -173 -32 -60 -34 -62
-65 -56 -49 9 -67 21 -61 41 5 13 4 14 -4 3 -11 -15 -36 -5 -26 10 7 12 -35
61 -46 54 -4 -3 -13 2 -20 10 -7 8 -9 15 -5 15 4 0 -69 79 -164 175 -94 96
-172 183 -172 193 -2 31 7 101 25 191 8 36 14 90 15 120 1 29 3 57 6 61 2 4 6
31 9 61 5 61 11 101 31 209 7 41 19 125 26 185 7 61 16 115 21 122 12 15 42
21 98 19 l45 -1 13 -50z"/>
<path d="M5107 9003 c-11 -10 -8 -43 3 -43 6 0 10 11 10 25 0 26 -2 29 -13 18z"/>
<path d="M5101 8918 c-9 -24 -8 -33 1 -39 9 -6 9 -11 -1 -23 -7 -8 -11 -21 -8
-28 2 -7 0 -24 -5 -38 -8 -22 -29 -125 -42 -205 -15 -98 -19 -121 -26 -130 -4
-5 -11 -57 -15 -115 -3 -58 -7 -115 -8 -126 -2 -19 55 -74 111 -108 8 -4 35 9
72 36 59 43 60 43 55 85 -2 24 -7 53 -10 65 -3 13 -12 73 -19 133 -8 61 -31
193 -50 294 -25 131 -32 189 -25 198 11 12 4 33 -11 33 -4 0 -13 -14 -19 -32z"/>
<path d="M5370 8800 c0 -11 4 -20 9 -20 5 0 7 9 4 20 -3 11 -7 20 -9 20 -2 0
-4 -9 -4 -20z"/>
<path d="M5397 8550 c3 -11 7 -20 9 -20 2 0 4 9 4 20 0 11 -4 20 -9 20 -5 0
-7 -9 -4 -20z"/>
<path d="M4675 8030 c3 -5 11 -10 16 -10 6 0 7 5 4 10 -3 6 -11 10 -16 10 -6
0 -7 -4 -4 -10z"/>
<path d="M4469 7790 c18 -17 38 -30 44 -30 5 0 -7 14 -28 30 -49 39 -60 39
-16 0z"/>
<path d="M4560 7726 c0 -3 9 -10 20 -16 11 -6 20 -8 20 -6 0 3 -9 10 -20 16
-11 6 -20 8 -20 6z"/>
<path d="M4130 7116 c0 -14 32 -77 37 -72 6 5 -24 76 -32 76 -3 0 -5 -2 -5 -4z"/>
<path d="M5375 5810 c-3 -5 1 -10 9 -10 8 0 18 5 21 10 3 6 -1 10 -9 10 -8 0
-18 -4 -21 -10z"/>
<path d="M4127 5834 c6 -17 17 -18 31 -1 8 9 4 12 -13 13 -16 1 -22 -2 -18
-12z"/>
<path d="M7852 5094 c-7 -8 -12 -29 -10 -46 3 -27 7 -32 31 -34 30 -1 31 7 7
71 -11 29 -11 29 -28 9z m18 -36 c0 -19 -2 -20 -10 -8 -13 19 -13 30 0 30 6 0
10 -10 10 -22z"/>
<path d="M7681 5067 c-9 -12 -8 -16 5 -21 27 -10 56 -7 51 7 -2 6 -10 11 -17
9 -7 -2 -16 2 -20 8 -5 8 -10 7 -19 -3z"/>
<path d="M7796 5054 c-7 -18 0 -34 15 -34 12 0 12 37 0 44 -5 3 -12 -1 -15
-10z"/>
<path d="M7755 5051 c-3 -5 -1 -12 5 -16 5 -3 10 1 10 9 0 18 -6 21 -15 7z"/>
<path d="M2375 5043 c3 -8 5 -19 5 -24 0 -6 9 -5 21 1 25 14 20 33 -10 35 -15
1 -20 -3 -16 -12z"/>
<path d="M2460 5050 c0 -5 5 -10 10 -10 6 0 10 5 10 10 0 6 -4 10 -10 10 -5 0
-10 -4 -10 -10z"/>
<path d="M2346 5031 c-4 -7 -5 -15 -2 -18 9 -9 19 4 14 18 -4 11 -6 11 -12 0z"/>
<path d="M2558 4663 c7 -3 16 -2 19 1 4 3 -2 6 -13 5 -11 0 -14 -3 -6 -6z"/>
<path d="M2495 4650 c-8 -13 5 -13 25 0 13 8 13 10 -2 10 -9 0 -20 -4 -23 -10z"/>
<path d="M2406 4611 c-4 -5 3 -7 14 -4 23 6 26 13 6 13 -8 0 -17 -4 -20 -9z"/>
<path d="M2288 4533 c-23 -21 -48 -45 -55 -53 -7 -8 -13 -11 -13 -7 0 11 -79
-45 -109 -77 -37 -39 -18 -31 31 14 51 46 65 51 41 13 l-17 -28 22 19 c13 11
20 26 18 33 -4 8 0 13 8 11 14 -3 131 101 122 109 -2 2 -24 -13 -48 -34z"/>
<path d="M5138 3423 c7 -3 16 -2 19 1 4 3 -2 6 -13 5 -11 0 -14 -3 -6 -6z"/>
<path d="M5280 3399 c0 -5 5 -7 10 -4 6 3 10 8 10 11 0 2 -4 4 -10 4 -5 0 -10
-5 -10 -11z"/>
<path d="M7523 4393 c9 -2 23 -2 30 0 6 3 -1 5 -18 5 -16 0 -22 -2 -12 -5z"/>
<path d="M7590 4390 c0 -5 7 -10 16 -10 8 0 12 5 9 10 -3 6 -10 10 -16 10 -5
0 -9 -4 -9 -10z"/>
<path d="M7406 4354 c-24 -23 -19 -27 9 -8 14 9 25 18 25 20 0 10 -20 3 -34
-12z"/>
<path d="M7450 4252 c0 -7 -6 -12 -13 -12 -7 0 -18 -10 -26 -21 -29 -47 -50
-89 -45 -89 20 0 101 116 89 128 -3 3 -5 0 -5 -6z"/>
<path d="M6790 3258 c0 -6 -7 -19 -16 -29 -10 -11 -12 -19 -5 -24 6 -3 16 6
21 21 6 15 13 31 16 35 3 5 0 9 -5 9 -6 0 -11 -5 -11 -12z"/>
<path d="M6960 3101 c0 -6 4 -13 10 -16 6 -3 7 1 4 9 -7 18 -14 21 -14 7z"/>
<path d="M7020 3023 c21 -44 30 -53 30 -30 0 6 -12 26 -25 42 l-26 30 21 -42z"/>
<path d="M4510 3463 c0 -13 91 -105 98 -99 2 3 -19 28 -47 57 -28 28 -51 47
-51 42z"/>
<path d="M4564 3343 c2 -19 10 -29 22 -30 10 -2 13 0 7 3 -7 3 -13 14 -13 24
0 10 -4 21 -9 25 -5 3 -8 -7 -7 -22z"/>
<path d="M4045 2830 c-3 -5 -2 -10 4 -10 5 0 13 5 16 10 3 6 2 10 -4 10 -5 0
-13 -4 -16 -10z"/>
<path d="M4005 2810 c-3 -5 1 -10 9 -10 9 0 16 5 16 10 0 6 -4 10 -9 10 -6 0
-13 -4 -16 -10z"/>
<path d="M4928 3023 c7 -3 16 -2 19 1 4 3 -2 6 -13 5 -11 0 -14 -3 -6 -6z"/>
<path d="M5685 2860 c28 -12 45 -12 45 0 0 6 -15 10 -32 9 -28 0 -30 -2 -13
-9z"/>
<path d="M4405 2670 c-16 -7 -17 -9 -3 -9 9 -1 20 4 23 9 7 11 7 11 -20 0z"/>
<path d="M3710 2635 c0 -2 15 -12 33 -20 l32 -16 -25 20 c-24 20 -40 26 -40
16z"/>
<path d="M3801 2577 c2 -1 13 -9 24 -17 19 -14 19 -14 6 3 -7 9 -18 17 -24 17
-6 0 -8 -1 -6 -3z"/>
<path d="M4988 2503 c7 -3 16 -2 19 1 4 3 -2 6 -13 5 -11 0 -14 -3 -6 -6z"/>
<path d="M5148 2473 c7 -3 16 -2 19 1 4 3 -2 6 -13 5 -11 0 -14 -3 -6 -6z"/>
<path d="M6065 2380 c3 -5 11 -10 16 -10 6 0 7 5 4 10 -3 6 -11 10 -16 10 -6
0 -7 -4 -4 -10z"/>
<path d="M6030 2340 c0 -5 12 -10 28 -9 24 0 25 1 7 9 -27 12 -35 12 -35 0z"/>
</g>
</svg>
