<?xml version="1.0" standalone="no"?>
<!DOCTYPE svg PUBLIC "-//W3C//DTD SVG 20010904//EN"
 "http://www.w3.org/TR/2001/REC-SVG-20010904/DTD/svg10.dtd">
<svg version="1.0" xmlns="http://www.w3.org/2000/svg"
 width="1024" height="1024" viewBox="0 0 1024 1024"
 preserveAspectRatio="xMidYMid meet">
  <rect width="1024" height="1024" fill="white"/>
<metadata>
Created by potrace 1.16, written by Peter Selinger 2001-2019
</metadata>
<g transform="translate(0.000000,1024.000000) scale(0.100000,-0.100000)"
fill="#000000" stroke="none">
<path d="M0 5120 l0 -5120 5120 0 5120 0 0 5120 0 5120 -5120 0 -5120 0 0
-5120z m5407 3248 c364 -421 563 -655 563 -662 0 -15 -258 -562 -465 -986
-231 -473 -287 -590 -281 -590 2 0 145 69 319 154 375 184 564 274 1037 493
195 91 360 167 365 170 25 13 -434 -423 -1095 -1042 -135 -126 -353 -336 -485
-466 l-240 -238 -85 87 c-75 77 -392 379 -694 662 -56 52 -270 253 -476 445
-205 193 -422 395 -482 449 -59 55 -107 101 -105 102 1 2 50 -20 107 -48 58
-27 339 -159 625 -293 286 -133 630 -295 764 -359 135 -64 246 -114 248 -112
2 2 -118 255 -268 562 -350 722 -482 1002 -476 1017 3 7 97 116 208 242 111
127 299 341 417 478 118 136 218 247 222 247 3 0 128 -141 277 -312z m2622
-1834 c-105 -307 -242 -716 -306 -909 -63 -192 -192 -582 -287 -865 -95 -283
-226 -680 -291 -883 l-119 -367 -175 -96 c-719 -395 -1094 -717 -1416 -1219
-66 -102 -229 -384 -275 -475 l-31 -62 -108 194 c-287 515 -504 785 -850 1057
-243 190 -451 322 -783 495 l-168 87 -115 357 c-64 196 -201 614 -305 927
-104 314 -252 764 -329 1000 -76 237 -206 629 -289 873 -107 319 -145 441
-133 437 21 -8 423 -243 631 -368 378 -228 848 -537 985 -648 140 -113 410
-347 519 -450 109 -104 471 -479 637 -660 l105 -116 44 -209 c24 -115 68 -335
100 -489 l56 -280 33 165 c18 91 62 308 96 483 l64 318 68 77 c418 473 732
783 1143 1127 113 95 567 401 905 611 329 205 778 465 783 454 1 -4 -83 -258
-189 -566z"/>
<path d="M4990 7673 c-73 -98 -143 -190 -156 -204 l-25 -26 157 -314 157 -314
154 312 154 312 -155 206 -154 206 -132 -178z"/>
<path d="M3032 5809 c3 -8 56 -169 117 -359 298 -919 514 -1548 538 -1570 4
-4 73 -42 153 -85 174 -92 351 -207 560 -363 165 -124 272 -222 410 -375 47
-52 86 -94 88 -93 1 2 -54 225 -122 497 -241 954 -242 958 -277 1008 -178 254
-704 764 -1104 1072 -284 219 -368 281 -363 268z"/>
<path d="M7065 5708 c-326 -235 -564 -439 -899 -768 -203 -200 -324 -333 -412
-456 -54 -75 -70 -130 -269 -926 -80 -320 -148 -592 -151 -603 -6 -22 0 -16
160 163 180 203 556 485 936 702 80 45 147 84 149 86 15 13 300 861 475 1419
75 237 141 441 146 454 6 13 9 25 8 27 -2 1 -66 -43 -143 -98z"/>
</g>
</svg>
