<?xml version="1.0" standalone="no"?>
<!DOCTYPE svg PUBLIC "-//W3C//DTD SVG 20010904//EN"
 "http://www.w3.org/TR/2001/REC-SVG-20010904/DTD/svg10.dtd">
<svg version="1.0" xmlns="http://www.w3.org/2000/svg"
 width="1024" height="1024" viewBox="0 0 1024 1024"
 preserveAspectRatio="xMidYMid meet">
  <rect width="1024" height="1024" fill="white"/>
<metadata>
Created by potrace 1.16, written by Peter Selinger 2001-2019
</metadata>
<g transform="translate(0.000000,1024.000000) scale(0.100000,-0.100000)"
fill="#000000" stroke="none">
<path d="M0 5120 l0 -5120 5120 0 5120 0 0 5120 0 5120 -5120 0 -5120 0 0
-5120z m5288 3825 c71 -99 160 -225 198 -280 39 -55 130 -183 204 -285 203
-283 390 -550 396 -564 2 -6 -26 -46 -63 -87 -381 -419 -748 -921 -1094 -1495
-88 -148 -185 -303 -215 -345 -30 -43 -54 -80 -54 -84 0 -11 199 0 675 35 619
46 960 69 963 65 2 -2 -20 -32 -50 -67 -29 -35 -156 -200 -283 -368 -126 -168
-295 -388 -375 -490 -196 -249 -342 -450 -327 -450 2 0 35 11 73 24 99 35 316
88 554 136 113 23 257 55 320 72 168 45 170 45 170 15 0 -30 -342 -462 -600
-757 -175 -200 -650 -835 -733 -979 -30 -53 -120 -207 -200 -342 l-144 -247
84 -123 c47 -68 125 -185 175 -259 114 -170 147 -212 160 -204 16 10 442 656
462 702 11 23 24 42 31 42 6 0 22 -19 35 -42 13 -24 76 -124 140 -223 64 -99
122 -190 128 -201 10 -19 -4 -43 -131 -215 -252 -342 -629 -843 -652 -868
l-23 -24 -34 48 c-18 27 -60 83 -94 124 -106 132 -588 743 -641 813 l-51 66
117 234 c65 128 139 287 165 353 26 66 83 203 126 305 43 102 110 262 148 355
81 195 191 440 283 633 36 72 61 132 58 132 -4 0 -36 -11 -71 -24 -36 -14
-141 -45 -234 -71 -208 -57 -365 -108 -441 -142 -64 -28 -234 -93 -245 -93 -4
0 26 57 66 128 162 284 371 688 544 1052 33 69 87 172 120 230 32 58 58 106
57 108 -4 5 -223 -26 -445 -63 -113 -19 -266 -44 -340 -55 -451 -66 -546 -81
-558 -85 -16 -6 -18 -10 80 137 43 65 135 213 205 330 69 117 181 299 248 403
67 105 203 318 303 475 99 157 223 343 276 415 53 71 96 133 96 138 0 10 -75
98 -205 242 -50 55 -170 190 -267 300 -97 110 -192 216 -212 234 -20 19 -36
39 -36 43 0 16 102 161 315 448 116 157 260 353 320 435 59 83 165 226 234
318 l125 168 18 -23 c10 -13 76 -104 146 -203z m-3413 -485 c176 -123 392
-273 480 -334 88 -60 318 -225 510 -366 193 -141 393 -285 445 -320 123 -83
860 -608 883 -629 17 -16 14 -21 -47 -107 -35 -49 -89 -129 -119 -179 -30 -49
-61 -90 -68 -89 -16 1 -404 269 -630 435 -237 174 -708 527 -761 572 -27 21
-48 37 -48 34 0 -8 226 -509 337 -747 177 -377 267 -575 333 -730 34 -80 84
-194 111 -253 27 -60 49 -112 49 -117 0 -4 -78 -48 -172 -97 -233 -121 -728
-418 -728 -437 0 -5 190 -120 400 -241 263 -152 587 -347 766 -462 78 -50 160
-101 183 -112 22 -12 41 -23 41 -25 0 -2 -17 -34 -38 -72 -52 -95 -116 -236
-144 -316 -12 -38 -28 -68 -35 -68 -7 0 -54 39 -105 86 -98 90 -352 280 -486
364 -45 27 -143 83 -219 123 -76 41 -241 133 -368 205 -126 71 -288 163 -360
203 -71 40 -220 120 -330 177 -110 57 -206 110 -214 117 -11 11 -5 18 40 41
30 14 72 39 94 54 22 15 164 98 315 185 281 162 611 357 733 434 58 37 67 46
61 65 -10 32 -240 546 -334 746 -126 267 -235 505 -508 1100 -391 852 -452
983 -473 1018 -10 18 -19 35 -19 38 0 3 24 -13 53 -34 28 -22 196 -140 372
-262z m6870 210 c-38 -75 -173 -371 -355 -775 -59 -132 -147 -323 -195 -425
-48 -102 -164 -351 -257 -555 -94 -203 -196 -426 -228 -495 -31 -69 -82 -181
-113 -250 -30 -69 -76 -170 -101 -224 -26 -55 -45 -105 -42 -112 5 -13 193
-131 501 -314 105 -62 301 -182 437 -267 136 -84 251 -153 256 -153 4 0 17 -6
27 -14 18 -13 10 -18 -95 -71 -118 -59 -627 -341 -850 -470 -236 -137 -435
-253 -569 -331 -139 -82 -377 -249 -446 -314 -55 -51 -206 -173 -210 -168 -1
1 -6 132 -10 290 -7 285 -7 286 14 293 12 3 96 57 189 119 212 143 700 440
822 501 63 31 260 150 260 156 0 23 -250 172 -695 416 -104 58 -194 108 -199
113 -5 5 11 46 37 97 25 48 72 149 105 223 33 74 99 218 147 320 48 102 118
255 155 340 186 428 352 805 370 840 11 22 20 42 20 45 0 3 -80 -55 -177 -130
-439 -335 -619 -469 -763 -570 -85 -60 -207 -148 -270 -195 -166 -125 -471
-332 -478 -325 -4 3 2 74 11 158 10 84 23 197 28 252 6 55 16 111 23 125 19
40 226 200 721 557 775 559 1060 763 1235 883 107 73 287 199 400 279 318 225
325 230 328 226 2 -2 -13 -35 -33 -75z m-2412 -5618 c89 -59 271 -177 404
-262 134 -85 243 -157 243 -160 0 -6 -977 -486 -1007 -495 -13 -3 -23 -4 -23
0 0 3 43 216 95 473 53 257 98 481 101 497 8 42 12 55 19 55 4 0 79 -48 168
-108z m-2247 37 c50 -166 106 -492 129 -755 19 -212 19 -197 -6 -189 -11 4
-237 114 -501 245 l-480 237 29 20 c15 12 174 109 353 218 179 108 352 214
385 235 33 21 64 37 69 36 5 -1 15 -22 22 -47z"/>
<path d="M5041 8343 c-41 -59 -139 -200 -219 -312 -134 -188 -144 -205 -132
-225 7 -11 48 -64 90 -116 42 -52 133 -168 202 -256 l125 -162 64 76 c35 42
139 168 231 280 l167 204 -44 56 c-47 62 -378 516 -398 545 -11 16 -20 6 -86
-90z"/>
</g>
</svg>
