<?xml version="1.0" standalone="no"?>
<!DOCTYPE svg PUBLIC "-//W3C//DTD SVG 20010904//EN"
 "http://www.w3.org/TR/2001/REC-SVG-20010904/DTD/svg10.dtd">
<svg version="1.0" xmlns="http://www.w3.org/2000/svg"
 width="1024" height="1024" viewBox="0 0 1024 1024"
 preserveAspectRatio="xMidYMid meet">
  <rect width="1024" height="1024" fill="white"/>
<metadata>
Created by potrace 1.16, written by Peter Selinger 2001-2019
</metadata>
<g transform="translate(0.000000,1024.000000) scale(0.100000,-0.100000)"
fill="#000000" stroke="none">
<path d="M0 5120 l0 -5120 5120 0 5120 0 0 5120 0 5120 -5120 0 -5120 0 0
-5120z m4785 3721 c182 -84 377 -173 435 -199 l105 -48 113 -149 c170 -226
300 -425 277 -425 -3 0 -47 28 -98 63 -219 150 -1232 637 -1325 637 -25 0
-384 -84 -705 -165 -73 -18 -133 -32 -135 -30 -5 4 168 287 192 313 28 32 79
44 421 102 165 28 307 53 315 55 37 9 96 -13 405 -154z m-802 -412 c35 -9 41
-17 96 -127 81 -161 201 -444 246 -580 l37 -113 -219 -222 c-290 -294 -532
-577 -588 -688 -26 -49 -83 -359 -134 -722 l-29 -199 18 -82 c30 -138 68 -283
115 -441 67 -225 91 -355 65 -355 -17 0 -174 227 -312 450 -85 138 -248 437
-310 569 l-49 105 21 95 c12 53 36 150 53 216 l31 120 116 125 c430 460 398
419 601 758 101 169 186 314 188 322 4 18 -20 190 -27 190 -3 0 -73 -44 -156
-99 -123 -80 -180 -110 -306 -160 -85 -34 -161 -65 -168 -70 -11 -6 -7 -28 18
-110 18 -56 30 -104 28 -106 -1 -1 -55 17 -118 41 -63 24 -180 57 -259 74
-201 42 -234 51 -247 64 -19 19 -56 137 -50 160 3 12 54 70 114 128 l108 105
-126 7 c-173 9 -197 14 -220 46 l-19 26 102 40 c90 34 385 196 706 388 l95 56
270 0 c158 0 287 -4 309 -11z m494 -45 c111 -5 153 -10 157 -20 19 -50 17
-365 -2 -364 -4 1 -29 30 -57 66 -27 36 -110 124 -182 195 -73 71 -133 132
-133 135 0 4 15 4 33 1 17 -3 100 -9 184 -13z m693 -323 c91 -54 255 -152 365
-217 110 -64 202 -118 203 -120 6 -4 21 -75 57 -279 53 -294 103 -544 136
-679 17 -65 28 -123 27 -128 -11 -31 -500 533 -576 663 -130 225 -445 854
-435 871 7 13 55 -11 223 -111z m-272 -680 c67 -142 122 -263 122 -269 0 -6
-226 -197 -502 -424 -574 -472 -664 -555 -725 -673 -52 -102 -85 -182 -108
-267 -10 -38 -21 -68 -25 -68 -4 0 -13 40 -19 89 -10 68 -10 112 -2 183 20
164 92 659 99 678 4 10 173 179 377 377 203 197 432 420 510 495 77 75 143
137 146 138 3 0 60 -116 127 -259z m-2049 -61 c81 -18 99 -27 200 -97 61 -42
111 -79 111 -82 0 -3 -24 -22 -53 -41 -28 -19 -96 -70 -150 -114 -82 -65 -101
-76 -111 -65 -7 8 -41 47 -76 87 l-63 73 6 92 c7 98 22 167 38 167 5 0 49 -9
98 -20z m2475 -532 c26 -11 109 -113 283 -348 55 -74 114 -147 129 -161 16
-15 202 -145 414 -290 638 -434 1021 -699 1095 -755 39 -29 189 -175 334 -324
158 -163 292 -291 333 -320 140 -98 310 -146 431 -121 114 23 187 75 235 166
24 44 27 61 27 145 0 85 -3 102 -31 160 -17 36 -53 88 -80 115 -46 47 -447
331 -769 545 -141 94 -246 184 -270 230 -18 35 -53 200 -61 291 -10 112 7 143
168 306 73 73 136 133 141 133 22 0 117 -293 117 -363 0 -12 -32 -70 -72 -129
l-71 -108 13 -43 c9 -26 32 -61 64 -92 28 -28 215 -160 416 -294 317 -213 377
-257 461 -340 139 -139 202 -271 215 -446 15 -200 -60 -353 -227 -464 -109
-73 -155 -85 -314 -86 -119 0 -151 3 -215 23 -114 36 -222 97 -300 169 -63 58
-336 369 -463 526 -26 33 -47 57 -47 55 0 -2 58 -166 128 -364 71 -197 162
-456 202 -575 l74 -216 208 -137 c114 -75 211 -142 215 -149 5 -7 67 -246 139
-532 l132 -520 -90 -162 c-50 -90 -91 -163 -93 -163 -5 0 -599 211 -602 214
-3 3 132 204 147 220 4 4 72 -6 149 -24 78 -18 144 -30 147 -28 2 3 -61 178
-142 389 -115 304 -152 391 -177 417 -26 27 -610 467 -939 707 l-69 50 -63
140 c-341 762 -431 957 -434 935 -2 -13 1 -75 8 -138 10 -96 9 -117 -2 -128
-15 -15 -203 -37 -418 -50 l-116 -7 -144 91 c-80 50 -197 126 -260 169 l-115
79 -6 184 c-6 163 -11 204 -43 345 -20 88 -46 198 -59 245 l-24 85 -15 -55
c-9 -30 -53 -185 -98 -344 -44 -159 -101 -354 -126 -434 -44 -141 -48 -149
-144 -287 -54 -78 -181 -251 -281 -386 -284 -379 -529 -725 -624 -878 l-86
-139 -132 -6 c-73 -3 -212 -7 -310 -9 l-179 -4 7 36 c3 20 28 82 54 137 l49
101 58 8 c61 7 316 53 320 58 3 4 91 286 123 397 111 388 244 949 326 1375 20
105 41 213 46 242 10 52 11 53 137 151 70 54 204 152 297 218 94 66 240 170
325 230 371 263 490 344 512 344 4 0 18 -5 32 -12z m-2074 -1789 c0 -6 29 -73
64 -148 36 -75 78 -172 94 -216 l29 -81 -97 -224 c-152 -355 -182 -403 -286
-468 -64 -40 -76 -54 -159 -179 l-90 -136 -80 7 c-44 3 -115 6 -157 6 -93 0
-90 -8 -45 139 l32 103 180 63 180 62 107 348 c58 191 130 435 160 541 29 107
56 194 60 194 5 0 8 -5 8 -11z m1930 -444 c146 -14 318 -28 383 -31 110 -7
141 -14 117 -29 -5 -3 -128 -19 -272 -36 -279 -32 -310 -32 -571 -4 -171 19
-172 20 -111 85 l49 52 70 -6 c39 -3 189 -17 335 -31z m655 -580 c71 -109 122
-173 232 -289 121 -127 159 -160 272 -235 l131 -88 -78 -99 c-43 -54 -159
-200 -257 -324 -98 -124 -181 -228 -184 -232 -12 -14 -378 90 -497 140 l-116
49 78 57 c43 31 85 54 94 51 24 -7 242 -45 260 -45 17 0 290 393 290 417 0 7
-69 61 -153 122 l-153 109 -28 89 c-15 48 -43 166 -62 262 l-34 175 27 38 26
39 31 -48 c17 -26 71 -111 121 -188z m-2904 -675 c672 -29 892 -40 997 -50
105 -11 18 24 1117 -453 336 -145 714 -308 840 -362 165 -70 253 -113 310
-153 115 -80 442 -325 562 -420 57 -45 105 -82 108 -82 3 0 -66 80 -153 178
-238 266 -305 346 -293 350 5 2 130 -24 278 -57 147 -33 430 -96 628 -140 198
-44 385 -89 415 -99 44 -16 1054 -514 1069 -528 2 -2 2 -6 0 -8 -2 -2 -518 -9
-1147 -15 l-1142 -11 -178 98 c-313 174 -1788 929 -1797 920 -4 -3 9 -22 198
-298 109 -159 197 -279 427 -580 44 -57 80 -108 80 -112 0 -5 -76 -8 -168 -8
-212 0 -241 8 -342 92 -87 73 -775 674 -868 759 -68 62 -35 49 -732 297 -107
39 -296 109 -419 156 -124 47 -226 84 -228 82 -2 -1 136 -211 306 -466 l309
-464 -25 -31 c-14 -16 -115 -121 -224 -233 l-199 -202 -582 2 -582 3 414 350
c227 193 418 353 424 357 27 18 -109 324 -262 590 -34 59 -62 112 -62 118 0 6
35 48 78 93 42 46 130 142 195 215 107 119 122 132 152 132 18 0 241 -9 496
-20z"/>
<path d="M3347 8195 c-59 -29 -110 -55 -113 -57 -2 -3 17 -34 43 -70 l48 -66
169 74 c162 71 190 87 183 109 -4 12 -164 64 -197 64 -14 0 -74 -24 -133 -54z"/>
</g>
</svg>
