<?xml version="1.0" standalone="no"?>
<!DOCTYPE svg PUBLIC "-//W3C//DTD SVG 20010904//EN"
 "http://www.w3.org/TR/2001/REC-SVG-20010904/DTD/svg10.dtd">
<svg version="1.0" xmlns="http://www.w3.org/2000/svg"
 width="1024" height="1024" viewBox="0 0 1024 1024"
 preserveAspectRatio="xMidYMid meet">
  <rect width="1024" height="1024" fill="white"/>
<metadata>
Created by potrace 1.16, written by Peter Selinger 2001-2019
</metadata>
<g transform="translate(0.000000,1024.000000) scale(0.100000,-0.100000)"
fill="#000000" stroke="none">
<path d="M0 5120 l0 -5120 5120 0 5120 0 0 5120 0 5120 -5120 0 -5120 0 0
-5120z m6969 4316 c6 -8 21 -60 32 -117 10 -57 35 -149 53 -204 40 -117 160
-380 189 -412 10 -12 45 -32 76 -44 31 -13 97 -44 147 -69 109 -56 254 -103
389 -125 147 -25 145 -24 145 -50 0 -26 -9 -30 -85 -41 -88 -12 -367 -104
-470 -156 -214 -107 -218 -110 -273 -217 -28 -53 -76 -161 -107 -241 -72 -181
-101 -240 -120 -240 -22 0 -74 83 -116 185 -21 52 -45 107 -54 124 -8 17 -30
71 -46 119 -63 176 -53 166 -251 259 -175 83 -352 141 -546 179 -17 4 -22 10
-20 27 2 18 13 24 58 32 30 6 65 16 77 23 12 6 32 12 45 12 58 0 195 46 338
114 85 41 165 78 178 83 46 17 155 250 243 516 43 131 81 242 84 248 9 13 21
11 34 -5z m-1993 -1668 c21 -35 49 -79 63 -98 67 -91 218 -280 261 -325 70
-75 142 -172 138 -187 -2 -7 -71 -148 -155 -314 -132 -262 -158 -306 -202
-347 -50 -47 -50 -47 -122 -47 -44 0 -84 6 -104 16 -81 38 -292 306 -471 598
-30 48 -54 90 -54 92 0 2 35 44 78 92 97 110 140 163 231 282 90 117 260 297
283 299 10 1 31 -22 54 -61z m2447 -365 c-45 -92 -84 -179 -88 -193 -5 -14
-32 -77 -62 -140 -30 -63 -75 -164 -100 -225 -82 -199 -287 -609 -314 -626
-13 -9 -114 -45 -224 -81 -244 -80 -661 -214 -695 -223 -22 -6 -82 -31 -130
-55 -8 -4 -40 -78 -71 -166 -30 -87 -85 -233 -121 -324 -36 -91 -107 -271
-157 -400 -51 -129 -108 -268 -128 -309 -41 -82 -91 -141 -120 -141 -31 0
-549 539 -671 699 -56 74 -114 142 -128 152 -14 9 -67 55 -118 102 l-93 86
-79 -82 c-44 -45 -135 -147 -204 -227 -68 -80 -186 -208 -261 -285 -74 -77
-141 -149 -147 -161 -10 -18 -8 -23 13 -32 41 -19 30 -48 -55 -147 -86 -99
-336 -338 -464 -445 -43 -36 -108 -90 -145 -121 -59 -51 -104 -86 -266 -208
-27 -21 -78 -66 -112 -100 -61 -61 -98 -76 -109 -46 -3 8 6 34 20 57 80 131
372 595 441 703 29 44 64 103 78 131 25 49 74 124 190 290 31 45 102 173 158
285 56 112 130 252 165 310 35 59 64 110 64 114 0 21 225 417 249 439 9 8 88
36 176 61 88 26 238 71 333 101 254 80 291 75 418 -51 38 -38 110 -97 160
-130 49 -33 109 -77 134 -99 97 -86 82 -83 122 -24 47 70 89 151 146 278 61
135 103 192 167 225 69 35 383 111 584 141 185 27 374 60 438 76 39 10 42 12
36 39 -7 37 11 38 49 2 15 -15 28 -22 28 -17 0 6 34 62 76 125 42 63 113 191
159 284 46 94 96 182 112 197 16 15 71 49 123 76 52 27 139 77 193 111 54 34
108 66 120 71 12 5 54 29 92 54 60 39 72 43 84 31 13 -12 4 -37 -66 -182z
m-2738 -2844 c27 -37 90 -124 140 -194 49 -70 115 -155 145 -188 71 -78 100
-120 100 -144 0 -10 -22 -63 -49 -118 -28 -55 -91 -190 -142 -300 -50 -110
-132 -281 -181 -380 -93 -186 -136 -279 -219 -474 -26 -62 -77 -166 -112 -230
-81 -145 -115 -213 -158 -321 -19 -47 -49 -110 -67 -140 -32 -54 -62 -136 -62
-171 0 -31 -57 -85 -199 -191 -75 -56 -151 -113 -170 -127 -18 -14 -75 -57
-126 -96 -52 -38 -117 -88 -147 -111 -29 -22 -146 -107 -260 -188 -114 -81
-237 -175 -275 -210 -77 -71 -112 -96 -131 -96 -27 0 -23 32 10 82 19 29 63
109 96 178 34 69 73 145 87 170 14 25 79 162 146 305 67 143 179 375 249 515
70 140 149 302 175 360 26 58 60 125 76 150 15 25 35 66 44 90 24 68 70 166
128 270 20 36 56 110 80 165 25 55 78 161 118 235 41 74 94 178 118 230 25 52
93 194 151 315 59 121 131 270 160 330 29 61 75 144 101 185 27 42 58 97 69
124 15 32 27 46 38 44 9 -2 39 -33 67 -69z m968 -81 c30 -51 78 -136 108 -188
29 -52 77 -132 106 -178 29 -45 78 -128 109 -185 31 -56 78 -138 104 -182 26
-44 68 -118 92 -165 182 -345 344 -639 391 -709 16 -24 64 -111 107 -195 42
-83 118 -228 168 -323 50 -95 107 -210 128 -255 20 -46 68 -140 106 -210 38
-69 84 -163 103 -207 18 -45 54 -116 78 -159 24 -42 64 -113 87 -157 80 -149
172 -300 248 -405 42 -58 76 -114 76 -125 1 -33 -32 -29 -97 13 -56 36 -102
61 -252 142 -27 14 -124 66 -215 115 -91 49 -212 110 -270 136 -58 25 -199 89
-315 141 -115 52 -241 108 -278 123 -38 15 -104 50 -148 76 -44 27 -121 67
-172 91 -51 23 -110 54 -132 69 -22 16 -60 40 -85 55 -159 94 -312 203 -440
314 -125 107 -280 282 -280 317 0 32 38 21 192 -56 90 -44 199 -94 243 -111
43 -17 151 -68 240 -113 88 -46 196 -97 240 -114 44 -17 152 -67 240 -111 88
-43 192 -91 230 -106 39 -15 110 -46 158 -68 49 -22 91 -37 94 -34 7 7 10 3
-137 181 -58 70 -136 166 -175 214 -38 48 -91 111 -116 139 -25 28 -62 82 -82
120 -20 38 -60 99 -89 135 -89 112 -114 146 -223 307 -188 276 -278 404 -386
546 -160 212 -219 300 -219 330 0 14 38 112 84 218 119 272 149 344 205 495
78 208 94 215 174 79z"/>
<path d="M6879 8551 c-66 -21 -89 -56 -89 -142 0 -91 54 -139 158 -139 45 0
57 4 91 36 51 45 62 101 36 170 -14 37 -25 50 -59 65 -43 19 -93 23 -137 10z"/>
</g>
</svg>
