<?xml version="1.0" standalone="no"?>
<!DOCTYPE svg PUBLIC "-//W3C//DTD SVG 20010904//EN"
 "http://www.w3.org/TR/2001/REC-SVG-20010904/DTD/svg10.dtd">
<svg version="1.0" xmlns="http://www.w3.org/2000/svg"
 width="1024" height="1024" viewBox="0 0 1024 1024"
 preserveAspectRatio="xMidYMid meet">
  <rect width="1024" height="1024" fill="white"/>
<metadata>
Created by potrace 1.16, written by Peter Selinger 2001-2019
</metadata>
<g transform="translate(0.000000,1024.000000) scale(0.100000,-0.100000)"
fill="#000000" stroke="none">
<path d="M0 5120 l0 -5120 5120 0 5120 0 0 5120 0 5120 -5120 0 -5120 0 0
-5120z m5295 3825 c53 -148 115 -323 137 -387 l41 -118 492 -2 491 -3 -391
-289 -392 -289 24 -76 c255 -801 281 -885 277 -890 -2 -2 -20 10 -41 26 -53
42 -784 554 -798 559 -12 5 -483 -313 -783 -529 -46 -32 -85 -57 -87 -55 -3 2
36 130 86 284 201 621 219 678 210 687 -5 5 -83 64 -174 130 -90 67 -262 194
-382 282 l-217 160 488 5 487 5 33 90 c45 125 313 857 320 875 6 16 23 -28
179 -465z m-3004 -1277 c143 -82 1132 -675 1572 -943 182 -110 225 -141 215
-150 -7 -7 -124 -87 -261 -178 l-247 -166 -303 186 c-166 102 -354 218 -417
258 l-115 71 -3 -437 c-1 -241 -1 -638 0 -882 l3 -445 40 33 c149 124 990 809
1150 935 45 36 98 79 117 95 19 17 44 37 54 45 140 112 443 355 489 393 33 27
67 54 75 60 77 61 340 273 397 320 l71 58 299 -244 c164 -134 339 -277 390
-318 50 -41 306 -249 569 -464 263 -214 517 -421 564 -460 48 -38 187 -153
311 -254 123 -101 230 -188 237 -194 9 -7 12 169 12 876 l0 886 -252 -156
c-387 -239 -590 -363 -594 -363 -6 0 -497 331 -511 344 -9 8 66 58 295 196
169 102 401 243 517 314 221 135 797 475 1000 591 66 37 123 70 128 72 4 2 7
-666 7 -1485 l0 -1489 -66 -103 c-151 -235 -733 -1014 -1312 -1755 -90 -115
-230 -295 -310 -399 -201 -257 -571 -721 -712 -891 -64 -77 -161 -194 -215
-260 -123 -149 -290 -345 -347 -408 -15 -18 -23 -11 -160 150 -441 516 -948
1147 -1595 1986 -46 59 -122 158 -170 220 -339 439 -867 1148 -995 1337 l-78
114 0 1493 c0 821 2 1493 4 1493 2 0 68 -37 147 -82z"/>
<path d="M5075 6174 c-16 -14 -106 -84 -199 -157 -93 -73 -198 -155 -235 -184
-36 -29 -106 -84 -156 -122 -49 -38 -160 -124 -245 -191 -185 -144 -510 -398
-937 -729 -172 -133 -313 -245 -313 -249 0 -4 39 -56 87 -117 48 -60 204 -265
347 -455 309 -411 668 -883 676 -890 3 -3 64 -79 135 -170 276 -351 872 -1080
884 -1080 17 0 396 464 872 1065 134 169 453 582 634 820 54 72 147 193 205
270 240 316 390 516 400 534 11 21 61 -20 -839 681 -506 394 -644 502 -963
752 -174 136 -318 248 -320 248 -2 -1 -16 -12 -33 -26z m225 -708 c407 -67
771 -294 1173 -732 78 -86 143 -159 144 -162 2 -4 -79 -54 -178 -111 l-180
-103 -94 99 c-91 97 -223 213 -242 213 -5 0 -7 -15 -5 -34 6 -50 -25 -189 -60
-273 -96 -233 -291 -405 -535 -475 -114 -33 -308 -32 -413 0 -336 106 -557
371 -588 708 l-7 77 -75 -60 c-74 -59 -240 -228 -240 -244 0 -5 -5 -9 -10 -9
-15 0 -360 203 -360 211 0 9 235 266 303 332 182 175 342 293 547 404 149 80
357 148 488 159 42 4 79 8 81 10 10 9 174 3 251 -10z m-1110 -1717 c30 -20
192 -121 360 -224 168 -103 365 -226 438 -271 l133 -84 222 136 c122 75 249
153 282 174 33 21 139 86 235 145 96 59 194 120 217 136 23 16 44 29 47 29 3
0 -94 -127 -215 -282 -122 -156 -249 -319 -283 -362 -33 -43 -97 -124 -141
-180 -44 -56 -138 -175 -209 -266 -71 -91 -134 -171 -141 -178 -9 -10 -38 22
-135 145 -68 87 -156 199 -195 248 -147 186 -226 286 -400 510 -98 127 -206
264 -239 304 -33 41 -54 71 -46 66 8 -5 40 -26 70 -46z"/>
<path d="M4995 5029 c-166 -58 -263 -203 -253 -382 21 -392 540 -505 718 -156
67 131 57 286 -27 396 -48 63 -78 88 -148 123 -84 42 -202 50 -290 19z"/>
</g>
</svg>
