<?xml version="1.0" standalone="no"?>
<!DOCTYPE svg PUBLIC "-//W3C//DTD SVG 20010904//EN"
 "http://www.w3.org/TR/2001/REC-SVG-20010904/DTD/svg10.dtd">
<svg version="1.0" xmlns="http://www.w3.org/2000/svg"
 width="1024" height="1024" viewBox="0 0 1024 1024"
 preserveAspectRatio="xMidYMid meet">
  <rect width="1024" height="1024" fill="white"/>
<metadata>
Created by potrace 1.16, written by Peter Selinger 2001-2019
</metadata>
<g transform="translate(0.000000,1024.000000) scale(0.100000,-0.100000)"
fill="#000000" stroke="none">
<path d="M0 5120 l0 -5120 5120 0 5120 0 0 5120 0 5120 -5120 0 -5120 0 0
-5120z m5148 3542 c69 -224 207 -545 254 -589 35 -32 198 -129 343 -203 l130
-67 -104 -54 c-146 -76 -303 -170 -358 -215 -62 -51 -140 -214 -227 -474 -37
-107 -66 -197 -66 -200 -1 -3 -21 60 -46 140 -85 270 -158 437 -222 503 -54
56 -219 163 -359 232 -67 33 -122 62 -122 65 -1 3 30 19 68 36 114 52 333 180
383 223 73 65 166 273 259 579 17 56 34 102 37 102 4 0 18 -35 30 -78z m-1378
-1099 c52 -157 100 -262 140 -302 17 -16 94 -62 172 -101 l141 -72 -89 -47
c-95 -50 -194 -114 -233 -152 -28 -26 -46 -65 -122 -264 -66 -173 -55 -175
-116 23 -43 141 -58 178 -89 219 -28 37 -155 123 -261 178 -40 20 -73 38 -73
40 0 2 59 34 132 72 72 37 146 83 164 100 45 45 95 153 141 305 21 70 41 128
45 128 3 0 25 -57 48 -127z m2758 -529 c29 -57 79 -98 188 -152 l93 -46 -95
-51 c-156 -84 -191 -128 -254 -319 -37 -113 -34 -114 -86 36 -60 174 -89 206
-271 297 -35 17 -63 33 -63 35 0 3 43 28 95 56 52 28 108 62 123 75 33 28 78
108 122 220 17 44 34 84 37 89 3 5 25 -38 48 -95 23 -57 51 -122 63 -145z
m-3873 -405 c543 -331 895 -540 1225 -724 481 -268 660 -372 693 -403 36 -35
93 -148 106 -214 7 -32 10 -138 9 -260 l-3 -208 -47 58 c-160 196 -319 320
-653 507 -274 154 -475 272 -848 497 -208 125 -380 228 -382 228 -3 0 -5 -433
-5 -963 l0 -963 203 -99 c621 -302 812 -404 1079 -575 311 -200 517 -375 836
-713 l102 -107 0 1227 -1 1228 -22 66 c-35 102 -84 176 -184 277 -51 51 -93
95 -93 98 0 4 69 135 154 293 85 157 186 351 226 430 l72 144 122 -239 c67
-131 168 -325 224 -430 56 -105 102 -194 102 -198 0 -3 -42 -48 -94 -99 -79
-79 -100 -108 -141 -189 -42 -86 -48 -105 -54 -185 -3 -48 -4 -612 -1 -1253
l5 -1165 150 164 c287 314 594 555 1030 810 77 45 338 181 580 303 242 121
443 223 448 227 4 4 6 435 5 959 l-3 951 -115 -68 c-63 -37 -243 -143 -400
-236 -157 -92 -402 -233 -545 -313 -514 -287 -641 -378 -811 -582 -32 -39 -62
-70 -67 -70 -4 0 -7 107 -5 238 l3 238 37 75 c20 41 54 90 75 110 34 33 221
142 668 389 384 213 671 383 1153 684 356 222 402 249 408 244 2 -3 7 -644 11
-1425 l6 -1419 -49 -21 c-203 -87 -762 -372 -1024 -521 -417 -238 -798 -523
-1045 -782 l-50 -53 55 30 c81 45 319 168 535 278 326 165 520 256 1295 605
113 50 267 122 344 158 l138 66 -7 1054 -7 1054 34 23 c34 23 186 114 281 169
27 15 50 26 52 24 5 -5 30 -2469 26 -2554 -1 -24 -35 -41 -536 -269 -159 -73
-369 -170 -465 -215 -96 -45 -224 -105 -285 -132 -381 -175 -1229 -594 -1400
-693 -212 -123 -427 -283 -600 -449 -49 -47 -92 -86 -95 -86 -3 0 -28 23 -55
51 -195 200 -454 390 -770 563 -251 139 -1050 529 -1525 746 -256 117 -582
266 -724 331 -143 65 -266 125 -274 132 -11 12 -11 200 -2 1183 6 643 12 1222
13 1286 l2 118 180 -108 180 -108 -3 -1061 -3 -1060 173 -78 c835 -375 973
-439 1483 -693 356 -178 573 -290 665 -345 l35 -22 -31 40 c-142 180 -611 537
-1019 777 -229 135 -796 427 -1028 529 l-79 34 6 670 c3 369 7 1008 8 1422 l3
752 30 -19 c17 -9 143 -86 280 -171z m1793 -2189 l261 -175 1 -464 0 -463 -83
108 c-45 60 -192 257 -327 437 -135 181 -408 547 -607 813 -200 266 -363 486
-363 488 0 3 162 -105 1118 -744z m2446 738 c-5 -7 -51 -71 -103 -143 -52 -71
-205 -283 -341 -470 -286 -394 -895 -1210 -910 -1220 -14 -8 -14 889 0 915 5
10 110 86 232 168 123 82 425 287 672 456 247 168 451 306 453 306 2 0 1 -6
-3 -12z"/>
</g>
</svg>
