<?xml version="1.0" standalone="no"?>
<!DOCTYPE svg PUBLIC "-//W3C//DTD SVG 20010904//EN"
 "http://www.w3.org/TR/2001/REC-SVG-20010904/DTD/svg10.dtd">
<svg version="1.0" xmlns="http://www.w3.org/2000/svg"
 width="1024" height="1024" viewBox="0 0 1024 1024"
 preserveAspectRatio="xMidYMid meet">
  <rect width="1024" height="1024" fill="white"/>
<metadata>
Created by potrace 1.16, written by Peter Selinger 2001-2019
</metadata>
<g transform="translate(0.000000,1024.000000) scale(0.100000,-0.100000)"
fill="#000000" stroke="none">
<path d="M0 5120 l0 -5120 5120 0 5120 0 0 5120 0 5120 -5120 0 -5120 0 0
-5120z m9053 4536 c-10 -14 -133 -179 -273 -368 -242 -326 -931 -1245 -1218
-1626 -134 -178 -283 -353 -490 -577 -107 -115 -114 -125 -163 -240 -28 -66
-81 -211 -117 -321 l-65 -202 -71 20 c-39 11 -134 40 -211 64 l-139 43 -186
-50 c-102 -27 -233 -65 -292 -84 -59 -19 -109 -35 -111 -35 -2 0 18 107 45
238 27 130 55 275 63 321 l15 84 -84 163 c-47 90 -80 164 -73 164 7 0 46 13
87 29 41 16 129 47 195 69 66 22 185 66 265 99 l145 59 110 217 111 216 89 62
c50 34 133 95 185 134 52 40 181 132 285 205 105 74 399 283 655 465 734 524
886 630 1215 847 50 33 51 33 28 4z m-2697 -541 c8 -77 29 -257 45 -400 17
-143 33 -300 35 -350 l6 -90 -64 -42 c-59 -40 -469 -364 -606 -480 -35 -29
-66 -53 -70 -53 -14 1 -495 778 -519 838 -10 24 300 -185 558 -377 113 -84
176 -126 180 -118 4 7 28 82 54 167 25 85 111 349 190 585 78 237 149 450 156
475 12 42 13 43 16 15 2 -16 10 -93 19 -170z m-1896 -1212 c90 -224 100 -261
100 -374 0 -90 -2 -101 -31 -155 -73 -135 -329 -629 -329 -634 0 -3 -41 -32
-91 -64 -49 -33 -88 -64 -86 -70 2 -6 15 -46 27 -89 23 -77 23 -79 6 -155 -50
-223 -87 -414 -110 -564 l-26 -167 23 -83 c25 -86 180 -571 364 -1138 97 -300
213 -620 277 -764 l27 -60 -168 -170 c-260 -265 -556 -576 -546 -576 4 0 85
20 178 44 164 43 340 111 610 236 130 60 625 322 625 331 0 4 -25 63 -56 131
-218 478 -324 716 -324 727 0 3 33 -26 73 -65 66 -65 336 -289 432 -360 22
-16 94 -72 160 -124 66 -53 165 -130 220 -171 l100 -76 0 151 0 150 85 33 c77
30 149 51 506 144 98 25 136 42 320 145 239 133 358 201 496 286 76 46 103 58
120 52 13 -4 94 -44 180 -89 l158 -81 -113 -76 c-61 -42 -137 -89 -167 -106
-46 -26 -208 -135 -618 -418 -34 -24 -88 -51 -120 -60 -31 -9 -129 -48 -217
-87 -88 -38 -250 -105 -360 -148 l-200 -77 -105 -89 c-58 -50 -254 -218 -435
-374 -182 -156 -361 -308 -397 -337 -79 -62 -145 -87 -351 -132 -425 -92 -547
-123 -561 -145 -13 -20 -305 -621 -619 -1273 -77 -161 -144 -291 -148 -290 -5
2 -96 124 -202 272 l-194 268 75 217 c83 241 365 1073 377 1110 5 15 -113 -77
-352 -276 -197 -165 -385 -322 -418 -348 -33 -27 -135 -111 -227 -187 l-167
-137 -243 78 c-134 44 -278 90 -320 103 l-78 24 72 85 c39 46 112 129 163 184
50 55 130 143 176 196 46 52 183 205 304 340 121 134 272 303 335 374 211 239
383 429 448 497 l65 67 -7 458 c-4 252 -11 615 -16 806 l-9 348 38 117 c21 64
68 203 104 307 68 196 133 431 242 880 l63 261 100 164 c54 91 144 233 198
315 142 217 414 677 453 768 18 42 37 77 41 77 4 0 35 -71 70 -157z m3526
-832 c186 -39 431 -90 544 -115 113 -25 224 -48 248 -52 23 -4 44 -10 47 -13
2 -4 -40 -13 -93 -20 -53 -7 -203 -30 -332 -53 -129 -22 -318 -53 -420 -68
-102 -16 -268 -43 -370 -60 -308 -50 -292 -48 -286 -35 9 24 309 485 315 485
4 0 160 -31 347 -69z m-2662 -703 c-8 -35 -19 -76 -25 -93 -12 -37 -45 -243
-55 -342 -4 -50 -13 -81 -28 -101 -11 -16 -104 -118 -206 -227 -102 -108 -252
-272 -335 -363 l-149 -166 -17 40 c-9 21 -40 95 -69 164 -29 69 -70 165 -91
214 -22 49 -38 90 -37 91 13 7 474 391 892 742 66 56 124 102 128 102 3 1 0
-27 -8 -61z m2290 -402 c86 -30 152 -46 227 -58 11 -2 -16 -32 -76 -88 -52
-47 -209 -195 -350 -330 -215 -205 -271 -264 -339 -360 -244 -340 -323 -449
-427 -590 -64 -85 -122 -160 -130 -167 -15 -12 -76 -36 -299 -118 -80 -29
-194 -74 -255 -99 l-109 -45 -31 24 c-46 38 -255 187 -298 214 -21 13 -35 26
-30 30 4 4 42 22 83 41 41 18 102 46 135 62 86 43 335 154 435 195 73 30 96
46 168 116 46 45 110 120 143 167 33 47 91 126 130 175 39 50 134 178 211 285
78 107 151 206 162 218 12 13 109 85 216 160 107 74 215 150 240 169 25 18 56
33 69 33 13 0 69 -15 125 -34z m-1321 -418 c-7 -39 -81 -310 -85 -313 -14 -12
-351 -226 -378 -240 -93 -47 -446 -264 -529 -324 l-94 -69 -181 152 c-99 83
-180 156 -181 161 0 17 751 390 880 436 66 23 176 67 245 97 121 53 307 129
322 131 4 1 5 -14 1 -31z"/>
<path d="M6905 7678 c-225 -175 -444 -344 -485 -376 -41 -32 -114 -82 -161
-112 l-86 -53 -7 -116 c-3 -64 -9 -154 -13 -200 -6 -77 -5 -84 11 -78 9 4 69
21 133 38 257 68 263 71 320 182 76 147 527 811 666 980 22 26 38 49 36 51 -2
2 -188 -140 -414 -316z"/>
<path d="M4001 4425 c-86 -186 -155 -326 -354 -717 -92 -181 -167 -332 -167
-338 0 -5 6 -7 14 -4 7 3 143 35 301 72 l287 67 -2 415 c-1 228 -5 467 -9 530
l-6 115 -64 -140z"/>
</g>
</svg>
