<?xml version="1.0" standalone="no"?>
<!DOCTYPE svg PUBLIC "-//W3C//DTD SVG 20010904//EN"
 "http://www.w3.org/TR/2001/REC-SVG-20010904/DTD/svg10.dtd">
<svg version="1.0" xmlns="http://www.w3.org/2000/svg"
 width="1024" height="1024" viewBox="0 0 1024 1024"
 preserveAspectRatio="xMidYMid meet">
  <rect width="1024" height="1024" fill="white"/>
<metadata>
Created by potrace 1.16, written by Peter Selinger 2001-2019
</metadata>
<g transform="translate(0.000000,1024.000000) scale(0.100000,-0.100000)"
fill="#000000" stroke="none">
<path d="M0 5120 l0 -5120 5120 0 5120 0 0 5120 0 5120 -5120 0 -5120 0 0
-5120z m5203 3960 c47 -107 136 -307 197 -445 61 -137 183 -410 270 -605 87
-195 174 -387 192 -427 l34 -72 134 -67 c74 -37 267 -131 429 -210 l293 -143
-38 -16 c-49 -21 -374 -155 -597 -246 -93 -38 -172 -69 -176 -69 -8 0 -23 81
-36 185 -6 49 -10 79 -30 220 -8 60 -18 112 -23 116 -11 11 -578 383 -653 429
-95 58 -111 56 -260 -38 -203 -128 -563 -363 -576 -375 -6 -7 -28 -131 -48
-277 -19 -145 -37 -266 -39 -268 -4 -3 -122 44 -381 153 -82 34 -212 89 -287
120 -76 32 -138 60 -138 64 0 3 189 98 420 210 231 112 424 209 429 215 4 6
28 58 53 116 54 124 447 1007 489 1098 16 35 29 65 29 67 0 2 15 36 33 77 19
40 67 146 107 236 40 90 77 159 81 155 4 -4 45 -96 92 -203z m-594 -1990 c35
-6 133 -34 218 -61 186 -60 186 -62 85 -162 l-69 -68 -134 112 c-74 61 -144
118 -156 126 -12 8 -26 28 -32 44 -9 26 -8 30 7 25 9 -3 46 -10 81 -16z m1091
4 c0 -20 -29 -47 -199 -187 l-133 -110 -64 66 c-91 93 -89 106 24 147 78 28
265 81 332 93 14 2 28 5 33 6 4 0 7 -6 7 -15z m-1116 -681 c3 -3 121 50 262
117 l258 122 257 -125 257 -125 41 128 c23 70 41 134 42 142 2 40 24 -60 55
-247 19 -115 39 -236 45 -268 l10 -58 -353 -470 c-280 -374 -354 -467 -364
-457 -7 7 -72 94 -145 193 -503 683 -539 736 -539 784 0 34 62 439 77 506 6
26 12 12 49 -104 24 -73 45 -136 48 -138z m-479 -330 c15 -129 -27 -64 560
-868 97 -132 233 -320 303 -417 70 -97 130 -177 134 -178 4 0 33 37 66 83 57
80 528 728 623 857 254 345 287 395 293 440 8 52 27 140 31 140 12 0 483 -204
491 -213 6 -7 96 -172 199 -367 103 -195 207 -391 230 -435 24 -44 120 -228
215 -410 95 -181 180 -343 190 -360 10 -16 73 -135 140 -264 94 -180 119 -236
109 -242 -40 -22 -708 -490 -1083 -757 -148 -106 -273 -189 -277 -185 -5 5
-14 33 -22 63 -8 30 -56 202 -106 381 -50 179 -91 332 -91 341 0 10 65 46 183
103 167 81 653 305 661 305 2 0 34 14 72 31 l68 31 -29 16 c-25 12 -385 221
-392 227 -2 1 -36 111 -76 246 -177 586 -212 698 -218 691 -4 -4 -43 -86 -87
-182 -44 -96 -176 -382 -294 -635 -118 -253 -230 -493 -248 -532 -18 -40 -36
-73 -40 -73 -3 0 -98 89 -211 198 -113 108 -241 229 -284 267 -44 39 -86 76
-93 83 -7 6 -16 12 -20 12 -8 -1 -103 -90 -387 -364 -119 -116 -219 -205 -224
-200 -4 5 -37 74 -73 154 -36 80 -181 394 -322 699 -141 304 -256 557 -256
562 0 5 -3 9 -8 9 -4 0 -26 -66 -49 -147 -22 -82 -80 -283 -128 -448 -48 -165
-90 -308 -92 -317 -3 -10 -99 -71 -219 -140 -118 -67 -214 -124 -214 -128 0
-3 35 -21 78 -40 430 -186 902 -408 902 -423 0 -5 -23 -93 -51 -195 -28 -103
-62 -225 -74 -272 -58 -213 -86 -315 -90 -318 -2 -3 -89 54 -192 125 -293 202
-729 497 -943 639 -107 70 -211 140 -231 154 l-36 26 76 144 c42 80 104 197
137 260 119 223 342 648 474 900 318 607 392 746 403 757 7 6 107 52 222 102
116 50 224 98 240 106 48 22 53 19 60 -42z m949 -2145 c-21 -103 -34 -136
-148 -374 -69 -144 -126 -268 -126 -275 1 -8 74 -65 162 -128 146 -102 164
-112 182 -101 36 22 306 222 312 231 2 4 -22 61 -54 126 -152 304 -211 439
-227 527 -9 48 -15 89 -13 91 7 8 196 -166 306 -280 83 -86 122 -136 148 -186
19 -38 36 -69 38 -69 2 0 46 20 98 44 51 24 94 43 96 41 1 -1 42 -99 91 -218
l88 -216 -251 -99 c-138 -55 -342 -135 -453 -177 l-202 -78 -293 113 c-274
105 -589 230 -596 235 -2 1 4 18 12 36 9 19 45 110 81 203 37 93 70 178 76
187 8 16 16 14 94 -22 47 -21 89 -39 94 -39 5 0 21 25 35 56 17 38 62 95 138
176 101 109 314 308 329 308 3 0 -5 -51 -17 -112z m-2413 -912 c30 -3 151 -17
269 -30 118 -14 253 -29 300 -34 l85 -9 205 -125 c340 -207 429 -262 425 -266
-2 -2 -83 1 -182 7 -403 25 -765 43 -769 38 -2 -2 33 -18 78 -34 82 -31 291
-112 713 -278 121 -47 294 -115 385 -150 379 -147 558 -221 558 -230 0 -5
-162 -121 -360 -257 l-359 -247 -42 13 c-23 8 -125 39 -227 70 -263 81 -423
133 -682 222 l-228 78 -172 149 c-95 82 -207 174 -248 206 -85 64 -101 76
-144 111 -17 15 -102 81 -188 149 -87 68 -155 127 -153 131 5 8 282 224 440
342 157 118 218 159 230 154 7 -2 36 -7 66 -10z m5135 -74 c66 -49 174 -131
240 -183 65 -52 158 -125 207 -163 l87 -67 -177 -137 c-98 -76 -216 -167 -262
-202 -46 -36 -152 -121 -234 -190 -287 -239 -255 -218 -401 -265 -371 -120
-529 -169 -716 -220 -283 -78 -318 -88 -455 -124 -66 -18 -163 -44 -215 -58
-94 -25 -774 -234 -826 -253 -22 -9 -76 6 -350 96 -178 59 -323 108 -322 109
9 7 191 137 233 167 28 19 138 98 245 175 107 77 206 146 219 153 14 7 122 45
240 85 425 143 1093 389 1516 557 237 94 432 173 435 175 5 5 -18 4 -584 -28
-197 -11 -361 -18 -363 -15 -6 5 -20 -4 337 215 269 165 299 181 341 181 25 0
70 4 100 9 30 5 81 12 114 15 33 4 114 13 180 21 66 8 156 19 200 24 44 4 82
9 85 10 3 0 59 -39 126 -87z"/>
</g>
</svg>
