<?xml version="1.0" standalone="no"?>
<!DOCTYPE svg PUBLIC "-//W3C//DTD SVG 20010904//EN"
 "http://www.w3.org/TR/2001/REC-SVG-20010904/DTD/svg10.dtd">
<svg version="1.0" xmlns="http://www.w3.org/2000/svg"
 width="1024" height="1024" viewBox="0 0 1024 1024"
 preserveAspectRatio="xMidYMid meet">
  <rect width="1024" height="1024" fill="white"/>
<metadata>
Created by potrace 1.16, written by Peter Selinger 2001-2019
</metadata>
<g transform="translate(0.000000,1024.000000) scale(0.100000,-0.100000)"
fill="#000000" stroke="none">
<path d="M0 5120 l0 -5120 5120 0 5120 0 0 5120 0 5120 -5120 0 -5120 0 0
-5120z m5925 4381 c72 -11 189 -29 260 -40 382 -59 739 -51 1050 23 33 8 61
13 63 11 7 -6 -118 -110 -194 -161 -168 -112 -353 -184 -564 -220 -90 -15
-145 -16 -380 -11 -380 8 -515 -7 -658 -73 -74 -35 -163 -116 -192 -174 -30
-62 -26 -142 10 -246 17 -46 30 -102 30 -125 0 -68 -51 -158 -138 -245 -132
-131 -296 -216 -515 -268 -153 -36 -398 -38 -587 -4 -69 12 -177 31 -240 42
-271 48 -440 36 -600 -42 -186 -90 -310 -281 -310 -478 0 -176 112 -392 248
-479 81 -52 153 -71 355 -96 l48 -6 -153 -74 c-172 -84 -248 -105 -375 -105
-238 1 -443 95 -625 288 -203 215 -281 520 -208 807 43 167 115 297 235 424
87 92 167 149 286 206 163 76 344 115 545 115 140 0 233 -16 454 -80 283 -81
379 -94 478 -65 58 18 106 53 129 98 20 39 13 97 -22 200 -37 107 -33 177 17
278 124 249 416 433 791 499 156 27 175 28 417 25 153 -3 253 -9 345 -24z
m2275 -364 c0 -69 -19 -206 -41 -297 -48 -196 -131 -342 -266 -470 -123 -117
-232 -175 -420 -222 -132 -34 -335 -32 -454 5 -121 37 -246 93 -438 196 -250
135 -386 183 -553 197 -43 4 -75 10 -71 14 16 16 154 59 233 74 45 9 134 16
197 16 169 0 288 -19 648 -105 135 -32 304 -43 411 -25 257 41 481 187 622
404 45 69 112 214 112 242 0 8 5 14 10 14 6 0 10 -19 10 -43z m197 -1324 c-9
-240 -62 -393 -178 -518 -107 -114 -253 -190 -421 -219 -108 -19 -144 -34
-185 -77 -76 -81 -71 -160 14 -240 49 -46 73 -62 223 -149 155 -90 238 -148
314 -220 186 -176 260 -403 212 -653 -46 -238 -187 -422 -420 -548 -157 -85
-326 -126 -656 -159 -109 -11 -234 -29 -277 -40 -159 -40 -282 -122 -358 -236
-33 -49 -120 -243 -113 -249 2 -2 109 -45 238 -98 217 -87 517 -216 700 -300
l76 -35 86 -218 c73 -183 178 -468 263 -711 l18 -52 -77 -468 c-43 -257 -88
-511 -99 -563 l-22 -95 -11 65 c-6 36 -36 189 -67 341 -31 151 -72 363 -91
470 -39 218 -49 246 -247 689 l-110 245 -112 62 c-103 57 -391 191 -445 208
-16 5 -122 -33 -395 -141 -204 -81 -390 -155 -413 -164 -30 -13 -80 -63 -195
-191 -247 -278 -296 -333 -468 -534 -90 -104 -167 -191 -172 -193 -15 -6 -10
35 16 139 14 55 41 180 60 277 31 155 41 189 85 277 27 55 90 164 141 242 l91
142 177 77 c145 63 507 211 586 239 14 5 -52 30 -227 88 -189 62 -248 85 -248
97 0 9 11 48 23 86 13 38 39 126 57 196 l33 127 50 -20 c27 -11 98 -40 158
-64 59 -25 112 -45 117 -45 5 0 12 23 16 51 17 130 102 285 220 405 158 159
335 250 672 343 204 57 274 85 361 147 104 74 170 173 193 291 32 162 -55 291
-263 392 -56 27 -155 75 -221 105 -178 84 -265 152 -333 259 -116 183 -69 458
106 618 150 138 375 198 741 199 385 1 592 108 718 372 26 54 51 97 56 98 5 0
6 -63 3 -147z m-2750 -149 c480 -312 442 -284 447 -319 5 -29 37 -442 54 -702
5 -68 11 -126 15 -129 3 -3 46 -2 94 4 48 6 90 9 91 7 2 -2 -21 -128 -52 -279
l-56 -276 -145 -143 -145 -142 -20 -169 -20 -170 -42 -44 c-56 -57 -171 -150
-264 -213 -41 -27 -74 -48 -74 -47 0 2 25 59 56 128 180 400 374 974 389 1153
4 42 4 77 -1 77 -4 0 -85 -58 -179 -129 l-171 -129 -28 -164 c-16 -89 -34
-166 -40 -170 -18 -12 -236 -10 -236 2 0 11 134 595 148 645 l9 30 79 -2 c86
-3 377 -31 408 -40 16 -5 18 -1 12 28 -3 19 -15 115 -26 214 -20 178 -39 319
-45 342 -3 9 -390 -153 -526 -221 -26 -13 -41 -6 -355 160 -181 96 -333 173
-337 171 -5 -1 -57 -81 -116 -177 l-108 -175 -6 -355 -7 -355 49 -91 c27 -51
118 -199 203 -330 311 -479 396 -614 387 -614 -5 0 -37 13 -72 30 -119 56
-286 189 -369 293 -21 27 -38 44 -38 39 0 -25 53 -371 76 -497 41 -229 112
-537 155 -676 22 -72 39 -133 37 -134 -4 -4 -202 163 -369 310 l-115 102 -344
-143 c-190 -79 -338 -145 -330 -148 8 -2 80 -19 160 -36 185 -40 318 -84 489
-164 75 -35 204 -95 286 -133 83 -38 161 -75 175 -81 44 -21 -173 -7 -1110 72
-432 37 -617 49 -633 43 -32 -12 -242 -328 -440 -662 -148 -252 -135 -211
-388 -1163 -34 -128 -64 -231 -66 -228 -2 2 -13 104 -23 227 -11 123 -36 400
-56 615 l-35 390 49 145 c83 243 227 605 335 840 l35 76 113 48 c480 202 1711
730 1727 741 4 2 79 594 83 649 2 22 -1 47 -7 56 -17 29 -158 150 -216 185
-35 21 -60 44 -63 57 -18 75 -115 568 -115 582 0 12 5 15 21 10 12 -4 57 -10
100 -14 l79 -7 0 49 c0 27 -7 129 -16 228 l-15 180 91 273 91 274 227 106
c125 58 328 152 452 210 124 58 230 105 237 106 6 0 168 -102 360 -226z
m-3193 -1174 c93 -32 360 -186 400 -231 39 -42 47 -66 19 -54 -40 16 -150 17
-216 1 -148 -35 -245 -104 -299 -214 -30 -61 -33 -74 -33 -162 0 -83 3 -102
28 -155 74 -159 244 -245 457 -232 107 7 252 39 415 90 183 58 261 70 415 65
110 -4 147 -10 200 -30 67 -25 152 -77 230 -143 l45 -38 -45 6 c-235 34 -371
29 -549 -18 -129 -35 -208 -70 -379 -168 -286 -165 -346 -187 -533 -194 -199
-9 -335 27 -509 130 -109 65 -251 205 -309 304 -69 117 -93 205 -98 358 -6
158 9 232 69 355 58 116 180 241 288 294 139 68 276 80 404 36z m2686 -60 c0
-68 -20 -253 -29 -262 -4 -4 -103 36 -221 90 -118 54 -246 111 -283 127 -45
19 -64 31 -55 36 44 25 299 55 481 58 l107 1 0 -50z m1819 -3325 c-37 -210
-182 -756 -211 -792 -5 -7 -92 -63 -191 -125 -1175 -726 -1501 -932 -1960
-1236 -76 -51 -141 -92 -144 -92 -21 0 501 515 942 929 378 354 1575 1435
1581 1428 1 -1 -7 -51 -17 -112z m-3320 -160 c75 -57 285 -220 466 -364 182
-144 367 -288 413 -319 75 -51 81 -57 60 -64 -47 -14 -430 -38 -610 -38 l-187
0 -19 28 c-80 114 -214 372 -286 548 -55 136 -126 355 -126 389 0 25 1 25 76
-26 43 -28 138 -98 213 -154z m-365 -646 c9 -89 92 -501 190 -939 41 -184 73
-336 72 -338 -2 -1 -71 46 -152 105 -82 60 -218 157 -302 217 -151 107 -153
109 -147 140 13 60 67 240 101 335 65 179 216 551 224 551 4 0 11 -32 14 -71z
m3635 -648 c28 -62 65 -152 82 -200 l30 -86 -48 -44 c-26 -24 -136 -117 -243
-207 -178 -149 -195 -161 -198 -138 -6 45 189 724 258 899 l11 30 28 -70 c16
-39 52 -121 80 -184z"/>
</g>
</svg>
