<?xml version="1.0" standalone="no"?>
<!DOCTYPE svg PUBLIC "-//W3C//DTD SVG 20010904//EN"
 "http://www.w3.org/TR/2001/REC-SVG-20010904/DTD/svg10.dtd">
<svg version="1.0" xmlns="http://www.w3.org/2000/svg"
 width="1024" height="1024" viewBox="0 0 1024 1024"
 preserveAspectRatio="xMidYMid meet">
  <rect width="1024" height="1024" fill="white"/>
<metadata>
Created by potrace 1.16, written by Peter Selinger 2001-2019
</metadata>
<g transform="translate(0.000000,1024.000000) scale(0.100000,-0.100000)"
fill="#000000" stroke="none">
<path d="M0 5120 l0 -5120 5120 0 5120 0 0 5120 0 5120 -5120 0 -5120 0 0
-5120z m5409 3687 c150 -180 314 -373 364 -429 l90 -101 63 -279 c35 -153 71
-306 80 -339 9 -33 15 -61 13 -62 -15 -10 -221 -197 -297 -271 l-93 -90 -21
34 c-35 58 -166 252 -203 301 l-35 47 42 25 c24 13 99 53 166 87 68 35 127 70
130 79 8 22 -35 223 -53 240 -16 16 -30 11 -300 -109 -82 -37 -173 -75 -201
-85 l-52 -18 -68 27 c-38 15 -118 54 -179 86 -250 132 -285 149 -289 141 -7
-11 -40 -290 -35 -295 2 -2 74 -41 159 -86 85 -45 159 -86 163 -90 4 -4 -14
-34 -41 -66 -60 -72 -133 -183 -173 -265 l-31 -61 -181 178 c-100 99 -191 191
-204 205 l-23 27 24 54 c55 123 86 232 102 351 9 67 18 136 20 152 3 21 44 76
130 175 142 166 538 637 604 721 25 31 48 54 51 50 3 -3 128 -154 278 -334z
m1006 -1093 c83 -48 213 -124 290 -169 230 -134 834 -495 921 -550 l80 -52 36
-99 c450 -1233 536 -1464 569 -1526 13 -24 68 -95 302 -386 76 -96 140 -179
143 -185 2 -7 -14 -115 -36 -242 -22 -126 -82 -482 -134 -790 -86 -507 -132
-770 -257 -1450 -22 -121 -46 -225 -52 -231 -17 -16 -665 -273 -755 -299 -16
-5 -24 -2 -28 12 -3 10 -9 25 -13 33 -6 10 4 29 33 60 22 25 70 80 106 122 50
57 92 93 178 148 61 40 112 74 112 76 0 2 -17 55 -39 117 -21 61 -49 153 -61
202 -13 50 -24 91 -25 93 -2 1 -33 -30 -71 -70 -146 -155 -308 -318 -316 -318
-4 0 -8 116 -8 258 l0 258 248 197 c136 108 256 203 266 210 19 14 19 16 -8
88 -15 41 -60 182 -100 314 -40 132 -110 357 -156 500 -45 143 -91 290 -102
327 l-21 66 81 194 c78 187 182 449 196 496 6 18 -39 84 -272 395 -350 466
-617 814 -649 847 l-25 25 6 -130 c3 -71 8 -161 11 -200 l6 -70 -63 -44 c-35
-25 -133 -94 -218 -153 -266 -186 -370 -261 -531 -386 l-157 -121 -173 91
c-96 49 -189 99 -207 110 -24 15 -294 313 -369 409 -11 14 19 45 210 221 122
113 269 247 327 299 196 176 725 625 787 669 l62 43 -76 151 c-42 83 -122 247
-179 364 l-103 212 42 -24 c23 -13 110 -64 192 -112z m-2417 51 c-35 -57 -302
-635 -296 -640 225 -175 1303 -1129 1316 -1164 3 -9 21 -35 39 -57 l33 -42
-159 -173 -159 -174 -216 -116 -216 -117 -72 55 c-111 84 -431 312 -538 383
-52 35 -153 106 -224 159 l-129 96 7 198 c4 108 4 197 2 197 -5 0 -600 -763
-844 -1082 l-112 -147 65 -176 c36 -96 99 -255 140 -353 l75 -178 -44 -139
c-24 -77 -94 -309 -155 -515 -61 -206 -128 -433 -150 -505 -22 -71 -39 -130
-38 -130 1 -1 45 -37 97 -81 52 -43 158 -128 235 -188 77 -60 153 -121 168
-135 l28 -25 -2 -255 -1 -254 -197 197 -198 197 -23 -93 c-12 -51 -40 -147
-61 -213 -21 -65 -37 -120 -36 -121 1 0 45 -27 97 -59 117 -71 112 -66 231
-202 98 -110 99 -111 87 -145 -6 -18 -12 -34 -13 -36 -7 -9 -746 276 -778 301
-11 8 -27 77 -51 222 -20 116 -70 397 -111 625 -41 228 -109 613 -150 855 -41
242 -88 517 -104 610 -39 225 -62 405 -54 418 15 25 379 475 413 512 32 34 54
84 150 345 62 168 193 521 292 784 98 264 178 491 178 505 0 35 -9 29 560 363
173 102 446 261 605 353 160 93 301 176 315 186 41 30 41 22 -2 -46z m1177
-288 c32 -45 81 -100 107 -122 73 -59 165 -185 184 -251 9 -31 14 -58 11 -60
-2 -2 -40 10 -83 28 -95 38 -174 45 -312 28 -111 -13 -246 -43 -298 -65 -46
-19 -51 -19 -32 3 9 9 44 69 79 132 34 63 79 133 99 155 20 22 69 84 109 138
41 53 74 97 75 97 1 0 28 -37 61 -83z m131 -596 c78 -26 164 -54 193 -61 28
-6 51 -15 51 -19 0 -7 -333 -468 -392 -542 l-26 -34 -46 50 c-26 28 -67 79
-93 115 -26 36 -103 138 -171 228 -68 90 -123 165 -121 166 2 2 24 10 49 19
25 9 108 41 185 71 90 35 156 54 185 55 30 1 92 -15 186 -48z m169 -1702 c82
-74 191 -172 240 -219 50 -47 110 -102 133 -123 l43 -38 -45 -52 c-24 -29 -79
-98 -123 -154 -138 -179 -598 -752 -604 -752 -3 -1 -20 20 -39 45 -18 25 -157
202 -309 392 -391 491 -411 516 -411 523 0 6 296 283 435 407 44 39 134 123
200 185 l120 115 105 -98 c58 -54 172 -158 255 -231z m-2089 -50 c19 -77 27
-132 28 -209 l1 -105 -95 -31 c-52 -18 -160 -55 -240 -82 -79 -28 -145 -50
-147 -48 -1 1 35 53 82 115 46 61 100 140 118 174 97 177 182 336 195 367 l16
35 7 -56 c5 -31 20 -103 35 -160z m3550 123 c98 -187 176 -326 204 -365 16
-23 59 -84 94 -134 76 -110 73 -112 -69 -58 -49 18 -148 53 -219 77 l-129 43
6 125 c4 76 14 153 26 195 11 39 23 98 27 133 3 34 9 62 13 62 3 0 24 -35 47
-78z m-2823 -1084 c335 -493 398 -590 386 -604 -6 -7 -57 -48 -112 -91 -338
-256 -557 -426 -557 -431 0 -11 360 -920 464 -1170 42 -101 76 -187 76 -191 0
-11 -428 -125 -645 -171 -104 -22 -242 -54 -305 -69 -176 -45 -589 -133 -602
-129 -6 2 128 150 299 329 171 178 322 338 336 355 26 30 26 32 11 80 -88 291
-356 1243 -352 1253 3 9 306 346 598 665 91 100 194 214 229 254 35 39 65 72
67 72 2 0 50 -69 107 -152z m2607 -389 c206 -228 383 -424 392 -434 19 -23 34
37 -214 -837 l-141 -496 334 -347 c184 -191 335 -351 337 -355 4 -11 -36 -2
-413 85 -448 103 -455 105 -826 196 l-327 81 215 531 c304 754 336 838 327
847 -5 4 -144 110 -309 235 -361 275 -365 278 -365 288 0 4 111 174 248 378
l247 371 60 -64 c33 -35 229 -250 435 -479z"/>
</g>
</svg>
