<?xml version="1.0" standalone="no"?>
<!DOCTYPE svg PUBLIC "-//W3C//DTD SVG 20010904//EN"
 "http://www.w3.org/TR/2001/REC-SVG-20010904/DTD/svg10.dtd">
<svg version="1.0" xmlns="http://www.w3.org/2000/svg"
 width="1024" height="1024" viewBox="0 0 1024 1024"
 preserveAspectRatio="xMidYMid meet">
  <rect width="1024" height="1024" fill="white"/>
<metadata>
Created by potrace 1.16, written by Peter Selinger 2001-2019
</metadata>
<g transform="translate(0.000000,1024.000000) scale(0.100000,-0.100000)"
fill="#000000" stroke="none">
<path d="M0 5120 l0 -5120 5120 0 5120 0 0 5120 0 5120 -5120 0 -5120 0 0
-5120z m5378 3936 c96 -148 175 -274 175 -280 0 -6 -21 -41 -47 -78 l-47 -68
58 -53 c32 -30 77 -70 100 -91 l42 -37 115 63 115 63 1 90 0 90 116 89 c64 49
171 134 237 189 72 60 118 92 115 81 -3 -10 -56 -229 -118 -486 l-114 -466
-110 -8 c-145 -9 -1651 -9 -1783 0 l-102 8 -36 152 c-115 477 -195 810 -195
814 0 2 23 -17 51 -42 28 -25 138 -111 245 -192 l195 -146 -2 -84 c-1 -47 2
-89 7 -93 5 -5 59 -35 120 -67 l111 -58 102 88 c60 52 98 93 94 100 -3 6 -29
43 -56 82 -34 49 -46 76 -41 86 5 7 100 150 212 317 l203 303 31 -49 c17 -26
110 -169 206 -317z m57 -1096 c132 -6 268 -13 303 -16 l62 -6 0 -46 0 -47
-257 -65 -258 -65 2 -50 c4 -116 49 -192 118 -202 35 -4 59 4 192 71 83 42
160 87 171 101 11 14 23 25 26 25 3 0 6 -39 7 -87 1 -49 4 -133 8 -188 l6
-100 -50 -60 c-92 -109 -99 -127 -103 -242 -3 -57 -6 -103 -7 -103 -2 0 -76
52 -165 115 l-161 115 -119 0 c-113 0 -120 1 -134 23 -11 17 -15 84 -19 295
-3 150 -8 276 -11 279 -3 3 -122 32 -263 64 -142 32 -268 61 -280 64 -20 5
-23 12 -23 60 l0 55 73 1 c39 1 137 5 217 9 231 11 408 11 665 0z m-1213 -63
c26 -63 13 -427 -28 -797 -14 -124 -63 -441 -69 -448 -2 -2 -38 25 -82 60 -43
35 -118 92 -165 128 -48 36 -87 70 -88 75 0 6 34 96 76 200 119 295 269 683
293 757 24 73 40 79 63 25z m1901 -37 c22 -77 105 -301 245 -655 61 -154 113
-292 117 -306 6 -25 0 -31 -77 -81 -46 -30 -125 -85 -176 -121 -50 -37 -96
-67 -100 -67 -22 0 -77 784 -77 1100 0 146 9 190 39 190 7 0 20 -26 29 -60z
m-1473 -322 c74 -37 152 -70 173 -74 20 -4 39 -10 42 -13 2 -4 5 -83 6 -175
l2 -168 -127 -110 c-69 -60 -126 -108 -126 -106 0 2 -2 41 -3 88 -2 71 -7 96
-34 152 -17 36 -50 84 -72 106 l-41 40 0 180 c0 204 4 229 29 180 13 -27 39
-45 151 -100z m739 -696 c302 -206 310 -211 349 -214 l39 -3 -79 -185 c-43
-102 -86 -201 -94 -220 l-16 -35 -24 65 c-36 94 -218 463 -235 476 -9 7 -77 8
-203 5 l-188 -6 -104 -200 c-57 -110 -116 -229 -131 -265 -43 -106 -29 -123
-154 184 -38 93 -69 170 -69 171 0 2 20 6 45 9 30 5 61 20 92 45 27 20 102 76
167 124 l120 87 214 0 215 0 56 -38z m-46 -419 c35 -71 79 -165 98 -211 l33
-83 -169 -169 -170 -170 -162 162 c-90 90 -163 169 -163 176 0 18 40 111 120
278 l69 144 140 0 141 0 63 -127z m-920 -601 l548 -548 -161 -153 -160 -153
-98 12 c-586 72 -1570 364 -2012 597 -102 54 -323 194 -335 212 -3 5 9 12 27
16 31 7 932 306 1028 342 l46 16 150 -120 c402 -323 736 -558 927 -652 99 -49
276 -115 285 -107 10 10 -235 242 -413 392 -104 88 -302 254 -439 369 l-249
210 44 19 c41 18 248 94 259 95 3 1 252 -246 553 -547z m2122 497 c82 -28 154
-54 158 -58 4 -5 -180 -165 -410 -356 -372 -310 -686 -595 -672 -610 11 -10
180 55 290 111 183 94 555 349 910 625 84 65 156 119 160 119 4 0 248 -80 543
-179 485 -161 534 -180 518 -193 -63 -55 -217 -146 -400 -237 -285 -142 -499
-221 -932 -346 -437 -125 -793 -202 -1025 -221 l-70 -6 -145 132 c-80 72 -154
140 -165 151 -19 19 -15 24 525 568 300 301 549 549 555 550 5 0 77 -22 160
-50z m-4060 -1028 c106 -72 276 -174 437 -263 l98 -54 -567 -455 c-312 -250
-637 -511 -721 -582 -85 -70 -157 -126 -159 -123 -2 2 21 53 51 112 30 60 185
402 344 761 160 358 300 670 312 693 l21 41 42 -31 c23 -18 87 -62 142 -99z
m5505 79 c31 -61 268 -643 516 -1270 123 -311 235 -586 248 -612 l23 -47 -23
15 c-12 9 -168 167 -346 352 -382 399 -407 425 -568 607 -167 188 -417 460
-475 515 -26 25 -55 57 -66 72 l-20 27 63 32 c163 82 547 298 593 333 29 22
32 20 55 -24z m-2707 -433 l135 -118 -106 -154 -107 -154 -40 -1 c-39 0 -45 4
-174 141 l-134 141 134 134 c74 74 139 133 145 132 7 -2 73 -56 147 -121z
m-1081 -177 c172 -33 336 -65 365 -71 50 -10 55 -14 145 -122 51 -62 99 -120
106 -129 12 -15 3 -30 -82 -128 -53 -62 -103 -121 -110 -133 -15 -23 -56 -246
-56 -303 0 -41 -10 -43 -32 -6 -9 15 -98 144 -199 287 -199 284 -459 665 -454
665 2 0 145 -27 317 -60z m2050 -127 c-60 -98 -192 -306 -293 -463 -102 -157
-202 -313 -223 -346 -37 -61 -38 -62 -69 -52 l-32 10 3 167 4 167 -96 129
c-53 71 -95 135 -94 141 2 5 38 73 81 150 l79 140 371 70 c205 38 374 69 375
68 2 -1 -45 -83 -106 -181z m634 -198 c14 -137 28 -275 31 -306 5 -53 -5 -88
-171 -585 -97 -291 -180 -534 -184 -539 -4 -6 -45 -27 -92 -47 -47 -20 -120
-53 -162 -72 -43 -20 -78 -33 -78 -31 0 9 117 357 340 1015 122 360 236 698
253 750 18 52 33 88 34 80 1 -8 14 -127 29 -265z m-3224 -115 c135 -238 245
-436 367 -659 l51 -94 -132 7 c-73 4 -165 9 -205 13 l-72 6 -11 71 c-11 64
-152 837 -166 911 -6 27 -5 28 9 15 8 -8 80 -130 159 -270z m-792 -77 c18
-104 47 -265 64 -360 l32 -172 -30 6 c-17 4 -96 21 -176 39 l-145 33 -220
-136 c-409 -252 -464 -287 -462 -289 1 -1 161 13 356 32 l353 35 237 -50 c249
-52 430 -85 521 -96 30 -3 61 -10 69 -15 12 -7 0 -52 -65 -246 l-79 -239 -165
-16 c-91 -9 -360 -34 -599 -55 l-435 -38 -174 179 c-96 99 -217 226 -269 282
l-95 103 70 82 c91 107 494 505 737 728 196 179 426 379 436 380 3 0 21 -84
39 -187z m4685 -9 c286 -247 784 -705 1015 -931 l165 -162 -80 -81 c-135 -137
-547 -526 -1020 -961 -453 -416 -543 -496 -602 -538 l-32 -22 -23 53 c-12 29
-56 123 -96 208 -41 85 -76 160 -78 166 -3 6 73 83 168 170 285 264 755 692
881 803 64 56 117 105 117 106 0 2 -56 138 -124 302 -68 164 -178 433 -245
598 -130 320 -141 346 -168 385 l-17 25 30 -26 c16 -14 65 -56 109 -95z
m-2283 -76 l89 -117 -7 -138 -7 -138 -206 3 c-113 2 -207 5 -209 7 -6 5 -32
226 -32 265 0 30 13 50 91 138 l92 103 50 -3 50 -3 89 -117z m-87 -638 c292
-14 295 -15 360 -65 31 -24 69 -49 85 -57 33 -14 35 -24 19 -80 -10 -38 -10
-38 -64 -38 -30 0 -121 7 -201 16 -80 9 -148 13 -151 10 -4 -3 -2 -27 3 -54
l9 -47 105 -17 c58 -9 136 -22 174 -29 l68 -11 -6 -62 c-13 -111 -2 -102 -134
-110 -64 -3 -143 -9 -174 -12 l-57 -6 -10 -47 c-5 -25 -8 -47 -6 -50 2 -2 82
-12 177 -23 95 -11 173 -20 174 -21 1 -1 4 -28 6 -59 l5 -58 -31 -4 c-17 -3
-87 -9 -155 -15 -132 -11 -165 -23 -181 -67 -6 -14 -7 -37 -4 -51 l7 -26 -434
7 c-320 5 -435 10 -441 19 -29 45 -41 122 -45 313 -5 199 -5 202 20 257 29 65
80 104 287 222 74 42 155 90 180 105 126 79 103 75 415 60z m-1113 -305 c-27
-34 -36 -79 -76 -375 -43 -312 -45 -346 -28 -342 25 5 1 -17 -51 -47 -61 -34
-132 -62 -237 -91 -87 -24 -102 -25 -76 -5 18 14 19 25 12 208 l-7 194 86 229
c47 125 83 234 81 241 -4 10 29 13 155 13 l160 0 -19 -25z m2180 -1118 c35
-43 71 -91 80 -106 l17 -27 -97 -97 -98 -98 -93 111 -93 110 -326 -1 c-180 0
-558 -4 -839 -8 l-513 -6 -109 -109 c-107 -107 -109 -108 -124 -86 -9 12 -52
62 -96 111 l-81 88 52 48 c29 26 94 87 144 135 l90 88 885 10 c486 6 920 12
964 13 l80 2 47 -50 c26 -27 76 -85 110 -128z m-772 -740 l0 -423 -47 -46
c-62 -59 -252 -218 -261 -218 -4 0 3 156 15 348 13 191 26 430 30 532 l8 184
40 9 c57 11 188 35 203 36 9 1 12 -90 12 -422z m-580 396 c63 -9 120 -20 126
-25 7 -5 13 -87 18 -225 9 -298 25 -594 40 -738 7 -66 12 -121 11 -122 -4 -6
-146 117 -231 199 l-92 89 -6 357 c-3 196 -8 385 -10 420 -4 73 -17 69 144 45z"/>
</g>
</svg>
