<?xml version="1.0" standalone="no"?>
<!DOCTYPE svg PUBLIC "-//W3C//DTD SVG 20010904//EN"
 "http://www.w3.org/TR/2001/REC-SVG-20010904/DTD/svg10.dtd">
<svg version="1.0" xmlns="http://www.w3.org/2000/svg"
 width="1024" height="1024" viewBox="0 0 1024 1024"
 preserveAspectRatio="xMidYMid meet">
  <rect width="1024" height="1024" fill="white"/>
<metadata>
Created by potrace 1.16, written by Peter Selinger 2001-2019
</metadata>
<g transform="translate(0.000000,1024.000000) scale(0.100000,-0.100000)"
fill="#000000" stroke="none">
<path d="M0 5120 l0 -5120 5120 0 5120 0 0 5120 0 5120 -5120 0 -5120 0 0
-5120z m5308 3873 c389 -212 664 -382 957 -591 105 -74 194 -138 198 -142 13
-12 -535 -990 -720 -1282 -12 -21 -23 -40 -23 -43 0 -4 232 228 516 514 284
287 519 521 523 521 8 0 53 -122 211 -575 54 -154 101 -296 104 -315 l7 -35
-208 -135 c-336 -217 -1301 -807 -1307 -799 -18 23 -88 133 -163 254 l-93 149
0 -533 0 -532 102 92 102 93 232 -240 232 -239 139 -224 c76 -123 177 -288
225 -365 48 -78 88 -149 88 -158 0 -15 -151 -353 -211 -470 l-24 -48 -76 168
c-42 92 -94 212 -115 265 -35 87 -54 117 -54 86 0 -6 -49 -111 -109 -235
l-110 -224 -609 0 -609 0 -114 235 -115 235 -114 -257 c-63 -142 -116 -261
-120 -265 -9 -12 -233 474 -233 507 -1 22 37 90 137 250 76 121 179 285 228
365 85 137 102 158 317 380 l228 234 104 -92 104 -92 3 270 c1 149 1 393 0
543 -3 250 -4 269 -18 241 -22 -45 -244 -393 -251 -394 -11 0 -308 180 -441
268 -73 49 -308 198 -523 332 -444 276 -535 337 -535 356 0 8 22 76 49 151 41
116 152 429 244 691 12 34 25 62 28 62 3 0 239 -236 524 -525 285 -289 520
-523 522 -521 2 2 -43 82 -101 178 -99 166 -189 324 -454 798 -63 113 -132
237 -154 275 -23 39 -42 73 -44 76 -6 11 350 270 516 376 238 150 789 463 818
463 7 0 93 -44 190 -97z m-3388 -1516 c521 -305 925 -555 937 -578 19 -39 101
-359 91 -359 -16 0 -515 257 -608 313 l-34 21 21 -34 c116 -195 258 -438 341
-586 l102 -182 0 -333 0 -334 -131 255 c-72 140 -326 644 -565 1119 -398 790
-432 862 -402 843 18 -11 130 -76 248 -145z m6255 -684 c-233 -461 -486 -962
-564 -1113 l-141 -275 0 333 0 333 124 223 c68 123 172 301 231 396 58 94 105
173 103 175 -2 1 -55 -27 -118 -62 -134 -74 -511 -266 -515 -261 -8 8 92 369
105 381 12 12 463 282 1090 655 47 27 90 51 96 51 6 1 -179 -376 -411 -836z
m-4685 -678 c36 -39 128 -143 204 -230 77 -88 147 -168 156 -178 16 -17 28
-16 305 37 159 30 291 54 292 52 4 -3 -254 -309 -530 -627 l-162 -187 -80 76
c-44 41 -177 168 -295 281 -118 113 -263 251 -322 305 l-107 98 64 92 c36 50
120 175 187 278 l123 186 50 -56 c28 -31 79 -88 115 -127z m3500 74 c230 -337
300 -442 300 -447 0 -4 -69 -70 -152 -147 -84 -77 -240 -223 -346 -325 -107
-102 -220 -208 -252 -237 l-58 -52 -138 161 c-265 309 -554 652 -551 654 3 3
150 -25 392 -72 l180 -36 40 44 c101 109 490 550 493 559 7 19 19 6 92 -102z
m-51 -1414 c135 -573 285 -1176 296 -1195 5 -8 -303 -280 -316 -280 -4 0 -28
17 -55 39 -48 38 -395 285 -421 300 -11 6 -6 31 27 130 22 67 49 139 59 159
52 104 272 753 332 980 12 45 23 81 25 79 2 -1 25 -97 53 -212z m-3515 -11
c117 -383 167 -535 216 -647 26 -62 75 -184 108 -272 33 -88 63 -167 67 -176
5 -12 -35 -45 -167 -139 -95 -68 -206 -148 -246 -178 l-72 -54 -69 53 c-111
87 -249 203 -254 214 -3 6 17 96 44 200 106 412 279 1103 290 1158 7 32 13 56
15 54 2 -2 33 -98 68 -213z m2635 -1296 c135 -75 233 -132 648 -375 l153 -89
160 29 c88 17 163 27 167 23 11 -10 -136 -154 -317 -310 -91 -78 -170 -145
-176 -149 -7 -4 -63 19 -125 51 -213 109 -544 284 -554 292 -5 4 -56 31 -112
59 -56 28 -125 65 -153 81 l-51 30 -574 0 -575 0 -267 -141 c-148 -78 -320
-170 -383 -204 -63 -34 -166 -88 -228 -119 -97 -49 -116 -55 -130 -44 -161
126 -512 450 -494 456 11 3 312 -47 324 -54 10 -6 99 42 243 131 92 58 192
116 570 333 l140 81 794 0 794 1 146 -82z m-323 -895 c92 -87 222 -208 288
-269 67 -60 121 -117 121 -126 0 -14 -432 -403 -740 -667 -55 -47 -139 -121
-187 -164 l-88 -79 -38 34 c-58 50 -314 274 -512 448 -97 85 -239 210 -316
277 -78 67 -146 129 -153 137 -10 12 24 48 200 213 117 109 249 233 293 275
l81 78 441 0 442 0 168 -157z"/>
<path d="M4622 5107 l-93 -94 296 -287 297 -287 52 48 c28 26 163 155 299 287
l248 239 -95 96 -96 96 -203 -203 -202 -202 -200 200 c-110 110 -202 200 -205
200 -3 0 -47 -42 -98 -93z"/>
</g>
</svg>
