<?xml version="1.0" standalone="no"?>
<!DOCTYPE svg PUBLIC "-//W3C//DTD SVG 20010904//EN"
 "http://www.w3.org/TR/2001/REC-SVG-20010904/DTD/svg10.dtd">
<svg version="1.0" xmlns="http://www.w3.org/2000/svg"
 width="1024" height="1024" viewBox="0 0 1024 1024"
 preserveAspectRatio="xMidYMid meet">
  <rect width="1024" height="1024" fill="white"/>
<metadata>
Created by potrace 1.16, written by Peter Selinger 2001-2019
</metadata>
<g transform="translate(0.000000,1024.000000) scale(0.100000,-0.100000)"
fill="#000000" stroke="none">
<path d="M0 5120 l0 -5120 5120 0 5120 0 0 5120 0 5120 -5120 0 -5120 0 0
-5120z m5220 4358 c94 -80 159 -141 455 -425 l200 -192 33 -108 c53 -170 412
-1125 505 -1342 37 -87 39 -94 22 -104 -30 -16 -573 -525 -807 -756 -65 -64
-118 -111 -118 -106 0 11 53 104 248 435 138 234 203 328 301 433 l44 47 -51
138 c-28 75 -88 243 -132 372 -45 129 -100 286 -122 348 l-41 114 -191 152
c-206 164 -431 336 -441 336 -15 0 -607 -440 -622 -462 -4 -7 -45 -119 -89
-248 -78 -223 -195 -547 -244 -672 l-22 -57 86 -98 c104 -119 166 -215 343
-528 75 -132 144 -252 154 -267 34 -48 20 -43 -38 13 -32 31 -148 136 -258
234 -287 256 -637 597 -631 615 3 8 31 78 64 155 79 187 368 951 443 1173 50
149 65 183 97 215 55 57 577 546 647 606 33 28 65 51 70 51 6 0 48 -33 95 -72z
m-589 -1333 c71 -25 328 -93 415 -109 l81 -15 229 59 c126 32 242 63 257 69
44 17 47 15 47 -47 l0 -58 -107 -75 c-60 -41 -155 -104 -213 -140 l-105 -66
-3 -104 c-2 -57 0 -142 3 -187 7 -80 8 -83 23 -60 40 59 152 175 199 204 51
33 179 82 189 72 6 -6 -97 -317 -136 -408 -33 -79 -183 -328 -212 -353 -11 -9
-51 -27 -89 -38 -57 -17 -76 -19 -116 -11 -93 20 -131 45 -184 118 -118 163
-187 300 -280 559 -22 61 -41 114 -42 120 -6 28 149 -18 218 -65 43 -29 122
-111 169 -172 16 -21 32 -35 37 -32 5 3 9 81 9 174 0 199 32 155 -240 330
l-190 123 0 41 c0 22 -3 51 -6 64 -7 26 -8 26 47 7z m-668 -1322 c122 -97 263
-209 312 -248 165 -131 467 -406 688 -626 l218 -217 95 113 c147 176 498 510
988 939 l249 218 56 -22 c278 -113 1191 -528 1191 -541 0 -4 -43 -40 -97 -80
-126 -93 -963 -674 -1318 -914 -82 -56 -257 -174 -389 -264 -131 -89 -244
-160 -251 -157 -7 2 -93 56 -191 118 -99 63 -217 137 -264 165 -47 27 -271
161 -498 297 -228 136 -416 245 -419 242 -9 -8 22 -45 368 -436 337 -382 483
-558 560 -675 60 -92 173 -295 166 -301 -2 -2 -69 40 -148 94 -79 54 -443 300
-809 547 -366 247 -798 541 -960 654 -162 112 -389 270 -505 350 -115 79 -277
191 -360 249 -82 57 -150 109 -150 115 0 14 1 14 260 136 298 140 944 419 973
420 7 1 113 -79 235 -176z m3860 -1333 c170 -667 153 -619 285 -807 62 -88
128 -178 146 -199 l34 -39 22 28 c12 15 25 27 30 27 15 0 39 -172 85 -600 57
-537 130 -1162 156 -1348 l21 -142 -33 -53 c-56 -92 -134 -189 -254 -317 -65
-69 -132 -142 -148 -163 -37 -45 -187 -180 -194 -174 -17 18 118 338 231 547
l83 155 -18 42 c-23 53 -109 203 -117 203 -3 0 -76 -73 -162 -161 -98 -102
-161 -160 -171 -157 -12 4 -14 38 -13 195 1 104 4 207 8 228 6 32 37 68 192
227 l184 190 -39 56 c-21 31 -98 158 -171 282 -73 124 -177 298 -231 386 -54
89 -133 219 -175 290 l-76 129 60 115 c94 179 94 154 5 267 -43 54 -131 170
-197 258 -66 88 -177 233 -248 322 -70 89 -128 164 -128 167 0 7 85 85 315
289 116 102 246 221 289 266 l80 80 22 -87 c12 -48 69 -274 127 -502z m-5034
375 c117 -110 260 -244 319 -298 59 -54 108 -102 110 -107 2 -5 -38 -69 -89
-142 -120 -173 -411 -595 -467 -677 -51 -76 -51 -72 19 -216 27 -56 49 -111
49 -123 0 -24 -42 -99 -143 -254 -84 -129 -475 -774 -507 -838 -11 -23 -17
-46 -13 -53 4 -7 83 -89 177 -183 93 -95 173 -180 179 -190 13 -23 21 -425 9
-443 -15 -22 -40 -2 -192 159 -78 82 -146 150 -150 150 -11 0 -94 -146 -114
-200 l-17 -45 91 -170 c49 -94 104 -204 122 -245 52 -124 99 -262 95 -279 -2
-11 -64 45 -186 168 -208 210 -291 306 -381 440 l-63 94 27 171 c14 94 67 533
116 976 89 797 105 916 121 934 5 6 18 1 32 -12 13 -12 26 -22 28 -22 3 0 53
65 110 145 57 80 121 169 142 198 21 29 44 77 52 107 34 125 260 992 279 1072
12 49 24 87 28 85 3 -1 101 -92 217 -202z m3571 -985 c-33 -73 -129 -273 -212
-444 -135 -278 -155 -315 -197 -351 -25 -22 -109 -96 -187 -165 -78 -69 -190
-168 -250 -220 -60 -52 -156 -139 -213 -193 -57 -54 -105 -96 -107 -94 -2 2
14 48 36 103 21 54 78 198 126 319 73 187 127 314 201 472 8 17 56 67 106 111
124 107 642 530 700 572 26 18 48 38 48 44 1 6 3 4 6 -5 2 -9 -23 -76 -57
-149z m-2465 108 c33 -23 142 -103 241 -178 100 -74 272 -201 382 -283 l200
-147 45 -133 c25 -72 73 -208 107 -302 73 -203 175 -490 185 -525 6 -17 -20 2
-91 69 -228 215 -475 442 -565 519 l-97 82 -130 247 c-172 329 -354 693 -345
693 4 0 34 -19 68 -42z m2467 -1161 c9 -28 54 -162 101 -297 214 -613 368
-1061 472 -1365 62 -181 122 -354 134 -384 45 -111 15 -77 -185 214 -87 127
-342 509 -566 850 l-408 620 210 208 c116 114 214 207 218 207 4 0 14 -24 24
-53z m-2290 -101 c82 -80 176 -173 207 -208 l58 -63 -99 -155 c-112 -176 -425
-653 -729 -1113 -196 -297 -329 -482 -329 -459 0 19 424 1262 630 1847 50 143
94 268 97 278 3 9 7 17 10 17 3 0 72 -65 155 -144z m1591 -673 c41 -76 120
-229 176 -341 l101 -202 -31 -63 c-17 -34 -96 -181 -174 -327 -78 -146 -212
-395 -298 -555 -86 -159 -191 -354 -235 -433 l-80 -142 -153 292 c-84 161
-203 390 -264 508 -61 118 -171 327 -245 464 l-134 250 33 60 c18 34 98 186
178 339 129 246 147 276 161 265 9 -7 87 -71 172 -143 86 -71 182 -150 214
-174 l57 -44 47 45 c26 25 99 88 162 140 63 53 140 118 170 146 30 28 58 51
62 52 3 0 40 -62 81 -137z"/>
</g>
</svg>
