<?xml version="1.0" standalone="no"?>
<!DOCTYPE svg PUBLIC "-//W3C//DTD SVG 20010904//EN"
 "http://www.w3.org/TR/2001/REC-SVG-20010904/DTD/svg10.dtd">
<svg version="1.0" xmlns="http://www.w3.org/2000/svg"
 width="1024" height="1024" viewBox="0 0 1024 1024"
 preserveAspectRatio="xMidYMid meet">
  <rect width="1024" height="1024" fill="white"/>
<metadata>
Created by potrace 1.16, written by Peter Selinger 2001-2019
</metadata>
<g transform="translate(0.000000,1024.000000) scale(0.100000,-0.100000)"
fill="#000000" stroke="none">
<path d="M0 5120 l0 -5120 5120 0 5120 0 0 5120 0 5120 -5120 0 -5120 0 0
-5120z m5485 3291 c367 -394 666 -706 1150 -1198 525 -534 801 -821 946 -983
52 -58 102 -114 113 -125 48 -53 136 -165 129 -165 -29 0 77 -65 292 -179 541
-287 855 -456 855 -461 0 -5 -118 -95 -803 -614 -661 -500 -988 -726 -1647
-1141 -368 -232 -685 -419 -1100 -650 -58 -33 -148 -84 -201 -116 -87 -51 -98
-55 -115 -42 -10 8 -80 48 -154 90 -74 42 -211 119 -305 171 -240 135 -712
417 -895 535 -475 307 -602 392 -865 577 -387 272 -463 327 -1077 788 -290
218 -524 399 -520 403 7 7 765 409 937 498 122 62 191 101 181 101 -5 0 -1 9
9 20 10 11 15 20 11 20 -10 0 118 165 217 278 83 96 553 590 707 742 281 281
831 843 1096 1120 175 184 400 420 499 523 l179 189 81 -84 c44 -46 171 -179
280 -297z m-3011 -4410 c118 -87 197 -139 270 -176 32 -16 135 -83 230 -147
191 -130 358 -242 677 -453 118 -78 249 -167 290 -197 41 -30 268 -187 504
-348 237 -162 486 -333 555 -381 105 -74 128 -86 142 -76 9 7 210 143 445 304
235 160 545 373 688 473 143 100 314 216 380 258 66 42 262 172 435 287 173
116 364 242 424 279 119 75 298 198 333 229 49 44 32 3 -34 -80 -38 -48 -112
-146 -164 -218 -238 -329 -531 -697 -620 -781 -24 -23 -136 -112 -249 -199
-302 -233 -536 -421 -1115 -894 -286 -233 -525 -428 -532 -433 -14 -11 -15
-10 -608 476 -329 270 -546 445 -1217 982 -38 30 -71 54 -75 55 -12 1 -112
120 -206 244 -91 121 -318 404 -380 475 -21 25 -78 101 -125 170 -48 69 -110
149 -138 178 -44 46 -48 53 -26 47 13 -3 66 -36 116 -74z"/>
<path d="M4890 7703 c-124 -102 -367 -304 -540 -447 -173 -144 -378 -313 -455
-376 -153 -125 -452 -375 -610 -509 -109 -93 -297 -272 -292 -278 2 -1 60 22
128 53 68 31 228 101 354 156 127 55 340 148 475 208 362 160 831 351 1093
445 l79 28 51 -18 c100 -35 594 -234 802 -323 543 -232 1145 -492 1195 -515
30 -14 57 -24 59 -21 2 2 2 5 0 7 -2 1 -58 52 -124 113 -185 170 -710 613
-1354 1144 -91 74 -268 222 -395 327 -127 106 -233 193 -236 193 -3 0 -106
-84 -230 -187z"/>
<path d="M4865 6301 c-126 -43 -273 -94 -325 -114 -580 -219 -1103 -448 -1585
-692 -181 -92 -364 -187 -405 -211 -41 -23 -105 -57 -142 -74 -38 -18 -68 -33
-68 -35 0 -2 24 -15 53 -29 28 -14 180 -113 337 -220 157 -107 366 -250 465
-318 535 -365 976 -623 1763 -1029 l163 -84 282 142 c614 310 1124 613 1782
1058 176 120 409 276 517 348 l198 132 -48 19 c-26 11 -105 51 -177 88 -71 38
-317 162 -545 276 -517 258 -914 436 -1375 614 -394 153 -562 208 -624 207
-20 0 -139 -35 -266 -78z m542 -733 l282 -283 -284 -290 -284 -290 -278 275
c-153 151 -282 277 -287 281 -8 7 549 589 563 589 4 0 133 -127 288 -282z
m-1117 142 c0 -5 -4 -10 -8 -10 -5 0 -15 -19 -22 -42 -7 -24 -29 -77 -50 -118
-20 -41 -54 -138 -75 -215 -22 -77 -47 -152 -58 -167 -10 -16 -15 -33 -11 -40
16 -26 293 -325 360 -388 177 -166 347 -268 536 -320 111 -30 159 -32 258 -11
158 35 304 104 460 219 74 54 312 287 443 434 65 73 68 78 53 100 -8 13 -31
84 -51 158 -20 74 -59 183 -86 242 -27 59 -49 113 -49 121 0 8 -7 20 -15 27
-9 7 -13 15 -11 18 3 2 38 -20 77 -49 40 -30 121 -88 180 -129 122 -85 517
-414 526 -438 8 -18 -1 -26 -307 -286 -557 -473 -824 -634 -1215 -732 l-108
-27 -96 23 c-283 67 -525 188 -816 408 -235 178 -698 576 -703 604 -2 10 25
39 70 76 40 34 145 120 233 193 88 73 201 161 250 195 50 34 119 85 155 112
67 52 80 59 80 42z"/>
</g>
</svg>
