<?xml version="1.0" standalone="no"?>
<!DOCTYPE svg PUBLIC "-//W3C//DTD SVG 20010904//EN"
 "http://www.w3.org/TR/2001/REC-SVG-20010904/DTD/svg10.dtd">
<svg version="1.0" xmlns="http://www.w3.org/2000/svg"
 width="1024" height="1024" viewBox="0 0 1024 1024"
 preserveAspectRatio="xMidYMid meet">
  <rect width="1024" height="1024" fill="white"/>
<metadata>
Created by potrace 1.16, written by Peter Selinger 2001-2019
</metadata>
<g transform="translate(0.000000,1024.000000) scale(0.100000,-0.100000)"
fill="#000000" stroke="none">
<path d="M0 5120 l0 -5120 5120 0 5120 0 0 5120 0 5120 -5120 0 -5120 0 0
-5120z m5171 3548 c29 -57 147 -301 264 -543 116 -242 305 -632 420 -867 185
-378 211 -426 224 -414 9 7 151 125 316 261 165 135 379 313 475 395 271 229
574 480 576 477 2 -1 -19 -108 -46 -237 -27 -129 -92 -440 -144 -690 -52 -250
-122 -588 -156 -750 l-62 -295 -68 -66 c-38 -37 -172 -144 -299 -239 -225
-169 -230 -174 -246 -224 -64 -198 -265 -322 -466 -286 -113 20 -196 69 -338
197 l-53 48 63 51 c75 60 127 95 466 318 313 204 471 321 478 349 3 12 28 121
55 242 28 121 55 235 61 253 6 18 9 36 6 39 -3 3 -39 -21 -79 -54 -204 -166
-809 -628 -1053 -806 -307 -222 -298 -215 -293 -245 54 -314 118 -733 125
-807 5 -58 4 -61 -29 -92 -68 -64 -234 -193 -248 -193 -16 0 -227 168 -265
209 -19 22 -19 24 24 304 23 155 51 336 63 402 11 66 22 138 25 161 l5 41
-229 167 c-232 168 -335 247 -868 661 -334 260 -322 251 -329 245 -2 -3 4 -43
15 -90 10 -47 37 -165 58 -263 30 -140 44 -184 62 -204 33 -35 234 -175 479
-333 291 -189 370 -242 445 -301 l66 -52 -28 -29 c-58 -61 -180 -152 -243
-181 -136 -62 -323 -45 -435 41 -57 43 -117 124 -141 191 -10 25 -25 54 -33
65 -9 10 -104 85 -211 166 -256 195 -325 253 -354 298 -24 36 -50 149 -177
757 -22 105 -89 421 -150 704 -60 283 -108 518 -107 522 3 8 290 -226 505
-412 50 -43 192 -163 315 -265 123 -103 296 -248 386 -323 90 -75 166 -137
170 -139 4 -1 91 168 192 375 242 498 672 1388 717 1486 20 42 37 77 39 77 2
0 27 -46 55 -102z m-1961 -3194 c77 -97 161 -240 211 -358 40 -96 89 -263 89
-303 0 -28 -56 -24 510 -32 l465 -6 -30 -27 c-52 -47 -1069 -816 -1088 -824
-7 -2 -63 54 -125 126 -117 135 -396 432 -521 555 -39 38 -71 73 -71 76 0 8
316 581 417 757 35 61 69 112 74 112 5 0 36 -34 69 -76z m3912 39 c44 -66 458
-815 458 -828 0 -4 -66 -76 -147 -159 -165 -169 -335 -352 -463 -499 -46 -53
-91 -97 -100 -97 -8 0 -136 93 -285 207 -644 493 -815 624 -820 633 -4 6 125
10 353 10 197 0 413 3 480 6 l120 7 12 64 c23 136 102 332 189 473 54 87 157
220 171 220 4 0 18 -17 32 -37z m-2413 -1130 c36 -32 120 -109 186 -173 66
-64 138 -129 159 -146 l40 -31 -186 -154 c-298 -248 -598 -511 -592 -520 3 -5
57 -84 121 -176 157 -226 662 -964 673 -983 6 -10 12 -12 18 -5 27 30 791
1162 789 1170 -2 10 -315 284 -611 535 l-158 134 33 26 c19 13 104 92 189 175
85 83 172 163 192 179 l37 28 208 -157 c114 -86 353 -266 530 -398 178 -133
323 -247 323 -253 0 -5 -13 -28 -29 -50 -983 -1361 -1514 -2085 -1521 -2077
-8 8 -226 308 -993 1363 -242 333 -465 638 -495 679 -39 53 -52 78 -46 88 8
13 1054 803 1063 803 2 0 34 -26 70 -57z"/>
<path d="M5097 7568 c-9 -18 -67 -139 -129 -268 -63 -129 -168 -347 -233 -483
l-119 -249 46 -41 c25 -23 100 -103 166 -178 125 -140 276 -289 294 -289 16 0
198 181 296 295 48 55 112 126 144 157 l57 58 -201 417 c-110 230 -221 462
-247 515 -25 54 -49 98 -52 98 -4 0 -14 -15 -22 -32z"/>
</g>
</svg>
