<?xml version="1.0" standalone="no"?>
<!DOCTYPE svg PUBLIC "-//W3C//DTD SVG 20010904//EN"
 "http://www.w3.org/TR/2001/REC-SVG-20010904/DTD/svg10.dtd">
<svg version="1.0" xmlns="http://www.w3.org/2000/svg"
 width="1024" height="1024" viewBox="0 0 1024 1024"
 preserveAspectRatio="xMidYMid meet">
  <rect width="1024" height="1024" fill="white"/>
<metadata>
Created by potrace 1.16, written by Peter Selinger 2001-2019
</metadata>
<g transform="translate(0.000000,1536.000000) scale(0.100000,-0.100000)"
fill="#000000" stroke="none">
<path d="M0 7680 l0 -7680 5120 0 5120 0 0 7680 0 7680 -5120 0 -5120 0 0
-7680z m2079 3910 c108 -118 293 -319 411 -445 270 -289 331 -358 516 -576 82
-96 248 -288 369 -425 121 -137 281 -321 355 -408 159 -188 284 -327 510 -565
91 -95 196 -211 233 -257 l68 -84 -43 17 c-115 45 -428 192 -553 260 -179 97
-480 270 -710 408 -99 59 -234 137 -300 173 -66 36 -162 90 -214 119 -51 30
-95 52 -97 50 -5 -5 178 -528 223 -637 52 -126 164 -343 231 -445 102 -157
251 -275 467 -368 174 -76 441 -155 685 -203 47 -9 86 -17 87 -18 6 -5 -42
-94 -72 -136 -18 -25 -119 -171 -225 -325 -106 -154 -194 -282 -196 -284 -2
-2 -12 3 -21 11 -10 9 -50 32 -89 51 -93 47 -263 161 -339 229 -75 66 -624
631 -771 793 -419 463 -485 544 -533 649 -59 128 -72 201 -106 561 -21 229
-54 502 -95 785 -5 36 -18 187 -30 335 -24 312 -43 542 -70 847 -11 119 -20
222 -20 230 1 14 42 -28 329 -342z m6393 268 c3 -79 2 -85 -31 -328 -26 -192
-58 -515 -101 -1035 -43 -511 -89 -950 -120 -1140 -29 -177 -72 -251 -285
-495 -51 -58 -120 -139 -154 -180 -77 -92 -281 -308 -630 -669 -276 -284 -396
-387 -579 -497 -45 -27 -81 -55 -82 -61 0 -7 -7 -13 -15 -13 -12 0 -13 -4 -5
-19 52 -98 -104 82 -255 294 -77 107 -298 456 -292 461 1 1 78 19 170 39 449
96 808 259 979 444 120 130 298 471 388 746 24 72 69 204 102 294 32 90 57
166 55 167 -2 2 -32 -16 -68 -40 -35 -24 -111 -70 -169 -103 -58 -33 -170
-100 -250 -150 -147 -91 -705 -408 -905 -514 -145 -76 -472 -221 -492 -217
-20 4 53 92 271 328 304 329 424 467 776 890 85 102 206 244 270 315 63 72
169 192 235 269 111 129 430 478 604 661 42 44 135 145 206 225 164 182 355
380 366 380 5 0 10 -24 11 -52z m-2973 -713 c481 -571 552 -654 717 -840 98
-111 152 -180 148 -188 -4 -6 -67 -77 -139 -157 -210 -233 -934 -1036 -1010
-1122 l-70 -79 -35 38 c-19 21 -132 144 -250 272 -118 129 -377 410 -575 624
-198 214 -368 400 -378 413 l-18 24 268 307 c148 170 340 391 428 493 88 102
249 288 359 413 l200 228 25 -33 c14 -18 163 -195 330 -393z m-3239 -2797 c69
-74 77 -80 72 -53 l-5 30 23 -20 c12 -11 57 -63 98 -115 42 -52 132 -154 201
-225 252 -261 782 -832 991 -1067 47 -52 163 -178 259 -279 184 -196 340 -373
489 -557 86 -106 107 -142 82 -142 -15 0 -640 319 -750 382 -109 63 -204 112
-240 123 -22 7 -23 6 -11 -9 10 -12 10 -16 1 -16 -8 0 -7 -9 6 -27 39 -59 66
-114 60 -121 -4 -3 -11 0 -16 8 -6 8 -10 12 -10 8 0 -13 61 -111 189 -303 358
-536 694 -961 1180 -1495 133 -146 243 -265 244 -265 4 0 354 388 478 530 173
199 370 448 571 725 131 181 566 831 608 909 10 20 9 21 -7 12 -70 -39 -572
-274 -726 -340 -104 -45 -202 -88 -219 -97 -16 -8 -32 -13 -34 -11 -12 12 396
498 600 717 29 30 128 140 221 245 94 104 220 241 280 305 61 63 198 212 306
330 108 118 272 294 364 390 93 96 204 216 248 265 44 50 90 100 103 113 13
13 25 28 25 35 1 7 5 -1 9 -18 l7 -30 60 63 c72 75 64 89 93 -157 11 -95 36
-291 55 -435 43 -334 59 -472 90 -786 l25 -254 -52 -56 c-164 -171 -260 -274
-413 -440 -144 -156 -463 -499 -944 -1013 -197 -210 -1025 -1092 -1286 -1368
-303 -321 -418 -445 -443 -478 l-19 -24 -31 23 c-18 13 -32 27 -32 32 0 8
-124 144 -405 442 -368 390 -846 906 -1059 1141 -55 61 -181 196 -280 300
-321 337 -846 899 -1071 1145 -28 30 -95 102 -149 160 l-99 105 7 110 c12 195
46 626 61 760 23 212 109 875 113 875 3 0 40 -37 82 -82z m3155 -312 c149
-197 330 -437 404 -534 l134 -176 -17 -30 c-16 -27 -749 -1057 -794 -1115
l-19 -23 -140 193 c-274 380 -662 928 -677 956 -14 27 -13 31 12 64 14 19 123
158 242 309 325 414 487 625 527 687 29 46 38 54 47 42 6 -9 133 -176 281
-373z"/>
</g>
</svg>
