<?xml version="1.0" standalone="no"?>
<!DOCTYPE svg PUBLIC "-//W3C//DTD SVG 20010904//EN"
 "http://www.w3.org/TR/2001/REC-SVG-20010904/DTD/svg10.dtd">
<svg version="1.0" xmlns="http://www.w3.org/2000/svg"
 width="1024" height="1024" viewBox="0 0 1024 1024"
 preserveAspectRatio="xMidYMid meet">
  <rect width="1024" height="1024" fill="white"/>
<metadata>
Created by potrace 1.16, written by Peter Selinger 2001-2019
</metadata>
<g transform="translate(0.000000,1024.000000) scale(0.100000,-0.100000)"
fill="#000000" stroke="none">
<path d="M0 5120 l0 -5120 5120 0 5120 0 0 5120 0 5120 -5120 0 -5120 0 0
-5120z m5676 3630 c796 -840 1112 -1237 1323 -1660 92 -185 137 -308 185 -501
33 -132 85 -429 86 -489 1 -22 8 -18 66 43 150 157 311 406 481 744 l97 192
19 -42 c124 -272 233 -662 288 -1027 27 -176 36 -545 20 -742 -36 -428 -153
-824 -336 -1144 -155 -270 -497 -661 -795 -909 -107 -89 -347 -268 -615 -460
-498 -356 -861 -653 -1035 -849 -38 -43 -70 -82 -70 -86 0 -3 52 -68 115 -143
l115 -137 -243 -324 c-133 -179 -245 -325 -249 -326 -4 0 -117 142 -252 315
l-246 315 114 163 115 162 -102 103 c-166 169 -510 449 -892 727 -353 256
-659 490 -775 592 -262 230 -534 538 -693 783 -199 307 -325 670 -383 1105
-21 159 -24 556 -6 720 44 383 136 747 274 1083 l50 123 87 -173 c135 -268
249 -457 372 -619 66 -87 167 -199 179 -199 4 0 11 26 14 58 78 662 312 1141
900 1846 169 202 356 409 731 806 127 135 293 311 368 391 l138 147 147 -157
c81 -86 264 -280 408 -431z"/>
<path d="M5067 8528 c-30 -40 -141 -174 -247 -298 -278 -326 -401 -478 -584
-720 -374 -497 -585 -856 -692 -1175 -70 -212 -87 -312 -88 -515 -1 -193 10
-252 65 -366 46 -93 109 -166 435 -500 374 -384 497 -520 646 -719 167 -223
296 -430 424 -682 l93 -182 74 142 c131 252 317 540 494 767 150 192 295 352
603 665 173 176 337 349 364 385 97 129 135 242 143 427 14 319 -77 637 -292
1018 -197 349 -535 810 -959 1309 -260 305 -295 347 -353 426 -31 41 -59 79
-63 83 -4 5 -32 -24 -63 -65z m402 -1106 l261 -413 -173 -272 c-96 -150 -229
-360 -297 -467 -67 -107 -127 -200 -134 -207 -8 -9 -84 104 -314 473 -281 451
-301 486 -290 508 7 13 145 226 307 474 l294 451 42 -67 c23 -37 160 -253 304
-480z m-1633 -1198 c38 -14 182 -64 319 -111 280 -94 401 -141 469 -179 126
-71 172 -179 324 -780 l77 -301 48 -42 49 -41 26 19 c91 66 88 61 132 261 84
380 171 675 230 777 55 95 135 135 538 267 141 46 295 98 341 115 47 17 89 31
94 31 16 0 -1 -99 -32 -192 -36 -107 -108 -248 -158 -308 -109 -133 -225 -189
-628 -305 -158 -46 -162 -47 -167 -82 -18 -108 -124 -534 -140 -561 -11 -18
-52 -58 -92 -89 -39 -31 -85 -69 -102 -85 l-32 -30 -109 90 c-85 71 -114 101
-131 139 -12 26 -51 167 -86 312 -36 145 -66 265 -68 267 -2 1 -103 32 -225
68 -313 93 -418 142 -517 240 -85 86 -172 249 -216 407 -18 66 -27 139 -16
139 2 0 35 -12 72 -26z"/>
<path d="M2580 5608 c1 -314 58 -577 184 -843 167 -351 372 -564 886 -925 337
-236 740 -593 914 -810 87 -109 220 -309 286 -430 l52 -95 -7 123 c-13 267
-69 486 -185 720 -209 420 -556 840 -1205 1457 -444 423 -706 694 -857 888
l-68 89 0 -174z"/>
<path d="M7639 5748 c-44 -63 -177 -224 -263 -318 -48 -52 -334 -340 -635
-640 -342 -340 -596 -601 -676 -695 -400 -472 -615 -836 -683 -1155 -22 -100
-42 -261 -42 -330 l0 -42 61 84 c99 133 214 260 406 448 237 233 474 428 823
679 376 270 545 432 703 670 213 324 322 692 334 1129 3 111 3 202 0 202 -3 0
-16 -15 -28 -32z"/>
</g>
</svg>
