<?xml version="1.0" standalone="no"?>
<!DOCTYPE svg PUBLIC "-//W3C//DTD SVG 20010904//EN"
 "http://www.w3.org/TR/2001/REC-SVG-20010904/DTD/svg10.dtd">
<svg version="1.0" xmlns="http://www.w3.org/2000/svg"
 width="1024" height="1024" viewBox="0 0 1024 1024"
 preserveAspectRatio="xMidYMid meet">
  <rect width="1024" height="1024" fill="white"/>
<metadata>
Created by potrace 1.16, written by Peter Selinger 2001-2019
</metadata>
<g transform="translate(0.000000,1024.000000) scale(0.100000,-0.100000)"
fill="#000000" stroke="none">
<path d="M0 5120 l0 -5120 5120 0 5120 0 0 5120 0 5120 -5120 0 -5120 0 0
-5120z m5250 3759 c68 -39 211 -127 318 -195 106 -69 218 -137 249 -152 l55
-27 -7 -60 c-8 -72 -7 -945 1 -1065 l6 -85 -214 -210 c-258 -255 -514 -490
-534 -490 -19 0 -280 241 -532 490 l-204 201 1 609 0 609 71 47 c39 26 105 66
148 89 42 23 113 65 157 95 44 29 130 83 190 120 61 37 119 73 130 81 11 7 25
13 31 13 6 1 66 -31 134 -70z m2530 -523 c87 -116 193 -252 250 -321 63 -76
93 -115 307 -397 86 -114 96 -133 174 -322 45 -111 106 -253 134 -316 29 -63
82 -187 118 -275 36 -88 84 -200 107 -250 23 -49 66 -148 95 -220 55 -135 150
-346 204 -454 l32 -62 -37 -67 c-20 -37 -62 -103 -94 -147 -32 -44 -82 -125
-111 -180 -59 -114 -117 -205 -130 -205 -5 0 -77 13 -161 30 -84 16 -306 58
-493 94 -187 36 -457 88 -600 115 -143 28 -309 60 -370 71 -111 21 -468 98
-494 106 -9 3 -4 11 15 27 16 12 106 92 199 177 94 85 217 196 274 245 58 50
170 149 251 220 80 72 162 139 181 149 l36 19 66 -47 c50 -36 76 -64 113 -123
98 -157 374 -504 436 -547 29 -20 41 -10 35 28 -3 17 -13 81 -22 141 -9 61
-27 171 -40 245 -14 74 -34 191 -45 260 -11 69 -31 175 -45 235 -13 61 -40
184 -60 275 -19 91 -53 233 -75 315 -22 83 -36 151 -32 153 42 15 40 45 -4 56
-15 4 -41 18 -57 32 -25 21 -35 24 -76 18 -59 -8 -60 -7 -159 144 -78 119 -96
135 -140 130 l-27 -3 0 -110 c0 -92 -3 -115 -20 -143 -19 -32 -34 -39 -84 -45
-21 -2 -33 17 -118 183 -91 176 -163 342 -163 374 0 18 172 145 366 269 82 53
167 110 188 127 22 16 42 30 45 30 3 0 17 -16 31 -34z m-5028 -135 c324 -218
334 -225 330 -247 -9 -49 -74 -196 -163 -369 -105 -205 -117 -219 -164 -175
-16 15 -24 36 -27 73 -2 29 -13 70 -23 91 -10 22 -19 53 -19 70 -1 23 -6 32
-21 33 -14 2 -36 -18 -75 -68 -30 -39 -84 -102 -119 -140 l-64 -69 -51 6 c-73
9 -89 -8 -127 -131 -81 -261 -197 -819 -244 -1170 -9 -66 -27 -190 -41 -275
-13 -86 -24 -161 -24 -168 0 -25 103 65 169 148 62 78 240 320 319 435 l33 47
69 -6 c52 -5 76 -3 98 8 28 14 31 14 64 -12 132 -102 839 -723 846 -741 2 -5
-12 -11 -30 -13 -67 -10 -455 -90 -523 -109 -38 -10 -110 -25 -160 -33 -79
-13 -424 -83 -720 -146 -55 -11 -219 -43 -365 -70 -146 -26 -272 -51 -281 -55
-18 -7 -20 -4 -161 220 -130 206 -182 292 -208 346 l-22 46 61 109 c33 60 81
154 105 209 196 442 296 668 341 775 29 69 109 254 177 411 140 322 131 307
428 689 105 135 216 279 247 320 78 103 95 121 110 116 7 -3 113 -73 235 -155z
m1745 -1556 c39 -44 155 -177 258 -295 103 -118 214 -246 247 -283 33 -37 75
-92 93 -122 29 -49 33 -53 39 -33 7 30 83 125 239 300 70 79 196 225 280 325
83 100 157 182 163 182 6 1 24 -9 39 -21 22 -17 31 -19 46 -10 29 19 39 15 80
-32 44 -49 87 -70 183 -87 103 -17 211 1 313 53 l82 42 68 -24 c94 -32 492
-185 525 -202 16 -7 28 -16 28 -19 0 -10 -31 -20 -41 -13 -10 6 -338 -309
-918 -881 -200 -198 -398 -393 -439 -433 -41 -40 -77 -72 -81 -70 -3 2 -87 86
-186 188 -99 102 -193 195 -209 208 -17 12 -39 37 -50 55 -10 17 -30 48 -43
68 -13 19 -32 77 -44 129 -21 100 -26 112 -33 89 -2 -8 -17 -52 -32 -99 -42
-134 -67 -173 -198 -313 -67 -73 -154 -172 -193 -222 -86 -109 -107 -130 -125
-119 -7 5 -20 9 -28 10 -8 1 -107 96 -220 211 -113 115 -272 272 -355 348 -82
76 -177 164 -210 195 -33 31 -121 112 -195 180 -74 68 -173 160 -220 204 -139
132 -251 227 -286 244 -19 9 -34 19 -34 22 0 4 35 21 78 38 195 77 293 116
367 147 152 63 154 63 227 19 80 -50 122 -62 228 -70 132 -10 244 28 331 113
45 44 47 45 71 29 23 -15 26 -15 48 9 13 14 27 24 30 23 4 -2 39 -39 77 -83z
m-572 -1597 c28 -34 118 -132 200 -218 83 -85 187 -193 230 -240 44 -47 132
-139 195 -205 63 -66 173 -183 245 -260 117 -127 300 -285 331 -285 28 0 240
206 427 415 89 99 261 286 382 415 121 129 261 281 310 338 73 84 94 102 110
96 11 -3 56 -14 100 -24 44 -10 100 -23 125 -29 25 -6 77 -11 115 -11 125 -1
122 8 42 -143 -38 -73 -88 -170 -109 -217 -22 -47 -48 -94 -58 -105 -10 -11
-79 -110 -152 -220 -264 -395 -345 -505 -611 -832 -59 -73 -116 -150 -128
-172 -18 -36 -19 -42 -6 -68 8 -15 93 -102 188 -193 96 -91 196 -188 224 -216
27 -28 67 -63 89 -79 l39 -29 -8 32 c-7 33 -71 194 -139 350 -20 46 -39 102
-42 123 -7 39 -6 41 79 123 102 100 153 140 166 131 6 -3 59 -83 117 -178 95
-152 176 -285 499 -817 45 -74 146 -238 223 -364 78 -126 142 -234 142 -241 0
-7 -51 -61 -112 -121 -62 -59 -184 -179 -272 -266 -87 -87 -161 -158 -165
-158 -3 0 -65 59 -136 131 -72 72 -197 194 -280 272 -82 78 -379 364 -658 635
l-509 495 -56 -55 c-31 -30 -156 -148 -277 -263 -340 -323 -404 -385 -635
-610 -119 -115 -276 -267 -350 -336 -74 -69 -168 -156 -208 -194 l-73 -69
-270 270 c-148 148 -269 271 -269 275 0 11 350 587 833 1368 66 107 125 208
132 224 l12 29 126 -133 c70 -73 127 -138 127 -144 0 -30 -116 -289 -183 -405
-42 -74 -74 -136 -72 -139 6 -5 69 51 273 244 87 83 179 166 205 185 47 36
137 141 137 161 0 6 -23 36 -51 67 -27 30 -86 105 -130 166 -44 61 -110 153
-147 205 -37 51 -127 172 -200 270 -260 345 -503 720 -536 828 -4 12 -25 55
-47 94 -21 40 -37 74 -34 77 3 3 51 9 108 13 56 5 152 21 212 37 61 16 115 30
120 30 6 1 33 -26 60 -60z"/>
<path d="M4650 7897 c4 -98 9 -139 20 -153 8 -10 60 -69 115 -129 88 -98 234
-264 308 -350 l26 -30 99 105 c54 58 119 129 143 157 24 29 87 101 139 160
l95 107 6 100 c3 56 10 111 14 124 4 12 5 22 2 22 -9 0 -145 -79 -266 -154
-64 -40 -139 -85 -168 -101 l-51 -27 -34 25 c-18 13 -51 34 -73 45 -22 11
-116 68 -209 126 -92 58 -169 106 -170 106 0 0 1 -60 4 -133z"/>
</g>
</svg>
