<?xml version="1.0" standalone="no"?>
<!DOCTYPE svg PUBLIC "-//W3C//DTD SVG 20010904//EN"
 "http://www.w3.org/TR/2001/REC-SVG-20010904/DTD/svg10.dtd">
<svg version="1.0" xmlns="http://www.w3.org/2000/svg"
 width="1024" height="1024" viewBox="0 0 1024 1024"
 preserveAspectRatio="xMidYMid meet">
  <rect width="1024" height="1024" fill="white"/>
<metadata>
Created by potrace 1.16, written by Peter Selinger 2001-2019
</metadata>
<g transform="translate(0.000000,1024.000000) scale(0.100000,-0.100000)"
fill="#000000" stroke="none">
<path d="M0 5120 l0 -5120 5120 0 5120 0 0 5120 0 5120 -5120 0 -5120 0 0
-5120z m5161 3992 c14 -20 108 -152 209 -292 101 -140 231 -320 288 -400 57
-80 134 -185 171 -235 37 -49 92 -125 122 -168 30 -43 90 -127 134 -188 44
-60 98 -149 120 -197 21 -48 40 -88 41 -90 1 -2 183 87 403 196 260 129 400
194 397 183 -10 -32 -76 -320 -130 -561 -30 -135 -75 -335 -101 -445 -25 -110
-61 -270 -80 -355 -18 -85 -55 -243 -80 -350 -47 -200 -153 -666 -228 -1005
l-43 -190 -59 -58 c-33 -32 -100 -95 -150 -139 -49 -43 -126 -112 -170 -152
-86 -78 -240 -216 -406 -361 -56 -49 -157 -139 -224 -200 -67 -60 -154 -138
-194 -173 l-71 -64 -198 179 c-108 98 -251 225 -316 283 -66 58 -161 143 -211
190 -51 47 -170 155 -265 240 -95 85 -195 175 -221 200 l-49 45 -60 270 c-33
149 -69 308 -80 355 -10 47 -38 170 -60 274 -22 104 -43 192 -45 196 -3 4 -36
151 -75 326 -38 176 -84 378 -100 449 -16 72 -41 184 -55 250 -25 116 -50 228
-121 540 -36 158 -53 228 -61 258 -4 14 104 -36 394 -182 l398 -201 5 48 c4
41 17 63 89 158 46 60 163 215 259 344 190 255 217 291 432 575 79 105 159
215 179 245 50 76 173 240 180 240 3 -1 18 -17 32 -38z m-1732 -4374 l490
-486 -40 -37 c-89 -80 -295 -191 -337 -180 -28 7 -235 214 -279 278 -52 78
-91 127 -152 193 -78 83 -88 81 -179 -34 -60 -76 -97 -121 -187 -227 -14 -16
-35 -44 -48 -62 -33 -47 -145 -182 -188 -228 -44 -47 -111 -154 -103 -166 7
-12 48 -11 60 0 5 5 54 33 109 62 55 28 116 63 135 78 31 23 112 77 161 106 9
6 55 36 102 68 77 52 137 73 137 47 0 -5 22 -35 50 -67 27 -32 81 -95 120
-141 l70 -83 -37 -52 c-76 -109 -119 -164 -173 -222 -140 -152 -300 -358 -300
-387 0 -18 180 94 245 152 39 36 239 186 287 217 21 13 77 58 125 101 77 67
152 131 217 182 10 8 51 42 90 76 39 33 109 85 155 114 l83 53 81 -89 c44 -49
111 -119 148 -156 48 -48 64 -70 55 -75 -7 -5 -90 -90 -185 -190 -94 -100
-195 -198 -223 -219 -63 -44 -86 -69 -144 -154 -46 -67 -79 -111 -224 -296
-87 -111 -114 -146 -200 -272 -49 -70 -66 -109 -34 -78 8 9 43 37 77 63 34 26
107 84 163 128 100 79 334 262 359 279 13 10 76 -40 235 -185 117 -108 606
-546 655 -588 22 -18 95 -85 162 -147 93 -88 128 -114 149 -114 19 0 49 21
111 77 47 43 122 109 167 147 44 38 126 110 181 161 55 50 125 112 155 139 30
27 134 119 230 205 292 260 318 281 339 281 20 0 188 -123 401 -293 113 -90
218 -163 225 -156 8 9 -134 206 -333 462 -18 23 -63 85 -99 137 -82 118 -96
133 -158 180 -68 52 -209 193 -332 332 l-101 115 26 24 c15 14 82 81 148 151
l121 126 42 -23 c22 -13 41 -22 41 -19 0 5 114 -89 130 -106 8 -10 180 -153
215 -181 19 -14 46 -38 62 -55 32 -33 168 -146 222 -184 38 -27 193 -144 294
-223 54 -42 146 -97 162 -97 13 0 1 24 -51 101 -31 46 -77 107 -104 134 -55
59 -285 332 -318 380 -16 22 -21 39 -15 48 7 13 105 126 231 265 l33 37 44
-25 c24 -14 107 -65 184 -115 77 -49 163 -103 191 -120 29 -16 60 -37 69 -45
22 -20 147 -80 166 -80 36 0 6 64 -75 160 -25 30 -57 69 -70 87 -69 88 -248
303 -262 313 -4 3 -11 17 -16 31 -10 25 -126 177 -147 191 -5 4 -18 5 -27 2
-26 -8 -134 -123 -208 -222 -35 -48 -117 -141 -182 -207 l-117 -120 -105 53
c-60 31 -141 82 -187 119 l-80 66 493 488 c311 309 500 489 512 489 12 0 102
-81 230 -207 116 -114 269 -264 340 -333 72 -69 166 -161 210 -205 287 -284
536 -525 545 -525 6 0 11 -11 11 -25 0 -24 -31 -67 -178 -253 -29 -37 -66 -85
-82 -107 -63 -84 -147 -190 -206 -259 -33 -39 -80 -96 -105 -128 -24 -31 -100
-122 -169 -203 -69 -80 -141 -166 -160 -189 -19 -24 -76 -90 -126 -147 -49
-57 -105 -124 -124 -149 -19 -25 -53 -65 -75 -90 -22 -25 -67 -78 -100 -118
-46 -55 -82 -86 -155 -131 -160 -99 -740 -438 -880 -516 -47 -25 -137 -77
-200 -116 -63 -38 -158 -92 -210 -121 -52 -28 -140 -79 -195 -113 -55 -34
-131 -80 -170 -102 -38 -22 -110 -65 -160 -94 -49 -29 -125 -72 -169 -95 l-78
-43 -62 31 c-64 32 -257 144 -491 286 -124 75 -316 188 -615 360 -52 30 -133
77 -180 104 -47 27 -112 65 -145 85 -33 20 -136 81 -230 136 -93 55 -216 129
-272 164 -57 35 -108 63 -113 63 -6 0 -23 15 -38 32 -15 18 -74 86 -132 151
-58 65 -122 139 -143 165 -21 26 -62 72 -91 102 -29 30 -104 118 -166 195 -63
77 -145 178 -184 224 -39 46 -98 118 -131 161 -33 42 -91 114 -130 159 -38 46
-77 93 -85 105 -59 84 -184 242 -233 296 -56 62 -86 108 -101 157 -6 19 -2 25
26 36 29 13 324 299 1108 1075 141 139 190 182 207 180 13 -2 210 -190 512
-490z"/>
<path d="M3794 6763 c24 -49 46 -101 50 -117 11 -47 47 -119 74 -148 14 -15
23 -31 19 -34 -3 -4 13 -20 36 -37 23 -17 105 -94 183 -172 l141 -142 84 -21
c47 -12 95 -22 107 -22 24 0 108 -39 155 -72 24 -18 27 -25 27 -81 0 -154 -39
-452 -80 -615 l-20 -77 28 -23 c195 -164 231 -204 435 -470 42 -56 81 -102 85
-102 9 0 152 170 223 264 65 87 187 214 269 281 l70 58 -6 51 c-3 28 -15 76
-26 106 -31 87 -68 361 -68 515 l0 50 98 61 c56 35 141 76 202 98 95 35 110
43 160 96 65 68 135 123 205 160 28 14 51 28 52 31 7 20 34 80 75 167 26 57
48 109 48 115 0 7 17 47 39 90 21 42 34 77 29 77 -13 0 -184 -65 -318 -120
-63 -26 -194 -80 -290 -119 -96 -40 -233 -98 -305 -130 -71 -32 -157 -70 -190
-84 l-60 -26 -3 -168 c-3 -165 24 -542 50 -695 l11 -66 -32 -41 c-33 -42 -201
-181 -219 -181 -5 0 -32 19 -58 43 -56 49 -184 147 -193 147 -8 0 -5 54 15
220 30 268 33 308 40 521 l7 216 -29 11 c-16 6 -96 41 -179 77 -262 117 -446
195 -590 251 -77 30 -188 75 -246 99 -155 65 -157 64 -105 -42z"/>
</g>
</svg>
