<?xml version="1.0" standalone="no"?>
<!DOCTYPE svg PUBLIC "-//W3C//DTD SVG 20010904//EN"
 "http://www.w3.org/TR/2001/REC-SVG-20010904/DTD/svg10.dtd">
<svg version="1.0" xmlns="http://www.w3.org/2000/svg"
 width="1024" height="1024" viewBox="0 0 1024 1024"
 preserveAspectRatio="xMidYMid meet">
  <rect width="1024" height="1024" fill="white"/>
<metadata>
Created by potrace 1.16, written by Peter Selinger 2001-2019
</metadata>
<g transform="translate(0.000000,1024.000000) scale(0.100000,-0.100000)"
fill="#000000" stroke="none">
<path d="M0 5120 l0 -5120 5120 0 5120 0 0 5120 0 5120 -5120 0 -5120 0 0
-5120z m5207 4264 c48 -37 151 -117 228 -179 77 -61 213 -168 301 -236 89 -68
173 -133 187 -144 l25 -20 -14 -134 c-8 -73 -32 -274 -54 -446 l-39 -312 -133
-130 c-73 -71 -235 -227 -361 -347 l-227 -218 -338 330 c-185 181 -344 338
-353 348 -9 11 -21 58 -28 114 -7 52 -23 163 -37 245 -13 83 -28 184 -34 225
-6 41 -18 118 -25 170 -23 156 -40 128 181 307 154 124 622 489 631 492 1 1
41 -29 90 -65z m-630 -2108 c274 -264 528 -494 539 -488 7 4 160 144 342 313
l330 305 318 -53 c176 -29 474 -73 664 -98 190 -25 365 -49 390 -53 43 -7 57
-19 330 -301 157 -162 375 -389 485 -505 110 -116 323 -337 475 -491 151 -154
310 -317 355 -363 l80 -83 -65 -62 c-88 -84 -888 -868 -1589 -1559 -554 -545
-576 -566 -588 -543 -7 12 -32 74 -56 136 -25 63 -93 226 -152 363 l-107 249
27 58 c15 31 37 68 49 82 l21 25 180 -13 c99 -8 205 -14 235 -14 l55 -1 416
413 c228 226 525 520 658 652 l243 240 -89 85 c-49 47 -163 150 -253 230 -91
79 -237 210 -325 290 -88 80 -250 224 -360 320 -110 96 -266 234 -346 306
l-145 132 -265 -276 c-145 -153 -318 -333 -384 -402 -66 -69 -262 -273 -435
-455 -173 -181 -354 -370 -401 -420 l-88 -89 -123 125 c-68 69 -341 354 -608
634 -778 817 -823 864 -835 869 -6 2 -51 -32 -101 -76 -84 -76 -196 -174 -484
-424 -69 -59 -284 -250 -479 -423 -195 -174 -380 -338 -412 -366 l-58 -50 212
-210 c117 -116 307 -303 422 -416 116 -114 317 -316 449 -449 l238 -243 237
16 236 16 19 -22 c21 -25 76 -131 76 -147 0 -6 -36 -97 -81 -203 -44 -106
-114 -276 -156 -380 l-75 -187 -37 32 c-51 45 -1001 978 -1271 1249 -124 124
-382 380 -574 568 l-348 341 55 63 c30 34 196 206 368 382 171 176 436 451
588 610 151 160 358 374 459 476 l183 186 77 12 c42 7 199 30 347 51 414 61
965 155 992 169 0 1 63 -59 140 -133z m-1102 -1241 c69 -100 406 -537 590
-766 86 -107 261 -324 389 -484 349 -434 402 -499 511 -630 55 -66 112 -135
126 -153 l26 -34 124 153 c68 83 183 224 254 313 72 89 227 280 345 426 407
502 919 1151 987 1249 4 6 122 -74 377 -257 127 -91 285 -203 351 -249 66 -47
126 -90 132 -96 10 -10 2 -25 -34 -70 -26 -31 -53 -57 -61 -57 -11 0 -223 83
-650 256 l-83 33 -190 -387 c-257 -524 -569 -1147 -652 -1301 -68 -124 -347
-618 -499 -881 -43 -74 -149 -260 -235 -412 -87 -153 -160 -277 -163 -277 -3
0 -43 66 -89 147 -46 81 -250 437 -453 792 -367 640 -614 1112 -852 1625 -43
94 -137 288 -209 432 l-129 261 -132 -55 c-72 -31 -239 -98 -371 -150 l-239
-94 -21 28 c-11 15 -35 45 -54 66 -19 21 -32 39 -30 41 2 2 78 55 169 117 176
120 490 342 623 440 44 33 83 56 87 52 3 -4 28 -39 55 -78z m1138 -3319 c-19
-33 -405 -602 -634 -934 -145 -210 -358 -519 -474 -686 l-210 -305 -217 0
c-126 -1 -218 3 -218 8 0 12 112 254 245 531 57 118 157 334 223 480 307 679
443 972 606 1304 l176 359 255 -373 c140 -205 252 -378 248 -384z m1681 431
c88 -177 207 -428 266 -557 223 -488 409 -887 670 -1436 l167 -351 -105 -7
c-58 -3 -160 -6 -227 -6 l-121 0 -86 128 c-47 70 -167 244 -265 387 -579 841
-963 1407 -963 1420 0 2 87 132 193 287 105 156 217 322 247 370 30 48 57 87
60 87 3 1 77 -144 164 -322z"/>
<path d="M4462 8711 c12 -16 194 -218 363 -401 33 -36 73 -79 88 -96 27 -30
78 -187 182 -559 l22 -80 11 40 c6 22 18 69 27 105 9 36 48 160 86 275 l69
210 235 260 c129 143 231 261 227 263 -5 1 -98 -24 -208 -57 -109 -33 -251
-73 -314 -90 l-114 -31 -191 51 c-104 28 -252 68 -329 90 -162 45 -173 47
-154 20z"/>
</g>
</svg>
