<?xml version="1.0" standalone="no"?>
<!DOCTYPE svg PUBLIC "-//W3C//DTD SVG 20010904//EN"
 "http://www.w3.org/TR/2001/REC-SVG-20010904/DTD/svg10.dtd">
<svg version="1.0" xmlns="http://www.w3.org/2000/svg"
 width="1024" height="1024" viewBox="0 0 1024 1024"
 preserveAspectRatio="xMidYMid meet">
  <rect width="1024" height="1024" fill="white"/>
<metadata>
Created by potrace 1.16, written by Peter Selinger 2001-2019
</metadata>
<g transform="translate(0.000000,1024.000000) scale(0.100000,-0.100000)"
fill="#000000" stroke="none">
<path d="M0 5120 l0 -5120 5120 0 5120 0 0 5120 0 5120 -5120 0 -5120 0 0
-5120z m5240 3947 c52 -46 136 -119 186 -163 51 -43 134 -117 185 -163 52 -46
113 -101 137 -122 23 -21 42 -43 42 -49 0 -13 -205 -148 -387 -255 -121 -71
-134 -81 -142 -114 -6 -20 -22 -85 -37 -146 -15 -60 -31 -115 -35 -121 -17
-22 -84 -35 -120 -23 -19 7 -38 15 -42 19 -4 4 -14 54 -22 111 -26 195 -28
202 -93 244 -161 106 -432 298 -432 306 0 5 5 9 10 9 6 0 10 8 11 18 0 9 24
37 54 62 98 82 337 294 432 383 125 115 127 115 253 4z m-677 -751 c154 -131
232 -209 264 -263 21 -37 24 -50 18 -97 -12 -96 -4 -111 77 -142 39 -15 88
-42 108 -60 41 -38 61 -42 81 -18 20 24 103 63 172 80 109 27 107 24 107 126
l0 89 55 59 c31 32 79 76 108 98 81 63 257 192 262 192 3 0 5 -7 5 -15 0 -8 5
-15 10 -15 16 0 1 -423 -17 -490 -8 -30 -38 -107 -66 -172 l-51 -116 -135 -84
c-75 -47 -203 -124 -285 -172 -129 -77 -152 -87 -176 -80 -15 5 -151 83 -302
173 l-275 164 -23 101 c-12 56 -33 130 -47 166 -22 58 -25 90 -35 313 -10 213
-10 250 3 258 8 5 16 9 17 9 2 0 59 -47 125 -104z m1848 -148 c27 17 45 15
155 -18 54 -16 212 -61 349 -100 138 -39 343 -100 457 -137 l208 -66 114 -191
c62 -105 155 -263 206 -351 51 -88 124 -211 162 -274 l70 -115 -22 -35 c-12
-20 -29 -53 -38 -74 -20 -46 47 -51 -533 37 -240 36 -448 66 -462 66 -23 0
-34 15 -103 148 -150 288 -326 593 -576 1002 -26 41 -49 85 -53 98 -6 21 -5
22 20 10 21 -9 31 -9 46 0z m-2689 -60 c3 -48 -5 -66 -82 -195 -138 -228 -212
-384 -337 -713 -110 -288 -123 -323 -123 -346 0 -24 -7 -27 -650 -300 -59 -25
-85 -30 -75 -14 3 6 -2 10 -13 10 -14 0 -38 30 -83 106 -35 58 -83 124 -106
145 l-43 39 59 113 c78 147 152 309 277 607 l103 245 83 23 c196 55 595 178
767 236 102 35 194 64 204 65 11 1 18 -7 19 -21z m2436 -237 c33 -43 90 -130
127 -192 88 -145 246 -464 275 -554 13 -38 33 -91 46 -117 35 -70 32 -86 -32
-148 -31 -30 -101 -111 -157 -180 -151 -188 -148 -185 -591 -630 -227 -228
-465 -470 -530 -538 -88 -93 -120 -120 -132 -114 -8 5 -40 37 -71 73 -31 35
-154 166 -274 290 -121 125 -219 232 -219 238 0 15 182 264 359 491 172 219
321 420 321 430 0 5 75 63 168 131 92 68 241 179 332 248 91 68 166 125 168
126 2 2 12 40 23 86 11 46 33 125 49 176 16 50 37 124 45 165 19 85 23 98 29
98 2 0 31 -35 64 -79z m-1994 -121 c31 -93 61 -198 67 -235 l13 -66 358 -260
c197 -144 358 -262 358 -264 0 -21 -613 -756 -626 -751 -6 2 -76 55 -154 118
-155 123 -700 658 -700 687 0 18 4 25 74 143 55 94 426 651 495 745 25 33 49
59 53 57 4 -3 32 -81 62 -174z m3106 -1156 c74 -14 173 -36 220 -50 47 -13
175 -50 284 -82 l199 -57 28 -75 c46 -122 54 -96 -129 -420 -89 -159 -230
-368 -246 -366 -8 1 -95 85 -195 188 l-181 186 -54 158 c-29 88 -63 186 -74
219 -38 114 -36 325 3 325 6 0 71 -12 145 -26z m-3776 -68 c44 -30 199 -141
342 -247 144 -107 320 -234 390 -284 71 -49 138 -99 149 -110 11 -11 186 -201
388 -423 203 -221 373 -402 378 -402 12 0 616 602 729 725 84 92 396 355 679
572 165 127 221 161 221 135 0 -14 -279 -604 -358 -755 -43 -84 -105 -193
-138 -243 -59 -91 -60 -92 -217 -198 -149 -100 -324 -224 -755 -534 -101 -73
-190 -132 -199 -132 -8 0 -36 17 -62 38 -135 113 -441 333 -708 511 -167 111
-303 206 -303 211 0 4 -32 57 -72 117 -118 178 -263 423 -329 554 -54 108
-239 507 -239 516 0 12 34 -4 104 -51z m-330 -103 c36 -87 34 -156 -9 -318
-19 -71 -61 -197 -95 -280 -77 -190 -95 -211 -229 -256 -53 -17 -129 -45 -169
-60 l-73 -29 -58 29 c-80 41 -123 94 -209 257 -60 114 -72 143 -66 169 8 39
61 149 83 170 20 20 582 303 688 346 43 17 82 36 88 40 13 12 19 3 49 -68z
m5231 -461 c75 -56 433 -416 538 -539 42 -50 75 -97 72 -105 -3 -7 -11 -119
-20 -248 -14 -229 -27 -366 -66 -735 -36 -337 -40 -370 -60 -407 -10 -20 -19
-44 -19 -53 0 -21 3 -23 -120 62 -58 39 -168 113 -245 165 l-139 93 -96 220
c-53 121 -157 361 -230 534 -122 285 -132 315 -120 335 8 11 57 104 110 206
171 329 255 480 267 480 7 0 20 11 30 24 20 27 17 28 98 -32z m-6394 -267 c75
-154 265 -572 276 -607 3 -10 -18 -73 -47 -140 -92 -218 -300 -767 -368 -971
l-66 -198 -51 -37 c-27 -20 -75 -57 -105 -81 -30 -25 -92 -69 -138 -99 -110
-72 -122 -69 -145 35 -29 131 -66 378 -87 583 -35 340 -58 570 -71 722 l-12
147 105 158 c127 191 302 429 451 616 l110 139 35 -54 c19 -29 69 -125 113
-213z m4109 -817 c0 -12 -11 -33 -24 -47 -13 -15 -146 -181 -295 -371 -362
-459 -423 -532 -576 -683 l-130 -128 -85 88 c-167 172 -372 406 -442 506 -61
88 -303 405 -384 504 -22 27 -25 39 -19 69 6 34 8 36 38 30 41 -8 239 -96 357
-158 103 -54 266 -158 410 -263 87 -62 122 -77 135 -55 3 5 101 67 218 137
288 173 722 392 780 393 11 0 17 -8 17 -22z m1699 -126 c32 -64 102 -197 155
-295 53 -97 96 -188 96 -200 0 -19 -22 -35 -132 -94 -186 -99 -187 -99 -236
-74 -43 22 -172 156 -172 179 0 8 24 111 54 231 30 119 60 241 66 271 9 49 15
58 52 82 23 15 46 24 50 22 5 -3 35 -58 67 -122z m-5181 -83 c40 -47 70 -97
92 -157 l20 -53 -30 -251 c-17 -138 -30 -259 -30 -270 0 -11 -7 -18 -20 -18
-11 0 -29 -9 -41 -21 -25 -25 -40 -24 -184 15 -148 39 -275 107 -275 146 0 29
204 586 227 619 3 5 114 18 171 20 37 1 47 -4 70 -30z m3840 -40 c9 -17 104
-162 211 -322 153 -230 201 -311 227 -381 31 -81 67 -156 104 -213 12 -19 11
-29 -8 -85 -11 -35 -37 -123 -56 -195 -52 -194 -90 -300 -163 -450 -60 -123
-67 -133 -92 -133 -16 0 -36 9 -46 20 -28 31 -176 129 -347 229 -86 51 -170
107 -187 124 -52 55 -135 159 -211 262 -40 55 -102 135 -137 178 -35 44 -63
83 -63 87 0 5 22 35 48 67 102 123 531 652 595 734 37 48 67 92 67 98 0 24 41
10 58 -20z m-2628 -39 c0 -5 7 -10 16 -10 9 0 22 -6 28 -14 112 -143 391 -516
452 -607 l82 -121 -44 -78 c-24 -44 -67 -126 -95 -182 -65 -130 -237 -417
-342 -571 -70 -102 -84 -118 -104 -114 -15 3 -23 -1 -23 -10 0 -28 -26 -6
-109 93 -101 120 -192 246 -367 506 l-133 197 48 93 c27 51 64 129 82 173 36
90 144 253 327 493 110 145 126 162 153 162 16 0 29 -4 29 -10z m4434 -638
c12 -10 57 -40 101 -67 158 -96 325 -233 325 -267 0 -23 -211 -230 -300 -294
-73 -54 -100 -56 -175 -18 -33 17 -108 48 -167 69 l-106 39 -54 74 c-29 41
-72 100 -96 130 -34 44 -39 58 -28 64 8 5 12 16 9 27 -7 26 15 39 234 147 94
47 177 91 183 99 17 20 49 19 74 -3z m-6175 -298 c71 -60 217 -338 223 -424 3
-43 2 -45 -27 -48 -16 -2 -34 -9 -40 -16 -16 -20 -204 -86 -246 -86 -69 0
-379 176 -379 216 0 6 9 19 20 29 12 10 19 24 16 30 -8 21 218 229 333 307 36
25 64 22 100 -8z m977 -252 c6 -4 78 -108 161 -232 83 -124 212 -312 287 -419
75 -107 136 -204 136 -215 0 -34 -29 -274 -45 -371 -8 -49 -21 -155 -30 -235
-8 -80 -20 -171 -27 -202 -11 -54 -13 -56 -34 -45 -19 10 -399 419 -570 613
l-54 61 0 75 c0 42 5 100 10 129 15 77 110 748 110 775 0 55 26 86 56 66z
m4243 -461 c29 -163 64 -347 78 -410 15 -70 23 -128 19 -150 -6 -40 -94 -247
-176 -413 -75 -154 -68 -160 -254 212 l-148 298 64 104 c86 139 123 225 202
473 37 116 69 216 71 222 3 9 17 5 47 -13 l43 -26 54 -297z m-1072 -245 c59
-36 169 -110 243 -163 158 -115 140 -89 301 -443 61 -135 120 -257 130 -272
32 -45 25 -62 -48 -114 -38 -26 -210 -155 -384 -285 -173 -130 -325 -240 -337
-243 -15 -5 -23 -3 -26 6 -2 7 -34 105 -70 218 -36 113 -77 251 -91 308 -14
56 -37 139 -51 183 l-25 81 44 156 c25 87 68 263 96 392 29 129 54 241 56 247
6 18 35 5 162 -71z m-2214 -33 c73 -146 170 -517 197 -757 23 -197 24 -267 9
-406 -17 -144 -23 -145 -195 -40 -35 22 -90 53 -124 70 l-60 30 1 333 c1 182
4 397 8 477 l6 145 64 98 c35 53 65 97 67 97 2 0 14 -21 27 -47z m-946 -899
c83 -90 301 -298 541 -517 59 -53 107 -102 107 -108 0 -6 8 -16 17 -23 14 -10
-112 -12 -655 -9 -369 2 -678 5 -686 6 -13 2 213 320 432 606 86 112 112 141
132 141 17 0 47 -26 112 -96z m4235 -136 c57 -51 170 -150 250 -220 80 -70
195 -175 255 -232 l108 -105 -420 -2 c-231 -1 -530 -4 -665 -8 -135 -3 -284
-5 -332 -3 l-88 3 48 47 c26 26 88 82 137 124 50 43 139 121 200 174 60 52
137 115 170 140 91 66 183 147 184 162 1 6 12 12 25 12 15 0 59 -31 128 -92z"/>
</g>
</svg>
