<?xml version="1.0" standalone="no"?>
<!DOCTYPE svg PUBLIC "-//W3C//DTD SVG 20010904//EN"
 "http://www.w3.org/TR/2001/REC-SVG-20010904/DTD/svg10.dtd">
<svg version="1.0" xmlns="http://www.w3.org/2000/svg"
 width="1024" height="1024" viewBox="0 0 1024 1024"
 preserveAspectRatio="xMidYMid meet">
  <rect width="1024" height="1024" fill="white"/>
<metadata>
Created by potrace 1.16, written by Peter Selinger 2001-2019
</metadata>
<g transform="translate(0.000000,1024.000000) scale(0.100000,-0.100000)"
fill="#000000" stroke="none">
<path d="M0 5120 l0 -5120 5120 0 5120 0 0 5120 0 5120 -5120 0 -5120 0 0
-5120z m5586 3869 c509 -50 1053 -242 1379 -488 107 -81 243 -200 287 -253 24
-29 84 -98 134 -155 84 -95 280 -370 271 -379 -2 -2 -39 3 -83 11 -43 8 -153
26 -244 41 -91 15 -232 42 -315 61 -232 53 -201 54 -297 -18 -136 -103 -248
-202 -486 -431 -118 -113 -142 -141 -137 -158 4 -12 61 -137 127 -278 66 -141
149 -318 183 -393 35 -75 84 -177 109 -227 25 -51 46 -96 46 -101 0 -9 -377
-384 -805 -801 -104 -102 -249 -243 -322 -314 -102 -100 -136 -127 -150 -122
-31 12 -668 397 -981 593 -9 6 7 94 73 387 47 209 87 381 89 383 5 6 73 -83
531 -692 274 -366 315 -418 322 -412 2 2 -53 284 -122 626 -69 342 -125 624
-125 628 0 6 175 -2 255 -12 22 -3 -72 33 -210 80 -224 75 -752 222 -1241 345
l-171 43 -39 -30 c-22 -17 -150 -112 -285 -211 -301 -220 -641 -471 -653 -482
-11 -11 64 -109 186 -242 l97 -107 -246 -245 -246 -245 -216 191 c-119 105
-227 201 -239 213 l-24 22 213 269 c117 148 319 402 449 565 129 163 327 414
440 557 l205 261 670 0 c369 1 747 4 840 6 152 5 173 4 196 -12 14 -10 179
-162 365 -339 389 -368 830 -768 809 -734 -5 8 -81 112 -170 230 -89 118 -291
396 -449 618 l-288 403 89 92 c139 144 246 283 456 589 l87 126 -107 133 c-60
73 -171 198 -248 276 -77 79 -135 143 -129 143 6 0 60 -5 120 -11z m1388
-1435 l170 -67 -35 -29 c-47 -40 -181 -128 -194 -128 -14 0 -205 194 -205 208
0 10 79 81 90 82 3 0 81 -30 174 -66z m335 -211 c0 -122 -23 -294 -43 -328
-43 -75 -228 -353 -288 -432 l-40 -52 -41 26 c-41 26 -302 262 -302 274 0 3
97 86 215 183 193 160 388 322 459 383 14 12 29 23 34 23 4 0 7 -35 6 -77z
m1266 -1063 c64 -151 126 -293 136 -315 l20 -40 -33 -28 c-43 -37 -148 -107
-161 -107 -5 0 -44 -25 -87 -55 -43 -30 -82 -55 -87 -55 -5 0 -24 39 -42 88
-19 48 -54 123 -77 167 -49 90 -236 487 -232 491 11 9 434 140 439 135 4 -3
59 -130 124 -281z m-405 -470 c90 -89 161 -162 159 -163 -2 -2 -30 -20 -63
-41 -32 -21 -124 -93 -205 -160 -80 -67 -184 -150 -231 -186 -93 -70 -420
-326 -514 -402 l-59 -47 -56 38 c-31 21 -186 120 -346 221 -225 142 -460 293
-555 358 -2 1 7 13 22 25 26 22 203 220 362 405 48 56 91 102 95 102 4 0 30
-24 57 -52 169 -183 398 -418 406 -418 30 0 600 349 703 431 33 26 61 48 62
48 0 1 74 -71 163 -159z m-3549 -803 c255 -107 583 -244 729 -305 146 -60 524
-217 840 -349 316 -132 601 -250 633 -263 l58 -24 -6 -110 c-3 -61 -8 -181
-11 -267 l-6 -156 -899 -534 c-494 -294 -908 -541 -920 -550 l-22 -17 36 -288
c20 -159 52 -413 72 -564 19 -151 34 -278 33 -282 -2 -4 -214 207 -471 468
-258 261 -467 479 -465 483 2 5 125 101 273 214 279 212 281 214 546 507 94
104 272 307 339 387 25 29 114 89 306 206 149 91 288 173 308 184 l36 18 -103
19 c-195 35 -1315 273 -1604 341 l-112 26 -183 167 c-101 92 -217 199 -258
238 l-74 72 66 99 c36 54 105 154 153 223 48 69 109 160 137 202 50 77 50 77
77 63 15 -7 236 -101 492 -208z m-905 -905 c38 -34 130 -113 205 -175 74 -61
182 -152 240 -202 57 -49 119 -102 137 -116 l33 -25 -248 -210 c-136 -115
-333 -283 -438 -373 -113 -98 -246 -201 -330 -256 -396 -262 -783 -550 -1022
-759 l-93 -81 5 -75 c16 -246 28 -386 33 -396 10 -16 117 -102 179 -144 43
-29 48 -36 33 -42 -11 -4 -139 -8 -286 -9 l-267 -2 -43 134 c-24 74 -65 216
-90 316 l-47 182 49 54 c60 66 282 355 351 457 53 78 312 428 435 587 39 51
80 107 90 125 22 37 87 97 105 98 7 0 66 24 130 54 65 29 169 75 231 101 l112
48 52 111 c76 161 295 591 324 637 29 46 26 47 120 -39z"/>
</g>
</svg>
