<?xml version="1.0" standalone="no"?>
<!DOCTYPE svg PUBLIC "-//W3C//DTD SVG 20010904//EN"
 "http://www.w3.org/TR/2001/REC-SVG-20010904/DTD/svg10.dtd">
<svg version="1.0" xmlns="http://www.w3.org/2000/svg"
 width="1024" height="1024" viewBox="0 0 1024 1024"
 preserveAspectRatio="xMidYMid meet">
  <rect width="1024" height="1024" fill="white"/>
<metadata>
Created by potrace 1.16, written by Peter Selinger 2001-2019
</metadata>
<g transform="translate(0.000000,1024.000000) scale(0.100000,-0.100000)"
fill="#000000" stroke="none">
<path d="M0 5120 l0 -5120 5120 0 5120 0 0 5120 0 5120 -5120 0 -5120 0 0
-5120z m6311 4012 c84 -33 233 -91 329 -131 245 -100 276 -125 661 -531 91
-97 187 -191 212 -210 26 -19 47 -39 47 -45 0 -13 -431 -1147 -442 -1162 -16
-20 -150 -80 -323 -144 -93 -34 -178 -69 -188 -78 -16 -14 -21 -13 -52 4 -28
15 -75 72 -75 91 0 2 19 4 43 4 59 0 146 24 215 59 90 46 234 153 264 196 15
22 68 146 117 275 49 129 117 303 151 385 66 157 113 286 106 292 -9 9 -295
-70 -369 -102 -103 -46 -331 -165 -417 -219 -107 -67 -393 -266 -423 -294 -44
-41 -84 -129 -133 -295 -25 -83 -49 -157 -53 -164 -13 -24 -179 398 -255 650
-39 127 -76 297 -76 345 0 73 99 308 249 592 59 113 139 280 177 372 38 92 71
168 75 168 3 0 75 -26 160 -58z m3369 -778 c0 -3 -40 -130 -89 -282 -49 -153
-113 -351 -142 -442 l-53 -165 -155 -230 c-85 -126 -243 -363 -351 -525 -236
-354 -336 -498 -552 -786 -132 -177 -478 -677 -569 -820 l-20 -32 231 -152
c127 -84 229 -158 227 -164 -2 -6 -19 -10 -38 -9 -19 1 -115 7 -214 14 l-180
11 -125 71 c-157 88 -227 132 -366 229 -104 73 -114 82 -164 165 -30 48 -74
120 -100 158 -68 103 -65 96 -29 83 46 -16 369 -178 463 -232 44 -25 81 -46
82 -46 2 0 -3 17 -10 38 -8 20 -17 61 -21 90 l-7 52 290 433 c159 237 320 486
357 551 37 65 127 207 200 315 147 219 253 390 422 686 63 110 127 216 141
235 62 82 207 232 470 488 249 241 302 288 302 266z m-4738 -133 c74 -22 213
-68 310 -102 l177 -63 6 -41 c24 -150 178 -797 231 -973 36 -118 71 -241 79
-275 l15 -62 -52 -48 c-190 -172 -561 -474 -699 -567 -62 -43 -77 -60 -31 -36
15 7 245 105 512 216 267 111 600 252 741 314 l257 112 11 -50 c6 -28 24 -74
40 -103 34 -62 35 -61 -86 -122 -198 -99 -336 -153 -978 -385 -411 -148 -623
-230 -754 -292 l-115 -54 -140 59 c-78 33 -226 93 -331 134 -104 41 -248 100
-318 131 -70 31 -144 63 -163 71 l-35 14 25 49 c37 73 233 523 321 737 74 180
97 225 116 225 5 0 27 -36 49 -79 118 -236 282 -494 450 -711 62 -80 124 -162
138 -183 14 -20 27 -36 29 -33 7 7 -26 231 -53 357 -33 158 -96 384 -143 516
-21 59 -41 122 -45 139 l-7 31 53 -4 c98 -7 292 -23 348 -29 l55 -5 -69 41
c-139 82 -421 196 -894 361 -330 115 -457 153 -474 143 -7 -5 -112 -87 -234
-184 -122 -96 -291 -230 -375 -297 -85 -67 -200 -165 -257 -218 -65 -61 -109
-94 -118 -91 -52 20 -169 50 -293 76 -79 16 -145 31 -147 33 -5 5 623 686 750
812 72 72 183 174 247 227 l115 96 204 31 c284 42 414 51 800 53 l334 3 134
-240 c73 -132 201 -364 284 -515 188 -343 344 -607 354 -597 2 1 -1 19 -6 38
-5 18 -23 93 -41 164 -17 72 -48 173 -70 225 -21 52 -76 192 -123 311 -46 119
-130 318 -185 443 -56 125 -101 229 -101 231 0 9 16 5 152 -34z m2011 -569
c26 -26 47 -50 47 -55 0 -4 -20 -17 -45 -28 -24 -11 -65 -35 -90 -54 -25 -19
-47 -35 -48 -35 -2 0 -9 53 -16 118 -7 64 -14 132 -16 149 l-4 33 62 -41 c34
-23 83 -62 110 -87z m-4695 -902 c111 -16 203 -30 205 -30 2 0 7 -46 11 -102
12 -187 49 -305 122 -395 l36 -44 -22 -62 c-13 -34 -45 -115 -72 -180 l-50
-117 -31 26 c-48 40 -51 50 -57 174 -6 128 -30 196 -81 233 -23 17 -32 17 -90
7 -105 -19 -165 -52 -256 -142 l-82 -82 -92 -210 c-50 -116 -93 -212 -94 -214
-5 -7 -65 251 -65 281 0 43 105 257 189 387 13 20 6 17 -44 -17 -95 -65 -222
-205 -370 -407 l-80 -109 -9 237 c-4 130 -6 243 -2 251 3 8 65 44 138 81 90
45 151 83 188 118 31 28 98 86 150 129 132 109 166 143 180 177 11 26 24 34
66 39 7 0 102 -12 212 -29z m4143 -767 c-17 -120 -40 -292 -51 -383 l-20 -165
38 -34 c20 -18 127 -106 236 -195 110 -88 213 -173 230 -187 l29 -26 -29 -53
c-32 -59 -100 -138 -145 -171 l-29 -21 -283 160 c-155 87 -317 178 -359 201
-42 23 -79 49 -82 59 -12 38 -36 268 -46 440 -9 141 -8 187 1 198 6 8 99 73
206 146 115 77 222 158 261 197 37 36 68 63 70 59 2 -4 -10 -106 -27 -225z
m-2702 -329 c130 -37 364 -99 520 -138 l283 -72 -623 -311 c-789 -394 -810
-406 -1920 -1064 -212 -126 -401 -232 -420 -236 l-34 -6 44 52 c95 113 419
448 656 676 658 634 838 811 1001 981 172 179 178 184 217 184 22 0 146 -30
276 -66z m1384 -390 c61 -31 140 -72 175 -91 l62 -35 -142 -48 c-231 -78 -222
-65 -84 -111 319 -105 858 -370 1165 -574 54 -36 105 -73 113 -83 18 -20 91
-190 176 -408 l59 -152 -51 -38 c-28 -21 -179 -130 -336 -243 -557 -399 -804
-595 -1021 -811 l-146 -145 4 -65 c4 -57 36 -233 129 -709 30 -157 30 -161 -1
-161 -49 0 -180 131 -669 670 -97 107 -176 199 -176 205 0 11 310 319 442 438
l87 79 138 9 c202 13 395 38 418 54 73 51 74 49 -22 68 -103 21 -414 96 -425
103 -4 3 18 35 49 72 67 79 187 261 258 390 l50 91 60 10 c33 5 76 13 95 15
49 8 471 56 489 56 30 0 0 10 -229 80 -270 81 -729 197 -1070 269 -374 79
-919 177 -1048 188 -40 3 -75 9 -77 13 -5 7 59 89 407 517 l188 232 72 15
c234 51 725 154 736 155 7 1 63 -24 125 -55z m2110 -306 c58 -9 77 -15 77 -27
0 -9 9 -35 19 -58 16 -33 47 -62 170 -154 99 -73 148 -116 142 -123 -4 -6 -73
-90 -152 -187 -79 -96 -158 -193 -175 -215 l-31 -39 -44 13 c-24 7 -51 15 -60
18 -20 7 -94 -103 -112 -167 -8 -29 -22 -49 -39 -58 -24 -14 -30 -13 -89 17
-35 18 -75 40 -89 51 l-24 19 87 114 c47 63 104 141 126 174 51 75 55 80 124
138 l57 48 0 86 c0 78 -15 162 -29 162 -20 0 -109 -77 -136 -118 -44 -65 -124
-130 -136 -111 -18 29 -7 64 65 192 40 73 83 152 96 177 34 67 32 67 153 48z
m-2878 -1063 c94 -53 172 -98 174 -100 27 -27 -811 -930 -908 -980 -26 -12
-149 -64 -276 -115 -285 -114 -637 -286 -856 -418 -213 -128 -688 -442 -713
-470 -27 -31 -107 -442 -95 -487 7 -23 45 -63 142 -147 72 -64 141 -125 151
-137 l19 -21 -89 6 c-49 3 -171 9 -271 13 -101 4 -186 10 -189 14 -12 11 -354
859 -354 877 0 13 74 44 328 138 l327 122 43 53 c55 66 808 834 836 852 12 8
95 25 186 40 243 38 422 74 439 88 32 26 105 155 233 412 75 149 138 282 141
296 l7 26 182 12 c101 7 221 19 268 25 47 7 90 9 95 5 6 -4 87 -50 180 -104z"/>
</g>
</svg>
