<?xml version="1.0" standalone="no"?>
<!DOCTYPE svg PUBLIC "-//W3C//DTD SVG 20010904//EN"
 "http://www.w3.org/TR/2001/REC-SVG-20010904/DTD/svg10.dtd">
<svg version="1.0" xmlns="http://www.w3.org/2000/svg"
 width="1024" height="1024" viewBox="0 0 1024 1024"
 preserveAspectRatio="xMidYMid meet">
  <rect width="1024" height="1024" fill="white"/>
<metadata>
Created by potrace 1.16, written by Peter Selinger 2001-2019
</metadata>
<g transform="translate(0.000000,1024.000000) scale(0.100000,-0.100000)"
fill="#000000" stroke="none">
<path d="M0 5120 l0 -5120 5120 0 5120 0 0 5120 0 5120 -5120 0 -5120 0 0
-5120z m5210 3783 c75 -63 138 -124 288 -280 l42 -44 1 -1312 c1 -722 5 -1297
9 -1279 4 17 26 52 49 77 22 24 85 104 140 177 56 75 148 181 211 243 61 61
142 151 180 200 73 97 151 178 173 181 20 3 705 -690 989 -999 l99 -107 -88
-74 c-48 -40 -153 -136 -232 -212 -100 -96 -146 -134 -149 -124 -3 8 -37 49
-77 90 -39 41 -104 111 -144 155 -40 44 -132 132 -204 197 l-132 116 -74 -81
c-41 -45 -128 -136 -192 -201 l-118 -119 122 -137 c67 -75 131 -148 142 -161
11 -14 16 -19 10 -10 -42 62 171 -141 260 -248 75 -91 235 -310 235 -322 0 -5
3 -9 8 -9 7 0 119 145 162 210 12 19 34 46 49 59 14 13 19 20 11 16 -8 -4 -4
3 10 15 14 12 19 18 11 14 -21 -11 125 179 221 286 47 53 121 126 164 162 43
36 98 82 122 103 l42 37 0 -620 0 -620 -47 -38 c-86 -70 -245 -216 -418 -384
-93 -91 -296 -278 -450 -415 -154 -137 -370 -330 -480 -429 -319 -287 -352
-316 -505 -443 -129 -106 -315 -293 -422 -423 -20 -25 -42 -66 -49 -93 -10
-42 -9 -52 7 -83 13 -23 24 -32 34 -29 8 4 87 47 175 97 246 140 416 259 875
617 410 319 563 443 725 587 178 158 225 198 225 191 0 -2 -109 -183 -242
-403 -133 -219 -264 -439 -292 -488 -45 -78 -78 -116 -266 -304 -118 -118
-305 -296 -415 -395 -110 -99 -229 -208 -265 -241 -82 -77 -428 -389 -538
-485 l-83 -73 -57 54 c-31 29 -154 143 -272 253 -118 110 -253 236 -300 280
-47 44 -164 152 -259 240 -251 231 -695 700 -758 800 -28 44 -146 230 -262
413 -117 184 -211 335 -209 337 2 1 84 -67 183 -152 400 -344 969 -772 1445
-1090 284 -189 389 -253 395 -242 4 5 3 46 -1 92 l-7 82 -66 85 c-188 243
-469 525 -704 709 -123 96 -244 208 -545 505 -438 432 -629 611 -753 710 l-87
68 -7 587 c-9 640 -1 1618 15 1911 5 102 11 260 12 352 l3 167 25 -22 c14 -13
77 -70 140 -128 63 -57 172 -155 242 -217 l127 -113 -2 -938 -2 -938 95 101
c52 56 129 137 172 180 l78 80 2 765 c2 546 -1 812 -10 926 -7 88 -17 300 -22
470 -6 171 -15 409 -20 529 -6 121 -8 221 -6 223 2 2 47 -36 100 -84 53 -48
199 -182 326 -298 l229 -210 1 -885 0 -884 170 169 170 170 -1 1282 -1 1282
75 98 c79 104 151 177 231 237 l49 37 36 -34 c20 -18 74 -65 121 -104z"/>
<path d="M5037 5651 c-115 -162 -377 -442 -637 -680 -223 -205 -438 -420 -522
-525 -44 -54 -82 -105 -85 -112 -5 -14 34 -51 157 -149 47 -37 173 -154 280
-259 107 -106 240 -232 295 -281 121 -108 135 -121 116 -110 -9 5 -12 4 -7 -3
4 -7 13 -12 19 -12 7 0 84 -80 172 -177 88 -97 180 -198 205 -224 l45 -49 82
99 c44 54 139 150 211 214 71 63 234 221 363 349 271 270 425 411 562 515 53
40 97 76 97 79 0 10 -343 415 -429 506 -51 54 -134 131 -184 172 -145 117
-294 268 -557 566 -51 58 -102 115 -114 127 l-21 21 -48 -67z m96 -648 c55
-86 326 -347 439 -423 134 -90 283 -240 239 -240 -30 0 -247 -193 -456 -406
-132 -134 -244 -244 -248 -244 -4 0 -70 54 -146 120 -135 116 -243 220 -445
430 -55 56 -112 107 -128 112 -36 13 -35 20 4 37 31 14 93 75 488 479 107 109
198 200 202 201 4 0 27 -29 51 -66z"/>
</g>
</svg>
