<?xml version="1.0" standalone="no"?>
<!DOCTYPE svg PUBLIC "-//W3C//DTD SVG 20010904//EN"
 "http://www.w3.org/TR/2001/REC-SVG-20010904/DTD/svg10.dtd">
<svg version="1.0" xmlns="http://www.w3.org/2000/svg"
 width="1024" height="1024" viewBox="0 0 1024 1024"
 preserveAspectRatio="xMidYMid meet">
  <rect width="1024" height="1024" fill="white"/>
<metadata>
Created by potrace 1.16, written by Peter Selinger 2001-2019
</metadata>
<g transform="translate(0.000000,1024.000000) scale(0.100000,-0.100000)"
fill="#000000" stroke="none">
<path d="M0 5120 l0 -5120 5120 0 5120 0 0 5120 0 5120 -5120 0 -5120 0 0
-5120z m5375 4053 c330 -342 564 -609 738 -840 42 -56 81 -104 87 -108 6 -4
10 24 10 79 0 80 -2 90 -40 160 -22 42 -63 110 -91 151 -28 42 -49 78 -47 80
8 8 106 -29 220 -83 59 -28 134 -61 168 -73 33 -12 63 -26 66 -30 5 -9 -27
-146 -73 -314 -13 -49 -52 -170 -85 -268 -47 -136 -64 -177 -75 -172 -18 6
-304 198 -463 309 -110 77 -314 198 -446 264 -84 42 -94 54 -94 111 0 26 -5
74 -10 107 -12 71 -112 424 -120 424 -7 0 -96 -306 -109 -375 -5 -27 -13 -84
-17 -125 -3 -41 -10 -82 -15 -91 -5 -9 -50 -38 -101 -65 -136 -70 -346 -191
-387 -223 -123 -96 -485 -341 -493 -333 -5 5 -28 65 -52 133 -24 68 -86 234
-139 367 -54 134 -97 244 -97 246 0 2 19 8 42 15 23 7 121 48 217 91 97 43
186 81 198 84 18 6 8 -18 -60 -135 -74 -129 -82 -148 -85 -205 -2 -35 -1 -80
2 -99 l7 -36 42 53 c241 310 459 568 636 753 122 127 404 415 408 415 1 0 117
-120 258 -267z m-111 -1029 c200 -111 334 -194 544 -337 l214 -146 -49 -14
c-26 -8 -167 -53 -313 -100 -146 -46 -307 -95 -357 -108 -87 -22 -91 -24 -82
-46 5 -13 20 -83 33 -156 34 -177 40 -197 80 -243 l34 -39 7 92 c5 64 12 93
21 97 8 3 38 -4 66 -15 45 -17 58 -19 96 -9 65 16 352 163 352 180 0 3 -28 4
-62 2 l-63 -3 30 26 c17 14 33 25 38 25 4 0 7 5 7 11 0 7 -12 10 -30 7 -16 -3
-30 -1 -30 3 0 4 26 30 58 57 44 38 73 54 119 66 33 9 64 16 68 16 10 0 0
-239 -15 -390 -10 -101 -14 -120 -40 -155 -16 -22 -75 -107 -131 -189 -100
-146 -103 -152 -120 -241 -9 -50 -23 -106 -31 -124 l-14 -34 -53 84 c-30 46
-92 141 -139 211 l-84 128 -69 -61 c-38 -34 -69 -64 -69 -68 0 -4 -21 -17 -47
-30 -58 -28 -152 -38 -211 -22 l-44 12 6 82 c5 71 21 444 28 647 l2 65 -40 7
c-44 7 -227 64 -539 165 l-209 69 39 23 c22 13 96 62 165 111 155 108 418 273
569 356 131 72 110 73 265 -12z m-994 -650 c36 -11 72 -32 112 -67 32 -28 58
-54 58 -57 0 -3 -16 -4 -35 -2 -46 5 -45 -10 3 -33 l37 -19 -48 -7 c-27 -4
-51 -10 -53 -12 -10 -10 204 -122 309 -161 61 -23 68 -23 128 -11 35 8 65 12
68 10 2 -2 -4 -44 -13 -92 -9 -48 -16 -123 -16 -165 l0 -77 -121 -188 c-67
-103 -128 -199 -136 -212 -8 -13 -19 -19 -23 -15 -5 5 -17 57 -26 116 l-16
107 -135 196 c-123 179 -135 200 -139 248 -2 28 -11 126 -19 216 -19 206 -19
241 -2 241 7 0 37 -7 67 -16z m2210 -589 c155 -316 321 -672 341 -727 12 -36
12 -37 -62 -154 -279 -445 -603 -808 -896 -1003 -50 -33 -94 -65 -98 -70 -3
-6 -19 -20 -36 -32 -29 -21 -31 -21 -21 -2 6 11 18 25 26 32 9 8 53 72 98 145
45 72 116 183 158 246 154 232 419 658 466 750 34 66 48 105 47 130 -2 39 -45
174 -183 570 l-92 265 11 116 c6 64 14 124 17 134 10 24 62 -70 224 -400z
m-2480 288 c15 -138 26 -93 -132 -548 -144 -416 -144 -416 -127 -467 28 -87
181 -337 507 -833 58 -88 130 -200 160 -250 29 -49 71 -111 93 -137 47 -57 51
-73 7 -31 -18 16 -91 70 -162 119 -295 203 -604 545 -874 968 -73 114 -73 114
-58 145 9 17 45 101 80 188 61 151 299 656 353 753 70 123 125 210 132 210 4
0 14 -53 21 -117z m290 -605 c0 -5 11 -25 24 -46 30 -47 78 -198 102 -317 10
-49 19 -91 19 -93 4 -6 110 92 232 214 169 170 193 188 233 179 29 -6 82 -51
122 -103 16 -20 27 -22 101 -22 l84 0 41 49 c51 60 102 87 133 70 12 -6 109
-96 215 -200 106 -104 197 -189 201 -189 5 0 23 69 42 153 34 157 46 190 105
291 l34 59 6 -64 c3 -35 13 -200 22 -366 l16 -302 -100 -128 c-55 -70 -109
-136 -120 -146 -20 -18 -20 -18 -31 33 -6 28 -18 65 -27 83 -39 76 -196 271
-308 382 -146 146 -185 165 -326 165 -80 0 -94 -3 -149 -32 -89 -48 -195 -150
-308 -295 -149 -192 -161 -211 -180 -290 l-18 -73 -113 138 -113 137 5 155 c3
85 11 256 18 379 10 188 14 220 25 205 7 -10 13 -22 13 -26z m956 -488 c15
-14 47 -68 72 -120 49 -105 111 -199 181 -275 26 -27 59 -64 74 -81 l27 -30
-19 -60 c-11 -32 -36 -113 -57 -179 -45 -145 -235 -601 -360 -859 l-37 -79
-35 69 c-148 293 -354 782 -417 990 -19 63 -35 117 -35 120 0 2 36 45 80 94
98 112 155 191 209 294 76 142 82 147 203 143 77 -2 90 -5 114 -27z m-2005
-347 c15 -17 609 -564 869 -798 272 -246 608 -576 682 -670 l21 -27 -61 31
c-34 17 -94 42 -134 55 -89 30 -263 106 -593 261 -137 64 -389 181 -560 260
-508 234 -682 318 -843 408 l-154 85 209 118 c114 64 278 157 363 206 85 48
162 88 171 88 9 0 23 -7 30 -17z m3908 -44 c64 -34 197 -106 296 -159 99 -54
217 -118 263 -143 l83 -44 -163 -89 c-90 -49 -197 -105 -238 -123 -41 -18 -93
-44 -115 -56 -44 -25 -435 -209 -700 -330 -93 -42 -249 -115 -345 -162 -244
-118 -447 -209 -569 -254 -57 -22 -129 -52 -159 -69 -30 -16 -57 -28 -59 -26
-9 8 181 218 323 356 164 159 236 227 809 757 215 198 399 370 409 382 11 11
26 21 34 21 8 0 67 -28 131 -61z m-4608 -675 c63 -31 166 -80 229 -109 160
-72 211 -104 224 -140 6 -17 44 -91 84 -166 79 -150 73 -144 181 -155 l59 -7
-15 78 c-15 81 -13 96 10 76 22 -17 112 -46 302 -96 96 -25 198 -56 227 -69
29 -14 77 -34 107 -46 125 -50 524 -251 606 -305 135 -89 316 -239 445 -369
l114 -115 136 132 c239 235 443 373 804 545 353 167 393 182 663 246 56 14
129 37 163 52 33 15 62 25 64 23 2 -2 0 -35 -4 -74 -5 -38 -7 -71 -5 -73 1 -1
38 1 81 5 l78 8 56 105 c94 177 108 204 114 223 4 12 58 43 143 83 76 36 202
97 280 137 78 40 143 70 146 67 12 -12 431 -909 562 -1200 77 -173 206 -452
324 -704 28 -60 50 -110 49 -112 -6 -5 -513 173 -601 211 -51 22 -126 66 -175
103 l-87 65 90 -6 c155 -11 435 -20 435 -14 0 6 -268 152 -570 312 -102 54
-204 109 -227 122 l-43 24 -1 87 c-1 151 -15 522 -20 527 -3 2 -165 -63 -360
-146 -388 -165 -778 -325 -1092 -448 -711 -279 -688 -268 -754 -354 -45 -58
-169 -150 -218 -163 -15 -4 -57 12 -126 46 -80 41 -115 64 -152 106 -73 81
-179 134 -617 309 -607 242 -804 324 -1203 497 -203 88 -370 158 -372 157 -2
-2 -6 -125 -10 -274 -4 -148 -10 -288 -14 -310 -7 -46 57 -7 -521 -315 -168
-89 -309 -167 -315 -172 -10 -10 186 -6 420 8 l100 7 -90 -67 c-97 -72 -187
-111 -511 -225 -93 -32 -193 -69 -223 -80 -29 -12 -55 -20 -57 -18 -2 1 17 45
43 97 87 181 406 856 535 1135 247 534 373 795 384 795 6 0 62 -25 125 -56z
m320 -1729 c262 -43 327 -55 412 -76 35 -9 176 -118 350 -270 l57 -50 0 -74 0
-74 -223 110 -222 110 -215 14 c-118 8 -250 17 -293 19 l-78 5 3 -56 3 -57
254 -43 c139 -23 270 -48 290 -54 39 -13 472 -204 537 -237 l40 -21 -9 -78
c-5 -43 -12 -81 -16 -85 -4 -4 -74 12 -156 36 -83 24 -204 56 -270 70 -128 29
-442 66 -562 66 l-73 0 0 -44 0 -43 78 -16 c120 -25 731 -164 785 -178 26 -7
47 -16 47 -19 0 -3 -15 -14 -32 -25 -18 -10 -46 -29 -62 -43 l-30 -24 -365 5
c-202 3 -380 9 -397 12 l-32 7 6 -132 5 -132 -24 7 c-55 17 -225 128 -301 197
l-37 33 -2 360 c-1 198 -1 422 0 497 l1 137 106 96 c69 62 114 95 128 95 13 0
147 -20 297 -45z m4941 -72 l108 -108 0 -485 0 -485 -79 -58 c-43 -32 -122
-85 -175 -117 l-96 -58 0 135 0 135 -27 -7 c-16 -3 -195 -9 -399 -12 l-371 -5
-44 33 c-25 19 -56 41 -69 50 -24 16 -22 17 110 48 186 43 707 158 753 167 37
6 37 6 37 55 0 58 21 54 -201 34 -295 -27 -396 -47 -764 -149 -49 -14 -92 -23
-95 -20 -3 3 -10 41 -15 84 l-11 79 211 97 c344 158 373 168 621 213 122 23
236 41 253 41 27 0 31 3 31 29 0 16 3 43 6 60 l7 32 -99 -6 c-55 -4 -187 -13
-295 -21 l-196 -14 -219 -109 -219 -108 -3 65 c-2 36 -1 71 2 77 2 7 83 78
179 159 155 129 180 147 228 158 128 28 638 116 679 117 44 1 46 -1 152 -106z
m-2937 -68 c45 -33 240 -145 252 -145 12 0 193 106 260 151 48 34 58 36 48 12
-3 -10 -13 -134 -21 -275 -18 -336 -81 -1208 -104 -1448 -6 -58 -17 -181 -25
-275 -9 -93 -26 -214 -38 -268 -21 -95 -23 -99 -71 -139 l-49 -42 -36 42 c-51
58 -78 145 -91 287 -6 66 -20 203 -30 305 -46 435 -115 1276 -130 1590 -5 102
-12 198 -16 214 -8 32 -4 31 51 -9z m-2765 -130 c0 -20 -11 -91 -25 -158 -40
-201 -68 -432 -69 -572 -1 -104 5 -160 28 -280 37 -194 97 -398 148 -505 23
-47 45 -94 50 -105 11 -25 -33 25 -116 130 -152 192 -295 438 -389 670 -63
153 -208 620 -196 629 2 1 79 33 170 69 92 37 209 87 260 111 52 25 104 45
117 45 19 1 22 -4 22 -34z m6352 -109 c62 -24 143 -53 181 -65 54 -18 67 -27
67 -43 0 -28 -113 -395 -162 -528 -89 -239 -238 -504 -421 -745 -115 -152
-110 -147 -86 -85 93 246 142 425 184 665 29 165 18 344 -40 682 -14 78 -25
168 -25 201 l0 59 94 -49 c52 -26 145 -68 208 -92z m-5126 -1172 c33 -15 129
-54 214 -89 85 -34 207 -85 270 -113 63 -27 234 -101 380 -163 445 -189 400
-162 603 -359 98 -95 176 -175 173 -177 -5 -5 -16 0 -281 134 -526 265 -942
492 -1304 712 -139 85 -154 99 -55 55z m3674 22 c0 -6 -367 -217 -606 -349
-187 -104 -1115 -579 -1121 -574 -3 4 344 338 369 356 36 25 1323 569 1351
571 4 0 7 -2 7 -4z"/>
</g>
</svg>
