<?xml version="1.0" standalone="no"?>
<!DOCTYPE svg PUBLIC "-//W3C//DTD SVG 20010904//EN"
 "http://www.w3.org/TR/2001/REC-SVG-20010904/DTD/svg10.dtd">
<svg version="1.0" xmlns="http://www.w3.org/2000/svg"
 width="1024" height="1024" viewBox="0 0 1024 1024"
 preserveAspectRatio="xMidYMid meet">
  <rect width="1024" height="1024" fill="white"/>
<metadata>
Created by potrace 1.16, written by Peter Selinger 2001-2019
</metadata>
<g transform="translate(0.000000,1024.000000) scale(0.100000,-0.100000)"
fill="#000000" stroke="none">
<path d="M0 5120 l0 -5120 5120 0 5120 0 0 5120 0 5120 -5120 0 -5120 0 0
-5120z m5304 4065 c114 -136 230 -284 348 -441 8 -11 -89 -160 -209 -322 l-55
-75 16 -296 c17 -301 71 -1077 82 -1186 l6 -60 -366 0 -366 0 0 28 c0 15 16
272 35 570 36 576 55 885 55 922 0 12 -37 73 -82 136 -45 63 -108 152 -139
198 l-57 84 71 91 c142 183 284 353 381 453 96 101 99 103 119 86 11 -10 83
-94 161 -188z m-783 -1665 c-6 -102 -11 -203 -11 -225 0 -39 -11 -50 -1100
-1140 l-1099 -1100 949 -943 949 -943 183 147 c230 186 216 176 191 134 -11
-19 -53 -98 -93 -175 -117 -223 -302 -569 -310 -578 -4 -5 -535 515 -1179
1154 -645 640 -1181 1169 -1192 1177 -18 13 74 107 1348 1376 1294 1290 1368
1362 1371 1333 2 -17 -1 -115 -7 -217z m2974 -1521 c358 -355 720 -713 805
-797 l155 -152 -430 -428 c-836 -833 -2068 -2052 -2070 -2050 -4 6 -83 213
-110 289 l-27 76 1052 1049 c578 577 1056 1052 1061 1055 6 3 -483 496 -1085
1095 l-1096 1089 -15 190 c-9 105 -18 228 -21 275 l-6 85 568 -565 c313 -311
862 -856 1219 -1211z m-1641 562 c130 -21 327 -67 461 -108 l60 -19 -3 -54
c-4 -89 -33 -443 -38 -469 -5 -22 -15 -15 -117 87 l-112 111 -95 25 c-122 33
-256 60 -398 81 l-113 16 -104 -82 c-58 -45 -140 -112 -182 -149 l-78 -68 -35
26 c-19 14 -102 80 -185 145 l-150 119 -75 -6 c-83 -8 -292 -45 -440 -78 l-95
-22 -118 -114 c-66 -65 -121 -111 -126 -106 -9 10 -31 249 -38 425 l-5 115
155 42 c370 100 507 111 1262 107 386 -2 444 -4 569 -24z m-1175 -571 c21 -10
110 -66 198 -124 l161 -105 6 -233 c14 -509 31 -1280 30 -1403 -1 -152 -3
-158 -101 -302 l-70 -102 -46 82 c-25 45 -91 173 -146 284 l-101 203 0 522 c0
642 10 1198 22 1198 5 0 26 -9 47 -20z m916 -42 c10 -72 23 -775 19 -1037 l-4
-213 -72 -101 c-80 -112 -365 -470 -377 -475 -12 -4 -13 104 -1 417 5 163 15
474 20 691 6 217 13 425 16 462 l7 66 136 90 c153 100 233 150 242 151 4 1 10
-23 14 -51z m-2113 -447 c51 -32 165 -99 253 -149 88 -50 205 -118 260 -151
l100 -61 111 -318 c61 -174 110 -318 109 -320 -2 -2 -82 43 -180 100 l-176
103 -244 365 c-135 201 -265 393 -290 428 -26 34 -44 62 -41 62 3 0 47 -26 98
-59z m3201 -163 c-109 -170 -288 -461 -364 -593 l-64 -110 -199 -132 c-110
-73 -201 -131 -203 -129 -5 5 51 161 141 385 l82 206 154 116 c232 175 525
387 528 384 2 -2 -32 -59 -75 -127z m-3031 -978 c101 -28 245 -70 322 -93
l139 -42 76 -83 c68 -75 204 -253 197 -259 -8 -8 -219 53 -256 74 -57 32 -312
190 -405 251 -61 39 -242 169 -269 194 -18 15 10 9 196 -42z m2943 -156 c-110
-69 -252 -152 -315 -184 -105 -53 -412 -187 -468 -204 -18 -6 3 28 86 141 59
81 123 169 140 195 l32 46 132 32 c120 28 507 96 568 99 15 1 -50 -46 -175
-125z m-1065 -279 c-12 -104 -24 -192 -25 -194 -2 -1 -14 7 -27 19 -13 12 -56
49 -95 83 -40 34 -73 64 -73 68 0 4 53 66 118 139 140 157 134 164 102 -115z
m-165 -405 c94 -72 180 -141 192 -153 22 -21 23 -33 38 -377 8 -195 24 -518
36 -716 l21 -361 -88 -164 c-48 -90 -142 -267 -209 -394 -67 -126 -148 -279
-180 -338 l-58 -108 -24 43 c-14 24 -133 255 -264 513 l-239 470 10 135 c17
219 68 705 89 845 10 72 31 235 47 362 16 128 31 233 34 233 3 0 77 -69 164
-153 l159 -152 -14 -310 c-8 -171 -14 -445 -14 -610 0 -278 2 -309 24 -420
l24 -119 31 104 30 105 3 848 c2 466 7 847 11 847 4 0 84 -59 177 -130z m-205
-1557 c-11 -17 -11 -17 -6 0 3 10 7 28 7 40 2 22 2 22 6 0 2 -12 -1 -30 -7
-40z"/>
</g>
</svg>
