<?xml version="1.0" standalone="no"?>
<!DOCTYPE svg PUBLIC "-//W3C//DTD SVG 20010904//EN"
 "http://www.w3.org/TR/2001/REC-SVG-20010904/DTD/svg10.dtd">
<svg version="1.0" xmlns="http://www.w3.org/2000/svg"
 width="1024" height="1024" viewBox="0 0 1024 1024"
 preserveAspectRatio="xMidYMid meet">
  <rect width="1024" height="1024" fill="white"/>
<metadata>
Created by potrace 1.16, written by Peter Selinger 2001-2019
</metadata>
<g transform="translate(0.000000,1024.000000) scale(0.100000,-0.100000)"
fill="#000000" stroke="none">
<path d="M0 5120 l0 -5120 5120 0 5120 0 0 5120 0 5120 -5120 0 -5120 0 0
-5120z m5375 3655 c545 -425 859 -615 1306 -793 438 -175 1031 -289 1387 -268
101 6 102 6 102 -17 -1 -98 -41 -478 -72 -684 l-21 -142 -141 -50 c-199 -71
-406 -141 -406 -137 0 2 9 39 20 82 20 82 54 283 65 390 l7 61 -74 7 c-556 54
-1261 323 -1883 719 -166 105 -337 225 -457 319 l-87 69 -133 -99 c-176 -131
-449 -316 -595 -403 -275 -164 -641 -332 -948 -435 -250 -84 -426 -127 -626
-154 -90 -12 -175 -24 -188 -27 l-24 -4 7 -112 c16 -270 96 -792 161 -1047 5
-23 1 -27 -62 -54 -37 -16 -143 -65 -236 -109 -92 -44 -169 -78 -171 -76 -5 6
-81 405 -116 612 -63 371 -139 1054 -140 1253 l0 31 208 6 c638 18 1268 206
1855 556 202 121 431 285 826 593 l164 128 51 -41 c28 -23 128 -101 221 -174z
m-255 -1530 l0 -585 -102 -112 c-176 -196 -539 -575 -755 -790 l-208 -207
-327 -40 c-179 -23 -335 -41 -345 -41 -16 0 -28 27 -71 163 -105 331 -180 642
-232 962 -47 291 -45 263 -18 269 116 24 347 86 453 121 472 155 1038 446
1460 750 72 51 133 94 138 94 4 1 7 -262 7 -584z m3994 -457 c-33 -53 -308
-438 -600 -838 -82 -113 -160 -219 -172 -237 l-22 -31 420 -426 c231 -234 420
-430 420 -435 0 -6 -17 -11 -37 -11 -21 0 -177 -7 -348 -15 -170 -8 -330 -15
-355 -15 -45 0 -47 1 -315 241 -149 133 -294 262 -323 287 l-52 45 -138 -13
-138 -12 283 -282 c157 -154 281 -282 276 -283 -4 -1 -110 -7 -235 -13 l-228
-11 -137 104 c-76 57 -235 175 -353 262 l-214 159 -701 -88 c-385 -48 -809
-100 -943 -115 l-243 -27 208 -121 c114 -66 267 -154 338 -194 72 -40 132 -75
135 -77 6 -4 -68 -75 -307 -294 l-160 -148 -109 113 c-341 355 -668 657 -710
657 -67 0 -1695 -149 -1703 -155 -8 -8 137 -270 215 -389 47 -70 83 -130 81
-133 -6 -6 -435 141 -1027 352 -272 98 -561 199 -642 227 -82 27 -148 53 -148
57 0 4 26 19 58 33 31 14 208 95 392 180 184 86 441 204 570 263 129 59 322
150 429 202 107 51 196 91 198 90 3 -4 -85 -243 -176 -476 -22 -58 -39 -106
-38 -108 3 -2 331 37 1299 156 l397 49 63 52 c272 225 537 500 796 824 29 36
56 66 60 66 4 0 112 -105 241 -234 l233 -233 -148 -100 c-284 -191 -398 -273
-380 -273 16 0 1400 230 1599 266 l88 16 152 172 c84 94 203 230 265 302 l112
131 88 23 c48 13 172 49 277 81 104 32 191 56 193 55 3 -4 -167 -247 -330
-471 -69 -93 -120 -171 -114 -172 6 -2 58 5 115 15 l105 17 297 360 298 360
63 18 c197 56 756 205 771 206 12 1 16 -3 11 -11z m-1801 -2391 c59 -38 107
-73 107 -78 0 -14 -98 -235 -184 -414 -494 -1031 -1050 -1728 -1984 -2484
l-163 -132 -87 68 c-443 345 -804 690 -1128 1079 -353 422 -676 922 -904 1399
-87 181 -96 205 -80 205 6 0 90 -27 187 -61 140 -49 177 -58 185 -47 4 7 27
48 51 90 23 43 44 78 47 78 3 -1 48 -80 100 -176 221 -409 495 -806 781 -1131
293 -332 527 -555 792 -752 l57 -43 54 40 c485 366 1026 987 1389 1592 95 158
318 610 401 812 l69 167 101 -71 c56 -39 149 -102 209 -141z m-2866 -34 c126
-126 329 -336 451 -468 l222 -240 0 -593 c0 -561 -1 -592 -17 -583 -89 48
-459 404 -642 616 -370 431 -670 923 -810 1330 -23 65 -40 119 -38 121 3 4
488 41 554 43 l51 1 229 -227z"/>
</g>
</svg>
