<?xml version="1.0" standalone="no"?>
<!DOCTYPE svg PUBLIC "-//W3C//DTD SVG 20010904//EN"
 "http://www.w3.org/TR/2001/REC-SVG-20010904/DTD/svg10.dtd">
<svg version="1.0" xmlns="http://www.w3.org/2000/svg"
 width="1024" height="1024" viewBox="0 0 1024 1024"
 preserveAspectRatio="xMidYMid meet">
  <rect width="1024" height="1024" fill="white"/>
<metadata>
Created by potrace 1.16, written by Peter Selinger 2001-2019
</metadata>
<g transform="translate(0.000000,1024.000000) scale(0.100000,-0.100000)"
fill="#000000" stroke="none">
<path d="M0 5120 l0 -5120 5120 0 5120 0 0 5120 0 5120 -5120 0 -5120 0 0
-5120z m5360 3865 c127 -131 230 -244 230 -251 0 -6 -7 -18 -17 -25 -9 -8 -65
-72 -125 -142 -104 -123 -108 -130 -108 -175 0 -57 47 -902 58 -1026 l7 -89
185 -87 c518 -243 964 -480 943 -501 -15 -15 -313 -149 -331 -149 -10 0 -114
32 -232 70 -646 212 -778 238 -1020 195 -117 -20 -154 -31 -562 -161 -180 -57
-335 -104 -346 -104 -16 0 -325 140 -338 153 -15 14 661 368 1008 527 l117 54
5 50 c6 56 56 1059 56 1119 0 35 -10 48 -124 165 l-125 128 67 70 c37 38 143
149 236 247 93 98 172 177 177 175 5 -2 113 -111 239 -243z m948 -1600 c634
-159 1322 -351 1346 -376 6 -6 5 -107 -2 -273 -72 -1550 -383 -2638 -1012
-3541 -179 -257 -320 -423 -610 -718 -154 -157 -206 -205 -209 -191 -2 11 2
163 9 338 l11 320 37 41 c20 23 72 82 115 131 278 313 538 726 709 1124 260
604 394 1227 473 2194 18 214 17 222 -32 211 -13 -3 -23 -1 -23 4 0 5 -24 15
-52 22 -154 36 -168 45 -524 311 -186 139 -417 311 -511 382 -164 121 -193
146 -157 132 8 -3 203 -53 432 -111z m-1979 72 c-24 -18 -161 -119 -304 -224
-143 -105 -354 -261 -470 -347 l-210 -157 -142 -45 -143 -46 0 -47 c0 -75 19
-298 46 -541 96 -870 240 -1423 523 -2005 206 -423 373 -671 678 -1007 l71
-77 6 -113 c3 -62 8 -216 11 -343 l6 -230 -169 172 c-926 939 -1376 1915
-1566 3393 -39 304 -61 577 -81 1042 l-5 127 97 30 c331 102 1621 448 1677
450 13 1 5 -9 -25 -32z m715 -1354 c9 -722 24 -1551 36 -1948 5 -181 14 -555
21 -830 6 -275 15 -511 19 -525 6 -16 9 11 9 80 1 58 8 368 16 690 29 1149 35
1506 42 2278 6 709 8 782 22 782 27 0 156 -38 262 -77 l99 -37 0 -770 c0 -424
-5 -1207 -10 -1741 -6 -533 -11 -1190 -12 -1459 l-1 -488 -210 -407 c-116
-223 -212 -408 -214 -411 -7 -8 -15 8 -229 426 l-201 392 -7 1649 c-4 906 -8
1824 -10 2038 -1 215 -1 476 1 581 l4 190 117 42 c119 42 208 70 228 71 8 1
13 -149 18 -526z m1021 -569 c116 -101 422 -343 558 -442 70 -52 127 -97 127
-101 0 -22 -214 -502 -305 -686 -111 -223 -209 -393 -348 -602 -96 -145 -243
-344 -248 -338 -2 2 -1 172 2 378 l5 374 198 274 197 274 -53 50 c-29 28 -103
98 -165 155 l-112 106 -51 368 c-27 202 -50 377 -50 388 0 16 19 3 88 -59 48
-43 119 -106 157 -139z m-1689 -186 l-46 -353 -117 -110 c-65 -60 -145 -135
-177 -166 l-60 -56 115 -154 c63 -85 151 -206 196 -269 l80 -115 7 -373 c4
-242 3 -372 -3 -368 -15 10 -190 258 -279 397 -192 300 -334 568 -465 879 -36
85 -84 195 -107 245 l-41 90 23 15 c183 120 847 634 898 695 8 9 16 13 18 7 2
-6 -17 -169 -42 -364z"/>
</g>
</svg>
