<?xml version="1.0" standalone="no"?>
<!DOCTYPE svg PUBLIC "-//W3C//DTD SVG 20010904//EN"
 "http://www.w3.org/TR/2001/REC-SVG-20010904/DTD/svg10.dtd">
<svg version="1.0" xmlns="http://www.w3.org/2000/svg"
 width="1024" height="1024" viewBox="0 0 1024 1024"
 preserveAspectRatio="xMidYMid meet">
  <rect width="1024" height="1024" fill="white"/>
<metadata>
Created by potrace 1.16, written by Peter Selinger 2001-2019
</metadata>
<g transform="translate(0.000000,1024.000000) scale(0.100000,-0.100000)"
fill="#000000" stroke="none">
<path d="M0 5120 l0 -5120 5120 0 5120 0 0 5120 0 5120 -5120 0 -5120 0 0
-5120z m5293 3872 c176 -354 336 -572 688 -937 195 -203 302 -326 370 -427 44
-64 182 -356 471 -998 154 -342 378 -849 378 -856 0 -20 -699 439 -985 646
-192 139 -227 176 -285 295 -77 157 -197 435 -261 603 -32 85 -64 161 -71 170
-7 9 -64 75 -127 146 -243 279 -364 458 -444 656 -85 214 -95 383 -29 522 24
51 216 298 231 298 3 0 32 -53 64 -118z m-1238 -672 c16 -13 82 -91 423 -498
l212 -254 -26 -31 c-88 -104 -1234 -1317 -1245 -1317 -21 0 -165 140 -459 447
-179 186 -445 460 -592 609 -148 150 -268 275 -268 279 0 3 93 120 208 259
114 138 257 313 317 389 l110 138 652 -4 c513 -3 656 -7 668 -17z m1365 -1656
c41 -26 341 -223 665 -439 325 -215 732 -483 905 -595 173 -111 330 -214 348
-227 l33 -25 -3 -263 c-2 -145 -6 -266 -10 -270 -16 -17 -151 46 -476 221
-191 103 -419 226 -507 272 -862 456 -914 488 -1049 634 l-66 70 -82 -22 c-46
-12 -161 -46 -255 -76 -393 -121 -425 -129 -568 -129 -121 0 -134 2 -188 27
-70 33 -159 100 -255 192 l-73 70 61 38 c135 86 480 245 790 363 253 97 576
204 615 204 31 1 58 -10 115 -45z m-2368 -513 c102 -39 206 -117 350 -260 162
-162 171 -177 224 -406 38 -169 80 -297 121 -380 37 -72 139 -219 197 -282
l49 -54 -48 -112 c-58 -134 -202 -432 -280 -577 -47 -87 -56 -111 -52 -141 7
-53 32 -84 106 -132 149 -98 324 -137 481 -107 29 6 55 9 57 7 3 -4 -43 -111
-115 -268 -55 -121 -51 -170 18 -233 85 -77 191 -111 380 -122 l115 -7 -13
-131 c-8 -84 -12 -204 -9 -336 4 -181 8 -216 31 -304 50 -184 129 -343 247
-497 53 -69 170 -179 189 -179 3 0 -16 44 -42 98 -55 110 -101 246 -119 347
-16 94 -6 297 20 403 52 209 128 329 391 617 364 400 534 510 819 532 56 4 79
9 66 14 -11 4 -153 51 -315 104 -162 52 -356 117 -432 144 l-136 49 -134 -141
c-172 -182 -432 -422 -483 -447 -77 -37 -345 -52 -345 -18 0 5 75 168 166 361
92 194 180 381 196 417 16 36 40 79 54 97 23 30 349 303 445 373 23 16 53 30
66 30 13 0 134 -40 268 -90 278 -102 472 -164 672 -214 149 -38 462 -97 608
-115 50 -7 106 -14 125 -16 35 -5 35 -5 10 9 -15 8 -234 107 -487 220 -254
113 -533 239 -620 279 -87 41 -259 118 -381 172 l-222 98 -108 -104 c-59 -58
-174 -156 -256 -219 -266 -205 -260 -199 -317 -313 -69 -137 -113 -200 -197
-278 -113 -107 -242 -156 -382 -146 -80 6 -161 30 -180 52 -12 15 38 116 337
683 80 150 156 299 170 330 38 84 57 106 141 171 65 48 637 448 724 505 l28
18 287 -150 c159 -82 434 -225 613 -317 701 -362 1093 -575 1161 -632 l30 -26
-6 -136 c-4 -75 -13 -176 -22 -226 -17 -101 -10 -87 -426 -900 -219 -429 -277
-537 -434 -810 -38 -66 -141 -250 -228 -410 -144 -262 -166 -297 -228 -357
-76 -75 -213 -171 -326 -228 -277 -139 -639 -198 -951 -155 -104 14 -259 50
-272 63 -19 19 -106 524 -134 778 l-6 62 -114 101 c-170 153 -380 398 -496
581 -59 94 -124 221 -161 315 -69 173 -214 754 -292 1165 -134 706 -244 1002
-478 1288 -56 68 -176 188 -255 254 -47 39 -47 42 -2 94 71 82 171 145 263
164 71 15 215 5 279 -19z"/>
<path d="M3325 7957 c-55 -72 -145 -185 -199 -251 -54 -67 -103 -127 -109
-133 -7 -10 75 -13 407 -13 l417 0 -30 43 c-70 99 -367 481 -376 483 -5 2 -55
-56 -110 -129z"/>
<path d="M2827 7953 c-57 -70 -157 -191 -221 -268 -63 -77 -116 -144 -116
-148 0 -23 855 -887 878 -887 22 0 -139 313 -366 709 l-105 184 23 264 c12
145 20 266 17 269 -2 3 -52 -53 -110 -123z"/>
<path d="M3910 8065 c0 -2 7 -114 15 -249 l15 -245 -75 -141 c-110 -205 -377
-741 -372 -746 9 -9 848 866 844 880 -2 5 -93 118 -202 252 -173 209 -225 268
-225 249z"/>
</g>
</svg>
