<?xml version="1.0" standalone="no"?>
<!DOCTYPE svg PUBLIC "-//W3C//DTD SVG 20010904//EN"
 "http://www.w3.org/TR/2001/REC-SVG-20010904/DTD/svg10.dtd">
<svg version="1.0" xmlns="http://www.w3.org/2000/svg"
 width="1024" height="1024" viewBox="0 0 1024 1024"
 preserveAspectRatio="xMidYMid meet">
  <rect width="1024" height="1024" fill="white"/>
<metadata>
Created by potrace 1.16, written by Peter Selinger 2001-2019
</metadata>
<g transform="translate(0.000000,1536.000000) scale(0.100000,-0.100000)"
fill="#000000" stroke="none">
<path d="M0 7680 l0 -7680 5120 0 5120 0 0 7680 0 7680 -5120 0 -5120 0 0
-7680z m5300 4193 c69 -103 282 -405 440 -623 97 -135 242 -337 322 -450 80
-113 170 -236 200 -273 l55 -69 -66 -90 c-36 -50 -120 -161 -186 -247 -445
-577 -686 -911 -770 -1065 l-36 -65 -89 134 c-49 73 -149 209 -221 302 -72 92
-220 292 -327 443 -108 151 -249 348 -314 437 l-119 162 58 69 c32 38 119 154
193 257 237 330 821 1113 830 1114 3 1 16 -16 30 -36z m-1254 -1270 c4 -31 3
-153 0 -272 l-8 -216 -51 -95 c-28 -52 -102 -187 -164 -300 -63 -113 -158
-295 -212 -405 l-99 -201 -7 -99 c-11 -155 -16 -172 -136 -460 -61 -148 -129
-314 -149 -369 -21 -54 -40 -94 -42 -90 -3 5 -65 189 -138 409 -73 220 -139
412 -146 426 -12 24 -10 35 21 112 58 144 105 240 255 521 168 317 260 504
364 750 100 233 116 261 169 281 33 12 268 59 324 64 7 1 14 -22 19 -56z
m2631 -350 c75 -150 422 -809 518 -983 59 -107 147 -277 196 -377 l88 -183
-243 -602 -242 -603 -22 -160 c-12 -88 -58 -396 -103 -685 l-81 -525 -52 -80
c-28 -43 -109 -160 -180 -260 -226 -316 -277 -388 -333 -479 -82 -132 -168
-293 -213 -398 -22 -51 -45 -101 -50 -110 -19 -34 3 -18 94 69 l91 87 7 -75
c4 -41 16 -212 29 -381 17 -244 19 -311 9 -323 -12 -15 -219 -175 -600 -465
-118 -90 -281 -217 -362 -282 l-146 -117 -93 67 c-50 37 -244 181 -431 319
-187 139 -353 261 -369 270 -16 10 -29 22 -29 28 0 41 151 516 225 708 l38 98
-97 144 c-53 79 -194 282 -313 452 -503 717 -803 1156 -975 1427 l-108 171 78
75 c42 41 172 165 287 274 116 110 359 345 541 522 181 177 344 334 361 348
l31 26 113 -87 c188 -143 396 -312 743 -603 181 -151 337 -282 347 -290 17
-14 11 -24 -107 -165 -69 -82 -139 -169 -156 -192 -30 -42 -31 -42 -53 -25
-13 9 -123 96 -246 193 -280 220 -567 439 -574 439 -4 0 -54 -37 -113 -83 -59
-46 -206 -154 -327 -241 l-220 -159 85 7 c47 3 194 22 328 41 133 19 244 35
246 35 2 0 -24 -66 -58 -147 -69 -162 -130 -270 -229 -408 -36 -49 -64 -91
-63 -92 6 -7 153 59 389 174 l258 126 16 -24 c9 -13 202 -211 429 -441 l412
-416 -4 -39 c-2 -21 -18 -161 -34 -311 l-30 -272 -85 -114 c-104 -141 -271
-388 -280 -415 -8 -25 -9 -23 129 -184 60 -69 112 -124 116 -122 13 8 106 240
220 550 174 470 283 743 350 875 l31 61 -58 82 c-31 45 -156 219 -276 386
-121 167 -215 306 -210 310 5 3 136 100 291 215 l281 210 -35 30 c-19 17 -138
121 -264 231 -126 110 -229 202 -229 205 -1 3 32 17 72 32 39 15 133 49 208
77 133 49 438 121 515 121 31 0 39 7 84 68 55 74 165 266 290 502 45 85 108
194 140 242 l58 87 -94 157 c-131 219 -212 422 -294 729 -48 183 -48 188 1
275 82 146 282 430 304 430 2 0 17 -26 32 -57z m-1885 -1380 c145 -135 388
-370 540 -521 l277 -276 -107 -74 c-146 -100 -214 -141 -248 -148 -26 -5 -60
19 -310 213 -589 458 -713 553 -721 553 -4 -1 -82 -91 -173 -202 -91 -111
-229 -274 -306 -362 -145 -165 -584 -597 -570 -561 4 11 24 65 43 120 58 165
267 701 395 1010 66 160 137 331 157 380 l37 90 73 3 c39 2 160 7 269 11 108
4 239 9 289 9 l93 2 262 -247z"/>
<path d="M5189 11043 c-70 -90 -280 -375 -391 -533 l-47 -66 58 -79 c138 -192
442 -595 449 -595 4 1 59 74 123 163 64 89 173 242 244 340 l128 177 -45 68
c-87 130 -430 617 -436 620 -4 1 -42 -42 -83 -95z"/>
</g>
</svg>
