<?xml version="1.0" standalone="no"?>
<!DOCTYPE svg PUBLIC "-//W3C//DTD SVG 20010904//EN"
 "http://www.w3.org/TR/2001/REC-SVG-20010904/DTD/svg10.dtd">
<svg version="1.0" xmlns="http://www.w3.org/2000/svg"
 width="1024" height="1024" viewBox="0 0 1024 1024"
 preserveAspectRatio="xMidYMid meet">
  <rect width="1024" height="1024" fill="white"/>
<metadata>
Created by potrace 1.16, written by Peter Selinger 2001-2019
</metadata>
<g transform="translate(0.000000,1024.000000) scale(0.100000,-0.100000)"
fill="#000000" stroke="none">
<path d="M0 5120 l0 -5120 5120 0 5120 0 0 5120 0 5120 -5120 0 -5120 0 0
-5120z m5686 3559 c285 -261 627 -573 759 -694 132 -121 278 -253 323 -294 46
-41 81 -77 80 -81 -2 -5 -90 -72 -197 -150 -354 -259 -708 -530 -961 -735
-257 -209 -391 -315 -398 -315 -4 0 -33 116 -66 258 -68 302 -97 412 -106 412
-4 0 -45 -151 -91 -335 -46 -184 -87 -335 -91 -335 -4 0 -69 50 -145 112 -500
404 -830 661 -1198 933 -110 81 -201 151 -203 155 -1 4 86 87 195 186 109 98
270 244 358 325 88 81 288 264 445 407 542 494 715 654 718 663 5 13 -6 23
578 -512z m-2856 -1183 c699 -344 1177 -622 1788 -1041 127 -86 245 -169 262
-184 l32 -26 -114 -165 c-62 -91 -120 -177 -129 -190 l-15 -24 -275 123 c-546
245 -947 412 -1439 601 -254 98 -341 139 -368 177 -38 55 -182 313 -292 524
-62 118 -164 309 -226 425 -63 117 -114 214 -114 216 0 3 107 -48 238 -114
130 -65 424 -210 652 -322z m5386 277 c-51 -93 -156 -289 -233 -438 -142 -274
-293 -545 -322 -579 -27 -30 -99 -62 -486 -213 -473 -184 -792 -317 -1234
-514 -195 -87 -355 -157 -356 -156 -1 1 -56 81 -123 179 -67 97 -124 183 -128
191 -4 10 49 52 183 145 669 462 1190 767 1973 1153 234 115 511 252 615 304
105 51 193 94 197 94 3 1 -35 -74 -86 -166z m-5492 -1650 c81 -175 184 -390
229 -478 l82 -160 100 -36 c55 -20 203 -80 329 -133 l229 -98 236 92 c442 173
511 198 511 190 0 -16 -360 -549 -497 -735 -249 -340 -553 -745 -558 -745 -3
0 -65 52 -138 117 -114 100 -610 515 -1107 927 -80 66 -153 127 -163 136 -18
16 -12 31 151 346 93 181 231 456 307 612 76 155 139 282 140 282 2 0 69 -143
149 -317z m4963 290 c21 -52 260 -547 423 -877 l162 -329 -33 -26 c-138 -106
-1118 -915 -1308 -1078 l-94 -81 -221 307 c-122 168 -282 387 -355 486 -114
154 -471 676 -471 688 0 3 136 -47 303 -110 166 -63 340 -129 387 -145 l85
-31 300 133 c165 73 312 137 326 142 16 5 34 26 49 56 74 149 352 731 385 805
22 48 42 87 45 87 3 0 11 -12 17 -27z m-2447 -630 c136 -268 250 -510 369
-786 111 -257 211 -503 211 -519 0 -7 -15 -21 -33 -32 -17 -10 -165 -93 -327
-184 -162 -90 -306 -173 -319 -182 -24 -17 -26 -16 -135 50 -61 36 -210 122
-331 190 -290 162 -267 147 -260 173 12 41 226 540 327 762 82 181 368 765
375 765 1 0 56 -107 123 -237z m-677 -1738 c191 -182 395 -374 452 -429 l105
-99 227 220 c126 120 336 319 468 443 132 123 262 244 289 269 27 25 50 41 52
36 2 -6 43 -73 90 -150 176 -285 311 -531 528 -967 l223 -447 11 47 c6 26 45
192 86 370 84 360 107 418 225 575 59 79 181 213 181 200 0 -4 -11 -64 -25
-133 -33 -160 -225 -1218 -225 -1237 0 -8 -78 -97 -172 -197 -191 -200 -310
-330 -728 -796 -155 -173 -309 -343 -342 -378 l-60 -62 -828 0 -829 0 -193
213 c-107 116 -261 288 -343 382 -196 221 -478 527 -637 690 l-126 130 -27
150 c-59 338 -226 1229 -231 1236 -3 5 -2 9 3 8 17 -1 159 -170 220 -260 90
-135 114 -200 183 -509 33 -151 70 -310 81 -352 l21 -78 90 183 c49 100 143
290 208 422 176 356 318 608 485 863 l67 103 62 -58 c33 -32 218 -207 409
-388z"/>
<path d="M5015 3423 c-495 -151 -890 -305 -989 -387 -107 -87 -300 -290 -389
-408 -47 -62 -84 -114 -84 -114 1 -1 76 35 167 80 333 165 856 347 1268 441
l123 29 122 -28 c435 -99 936 -271 1277 -439 91 -45 169 -83 173 -85 5 -2 -26
42 -69 99 -43 57 -155 181 -249 275 -192 193 -196 195 -480 307 -228 90 -743
259 -779 256 -6 -1 -47 -12 -91 -26z"/>
<path d="M5055 2636 c-27 -13 -172 -76 -320 -140 l-271 -117 -63 -157 c-92
-228 -170 -432 -165 -432 3 0 39 24 82 54 42 29 129 83 192 119 133 75 595
307 611 307 6 0 54 -24 108 -54 53 -30 218 -118 366 -196 149 -79 303 -165
343 -191 39 -27 72 -46 72 -44 0 3 -52 138 -116 300 l-117 294 -36 12 c-20 6
-103 42 -186 79 -229 103 -432 190 -441 189 -5 0 -31 -11 -59 -23z"/>
</g>
</svg>
