<?xml version="1.0" standalone="no"?>
<!DOCTYPE svg PUBLIC "-//W3C//DTD SVG 20010904//EN"
 "http://www.w3.org/TR/2001/REC-SVG-20010904/DTD/svg10.dtd">
<svg version="1.0" xmlns="http://www.w3.org/2000/svg"
 width="1024" height="1024" viewBox="0 0 1024 1024"
 preserveAspectRatio="xMidYMid meet">
  <rect width="1024" height="1024" fill="white"/>
<metadata>
Created by potrace 1.16, written by Peter Selinger 2001-2019
</metadata>
<g transform="translate(0.000000,1024.000000) scale(0.100000,-0.100000)"
fill="#000000" stroke="none">
<path d="M0 5120 l0 -5120 5120 0 5120 0 0 5120 0 5120 -5120 0 -5120 0 0
-5120z m6633 4133 c456 -385 637 -539 790 -672 l168 -146 -6 -95 c-4 -52 -13
-178 -21 -280 -8 -102 -18 -311 -21 -465 l-5 -280 -106 -165 c-247 -387 -320
-479 -760 -967 -91 -101 -166 -183 -167 -183 -8 0 15 82 33 116 60 117 495
818 689 1111 l75 113 8 137 c5 76 14 226 20 333 6 108 15 222 19 253 l8 57
-56 -31 c-31 -18 -64 -37 -73 -43 -20 -12 -5 -26 -378 340 -183 180 -236 225
-282 247 -32 14 -58 31 -58 36 0 40 -27 -15 -95 -191 -43 -112 -109 -279 -147
-373 -38 -93 -79 -194 -90 -223 -12 -30 -27 -56 -33 -58 -7 -3 -146 61 -310
141 -164 80 -301 143 -303 140 -3 -3 0 -85 7 -183 7 -97 18 -270 25 -384 l13
-208 86 -92 c47 -51 165 -176 261 -278 l176 -185 44 -135 c46 -138 153 -536
181 -670 15 -72 12 -180 -5 -180 -4 0 -139 141 -301 312 -162 172 -394 415
-516 539 l-221 226 -5 389 c-3 283 -10 455 -26 629 -42 472 -50 618 -36 630
73 60 364 273 535 392 286 200 703 482 713 483 4 0 80 -62 170 -137z m-5488
-1021 c208 -112 264 -144 450 -267 166 -110 807 -560 929 -652 192 -146 747
-616 991 -838 66 -60 165 -150 220 -200 55 -49 203 -187 330 -305 126 -118
301 -280 388 -359 l159 -144 -148 -148 -148 -148 -371 367 c-901 891 -1511
1456 -1914 1771 -78 62 -139 106 -135 99 37 -62 156 -201 884 -1032 640 -731
1243 -1441 1247 -1469 2 -13 -309 -287 -325 -287 -10 0 -344 393 -827 975
-164 198 -354 426 -421 506 -241 290 -436 562 -812 1135 -239 365 -682 1065
-682 1079 0 12 45 -8 185 -83z m4775 -585 c113 -57 242 -120 288 -140 45 -21
82 -42 82 -48 0 -8 -145 -223 -171 -253 -7 -7 -254 208 -318 277 -15 17 -34
63 -52 129 -15 57 -31 111 -34 121 -4 9 -5 17 -3 17 2 0 96 -46 208 -103z
m1270 94 c0 -6 -11 -45 -24 -88 -14 -43 -30 -96 -36 -118 -9 -33 -34 -61 -148
-162 -75 -67 -141 -124 -146 -125 -5 -2 -44 51 -86 117 l-76 121 250 132 c138
72 254 132 259 132 4 0 7 -4 7 -9z m-3750 -161 c510 -87 662 -111 880 -135 80
-8 177 -20 217 -27 l71 -10 70 -97 c38 -53 100 -141 137 -196 38 -55 144 -206
234 -335 466 -663 681 -1004 533 -844 -26 28 -139 136 -252 242 -113 105 -367
358 -565 562 l-360 370 -100 -4 c-60 -3 -177 -21 -295 -46 -107 -22 -237 -47
-288 -56 l-93 -15 -135 130 c-74 72 -203 189 -287 260 -248 212 -327 281 -327
288 0 8 44 2 560 -87z m4811 -886 c173 -80 451 -208 619 -284 490 -222 505
-229 501 -237 -2 -5 -85 -47 -185 -95 l-182 -88 -214 56 c-118 30 -235 61
-260 69 -25 8 -122 34 -216 59 l-171 44 -179 -73 c-497 -203 -1563 -670 -1698
-746 -106 -58 -153 -67 -91 -17 71 59 255 218 510 443 486 428 859 745 1029
874 93 70 202 141 217 141 3 0 148 -66 320 -146z m-6005 -902 c53 -54 77 -85
70 -91 -6 -5 -72 -35 -146 -66 -176 -75 -378 -174 -463 -228 l-68 -43 27 -24
c74 -68 184 -238 381 -590 414 -736 788 -1288 937 -1379 62 -39 469 -101 665
-101 89 0 91 -2 146 -118 41 -86 138 -244 220 -357 26 -36 4 -48 -47 -26 -85
36 -442 132 -516 138 l-73 6 26 -59 c88 -200 296 -561 510 -884 134 -204 149
-229 141 -237 -17 -17 -437 365 -801 731 -549 550 -953 1026 -1571 1851 -279
372 -438 602 -542 785 l-54 95 214 210 c117 116 323 309 458 429 l245 219 80
-89 c44 -49 116 -126 161 -172z m3008 -187 l168 -110 -33 -25 c-337 -254 -575
-485 -1454 -1414 l-160 -169 -93 99 c-51 55 -102 112 -113 127 l-21 28 414
417 c438 440 516 521 883 915 126 136 232 246 236 245 3 -2 81 -52 173 -113z
m3535 -120 c39 -112 121 -350 181 -527 92 -276 450 -1303 495 -1422 8 -22 14
-40 12 -42 -3 -2 -577 -140 -682 -163 -49 -11 -119 -29 -155 -40 -36 -12 -68
-21 -72 -21 -27 0 9 30 130 112 129 88 284 209 325 256 19 20 19 21 -20 31
-214 57 -331 69 -1208 116 -497 27 -1159 67 -1410 86 -82 6 -200 8 -262 4
l-111 -7 -283 -304 c-155 -167 -283 -304 -284 -304 -1 0 -33 11 -71 24 -95 33
-141 54 -149 67 -4 6 11 30 33 52 164 172 452 551 452 597 0 15 -88 140 -98
140 -5 0 -149 -148 -320 -330 -172 -181 -320 -330 -329 -330 -9 0 -62 45 -117
100 -78 77 -99 103 -91 114 6 7 120 139 254 292 135 154 269 307 299 341 l54
63 -26 54 c-24 50 -94 126 -115 126 -5 0 -139 -140 -297 -312 -159 -171 -310
-334 -336 -362 l-48 -51 -110 113 -111 113 24 19 c37 29 340 359 606 658 128
144 237 262 241 262 4 0 54 -35 111 -78 237 -178 599 -423 694 -469 38 -18 55
-19 305 -12 514 15 879 31 1224 54 l350 24 180 -92 c100 -50 231 -116 291
-145 115 -57 346 -154 351 -149 2 2 -221 227 -496 502 l-499 499 48 33 c112
75 454 263 696 384 143 71 262 129 266 129 3 0 38 -92 78 -205z m-2501 -2122
c31 -13 117 -40 191 -59 75 -19 136 -36 137 -37 0 -1 33 -142 73 -314 39 -172
74 -320 78 -329 5 -14 2 -16 -18 -11 -22 5 -702 117 -713 117 -2 0 -19 35 -36
78 -54 129 -107 228 -155 286 l-45 55 146 165 145 165 70 -45 c38 -25 95 -57
127 -71z m-1259 -760 c157 -81 372 -191 476 -246 105 -54 274 -139 377 -190
103 -51 187 -95 187 -99 1 -12 -222 -250 -519 -553 -157 -160 -364 -376 -461
-480 -97 -105 -193 -208 -214 -230 -20 -22 -35 -33 -32 -25 18 51 150 324 237
490 56 107 149 285 206 396 l104 201 -73 104 c-107 152 -450 603 -516 679 -53
60 -79 100 -64 100 3 0 134 -66 292 -147z"/>
</g>
</svg>
