<?xml version="1.0" standalone="no"?>
<!DOCTYPE svg PUBLIC "-//W3C//DTD SVG 20010904//EN"
 "http://www.w3.org/TR/2001/REC-SVG-20010904/DTD/svg10.dtd">
<svg version="1.0" xmlns="http://www.w3.org/2000/svg"
 width="1024" height="1024" viewBox="0 0 1024 1024"
 preserveAspectRatio="xMidYMid meet">
  <rect width="1024" height="1024" fill="white"/>
<metadata>
Created by potrace 1.16, written by Peter Selinger 2001-2019
</metadata>
<g transform="translate(0.000000,1024.000000) scale(0.100000,-0.100000)"
fill="#000000" stroke="none">
<path d="M0 5120 l0 -5120 5120 0 5120 0 0 5120 0 5120 -5120 0 -5120 0 0
-5120z m5630 4072 c118 -120 239 -237 268 -260 81 -63 202 -136 477 -284 707
-383 958 -559 1180 -833 235 -289 493 -829 581 -1214 12 -57 24 -105 26 -106
2 -1 30 1 63 6 33 4 138 14 234 20 l174 13 -111 107 c-62 60 -112 109 -112
111 0 7 1132 -146 1173 -158 24 -7 21 -21 -5 -30 -54 -16 -304 -137 -640 -309
-198 -102 -362 -184 -364 -182 -2 2 16 64 41 137 25 74 45 136 45 138 0 12
-739 -85 -1365 -178 -148 -23 -394 -59 -545 -81 -777 -113 -1443 -212 -1567
-233 -76 -13 -139 -23 -139 -22 -1 1 -4 42 -5 93 l-4 91 135 21 c120 18 1169
177 2135 323 359 54 365 56 365 108 0 83 -116 468 -202 670 -128 299 -238 472
-417 653 -221 225 -484 413 -973 693 -150 86 -285 165 -300 175 l-26 19 -149
-198 c-165 -217 -488 -658 -603 -822 -40 -58 -77 -109 -80 -113 -4 -5 -23 38
-43 95 l-36 103 56 85 c31 47 106 155 166 240 61 85 200 287 310 449 l198 293
-12 52 c-6 28 -47 160 -90 293 -44 133 -79 245 -79 248 0 24 54 -24 240 -213z
m-1843 -1432 c483 -119 760 -230 896 -359 46 -44 90 -99 122 -152 53 -90 288
-589 280 -597 -3 -4 -1030 270 -1119 299 -16 5 -31 7 -33 5 -4 -4 87 -92 235
-226 56 -52 102 -95 102 -97 0 -7 -368 -459 -397 -489 -16 -16 -55 -48 -86
-72 l-56 -44 -287 86 c-158 47 -290 88 -293 91 -3 3 1 10 9 15 8 5 70 46 136
91 l122 83 11 90 c6 50 15 138 21 196 26 246 46 295 234 547 86 116 125 177
119 185 -4 7 -77 105 -160 216 -84 112 -153 205 -153 207 0 3 11 0 25 -5 14
-5 136 -37 272 -70z m835 -1270 c134 -44 250 -84 258 -89 12 -8 4 -52 -54
-285 -37 -152 -71 -276 -75 -276 -3 0 -93 43 -198 95 l-193 94 -1 38 c0 21 -8
137 -18 258 -16 198 -17 221 -3 233 9 6 21 12 28 12 7 0 122 -36 256 -80z
m-2239 -284 c381 -151 938 -352 1170 -421 48 -14 87 -29 87 -32 0 -14 -272 10
-585 52 -457 61 -1212 155 -1251 155 -19 0 -85 -27 -166 -67 -144 -73 -487
-265 -488 -273 0 -3 123 -29 273 -58 527 -103 1077 -216 1077 -223 0 -3 -19
-9 -42 -13 -95 -15 -261 -61 -451 -126 -185 -62 -550 -190 -588 -205 -17 -6
-255 174 -498 379 -79 67 -152 128 -162 136 -18 14 -5 30 246 283 l266 267 99
30 c166 49 755 177 828 179 13 1 96 -28 185 -63z m5899 -173 c20 -21 53 -65
73 -98 l37 -60 -6 -100 c-3 -55 -21 -181 -39 -280 l-34 -180 -57 1 c-59 1
-218 47 -235 68 -5 6 -37 79 -71 163 l-62 152 54 68 c77 96 101 133 88 133 -7
0 -53 -20 -104 -44 -78 -38 -103 -57 -174 -130 l-82 -85 -123 -45 c-68 -25
-245 -86 -393 -136 -148 -51 -332 -117 -409 -147 -123 -49 -147 -62 -200 -112
-153 -143 -132 -131 -231 -141 -49 -5 -241 -18 -427 -30 -186 -11 -402 -27
-480 -35 -190 -20 -184 -21 -145 13 18 16 157 136 308 268 360 312 374 324
398 324 23 0 217 -46 231 -54 5 -3 60 23 122 58 195 109 205 113 304 120 290
22 895 100 935 121 25 13 126 114 166 167 l21 27 224 14 c123 8 235 15 249 16
18 1 37 -11 62 -36z m-3990 -164 c134 -61 244 -112 245 -113 3 -3 -421 -384
-449 -404 -18 -13 -196 3 -797 71 l-104 12 314 215 c172 118 351 241 397 273
61 42 93 57 118 57 22 0 118 -39 276 -111z m1222 -287 l15 -29 -716 -709
c-474 -469 -762 -762 -851 -866 -75 -87 -138 -158 -142 -158 -4 0 -48 114 -98
253 -50 138 -147 402 -217 586 -69 183 -124 336 -121 339 3 2 101 0 218 -7
117 -6 255 -11 306 -11 l93 0 197 143 c245 179 592 417 652 448 61 32 103 36
397 38 l252 1 15 -28z m2428 -461 c84 -43 181 -89 216 -102 74 -28 73 -24 42
-206 -62 -366 -131 -603 -244 -838 -155 -322 -295 -490 -646 -775 -502 -408
-675 -560 -737 -650 -34 -50 -125 -203 -232 -390 l-72 -125 6 140 c4 77 10
221 15 320 l9 180 -48 50 c-139 144 -703 826 -1110 1344 -106 134 -113 146
-108 178 6 37 66 145 78 141 4 -2 40 -46 80 -97 275 -358 895 -1086 1166
-1370 l89 -95 275 254 c334 309 439 414 552 550 107 128 226 303 265 390 108
238 192 633 237 1108 4 39 8 72 10 72 2 0 72 -35 157 -79z m-4806 -403 c86
-229 129 -323 331 -728 l233 -465 1 -145 c1 -80 4 -176 8 -214 l6 -70 29 40
c138 185 475 489 885 798 107 80 196 144 198 142 2 -2 -35 -82 -83 -177 -110
-220 -196 -409 -241 -524 -19 -49 -40 -99 -48 -111 -7 -11 -42 -31 -77 -44
-34 -12 -166 -70 -293 -127 -247 -112 -363 -156 -401 -151 -28 4 -307 220
-382 296 -79 81 -118 174 -212 506 -114 404 -118 412 -255 626 -195 303 -325
512 -325 521 0 5 12 9 28 9 15 1 122 18 237 39 116 21 222 39 236 40 25 1 30
-9 125 -261z m116 -1735 c255 -163 309 -207 771 -627 l219 -199 -119 -119
c-65 -66 -153 -152 -197 -191 l-79 -71 -29 34 c-48 57 -401 588 -456 685 -27
50 -60 118 -73 153 l-22 63 -101 -99 c-137 -133 -177 -165 -426 -343 -118 -84
-385 -276 -593 -427 -208 -151 -380 -272 -382 -270 -21 21 1293 1525 1322
1514 8 -3 82 -49 165 -103z m1808 -122 c327 -281 745 -726 994 -1058 99 -133
381 -561 374 -569 -6 -6 -26 9 -278 221 -382 320 -579 469 -832 628 -294 185
-710 391 -1047 518 -58 22 -106 41 -109 43 -2 2 18 17 45 32 92 54 598 366
607 375 11 10 39 -12 246 -190z"/>
</g>
</svg>
