<?xml version="1.0" standalone="no"?>
<!DOCTYPE svg PUBLIC "-//W3C//DTD SVG 20010904//EN"
 "http://www.w3.org/TR/2001/REC-SVG-20010904/DTD/svg10.dtd">
<svg version="1.0" xmlns="http://www.w3.org/2000/svg"
 width="1024" height="1024" viewBox="0 0 1024 1024"
 preserveAspectRatio="xMidYMid meet">
  <rect width="1024" height="1024" fill="white"/>
<metadata>
Created by potrace 1.16, written by Peter Selinger 2001-2019
</metadata>
<g transform="translate(0.000000,1024.000000) scale(0.100000,-0.100000)"
fill="#000000" stroke="none">
<path d="M0 5120 l0 -5120 5120 0 5120 0 0 5120 0 5120 -5120 0 -5120 0 0
-5120z m5174 3843 c26 -49 80 -148 119 -221 71 -133 73 -134 152 -190 247
-173 346 -365 361 -697 5 -109 30 -309 69 -550 8 -49 15 -110 15 -135 l-1 -45
-297 -236 c-163 -130 -298 -235 -300 -234 -2 1 4 42 13 91 8 49 33 211 56 359
22 149 44 284 50 300 8 24 32 43 132 100 l122 71 22 64 c32 92 30 113 -9 132
-32 14 -36 14 -112 -19 -100 -43 -248 -119 -281 -145 -39 -31 -55 -82 -68
-218 l-12 -125 -30 -6 c-17 -4 -55 -7 -86 -8 l-57 -1 -7 83 c-8 105 -23 203
-36 243 -8 27 -25 39 -116 83 -143 71 -258 121 -277 121 -8 0 -27 -5 -41 -12
-25 -11 -26 -16 -20 -53 3 -22 16 -62 29 -90 21 -46 31 -55 127 -109 132 -75
135 -78 148 -134 15 -60 111 -725 106 -730 -1 -2 -135 103 -297 234 -161 130
-294 238 -296 240 -2 1 15 136 36 300 22 165 43 355 45 424 15 346 118 537
397 733 l75 53 105 207 c58 114 107 207 110 207 3 0 27 -39 54 -87z m2627
-465 c60 -222 135 -486 165 -588 47 -160 53 -188 42 -208 -7 -13 -54 -63 -105
-111 l-93 -88 0 -912 0 -911 -107 0 c-60 0 -118 -3 -131 -6 l-22 -6 2 913 3
913 -55 50 c-30 28 -77 72 -104 97 l-50 47 62 208 c34 115 96 349 137 519 113
469 127 519 137 501 5 -9 58 -197 119 -418z m-3631 -1659 c85 -61 209 -151
275 -199 66 -48 179 -127 250 -175 165 -112 317 -226 311 -232 -5 -6 -159 21
-476 82 -363 71 -827 144 -1013 160 -94 9 -194 19 -222 23 l-50 7 65 37 c36
20 207 120 380 222 173 102 317 186 320 186 3 0 75 -50 160 -111z m2234 2
c206 -112 493 -265 580 -308 l58 -29 -198 -33 c-110 -18 -437 -75 -729 -126
-495 -87 -866 -147 -873 -141 -12 13 938 735 967 736 8 0 96 -44 195 -99z
m540 -643 c13 -17 16 -18 12 -5 -4 11 -2 16 5 12 5 -4 7 -16 3 -27 -4 -14 -2
-18 5 -14 7 5 8 1 4 -10 -4 -10 -2 -15 3 -11 5 3 10 -2 11 -11 0 -9 28 -80 62
-157 93 -212 88 -203 121 -210 16 -4 32 -10 34 -14 3 -4 -44 -53 -104 -110
l-109 -102 -168 142 c-93 78 -174 147 -180 153 -10 9 -2 45 37 167 27 86 56
161 63 167 11 9 145 49 173 51 6 1 19 -9 28 -21z m-3388 -64 c66 -42 236 -150
379 -239 143 -89 305 -191 360 -227 55 -35 178 -113 273 -172 167 -105 172
-109 172 -141 0 -59 -39 -305 -80 -511 -137 -680 -323 -1145 -660 -1649 -136
-203 -251 -341 -528 -632 l-174 -183 -57 50 c-73 64 -277 286 -376 410 -382
479 -631 1055 -745 1721 -45 265 -86 667 -92 898 l-3 103 230 110 c483 230
598 285 865 409 151 70 285 128 296 128 12 1 75 -33 140 -75z m779 -50 c377
-50 706 -101 736 -112 17 -7 41 -7 69 -1 80 18 953 140 966 135 15 -6 204
-287 204 -304 0 -6 -79 -104 -176 -219 -96 -114 -285 -339 -419 -499 l-244
-291 -48 -7 c-103 -13 -333 -19 -333 -9 0 20 -80 568 -91 623 -6 30 -18 63
-27 73 -9 10 -84 61 -166 114 -83 53 -302 197 -486 321 -303 203 -330 223
-290 218 25 -4 162 -22 305 -42z m3580 -640 c39 -9 78 -17 87 -17 9 -1 15 -4
13 -8 -2 -3 9 -16 25 -28 38 -27 38 -25 0 -309 -40 -309 -35 -287 -75 -312
-34 -21 -44 -22 -238 -18 -146 3 -209 8 -228 18 l-26 14 -2 168 -2 168 134 0
134 0 -5 26 c-3 19 -16 31 -46 43 -54 24 -157 49 -231 57 -33 4 -65 11 -71 15
-21 17 -37 86 -30 132 l7 45 107 15 c133 19 347 15 447 -9z m-1331 -771 c357
-1080 713 -2219 780 -2497 l7 -28 -23 18 c-13 11 -80 65 -148 121 l-125 102
-159 448 c-87 246 -230 644 -317 884 -86 239 -165 461 -174 491 -14 49 -15 80
-6 245 6 103 13 286 17 406 4 119 8 217 10 217 1 0 63 -183 138 -407z m491
270 c47 -71 195 -327 191 -331 -2 -1 -75 31 -162 72 -142 67 -159 78 -157 98
2 20 82 218 88 218 1 0 19 -26 40 -57z m-995 -441 l0 -109 -407 -108 c-225
-60 -445 -116 -491 -126 l-83 -17 -144 62 -145 61 0 108 0 107 133 0 c159 1
395 21 572 49 242 39 510 79 538 80 l27 1 0 -108z m1730 -1662 l0 -1640 -135
0 -135 0 0 673 c0 371 3 1106 7 1635 l6 961 101 4 c56 1 113 4 129 5 l27 2 0
-1640z m-1666 1199 c26 -67 96 -252 156 -413 59 -160 158 -419 219 -575 61
-156 110 -285 109 -287 -6 -5 -263 143 -367 211 l-104 68 -125 191 c-320 488
-442 685 -442 714 0 5 27 16 59 25 33 9 137 52 233 95 171 78 197 90 209 91 3
1 27 -53 53 -120z m-1064 -807 c0 -317 -4 -582 -8 -589 -5 -8 -68 34 -192 129
-102 77 -197 151 -211 164 l-26 25 87 302 c48 166 106 365 128 442 22 77 46
159 52 183 l11 42 79 -60 80 -61 0 -577z m1135 -570 c187 -125 190 -128 219
-187 18 -37 36 -102 47 -170 40 -229 164 -679 185 -671 7 3 61 -37 121 -87 96
-82 361 -302 402 -334 13 -10 -86 -12 -470 -13 l-486 0 -2 237 c-1 138 -6 244
-12 255 -6 11 -8 26 -5 33 3 8 -14 38 -38 67 -41 51 -209 280 -310 422 -48 68
-48 68 -36 110 7 22 50 130 96 239 46 109 84 204 84 212 0 8 3 15 8 14 4 0 93
-58 197 -127z m-2147 -119 c43 -71 98 -163 122 -206 l42 -78 -53 -87 c-29 -48
-104 -167 -166 -265 -74 -118 -113 -188 -113 -207 0 -16 -7 -30 -15 -34 -13
-5 -15 -40 -15 -236 l0 -230 -482 0 c-407 0 -480 2 -468 14 8 7 112 92 230
189 118 96 229 190 246 209 26 28 40 65 92 258 88 322 105 398 99 450 l-5 45
111 65 c79 46 137 90 202 152 49 48 91 87 92 88 1 0 37 -57 81 -127z"/>
<path d="M4850 8483 c0 -10 -48 -116 -107 -237 -87 -177 -107 -227 -107 -264
l-1 -45 230 -69 c126 -37 241 -68 254 -68 21 0 186 45 443 121 l67 20 -26 72
c-44 122 -212 447 -232 447 -7 0 -208 -219 -237 -258 -9 -13 -33 13 -129 141
-79 105 -124 157 -136 157 -11 0 -19 -7 -19 -17z"/>
<path d="M3365 5790 c-11 -5 -96 -41 -190 -81 -279 -118 -739 -342 -777 -378
-9 -8 8 -381 23 -519 38 -344 155 -790 281 -1069 75 -165 241 -442 337 -561
44 -53 120 -137 170 -186 l91 -88 72 67 c181 165 331 356 498 635 96 159 222
426 283 600 88 250 200 720 214 899 l6 78 -144 95 c-292 191 -827 520 -841
517 -2 0 -12 -4 -23 -9z m39 -563 c47 -84 258 -434 324 -536 l61 -94 -80 -116
c-45 -64 -149 -216 -232 -338 -84 -122 -154 -222 -157 -222 -6 -1 -11 7 -195
294 -78 121 -167 264 -199 317 l-58 96 159 204 c87 112 199 258 248 326 49 67
92 122 95 122 3 0 18 -24 34 -53z"/>
</g>
</svg>
