<?xml version="1.0" standalone="no"?>
<!DOCTYPE svg PUBLIC "-//W3C//DTD SVG 20010904//EN"
 "http://www.w3.org/TR/2001/REC-SVG-20010904/DTD/svg10.dtd">
<svg version="1.0" xmlns="http://www.w3.org/2000/svg"
 width="1024" height="1024" viewBox="0 0 1024 1024"
 preserveAspectRatio="xMidYMid meet">
  <rect width="1024" height="1024" fill="white"/>
<metadata>
Created by potrace 1.16, written by Peter Selinger 2001-2019
</metadata>
<g transform="translate(0.000000,1024.000000) scale(0.100000,-0.100000)"
fill="#000000" stroke="none">
<path d="M0 5120 l0 -5120 5120 0 5120 0 0 5120 0 5120 -5120 0 -5120 0 0
-5120z m5435 3265 c127 -14 325 -36 440 -50 116 -13 280 -32 365 -40 270 -28
613 -77 832 -120 287 -57 773 -219 894 -299 193 -128 428 -445 482 -651 35
-136 120 -621 110 -631 -2 -1 -86 48 -188 108 -102 61 -254 142 -338 179 -84
38 -174 80 -200 93 -93 47 -280 115 -410 149 -73 20 -132 33 -130 29 14 -31
208 -368 235 -410 60 -88 113 -124 208 -138 147 -21 172 -27 238 -60 88 -44
125 -77 133 -121 10 -54 -12 -210 -78 -541 -54 -268 -67 -318 -88 -343 l-25
-30 -75 55 c-47 34 -140 84 -250 134 -692 313 -921 423 -973 464 l-28 23 67
185 c77 213 81 250 39 328 -15 27 -149 182 -302 348 l-275 299 134 6 c73 4
205 8 293 9 l160 2 -50 20 c-27 12 -175 85 -327 162 l-277 141 -232 182 c-127
100 -310 250 -406 335 -96 84 -189 165 -206 180 -20 17 -26 28 -17 28 8 0 119
-11 245 -25z m-109 -1429 l-250 -244 -135 -8 c-145 -7 -678 10 -770 26 -30 5
-147 19 -260 30 -283 28 -1127 122 -1526 170 -181 21 -378 44 -437 51 -116 13
-135 29 -35 29 34 0 220 9 412 20 1678 95 3036 167 3155 168 l95 1 -249 -243z
m574 -492 c74 -22 190 -89 269 -155 101 -86 294 -296 682 -744 405 -468 519
-612 545 -689 19 -55 18 -56 -76 -158 -69 -76 -373 -350 -465 -420 -188 -142
-699 -428 -1130 -631 -110 -52 -250 -120 -311 -150 -128 -64 -480 -214 -729
-310 -93 -36 -235 -95 -315 -132 -406 -187 -1069 -483 -1198 -536 -330 -136
-682 -295 -1044 -472 -142 -69 -258 -124 -258 -123 0 4 465 335 780 556 113
79 257 180 320 225 63 45 194 135 290 200 96 65 209 144 250 175 41 31 206
149 365 261 160 113 318 226 353 251 57 42 73 62 166 214 198 327 484 730 637
899 32 36 72 92 89 124 28 57 32 60 76 67 28 4 62 2 87 -6 64 -19 399 -179
521 -248 60 -34 111 -60 114 -58 2 3 -67 105 -154 228 -86 123 -194 275 -239
338 -44 63 -112 165 -149 225 -38 61 -70 112 -72 113 -10 13 -160 -36 -419
-135 -716 -275 -1061 -404 -1945 -728 -410 -150 -817 -298 -905 -328 -88 -30
-173 -60 -190 -66 -25 -9 -27 -8 -11 2 48 30 835 595 1218 873 233 169 448
324 478 343 l55 36 -1050 1 c-577 0 -1119 5 -1203 10 l-152 9 452 94 c1073
223 2115 444 2923 621 772 169 935 202 1135 233 62 10 161 6 210 -9z m-1383
-1726 c-57 -95 -119 -199 -140 -230 -20 -32 -48 -80 -62 -109 -29 -57 -164
-272 -192 -306 -16 -20 -59 -29 -403 -83 -212 -34 -519 -83 -682 -111 -163
-27 -305 -49 -315 -49 -11 0 0 11 27 26 24 14 74 47 110 73 70 52 140 90 282
151 50 22 136 66 192 99 133 77 331 186 665 366 307 165 426 233 527 299 38
25 74 45 81 46 7 0 -34 -78 -90 -172z m4496 -36 c59 -88 107 -164 107 -170 0
-18 -241 -576 -253 -588 -7 -6 -93 -47 -192 -91 -1212 -541 -1445 -643 -1473
-643 -42 0 -83 38 -200 184 -118 150 -241 296 -301 358 -32 34 -41 49 -30 52
15 6 314 99 914 286 209 65 392 123 407 129 32 12 58 47 53 71 -2 10 3 21 11
24 10 4 11 12 5 28 -18 50 27 140 88 176 38 22 735 339 752 341 3 1 53 -70
112 -157z m-3108 -1661 c66 -16 192 -46 280 -66 88 -20 166 -38 173 -40 7 -3
-52 -38 -130 -78 -79 -41 -195 -106 -259 -144 -143 -87 -210 -118 -369 -176
-175 -63 -263 -78 -1520 -257 -113 -16 -326 -47 -474 -70 -271 -41 -321 -45
-280 -22 12 6 287 112 610 236 798 304 1096 418 1243 478 198 80 417 149 501
158 41 4 82 8 90 8 9 1 69 -11 135 -27z"/>
</g>
</svg>
