<?xml version="1.0" standalone="no"?>
<!DOCTYPE svg PUBLIC "-//W3C//DTD SVG 20010904//EN"
 "http://www.w3.org/TR/2001/REC-SVG-20010904/DTD/svg10.dtd">
<svg version="1.0" xmlns="http://www.w3.org/2000/svg"
 width="1024" height="1024" viewBox="0 0 1024 1024"
 preserveAspectRatio="xMidYMid meet">
  <rect width="1024" height="1024" fill="white"/>
<metadata>
Created by potrace 1.16, written by Peter Selinger 2001-2019
</metadata>
<g transform="translate(0.000000,1536.000000) scale(0.100000,-0.100000)"
fill="#000000" stroke="none">
<path d="M0 7680 l0 -7680 5120 0 5120 0 0 7680 0 7680 -5120 0 -5120 0 0
-7680z m6725 4020 c37 -178 69 -282 145 -470 l66 -165 124 -62 c166 -83 320
-144 460 -183 63 -17 122 -34 130 -37 8 -3 -59 -25 -150 -48 -184 -48 -291
-87 -458 -166 -129 -60 -116 -43 -205 -256 -70 -166 -111 -287 -144 -428 l-26
-110 -33 130 c-42 169 -142 436 -217 582 -27 52 -379 197 -625 258 -62 15
-111 29 -109 31 2 2 60 19 128 38 178 49 253 78 444 170 l170 82 61 145 c87
202 126 312 169 476 21 79 40 142 41 140 2 -2 15 -59 29 -127z m-1276 -956
c-188 -747 -278 -1082 -556 -2064 -4 -13 56 -15 489 -17 484 -3 1015 -16 1025
-27 3 -3 -30 -67 -74 -143 -180 -309 -473 -843 -673 -1223 -99 -188 -696
-1303 -908 -1695 -41 -77 -215 -392 -385 -700 -170 -308 -321 -584 -335 -612
-26 -52 -44 -70 -36 -35 31 136 158 631 239 932 124 461 261 981 400 1525 104
402 204 772 249 919 l25 79 -162 -7 c-89 -3 -369 -11 -622 -17 -253 -5 -530
-14 -615 -18 -85 -5 -156 -7 -158 -6 -6 6 42 92 146 260 180 292 229 374 612
1015 205 344 417 697 470 785 205 338 554 922 717 1200 203 346 317 534 321
530 2 -1 -74 -308 -169 -681z m-4449 297 c594 -404 2640 -1842 2758 -1936 5
-5 -132 -274 -336 -660 -232 -440 -344 -639 -423 -756 l-59 -86 -103 -12 c-56
-6 -124 -14 -152 -17 l-50 -5 -65 78 c-35 43 -197 233 -360 422 -353 412 -480
563 -480 574 0 10 -29 13 632 -68 488 -60 741 -94 828 -111 43 -8 27 2 -1260
790 -102 63 -37 -44 -558 926 -168 313 -492 929 -492 935 0 8 6 4 120 -74z
m8199 -228 c-90 -164 -248 -451 -352 -638 -105 -187 -237 -425 -295 -530 -133
-242 -179 -319 -200 -338 -9 -8 -294 -186 -632 -394 -735 -454 -749 -463 -732
-463 7 0 63 9 125 20 219 39 1443 197 1453 188 2 -2 -69 -87 -157 -188 -89
-102 -298 -346 -467 -542 l-306 -358 -41 0 c-62 0 -287 18 -495 40 -249 26
-599 52 -616 46 -18 -7 -18 -40 0 -75 35 -67 136 -133 471 -308 209 -110 255
-136 255 -143 0 -8 -277 -211 -405 -297 -66 -44 -207 -132 -312 -196 -151 -91
-215 -124 -295 -150 -131 -44 -295 -80 -473 -106 -196 -28 -205 -29 -205 -18
0 18 255 499 433 817 38 69 167 294 287 500 442 762 504 878 534 996 20 78 20
195 1 261 -19 63 -78 127 -134 144 -23 7 -41 15 -41 18 1 7 64 54 650 486 564
416 951 699 1560 1140 595 431 544 394 549 390 2 -2 -70 -138 -160 -302z
m-4829 -3479 c0 -11 -41 -168 -61 -234 -11 -36 -53 -159 -94 -275 -41 -115
-82 -238 -92 -273 l-18 -62 -360 179 c-394 196 -568 294 -707 397 l-91 68 64
24 c185 69 321 95 604 117 163 12 437 39 600 58 53 7 155 7 155 1z m1100
-1371 c32 -8 131 -17 237 -20 100 -3 187 -9 194 -13 18 -12 -180 -369 -948
-1705 -82 -143 -205 -358 -272 -477 -68 -120 -126 -218 -129 -218 -15 0 52
935 75 1034 32 145 77 232 423 831 133 231 263 459 289 507 34 65 50 86 61 82
8 -4 40 -13 70 -21z"/>
</g>
</svg>
