<?xml version="1.0" standalone="no"?>
<!DOCTYPE svg PUBLIC "-//W3C//DTD SVG 20010904//EN"
 "http://www.w3.org/TR/2001/REC-SVG-20010904/DTD/svg10.dtd">
<svg version="1.0" xmlns="http://www.w3.org/2000/svg"
 width="1024" height="1024" viewBox="0 0 1024 1024"
 preserveAspectRatio="xMidYMid meet">
  <rect width="1024" height="1024" fill="white"/>
<metadata>
Created by potrace 1.16, written by Peter Selinger 2001-2019
</metadata>
<g transform="translate(0.000000,1024.000000) scale(0.100000,-0.100000)"
fill="#000000" stroke="none">
<path d="M0 5120 l0 -5120 5120 0 5120 0 0 5120 0 5120 -5120 0 -5120 0 0
-5120z m6813 3858 c-164 -207 -200 -252 -248 -309 -104 -123 -250 -298 -345
-415 -58 -71 -114 -138 -126 -149 -11 -11 -44 -50 -72 -86 -54 -69 -126 -138
-146 -140 -26 -2 -316 -80 -456 -123 -25 -8 -92 -28 -150 -46 -346 -104 -738
-271 -1020 -435 -74 -43 -166 -96 -205 -118 -38 -22 -95 -57 -126 -79 l-57
-38 -47 -143 c-27 -78 -51 -155 -55 -172 -13 -53 -141 -489 -146 -496 -2 -4
-9 -29 -14 -56 -16 -82 -19 -96 -36 -162 -12 -49 -13 -74 -5 -105 24 -97 34
-143 37 -176 2 -19 11 -55 18 -80 8 -25 24 -83 36 -130 29 -117 50 -174 147
-403 97 -232 174 -389 237 -487 25 -39 46 -72 46 -74 0 -2 24 -40 54 -85 57
-86 237 -296 269 -313 42 -22 5 -18 -55 7 -34 14 -142 55 -238 90 -227 84
-368 140 -455 181 -66 31 -72 36 -112 106 -22 40 -67 127 -99 193 -31 66 -76
152 -99 190 -23 39 -92 165 -152 280 -144 274 -199 374 -214 385 -3 3 -24 37
-46 75 -37 65 -126 211 -201 330 -34 55 -34 50 -3 225 5 30 12 71 15 90 4 19
16 73 27 120 12 47 22 92 24 100 9 41 59 218 90 320 20 63 37 120 39 125 1 6
23 75 48 155 25 80 62 204 83 275 46 166 119 345 148 367 12 9 51 29 87 44 36
15 83 34 105 44 22 10 49 21 60 25 72 26 310 110 360 126 94 31 226 79 270
100 22 10 99 39 170 64 72 26 151 55 176 65 25 11 56 21 70 24 23 5 93 25 204
60 28 9 50 15 50 14 0 0 27 7 60 17 33 9 80 23 105 30 25 7 106 31 180 53 74
22 182 52 240 67 103 26 311 84 380 106 39 12 573 205 690 249 41 15 98 35
125 44 28 8 102 33 165 54 63 22 117 38 119 36 2 -2 -1 -9 -6 -16z m17 -1448
c52 -38 154 -108 225 -156 72 -48 135 -92 140 -96 22 -18 179 -128 315 -221
80 -55 197 -142 260 -193 202 -164 186 -143 236 -289 25 -71 53 -164 63 -205
23 -93 48 -168 206 -630 53 -152 87 -266 140 -465 15 -55 58 -192 95 -305 37
-113 80 -245 95 -295 16 -49 48 -139 73 -200 24 -60 81 -202 127 -315 46 -113
117 -278 158 -368 101 -217 100 -212 46 -175 -57 39 -248 159 -469 293 -185
113 -424 267 -527 339 -71 49 -75 58 -108 216 -6 30 -34 146 -67 275 -16 63
-31 122 -33 130 -51 224 -129 473 -192 615 -19 44 -43 103 -54 130 -10 28 -37
86 -60 130 -23 44 -64 125 -91 180 -48 96 -217 361 -267 417 -18 21 -58 39
-160 72 -109 35 -219 70 -261 81 -3 1 -12 4 -20 7 -89 31 -305 90 -440 120
-221 49 -328 56 -543 37 -155 -14 -221 -32 -642 -179 -200 -70 -492 -215 -685
-340 -80 -52 -156 -102 -169 -112 -13 -10 -26 -16 -29 -14 -2 3 4 26 14 53 21
56 188 386 215 424 11 15 22 35 27 45 23 57 59 97 115 131 34 20 87 53 117 73
58 39 94 59 330 185 80 43 190 105 245 138 180 109 664 355 825 420 166 66
402 116 550 115 l105 -1 95 -67z m-5480 -1033 c182 -114 429 -266 515 -317 50
-30 119 -72 155 -95 36 -23 117 -74 181 -113 l117 -72 56 -172 c31 -95 71
-220 90 -278 63 -191 153 -443 205 -570 29 -69 74 -183 102 -255 69 -180 278
-598 317 -636 15 -14 212 -97 246 -103 6 -1 76 -23 156 -48 80 -26 174 -53
210 -62 36 -8 119 -31 185 -50 66 -20 131 -38 145 -40 100 -19 332 -67 365
-75 52 -12 256 -6 365 12 47 8 135 31 195 52 115 38 328 119 357 135 9 5 58
25 109 45 51 20 98 39 103 44 6 5 38 18 70 30 59 22 206 97 216 110 3 4 28 20
55 35 28 16 77 50 110 75 70 54 115 84 120 79 19 -19 -290 -675 -356 -755 -23
-27 -402 -206 -589 -278 -175 -67 -338 -128 -435 -162 -55 -19 -109 -38 -120
-42 -11 -5 -45 -16 -75 -24 -30 -9 -101 -30 -157 -47 -56 -17 -114 -33 -130
-36 -15 -2 -59 -15 -98 -29 -116 -40 -271 -85 -293 -85 -12 0 -45 9 -74 20
-50 19 -63 25 -120 50 -36 15 -82 33 -94 35 -5 2 -64 28 -130 58 -66 31 -169
77 -229 102 -208 89 -607 281 -730 352 -156 89 -144 72 -231 341 -42 131 -109
338 -149 462 -105 319 -142 437 -159 500 -8 30 -36 129 -64 220 -27 91 -64
217 -82 280 -76 273 -347 985 -480 1263 -26 53 -44 97 -41 97 3 0 44 -24 91
-53z m4641 -376 c30 -10 75 -29 99 -41 25 -13 135 -54 245 -91 178 -60 239
-82 337 -120 17 -7 52 -50 104 -127 70 -105 254 -408 254 -417 0 -3 21 -39 46
-82 25 -43 64 -114 86 -158 22 -44 43 -82 47 -85 8 -6 181 -353 181 -363 0 -3
18 -44 41 -89 22 -46 72 -180 110 -298 38 -118 73 -227 78 -242 7 -22 -3 -57
-53 -190 -34 -90 -70 -179 -78 -198 -17 -37 -57 -136 -153 -380 -31 -80 -78
-197 -105 -260 -26 -63 -59 -144 -74 -180 -29 -70 -127 -249 -171 -313 -20
-30 -46 -48 -113 -79 -137 -63 -160 -73 -277 -118 -60 -24 -141 -56 -180 -72
-38 -15 -83 -32 -100 -37 -16 -5 -82 -29 -145 -52 -63 -23 -149 -53 -190 -66
-41 -13 -109 -37 -150 -53 -81 -30 -363 -115 -420 -125 -19 -4 -116 -29 -215
-55 -411 -111 -522 -140 -557 -145 -56 -9 -480 -154 -818 -280 -376 -140 -420
-155 -420 -147 1 11 80 112 230 292 74 89 178 215 230 279 263 324 429 509
475 533 27 14 180 53 460 117 444 102 863 261 1234 468 143 80 334 196 363
221 16 14 64 151 88 257 7 28 23 84 37 125 13 41 35 116 48 165 34 132 93 333
104 353 30 58 44 344 21 446 -5 23 -11 61 -14 86 -19 153 -85 421 -129 520 -9
19 -34 80 -56 135 -95 238 -287 557 -441 735 -50 58 -104 115 -118 127 -34 29
-15 30 59 4z m-706 -237 c66 -92 153 -214 193 -273 39 -58 78 -113 85 -121 6
-9 51 -74 100 -145 133 -197 214 -312 278 -395 l57 -74 -51 -32 c-29 -18 -88
-54 -132 -80 -44 -26 -100 -62 -125 -79 -25 -18 -130 -83 -235 -146 -104 -62
-192 -116 -195 -119 -8 -10 -127 -80 -135 -80 -9 0 -107 60 -115 70 -3 4 -41
31 -85 60 -44 29 -149 105 -233 167 -84 62 -155 113 -158 113 -3 0 -23 14 -44
30 -21 17 -42 30 -46 30 -5 0 -17 7 -26 14 -14 10 -16 19 -8 46 5 18 12 51 15
73 8 51 60 197 95 267 39 77 133 218 231 346 46 60 86 111 89 114 3 3 35 40
70 84 36 43 89 106 118 140 29 33 69 82 89 109 21 26 40 47 43 47 3 0 59 -75
125 -166z"/>
<path d="M5115 5275 c-17 -8 -49 -37 -70 -63 -22 -25 -70 -78 -107 -117 -37
-39 -74 -88 -83 -108 -14 -35 -14 -40 1 -66 9 -15 25 -33 35 -39 18 -12 294
-42 382 -42 60 0 99 21 126 70 25 45 26 61 5 103 -17 32 -129 203 -162 245
-23 30 -86 38 -127 17z"/>
</g>
</svg>
