<?xml version="1.0" standalone="no"?>
<!DOCTYPE svg PUBLIC "-//W3C//DTD SVG 20010904//EN"
 "http://www.w3.org/TR/2001/REC-SVG-20010904/DTD/svg10.dtd">
<svg version="1.0" xmlns="http://www.w3.org/2000/svg"
 width="1024" height="1024" viewBox="0 0 1024 1024"
 preserveAspectRatio="xMidYMid meet">
  <rect width="1024" height="1024" fill="white"/>
<metadata>
Created by potrace 1.16, written by Peter Selinger 2001-2019
</metadata>
<g transform="translate(0.000000,1024.000000) scale(0.100000,-0.100000)"
fill="#000000" stroke="none">
<path d="M0 5120 l0 -5120 5120 0 5120 0 0 5120 0 5120 -5120 0 -5120 0 0
-5120z m1508 3291 c163 -131 385 -298 492 -371 219 -150 538 -379 800 -574
465 -347 1018 -766 1030 -781 12 -14 9 -24 -17 -73 -17 -31 -102 -210 -188
-397 -86 -187 -182 -388 -212 -447 l-56 -107 86 -118 c47 -65 398 -552 781
-1083 815 -1132 888 -1232 900 -1234 5 0 162 211 348 469 286 395 798 1104
1309 1811 l116 161 -35 59 c-19 32 -84 167 -144 299 -171 372 -247 535 -279
595 l-30 55 28 23 c61 50 1082 818 1293 973 124 91 328 237 454 325 207 144
312 225 720 551 71 57 131 101 134 99 2 -3 -35 -92 -83 -198 -48 -106 -133
-292 -187 -413 -273 -600 -610 -1294 -686 -1410 -23 -36 -112 -130 -220 -233
-99 -95 -270 -266 -380 -380 l-200 -208 326 166 c180 91 399 205 487 253 187
101 604 301 612 293 3 -3 -70 -117 -162 -253 -91 -136 -341 -509 -555 -828
-213 -319 -397 -585 -408 -592 -40 -24 -369 -207 -566 -315 -271 -148 -400
-222 -471 -270 -66 -44 -67 -45 -467 -626 -116 -169 -224 -324 -240 -345 -36
-45 -22 -47 40 -5 59 40 488 369 601 461 46 37 86 66 88 63 11 -11 -223 -370
-412 -631 -56 -77 -192 -270 -302 -430 -110 -159 -245 -354 -299 -432 -54 -78
-149 -215 -211 -305 -128 -187 -216 -308 -223 -308 -3 0 -95 131 -205 290
-110 160 -247 357 -304 438 -57 81 -186 266 -286 412 -100 146 -218 315 -262
375 -110 151 -232 336 -278 420 -21 39 -53 91 -72 117 -18 27 -31 48 -28 48 6
0 182 -134 485 -370 199 -155 239 -184 246 -178 4 4 -33 59 -459 675 -200 289
-203 293 -277 342 -75 49 -306 182 -710 408 -118 66 -241 136 -273 155 -57 35
-66 48 -463 639 -620 922 -697 1039 -691 1045 8 8 436 -201 727 -355 124 -65
331 -172 461 -237 l236 -119 -172 180 c-95 99 -185 195 -200 213 -16 18 -112
109 -214 201 -161 146 -192 179 -233 247 -62 106 -286 559 -463 939 -61 131
-101 216 -165 350 -28 61 -104 227 -167 370 -153 346 -153 345 -147 345 2 0
138 -107 302 -239z m3642 -1056 c7 -9 76 -64 154 -122 78 -59 191 -148 251
-198 61 -50 153 -124 205 -164 243 -189 590 -525 590 -572 0 -46 -229 -307
-594 -678 -239 -242 -624 -611 -638 -611 -15 0 -623 606 -842 840 -276 294
-312 335 -354 397 l-35 53 29 37 c103 136 358 366 749 677 143 113 302 240
354 281 52 41 100 75 107 75 6 0 17 -7 24 -15z m-956 -1852 c135 -93 282 -192
328 -221 90 -58 215 -168 204 -179 -11 -11 -296 33 -429 66 -177 44 -183 49
-240 161 -60 120 -133 340 -113 340 3 0 115 -75 250 -167z m2091 110 c-37
-157 -138 -374 -186 -399 -66 -34 -456 -115 -549 -113 l-35 0 70 65 c39 36
147 117 240 179 94 63 235 162 315 219 80 58 148 106 152 106 3 0 0 -26 -7
-57z"/>
</g>
</svg>
