<?xml version="1.0" standalone="no"?>
<!DOCTYPE svg PUBLIC "-//W3C//DTD SVG 20010904//EN"
 "http://www.w3.org/TR/2001/REC-SVG-20010904/DTD/svg10.dtd">
<svg version="1.0" xmlns="http://www.w3.org/2000/svg"
 width="1024" height="1024" viewBox="0 0 1024 1024"
 preserveAspectRatio="xMidYMid meet">
  <rect width="1024" height="1024" fill="white"/>
<metadata>
Created by potrace 1.16, written by Peter Selinger 2001-2019
</metadata>
<g transform="translate(0.000000,1024.000000) scale(0.100000,-0.100000)"
fill="#000000" stroke="none">
<path d="M0 5120 l0 -5120 5120 0 5120 0 0 5120 0 5120 -5120 0 -5120 0 0
-5120z m5252 3253 c67 -60 221 -198 342 -308 122 -110 248 -223 280 -252 l58
-52 5 -88 c3 -51 -6 -230 -21 -423 -15 -184 -30 -371 -33 -414 -6 -72 -5 -79
11 -73 33 13 79 -62 59 -96 -8 -14 -74 -73 -273 -247 -52 -46 -151 -136 -220
-200 -200 -188 -317 -290 -330 -290 -12 0 -206 168 -345 300 -44 41 -178 160
-297 264 -120 104 -218 194 -218 201 0 17 57 65 76 65 9 0 14 11 14 33 0 42
-35 419 -56 602 -16 136 -14 331 4 360 13 22 322 300 730 657 42 37 81 68 85
68 4 0 63 -48 129 -107z m-2259 -295 c47 -90 131 -244 186 -342 80 -142 99
-182 89 -191 -7 -7 -88 -57 -180 -113 -157 -96 -170 -102 -221 -102 -35 0 -59
5 -66 14 -10 12 -32 105 -55 239 -4 20 -10 37 -15 37 -4 0 -34 -68 -67 -152
-32 -83 -67 -156 -76 -162 -13 -8 -52 -4 -155 18 -76 15 -150 34 -165 42 -23
12 -74 101 -109 192 -13 35 -26 26 -34 -25 -4 -25 -37 -157 -75 -292 -38 -135
-96 -349 -129 -476 -34 -126 -90 -338 -126 -470 -36 -132 -74 -277 -83 -322
-17 -76 -22 -86 -72 -140 -141 -150 -345 -376 -348 -384 -7 -19 18 -7 65 29
26 21 161 113 299 205 232 154 260 175 371 289 67 68 133 138 148 156 26 31
29 32 108 32 45 1 129 5 187 10 104 9 105 9 142 -17 21 -14 38 -31 38 -37 0
-6 7 -21 15 -33 13 -19 20 -21 41 -13 22 9 32 5 64 -20 44 -35 56 -61 41 -87
-7 -14 0 -38 28 -98 21 -44 86 -188 145 -320 59 -132 125 -276 146 -321 21
-45 41 -104 45 -133 l7 -51 -30 0 c-16 0 -169 25 -338 55 -699 126 -1032 187
-1093 201 -55 12 -85 13 -70 0 2 -1 202 -100 444 -219 242 -118 471 -232 509
-254 73 -40 93 -63 56 -63 -35 0 -205 -49 -330 -95 -193 -71 -257 -88 -309
-82 -34 3 -118 42 -336 157 -399 209 -443 235 -495 289 -35 37 -73 60 -170
105 -69 31 -196 92 -282 134 -136 66 -157 80 -152 97 7 29 95 478 153 785 28
146 55 304 60 351 4 48 15 95 22 106 8 10 127 167 264 347 138 181 306 404
375 496 188 253 522 692 540 710 11 11 43 19 96 23 43 4 135 12 204 18 299 26
441 37 521 38 l86 1 86 -162z m4572 152 c72 -5 236 -16 365 -25 129 -9 244
-18 255 -20 12 -2 35 -24 51 -47 17 -24 102 -135 189 -248 86 -113 223 -293
303 -400 80 -107 164 -217 187 -245 53 -64 293 -382 411 -545 97 -135 116
-178 135 -315 6 -44 19 -122 30 -174 11 -52 31 -158 44 -235 14 -78 39 -204
56 -281 17 -77 34 -175 39 -218 5 -42 12 -93 15 -111 l7 -34 -269 -132 c-147
-74 -293 -150 -323 -170 -130 -87 -344 -206 -570 -320 l-244 -121 -80 -1 c-74
-1 -98 4 -266 60 -102 34 -216 69 -255 79 -43 11 -71 24 -73 33 -1 9 24 33 60
57 59 40 562 294 818 413 122 57 170 88 116 76 -80 -19 -497 -99 -696 -135
-124 -21 -350 -63 -502 -91 -152 -29 -284 -50 -293 -46 -38 14 -13 89 152 456
88 195 168 371 178 390 10 19 19 51 20 71 1 19 8 49 16 65 12 24 21 30 54 32
47 4 65 17 65 47 0 12 9 34 21 49 19 24 27 26 92 26 40 0 137 -7 216 -15 l144
-15 56 -63 c138 -156 249 -241 609 -466 45 -28 119 -78 164 -112 44 -33 83
-57 86 -55 3 3 -35 49 -84 101 -304 328 -312 338 -333 430 -6 28 -31 122 -55
210 -145 524 -341 1249 -354 1305 -8 36 -17 72 -19 80 -3 9 -25 -26 -53 -80
-26 -52 -56 -102 -66 -111 -11 -8 -66 -25 -124 -38 -58 -12 -126 -27 -151 -33
-26 -6 -53 -9 -61 -6 -8 3 -27 39 -43 79 -88 228 -115 276 -115 212 -1 -33
-46 -242 -54 -250 -3 -4 -30 -8 -59 -11 -38 -3 -64 1 -88 13 -71 37 -349 208
-349 215 0 5 34 75 76 157 42 81 118 232 170 336 l94 187 78 0 c42 -1 136 -5
207 -10z m-3142 -2077 c180 -195 644 -724 690 -786 12 -17 16 -15 52 31 44 55
470 543 677 777 74 83 138 150 143 150 16 0 18 -55 5 -143 -7 -45 -13 -122
-15 -170 -2 -48 -6 -97 -10 -109 -4 -13 -3 -23 1 -22 5 0 90 29 189 62 l180
62 42 80 c22 44 53 89 67 102 42 36 120 51 316 63 286 16 250 24 371 -81 100
-87 122 -115 102 -128 -6 -3 -93 -121 -195 -261 -186 -257 -228 -316 -426
-600 -177 -254 -336 -473 -461 -633 -64 -84 -161 -210 -215 -282 -54 -71 -102
-131 -107 -133 -5 -2 -57 41 -116 96 -60 55 -123 112 -141 127 -19 16 -83 85
-144 154 -61 69 -148 165 -195 214 -76 79 -87 87 -122 87 -36 0 -44 -6 -142
-117 -176 -198 -211 -235 -389 -406 -95 -92 -176 -164 -181 -161 -8 4 -167
219 -379 509 -58 79 -177 240 -266 357 -88 117 -202 274 -252 348 -109 162
-239 346 -382 541 -58 79 -109 149 -113 156 -6 9 23 44 93 114 56 55 110 104
121 107 36 14 575 -32 597 -51 8 -6 35 -53 61 -105 l48 -95 176 -62 177 -62
-1 36 c-3 88 -20 281 -31 328 -10 45 -7 83 6 83 2 0 78 -80 169 -177z m2625
-1501 c19 -6 34 -35 83 -156 32 -82 59 -153 59 -159 0 -18 -106 -169 -163
-232 -87 -97 -362 -447 -566 -720 -41 -55 -111 -136 -156 -180 -88 -86 -125
-137 -125 -172 0 -12 -32 -60 -73 -110 -40 -48 -154 -194 -252 -323 -99 -129
-234 -303 -300 -385 -66 -83 -182 -230 -259 -328 -120 -154 -142 -177 -166
-177 -24 0 -49 25 -177 182 -83 101 -201 251 -263 333 -63 83 -199 258 -304
390 -106 132 -222 278 -259 325 -37 47 -72 101 -77 120 -6 22 -33 57 -71 95
-112 109 -138 139 -207 233 -164 227 -380 505 -664 853 -61 74 -61 96 -4 231
24 56 48 116 51 131 11 40 47 55 88 35 17 -8 145 -116 282 -239 229 -204 389
-357 782 -743 129 -127 176 -163 141 -107 -13 22 -27 8 579 594 l91 89 336
-323 c185 -177 336 -329 336 -336 0 -8 -7 -27 -15 -43 -9 -18 -11 -30 -5 -30
5 0 153 143 328 318 289 289 891 841 917 840 6 0 20 -3 33 -6z m-2643 -2519
c229 -191 275 -234 275 -257 0 -24 -17 -17 -89 35 -31 23 -173 118 -316 213
l-260 172 -3 58 c-2 32 -1 65 2 73 7 17 117 -65 391 -294z m1825 248 c0 -33 2
-66 5 -73 7 -16 -628 -444 -644 -434 -21 13 8 47 134 158 221 193 483 408 497
408 5 0 8 -27 8 -59z"/>
<path d="M5594 7459 c-38 -34 -103 -87 -144 -118 -85 -63 -318 -211 -332 -211
-35 0 -359 225 -486 336 -29 26 -55 44 -58 41 -7 -7 104 -356 119 -375 11 -14
227 -169 264 -190 16 -9 29 -35 47 -95 45 -149 96 -361 96 -399 0 -39 13 -51
24 -22 3 9 6 29 6 45 0 16 9 62 20 102 45 163 100 350 102 352 2 1 55 37 118
80 175 119 198 140 211 188 6 23 31 103 55 178 24 75 44 139 44 142 0 17 -22
3 -86 -54z"/>
</g>
</svg>
