<?xml version="1.0" standalone="no"?>
<!DOCTYPE svg PUBLIC "-//W3C//DTD SVG 20010904//EN"
 "http://www.w3.org/TR/2001/REC-SVG-20010904/DTD/svg10.dtd">
<svg version="1.0" xmlns="http://www.w3.org/2000/svg"
 width="1024" height="1024" viewBox="0 0 1024 1024"
 preserveAspectRatio="xMidYMid meet">
  <rect width="1024" height="1024" fill="white"/>
<metadata>
Created by potrace 1.16, written by Peter Selinger 2001-2019
</metadata>
<g transform="translate(0.000000,1024.000000) scale(0.100000,-0.100000)"
fill="#000000" stroke="none">
<path d="M0 5120 l0 -5120 5120 0 5120 0 0 5120 0 5120 -5120 0 -5120 0 0
-5120z m5469 2972 l302 -353 -147 -257 c-81 -141 -154 -264 -163 -274 -15 -15
-33 -12 -261 46 -135 35 -243 67 -240 72 3 5 61 55 130 112 69 57 126 108 128
112 2 5 -36 86 -83 180 -61 121 -90 169 -98 161 -5 -5 -41 -63 -78 -128 -55
-97 -72 -119 -93 -121 -20 -3 -478 53 -603 73 -37 7 -1 66 -398 -655 -348
-632 -336 -610 -495 -860 -207 -325 -238 -375 -255 -415 l-15 -38 128 5 128 5
170 170 c93 93 188 184 212 201 110 78 450 190 543 178 198 -26 388 -120 521
-258 37 -38 115 -135 174 -216 124 -169 222 -296 233 -300 9 -3 -38 221 -70
335 -12 43 -34 111 -50 151 -16 40 -29 74 -29 76 0 14 218 130 325 173 144 58
175 62 335 42 175 -21 343 -78 491 -165 102 -60 290 -238 354 -334 69 -103
306 -603 304 -642 -1 -29 -609 -912 -629 -915 -18 -2 -748 802 -897 988 -36
45 -53 59 -68 55 -35 -8 -944 -321 -1073 -370 l-123 -46 -227 54 c-125 30
-285 66 -357 80 -219 43 -385 73 -385 70 0 -2 186 -114 413 -250 226 -136 431
-260 454 -276 l42 -28 233 15 c128 8 289 20 358 25 69 5 219 17 335 25 243 18
211 31 282 -110 61 -120 357 -684 399 -761 19 -33 34 -67 34 -75 0 -36 -244
-342 -282 -355 -11 -3 -21 -4 -23 -2 -5 6 -234 417 -375 673 -78 143 -143 261
-145 263 -2 2 -126 -19 -276 -47 -643 -118 -682 -122 -779 -72 -59 30 -644
345 -980 526 -111 60 -729 385 -860 453 -28 14 -35 23 -33 45 3 43 106 293
203 492 199 408 415 733 1070 1615 162 217 343 463 403 545 61 83 154 204 207
270 53 66 115 145 137 176 62 84 65 86 145 93 150 14 965 107 1013 115 28 5
57 8 67 7 9 0 152 -160 317 -354z m1698 -1829 c941 -951 1193 -1210 1193
-1225 0 -14 -3352 -3368 -3367 -3368 -6 0 -290 280 -631 623 -637 640 -1948
1941 -1973 1959 -27 19 9 1 306 -148 413 -208 654 -318 960 -435 l130 -50 602
-602 603 -602 787 785 c434 432 1017 1013 1297 1292 l510 506 -75 88 c-41 48
-136 162 -213 253 -508 610 -755 898 -838 976 -107 103 -283 224 -428 295 -55
26 -105 50 -112 52 -16 6 25 59 151 198 155 170 234 250 247 250 6 0 389 -381
851 -847z"/>
</g>
</svg>
