<?xml version="1.0" standalone="no"?>
<!DOCTYPE svg PUBLIC "-//W3C//DTD SVG 20010904//EN"
 "http://www.w3.org/TR/2001/REC-SVG-20010904/DTD/svg10.dtd">
<svg version="1.0" xmlns="http://www.w3.org/2000/svg"
 width="1024" height="1024" viewBox="0 0 1024 1024"
 preserveAspectRatio="xMidYMid meet">
  <rect width="1024" height="1024" fill="white"/>
<metadata>
Created by potrace 1.16, written by Peter Selinger 2001-2019
</metadata>
<g transform="translate(0.000000,1024.000000) scale(0.100000,-0.100000)"
fill="#000000" stroke="none">
<path d="M0 5120 l0 -5120 5120 0 5120 0 0 5120 0 5120 -5120 0 -5120 0 0
-5120z m5071 4153 c457 -398 783 -920 923 -1479 28 -113 60 -299 78 -459 17
-149 17 -610 0 -750 -15 -118 -59 -336 -91 -450 -11 -38 -18 -71 -17 -73 2 -1
49 45 104 103 213 223 360 457 451 719 51 145 98 414 117 664 4 50 10 92 13
92 9 0 223 -309 303 -437 172 -274 315 -608 387 -906 185 -756 -3 -1475 -511
-1963 -255 -245 -553 -406 -948 -514 -99 -27 -112 -25 -70 8 97 75 240 215
331 324 309 369 466 643 536 936 22 93 26 136 30 327 5 218 -5 355 -39 530
-10 49 -13 56 -22 41 -35 -58 -173 -229 -279 -344 -194 -212 -371 -369 -580
-516 l-67 -48 -49 103 c-96 205 -150 404 -171 629 -5 63 -14 276 -20 472 -17
626 -59 881 -217 1321 -31 86 -60 157 -63 157 -4 0 -17 -26 -30 -57 -75 -186
-273 -542 -545 -983 -322 -521 -448 -792 -518 -1110 -33 -145 -47 -277 -47
-427 l0 -118 -106 105 c-167 165 -327 372 -449 582 -62 106 -61 108 -71 -97
-23 -504 140 -973 490 -1405 92 -113 251 -274 349 -353 48 -38 86 -72 83 -74
-7 -7 -226 54 -333 92 -356 129 -683 364 -905 650 -455 586 -472 1407 -46
2259 79 158 162 299 256 436 83 121 334 451 339 447 2 -2 -2 -51 -8 -108 -15
-138 -6 -598 15 -739 17 -114 68 -371 73 -367 1 2 14 43 28 92 70 239 232 561
550 1089 125 209 254 430 286 491 192 364 269 682 269 1108 l0 159 43 -33 c23
-18 90 -75 148 -126z m-125 -3020 c-38 -177 -17 -497 49 -740 71 -265 149
-417 354 -693 187 -252 241 -369 241 -518 0 -43 -7 -105 -15 -137 -38 -145
-154 -326 -330 -512 l-86 -93 -88 108 c-49 59 -130 154 -181 212 -265 301
-382 520 -426 801 -24 151 -15 421 19 579 48 219 98 355 226 610 76 150 120
231 210 382 21 36 34 36 27 1z m-2430 -1922 c496 -234 872 -410 1050 -492 172
-79 1045 -497 1052 -503 2 -3 -104 -51 -598 -273 -235 -106 -257 -114 -286
-104 -17 6 -193 88 -390 182 -197 94 -462 220 -589 279 -126 59 -281 132 -342
161 l-113 54 0 398 c0 218 1 397 3 397 2 0 97 -44 213 -99z m5412 -308 l-3
-398 -275 -131 c-151 -73 -480 -229 -730 -347 -250 -118 -664 -313 -920 -434
-844 -399 -1704 -820 -1985 -971 -393 -212 -508 -285 -746 -474 -126 -101
-233 -184 -238 -186 -5 -2 -121 86 -257 195 -137 109 -301 240 -366 291 -82
66 -115 97 -112 110 2 9 31 145 64 301 33 157 61 285 63 287 2 2 725 267 951
349 118 43 165 51 125 22 -38 -28 -418 -352 -415 -354 8 -8 208 31 292 58 197
63 314 115 1124 499 223 106 459 216 526 245 67 29 211 96 320 148 109 52 307
143 439 202 132 59 389 178 570 265 182 87 476 224 655 305 503 228 794 361
847 389 26 14 54 25 61 26 10 0 12 -83 10 -397z m-954 -1444 c156 -57 849
-319 852 -322 2 -1 26 -136 54 -300 44 -253 50 -300 38 -314 -21 -26 -232
-192 -490 -387 l-237 -178 -98 69 c-54 38 -181 129 -283 203 -159 114 -213
146 -380 227 -513 248 -949 467 -943 473 5 4 123 56 263 115 140 59 344 147
452 195 l197 87 143 -43 c234 -72 568 -146 568 -125 0 3 -15 16 -33 28 -17 11
-112 78 -210 146 l-177 126 52 24 c29 14 62 26 72 26 11 1 83 -22 160 -50z"/>
<path d="M2580 2195 c0 -2 35 -59 77 -127 42 -67 133 -231 201 -363 124 -241
218 -405 232 -405 4 0 34 61 67 136 l60 137 -62 191 -63 191 -188 92 c-201 98
-324 154 -324 148z"/>
<path d="M7550 2159 c-58 -26 -167 -78 -242 -115 l-137 -67 -40 -111 c-22 -61
-53 -146 -68 -189 l-28 -79 50 -149 c27 -82 53 -149 56 -149 9 0 120 194 237
417 108 205 192 351 254 441 17 24 28 45 26 46 -1 2 -50 -19 -108 -45z"/>
</g>
</svg>
