<?xml version="1.0" standalone="no"?>
<!DOCTYPE svg PUBLIC "-//W3C//DTD SVG 20010904//EN"
 "http://www.w3.org/TR/2001/REC-SVG-20010904/DTD/svg10.dtd">
<svg version="1.0" xmlns="http://www.w3.org/2000/svg"
 width="1024" height="1024" viewBox="0 0 1024 1024"
 preserveAspectRatio="xMidYMid meet">
  <rect width="1024" height="1024" fill="white"/>
<metadata>
Created by potrace 1.16, written by Peter Selinger 2001-2019
</metadata>
<g transform="translate(0.000000,1536.000000) scale(0.100000,-0.100000)"
fill="#000000" stroke="none">
<path d="M0 7680 l0 -7680 5120 0 5120 0 0 7680 0 7680 -5120 0 -5120 0 0
-7680z m5249 4630 c40 -660 109 -1047 253 -1411 29 -74 122 -276 208 -449 86
-173 237 -479 335 -678 132 -267 181 -359 187 -345 4 10 34 160 68 333 125
649 191 985 195 998 3 8 20 -15 39 -50 19 -35 145 -263 281 -508 275 -497 343
-631 473 -935 170 -397 277 -713 324 -949 39 -200 25 -431 -38 -623 -96 -291
-365 -686 -683 -1003 -190 -190 -403 -341 -656 -468 -84 -41 -421 -192 -431
-192 -3 0 53 62 124 138 167 176 223 243 404 485 412 550 558 849 558 1141 0
132 -42 407 -95 618 -34 137 -130 447 -136 440 -3 -4 -23 -65 -44 -137 -102
-351 -207 -625 -293 -772 -56 -95 -142 -208 -234 -307 l-73 -80 -5 325 -5 324
-33 96 c-95 282 -317 697 -710 1325 -192 306 -298 490 -393 674 -29 56 -44 78
-46 65 -1 -11 -16 -198 -33 -415 -17 -217 -35 -429 -41 -470 -43 -325 -131
-660 -244 -926 -72 -168 -361 -715 -381 -721 -12 -3 -63 67 -124 173 -56 96
-273 533 -364 733 -86 187 -73 187 -144 9 -150 -380 -221 -663 -222 -884 -1
-289 199 -729 532 -1172 118 -157 223 -283 394 -472 139 -153 169 -190 157
-190 -5 0 -13 4 -19 10 -5 5 -110 59 -234 121 -270 134 -403 210 -530 305
-423 315 -834 865 -984 1314 -64 190 -71 377 -22 575 95 387 448 1285 756
1925 70 146 148 319 174 385 47 121 62 153 69 145 2 -3 18 -95 36 -204 35
-217 91 -452 140 -586 91 -248 298 -581 500 -803 64 -71 67 -71 51 -4 -10 39
-146 1165 -170 1396 -14 143 -13 218 6 282 74 257 249 607 465 931 145 218
426 598 565 766 l69 84 6 -84 c4 -46 12 -171 18 -278z m-51 -3366 c171 -458
209 -648 199 -983 -4 -146 -11 -213 -32 -311 -44 -210 -128 -449 -284 -809
-39 -89 -71 -165 -71 -167 0 -9 150 72 218 118 101 68 330 294 418 412 41 54
74 102 74 107 0 5 3 9 8 9 12 0 -5 -400 -21 -480 -44 -221 -184 -435 -511
-783 -66 -70 -123 -126 -128 -125 -32 11 -295 344 -476 603 -229 327 -291 544
-214 754 42 111 114 245 262 486 146 237 211 359 280 518 127 296 199 577 200
773 1 85 2 83 78 -122z m-1604 -2931 c556 -279 1066 -535 1133 -568 67 -33
122 -62 123 -66 0 -3 -37 -20 -82 -39 -46 -18 -192 -88 -324 -155 l-242 -122
-108 70 c-132 85 -716 453 -869 547 -305 188 -410 250 -417 250 -10 0 74 -116
181 -250 94 -118 220 -259 373 -416 65 -66 118 -124 118 -129 0 -4 -6 -3 -12
3 -7 5 -123 66 -258 134 -135 69 -286 148 -336 176 -51 28 -147 79 -215 113
-110 55 -419 227 -419 233 0 1 44 90 98 197 53 107 128 270 166 362 38 92 72
167 75 167 3 0 460 -228 1015 -507z m4097 357 c58 -145 162 -356 243 -490 31
-51 55 -94 54 -95 -27 -17 -114 -64 -298 -160 -124 -65 -347 -183 -497 -262
-226 -120 -438 -223 -459 -223 -17 0 508 584 635 707 53 51 93 93 88 93 -19 0
-299 -148 -622 -330 -66 -37 -208 -116 -315 -175 -587 -324 -1727 -1006 -2115
-1265 -88 -59 -241 -159 -340 -223 -99 -64 -295 -195 -435 -291 -503 -345
-641 -438 -644 -435 -1 2 -24 83 -50 179 -26 96 -50 182 -52 191 -3 12 40 52
148 138 147 117 375 318 377 333 1 6 -464 -178 -592 -235 -69 -31 -49 -40
-250 108 l-136 100 74 27 c41 15 146 59 233 98 86 39 211 91 276 116 66 25
163 65 217 89 54 25 196 83 316 131 120 47 315 129 433 181 203 89 1320 648
1865 932 312 163 1277 644 1525 761 102 48 201 96 220 108 19 12 39 21 43 19
4 -1 30 -58 58 -127z m-1316 -1665 c127 -59 275 -128 330 -155 55 -26 271
-130 480 -230 209 -100 437 -210 508 -243 70 -34 127 -64 127 -67 -1 -3 -101
-66 -223 -140 -139 -85 -231 -135 -247 -134 -32 1 -326 118 -744 296 -180 76
-330 138 -332 136 -1 -2 47 -42 107 -88 61 -47 163 -126 227 -175 217 -168
535 -393 579 -410 4 -2 -54 -385 -59 -391 -9 -8 -335 169 -426 231 -56 39
-135 90 -175 115 -40 25 -115 75 -167 111 -143 99 -776 523 -932 623 l-137 88
77 57 c122 90 273 189 457 299 94 55 199 121 235 146 36 25 70 43 75 41 6 -2
114 -52 240 -110z m-3809 -1047 c137 -128 175 -168 179 -192 5 -36 25 -369 22
-373 -4 -3 -298 245 -355 300 l-53 52 6 170 c6 163 11 205 21 205 3 0 84 -73
180 -162z m5323 -54 c-12 -181 -15 -199 -36 -224 -12 -15 -92 -74 -175 -131
-84 -56 -181 -122 -216 -147 -35 -24 -66 -42 -69 -38 -3 3 -1 63 6 133 6 71
11 165 11 210 l0 82 128 90 c135 95 354 232 360 226 2 -2 -2 -92 -9 -201z"/>
</g>
</svg>
