<?xml version="1.0" standalone="no"?>
<!DOCTYPE svg PUBLIC "-//W3C//DTD SVG 20010904//EN"
 "http://www.w3.org/TR/2001/REC-SVG-20010904/DTD/svg10.dtd">
<svg version="1.0" xmlns="http://www.w3.org/2000/svg"
 width="1024" height="1024" viewBox="0 0 1024 1024"
 preserveAspectRatio="xMidYMid meet">
  <rect width="1024" height="1024" fill="white"/>
<metadata>
Created by potrace 1.16, written by Peter Selinger 2001-2019
</metadata>
<g transform="translate(0.000000,1024.000000) scale(0.100000,-0.100000)"
fill="#000000" stroke="none">
<path d="M0 5120 l0 -5120 5120 0 5120 0 0 5120 0 5120 -5120 0 -5120 0 0
-5120z m8532 3943 c-12 -43 -53 -213 -92 -378 -39 -165 -97 -410 -130 -545
-32 -135 -68 -289 -80 -343 -19 -87 -26 -101 -58 -131 -21 -18 -154 -141 -297
-272 -143 -132 -281 -257 -306 -279 -25 -22 -128 -114 -230 -205 -101 -91
-226 -201 -278 -244 -51 -44 -130 -114 -175 -155 -80 -76 -286 -260 -441 -396
-44 -38 -116 -104 -160 -145 -228 -214 -527 -485 -582 -527 -33 -26 -121 -102
-195 -169 -73 -66 -163 -146 -199 -176 l-65 -55 -22 106 c-12 58 -29 142 -37
185 l-15 79 62 66 c246 262 942 972 1055 1077 303 282 1358 1356 1387 1412 17
33 84 215 142 387 19 55 43 113 55 128 64 87 -46 4 -279 -212 -201 -186 -354
-339 -507 -511 -72 -80 -238 -255 -370 -390 -132 -135 -296 -306 -364 -380
-69 -74 -336 -349 -595 -611 -259 -262 -541 -550 -628 -641 l-156 -165 -149
38 c-178 46 -270 72 -277 80 -6 6 185 226 364 419 53 58 191 218 305 355 115
138 252 300 305 360 53 61 139 162 191 225 51 63 186 223 299 355 113 132 261
308 330 390 468 564 795 941 837 968 6 4 56 16 110 27 146 30 581 154 888 252
150 48 365 107 374 101 2 -1 -6 -37 -17 -80z m-379 -2390 c-28 -62 -73 -139
-109 -188 -12 -16 -55 -86 -94 -155 -100 -172 -147 -238 -309 -435 -104 -125
-464 -483 -656 -651 -148 -129 -218 -185 -457 -367 l-87 -66 -118 46 c-65 24
-183 67 -263 95 -80 28 -146 52 -148 53 -2 2 41 26 96 55 167 85 714 458 1006
684 203 158 453 362 627 512 308 266 398 346 464 407 39 36 71 66 72 67 1 0
-10 -26 -24 -57z m-4443 -267 c354 -121 501 -171 528 -181 9 -3 -16 -38 -72
-101 -57 -64 -86 -104 -86 -120 0 -25 114 -197 225 -340 152 -194 499 -556
711 -740 184 -161 393 -309 501 -355 55 -23 149 -25 221 -4 29 9 57 13 61 10
5 -3 15 -22 22 -43 6 -20 55 -147 109 -282 96 -242 155 -408 148 -415 -4 -5
-184 45 -483 133 -132 39 -259 76 -282 82 -33 8 -49 21 -78 61 -47 65 -200
235 -676 745 -168 180 -482 484 -628 608 -73 61 -171 126 -257 169 l-71 36
-26 83 c-14 46 -60 200 -101 343 -41 143 -88 299 -105 348 -16 48 -29 87 -28
87 2 0 167 -56 367 -124z m4499 -837 c-132 -340 -333 -698 -559 -999 -154
-205 -227 -290 -467 -542 -377 -397 -593 -565 -983 -762 -323 -164 -564 -226
-881 -226 -355 0 -677 102 -987 312 -56 39 -104 74 -107 78 -3 4 28 0 68 -11
203 -52 308 -64 592 -63 351 1 516 22 779 100 168 50 344 118 466 179 129 65
491 291 599 375 l80 62 -73 48 c-41 26 -76 52 -80 58 -3 5 25 30 62 55 65 43
104 74 372 292 426 346 805 713 1030 998 63 80 118 146 122 147 3 0 -11 -45
-33 -101z m-4190 -604 c25 -27 74 -80 109 -116 l64 -67 -54 -73 c-30 -41 -101
-141 -158 -224 -56 -82 -129 -185 -161 -227 -32 -43 -55 -78 -52 -78 3 0 96
67 207 149 110 81 246 178 301 214 l100 66 60 -58 c33 -32 95 -88 138 -125 42
-38 77 -71 77 -75 0 -3 -38 -21 -84 -39 -278 -109 -776 -392 -958 -545 -26
-21 -51 -37 -55 -36 -5 2 -61 58 -126 125 l-117 121 24 22 c41 39 136 177 190
278 29 54 85 157 124 229 81 150 256 496 272 540 l11 29 22 -30 c12 -16 42
-52 66 -80z m-785 -1302 c135 -138 138 -143 127 -170 -27 -67 -63 -208 -87
-337 -20 -112 -56 -251 -68 -263 -6 -6 -365 -66 -582 -97 -138 -20 -273 -43
-300 -51 -27 -8 -49 -15 -50 -15 0 0 10 30 22 68 59 177 200 643 234 776 21
81 40 149 42 151 2 2 58 8 124 14 140 13 348 46 372 61 10 5 19 8 22 7 3 -1
67 -66 144 -144z m3975 -345 c-395 -501 -811 -813 -1350 -1011 -170 -63 -496
-144 -651 -162 l-58 -6 83 -62 c90 -67 196 -131 602 -365 278 -160 573 -322
587 -322 4 0 8 -4 8 -10 0 -20 -55 -29 -420 -72 -179 -21 -718 -18 -895 5
-454 59 -845 173 -1270 369 -160 74 -388 196 -475 254 -80 53 -383 294 -378
300 3 2 47 -14 99 -35 387 -159 520 -210 704 -267 264 -83 474 -136 640 -162
133 -21 632 -68 640 -61 2 3 -123 81 -277 174 -275 166 -580 375 -823 565
-131 102 -288 240 -281 247 2 3 80 -16 173 -41 312 -84 600 -141 777 -156 299
-24 638 -8 893 41 318 61 760 225 1038 384 116 66 428 272 565 373 52 39 98
71 103 71 4 1 -11 -23 -34 -51z"/>
<path d="M3110 3565 c-29 -35 -114 -65 -312 -109 -23 -5 -30 -17 -57 -98 -50
-154 -93 -300 -89 -303 5 -6 298 89 335 108 18 10 37 27 44 38 12 24 101 371
95 376 -2 2 -9 -4 -16 -12z"/>
</g>
</svg>
