<?xml version="1.0" standalone="no"?>
<!DOCTYPE svg PUBLIC "-//W3C//DTD SVG 20010904//EN"
 "http://www.w3.org/TR/2001/REC-SVG-20010904/DTD/svg10.dtd">
<svg version="1.0" xmlns="http://www.w3.org/2000/svg"
 width="1024" height="1024" viewBox="0 0 1024 1024"
 preserveAspectRatio="xMidYMid meet">
  <rect width="1024" height="1024" fill="white"/>
<metadata>
Created by potrace 1.16, written by Peter Selinger 2001-2019
</metadata>
<g transform="translate(0.000000,1024.000000) scale(0.100000,-0.100000)"
fill="#000000" stroke="none">
<path d="M0 5120 l0 -5120 5120 0 5120 0 0 5120 0 5120 -5120 0 -5120 0 0
-5120z m5160 4078 c0 -6 63 -124 139 -262 77 -138 170 -309 207 -381 249 -480
582 -1037 608 -1017 343 267 682 511 1125 812 51 35 112 81 134 102 23 21 46
38 52 38 16 0 25 -822 25 -2180 0 -643 4 -1060 9 -1065 16 -16 81 -178 81
-200 0 -30 -125 -97 -452 -245 -435 -197 -852 -482 -1208 -827 -191 -184 -388
-403 -595 -661 -54 -68 -111 -130 -127 -138 -15 -8 -28 -12 -28 -8 0 4 -7 1
-15 -6 -20 -17 -35 -3 -137 125 -236 296 -365 442 -588 666 -156 157 -312 295
-405 359 -12 8 -67 49 -121 90 -213 161 -452 295 -789 445 -280 124 -365 168
-371 193 -6 22 18 95 63 184 l23 47 1 1118 c1 615 5 1354 8 1643 l6 525 27
-39 c39 -56 106 -107 443 -338 341 -233 413 -284 688 -490 108 -81 199 -148
202 -148 17 0 276 424 422 690 98 179 231 414 422 747 66 116 121 216 121 222
0 6 7 11 15 11 8 0 15 -5 15 -12z m3074 -1845 c-1 -258 1 -770 5 -1138 l6
-671 81 -144 c121 -215 287 -503 401 -695 85 -145 149 -254 279 -481 l23 -41
-72 -28 c-40 -15 -259 -102 -487 -193 -228 -90 -431 -170 -450 -177 -19 -8
-73 -30 -120 -50 -47 -20 -143 -60 -215 -90 -247 -101 -500 -206 -530 -220
-16 -8 -86 -38 -155 -66 -69 -28 -165 -68 -215 -89 -331 -139 -522 -212 -853
-326 l-212 -73 -218 -213 c-288 -283 -377 -368 -386 -368 -4 0 -119 107 -254
239 -388 375 -336 336 -530 402 -341 117 -790 288 -965 368 -37 17 -70 31 -73
31 -3 0 -20 6 -37 14 -47 21 -380 161 -627 264 -218 91 -284 117 -765 307
-385 152 -649 258 -655 262 -3 3 2 10 10 16 8 7 49 71 89 142 41 72 144 249
229 395 86 146 227 389 314 540 l158 274 0 1128 c0 621 2 1128 5 1128 3 0 18
-8 33 -19 15 -10 81 -51 147 -92 154 -93 273 -176 283 -197 5 -9 6 -487 3
-1062 l-6 -1045 -48 -67 c-55 -77 -185 -277 -232 -358 -18 -30 -58 -98 -89
-150 -59 -99 -181 -339 -175 -344 2 -1 76 -28 164 -60 88 -32 207 -75 265 -96
216 -79 408 -150 515 -190 61 -23 198 -73 305 -110 575 -201 913 -358 1197
-556 165 -115 244 -184 495 -432 l246 -243 49 52 c76 82 461 446 533 504 92
74 266 192 395 267 185 108 318 163 1010 418 166 62 257 96 535 201 91 34 237
88 325 119 189 67 339 122 343 125 11 8 -157 311 -301 542 -145 231 -147 235
-199 310 l-47 68 -2 1060 c-2 981 -1 1060 15 1070 9 5 72 49 139 97 67 48 160
108 205 134 46 26 86 53 89 61 3 7 10 13 17 13 8 0 11 -120 10 -467z m-5058
-4452 c5 -4 56 -21 114 -36 176 -46 347 -95 505 -142 196 -59 456 -133 470
-133 28 -1 122 -87 471 -438 l381 -383 391 390 c215 215 394 391 397 391 3 0
14 8 25 18 10 9 67 30 127 45 59 16 155 44 213 62 58 19 211 64 340 100 129
36 282 79 340 95 108 31 140 36 140 22 0 -4 -75 -70 -167 -147 -326 -274 -580
-493 -688 -595 -60 -57 -182 -172 -270 -255 -88 -84 -209 -197 -270 -252 -124
-114 -457 -450 -528 -533 l-47 -55 -32 40 c-55 68 -379 396 -560 567 -95 90
-251 240 -348 333 -97 94 -218 209 -270 256 -88 79 -469 399 -673 564 -47 39
-86 76 -87 83 0 14 12 16 26 3z"/>
<path d="M5101 8323 c-12 -25 -55 -101 -95 -167 -40 -67 -110 -186 -156 -266
-131 -228 -234 -394 -404 -655 -126 -192 -296 -487 -296 -512 0 -18 62 -107
204 -297 112 -149 267 -359 345 -466 78 -107 205 -282 282 -389 77 -106 143
-199 146 -207 3 -8 9 -14 13 -14 4 0 49 57 101 128 106 144 300 413 374 517
56 77 436 583 486 645 38 48 35 59 -59 216 -119 199 -421 692 -509 829 -38 61
-143 239 -233 398 -90 158 -167 287 -170 287 -3 0 -16 -21 -29 -47z m99 -980
c30 -59 106 -204 168 -323 61 -118 112 -219 112 -224 0 -13 -333 -666 -339
-666 -4 0 -11 10 -17 23 -6 12 -82 160 -168 329 -86 169 -156 315 -156 325 0
10 28 71 63 135 34 65 108 205 165 313 57 107 106 195 110 195 4 0 32 -48 62
-107z"/>
<path d="M3127 7508 c-4 -149 -7 -708 -7 -1242 l1 -971 32 -16 c124 -61 782
-502 952 -638 265 -211 466 -404 584 -560 168 -222 308 -452 377 -620 24 -58
44 -107 44 -108 0 -2 4 -3 9 -3 5 0 23 37 41 83 134 341 478 781 847 1085 210
173 491 375 723 522 136 86 348 227 373 248 17 15 18 66 15 1056 -4 1288 -5
1416 -20 1416 -27 0 -364 -232 -627 -430 -87 -66 -164 -120 -170 -120 -17 0
-13 -22 12 -60 13 -19 70 -117 126 -216 65 -114 112 -187 127 -195 31 -16 30
-30 -6 -69 -26 -27 -119 -142 -315 -390 -119 -150 -281 -375 -435 -605 -40
-60 -126 -184 -190 -275 -65 -91 -164 -237 -220 -325 l-103 -160 -23 -122
c-13 -67 -32 -157 -43 -200 -10 -43 -22 -96 -26 -118 -12 -75 -36 -145 -50
-145 -11 0 -34 73 -50 160 -5 26 -33 142 -66 271 -10 42 -19 88 -19 102 0 28
-119 214 -273 426 -50 69 -192 272 -315 451 -124 179 -263 376 -309 438 -84
112 -404 515 -430 540 -7 7 -13 17 -13 21 0 12 43 56 61 63 8 3 31 37 51 75
20 38 68 125 107 193 39 68 71 126 70 129 -1 11 -163 131 -484 358 -89 64
-338 223 -348 223 -2 0 -7 -122 -10 -272z"/>
</g>
</svg>
