<?xml version="1.0" standalone="no"?>
<!DOCTYPE svg PUBLIC "-//W3C//DTD SVG 20010904//EN"
 "http://www.w3.org/TR/2001/REC-SVG-20010904/DTD/svg10.dtd">
<svg version="1.0" xmlns="http://www.w3.org/2000/svg"
 width="1024" height="1024" viewBox="0 0 1024 1024"
 preserveAspectRatio="xMidYMid meet">
  <rect width="1024" height="1024" fill="white"/>
<metadata>
Created by potrace 1.16, written by Peter Selinger 2001-2019
</metadata>
<g transform="translate(0.000000,1024.000000) scale(0.100000,-0.100000)"
fill="#000000" stroke="none">
<path d="M0 5120 l0 -5120 5120 0 5120 0 0 5120 0 5120 -5120 0 -5120 0 0
-5120z m5413 3830 c49 -102 135 -270 192 -375 57 -104 118 -220 136 -257 18
-38 36 -68 40 -68 4 0 65 62 136 138 140 150 424 431 436 432 4 0 7 -35 7 -78
0 -42 7 -136 15 -207 9 -72 27 -231 40 -355 14 -124 35 -295 47 -380 20 -145
20 -250 0 -250 -4 0 -81 58 -172 130 -91 71 -207 162 -259 201 l-94 72 -43
-21 c-24 -12 -114 -62 -200 -112 -86 -50 -158 -89 -159 -88 -5 8 -244 287
-318 372 -48 54 -87 104 -87 110 0 13 -20 -9 -256 -282 -164 -188 -177 -201
-197 -190 -12 6 -100 58 -195 115 l-174 103 -111 -85 c-62 -46 -184 -140 -272
-208 l-160 -125 -5 37 c-3 20 1 88 7 151 7 63 33 311 58 550 25 239 48 442 50
450 2 8 5 34 7 58 1 23 4 41 8 40 11 -6 268 -276 388 -410 107 -118 171 -172
187 -156 32 32 388 731 562 1103 36 77 73 148 81 158 16 17 23 6 117 -185 55
-112 140 -286 188 -388z m-2997 -805 c175 -81 319 -155 504 -256 85 -47 270
-148 410 -224 391 -212 440 -245 440 -294 0 -68 -133 -637 -153 -657 -2 -2
-13 14 -26 36 -20 36 -22 54 -24 205 l-2 167 -220 150 c-242 167 -356 248
-487 350 -47 38 -89 68 -92 68 -7 0 43 -114 142 -325 44 -93 83 -181 87 -195
4 -14 28 -78 52 -142 l46 -118 179 -157 c99 -87 198 -174 219 -193 38 -34 40
-40 68 -175 16 -77 33 -153 37 -169 l7 -29 -38 29 c-21 16 -187 128 -369 249
l-331 220 -57 113 c-65 131 -79 166 -311 772 -159 414 -227 603 -227 631 0 13
-12 17 146 -56z m5515 -72 c-35 -104 -163 -445 -363 -968 -33 -88 -88 -216
-122 -285 l-61 -125 -240 -160 c-132 -88 -298 -199 -369 -248 -71 -48 -131
-85 -133 -84 -9 10 70 333 85 348 9 9 106 92 215 185 140 119 203 179 214 204
8 19 34 87 58 150 24 63 93 223 153 355 60 132 108 242 107 243 -2 2 -66 -43
-142 -100 -76 -58 -226 -165 -333 -238 -107 -74 -225 -154 -261 -179 l-67 -46
-4 -175 c-4 -172 -14 -227 -43 -237 -22 -7 -136 483 -158 676 -3 21 271 188
548 336 132 70 317 169 410 221 94 51 240 124 325 162 85 38 169 76 185 85 17
8 31 11 33 7 2 -5 -15 -62 -37 -127z m-3475 -600 c210 -147 596 -413 629 -433
17 -11 29 -12 40 -5 8 6 120 78 247 162 128 84 314 208 413 277 l180 124 78
-76 c104 -101 277 -289 277 -300 0 -10 -440 -250 -880 -480 -69 -36 -126 -66
-127 -67 -4 -3 166 -521 187 -570 l20 -47 -187 -194 c-161 -166 -192 -194
-218 -194 -26 0 -52 23 -188 162 -87 90 -169 177 -182 194 l-25 30 100 300
c55 164 100 303 100 309 0 6 -75 51 -167 99 -355 187 -833 449 -833 457 0 5
57 70 128 146 70 75 147 159 171 185 24 27 49 47 55 45 7 -3 88 -58 182 -124z
m-224 -793 l113 -155 147 -5 c80 -3 149 -8 152 -11 4 -3 -11 -37 -32 -75 -21
-38 -133 -249 -248 -469 l-209 -400 1 -75 c0 -57 9 -98 33 -170 31 -90 105
-260 114 -260 2 0 44 19 93 41 117 55 322 121 459 150 133 28 316 29 451 4
198 -36 458 -111 579 -165 l64 -29 35 85 c54 128 87 241 95 324 l7 75 -86 175
c-109 220 -342 658 -387 728 -18 29 -31 57 -28 63 4 5 71 9 150 9 111 0 147 3
158 14 8 8 62 80 121 160 59 80 110 146 114 145 4 0 41 -41 82 -91 41 -51 101
-120 133 -154 l57 -62 -62 -74 c-35 -41 -105 -123 -156 -182 -101 -117 -95
-100 -77 -217 2 -14 23 -59 48 -100 46 -78 186 -339 282 -526 l57 -112 -68
-88 c-38 -48 -181 -222 -318 -386 -169 -204 -253 -297 -263 -293 -8 3 -107 72
-221 154 -272 195 -500 352 -511 352 -4 0 -37 -22 -72 -48 -35 -27 -149 -109
-254 -182 -104 -73 -235 -166 -289 -206 -55 -40 -103 -71 -108 -68 -25 16
-576 686 -625 761 -14 22 -7 37 123 280 76 142 161 299 189 348 43 74 53 102
59 158 l8 68 -152 180 -152 181 44 47 c55 57 178 199 204 234 10 15 22 25 25
24 4 -1 58 -72 121 -157z m-1135 -474 c70 -40 197 -110 280 -155 84 -45 155
-86 157 -90 9 -13 -267 -270 -672 -626 -56 -49 -102 -95 -102 -101 0 -7 68
-77 151 -155 l151 -144 -27 -20 c-172 -125 -385 -288 -404 -309 -14 -14 -33
-26 -43 -26 -20 0 -343 85 -387 101 -21 9 -19 4 15 -34 33 -37 343 -431 382
-487 12 -16 10 -42 -13 -172 -14 -84 -40 -213 -56 -287 -16 -73 -32 -159 -35
-190 l-6 -56 206 -185 c118 -107 206 -192 206 -203 0 -47 -104 -644 -114 -654
-3 -3 -39 -10 -81 -16 -62 -9 -78 -9 -85 2 -4 8 -34 88 -67 179 -41 115 -64
169 -80 179 -12 8 -88 37 -169 64 -82 28 -154 55 -161 61 -8 7 -17 8 -23 2
-14 -14 -75 -179 -115 -308 -19 -65 -37 -122 -40 -126 -2 -4 9 -20 26 -36 17
-16 76 -81 132 -144 55 -63 153 -168 216 -233 l116 -117 -82 0 c-89 0 -305 13
-531 32 l-144 11 -61 81 c-34 45 -133 173 -220 286 -179 230 -209 276 -209
323 -1 17 65 428 146 912 l147 880 32 27 c18 14 77 62 132 106 l100 79 75 174
c41 96 140 316 220 489 81 173 164 359 186 413 l39 98 230 153 c127 84 273
179 325 211 52 32 102 64 110 72 8 7 15 13 16 13 1 0 60 -33 131 -74z m4391
-68 c342 -225 456 -306 469 -336 7 -15 37 -85 67 -157 30 -71 103 -236 164
-365 60 -129 139 -305 176 -390 109 -251 95 -232 242 -344 l131 -100 136 -826
c181 -1088 165 -966 136 -1028 -13 -28 -124 -181 -246 -340 l-222 -289 -83 -7
c-193 -16 -519 -35 -592 -36 l-80 0 105 107 c57 60 150 160 206 223 56 63 119
132 141 153 l39 38 -52 162 c-63 196 -99 283 -117 280 -22 -3 -270 -92 -320
-115 l-47 -21 -57 -171 c-31 -94 -61 -177 -67 -184 -20 -26 -140 -3 -162 32
-8 11 -26 80 -40 151 -25 127 -85 478 -85 500 0 6 94 95 208 197 l209 187 -9
63 c-4 35 -19 113 -33 173 -14 61 -40 184 -58 273 l-33 164 52 63 c28 35 117
148 197 252 80 103 154 198 166 210 26 27 27 37 4 23 -23 -13 -353 -100 -379
-100 -11 0 -33 14 -50 31 -16 17 -118 97 -228 177 l-198 147 156 150 157 150
-93 80 c-109 94 -694 630 -702 644 -3 5 33 29 82 54 48 25 177 95 287 156 110
61 201 111 203 111 2 0 101 -64 220 -142z m-2911 -375 c22 -27 79 -91 127
-143 47 -52 86 -100 86 -106 0 -6 -33 -19 -72 -29 -72 -17 -176 -61 -250 -106
-21 -13 -41 -19 -45 -15 -5 4 -8 58 -8 119 0 82 5 127 18 167 19 54 82 160 97
160 4 0 25 -21 47 -47z m1143 37 c31 -17 72 -97 92 -179 22 -93 24 -209 4
-237 -14 -18 -16 -18 -88 18 -40 20 -121 51 -180 69 -60 18 -108 36 -108 39 0
7 251 300 257 300 2 0 13 -5 23 -10z m-2127 -1192 c159 -112 236 -171 629
-485 202 -161 372 -294 376 -295 5 -2 122 105 261 237 139 132 257 241 262
243 4 2 121 -106 259 -240 137 -134 254 -244 258 -245 4 -2 97 70 207 158 446
359 814 642 904 694 11 6 12 -4 6 -56 -13 -115 -54 -383 -65 -420 -11 -38 -37
-64 -258 -252 -62 -53 -190 -165 -285 -250 -95 -85 -260 -232 -367 -328 -107
-96 -277 -249 -378 -339 -217 -195 -270 -240 -286 -240 -13 1 -23 9 -660 580
-503 451 -637 570 -811 716 -60 51 -94 88 -102 110 -7 19 -22 118 -33 221 -11
104 -23 205 -26 226 -3 20 -3 37 1 37 3 0 52 -32 108 -72z m286 -1164 c272
-259 611 -595 623 -618 9 -17 3 -27 -44 -70 -356 -335 -394 -373 -386 -392 7
-19 121 -278 338 -774 59 -135 133 -301 164 -369 31 -68 55 -125 54 -126 -18
-18 -1529 -97 -1545 -82 -3 4 21 82 55 174 33 93 66 188 72 213 24 96 23 87 6
66 -8 -10 -69 -75 -135 -143 -67 -68 -151 -162 -188 -209 -37 -47 -77 -87 -88
-89 -30 -6 -399 -24 -404 -20 -6 6 74 137 162 268 74 109 86 121 146 154 36
20 163 91 281 158 118 68 269 149 335 181 66 33 122 60 124 62 11 6 -137 523
-194 680 -64 173 -65 192 -22 278 19 38 58 123 87 189 59 135 293 617 316 653
14 21 17 21 36 8 12 -9 105 -95 207 -192z m2820 -17 c57 -116 142 -295 188
-397 46 -102 98 -216 116 -253 20 -43 30 -80 28 -99 -1 -17 -25 -91 -51 -163
-49 -133 -207 -684 -198 -688 193 -95 323 -163 443 -232 83 -48 196 -112 252
-142 91 -48 107 -62 152 -121 53 -73 213 -323 209 -327 -2 -2 -70 1 -153 5
-82 5 -178 9 -212 9 l-61 1 -34 48 c-65 89 -355 399 -365 389 -9 -10 18 -106
79 -276 32 -90 57 -166 54 -169 -14 -14 -1519 67 -1534 83 -7 7 19 72 134 335
217 498 274 629 329 760 31 74 65 149 75 166 l18 32 -191 179 c-106 99 -205
191 -221 205 -24 20 -27 28 -18 44 20 37 832 824 850 824 4 0 54 -96 111 -213z"/>
</g>
</svg>
