<?xml version="1.0" standalone="no"?>
<!DOCTYPE svg PUBLIC "-//W3C//DTD SVG 20010904//EN"
 "http://www.w3.org/TR/2001/REC-SVG-20010904/DTD/svg10.dtd">
<svg version="1.0" xmlns="http://www.w3.org/2000/svg"
 width="1024" height="1024" viewBox="0 0 1024 1024"
 preserveAspectRatio="xMidYMid meet">
  <rect width="1024" height="1024" fill="white"/>
<metadata>
Created by potrace 1.16, written by Peter Selinger 2001-2019
</metadata>
<g transform="translate(0.000000,1024.000000) scale(0.100000,-0.100000)"
fill="#000000" stroke="none">
<path d="M0 5120 l0 -5120 5120 0 5120 0 0 5120 0 5120 -5120 0 -5120 0 0
-5120z m5638 3674 c476 -231 778 -385 1021 -521 l105 -58 43 -225 c59 -304
201 -1069 205 -1101 2 -21 -18 -50 -102 -147 -64 -74 -107 -117 -111 -109 -3
7 -14 53 -23 102 -59 314 -165 782 -221 982 -60 213 -129 316 -275 411 -36 23
-189 106 -340 184 -151 77 -396 203 -545 280 l-270 140 -60 -32 c-33 -17 -224
-115 -425 -217 -622 -317 -720 -373 -802 -461 -81 -86 -121 -187 -198 -490
-51 -206 -121 -517 -160 -717 -17 -88 -34 -168 -38 -179 -6 -15 -25 3 -110
103 -56 67 -102 128 -102 137 0 16 102 569 198 1078 l47 248 195 110 c195 110
1423 727 1448 728 7 0 241 -111 520 -246z m-1011 -1535 c416 -403 431 -416
476 -423 26 -4 53 -4 61 1 8 4 180 168 383 363 202 195 399 384 437 420 l68
65 183 -187 182 -188 22 -112 c12 -62 51 -266 87 -453 36 -187 67 -350 71
-362 3 -13 1 -23 -3 -23 -5 0 -72 21 -149 45 -76 25 -148 45 -158 45 -23 0
-159 -92 -781 -531 l-48 -34 -35 40 c-45 52 -101 145 -129 213 -15 37 -23 48
-28 37 -8 -21 -5 -995 3 -1095 l6 -75 33 105 c18 58 46 164 64 235 17 72 34
134 39 139 4 5 38 -1 76 -12 136 -42 477 -122 516 -122 22 0 54 9 73 20 37 23
56 53 315 478 136 223 186 298 191 285 7 -18 103 -423 114 -479 5 -25 -3 -44
-36 -100 -40 -64 -326 -490 -425 -632 -43 -61 -44 -64 -39 -130 17 -270 35
-520 39 -538 6 -26 -54 -131 -425 -743 l-285 -471 -409 2 -410 3 -183 305
c-101 168 -260 434 -353 591 l-170 286 15 184 c7 101 17 245 21 319 l6 136
-129 189 c-72 105 -187 276 -257 381 l-127 191 55 219 c31 120 61 238 67 262
l12 42 37 -62 c110 -187 385 -638 407 -666 35 -46 78 -66 143 -65 32 1 166 29
314 67 143 36 261 65 262 63 2 -1 19 -68 38 -147 37 -154 83 -310 96 -323 11
-12 23 742 14 976 -4 114 -9 205 -12 202 -3 -2 -15 -30 -28 -60 -42 -104 -139
-245 -168 -245 -7 0 -80 48 -162 107 -492 351 -646 455 -670 449 -13 -4 -87
-33 -164 -65 l-141 -59 5 27 c3 14 46 236 97 492 l91 467 180 186 c99 103 184
186 188 184 5 -2 201 -190 437 -419z m-1977 -201 c199 -171 254 -226 579 -581
l153 -167 -17 -168 c-10 -92 -19 -168 -20 -170 -2 -2 -81 93 -176 210 -187
229 -319 383 -319 373 0 -20 100 -358 157 -528 l66 -198 138 -194 c76 -107
151 -223 165 -257 34 -79 115 -320 110 -325 -4 -4 -571 585 -605 629 -12 15
-105 318 -242 789 -122 420 -224 771 -227 779 -7 19 -21 31 238 -192z m5154
147 c-8 -28 -109 -377 -223 -777 l-208 -726 -154 -165 c-265 -282 -459 -486
-459 -481 0 3 9 21 19 42 10 20 45 114 77 207 57 168 58 172 163 320 142 199
142 200 196 355 46 132 175 562 175 583 0 19 -153 -162 -343 -407 -127 -164
-131 -168 -139 -140 -16 65 -38 210 -38 257 0 48 3 53 78 136 298 331 447 483
648 660 119 105 218 190 220 188 2 -1 -4 -25 -12 -52z m-3589 -1327 c133 -61
293 -141 320 -161 18 -14 17 -15 -20 -26 -65 -18 -205 -34 -252 -28 -62 7 -95
42 -154 162 -27 55 -49 104 -49 108 0 12 28 2 155 -55z m1931 -17 c-49 -117
-77 -163 -116 -189 -32 -22 -42 -23 -109 -18 -80 6 -251 44 -251 54 0 18 459
232 497 232 8 0 0 -28 -21 -79z m-3314 -480 c3 -8 375 -405 566 -603 57 -59
101 -112 97 -118 -14 -23 22 -413 51 -560 18 -89 40 -128 154 -280 371 -495
1054 -1528 1321 -2000 49 -85 92 -162 97 -170 7 -12 15 -3 37 39 36 73 233
406 363 616 221 356 697 1064 1001 1485 90 126 158 230 162 250 8 33 39 493
39 572 0 32 9 48 63 107 100 112 629 671 634 671 7 0 666 -182 853 -236 145
-42 369 -113 379 -121 3 -2 -5 -10 -16 -18 -74 -52 -856 -686 -1238 -1004
-218 -181 -330 -284 -581 -535 -540 -541 -869 -913 -1214 -1371 -118 -158
-395 -568 -436 -645 -13 -25 -27 -51 -32 -58 -7 -10 -29 20 -82 110 -276 465
-717 1021 -1305 1643 -99 105 -232 246 -295 314 -208 224 -553 517 -1368 1166
-270 215 -491 392 -491 395 -1 12 1176 357 1226 359 6 1 13 -3 15 -8z"/>
<path d="M4737 4990 c-4 -20 -34 -84 -67 -143 -66 -120 -67 -123 -6 -173 67
-56 441 -398 444 -406 2 -5 -47 -6 -110 -3 -62 2 -178 7 -258 10 -189 7 -299
26 -323 57 l-19 22 7 -39 c47 -256 191 -679 261 -763 l19 -23 75 101 74 100
280 -2 280 -3 71 -90 c38 -49 75 -92 80 -94 13 -4 102 173 164 331 55 136 129
385 137 458 l5 45 -15 -32 c-8 -18 -16 -33 -18 -33 -2 0 -35 -7 -73 -15 -69
-15 -613 -40 -624 -29 -3 3 0 8 6 12 6 4 107 93 224 198 118 105 229 204 247
220 l33 29 -59 103 c-33 57 -66 124 -73 150 l-14 47 -3 -70 -4 -70 -174 -153
c-96 -85 -180 -152 -187 -149 -7 2 -91 73 -187 157 l-175 153 -5 66 c-5 60 -6
63 -13 31z m39 -874 c8 -20 -39 -231 -51 -231 -15 0 -64 228 -51 237 20 14 96
9 102 -6z m791 -27 c24 -9 25 -11 18 -87 -14 -183 -28 -186 -91 -22 -24 63
-44 119 -44 124 0 9 80 -1 117 -15z"/>
</g>
</svg>
