<?xml version="1.0" standalone="no"?>
<!DOCTYPE svg PUBLIC "-//W3C//DTD SVG 20010904//EN"
 "http://www.w3.org/TR/2001/REC-SVG-20010904/DTD/svg10.dtd">
<svg version="1.0" xmlns="http://www.w3.org/2000/svg"
 width="1024" height="1024" viewBox="0 0 1024 1024"
 preserveAspectRatio="xMidYMid meet">
  <rect width="1024" height="1024" fill="white"/>
<metadata>
Created by potrace 1.16, written by Peter Selinger 2001-2019
</metadata>
<g transform="translate(0.000000,1024.000000) scale(0.100000,-0.100000)"
fill="#000000" stroke="none">
<path d="M0 5120 l0 -5120 5120 0 5120 0 0 5120 0 5120 -5120 0 -5120 0 0
-5120z m3671 4315 c90 -115 207 -265 260 -332 121 -152 148 -200 248 -444 88
-217 122 -288 254 -528 49 -91 101 -189 114 -218 14 -29 27 -53 30 -53 3 0 2
8 -2 18 -3 9 -18 76 -31 147 -14 72 -45 207 -69 300 -23 94 -46 188 -49 210
l-7 41 158 109 c87 60 213 149 280 198 67 48 154 106 194 128 l72 39 76 -41
c42 -22 131 -80 198 -127 67 -48 184 -131 260 -185 76 -54 147 -110 159 -124
21 -24 21 -25 2 -91 -26 -96 -128 -554 -128 -577 0 -11 45 63 100 165 93 174
172 341 320 678 71 163 110 219 424 621 105 135 197 254 204 265 20 32 6 -95
-24 -224 -126 -533 -292 -1367 -339 -1690 -13 -96 -27 -187 -29 -202 -3 -16
-2 -28 3 -28 17 0 116 97 189 185 41 50 87 99 102 111 16 11 49 47 74 81 43
59 66 82 66 67 0 -23 -61 -203 -125 -369 -81 -208 -184 -480 -192 -507 -3 -9
-15 -19 -28 -22 -38 -10 -260 -182 -307 -238 -71 -85 -75 -97 -113 -285 -20
-98 -67 -329 -106 -513 l-70 -335 -47 -47 c-26 -25 -112 -107 -192 -182 -131
-124 -147 -136 -181 -136 -21 0 -47 -8 -62 -20 -16 -12 -28 -16 -32 -10 -3 5
-48 107 -100 226 -108 251 -90 246 -175 49 -44 -102 -118 -264 -125 -273 -1
-1 -15 4 -31 13 -16 8 -44 15 -61 15 -29 0 -56 23 -221 181 l-189 181 -11 75
c-11 70 -26 142 -131 622 -57 261 -92 368 -141 430 -41 52 -205 185 -287 233
-40 23 -48 34 -68 90 -12 34 -70 187 -127 338 -122 317 -173 468 -163 478 4 4
26 -15 49 -42 22 -27 68 -79 101 -115 33 -36 93 -107 132 -157 64 -80 109
-124 128 -124 12 0 -41 368 -105 742 -51 294 -104 535 -209 953 -52 207 -69
288 -96 450 -7 36 -21 52 176 -200z m-58 -2612 c32 -34 51 -78 71 -166 9 -37
25 -86 37 -108 l20 -41 -23 -25 c-35 -38 -107 -85 -402 -262 l-267 -160 42
-22 c183 -93 1488 -922 1684 -1069 97 -73 255 -229 255 -251 0 -8 -27 -97 -60
-199 -33 -102 -75 -251 -93 -333 l-32 -147 -45 -15 c-63 -20 -527 -130 -634
-150 l-89 -17 -26 34 c-39 51 -118 135 -336 358 -259 265 -447 467 -670 720
-99 113 -203 229 -231 258 l-50 54 -225 -87 c-123 -48 -264 -102 -314 -120
-49 -19 -205 -79 -345 -134 l-255 -100 -8 67 c-4 37 -7 159 -5 272 l3 205 65
160 c36 88 127 283 203 434 75 151 137 280 137 287 0 24 175 103 405 184 66
23 179 65 250 92 72 28 238 86 370 129 132 43 301 101 375 128 74 28 142 50
151 51 8 0 27 -12 42 -27z m3149 -4 c119 -44 442 -157 516 -180 35 -11 116
-40 180 -65 209 -80 295 -112 432 -159 74 -25 174 -64 221 -87 73 -34 89 -46
103 -77 10 -20 75 -144 146 -276 130 -244 183 -359 239 -519 26 -75 33 -113
40 -225 6 -101 1 -342 -8 -378 -3 -10 -49 3 -145 41 -61 25 -275 106 -476 181
-201 76 -403 153 -448 173 l-84 36 -71 -75 c-40 -41 -146 -160 -237 -264 -207
-238 -354 -396 -644 -695 -126 -129 -258 -270 -294 -312 l-65 -78 -56 7 c-51
5 -152 28 -555 125 -73 18 -137 39 -146 48 -10 10 -29 69 -45 136 -15 66 -54
205 -85 309 -32 105 -60 200 -62 212 -13 88 484 449 1352 978 425 260 619 375
630 375 18 0 11 18 -9 25 -41 13 -419 247 -617 382 l-62 42 25 67 c13 37 29
90 35 118 14 66 41 119 74 145 15 12 28 21 30 21 1 0 40 -14 86 -31z m-4340
-2255 c-101 -278 -141 -370 -212 -485 -96 -158 -156 -232 -298 -373 l-130
-128 -98 40 c-97 39 -229 82 -254 82 -20 0 53 -83 211 -240 80 -80 153 -161
162 -181 14 -30 15 -51 7 -150 -5 -63 -10 -216 -10 -340 l0 -226 25 -27 c13
-14 33 -26 45 -26 11 0 60 33 108 73 221 185 268 223 431 347 l174 132 66 -22
c149 -50 461 -199 507 -241 l21 -20 -29 -82 c-44 -123 -50 -131 -106 -123 -26
3 -98 21 -162 40 -173 51 -284 75 -291 63 -4 -5 -10 -26 -13 -46 -3 -20 -33
-92 -66 -160 -33 -68 -59 -126 -56 -128 2 -2 86 7 187 21 212 29 387 46 476
46 57 0 63 -2 89 -32 29 -35 78 -135 88 -181 6 -26 3 -29 -51 -54 -200 -89
-493 -194 -648 -233 -27 -7 -67 -22 -88 -32 -35 -17 -38 -22 -35 -56 4 -50 19
-51 187 -13 75 17 240 49 366 72 127 22 234 41 239 42 8 2 9 -173 1 -181 -2
-3 -32 -15 -67 -27 -176 -63 -571 -265 -608 -310 -17 -21 28 -12 343 67 153
39 281 68 284 65 8 -8 -28 -200 -41 -216 -15 -20 -243 -128 -389 -185 -65 -26
-145 -60 -177 -76 l-59 -30 -85 68 c-93 75 -426 302 -551 377 -148 88 -480
313 -511 347 -18 18 -46 67 -64 108 -18 41 -94 199 -170 350 -75 151 -228 461
-340 688 l-202 413 50 82 c27 45 134 219 237 387 175 284 245 400 366 606 26
45 51 94 55 109 9 37 21 15 30 -52 3 -29 8 -53 11 -53 10 0 288 85 458 140
208 67 384 112 540 139 61 10 111 17 113 16 1 -1 -29 -87 -66 -191z m5523 160
c129 -25 336 -81 545 -150 175 -57 345 -104 377 -104 10 0 30 91 25 113 -1 4
1 7 6 7 4 0 15 -19 25 -42 16 -40 57 -112 199 -353 102 -172 286 -475 388
-639 92 -149 93 -150 80 -185 -7 -20 -96 -207 -198 -416 -365 -752 -403 -832
-453 -960 -33 -84 -62 -142 -83 -164 -17 -18 -148 -111 -291 -206 -323 -215
-710 -482 -793 -547 l-62 -48 -93 44 c-50 24 -175 76 -277 116 -101 39 -203
82 -226 95 -41 24 -41 24 -62 127 -11 57 -18 105 -16 107 2 2 50 -8 106 -22
57 -15 162 -42 233 -61 139 -36 236 -52 220 -37 -6 5 -139 75 -298 155 -318
162 -325 165 -332 184 -8 21 -18 172 -12 172 4 0 44 -8 89 -19 143 -32 612
-105 638 -98 14 3 34 13 45 21 18 13 10 17 -100 51 -276 84 -641 222 -679 256
-13 12 21 82 87 183 l52 78 123 -6 c67 -3 189 -13 270 -20 81 -8 180 -17 221
-21 l74 -6 -33 58 c-18 32 -60 109 -92 171 -33 61 -63 112 -66 112 -20 0 -143
-44 -264 -94 -75 -31 -144 -56 -152 -56 -25 0 -54 49 -70 120 -21 93 -21 94
20 140 27 29 76 59 191 115 85 41 190 96 234 121 45 25 87 43 94 40 41 -15
510 -387 634 -501 70 -65 109 -72 160 -29 30 25 31 28 31 112 -1 48 -9 206
-19 352 l-19 265 21 30 c12 17 102 114 202 217 99 103 181 192 183 198 9 26
-35 14 -263 -74 l-119 -46 -133 137 c-233 242 -344 436 -488 855 -30 88 -55
164 -55 170 0 10 50 5 175 -18z m-4605 -752 c419 -353 593 -502 662 -570 l67
-66 48 26 c82 45 351 167 513 233 85 34 231 95 323 133 l168 71 72 -31 c461
-194 717 -308 890 -395 l88 -44 87 80 c48 44 137 122 198 173 330 277 561 472
659 557 61 53 118 102 127 110 19 14 13 0 -171 -388 -116 -245 -107 -234 -416
-551 -376 -387 -1244 -1256 -1233 -1235 6 11 23 38 38 60 15 22 56 90 90 150
98 172 308 522 362 604 37 55 46 77 38 86 -10 12 -471 261 -620 335 -36 18
-95 57 -132 86 -37 30 -72 54 -78 54 -6 0 -40 -24 -76 -54 -36 -30 -93 -69
-127 -86 -96 -51 -407 -230 -452 -260 -22 -15 -68 -41 -102 -58 l-61 -32 82
-122 c46 -68 122 -188 168 -268 47 -80 136 -228 197 -330 l112 -185 -373 371
c-205 204 -447 442 -538 528 -249 237 -593 607 -653 703 -47 74 -297 580 -297
600 0 3 21 -14 48 -37 26 -22 157 -134 292 -248z m502 -1394 c41 -51 130 -163
198 -248 69 -85 165 -204 215 -265 50 -60 180 -225 289 -365 469 -600 579
-733 589 -713 6 10 87 115 182 233 460 577 772 966 860 1075 54 66 143 178
197 248 55 71 101 127 103 125 3 -3 -125 -426 -255 -843 l-31 -100 -77 -65
c-159 -135 -561 -490 -687 -605 -71 -66 -166 -151 -210 -190 -44 -38 -83 -74
-87 -79 -3 -5 -44 25 -90 66 -45 42 -270 242 -498 445 -228 204 -429 385 -446
404 -24 29 -59 121 -183 495 -84 252 -156 465 -158 473 -10 26 14 1 89 -91z"/>
<path d="M4037 7738 c45 -105 108 -281 129 -361 20 -79 26 -83 399 -305 66
-39 127 -76 135 -81 12 -9 1 -24 -62 -88 -135 -138 -145 -177 -150 -585 -2
-163 -2 -296 -1 -295 1 1 43 108 93 237 51 129 95 238 99 242 12 13 88 -30
177 -100 95 -75 262 -184 273 -178 99 58 212 131 314 200 71 48 134 85 140 83
6 -2 17 -23 25 -48 32 -99 164 -445 174 -454 7 -7 8 9 4 50 -3 33 -8 173 -12
310 -8 354 -17 386 -148 537 l-76 87 88 54 c48 29 121 73 162 97 139 80 290
182 290 196 0 25 77 246 128 367 47 109 53 139 21 101 -8 -9 -86 -65 -174
-124 -161 -107 -392 -271 -602 -426 l-113 -84 -50 39 c-27 22 -54 41 -60 43
-6 2 -33 84 -60 182 -27 98 -51 180 -53 182 -2 2 -21 -78 -42 -179 l-38 -182
-53 -38 c-29 -20 -55 -37 -59 -37 -10 0 -143 91 -410 280 -264 187 -514 360
-521 360 -2 0 13 -37 33 -82z m1162 -746 c36 -32 122 -101 190 -153 68 -52
131 -100 140 -107 19 -16 1 -34 -243 -235 -112 -92 -162 -128 -171 -121 -23
16 -360 320 -373 336 -11 14 -2 25 65 80 43 35 114 92 158 126 44 33 98 77
120 96 22 19 42 35 44 36 2 0 33 -26 70 -58z"/>
<path d="M4777 6115 c-16 -22 -37 -59 -48 -82 -10 -23 -41 -91 -68 -150 -28
-60 -54 -124 -57 -142 -7 -33 -7 -33 17 -19 13 8 80 48 148 89 l124 74 176 3
c226 5 283 -7 427 -84 59 -31 123 -71 142 -88 l35 -31 -7 40 c-12 69 -37 136
-96 260 -87 184 -37 164 -429 167 l-335 3 -29 -40z"/>
</g>
</svg>
