<?xml version="1.0" standalone="no"?>
<!DOCTYPE svg PUBLIC "-//W3C//DTD SVG 20010904//EN"
 "http://www.w3.org/TR/2001/REC-SVG-20010904/DTD/svg10.dtd">
<svg version="1.0" xmlns="http://www.w3.org/2000/svg"
 width="1024" height="1024" viewBox="0 0 1024 1024"
 preserveAspectRatio="xMidYMid meet">
  <rect width="1024" height="1024" fill="white"/>
<metadata>
Created by potrace 1.16, written by Peter Selinger 2001-2019
</metadata>
<g transform="translate(0.000000,1024.000000) scale(0.100000,-0.100000)"
fill="#000000" stroke="none">
<path d="M0 5120 l0 -5120 5120 0 5120 0 0 5120 0 5120 -5120 0 -5120 0 0
-5120z m2375 3472 c6 -4 39 -41 75 -82 36 -41 112 -126 169 -190 57 -63 118
-131 135 -150 134 -151 299 -335 345 -385 132 -143 769 -850 816 -906 28 -33
78 -70 164 -121 68 -40 318 -189 555 -332 237 -142 445 -266 461 -276 l30 -18
305 184 c168 101 424 253 569 336 145 84 278 167 295 183 33 32 425 466 511
566 50 58 289 325 635 709 101 113 198 220 215 239 169 190 232 257 239 250 3
-3 -9 -41 -28 -85 -18 -43 -68 -164 -111 -269 -43 -104 -95 -230 -115 -280
-21 -49 -67 -162 -103 -250 -335 -821 -336 -823 -361 -847 -139 -133 -191
-182 -301 -278 -71 -63 -186 -164 -255 -224 -69 -61 -150 -133 -180 -161 -76
-69 -140 -126 -256 -225 -185 -159 -200 -178 -511 -630 -165 -239 -353 -513
-418 -607 -65 -95 -123 -173 -129 -172 -6 0 -105 138 -221 307 -574 838 -623
905 -687 961 -61 52 -88 76 -297 261 -82 72 -409 363 -445 395 -6 6 -81 73
-166 150 -85 78 -172 156 -194 175 -21 19 -45 48 -53 64 -17 34 -293 697 -518
1246 -84 206 -162 396 -174 423 -19 45 -18 56 4 39z m2813 -798 c15 -18 74
-89 132 -160 58 -70 160 -195 228 -277 l123 -148 -24 -32 c-13 -18 -78 -98
-143 -178 -66 -80 -174 -215 -242 -298 -68 -84 -129 -150 -135 -148 -12 4 -41
39 -280 332 -135 166 -132 163 -212 258 -50 59 -55 70 -44 85 14 18 152 185
389 471 l144 173 19 -23 c10 -13 31 -38 45 -55z m-2146 -1723 c21 -19 48 -41
60 -50 12 -8 147 -119 299 -246 152 -126 389 -323 526 -437 256 -213 361 -316
346 -341 -38 -63 -379 -507 -387 -504 -6 2 -89 147 -184 323 -341 628 -515
940 -636 1138 -53 87 -96 162 -96 168 0 12 15 1 72 -51z m4248 54 c0 -3 -82
-150 -183 -328 -101 -177 -239 -421 -307 -542 -305 -545 -434 -765 -442 -757
-32 32 -395 528 -391 535 14 24 302 266 809 682 181 148 367 302 414 342 77
67 100 82 100 68z m-2627 -1650 l108 -154 148 -523 c82 -288 162 -570 178
-628 30 -105 30 -105 41 -70 13 42 172 573 235 790 144 488 132 454 199 548
119 168 140 194 148 185 20 -22 392 -526 396 -537 3 -7 -32 -91 -77 -187 -517
-1102 -733 -1601 -868 -2011 -18 -54 -36 -100 -41 -103 -4 -3 -15 14 -23 37
-8 24 -42 120 -75 213 -169 479 -394 1003 -765 1780 -70 149 -130 275 -133
280 -2 6 71 107 162 225 92 118 182 236 201 263 19 26 40 47 46 47 7 -1 60
-70 120 -155z"/>
</g>
</svg>
