<?xml version="1.0" standalone="no"?>
<!DOCTYPE svg PUBLIC "-//W3C//DTD SVG 20010904//EN"
 "http://www.w3.org/TR/2001/REC-SVG-20010904/DTD/svg10.dtd">
<svg version="1.0" xmlns="http://www.w3.org/2000/svg"
 width="1024" height="1024" viewBox="0 0 1024 1024"
 preserveAspectRatio="xMidYMid meet">
  <rect width="1024" height="1024" fill="white"/>
<metadata>
Created by potrace 1.16, written by Peter Selinger 2001-2019
</metadata>
<g transform="translate(0.000000,1024.000000) scale(0.100000,-0.100000)"
fill="#000000" stroke="none">
<path d="M0 5120 l0 -5120 5120 0 5120 0 0 5120 0 5120 -5120 0 -5120 0 0
-5120z m5163 4067 c22 -51 208 -373 332 -572 61 -99 122 -198 135 -220 13 -22
32 -50 43 -62 11 -12 16 -27 12 -34 -5 -7 -4 -10 2 -6 15 9 43 -58 43 -103 0
-21 -5 -51 -10 -66 -13 -33 -126 -214 -193 -309 -97 -137 -382 -480 -399 -480
-4 0 -18 14 -30 32 -13 17 -71 89 -129 160 -172 209 -368 486 -418 593 l-31
64 31 54 c17 30 88 142 158 250 277 427 353 553 385 646 35 99 47 108 69 53z
m1592 -868 c-66 -159 -151 -423 -205 -635 -94 -370 -184 -611 -259 -696 -18
-20 -70 -62 -116 -92 -140 -92 -234 -199 -330 -375 -125 -231 -259 -391 -525
-630 -63 -56 -135 -125 -160 -152 l-45 -49 -65 49 c-69 52 -287 279 -282 294
1 5 -2 6 -6 3 -15 -9 -192 181 -276 297 -43 59 -99 151 -126 205 -37 74 -70
121 -142 202 -208 233 -360 447 -419 588 -17 42 -46 147 -65 235 -18 87 -45
200 -59 251 -39 134 -132 394 -160 443 -27 49 -21 61 15 32 14 -11 58 -42 97
-70 168 -115 354 -293 336 -321 -3 -6 -1 -8 4 -5 17 10 87 -136 118 -242 60
-211 210 -536 318 -686 116 -163 462 -477 522 -475 5 1 -8 10 -30 21 -22 11
-47 27 -55 35 -8 9 8 4 36 -10 61 -30 84 -33 84 -8 0 12 -3 13 -8 4 -5 -7 -7
16 -5 50 2 46 0 56 -6 38 -15 -42 -12 6 4 80 8 36 14 86 15 112 0 46 -1 48
-72 108 -40 34 -116 87 -168 117 -52 31 -124 74 -159 96 -36 22 -102 57 -148
78 -57 26 -86 45 -92 61 -4 13 -18 100 -30 193 -11 94 -29 215 -38 269 -13 76
-14 101 -5 104 7 2 10 8 6 13 -3 5 -2 9 1 9 10 0 65 -30 65 -36 0 -2 -10 0
-21 7 -12 6 -19 7 -15 1 3 -5 20 -15 38 -22 53 -21 187 -113 265 -182 81 -71
347 -352 437 -461 32 -40 67 -75 77 -79 11 -4 19 -10 19 -13 0 -4 -6 -3 -12 1
-7 4 -9 3 -5 -1 4 -5 18 -10 30 -12 18 -2 35 17 97 108 41 61 109 151 151 199
121 139 229 276 321 405 77 108 139 168 151 148 3 -5 7 -156 8 -337 l4 -329
-193 -125 c-107 -69 -233 -160 -280 -202 l-87 -77 3 -69 c4 -69 32 -216 52
-268 l10 -27 62 53 c135 114 313 302 386 410 138 203 213 383 263 627 29 146
43 178 116 278 67 92 96 121 233 238 201 170 295 255 322 290 34 43 35 11 3
-66z m-4294 -606 c-77 -258 -118 -713 -108 -1186 l5 -262 -83 -80 c-58 -55
-92 -97 -109 -135 -14 -30 -26 -61 -26 -67 0 -12 82 -69 378 -265 179 -117
281 -160 577 -243 72 -20 166 -48 210 -62 111 -36 388 -152 397 -166 17 -27
-14 -31 -115 -14 -144 23 -226 28 -352 19 l-110 -7 40 -21 c22 -12 76 -41 120
-65 44 -24 107 -53 140 -65 l60 -22 -130 -40 c-270 -84 -403 -104 -568 -83
-237 30 -374 100 -702 362 -147 117 -252 228 -370 390 l-89 124 3 99 c1 54 15
194 31 311 26 199 31 221 75 331 49 121 163 358 195 404 9 14 41 70 70 125 91
172 139 249 264 417 67 90 141 191 166 226 25 34 46 57 48 53 2 -5 -6 -40 -17
-78z m6126 -410 c-2 -5 -122 -244 -265 -533 -317 -638 -408 -808 -506 -938
-22 -29 -114 -123 -205 -209 -247 -231 -373 -309 -661 -404 -80 -26 -228 -78
-330 -114 -102 -37 -194 -69 -205 -73 -14 -4 -7 11 30 64 147 207 297 376 660
744 228 231 415 440 415 464 0 3 -12 1 -26 -4 -38 -15 -164 -12 -251 6 -43 9
-89 18 -103 21 -20 4 -3 15 94 64 142 72 192 103 327 205 56 42 172 124 258
180 320 212 535 359 649 445 119 89 127 95 119 82z m-4608 -980 c18 -24 30
-47 27 -52 -4 -5 -1 -13 5 -17 8 -5 9 -3 4 7 -27 47 154 -187 253 -328 55 -77
84 -109 120 -130 59 -34 121 -79 242 -177 116 -94 251 -186 339 -231 82 -41
96 -64 122 -197 23 -121 37 -168 50 -168 5 0 9 3 9 8 0 19 50 284 55 293 4 5
12 9 18 9 40 0 146 69 267 175 74 64 202 171 283 237 172 139 197 163 278 265
75 94 105 146 150 258 l36 90 97 3 c107 3 233 -15 336 -48 86 -28 296 -132
340 -169 34 -29 34 -30 16 -50 -10 -11 -104 -80 -209 -153 -293 -203 -378
-279 -612 -543 -53 -60 -163 -170 -243 -244 -221 -201 -477 -457 -541 -541
-57 -75 -241 -379 -300 -497 -17 -35 -33 -63 -35 -63 -2 0 -16 39 -31 88 -35
115 -125 285 -191 366 -30 36 -107 123 -171 193 -65 70 -158 175 -208 233 -49
58 -131 148 -180 200 -50 52 -140 153 -200 224 -61 71 -141 155 -179 187 -140
118 -320 190 -656 264 -118 25 -259 56 -314 68 l-98 22 62 50 c124 100 152
117 312 199 185 93 350 151 547 192 l133 28 40 -44 40 -45 -31 41 c-17 23 -31
46 -31 50 0 9 5 4 49 -53z m92 -1639 c18 -20 97 -84 174 -142 286 -215 559
-482 625 -612 l20 -39 -36 -103 c-50 -144 -89 -221 -196 -388 -124 -194 -217
-289 -345 -353 -114 -56 -397 -150 -552 -183 -126 -26 -324 -41 -387 -29 l-39
7 30 13 c17 7 57 23 90 35 233 89 603 451 729 713 59 123 70 177 63 328 -5
138 -15 175 -120 429 -54 134 -99 264 -110 328 -9 43 10 42 54 -4z m1868 -251
c-27 -82 -61 -202 -75 -268 -35 -159 -135 -492 -178 -593 -19 -45 -61 -127
-94 -184 -32 -57 -103 -184 -157 -283 -54 -99 -142 -247 -196 -330 -88 -135
-110 -161 -217 -257 -334 -302 -549 -439 -837 -533 -231 -76 -266 -79 -770
-72 -513 8 -596 1 -827 -69 -34 -10 -7 25 56 74 82 64 184 133 339 225 223
134 277 158 672 296 484 170 627 246 821 438 142 141 265 297 501 638 170 245
235 329 402 517 220 246 286 310 456 436 83 61 151 111 152 112 1 0 -21 -66
-48 -147z m1891 61 c0 -3 -23 -27 -51 -52 -87 -78 -193 -253 -246 -407 -33
-94 -41 -233 -19 -334 19 -89 48 -154 167 -367 150 -271 187 -373 196 -544 4
-80 2 -105 -17 -160 -49 -146 -154 -291 -297 -407 -127 -104 -304 -235 -310
-229 -3 3 13 42 35 88 96 196 146 484 108 623 -41 152 -185 428 -301 580 -69
91 -144 284 -160 415 -13 110 49 301 134 414 83 109 242 226 381 281 35 14
109 36 164 50 56 13 119 31 141 39 43 16 75 20 75 10z m-3885 -474 c-45 -175
-92 -292 -137 -341 -13 -14 -49 -57 -82 -97 -86 -106 -244 -252 -342 -317
-117 -77 -259 -154 -439 -237 -363 -168 -512 -269 -636 -429 -21 -27 -30 -31
-39 -22 -18 17 13 224 50 333 53 158 89 209 255 362 110 101 226 181 405 280
125 69 487 285 710 423 52 32 111 74 131 92 20 18 39 33 42 33 3 0 32 27 64
61 33 35 59 55 61 48 1 -8 -18 -93 -43 -189z m2082 -439 c84 -133 209 -381
234 -461 31 -102 34 -187 10 -350 -25 -175 -106 -495 -154 -606 -101 -239
-360 -529 -679 -760 -199 -145 -238 -174 -274 -207 -15 -14 -31 -24 -35 -22
-4 3 -10 -2 -13 -11 -3 -8 -10 -12 -16 -9 -5 3 -10 2 -10 -4 0 -23 -44 -21
-113 5 -95 36 -278 127 -347 174 -30 20 -95 58 -145 85 -49 26 -142 76 -205
110 -63 35 -150 78 -192 95 -124 51 -122 61 13 54 278 -15 582 91 860 300 315
237 534 488 674 771 77 157 112 249 202 530 66 208 61 183 68 318 4 62 9 119
12 127 6 20 30 -10 110 -139z m656 -464 c97 -63 248 -246 313 -382 42 -87 55
-153 55 -275 0 -196 -63 -342 -220 -516 -54 -60 -120 -128 -148 -150 -101 -86
-287 -191 -401 -228 -80 -27 -266 -75 -271 -70 -3 2 15 21 40 41 97 82 193
181 234 243 105 159 283 555 336 750 30 108 38 372 15 502 -17 104 -19 118
-11 118 3 0 29 -15 58 -33z"/>
<path d="M5696 8265 c3 -11 10 -42 14 -70 7 -49 8 -49 8 -10 1 22 -6 54 -14
70 -8 17 -12 21 -8 10z"/>
<path d="M4360 7250 c8 -5 20 -10 25 -10 6 0 3 5 -5 10 -8 5 -19 10 -25 10 -5
0 -3 -5 5 -10z"/>
<path d="M4973 6810 c0 -25 2 -35 4 -22 2 12 2 32 0 45 -2 12 -4 2 -4 -23z"/>
<path d="M4962 6730 c0 -14 2 -19 5 -12 2 6 2 18 0 25 -3 6 -5 1 -5 -13z"/>
<path d="M4952 6675 c0 -16 2 -22 5 -12 2 9 2 23 0 30 -3 6 -5 -1 -5 -18z"/>
<path d="M4330 5816 c0 -3 9 -10 20 -16 11 -6 20 -8 20 -6 0 3 -9 10 -20 16
-11 6 -20 8 -20 6z"/>
<path d="M4395 5775 c11 -9 29 -21 40 -26 l20 -10 -20 16 c-11 9 -29 21 -40
26 l-20 10 20 -16z"/>
<path d="M4880 1210 c8 -5 20 -10 25 -10 6 0 3 5 -5 10 -8 5 -19 10 -25 10 -5
0 -3 -5 5 -10z"/>
<path d="M4980 1170 c8 -5 20 -10 25 -10 6 0 3 5 -5 10 -8 5 -19 10 -25 10 -5
0 -3 -5 5 -10z"/>
<path d="M5020 1156 c0 -2 7 -7 16 -10 8 -3 12 -2 9 4 -6 10 -25 14 -25 6z"/>
</g>
</svg>
