<?xml version="1.0" standalone="no"?>
<!DOCTYPE svg PUBLIC "-//W3C//DTD SVG 20010904//EN"
 "http://www.w3.org/TR/2001/REC-SVG-20010904/DTD/svg10.dtd">
<svg version="1.0" xmlns="http://www.w3.org/2000/svg"
 width="1024" height="1024" viewBox="0 0 1024 1024"
 preserveAspectRatio="xMidYMid meet">
  <rect width="1024" height="1024" fill="white"/>
<metadata>
Created by potrace 1.16, written by Peter Selinger 2001-2019
</metadata>
<g transform="translate(0.000000,1024.000000) scale(0.100000,-0.100000)"
fill="#000000" stroke="none">
<path d="M0 5120 l0 -5120 5120 0 5120 0 0 5120 0 5120 -5120 0 -5120 0 0
-5120z m2012 3767 c43 -24 264 -138 723 -372 303 -155 436 -224 895 -462 195
-102 477 -248 625 -326 470 -244 630 -328 639 -337 12 -12 10 -482 -3 -650
-20 -254 -41 -412 -72 -529 -16 -63 -29 -124 -29 -136 0 -23 128 -162 255
-275 33 -30 134 -124 225 -210 91 -86 203 -192 250 -235 47 -44 84 -84 84 -90
-3 -24 -75 -276 -99 -345 -14 -41 -46 -129 -72 -195 -97 -247 -319 -657 -359
-663 -29 -4 -286 81 -448 149 -79 32 -147 59 -152 59 -11 0 -542 -538 -554
-561 -14 -26 -29 -124 -39 -253 l-10 -130 84 -197 c119 -279 158 -353 224
-422 81 -86 318 -261 724 -536 140 -94 255 -117 417 -83 143 31 503 128 531
143 51 29 206 146 244 184 34 34 131 191 316 507 18 31 35 55 37 53 10 -9 -52
-398 -75 -470 -30 -96 -148 -318 -250 -471 -113 -169 -164 -202 -490 -315
-170 -59 -301 -112 -480 -194 l-83 -38 -247 148 c-386 230 -517 311 -674 416
-80 53 -206 134 -280 179 -74 45 -142 89 -152 98 -38 33 -409 520 -524 689
-126 182 -126 209 -5 553 252 715 235 681 414 813 68 51 176 128 239 171 63
44 179 126 259 182 80 56 168 111 195 121 28 11 72 34 99 51 28 18 58 32 67
32 10 0 86 13 171 29 84 16 221 37 303 46 256 28 268 30 272 42 4 10 -40 47
-149 127 -22 16 -108 63 -192 106 -83 42 -206 109 -273 149 -68 39 -125 71
-128 71 -4 0 -104 -55 -223 -122 -119 -66 -320 -178 -447 -248 -126 -70 -254
-141 -284 -159 -29 -18 -55 -31 -56 -29 -2 2 42 84 97 183 270 488 340 619
453 846 125 253 210 438 203 444 -2 2 -55 -30 -118 -71 -311 -203 -641 -398
-1150 -681 -124 -69 -260 -145 -303 -170 -43 -25 -80 -43 -83 -40 -6 6 57 136
369 767 l225 455 163 33 c90 18 286 60 434 92 149 32 349 73 445 91 179 34
241 55 204 71 -11 4 -98 26 -194 48 -96 23 -382 95 -635 162 -253 66 -498 129
-545 139 -47 11 -95 21 -107 24 -16 4 -47 47 -109 153 -48 81 -119 201 -159
267 -39 66 -152 255 -250 420 -98 165 -236 396 -306 513 -70 116 -126 212
-124 212 3 0 24 -11 47 -23z m3170 -193 c117 -47 645 -259 1173 -471 1070
-429 1084 -436 1116 -528 10 -27 18 -61 18 -75 1 -14 14 -57 30 -95 l30 -70
68 0 c37 0 144 2 237 5 l169 5 77 -180 c42 -99 89 -206 103 -239 15 -32 27
-74 27 -93 0 -41 -37 -194 -51 -208 -6 -6 -25 6 -52 32 -42 40 -224 175 -306
227 l-43 28 -101 -11 c-56 -6 -191 -14 -300 -18 -238 -7 -242 6 51 -150 112
-59 206 -114 210 -122 9 -24 -17 -254 -39 -337 -21 -80 -102 -264 -116 -264
-4 0 -19 35 -32 78 -13 42 -39 118 -57 167 -19 50 -45 119 -57 155 l-24 65
-299 75 c-164 42 -354 93 -421 113 -86 26 -141 37 -186 37 l-64 0 -43 60 c-24
33 -46 60 -49 60 -5 -1 -42 -56 -86 -128 -5 -10 -35 -57 -66 -107 -83 -133
-139 -243 -139 -273 0 -14 11 -63 25 -108 l25 -83 208 -218 c114 -119 278
-291 365 -382 166 -174 168 -176 147 -251 -20 -76 -90 -616 -90 -701 0 -39 -7
-53 -52 -110 -87 -109 -313 -363 -356 -399 -78 -67 -798 -727 -907 -832 l-110
-105 75 -78 c41 -42 135 -131 208 -198 73 -67 128 -123 122 -125 -16 -6 -310
89 -550 176 -113 41 -236 84 -273 95 -51 16 -67 25 -64 37 2 8 66 105 142 215
396 572 1001 1478 1040 1555 35 69 80 192 95 262 l13 56 -62 79 c-268 343
-605 869 -716 1117 l-37 83 23 26 c46 54 99 141 110 181 6 22 14 49 18 58 3 9
90 115 192 235 218 255 319 378 319 391 0 5 -51 28 -112 52 -306 116 -650 252
-709 278 -68 31 -93 51 -62 50 10 0 113 7 228 16 116 8 276 18 357 22 80 4
152 10 159 15 9 5 -8 30 -57 86 -81 91 -322 375 -379 448 -22 28 -106 130
-187 228 -82 97 -146 177 -143 177 2 0 100 -39 217 -86z m-225 -900 c-3 -3
-12 -4 -19 -1 -8 3 -5 6 6 6 11 1 17 -2 13 -5z m2094 -2287 c30 -14 84 -49
121 -78 59 -47 83 -78 189 -244 67 -104 130 -204 141 -222 l19 -32 -202 -258
c-328 -417 -334 -425 -336 -411 -1 7 -7 200 -12 428 -6 228 -14 514 -17 634
l-7 219 25 -6 c13 -4 49 -17 79 -30z"/>
<path d="M6675 7678 c23 -57 54 -130 69 -163 l27 -61 155 -35 c85 -20 156 -33
158 -30 2 3 -12 40 -32 81 l-37 75 -150 90 c-82 50 -166 102 -186 118 -20 15
-38 27 -42 27 -3 0 14 -46 38 -102z"/>
</g>
</svg>
