<?xml version="1.0" encoding="UTF-8" standalone="no"?>
<!-- Created with Inkscape (http://www.inkscape.org/) -->

<svg
   width="77.442856mm"
   height="77.441811mm"
   viewBox="0 0 77.442856 77.441811"
   version="1.1"
   id="svg1"
   inkscape:version="1.4.2 (ebf0e940, 2025-05-08)"
   sodipodi:docname="ability_frame.svg"
   xmlns:inkscape="http://www.inkscape.org/namespaces/inkscape"
   xmlns:sodipodi="http://sodipodi.sourceforge.net/DTD/sodipodi-0.dtd"
   xmlns="http://www.w3.org/2000/svg"
   xmlns:svg="http://www.w3.org/2000/svg">
  <sodipodi:namedview
     id="namedview1"
     pagecolor="#ffffff"
     bordercolor="#000000"
     borderopacity="0.25"
     inkscape:showpageshadow="2"
     inkscape:pageopacity="0.0"
     inkscape:pagecheckerboard="0"
     inkscape:deskcolor="#d1d1d1"
     inkscape:document-units="mm"
     inkscape:zoom="0.24811884"
     inkscape:cx="143.0766"
     inkscape:cy="145.09176"
     inkscape:window-width="1920"
     inkscape:window-height="1027"
     inkscape:window-x="0"
     inkscape:window-y="25"
     inkscape:window-maximized="1"
     inkscape:current-layer="layer1" />
  <defs
     id="defs1" />
  <g
     inkscape:label="Layer 1"
     inkscape:groupmode="layer"
     id="layer1"
     transform="translate(-69.850044,-109.80203)">
    <path
       id="path12809"
       d="m 117.17566,184.26802 c -2.81869,0.67381 -7.747,0.51894 -8.54075,-2.83739 0.25753,0.82726 1.23825,1.37442 2.03906,1.67499 3.78177,1.40335 7.59177,-0.0593 11.22186,-1.37619 8.26205,-3.23603 15.32467,-9.72855 19.2405,-18.07527 6.93914,-14.07584 2.88219,-32.30034 -8.79122,-42.37215 1.1818,0.5715 2.30011,1.48167 3.22791,2.38125 5.207,5.60212 8.73125,12.75645 9.50384,20.53167 2.45533,17.96698 -10.19881,36.14244 -27.9012,40.07309 z m -8.60425,-3.16477 c -0.0106,0.0868 -0.0282,0.17004 -0.0459,0.2533 -0.23989,0.85584 -1.26295,1.42275 -2.08139,1.71097 -3.77825,1.35431 -7.545917,-0.13864 -11.144251,-1.48379 -7.824611,-3.17323 -14.481528,-9.18421 -18.415001,-17.05468 -7.648222,-14.62264 -3.083278,-34.09598 9.997723,-43.82559 0.3175,-0.0141 0.635,0.007 0.9525,0.0741 0.201083,-2.55764 3.125611,-4.49439 5.344584,-5.63033 3.104444,-1.46756 6.409972,-2.5012 9.828385,-3.01625 2.59645,0.20814 5.40456,2.12725 5.56331,4.42383 0.15875,-2.29658 2.97039,-4.21569 5.56683,-4.42383 3.41489,0.51505 6.72395,1.54869 9.82839,3.01625 2.21898,1.13594 5.13998,3.07269 5.34459,5.63033 0.31397,-0.067 0.63147,-0.0882 0.9525,-0.0741 13.081,9.72961 17.64594,29.20295 9.99772,43.82559 -3.93347,7.87047 -10.59039,13.88145 -18.415,17.05468 -3.60186,1.34515 -7.36953,2.8381 -11.14425,1.48379 -0.81845,-0.28822 -1.8415,-0.85513 -2.08139,-1.71097 -0.0176,-0.0833 -0.0353,-0.16652 -0.0494,-0.2533 z m -8.600723,3.16477 c -17.70239,-3.93065 -30.356529,-22.10611 -27.904724,-40.07309 0.772584,-7.77522 4.296834,-14.92955 9.503834,-20.53167 0.927806,-0.89958 2.046112,-1.80975 3.231445,-2.38125 -11.673417,10.07181 -15.730362,28.29631 -8.794751,42.37215 3.915834,8.34672 10.981973,14.83924 19.240502,18.07527 3.633611,1.31692 7.440087,2.77954 11.221857,1.37619 0.80081,-0.30057 1.78506,-0.84773 2.03906,-1.67499 -0.79022,3.35633 -5.71853,3.5112 -8.537223,2.83739 z m 8.600723,-72.51101 c 1.06186,-0.0212 2.11314,0.0141 3.16089,0.0988 -1.37583,-0.0529 -2.58939,0.26459 -3.16089,1.56986 -0.56797,-1.30527 -1.78506,-1.62277 -3.16089,-1.56986 1.04775,-0.0847 2.10256,-0.11994 3.16089,-0.0988 z m 0,-1.94733 c -20.760973,-0.43744 -39.147752,17.95286 -38.713836,38.71384 -0.433916,20.7645 17.949335,39.1474 38.713836,38.71277 20.7645,0.43463 39.15128,-17.94827 38.71384,-38.71277 0.43744,-20.76098 -17.94934,-39.15128 -38.71384,-38.71384"
       style="fill:#fab85f;fill-opacity:1;fill-rule:nonzero;stroke:none;stroke-width:0.0352778" />
  </g>
</svg>
