<?xml version="1.0" encoding="UTF-8" standalone="no"?>
<!-- Created with Inkscape (http://www.inkscape.org/) -->

<svg
   width="70.117538mm"
   height="69.999611mm"
   viewBox="0 0 70.117538 69.999611"
   version="1.1"
   id="svg1"
   inkscape:version="1.4.2 (ebf0e940, 2025-05-08)"
   sodipodi:docname="arrow_right.svg"
   xmlns:inkscape="http://www.inkscape.org/namespaces/inkscape"
   xmlns:sodipodi="http://sodipodi.sourceforge.net/DTD/sodipodi-0.dtd"
   xmlns="http://www.w3.org/2000/svg"
   xmlns:svg="http://www.w3.org/2000/svg">
  <sodipodi:namedview
     id="namedview1"
     pagecolor="#ffffff"
     bordercolor="#000000"
     borderopacity="0.25"
     inkscape:showpageshadow="2"
     inkscape:pageopacity="0.0"
     inkscape:pagecheckerboard="0"
     inkscape:deskcolor="#d1d1d1"
     inkscape:document-units="mm"
     inkscape:zoom="0.64"
     inkscape:cx="113.28125"
     inkscape:cy="137.5"
     inkscape:window-width="1920"
     inkscape:window-height="1027"
     inkscape:window-x="0"
     inkscape:window-y="25"
     inkscape:window-maximized="1"
     inkscape:current-layer="layer1" />
  <defs
     id="defs1" />
  <g
     inkscape:label="Layer 1"
     inkscape:groupmode="layer"
     id="layer1"
     transform="translate(-74.352594,-113.0135)">
    <path
       id="path12886"
       d="m 122.027,148.03018 c -0.16313,0.13784 -1.73284,1.29702 -3.90379,2.90076 l -1.11232,0.82143 c 1.44911,-0.53042 3.00384,-1.02128 4.51986,-1.49956 l 0.8107,-0.25625 c 1.51388,-0.47379 3.06201,-1.00647 4.42522,-1.47656 0.71386,-0.24506 1.39331,-0.48012 2.02979,-0.69235 -0.63358,-0.20667 -1.31244,-0.43461 -2.02146,-0.67265 -1.3728,-0.4609 -2.92878,-0.98346 -4.44797,-1.44674 l -0.8124,-0.2511 c -1.52135,-0.46839 -3.08151,-0.94942 -4.52984,-1.4685 l 1.07465,0.78215 c 2.20543,1.60722 3.80016,2.76822 3.96637,2.90559 l 0.21371,0.17617 z m -46.923824,-0.004 c -0.012,0.26665 -0.01966,0.54797 -0.01869,0.8366 0.0033,0.98086 0.10171,3.36432 0.931538,4.31428 0.343599,0.39189 0.783057,0.48877 1.307635,0.28808 l 0.169842,-0.0654 0.05357,15.93581 -0.105356,0.037 c -0.941747,0.33266 -1.494935,4.18961 -1.485052,10.33044 1.526591,-1.17436 2.773484,-2.30883 3.61403,-3.29027 0.669372,-0.67277 1.394666,-1.99672 1.392846,-2.53823 -2.78e-4,-0.0827 -0.01965,-0.10371 -0.02618,-0.11262 -0.0281,-0.0289 -0.14244,-0.10968 -0.52934,0.0634 l -0.102442,-0.37492 21.730723,-16.14186 c 0.47241,-0.3512 0.74224,-0.7691 0.74097,-1.1465 -0.001,-0.39941 -0.31474,-0.77416 -0.84076,-1.00261 l -0.0819,-0.0338 0.074,-0.39074 0.0819,0.0342 c 2.40129,0.95682 5.33197,-1.3353 7.4704,-3.00886 l 0.45947,-0.35755 c 0.51284,-0.48863 0.789,-0.94806 0.78775,-1.31972 -0.004,-1.30905 -3.29365,-1.93945 -4.97068,-1.97213 l 6.4e-4,-0.40549 c 1.67462,-0.0439 4.95956,-0.69612 4.95516,-2.00519 -0.001,-0.37164 -0.28049,-0.8292 -0.8074,-1.32329 l -0.45107,-0.34618 c -2.14964,-1.65883 -5.09565,-3.93088 -7.49046,-2.95794 l -0.0817,0.0348 -0.0766,-0.39023 0.0817,-0.0344 c 0.52448,-0.23198 0.83535,-0.60882 0.83401,-1.00825 -10e-4,-0.37739 -0.2739,-0.79347 -0.74866,-1.14181 l -21.838754,-15.99508 0.09992,-0.37614 c 0.388045,0.17048 0.501862,0.089 0.529754,0.0598 0.006,-0.009 0.0257,-0.0298 0.02542,-0.11279 -0.0018,-0.54183 -0.736009,-1.86058 -1.40125,-2.52023 -0.855761,-0.98372 -2.110245,-2.1101 -3.644708,-3.2745 0.03134,6.14077 0.610518,9.99391 1.554481,10.32024 l 0.105603,0.0364 0.05357,15.93535 -0.170276,-0.0639 c -0.525917,-0.19746 -0.964723,-0.0973 -1.30567,0.29686 -0.823412,0.95552 -0.905818,3.33962 -0.902522,4.32013 9.7e-4,0.28865 0.01092,0.57023 0.02431,0.83646 l 0.0021,0.0156 z m -0.750582,-35.01268 23.176697,16.97623 c 2.127772,1.55895 2.973969,0.97596 3.792979,-0.64494 l 0.15611,-0.30737 0.083,0.36403 c 0.55707,2.42249 1.97498,4.13676 3.42658,5.62679 10.89976,6.64574 26.39398,11.57041 39.48117,12.54718 l 0.001,0.40516 c -13.08032,1.06474 -28.54108,6.09346 -39.39592,12.81233 -1.44156,1.49975 -2.84791,3.22353 -3.38867,5.64938 l -0.0806,0.36458 -0.15817,-0.30599 c -0.8299,-1.61537 -1.679993,-2.19265 -3.797237,-0.61943 L 74.5879,183.01311 74.352594,113.0135"
       style="fill:#fab85f;fill-opacity:1;fill-rule:nonzero;stroke:none;stroke-width:0.0262167" />
  </g>
</svg>
