<?xml version="1.0" encoding="UTF-8" standalone="no"?>
<!-- Created with Inkscape (http://www.inkscape.org/) -->

<svg
   width="70.117538mm"
   height="69.999611mm"
   viewBox="0 0 70.117538 69.999611"
   version="1.1"
   id="svg1"
   inkscape:version="1.4.2 (ebf0e940, 2025-05-08)"
   sodipodi:docname="arrow_left.svg"
   xmlns:inkscape="http://www.inkscape.org/namespaces/inkscape"
   xmlns:sodipodi="http://sodipodi.sourceforge.net/DTD/sodipodi-0.dtd"
   xmlns="http://www.w3.org/2000/svg"
   xmlns:svg="http://www.w3.org/2000/svg">
  <sodipodi:namedview
     id="namedview1"
     pagecolor="#ffffff"
     bordercolor="#000000"
     borderopacity="0.25"
     inkscape:showpageshadow="2"
     inkscape:pageopacity="0.0"
     inkscape:pagecheckerboard="0"
     inkscape:deskcolor="#d1d1d1"
     inkscape:document-units="mm"
     inkscape:zoom="0.64"
     inkscape:cx="113.28125"
     inkscape:cy="137.5"
     inkscape:window-width="1920"
     inkscape:window-height="1027"
     inkscape:window-x="0"
     inkscape:window-y="25"
     inkscape:window-maximized="1"
     inkscape:current-layer="layer1" />
  <defs
     id="defs1" />
  <g
     inkscape:label="Layer 1"
     inkscape:groupmode="layer"
     id="layer1"
     transform="translate(-74.352594,-113.0135)">
    <path
       id="path12886"
       d="m 96.795714,148.0195 c 0.162878,-0.13814 1.730466,-1.30019 3.898476,-2.9079 l 1.11082,-0.82346 c -1.44814,0.53307 -3.001967,1.02677 -4.51711,1.50782 l -0.810231,0.25773 c -1.513011,0.47656 -3.060164,1.01207 -4.422512,1.48465 -0.713411,0.24637 -1.39243,0.48267 -2.028521,0.69606 0.633957,0.20551 1.313232,0.43221 2.022686,0.66896 1.373641,0.45839 2.930574,0.9781 4.450608,1.4386 l 0.812858,0.24962 c 1.522204,0.4656 3.083242,0.94378 4.532522,1.46021 l -1.07608,-0.78018 c -2.208368,-1.60319 -3.805218,-2.76127 -3.971679,-2.89834 l -0.214032,-0.17578 z m 46.923756,-0.0818 c 0.0115,-0.26667 0.0187,-0.548 0.0172,-0.83663 -0.005,-0.98085 -0.10786,-3.36413 -0.93943,-4.31257 -0.34431,-0.39126 -0.78395,-0.48734 -1.30816,-0.28569 l -0.16972,0.0657 -0.0827,-15.93569 0.10529,-0.0372 c 0.94114,-0.33438 1.48727,-4.19233 1.46616,-10.33314 -1.52444,1.17715 -2.76925,2.3139 -3.608,3.29688 -0.66815,0.67399 -1.39102,1.99926 -1.38821,2.54077 4.3e-4,0.0827 0.0198,0.10367 0.0264,0.11257 0.0281,0.0288 0.14264,0.10942 0.52922,-0.0644 l 0.10313,0.37474 -21.70117,16.18156 c -0.47177,0.35206 -0.74084,0.77046 -0.73888,1.14785 0.002,0.39941 0.31616,0.77359 0.8426,1.00107 l 0.082,0.0337 -0.0733,0.39087 -0.082,-0.0341 c -2.40304,-0.95243 -5.32952,1.34505 -7.46489,3.02251 l -0.45881,0.35839 c -0.51195,0.48957 -0.78727,0.9495 -0.78534,1.32116 0.006,1.30904 3.29719,1.93343 4.97428,1.96304 l 1e-4,0.40549 c -1.67454,0.047 -4.95828,0.70519 -4.95148,2.01425 0.002,0.37163 0.282,0.82868 0.80981,1.32181 l 0.45171,0.34535 c 2.15267,1.6549 5.10282,3.92156 7.49585,2.94424 l 0.0816,-0.035 0.0773,0.39009 -0.0816,0.0345 c -0.52405,0.23294 -0.83423,0.61035 -0.83216,1.00977 0.002,0.37739 0.27535,0.79297 0.75075,1.14044 l 21.86796,15.95513 -0.0992,0.37632 c -0.38836,-0.16977 -0.50203,-0.0881 -0.52987,-0.0588 -0.006,0.009 -0.0256,0.0298 -0.0252,0.11283 0.003,0.54183 0.73941,1.85924 1.40586,2.51767 0.85755,0.98215 2.1141,2.10624 3.65069,3.26783 -0.0426,-6.1407 -0.62879,-9.99278 -1.57335,-10.31738 l -0.10567,-0.0362 -0.0827,-15.93522 0.17039,0.0636 c 0.52628,0.1965 0.9649,0.0955 1.30513,-0.29924 0.82166,-0.95703 0.89971,-3.34127 0.89462,-4.32178 -0.001,-0.28864 -0.012,-0.5702 -0.0258,-0.83641 l -0.002,-0.0156 z m 0.8146,35.01125 -23.2077,-16.93383 c -2.13062,-1.55505 -2.97575,-0.97052 -3.7918,0.65188 l -0.15554,0.30765 -0.0837,-0.36387 c -0.5615,-2.42147 -1.98254,-4.13315 -3.43686,-5.62052 -10.91189,-6.6258 -26.415093,-11.52213 -39.504047,-12.47497 l -0.0017,-0.40516 c 13.078352,-1.08865 28.529888,-6.14563 39.372428,-12.88434 1.43882,-1.50238 2.84201,-3.22873 3.37834,-5.65557 l 0.0799,-0.36472 0.15873,0.3057 c 0.83285,1.61385 1.684,2.18957 3.79836,0.61248 l 23.03027,-17.17379 0.3633,69.99906"
       style="fill:#fab85f;fill-opacity:1;fill-rule:nonzero;stroke:none;stroke-width:0.0262167" />
  </g>
</svg>
