<?xml version="1.0" encoding="UTF-8" standalone="no"?>
<!-- Created with Inkscape (http://www.inkscape.org/) -->

<svg
   width="72.669136mm"
   height="92.050941mm"
   viewBox="0 0 72.669136 92.050941"
   version="1.1"
   id="svg1"
   inkscape:version="1.4.2 (ebf0e940, 2025-05-08)"
   sodipodi:docname="attribute_frame_with_bg.svg"
   xmlns:inkscape="http://www.inkscape.org/namespaces/inkscape"
   xmlns:sodipodi="http://sodipodi.sourceforge.net/DTD/sodipodi-0.dtd"
   xmlns="http://www.w3.org/2000/svg"
   xmlns:svg="http://www.w3.org/2000/svg">
  <sodipodi:namedview
     id="namedview1"
     pagecolor="#ffffff"
     bordercolor="#000000"
     borderopacity="0.25"
     inkscape:showpageshadow="2"
     inkscape:pageopacity="0.0"
     inkscape:pagecheckerboard="0"
     inkscape:deskcolor="#d1d1d1"
     inkscape:document-units="mm"
     inkscape:zoom="0.42870939"
     inkscape:cx="169.11223"
     inkscape:cy="114.29654"
     inkscape:window-width="1920"
     inkscape:window-height="1027"
     inkscape:window-x="0"
     inkscape:window-y="25"
     inkscape:window-maximized="1"
     inkscape:current-layer="layer1" />
  <defs
     id="defs1" />
  <g
     inkscape:label="Layer 1"
     inkscape:groupmode="layer"
     id="layer1"
     transform="translate(-62.086092,-117.36408)">
    <path
       id="path12804"
       d="m 94.796094,123.66109 c -1.08655,1.24883 -2.42005,2.43769 -3.70064,3.55247 -0.23283,0.20814 -0.44802,0.39511 -0.65263,0.56445 1.58397,-0.34925 3.22791,-0.60678 4.64255,-0.7232 z m 6.956776,3.39372 c 1.42522,0.11642 3.07622,0.37747 4.67078,0.72672 -1.68275,-1.36172 -3.20675,-2.79753 -4.3815,-4.1275 z m -3.160886,65.02365 c 1.04775,1.92088 3.344336,3.21134 5.711476,3.21134 0.74436,-3.5e-4 1.45697,-0.12841 2.11313,-0.38171 2.77637,-0.67486 5.77498,-1.62313 6.50875,-4.44323 l 0.33867,-1.30493 0.0459,1.34761 c 0.0317,0.93592 0.45509,1.04422 0.76906,1.04422 1.29116,0 3.75355,-2.02353 4.93889,-2.99578 0.23283,-0.19227 0.42333,-0.34996 0.55739,-0.45332 5.43983,-4.41643 10.25877,-12.98893 11.28536,-20.03743 -0.004,-0.0882 0.0176,-0.19403 0.0353,-0.26106 l 0.0882,-0.67027 0.27869,0.6103 0.0317,0.0494 -0.004,0.0106 c 0.067,0.13053 0.1658,0.26812 0.28575,0.26812 0.17639,0 0.50447,-0.26459 0.85372,-1.016 0.47272,-1.1042 0.58914,-2.44828 0.64558,-3.6195 -0.0353,-1.00895 -0.13758,-2.51178 -0.64911,-3.71828 -0.34572,-0.74436 -0.6738,-1.01248 -0.85019,-1.01248 -0.11995,0 -0.21873,0.13759 -0.28575,0.27164 l 0.004,0.0106 -0.0317,0.0494 -0.27869,0.60677 -0.0882,-0.66675 c -0.0176,-0.067 -0.0388,-0.17286 -0.0353,-0.25752 -1.06186,-7.29192 -5.93725,-15.82209 -11.66636,-20.37645 -0.14111,-0.10231 -0.35278,-0.27164 -0.61384,-0.47625 -1.16416,-0.92428 -3.33022,-2.64231 -4.51555,-2.64231 -0.31398,0 -0.73025,0.10584 -0.75495,1.04423 l -0.0388,1.38994 -0.34573,-1.34408 c -0.6985,-2.68817 -3.52777,-3.71828 -6.48405,-4.43442 -0.68439,-0.26105 -1.39347,-0.39158 -2.13783,-0.39158 -2.36362,0 -4.660196,1.29116 -5.711476,3.2138 l -0.17286,0.31398 -0.17286,-0.31398 c -1.05128,-1.92264 -3.34433,-3.2138 -5.715,-3.2138 -0.74083,0 -1.45344,0.13053 -2.10961,0.381 -2.77636,0.67733 -5.77497,1.6263 -6.50875,4.445 l -0.33867,1.30528 -0.0459,-1.34762 c -0.0317,-0.93486 -0.45508,-1.04422 -0.76906,-1.04422 -1.29469,0 -3.75355,2.02142 -4.93888,2.99509 -0.23284,0.19402 -0.42334,0.34925 -0.55739,0.45508 -5.43631,4.41325 -10.2482,12.97164 -11.28184,20.01661 v 0.0106 c 0,0.13759 -0.0176,0.23284 -0.0423,0.29987 l -0.0882,0.64205 -0.27516,-0.6103 -0.0318,-0.0494 0.004,-0.0106 c -0.067,-0.13405 -0.16581,-0.27164 -0.28575,-0.27164 -0.17639,0 -0.50448,0.26812 -0.85373,1.016 -0.49036,1.15359 -0.60325,2.56823 -0.64558,3.67595 0.0423,1.09008 0.15522,2.50825 0.64911,3.66536 0.34572,0.74436 0.67381,1.00895 0.8502,1.00895 0.11994,0 0.21872,-0.13759 0.28575,-0.26812 l -0.004,-0.0141 0.0318,-0.0494 0.27516,-0.60677 0.0882,0.64558 c 0.0247,0.0635 0.0423,0.15875 0.0423,0.29633 v 0.007 c 1.06539,7.28839 5.93725,15.80444 11.66284,20.3521 0.14111,0.10231 0.35277,0.27164 0.61383,0.47837 1.16417,0.92392 3.32669,2.64372 4.51556,2.64336 0.31044,0 0.73025,-0.10865 0.75494,-1.04775 l 0.0388,-1.38994 0.34572,1.34655 c 0.69497,2.6864 3.52778,3.71934 6.48405,4.43512 0.68087,0.26071 1.39348,0.38877 2.13784,0.38877 2.36361,0 4.66019,-1.29047 5.71147,-3.21099 l 0.17286,-0.31362 z m 3.450166,11.04159 c 1.08656,-1.25059 2.41653,-2.4384 3.69711,-3.55388 0.23636,-0.20814 0.45156,-0.39511 0.65264,-0.56233 -1.58397,0.34855 -3.22439,0.60537 -4.63903,0.7232 z m -11.627556,-4.12256 c 1.67923,1.36067 3.20323,2.79718 4.3815,4.13033 l 0.28928,-3.40078 c -1.42522,-0.11889 -3.07975,-0.37783 -4.67078,-0.72955 z m 7.87048,10.28806 c -1.01953,-0.97261 -2.02495,-2.00766 -2.99862,-3.00884 -2.88219,-2.97109 -5.86316,-6.04344 -9.72255,-8.00559 -0.87489,-0.46425 -1.7392,-0.99236 -2.57528,-1.50248 -2.53647,-1.54693 -4.92831,-3.00813 -7.77522,-3.00813 -0.28928,0 -0.57856,0.0159 -0.86784,0.0466 l -0.40569,0.043 0.22225,-0.3436 c 1.18886,-1.86126 -0.28222,-3.32564 -1.70744,-4.74169 -0.2152,-0.21519 -0.42687,-0.42651 -0.62442,-0.63429 -1.49578,-1.59738 -2.88572,-3.39302 -4.02167,-5.18513 -3.72533,-5.75028 -5.75733,-12.74939 -5.72205,-19.70264 0.0247,-6.85448 2.05669,-13.74775 5.72205,-19.40984 1.13595,-1.79211 2.52589,-3.58422 4.02167,-5.1823 0.19755,-0.21167 0.41275,-0.42334 0.63147,-0.63853 1.41817,-1.41464 2.88572,-2.87514 1.69686,-4.73781 l -0.21519,-0.34572 0.40216,0.0459 c 0.28928,0.0282 0.57856,0.0459 0.86784,0.0459 2.84691,0 5.24228,-1.46402 7.77522,-3.00919 0.83608,-0.51153 1.70039,-1.03717 2.57175,-1.49931 3.86292,-1.96497 6.84389,-5.03766 9.72256,-8.00453 0.97366,-1.00188 1.97908,-2.03905 3.00214,-3.01272 l 0.13405,-0.13053 0.13406,0.13053 c 1.01952,0.97367 2.024936,2.00731 2.998606,3.0092 2.88219,2.97039 5.86317,6.04308 9.72255,8.00453 0.87489,0.46566 1.7392,0.9913 2.57528,1.50283 2.53295,1.54869 4.92831,3.00919 7.77523,3.00919 0.28927,0 0.57855,-0.0176 0.86783,-0.0459 l 0.40569,-0.0459 -0.22225,0.34572 c -1.19239,1.86267 0.28575,3.33023 1.7145,4.74839 0.21167,0.2152 0.42334,0.42334 0.61736,0.62795 1.49225,1.59455 2.8822,3.38666 4.02167,5.18583 3.69006,5.69383 5.72206,12.6365 5.72558,19.55447 -0.004,6.91445 -2.03552,13.86064 -5.72558,19.55448 -1.13947,1.79916 -2.53294,3.59128 -4.02167,5.18407 -0.19755,0.20743 -0.40569,0.41663 -0.62088,0.62971 -1.42523,1.41746 -2.89984,2.8829 -1.71098,4.74733 l 0.21873,0.3436 -0.40217,-0.043 c -0.28928,-0.0307 -0.58208,-0.0466 -0.86783,-0.0466 -2.84692,0 -5.24228,1.46155 -7.77523,3.00919 -0.83608,0.51047 -1.70039,1.03787 -2.57175,1.50037 -3.86291,1.96426 -6.84389,5.03449 -9.72255,8.00276 -0.97367,1.00224 -1.979086,2.03835 -3.002136,3.01272 l -0.13406,0.12947 -0.13405,-0.12947"
       style="fill:#fab85f;fill-opacity:1;fill-rule:nonzero;stroke:none;stroke-width:0.0352778" />
    <path
       style="fill:#000000;stroke-width:2.33258"
       d="m 99.134754,289.45592 c -4.490221,-1.61053 -10.525778,-6.40939 -13.412349,-10.66411 -3.299937,-4.86401 -5.24831,-6.30888 -5.24831,-3.89203 0,6.20125 -5.772806,4.48094 -18.365357,-5.47289 -20.755093,-16.40596 -38.087745,-43.73391 -44.743071,-70.54527 -1.508714,-6.07793 -3.561462,-10.54503 -4.561662,-9.92687 -2.641826,1.63274 -4.6399664,-4.90319 -4.6399664,-15.17736 0,-10.54247 2.0128164,-16.80102 4.8412004,-15.05299 1.110878,0.68656 2.653943,-1.68121 3.429033,-5.26171 6.011883,-27.77169 25.62912,-59.733875 46.190629,-75.257967 13.628493,-10.289612 17.800438,-11.524628 17.942586,-5.311521 0.06677,2.918366 1.081042,2.261779 3.558004,-2.303261 6.68963,-12.328972 29.713009,-19.146481 42.437649,-12.566315 3.92638,2.03041 7.57789,5.008712 8.11447,6.61845 0.65541,1.966244 3.56653,0.746671 8.87015,-3.716034 6.89546,-5.802146 9.24785,-6.482553 18.58787,-5.376366 15.41836,1.826077 23.06114,6.041014 28.04471,15.466442 3.69413,6.986708 4.40034,7.465688 4.4872,3.043375 0.0567,-2.886571 1.04736,-5.248311 2.20146,-5.248311 3.98779,0 25.35317,17.530661 34.11384,27.99099 10.03325,11.979788 23.69042,38.992578 25.89663,51.221368 0.81953,4.54272 3.45007,10.13728 5.84566,12.43237 2.80423,2.68662 4.29718,7.25603 4.1916,12.8292 -0.19101,10.08558 -3.00861,18.49385 -5.6365,16.82036 -1.0073,-0.64146 -3.23783,4.32916 -4.95673,11.04583 -6.58183,25.71844 -24.15774,52.8787 -44.27396,68.41708 -13.17845,10.17944 -16.47529,11.11714 -17.90703,5.0932 -0.76164,-3.20451 -1.54684,-2.68022 -3.65259,2.43887 -3.20836,7.79954 -18.60356,15.51264 -31.1122,15.58742 -5.81453,0.0348 -10.82,-1.84353 -15.57475,-5.84437 l -7.00654,-5.89562 -5.8956,5.89562 c -6.66144,6.66141 -17.90046,7.58572 -31.766076,2.61242 z"
       id="path1"
       transform="matrix(0.26458333,0,0,0.26458333,62.086092,117.36408)" />
  </g>
</svg>
