<?xml version="1.0" encoding="UTF-8" standalone="no"?>
<!-- Created with Inkscape (http://www.inkscape.org/) -->

<svg
   width="113.91813mm"
   height="205.16948mm"
   viewBox="0 0 113.91813 205.16948"
   version="1.1"
   id="svg1"
   inkscape:version="1.4.2 (ebf0e940, 2025-05-08)"
   sodipodi:docname="avatar_frame.svg"
   xmlns:inkscape="http://www.inkscape.org/namespaces/inkscape"
   xmlns:sodipodi="http://sodipodi.sourceforge.net/DTD/sodipodi-0.dtd"
   xmlns="http://www.w3.org/2000/svg"
   xmlns:svg="http://www.w3.org/2000/svg">
  <sodipodi:namedview
     id="namedview1"
     pagecolor="#ffffff"
     bordercolor="#000000"
     borderopacity="0.25"
     inkscape:showpageshadow="2"
     inkscape:pageopacity="0.0"
     inkscape:pagecheckerboard="0"
     inkscape:deskcolor="#d1d1d1"
     inkscape:document-units="mm"
     inkscape:zoom="0.023162177"
     inkscape:cx="194.28225"
     inkscape:cy="388.56451"
     inkscape:window-width="896"
     inkscape:window-height="245"
     inkscape:window-x="0"
     inkscape:window-y="25"
     inkscape:window-maximized="0"
     inkscape:current-layer="layer1" />
  <defs
     id="defs1" />
  <g
     inkscape:label="Layer 1"
     inkscape:groupmode="layer"
     id="layer1"
     transform="translate(-51.593754,-46.037454)">
    <path
       id="path12667"
       d="m 155.89339,234.66069 -0.54927,0.5468 v -1.09714 h 1.09855 z M 153.12726,64.593566 c -0.47801,-1.710972 -2.5781,-3.601861 -2.5781,-3.601861 0,0 -1.89195,-2.099028 -3.60186,-2.575278 h 6.17996 z m 0,141.661454 c -0.55315,9.144 -5.60775,17.08856 -12.9734,21.64997 -1.0735,-0.0741 -2.30258,-0.12347 -2.47156,-0.12347 h -25.79159 c -2.00095,-0.381 -3.33551,-1.46403 -3.33551,-2.00378 0,0.53975 -1.33491,1.62278 -3.33587,2.00378 H 79.423512 c -0.169333,0 -1.398411,0.0494 -2.471914,0.12347 -7.365295,-4.56141 -12.419895,-12.50597 -12.973403,-21.64997 V 69.871122 c 0,-1.598083 0.799747,-5.298722 3.552472,-7.90575 2.60597,-2.751667 6.310137,-3.548945 7.909631,-3.548945 h 66.224862 c 1.59949,0 5.30366,0.797278 7.90963,3.548945 2.75308,2.607028 3.55247,6.307667 3.55247,7.90575 z m 0,14.18167 c 0,1.59808 -0.79939,5.30225 -3.55247,7.90575 -2.60597,2.75166 -6.31014,3.55247 -7.90963,3.55247 h -3.86045 -3.03671 c 8.67833,-2.86808 15.53845,-9.76489 18.35926,-18.46086 z m 0,11.45822 h -6.17996 c 1.70991,-0.47625 3.60186,-2.57528 3.60186,-2.57528 0,0 2.10009,-1.89441 2.5781,-3.60186 z m -40.35531,0 c -2.3301,0 -4.21922,-1.52047 -4.21922,-3.40078 0,1.88031 -1.88877,3.40078 -4.21887,3.40078 H 88.962624 c -4.021314,-0.34925 -7.797095,-1.56633 -11.136842,-3.46781 0.782461,0.0423 1.473905,0.067 1.59773,0.067 h 29.129218 29.12957 c 0.12382,0 0.81491,-0.0247 1.59737,-0.067 -3.33974,1.90148 -7.11552,3.11856 -11.13684,3.46781 z m -4.21922,6.25475 c 0,0 -8.615541,-1.00894 -12.325,-4.67431 h 8.10613 c 2.3301,0 4.21887,1.524 4.21887,3.40078 0,-1.87678 1.88912,-3.40078 4.21922,-3.40078 h 8.10578 c -3.70946,3.66537 -12.325,4.67431 -12.325,4.67431 z m 0,3.22439 -1.09573,-1.09361 h 2.19181 z m -29.251984,-9.47914 h -3.860448 c -1.599494,0 -5.303661,-0.80081 -7.909631,-3.55247 -2.752725,-2.6035 -3.552472,-6.30767 -3.552472,-7.90575 v -7.00264 c 2.820811,8.69597 9.681281,15.59278 18.359262,18.46086 z m -15.322551,0 v -6.17714 c 0.478014,1.70745 2.5781,3.60186 2.5781,3.60186 0,0 1.8923,2.09903 3.601861,2.57528 z m 0,-173.478483 h 6.179961 c -1.709561,0.47625 -3.601861,2.575278 -3.601861,2.575278 0,0 -2.100086,1.890889 -2.5781,3.601861 z m -2.216856,176.791063 -0.549275,-0.5468 -0.549275,-0.55034 h 1.09855 z m 0,-179.006508 h -1.09855 l 0.549275,-0.550333 0.549275,-0.550333 z m 93.582781,-1.100666 0.54927,0.550333 0.54928,0.550333 h -1.09855 z m -0.30798,176.794594 0.56797,-0.56797 c 0.26706,0.24341 0.83715,0.56797 1.97662,0.56797 1.81998,0 2.51848,-1.22061 2.50013,-2.36008 -0.1397,0.82197 -2.06833,1.42522 -3.18523,0.50094 l 1.14018,-1.13947 1.11443,-1.26295 v 0 l -1.30775,1.06187 -1.19698,1.10066 c -1.03363,-1.09714 -0.41874,-3.12914 0.4251,-3.27025 -1.13982,-0.0176 -2.3622,0.68086 -2.3622,2.49767 0,1.18533 0.35172,1.7533 0.5969,2.0073 l -0.5969,0.55034 v -2.55764 -4.72722 c 0,-2.24014 1.19486,-3.85939 1.72791,-3.85939 -0.53305,0 -1.72791,-1.61573 -1.72791,-3.85939 v -67.20488 c 0,-2.32904 1.52259,-4.2171 3.40113,-4.2171 -1.87854,0 -3.40113,-1.88807 -3.40113,-4.21746 V 73.730511 c 0,-2.240139 1.19486,-3.859389 1.72791,-3.859389 -0.53305,0 -1.72791,-1.615722 -1.72791,-3.855861 v -4.727223 -2.557639 l 0.5969,0.550334 c -0.24518,0.250472 -0.5969,0.821972 -0.5969,2.007305 0,1.816806 1.22238,2.515306 2.3622,2.497667 -0.84384,-0.144639 -1.45873,-2.173111 -0.4251,-3.273778 l 1.19698,1.104195 1.30775,1.058333 v 0 0 l -1.11443,-1.259417 -1.14018,-1.139472 c 1.1169,-0.924278 3.04553,-0.321028 3.18523,0.500945 0.0183,-1.139473 -0.68015,-2.360084 -2.50013,-2.360084 -1.13947,0 -1.70956,0.324556 -1.97662,0.567972 l -0.56797,-0.567972 c 0.35525,0 1.08197,0 2.54459,0 1.60126,0 4.08446,0 7.93115,0 -3.70135,0 -8.54992,-3.834695 -8.54992,-3.834695 0,0 -3.8347,-4.847167 -3.8347,-8.544278 0,3.84175 0,6.325306 0,7.926917 0,1.4605 0,2.187223 0,2.543528 l -0.56762,-0.567972 c 0.24271,-0.268111 0.56762,-0.836083 0.56762,-1.975556 0,-1.820333 -1.22237,-2.518833 -2.3622,-2.501194 0.82197,0.141111 1.42628,2.067278 0.50271,3.185583 l -1.13983,-1.139472 -1.26294,-1.114778 1.06151,1.308806 1.10208,1.195916 c -1.09996,1.033639 -3.1302,0.416278 -3.27378,-0.426861 -0.0183,1.139473 0.68015,2.363612 2.50013,2.363612 1.18569,0 1.75472,-0.352778 2.00766,-0.599723 l 0.54963,0.599723 h -2.55729 -4.72898 c -2.24296,0 -3.8608,-1.195917 -3.8608,-1.728612 0,0.532695 -1.61784,1.728612 -3.86045,1.728612 h -25.03276 c -2.2733,0 -4.12574,-1.449917 -4.21499,-3.263195 h -0.008 c -0.0893,1.813278 -1.94168,3.263195 -4.21463,3.263195 H 79.300746 c -2.242609,0 -3.860448,-1.195917 -3.860448,-1.728612 0,0.532695 -1.617839,1.728612 -3.860447,1.728612 h -4.729339 -2.557287 l 0.549981,-0.599723 c 0.252589,0.246945 0.821619,0.599723 2.007306,0.599723 1.81998,0 2.51848,-1.224139 2.500136,-2.363612 -0.143581,0.843139 -2.173464,1.4605 -3.273778,0.426861 l 1.10243,-1.195916 1.061156,-1.308806 -1.262592,1.114778 -1.140177,1.139472 c -0.92322,-1.118305 -0.318912,-3.044472 0.502708,-3.185583 -1.139825,-0.01764 -2.3622,0.680861 -2.3622,2.501194 0,1.139473 0.324908,1.707445 0.567972,1.975556 l -0.567972,0.567972 c 0,-0.356305 0,-1.083028 0,-2.543528 0,-1.601611 0,-4.085167 0,-7.926917 0,3.697111 -3.834695,8.544278 -3.834695,8.544278 0,0 -4.848472,3.834695 -8.549746,3.834695 3.846654,0 6.329715,0 7.930974,0 1.462617,0 2.189339,0 2.544586,0 l -0.567972,0.567972 c -0.267053,-0.243416 -0.837142,-0.567972 -1.976614,-0.567972 -1.819981,0 -2.518481,1.220611 -2.500136,2.360084 0.140052,-0.821973 2.068336,-1.425223 3.18523,-0.500945 l -1.140178,1.139472 -1.114425,1.259417 1.307748,-1.058333 1.196975,-1.104195 c 1.033639,1.100667 0.418747,3.129139 -0.425098,3.273778 1.139826,0.01764 2.362201,-0.680861 2.362201,-2.497667 0,-1.185333 -0.35172,-1.756833 -0.5969,-2.007305 l 0.5969,-0.550334 v 2.557639 4.727223 c 0,2.240139 -1.194859,3.855861 -1.727906,3.855861 0.533047,0 1.727906,1.61925 1.727906,3.859389 v 67.207349 c 0,2.32939 -1.522589,4.21746 -3.400778,4.21746 1.878189,0 3.400778,1.88806 3.400778,4.2171 v 67.20488 c 0,2.24366 -1.194859,3.85939 -1.727906,3.85939 0.533047,0 1.727906,1.61925 1.727906,3.85939 v 4.72722 2.55764 l -0.5969,-0.55034 c 0.24518,-0.254 0.5969,-0.82197 0.5969,-2.0073 0,-1.81681 -1.222375,-2.51531 -2.362201,-2.49767 0.843845,0.14111 1.458737,2.17311 0.425098,3.27025 l -1.196975,-1.10066 -1.307748,-1.06187 1.114425,1.26295 1.140178,1.13947 c -1.116894,0.92428 -3.045178,0.32103 -3.18523,-0.50094 -0.01834,1.13947 0.680155,2.36008 2.500136,2.36008 1.139472,0 1.709561,-0.32456 1.976614,-0.56797 l 0.567972,0.56797 c -0.355247,0 -1.081969,0 -2.544586,0 -1.601259,0 -4.08432,0 -7.930974,0 3.701274,0 8.549746,3.83469 8.549746,3.83469 0,0 3.834695,4.84364 3.834695,8.54428 0,-3.84527 0,-6.3253 0,-7.92691 0,-1.4605 0,-2.18723 0,-2.54353 l 0.567972,0.56797 c -0.243064,0.26811 -0.567972,0.83608 -0.567972,1.97556 0,1.82033 1.222375,2.51883 2.3622,2.49766 -0.82162,-0.13758 -1.425928,-2.06728 -0.502708,-3.18205 l 1.140177,1.13947 1.262592,1.11478 v 0 L 67.1793,236.60802 66.07687,235.4121 c 1.100314,-1.03363 3.130197,-0.4198 3.273778,0.42334 0.01834,-1.13947 -0.680156,-2.36009 -2.500136,-2.36009 -1.185687,0 -1.754717,0.35278 -2.007306,0.5962 l -0.549981,-0.5962 h 2.557287 4.729339 c 2.242608,0 3.860447,1.19592 3.860447,1.72862 0,-0.5327 1.617839,-1.72862 3.860448,-1.72862 h 16.926279 c 5.147735,5.14703 7.842955,7.83873 9.247015,9.24278 l -1.98438,0.0388 c -0.0727,-0.96308 -0.57961,-2.62467 -2.74779,-4.70958 -3.49814,-3.35845 -7.098237,-2.30012 -9.167632,-0.0741 1.781881,-1.31939 6.584951,1.06539 7.047442,4.88245 l -3.827639,0.0776 -4.939595,0.40922 h 3.53e-4 v 0 l 4.938889,0.41275 3.870326,0.0811 c -0.06773,4.00403 -4.979459,6.75217 -6.862234,5.47511 2.156883,2.13783 5.796492,3.05506 9.15705,-0.4445 2.16712,-2.25425 2.55553,-3.98286 2.5587,-4.92831 l 3.24556,0.067 c 0.17462,0.17639 1.78964,1.79211 1.78964,1.79211 0,0 1.61537,-1.61572 1.78999,-1.79211 l 3.24521,-0.067 c 0.003,0.94545 0.39158,2.67406 2.55869,4.92831 3.36056,3.49956 7.00053,2.58233 9.15706,0.4445 -1.88278,1.27706 -6.7945,-1.47108 -6.86188,-5.47511 l 3.87032,-0.0811 4.93889,-0.41275 v 0 0 l -4.93959,-0.40922 -3.82729,-0.0776 c 0.46249,-3.81706 5.26556,-6.20184 7.04709,-4.88245 -2.06904,-2.22603 -5.66914,-3.28436 -9.16729,0.0741 -2.16817,2.08491 -2.67546,3.7465 -2.74813,4.70958 l -1.98403,-0.0388 c 1.40406,-1.40405 4.09928,-4.09575 9.24701,-9.24278 h 16.92593 c 2.24261,0 3.86045,1.19592 3.86045,1.72862 0,-0.5327 1.61784,-1.72862 3.8608,-1.72862 h 4.72898 2.55729 l -0.54963,0.5962 c -0.25294,-0.24342 -0.82197,-0.5962 -2.00766,-0.5962 -1.81998,0 -2.51848,1.22062 -2.50013,2.36009 0.14358,-0.84314 2.17382,-1.45697 3.27378,-0.42334 l -1.10208,1.19592 -1.06151,1.30881 v 0 l 1.26294,-1.11478 1.13983,-1.13947 c 0.92357,1.11477 0.31926,3.04447 -0.50271,3.18205 1.13983,0.0212 2.3622,-0.67733 2.3622,-2.49766 0,-1.13948 -0.32491,-1.70745 -0.56762,-1.97556 l 0.56762,-0.56797 c 0,0.3563 0,1.08303 0,2.54353 0,1.60161 0,4.08164 0,7.92691 0,-3.70064 3.8347,-8.54428 3.8347,-8.54428 0,0 4.84857,-3.83469 8.54992,-3.83469 -3.84669,0 -6.32989,0 -7.93115,0 -1.46227,0 -2.18934,0 -2.54459,0"
       style="fill:#fab85f;fill-opacity:1;fill-rule:nonzero;stroke:none;stroke-width:0.0352778" />
  </g>
</svg>
