<?xml version="1.0" encoding="UTF-8" standalone="no"?>
<!-- Created with Inkscape (http://www.inkscape.org/) -->

<svg
   width="85.005402mm"
   height="85.00605mm"
   viewBox="0 0 85.005402 85.00605"
   version="1.1"
   id="svg1"
   inkscape:version="1.4.2 (ebf0e940, 2025-05-08)"
   sodipodi:docname="frame_passive_with_background.svg"
   xmlns:inkscape="http://www.inkscape.org/namespaces/inkscape"
   xmlns:sodipodi="http://sodipodi.sourceforge.net/DTD/sodipodi-0.dtd"
   xmlns="http://www.w3.org/2000/svg"
   xmlns:svg="http://www.w3.org/2000/svg">
  <sodipodi:namedview
     id="namedview1"
     pagecolor="#ffffff"
     bordercolor="#000000"
     borderopacity="0.25"
     inkscape:showpageshadow="2"
     inkscape:pageopacity="0.0"
     inkscape:pagecheckerboard="0"
     inkscape:deskcolor="#d1d1d1"
     inkscape:document-units="mm"
     inkscape:zoom="1.48"
     inkscape:cx="159.12162"
     inkscape:cy="159.45946"
     inkscape:window-width="1920"
     inkscape:window-height="1027"
     inkscape:window-x="0"
     inkscape:window-y="25"
     inkscape:window-maximized="1"
     inkscape:current-layer="layer1" />
  <defs
     id="defs1" />
  <g
     inkscape:label="Layer 1"
     inkscape:groupmode="layer"
     id="layer1"
     transform="translate(-64.077339,-105.34421)">
    <path
       id="path12920"
       d="m 120.56064,176.36967 4.4132,-4.41325 10.0119,4.29684 -4.2969,-10.01184 4.4133,-4.41325 v 14.5415 z m -13.9806,11.71223 -10.107101,-10.10356 h 2.0743 c 4.434501,0 8.032801,3.59481 8.032801,8.03275 0,-4.43794 3.5983,-8.03275 8.0363,-8.03275 h 2.0708 z M 78.057939,176.36967 v -14.5415 l 4.4133,4.41325 -4.2969,10.01184 10.0119,-4.29684 4.4132,4.41325 z m -11.7122,-28.52208 10.1035,-10.10708 v 2.0708 c 0,4.43795 -3.5948,8.03628 -8.0327,8.03628 4.4379,0 8.0327,3.59833 8.0327,8.03275 v 2.07433 z m 11.7122,-28.52314 h 14.5415 l -4.4132,4.41501 -10.0119,-4.29895 4.2969,10.01148 -4.4133,4.41501 z m 28.522101,-11.71364 10.1071,10.10673 h -2.0708 c -4.438,0 -8.0363,-3.59727 -8.0363,-8.03451 0,4.43724 -3.5983,8.03451 -8.032801,8.03451 h -2.0743 z m 28.5221,11.71364 V 133.867 l -4.4133,-4.41536 4.2969,-10.01113 -10.0119,4.29895 -4.4132,-4.41501 z m -8.5337,6.00639 v -0.53022 l 5.3622,-2.30258 -2.3036,5.36222 h -0.5292 z m -43.035401,2.52942 -2.3036,-5.36258 5.3622,2.30294 v 0.53022 l -2.5259,2.52942 z m 3.0586,42.50161 v 0.53269 l -5.3622,2.30364 2.3036,-5.36575 h 0.5327 z m 43.035401,-2.52942 2.3036,5.36575 -5.3622,-2.30364 v -0.53269 l 2.5294,-2.52942 z m -1.196,-1.60161 h -3.4678 v 3.46781 l -6.671,6.67102 H 94.867839 l -6.6711,-6.67102 v -3.46781 h -3.4678 l -6.671,-6.67103 v -23.42444 l 6.671,-6.67209 h 3.4678 v -3.46851 l 6.6711,-6.67032 h 23.424401 l 6.671,6.67032 v 3.46851 h 3.4678 l 6.6711,6.67209 v 23.42444 z m 18.3868,-18.38325 -10.1071,10.10708 v -2.07433 c 0,-4.43442 3.5949,-8.03275 8.0328,-8.03275 -4.4379,0 -8.0328,-3.59833 -8.0328,-8.03628 v -2.0708 z m -10.1071,12.37192 12.372,-12.37192 -12.372,-12.37545 v -16.84655 l 1.7428,-2.65042 -2.6529,1.74237 h -16.8487 l -12.3719,-12.37333 -12.371901,12.37333 h -16.8487 l -2.6529,-1.74237 1.7427,2.65042 v 16.84655 l -12.3719,12.37545 12.3719,12.37192 v 16.84866 l -1.7427,2.64937 2.6529,-1.7392 h 16.8487 l 12.371901,12.37192 12.3719,-12.37192 h 16.8487 l 2.6529,1.7392 -1.7428,-2.64937 v -16.84866"
       style="fill:#fab85f;fill-opacity:1;fill-rule:nonzero;stroke:none;stroke-width:0.0352778" />
    <path
       style="fill:#000000;stroke-width:0.675676"
       d="M 103.87829,255.56766 91.554054,243.2299 v -6.58116 -6.58117 H 84.959547 78.365041 L 65.702791,217.39215 53.040541,204.71673 V 160.79764 116.87855 L 65.715959,104.2163 78.391379,91.554054 h 6.581337 6.581338 v -6.594507 -6.594506 l 12.675416,-12.66225 12.67542,-12.66225 h 43.91909 43.91909 l 12.66225,12.675418 12.66225,12.67542 v 6.581337 6.581338 h 6.59469 6.59468 l 12.32424,12.337756 12.32423,12.33775 v 44.25675 44.25676 l -12.67542,12.66225 -12.67542,12.66225 h -6.2435 -6.2435 v 6.25667 6.25667 l -12.67542,12.66225 -12.67542,12.66225 h -44.25711 -44.2571 z"
       id="path1"
       transform="matrix(0.26458333,0,0,0.26458333,64.077339,105.34421)" />
  </g>
</svg>
