<?xml version="1.0" encoding="UTF-8" standalone="no"?>
<!-- Created with Inkscape (http://www.inkscape.org/) -->

<svg
   width="82.684059mm"
   height="82.684418mm"
   viewBox="0 0 82.684059 82.684418"
   version="1.1"
   id="svg1"
   inkscape:version="1.4.2 (ebf0e940, 2025-05-08)"
   sodipodi:docname="frame_trait.svg"
   xmlns:inkscape="http://www.inkscape.org/namespaces/inkscape"
   xmlns:sodipodi="http://sodipodi.sourceforge.net/DTD/sodipodi-0.dtd"
   xmlns="http://www.w3.org/2000/svg"
   xmlns:svg="http://www.w3.org/2000/svg">
  <sodipodi:namedview
     id="namedview1"
     pagecolor="#ffffff"
     bordercolor="#000000"
     borderopacity="0.25"
     inkscape:showpageshadow="2"
     inkscape:pageopacity="0.0"
     inkscape:pagecheckerboard="0"
     inkscape:deskcolor="#d1d1d1"
     inkscape:document-units="mm"
     inkscape:zoom="0.4"
     inkscape:cx="73.75"
     inkscape:cy="17.5"
     inkscape:window-width="1920"
     inkscape:window-height="1027"
     inkscape:window-x="0"
     inkscape:window-y="25"
     inkscape:window-maximized="1"
     inkscape:current-layer="layer1" />
  <defs
     id="defs1" />
  <g
     inkscape:label="Layer 1"
     inkscape:groupmode="layer"
     id="layer1"
     transform="translate(-65.087533,-101.46767)">
    <path
       id="path12919"
       d="m 93.807173,173.70634 c -0.70909,-0.36336 -1.43934,-1.47814 -1.38289,-2.48002 h 28.014087 c 0.0565,1.00188 -0.67733,2.11666 -1.38641,2.48002 z m 25.244787,-61.79432 c 0.70908,0.36301 1.44286,1.47743 1.38641,2.48003 H 92.424283 c -0.0564,-1.0026 0.6738,-2.11702 1.38289,-2.48003 z m 18.2774,43.52043 c -0.36336,0.70909 -1.47813,1.43934 -2.48002,1.38289 v -28.01197 c 1.00189,-0.0572 2.11666,0.67522 2.48002,1.3843 z m -13.07747,-43.52043 h 13.07747 v 13.07712 c -0.37041,1.82069 -1.50636,3.4484 -2.48002,3.79483 v -14.39192 h -14.39333 c 0.34572,-0.97367 1.97556,-2.11244 3.79588,-2.48003 z M 79.530253,169.7129 v -53.80532 h 53.802137 v 53.80532 z m -3.99697,-39.52523 c 0.36336,-0.70908 1.47814,-1.44145 2.48002,-1.3843 v 28.01197 c -1.00188,0.0565 -2.11666,-0.6738 -2.48002,-1.38289 z m 16.86983,-15.79562 h -14.38981 v 14.39192 c -0.97366,-0.34643 -2.11313,-1.97379 -2.48002,-3.79448 v -13.07747 h 13.07747 c 1.82033,0.36759 3.44664,1.50636 3.79236,2.48003 z m -3.79236,59.31429 h -13.07747 v -13.07747 c 0.36689,-1.82033 1.50636,-3.44664 2.48002,-3.79236 v 14.38981 h 14.39334 c -0.34925,0.97366 -1.97556,2.11313 -3.79589,2.48002 z m 31.845257,-2.48002 h 14.39333 v -14.38981 c 0.97366,0.34572 2.10961,1.97203 2.48002,3.79236 v 13.07747 h -13.07747 c -1.82032,-0.36689 -3.45016,-1.50636 -3.79588,-2.48002 z m 27.31558,-28.41626 c -4.80484,0 -8.70303,-3.89819 -8.70303,-8.70302 v -22.95208 l 1.88736,-2.87126 -2.87161,1.88736 h -22.95172 c -4.80483,0 -8.70302,-3.89678 -8.70302,-8.70339 0,4.80661 -3.89468,8.70339 -8.703037,8.70339 h -22.95173 l -2.87161,-1.88736 1.88736,2.87126 v 22.95208 c 0,4.80483 -3.89466,8.70302 -8.70302,8.70302 4.80836,0 8.70302,3.89467 8.70302,8.70303 v 22.95173 l -1.88736,2.87161 2.87161,-1.88736 h 22.95173 c 4.808357,0 8.703037,3.89466 8.703037,8.70302 0,-4.80836 3.89819,-8.70302 8.70302,-8.70302 h 22.95172 l 2.87161,1.88736 -1.88736,-2.87161 v -22.95173 c 0,-4.80836 3.89819,-8.70303 8.70303,-8.70303"
       style="fill:#fab85f;fill-opacity:1;fill-rule:nonzero;stroke:none;stroke-width:0.0352778" />
  </g>
</svg>
