<?xml version="1.0" encoding="UTF-8" standalone="no"?>
<!-- Created with Inkscape (http://www.inkscape.org/) -->

<svg
   width="79.202637mm"
   height="84.410202mm"
   viewBox="0 0 79.202637 84.410202"
   version="1.1"
   id="svg1"
   inkscape:version="1.4.2 (ebf0e940, 2025-05-08)"
   sodipodi:docname="prime_attribute_frame.svg"
   xmlns:inkscape="http://www.inkscape.org/namespaces/inkscape"
   xmlns:sodipodi="http://sodipodi.sourceforge.net/DTD/sodipodi-0.dtd"
   xmlns="http://www.w3.org/2000/svg"
   xmlns:svg="http://www.w3.org/2000/svg">
  <sodipodi:namedview
     id="namedview1"
     pagecolor="#ffffff"
     bordercolor="#000000"
     borderopacity="0.25"
     inkscape:showpageshadow="2"
     inkscape:pageopacity="0.0"
     inkscape:pagecheckerboard="0"
     inkscape:deskcolor="#d1d1d1"
     inkscape:document-units="mm"
     inkscape:zoom="0.023162177"
     inkscape:cx="151.10842"
     inkscape:cy="172.69534"
     inkscape:window-width="896"
     inkscape:window-height="245"
     inkscape:window-x="0"
     inkscape:window-y="25"
     inkscape:window-maximized="0"
     inkscape:current-layer="layer1" />
  <defs
     id="defs1" />
  <g
     inkscape:label="Layer 1"
     inkscape:groupmode="layer"
     id="layer1"
     transform="translate(-68.791639,-106.36246)">
    <path
       id="path12816"
       d="m 109.60481,187.18879 c 1.54164,-2.25072 4.30389,-3.77366 6.88269,-4.39949 8.36436,-1.93146 15.91734,-7.07284 20.828,-14.12275 5.95489,-8.35026 7.52123,-17.98109 5.75734,-26.86403 1.14652,1.49577 2.77283,2.77988 4.03225,3.89819 1.93322,21.32189 -16.19956,41.26336 -37.50028,41.48808 z m -1.21003,-11.66777 c -0.0917,2.83951 -2.75872,5.05777 -5.56683,4.48698 l 0.067,0.0356 c -14.82372,-2.55482 -26.888721,-16.3442 -26.567693,-31.71825 -0.06703,-3.40078 0.469195,-6.72042 1.506361,-9.86014 1.531056,-1.01953 3.771195,-1.51695 4.995334,-1.63689 1.636889,-3.65478 4.064,-6.96031 7.083778,-9.59556 3.012723,-2.6423 6.572251,-4.66372 10.39989,-5.79261 0.30339,-1.34055 1.13947,-3.429 2.28953,-4.75544 1.89089,-0.34573 3.82764,-0.51153 5.79261,-0.4692 1.96144,-0.0423 3.89819,0.12347 5.78908,0.4692 1.15006,1.32644 1.98614,3.41489 2.28953,4.75544 3.82764,1.12889 7.38717,3.15031 10.39989,5.79261 3.01978,2.63525 5.45042,5.94078 7.08731,9.59556 1.22061,0.11994 3.46075,0.61736 4.9918,1.63689 1.03717,3.13972 1.57339,6.45936 1.50636,9.86014 0.32103,15.37405 -11.74397,29.16343 -26.56416,31.71825 l 0.067,-0.0356 c -2.81164,0.57079 -5.47864,-1.64747 -5.56683,-4.48698 z M 69.680943,145.70071 c 1.259417,-1.11831 2.885723,-2.40242 4.032251,-3.89819 -1.763889,8.88294 -0.197556,18.51377 5.757333,26.86403 4.910667,7.04991 12.46364,12.19129 20.828003,14.12275 2.5788,0.62583 5.34105,2.14877 6.88269,4.39949 C 85.8805,186.96407 67.747721,167.0226 69.680943,145.70071 Z m 19.963696,-19.21933 c -0.751417,-1.22062 -0.105833,-3.49603 1.075972,-4.89303 3.273778,-2.21192 6.93914,-3.8347 10.819699,-4.69195 -0.82198,1.22414 -1.3582,2.72345 -1.70392,3.90173 -3.728862,1.16769 -7.217834,3.11855 -10.191751,5.68325 z m -5.386917,0.81844 c 1.474611,-0.99836 3.556,-1.36172 4.942417,-0.42686 -2.924528,2.61408 -5.309306,5.83494 -6.939139,9.40153 -1.17475,0.16228 -2.741084,0.51153 -4.074584,1.17475 1.375834,-3.72181 3.46075,-7.16492 6.071306,-10.14942 z m 4.526139,-1.35467 c -1.019528,-0.38452 -2.116667,-0.38452 -3.199694,-0.0741 1.104194,-1.12536 2.289528,-2.17311 3.541889,-3.13267 -0.4445,1.04423 -0.592667,2.20839 -0.342195,3.20675 z m 43.744449,1.35467 c 2.61055,2.9845 4.69547,6.42761 6.0713,10.14942 -1.3335,-0.66322 -2.89983,-1.01247 -4.07458,-1.17475 -1.62983,-3.56659 -4.01461,-6.78745 -6.93914,-9.40153 1.38642,-0.93486 3.46781,-0.5715 4.94242,0.42686 z m -6.46289,-5.71147 c 1.1818,1.397 1.82739,3.67241 1.07597,4.89303 -2.97392,-2.5647 -6.46289,-4.51556 -10.19175,-5.68325 -0.34572,-1.17828 -0.88194,-2.67759 -1.70392,-3.90173 3.88056,0.85725 7.54592,2.48003 10.8197,4.69195 z m 1.59455,1.15005 c 1.25237,0.95956 2.4377,2.00731 3.54189,3.13267 -1.08302,-0.31044 -2.17664,-0.31044 -3.19969,0.0741 0.25047,-0.99836 0.1023,-2.16252 -0.3422,-3.20675 z m 20.15773,22.53898 c -1.88031,-1.524 -4.30036,-3.39725 -5.1682,-5.69736 -0.38452,-2.25425 1.04423,-5.6515 1.82739,-7.47537 -5.22111,-11.89214 -16.62289,-20.69394 -29.37933,-22.84236 0.49389,-0.68792 1.0795,-1.27353 1.70039,-1.65805 -0.2152,0.11994 -0.58209,0.34219 -0.91723,0.53622 0.93487,-0.58914 1.91559,-1.12184 2.90337,-1.63336 -1.53459,0.72319 -4.98123,1.40405 -6.5017,-0.14464 -0.74083,0.5715 -1.4605,1.1183 -2.159,1.73566 0.78317,0.79728 1.53106,1.65806 2.24014,2.51178 l 0.13405,-0.1023 c -0.0353,0.0459 -0.067,0.0953 -0.0988,0.14464 0.46919,0.59266 0.91722,1.18533 1.34408,1.77094 0.14817,-0.84314 0.47272,-1.70039 0.9137,-2.47297 12.51655,1.99319 23.76664,10.53042 28.99127,22.12269 -0.56444,1.55575 -1.41111,3.556 -1.69686,5.45748 -1.42875,-4.33917 -3.66536,-8.4067 -6.57225,-11.93095 -1.29116,-2.12725 -2.30011,-4.36033 -1.70744,-6.52286 -1.48872,0.81492 -3.90172,0.3175 -6.096,-0.52211 -5.40456,-3.57011 -11.92389,-5.69031 -19.18053,-5.63739 -7.26017,-0.0529 -13.779502,2.06728 -19.184058,5.63739 -2.194278,0.83961 -4.607278,1.33703 -6.092472,0.52211 0.589139,2.16253 -0.419806,4.39561 -1.710973,6.52286 -2.906889,3.52425 -5.1435,7.59178 -6.568722,11.93095 -0.289278,-1.90148 -1.135945,-3.90173 -1.700389,-5.45748 5.224639,-11.59227 16.474723,-20.1295 28.991284,-22.12269 0.44097,0.77258 0.76552,1.62983 0.91369,2.47297 0.42686,-0.58561 0.87489,-1.17828 1.34408,-1.77094 -0.0318,-0.0494 -0.0635,-0.0988 -0.0988,-0.14464 l 0.13405,0.1023 c 0.70908,-0.85372 1.45697,-1.7145 2.24367,-2.51178 -0.70203,-0.61736 -1.4217,-1.16416 -2.16253,-1.73566 -1.52047,1.54869 -4.967111,0.86783 -6.501695,0.14464 0.987778,0.51152 1.9685,1.04422 2.903365,1.63336 -0.33514,-0.19403 -0.70203,-0.41628 -0.917226,-0.53622 0.620886,0.38452 1.206496,0.97013 1.700386,1.65805 -12.756442,2.14842 -24.158221,10.95022 -29.379332,22.84236 0.783167,1.82387 2.211917,5.22112 1.827389,7.47537 -0.867833,2.30011 -3.287889,4.17336 -5.168195,5.69736 -2.208389,22.00628 16.608779,42.72915 38.660918,42.65859 0.45156,0.85796 0.72672,1.80552 0.76553,2.83669 0.0353,-1.03117 0.31044,-1.97873 0.762,-2.83669 22.05214,0.0706 40.86931,-20.65231 38.66092,-42.65859"
       style="fill:#fab85f;fill-opacity:1;fill-rule:nonzero;stroke:none;stroke-width:0.0352778" />
  </g>
</svg>
