<?xml version="1.0" encoding="UTF-8" standalone="no"?>
<!-- Created with Inkscape (http://www.inkscape.org/) -->

<svg
   width="174.99989mm"
   height="175mm"
   viewBox="0 0 174.99989 175"
   version="1.1"
   id="svg1"
   inkscape:version="1.4.2 (ebf0e940, 2025-05-08)"
   sodipodi:docname="portrait_frame.svg"
   xmlns:inkscape="http://www.inkscape.org/namespaces/inkscape"
   xmlns:sodipodi="http://sodipodi.sourceforge.net/DTD/sodipodi-0.dtd"
   xmlns="http://www.w3.org/2000/svg"
   xmlns:svg="http://www.w3.org/2000/svg">
  <sodipodi:namedview
     id="namedview1"
     pagecolor="#ffffff"
     bordercolor="#000000"
     borderopacity="0.25"
     inkscape:showpageshadow="2"
     inkscape:pageopacity="0.0"
     inkscape:pagecheckerboard="0"
     inkscape:deskcolor="#d1d1d1"
     inkscape:document-units="mm"
     inkscape:zoom="0.62"
     inkscape:cx="418.54839"
     inkscape:cy="309.67742"
     inkscape:window-width="1920"
     inkscape:window-height="1027"
     inkscape:window-x="0"
     inkscape:window-y="25"
     inkscape:window-maximized="1"
     inkscape:current-layer="layer1" />
  <defs
     id="defs1" />
  <g
     inkscape:label="Layer 1"
     inkscape:groupmode="layer"
     id="layer1"
     transform="translate(6.349998,-65.087448)">
    <path
       id="path12627"
       d="m 19.002672,71.404238 c 0.376257,1.02015 2.402838,2.860854 5.226247,2.860854 h 7.934172 c -1.160195,-0.979491 -2.169456,-2.332299 -2.500326,-2.860854 z m 56.214918,2.860854 c 1.937151,0 3.757744,-1.090377 4.826897,-2.860854 H 39.135002 c -0.33087,0.528555 -1.340132,1.881363 -2.500327,2.860854 z m 7.038248,-2.860854 c 1.068877,1.770477 2.889204,2.860854 4.826888,2.860854 h 38.582654 c -1.16073,-0.979491 -2.16973,-2.332299 -2.5006,-2.860854 z m 55.815302,2.860854 c 2.82367,0 4.85024,-1.840704 5.22651,-2.860854 h -10.66009 c -0.33088,0.528555 -1.33986,1.881363 -2.5006,2.860854 z M 17.524229,77.706249 c 0.597822,0.476809 1.108631,1.064504 1.440844,1.666984 0.332481,-0.60248 0.843289,-1.190175 1.441112,-1.666984 z m 124.369631,0 c 0.59809,0.476809 1.10837,1.064504 1.44085,1.666984 0.33248,-0.60248 0.84329,-1.190175 1.44111,-1.666984 z M 29.652559,80.422952 c 0.273398,-0.458329 1.014634,-1.652199 1.908412,-2.716703 h -8.837888 c -1.790513,0.413974 -3.051151,1.93311 -3.313269,2.716703 z m 113.237941,0 c -0.26292,-0.783593 -1.52839,-2.310122 -3.32481,-2.716703 h -8.82634 c 0.89324,1.064504 1.63448,2.258374 1.90788,2.716703 z m 11.10887,0 c 1.93795,0 3.51469,2.169665 3.51469,4.834621 v 14.041842 c 0.55566,-0.365923 1.6608,-2.029211 1.96535,-4.5648 l -0.001,-12.855363 c 0,-2.302729 -1.35948,-4.173003 -3.03101,-4.173003 h -9.3538 c -1.79052,0.413974 -3.05116,1.93311 -3.31328,2.716703 z M 5.8537996,77.706249 c -1.6715396,0 -3.0312771,1.870274 -3.0312771,4.173003 v 12.884932 c 0.3032084,2.50602 1.4080788,4.169308 1.9637368,4.535231 V 85.257573 c 0,-2.664956 1.5764685,-4.834621 3.5144227,-4.834621 H 18.520868 C 18.257945,79.639359 16.992742,78.11283 15.196052,77.706249 Z M 2.8225225,101.90153 C 3.1673582,101.08098 3.5957171,100.3787 4.0348184,99.920376 3.5957171,99.462047 3.1673582,98.75977 2.8225225,97.935519 Z M 158.26524,99.920376 c 0.4391,0.458324 0.86719,1.160604 1.21228,1.981154 v -3.966011 c -0.34509,0.824251 -0.77318,1.526528 -1.21228,1.984857 z m -0.75118,14.718244 c 0.33034,0.37332 1.19269,1.38977 1.96346,2.60952 v -12.17158 c -0.30294,-2.50971 -1.4078,-4.1693 -1.96346,-4.53892 z M 4.7862593,100.53764 c -0.555658,0.36962 -1.660797,2.03291 -1.9656167,4.5685 l 0.00188,12.142 c 0.7702402,-1.21975 1.6328664,-2.2362 1.9637367,-2.60952 z M 164.05868,99.972121 c -0.74123,0.517469 -2.07814,3.304389 -2.07814,7.189099 v 10.91856 c 0.70954,-1.59675 1.69383,-2.98283 2.07814,-3.44116 z M -1.7586346,114.63862 c 0.3837773,0.45463 1.36806268,1.84441 2.07841332,3.44116 V 107.16122 C 0.31924165,103.27651 -1.0176678,100.48959 -1.7586346,99.972121 Z M 161.98054,144.42255 c 0,2.66496 0.78984,5.17098 2.07814,6.64207 V 127.6751 c -0.38431,-0.45464 -1.3686,-1.8444 -2.07814,-3.44116 z m -163.7391746,6.64207 c 1.28829931,-1.47109 2.07841332,-3.97711 2.07841332,-6.64207 v -20.18861 c -0.71035064,1.59676 -1.69463602,2.98652 -2.07841332,3.44116 z m 165.8173146,3.04196 c -1.2883,1.47108 -2.07814,3.97711 -2.07814,6.64207 v 20.1886 c 0.70954,-1.59675 1.69383,-2.98283 2.07814,-3.43746 z M -1.7586346,177.49979 c 0.3837773,0.45463 1.36806268,1.84071 2.07841332,3.43746 v -20.1886 c 0,-2.66496 -0.79011401,-5.17099 -2.07841332,-6.64207 z M 157.51406,204.63355 c 0.55566,-0.36592 1.6608,-2.0329 1.96535,-4.56849 l -0.001,-12.142 c -0.77025,1.21975 -1.63287,2.23619 -1.96347,2.60951 z M 2.8225225,200.09832 c 0.3032084,2.50602 1.4080788,4.16931 1.9637368,4.53523 V 190.53257 C 4.455389,190.15925 3.5924943,189.14281 2.8225225,187.92306 Z M 161.98054,198.00998 c 0,3.88469 1.33691,6.67162 2.07814,7.18909 v -14.6665 c -0.38404,-0.45463 -1.36833,-1.8444 -2.07814,-3.44115 z m -163.7391746,7.18909 c 0.7409668,-0.51747 2.07787625,-3.3044 2.07841332,-7.18909 v -10.91856 c -0.71061914,1.60045 -1.69463602,2.98652 -2.07841332,3.44115 z m 4.5811571,2.0366 c 0.3448357,-0.82425 0.7731946,-1.52652 1.2122959,-1.98486 -0.4393699,-0.45462 -0.8674602,-1.1606 -1.2122959,-1.98116 z M 158.26524,205.25081 c 0.4391,0.45834 0.86719,1.16061 1.21228,1.98486 v -3.96602 c -0.34509,0.82056 -0.77292,1.52654 -1.21228,1.98116 z M 4.7862593,205.87178 c -0.555658,0.36592 -1.660797,2.02921 -1.9656167,4.56849 l 0.00188,12.85536 c 0,2.29904 1.3597372,4.16932 3.0312768,4.16932 H 15.21888 c 1.776009,-0.40659 3.039333,-1.92942 3.301987,-2.71301 H 8.300682 c -1.9379542,0 -3.5144227,-2.16967 -3.5144227,-4.83832 z m 15.6199257,21.59317 c -0.597823,-0.47312 -1.108631,-1.06451 -1.441112,-1.66699 -0.332213,0.60248 -0.843022,1.19387 -1.440844,1.66699 z m 119.182065,0 c 1.77628,-0.40659 3.03961,-1.92942 3.30225,-2.71301 h -10.24355 c -0.27339,0.45463 -1.01598,1.6485 -1.9076,2.71301 z m 5.18757,0 c -0.59782,-0.47312 -1.10863,-1.06451 -1.44111,-1.66699 -0.33248,0.60248 -0.84276,1.19387 -1.44085,1.66699 z m -63.486004,-4.72744 c 0,2.40622 1.636087,4.43913 3.805003,4.72744 h 44.368861 c 1.10594,-1.06081 2.20704,-2.74998 2.6875,-3.58901 l 0.11763,-0.20699 h 21.73056 c 1.5045,0 2.72861,-1.68547 2.72861,-3.75533 V 190.0151 l 0.14958,-0.16263 c 0.60561,-0.65792 1.82704,-2.16597 2.59996,-3.68141 v -28.17608 c -0.20921,-2.96435 -1.68684,-5.21533 -3.43599,-5.21533 v -0.3844 c 1.74915,0 3.22652,-2.25099 3.43653,-5.23751 l -5.4e-4,-28.15761 c -0.77292,-1.51544 -1.99435,-3.02349 -2.59996,-3.67772 l -0.14958,-0.16263 V 85.257573 c 0,-2.069869 -1.22411,-3.755332 -2.72861,-3.755332 h -21.73056 l -0.11763,-0.206988 c -0.48046,-0.83534 -1.58156,-2.5245 -2.6875,-3.589004 H 85.08139 c -2.155487,0.288303 -3.791574,2.321209 -3.791574,4.727432 h -0.279849 c 0,-2.406223 -1.635546,-4.439129 -3.80447,-4.727432 H 32.83638 c -1.105406,1.060808 -2.206787,2.753664 -2.687247,3.589004 l -0.117899,0.206988 H 8.300682 c -1.5044929,0 -2.7283371,1.685463 -2.7283371,3.755332 v 29.902207 l -0.1498585,0.16263 c -0.6056108,0.65423 -1.8267693,2.16228 -2.5999639,3.67772 v 28.17608 c 0.2097482,2.96805 1.6871164,5.21904 3.4360024,5.21904 v 0.3844 c -1.748886,0 -3.2265228,2.25098 -3.4365394,5.23381 l 5.37e-4,28.1576 c 0.7731946,1.51544 1.9943531,3.02349 2.5999639,3.68141 l 0.1498585,0.16263 v 29.89852 c 0,2.06986 1.2238442,3.75533 2.7283371,3.75533 h 21.730552 l 0.117899,0.20699 c 0.48046,0.83903 1.581841,2.5282 2.687247,3.58901 h 44.38228 c 2.155761,-0.28831 3.791307,-2.32122 3.791307,-4.72744 z m -61.880002,2.01443 c 0.262656,0.78359 1.527858,2.30642 3.324548,2.7167 l 8.826609,-0.004 c -0.892435,-1.0645 -1.634476,-2.25837 -1.908143,-2.713 z m 124.369636,0 c 0.26265,0.78359 1.52786,2.30642 3.32454,2.7167 l 9.34253,-0.004 c 1.67154,0 3.031,-1.87028 3.031,-4.16931 V 210.4067 c -0.30294,-2.50601 -1.4078,-4.1693 -1.96346,-4.53522 v 14.04184 c 0,2.66865 -1.57674,4.83832 -3.51469,4.83832 z m -114.116954,9.01501 c 0.33087,-0.52855 1.339596,-1.88136 2.500595,-2.85715 h -7.934172 c -2.823409,0 -4.84999,1.8407 -5.226247,2.85715 z m 50.381991,0 C 78.975334,231.99647 77.154741,230.9098 75.21759,230.9098 H 36.634675 c 1.161,0.97579 2.169726,2.3286 2.500596,2.85715 z m 43.120293,0 c 0.33032,-0.52855 1.33905,-1.88136 2.5006,-2.85715 H 87.082726 c -1.937684,0 -3.758011,1.08667 -4.826888,2.85715 z m 20.13287,0 c -0.37627,-1.01645 -2.40284,-2.85715 -5.22651,-2.85715 h -7.93418 c 1.16154,0.97579 2.16999,2.3286 2.5006,2.85715 z m 16.10763,6.3205 c -0.002,-0.0332 -0.24169,-3.04197 -0.79011,-5.23751 h -26.35468 l -0.11843,-0.20699 c -0.7262,-1.2678 -2.88142,-3.73315 -4.24089,-3.73315 -1.35948,0 -3.5147,2.46535 -4.24088,3.73315 l -0.11845,0.20699 H 81.732136 c -0.293536,0.7799 -0.44232,1.60045 -0.44232,2.44688 h -0.279849 c 0,-0.84643 -0.14851,-1.66698 -0.442053,-2.44688 H 38.75767 l -0.117631,-0.20699 c -0.726732,-1.2678 -2.881687,-3.73315 -4.240887,-3.73315 -1.359469,0 -3.514692,2.46535 -4.241425,3.73315 l -0.11763,0.20699 H 3.6848802 c -0.5486754,2.19924 -0.7874284,5.20424 -0.7898455,5.23751 l -0.2790375,-0.0184 c -0.00134,-0.15894 -0.058814,-3.90688 -2.06068825,-4.49827 -0.031422,-0.0111 -0.0628438,-0.0184 -0.0950715,-0.0259 l -0.11655661,-0.0259 -0.0239021,-0.16633 V 232.6766 H 4.5931623 l -0.215388,0.32158 c -0.124882,0.1885 -0.2478841,0.44723 -0.3676635,0.76881 H 18.598214 c -0.376256,-1.01646 -2.402837,-2.85716 -5.226515,-2.85716 H 0.31977872 v -17.9635 c -5.3707e-4,-3.88471 -1.33744652,-6.67163 -2.07841332,-7.1891 v 20.07403 c 0.2355301,-0.16633 0.4232561,-0.33636 0.5596864,-0.50639 l 0.23445598,-0.29569 v 5.88065 H -3.0268455 l -0.019928,-0.15894 c -0.00923,-0.0813 -0.01469,-0.12197 -0.021297,-0.16633 -0.429809,-2.76106 -3.1526944,-2.83498 -3.2686065,-2.83498 l -0.013321,-0.3844 c 0.022345,-0.004 2.2086129,-0.33266 3.8054114,-1.08668 v -36.26336 l 0.1495092,-0.16264 c 0.9213879,-1.00167 2.71431833,-3.96602 2.71485541,-5.83628 -5.3708e-4,-1.87028 -1.79346751,-4.83832 -2.71485541,-5.83629 l -0.1495092,-0.16264 v -24.63144 c -0.5653533,-0.40289 -1.1630951,-0.60617 -1.7781862,-0.60617 v -0.3844 c 0.6150911,0 1.2128329,-0.20699 1.7781862,-0.60988 v -24.63144 l 0.1495092,-0.16263 c 0.9213879,-0.99797 2.71431833,-3.96232 2.71485541,-5.8326 -5.3708e-4,-1.87396 -1.79346751,-4.83831 -2.71485541,-5.83629 l -0.1495092,-0.16263 V 78.892727 C -4.1418954,78.138704 -6.3276535,77.809743 -6.349998,77.806046 l 0.013321,-0.384404 c 0.1156167,0 2.8396299,-0.07762 3.2686065,-2.834981 0.00661,-0.04065 0.011736,-0.08501 0.017,-0.12567 l 0.019311,-0.158937 0.1230557,-0.03696 h 1.94421221 v 5.876948 L -1.1989481,79.846345 C -1.3353784,79.67632 -1.5231044,79.506296 -1.7586345,79.339967 v 20.07403 c 0.7406982,-0.517468 2.07787625,-3.304398 2.07841333,-7.189098 V 74.265092 H 13.371699 c 2.823678,0 4.850259,-1.840704 5.226515,-2.860854 H 4.0101106 c 0.1195108,0.325265 0.2427815,0.580302 0.3676636,0.768808 l 0.2153879,0.32157 H 0.31977872 v -2.834982 l 0.11628804,-0.02957 c 0.0572043,-0.01108 0.0883574,-0.01848 0.11924219,-0.02957 2.00187285,-0.587689 2.05934545,-4.33563 2.06068825,-4.494566 l 0.2790375,-0.01848 c 0.00241,0.02957 0.2414387,3.038271 0.7898455,5.23381 H 30.040097 l 0.11763,0.206987 c 0.726464,1.267795 2.881419,3.733157 4.240888,3.736852 1.360005,-0.0037 3.51496,-2.469057 4.241424,-3.736852 l 0.117631,-0.206987 h 41.810244 c 0.293543,-0.7762 0.442053,-1.600452 0.442053,-2.44688 h 0.279849 c 0,0.846428 0.148784,1.67068 0.44232,2.44688 h 41.809704 l 0.11845,0.206987 c 0.72593,1.267795 2.88088,3.733157 4.2406,3.736852 1.36029,-0.0037 3.51524,-2.469057 4.24117,-3.736852 l 0.11843,-0.206987 h 26.35468 c 0.54868,-2.195539 0.78769,-5.204241 0.79011,-5.23381 l 0.27904,0.01848 c 10e-4,0.158936 0.0543,3.90318 2.06043,4.494572 0.0306,0.01109 0.062,0.01848 0.0934,0.02587 l 0.11658,0.02587 0.0257,0.170026 v 2.672348 h -4.27419 l 0.21565,-0.321569 c 0.12489,-0.188506 0.24816,-0.443543 0.36794,-0.768808 h -14.58784 c 0.376,1.02015 2.4023,2.860854 5.22624,2.860854 h 13.0522 v 17.959807 c 0,3.8847 1.33691,6.67163 2.07814,7.189097 V 79.339967 c -0.23579,0.166329 -0.42352,0.336353 -0.55969,0.506378 l -0.23444,0.295695 v -5.876948 h 2.06148 c 0,0 0.0363,0.284607 0.0419,0.321569 0.42917,2.75736 3.15294,2.834981 3.26868,2.834981 l 0.0134,0.384404 c -0.0225,0.0037 -2.20868,0.332658 -3.80529,1.086681 v 36.267053 l -0.14985,0.16263 c -0.92144,0.99797 -2.71437,3.96232 -2.71437,5.8326 0,1.87027 1.79293,4.83832 2.71437,5.83629 l 0.14985,0.16263 v 24.63144 c 0.56506,0.40288 1.16289,0.60988 1.7779,0.60988 v 0.3844 c -0.61501,0 -1.21284,0.20328 -1.7779,0.60617 v 24.63144 l -0.14985,0.16264 c -0.92144,0.99797 -2.71437,3.96601 -2.71437,5.83628 0,1.87027 1.79293,4.83462 2.71437,5.83629 l 0.14985,0.16263 v 36.26336 c 1.59661,0.75403 3.78274,1.08299 3.80529,1.08669 l -0.0134,0.3844 c -0.11601,0 -2.83871,0.0739 -3.26842,2.83498 -0.006,0.0406 -0.0106,0.0776 -0.0156,0.11458 l -0.0264,0.21069 h -2.06177 v -5.88065 l 0.23446,0.29569 c 0.13616,0.17003 0.32389,0.34006 0.55969,0.50639 V 205.7572 c -0.74124,0.51747 -2.07816,3.30439 -2.07816,7.1891 v 17.9635 h -13.05218 c -2.82394,0 -4.85025,1.8407 -5.22624,2.85715 h 14.58783 c -0.11978,-0.32157 -0.24304,-0.5803 -0.36793,-0.76881 l -0.21565,-0.32157 h 4.27417 v 2.83869 l -0.11628,0.0259 c -0.0567,0.0111 -0.0884,0.0184 -0.12005,0.0296 -2.00562,0.59139 -2.05853,4.33563 -2.05988,4.49826 l -0.27903,0.0184"
       style="fill:#fab85f;fill-opacity:1;fill-rule:nonzero;stroke:none;stroke-width:0.0315066" />
  </g>
</svg>
