<?xml version="1.0" encoding="UTF-8" standalone="no"?>
<!-- Created with Inkscape (http://www.inkscape.org/) -->

<svg
   width="80.345146mm"
   height="80.344078mm"
   viewBox="0 0 80.345146 80.344078"
   version="1.1"
   id="svg1"
   inkscape:version="1.4.2 (ebf0e940, 2025-05-08)"
   sodipodi:docname="skill_improvement_frame_with_background.svg"
   xmlns:inkscape="http://www.inkscape.org/namespaces/inkscape"
   xmlns:sodipodi="http://sodipodi.sourceforge.net/DTD/sodipodi-0.dtd"
   xmlns="http://www.w3.org/2000/svg"
   xmlns:svg="http://www.w3.org/2000/svg">
  <sodipodi:namedview
     id="namedview1"
     pagecolor="#ffffff"
     bordercolor="#000000"
     borderopacity="0.25"
     inkscape:showpageshadow="2"
     inkscape:pageopacity="0.0"
     inkscape:pagecheckerboard="0"
     inkscape:deskcolor="#d1d1d1"
     inkscape:document-units="mm"
     inkscape:zoom="1.13"
     inkscape:cx="126.99115"
     inkscape:cy="172.56637"
     inkscape:window-width="1920"
     inkscape:window-height="1027"
     inkscape:window-x="0"
     inkscape:window-y="25"
     inkscape:window-maximized="1"
     inkscape:current-layer="layer1" />
  <defs
     id="defs1" />
  <g
     inkscape:label="Layer 1"
     inkscape:groupmode="layer"
     id="layer1"
     transform="translate(-68.262537,-108.21454)">
    <path
       id="path12921"
       d="m 108.43334,184.23709 -2.16252,-5.42219 0.10936,-0.10583 2.05316,2.14841 2.0567,-2.14841 0.10583,0.10583 z m -35.849275,-35.84928 5.422194,-2.16252 0.105834,0.10583 -2.148417,2.05669 2.148417,2.0567 -0.105834,0.10583 z m 35.849275,-35.84963 2.16253,5.42008 -0.10583,0.10795 -2.0567,-2.14736 -2.05316,2.14736 -0.10936,-0.10795 z m 35.84928,35.84963 -5.41866,2.16253 -0.10936,-0.10583 2.14841,-2.0567 -2.14841,-2.05669 0.10936,-0.10583 z m -64.300805,28.45153 v -1.12183 l 0.246945,-0.41981 1.636889,-0.34219 -0.342195,1.63689 -0.419805,0.24694 z m 1.541639,-56.65717 0.342195,1.63689 -1.636889,-0.34361 -0.246945,-0.41945 v -1.12007 h 1.121834 z m 55.361416,2.88572 v 22.86812 l -2.4518,2.4518 2.4518,2.45181 v 22.86706 l -3.96169,-0.83256 0.82903,3.96522 h -22.86706 l -2.45181,-2.4518 -2.4518,2.4518 H 83.114482 l 0.832556,-3.96522 -3.965223,0.83256 v -22.86706 l 2.451806,-2.45181 -2.451806,-2.4518 v -22.86812 l 3.965223,0.8315 -0.832556,-3.96346 h 22.867058 l 2.4518,2.45251 2.45181,-2.45251 h 22.86706 l -0.82903,3.96346 z m 0,-3.13196 v 1.12042 l -0.24694,0.4191 -1.63689,0.34361 0.34572,-1.63689 0.41981,-0.24624 z m -1.53811,56.65647 -0.34572,-1.63689 1.63689,0.34219 0.24694,0.41981 v 1.12183 h -1.1183 z m 3.25614,-24.21114 10.00478,-3.99345 -10.00478,-3.99344 v -23.08649 l 4.37797,-7.46936 -7.4683,4.38009 h -23.08578 l -3.99345,-10.00407 -3.99344,10.00407 H 81.354121 l -7.468306,-4.38009 4.377972,7.46936 v 23.08649 l -10.00125,3.99344 10.00125,3.99345 v 23.08578 l -4.377972,7.4683 7.468306,-4.37797 H 104.4399 l 3.99344,10.00125 3.99345,-10.00125 h 23.08578 l 7.4683,4.37797 -4.37797,-7.4683 v -23.08578"
       style="fill:#fab85f;fill-opacity:1;fill-rule:nonzero;stroke:none;stroke-width:0.0352778" />
    <path
       style="fill:#000000;stroke-width:0.884956"
       d="m 57.079646,258.02246 c 0,-0.45491 0.604356,-3.70011 1.343012,-7.21157 0.738657,-3.51145 1.225117,-6.50235 1.081023,-6.64644 -0.144095,-0.1441 -3.536062,0.44852 -7.537703,1.31694 l -7.275713,1.57893 V 204.08896 161.1176 l 4.615788,-4.67384 4.615788,-4.67385 -4.615788,-4.67385 -4.615788,-4.67384 V 99.750934 c 0,-40.054335 0.09498,-42.670486 1.548673,-42.658207 0.85177,0.0072 4.095176,0.613346 7.207568,1.347003 3.112393,0.733658 5.820002,1.172819 6.016908,0.975912 0.196907,-0.196907 -0.258888,-3.018036 -1.012878,-6.269175 -0.753989,-3.251139 -1.37089,-6.483796 -1.37089,-7.183682 0,-1.089128 6.149639,-1.27252 42.671288,-1.27252 h 42.671286 l 4.67384,4.615788 4.67385,4.615788 4.67385,-4.615788 4.67384,-4.615788 h 42.67129 c 40.06119,0 42.66938,0.09473 42.6402,1.548673 -0.0171,0.85177 -0.58506,4.133364 -1.26214,7.292432 -0.67708,3.159068 -1.12068,5.854132 -0.98578,5.98903 0.13489,0.134899 3.11827,-0.359085 6.62972,-1.097742 3.51146,-0.738656 6.75666,-1.343012 7.21157,-1.343012 0.50139,0 0.8271,16.803611 0.8271,42.671288 v 42.671286 l -4.61579,4.67384 -4.61579,4.67385 4.61579,4.67385 4.61579,4.67384 v 42.67129 c 0,40.06119 -0.0947,42.66938 -1.54868,42.6402 -0.85176,-0.0171 -4.13336,-0.58506 -7.29243,-1.26214 -3.15906,-0.67708 -5.81773,-1.15707 -5.90816,-1.06666 -0.0904,0.0904 0.38958,2.7491 1.06666,5.90816 0.67708,3.15907 1.24504,6.44067 1.26214,7.29243 0.0292,1.45395 -2.57901,1.54868 -42.6402,1.54868 H 161.1176 l -4.67384,-4.61579 -4.67385,-4.61579 -4.67385,4.61579 -4.67384,4.61579 H 99.750934 c -25.867677,0 -42.671288,-0.32571 -42.671288,-0.8271 z"
       id="path1"
       transform="matrix(0.26458333,0,0,0.26458333,68.262537,108.21454)" />
  </g>
</svg>
