<?xml version="1.0" standalone="no"?>
<!DOCTYPE svg PUBLIC "-//W3C//DTD SVG 20010904//EN" "http://www.w3.org/TR/2001/REC-SVG-20010904/DTD/svg10.dtd">
<!-- Created using Krita: https://krita.org -->
<svg xmlns="http://www.w3.org/2000/svg" 
    xmlns:xlink="http://www.w3.org/1999/xlink"
    xmlns:krita="http://krita.org/namespaces/svg/krita"
    xmlns:sodipodi="http://sodipodi.sourceforge.net/DTD/sodipodi-0.dtd"
    width="368.64pt"
    height="368.64pt"
    viewBox="0 0 368.64 368.64">
<defs/>
<path id="shape0" transform="matrix(0.72 0 0 0.72 0 0)" fill="#ffffff" stroke-opacity="0" stroke="#000000" stroke-width="0" stroke-linecap="square" stroke-linejoin="bevel" d="M0 0L512 0L512 512L0 512Z" sodipodi:nodetypes="ccccc"/><g id="group0" transform="matrix(0.72 0 0 0.72 1.14302441554567e-13 1.20196848255074e-13)" fill="none">
  <path id="shape1" transform="translate(19.73, 18.7219273467304)" fill="#000000" stroke-opacity="0" stroke="#000000" stroke-width="0" stroke-linecap="square" stroke-linejoin="bevel" d="M228.06 0.0120727C118.237 -1.12593 0.144 78.2181 0 225.808L21.403 174.413C11.918 246.693 13.653 321.649 60.193 376.915L18.47 358.633C57.71 428.407 144.803 449.609 219.325 451.143C104.38 411.178 48.14 323.555 44.182 227.77C37.46 15.9901 304.84 10.0761 384.962 152C381.545 132.508 376.339 113.574 369.344 95.8901C446.75 185.045 428.637 310.765 348.054 348.926C323.804 352.876 299.124 360.986 287.1 367.926C228.552 401.728 280.83 494.462 340.325 460.114C349.765 454.664 363.729 442.811 376.819 428.762C441.179 369.242 474.919 310.522 469.927 239.822C463.407 268.922 450.752 297.726 434.304 324.505C497.462 177.683 442.26 60.6151 289.466 23.1511C301.563 28.9861 312.969 36.7811 323.339 46.5111C265.924 22.7591 192.216 23.8911 136.455 50.0161C164.521 23.8161 201.231 6.28607 238.655 0.374073C235.135 0.169073 231.601 0.0490727 228.058 0.0120727ZM208.32 160.214L188.477 260.78C185.519 264.59 182.837 267.632 179.444 270.72L153.756 221.624L131.051 233.554L162.421 294.499C166.901 305.973 172.441 315.179 177.583 323.023C205.646 365.826 242.13 358.275 272.886 332.578L360.166 284.126L347.456 261.628L281.32 298.568C279.803 295.414 278.054 292.016 276.264 289.058L344.082 224.098L326.542 205.403L260.072 269.165C257.716 266.847 255.834 264.638 253.307 262.625L298.391 184.54L275.658 171.413L229.794 249.71C226.004 248.4 222.074 247.51 218.199 246.965L233.855 165.069L208.322 160.215Z" sodipodi:nodetypes="cccccccccccccccccccccccccccccccccccccccccccc"/>
 </g><ellipse id="shape2" transform="translate(104.4, 125.28)" rx="88.92" ry="73.08" cx="88.92" cy="73.08" fill="none" stroke="#ffffff" stroke-width="14.4" stroke-linecap="square" stroke-linejoin="bevel"/><ellipse id="shape3" transform="translate(138.24, 164.16)" rx="65.16" ry="27.72" cx="65.16" cy="27.72" fill="none" stroke="#ffffff" stroke-width="14.4" stroke-linecap="square" stroke-linejoin="bevel"/><ellipse id="shape4" transform="translate(162, 187.2)" rx="15.84" ry="14.4" cx="15.84" cy="14.4" fill="none" stroke="#ffffff" stroke-width="14.4" stroke-linecap="square" stroke-linejoin="bevel"/><ellipse id="shape5" transform="translate(169.2, 225.36)" rx="7.19999999999999" ry="7.2" cx="7.19999999999999" cy="7.2" fill="none" stroke="#ffffff" stroke-width="14.4" stroke-linecap="square" stroke-linejoin="bevel"/><ellipse id="shape6" transform="translate(191.52, 238.32)" rx="1.08" ry="6.83999999999999" cx="1.08" cy="6.83999999999999" fill="none" stroke="#ffffff" stroke-width="14.4" stroke-linecap="square" stroke-linejoin="bevel"/><ellipse id="shape7" transform="translate(201.6, 237.6)" rx="8.28" ry="6.12" cx="8.28" cy="6.12" fill="none" stroke="#ffffff" stroke-width="14.4" stroke-linecap="square" stroke-linejoin="bevel"/><ellipse id="shape8" transform="translate(175.68, 239.76)" rx="17.28" ry="6.83999999999999" cx="17.28" cy="6.83999999999999" fill="none" stroke="#ffffff" stroke-width="14.4" stroke-linecap="square" stroke-linejoin="bevel"/><ellipse id="shape9" transform="translate(125.28, 208.08)" rx="36.72" ry="27.72" cx="36.72" cy="27.72" fill="none" stroke="#ffffff" stroke-width="14.4" stroke-linecap="square" stroke-linejoin="bevel"/><ellipse id="shape10" transform="translate(158.4, 138.24)" rx="21.6" ry="21.24" cx="21.6" cy="21.24" fill="none" stroke="#ffffff" stroke-width="14.4" stroke-linecap="square" stroke-linejoin="bevel"/><ellipse id="shape11" transform="translate(171.36, 150.48)" rx="3.95999999999999" ry="4.31999999999999" cx="3.95999999999999" cy="4.31999999999999" fill="none" stroke="#ffffff" stroke-width="14.4" stroke-linecap="square" stroke-linejoin="bevel"/><ellipse id="shape12" transform="translate(167.76, 152.64)" rx="6.11999999999999" ry="1.8" cx="6.11999999999999" cy="1.8" fill="none" stroke="#ffffff" stroke-width="14.4" stroke-linecap="square" stroke-linejoin="bevel"/><ellipse id="shape13" transform="translate(171.36, 151.92)" rx="2.88" ry="3.95999999999999" cx="2.88" cy="3.95999999999999" fill="none" stroke="#ffffff" stroke-width="14.4" stroke-linecap="square" stroke-linejoin="bevel"/><ellipse id="shape14" transform="translate(173.52, 152.64)" rx="2.88" ry="5.03999999999999" cx="2.88" cy="5.03999999999999" fill="none" stroke="#ffffff" stroke-width="14.4" stroke-linecap="square" stroke-linejoin="bevel"/><ellipse id="shape15" transform="translate(218.16, 225.36)" rx="14.04" ry="6.11999999999999" cx="14.04" cy="6.11999999999999" fill="none" stroke="#ffffff" stroke-width="14.4" stroke-linecap="square" stroke-linejoin="bevel"/><ellipse id="shape16" transform="translate(256.32, 216)" rx="3.59999999999999" ry="6.48" cx="3.59999999999999" cy="6.48" fill="none" stroke="#ffffff" stroke-width="14.4" stroke-linecap="square" stroke-linejoin="bevel"/><ellipse id="shape17" transform="translate(259.92, 225.36)" rx="2.52000000000001" ry="1.8" cx="2.52000000000001" cy="1.8" fill="none" stroke="#ffffff" stroke-width="14.4" stroke-linecap="square" stroke-linejoin="bevel"/><ellipse id="shape18" transform="translate(258.48, 223.2)" rx="6.47999999999999" ry="0.359999999999999" cx="6.47999999999999" cy="0.359999999999999" fill="none" stroke="#ffffff" stroke-width="14.4" stroke-linecap="square" stroke-linejoin="bevel"/><ellipse id="shape19" transform="translate(265.68, 211.68)" rx="3.96000000000001" ry="3.95999999999999" cx="3.96000000000001" cy="3.95999999999999" fill="none" stroke="#ffffff" stroke-width="14.4" stroke-linecap="square" stroke-linejoin="bevel"/><ellipse id="shape20" transform="translate(271.44, 212.4)" rx="1.08000000000001" ry="3.96000000000001" cx="1.08000000000001" cy="3.96000000000001" fill="none" stroke="#ffffff" stroke-width="14.4" stroke-linecap="square" stroke-linejoin="bevel"/><ellipse id="shape21" transform="translate(268.56, 214.56)" rx="1.44" ry="4.68000000000001" cx="1.44" cy="4.68000000000001" fill="none" stroke="#ffffff" stroke-width="14.4" stroke-linecap="square" stroke-linejoin="bevel"/><ellipse id="shape22" transform="translate(216, 180.72)" rx="10.8" ry="14.4" cx="10.8" cy="14.4" fill="none" stroke="#ffffff" stroke-width="14.4" stroke-linecap="square" stroke-linejoin="bevel"/><ellipse id="shape23" transform="translate(201.6, 185.76)" rx="18.72" ry="14.04" cx="18.72" cy="14.04" fill="none" stroke="#ffffff" stroke-width="14.4" stroke-linecap="square" stroke-linejoin="bevel"/><ellipse id="shape24" transform="translate(130.32, 164.16)" rx="43.2" ry="38.88" cx="43.2" cy="38.88" fill="none" stroke="#ffffff" stroke-width="14.4" stroke-linecap="square" stroke-linejoin="bevel"/><ellipse id="shape25" transform="translate(147.6, 198.72)" rx="23.04" ry="20.52" cx="23.04" cy="20.52" fill="none" stroke="#ffffff" stroke-width="14.4" stroke-linecap="square" stroke-linejoin="bevel"/><ellipse id="shape26" transform="translate(160.56, 210.96)" rx="6.48" ry="8.28" cx="6.48" cy="8.28" fill="none" stroke="#ffffff" stroke-width="14.4" stroke-linecap="square" stroke-linejoin="bevel"/><ellipse id="shape27" transform="translate(159.12, 236.16)" rx="10.8" ry="9.36" cx="10.8" cy="9.36" fill="none" stroke="#ffffff" stroke-width="14.4" stroke-linecap="square" stroke-linejoin="bevel"/><ellipse id="shape28" transform="translate(141.84, 227.52)" rx="13.68" ry="14.76" cx="13.68" cy="14.76" fill="none" stroke="#ffffff" stroke-width="14.4" stroke-linecap="square" stroke-linejoin="bevel"/><ellipse id="shape29" transform="translate(151.2, 228.96)" rx="5.39999999999999" ry="10.08" cx="5.39999999999999" cy="10.08" fill="none" stroke="#ffffff" stroke-width="14.4" stroke-linecap="square" stroke-linejoin="bevel"/><ellipse id="shape30" transform="translate(133.2, 226.8)" rx="9" ry="2.88" cx="9" cy="2.88" fill="none" stroke="#ffffff" stroke-width="14.4" stroke-linecap="square" stroke-linejoin="bevel"/><ellipse id="shape31" transform="translate(186.48, 242.64)" rx="5.39999999999999" ry="11.16" cx="5.39999999999999" cy="11.16" fill="none" stroke="#ffffff" stroke-width="14.4" stroke-linecap="square" stroke-linejoin="bevel"/><ellipse id="shape32" transform="translate(223.2, 226.8)" rx="3.59999999999999" ry="12.24" cx="3.59999999999999" cy="12.24" fill="none" stroke="#ffffff" stroke-width="14.4" stroke-linecap="square" stroke-linejoin="bevel"/><ellipse id="shape33" transform="translate(230.4, 210.96)" rx="16.2" ry="7.2" cx="16.2" cy="7.2" fill="none" stroke="#ffffff" stroke-width="14.4" stroke-linecap="square" stroke-linejoin="bevel"/><ellipse id="shape34" transform="translate(201.6, 144)" rx="26.64" ry="12.96" cx="26.64" cy="12.96" fill="none" stroke="#ffffff" stroke-width="14.4" stroke-linecap="square" stroke-linejoin="bevel"/><ellipse id="shape35" transform="translate(195.12, 154.8)" rx="29.88" ry="4.67999999999999" cx="29.88" cy="4.67999999999999" fill="none" stroke="#ffffff" stroke-width="14.4" stroke-linecap="square" stroke-linejoin="bevel"/><ellipse id="shape36" transform="translate(186.48, 138.96)" rx="26.28" ry="3.23999999999999" cx="26.28" cy="3.23999999999999" fill="none" stroke="#ffffff" stroke-width="14.4" stroke-linecap="square" stroke-linejoin="bevel"/><ellipse id="shape37" transform="translate(152.64, 147.6)" rx="19.8" ry="10.8" cx="19.8" cy="10.8" fill="none" stroke="#ffffff" stroke-width="14.4" stroke-linecap="square" stroke-linejoin="bevel"/><ellipse id="shape38" transform="translate(161.28, 138.96)" rx="13.68" ry="9.36" cx="13.68" cy="9.36" fill="none" stroke="#ffffff" stroke-width="14.4" stroke-linecap="square" stroke-linejoin="bevel"/><ellipse id="shape39" transform="translate(189.36, 170.64)" rx="8.64" ry="7.92" cx="8.64" cy="7.92" fill="none" stroke="#ffffff" stroke-width="14.4" stroke-linecap="square" stroke-linejoin="bevel"/><ellipse id="shape40" transform="translate(240.48, 174.96)" rx="7.19999999999999" ry="6.48" cx="7.19999999999999" cy="6.48" fill="none" stroke="#ffffff" stroke-width="14.4" stroke-linecap="square" stroke-linejoin="bevel"/><ellipse id="shape41" transform="translate(225.36, 185.76)" rx="5.39999999999999" ry="8.64" cx="5.39999999999999" cy="8.64" fill="none" stroke="#ffffff" stroke-width="14.4" stroke-linecap="square" stroke-linejoin="bevel"/><ellipse id="shape42" transform="translate(208.8, 187.92)" rx="0.719999999999999" ry="9.72" cx="0.719999999999999" cy="9.72" fill="none" stroke="#ffffff" stroke-width="14.4" stroke-linecap="square" stroke-linejoin="bevel"/><ellipse id="shape43" transform="translate(152.64, 172.8)" rx="7.92" ry="16.56" cx="7.92" cy="16.56" fill="none" stroke="#ffffff" stroke-width="14.4" stroke-linecap="square" stroke-linejoin="bevel"/><ellipse id="shape44" transform="translate(159.12, 177.84)" rx="4.68000000000001" ry="7.92" cx="4.68000000000001" cy="7.92" fill="none" stroke="#ffffff" stroke-width="14.4" stroke-linecap="square" stroke-linejoin="bevel"/><ellipse id="shape45" transform="translate(115.92, 172.08)" rx="7.2" ry="13.68" cx="7.2" cy="13.68" fill="none" stroke="#ffffff" stroke-width="14.4" stroke-linecap="square" stroke-linejoin="bevel"/><ellipse id="shape46" transform="translate(121.68, 184.32)" rx="3.95999999999999" ry="18.72" cx="3.95999999999999" cy="18.72" fill="none" stroke="#ffffff" stroke-width="14.4" stroke-linecap="square" stroke-linejoin="bevel"/><ellipse id="shape47" transform="translate(154.8, 82.08)" rx="15.48" ry="5.04" cx="15.48" cy="5.04" fill="none" stroke="#ffffff" stroke-width="14.4" stroke-linecap="square" stroke-linejoin="bevel"/><ellipse id="shape48" transform="translate(164.16, 84.24)" rx="9.72" ry="3.59999999999999" cx="9.72" cy="3.59999999999999" fill="none" stroke="#ffffff" stroke-width="14.4" stroke-linecap="square" stroke-linejoin="bevel"/><ellipse id="shape49" transform="translate(171.36, 77.04)" rx="7.56" ry="6.84" cx="7.56" cy="6.84" fill="none" stroke="#ffffff" stroke-width="14.4" stroke-linecap="square" stroke-linejoin="bevel"/>
</svg>
