<?xml version="1.0" standalone="no"?>
<!DOCTYPE svg PUBLIC "-//W3C//DTD SVG 20010904//EN"
 "http://www.w3.org/TR/2001/REC-SVG-20010904/DTD/svg10.dtd">
<svg version="1.0" xmlns="http://www.w3.org/2000/svg"
 width="512.000000pt" height="512.000000pt" viewBox="0 0 512.000000 512.000000"
 preserveAspectRatio="xMidYMid meet">

<g transform="translate(0.000000,512.000000) scale(0.100000,-0.100000)"
fill="#000000" stroke="none">
<path d="M2295 4923 c-438 -30 -887 -197 -1239 -462 -495 -373 -789 -922 -846
-1581 -18 -207 -19 -207 92 58 56 133 103 240 106 238 2 -3 -4 -78 -14 -168
-25 -226 -26 -682 0 -853 55 -377 170 -676 350 -915 23 -30 45 -61 50 -68 9
-15 24 -21 -223 87 -90 40 -165 70 -168 68 -2 -3 19 -38 46 -78 199 -297 504
-515 916 -656 255 -87 689 -164 925 -163 l55 1 -120 49 c-547 228 -954 557
-1232 998 -306 485 -428 1123 -318 1668 97 481 376 849 800 1054 256 125 507
180 817 180 680 0 1350 -338 1689 -854 24 -37 45 -62 47 -56 6 17 -67 296
-104 399 -18 52 -32 96 -30 99 7 6 112 -130 180 -235 294 -450 390 -1019 251
-1496 -94 -324 -293 -592 -556 -748 -56 -34 -96 -48 -202 -71 -373 -83 -580
-187 -677 -338 -126 -197 -82 -478 105 -666 198 -198 447 -203 700 -12 75 57
325 296 502 481 422 440 649 885 692 1357 11 120 15 257 6 249 -2 -3 -21 -58
-40 -122 -48 -159 -137 -369 -225 -529 -68 -126 -103 -180 -85 -133 4 11 29
76 55 145 214 563 249 1120 97 1566 -172 506 -567 894 -1157 1137 -87 35 -363
127 -383 127 -7 0 17 -18 52 -39 75 -47 224 -162 217 -169 -3 -2 -43 10 -90
27 -113 40 -247 75 -403 103 -113 20 -160 23 -398 23 -237 -1 -286 -3 -398
-24 -168 -29 -353 -81 -474 -130 -54 -22 -99 -39 -101 -36 -6 6 144 126 236
188 179 121 454 239 666 287 l81 18 -100 -1 c-55 0 -122 -2 -150 -4z"/>
</g>
</svg>
