<svg xmlns="http://www.w3.org/2000/svg" viewBox="0 0 512 512" style="height: 512px; width: 512px;"><defs><filter id="shadow-2" height="300%" width="300%" x="-100%" y="-100%"><feFlood flood-color="rgba(255, 255, 255, 1)" result="flood"></feFlood><feComposite in="flood" in2="SourceGraphic" operator="atop" result="composite"></feComposite><feGaussianBlur in="composite" stdDeviation="15" result="blur"></feGaussianBlur><feOffset dx="0" dy="0" result="offset"></feOffset><feComposite in="SourceGraphic" in2="offset" operator="over"></feComposite></filter></defs><path d="M0 0h512v512H0z" fill="#ffffff" fill-opacity="1"></path><g class="" transform="translate(0,0)" style=""><g><path d="M20.91 20.002L20.91 52.292L378.703 391.192L20.91 101.407L20.91 160.349L376.852 410.573L289.962 393.046L316.875 423.993L246.373 427.001L492.006 491.604L426.504 242.55L411.152 334.91L383.852 303.45L400.535 363.914L161.26 20.002L138.89 20.002L281.166 228.937L109.496 42.17L208.471 180.717L45.194 20.002L20.91 20.002Z" class="selected" fill="#000000" fill-opacity="1" filter="url(#shadow-2)"></path><path d="M453.91 112.188L421.676 150.67L476.866 358.88L492.152 141.086L453.91 112.186Z" class="" fill="#000000" fill-opacity="1"></path><path d="M222.03 440.078L197.055 463.548L218.729 491.168L367.954 478.388L222.028 440.078Z" class="" fill="#000000" fill-opacity="1"></path></g></g></svg>